<svg id="flame-svgrepo-com" xmlns="http://www.w3.org/2000/svg" width="46.882" height="75.431" viewBox="0 0 46.882 75.431">
  <path id="Path_464" data-name="Path 464" d="M127.143,75.332a.811.811,0,0,0,1.057-1.159c-2.435-3.811-4.74-10.224-1.067-18.482,6.126-13.772,9.853-20.9,9.853-20.9a49.727,49.727,0,0,0,7.357,15.725c5.172,7.123,8,16.082,3.439,23.545a.811.811,0,0,0,1.055,1.152c5.65-2.907,11.986-8.737,12.7-20.339A39.906,39.906,0,0,0,159.43,40.1c-2.542-7.938-5.667-11.642-7.475-13.233a.809.809,0,0,0-1.337.667c.527,8.565-2.677,10.739-4.5,5.841a30.135,30.135,0,0,1-1.153-9.462,32.479,32.479,0,0,0-6.343-19.663A22.209,22.209,0,0,0,134.635.171a.809.809,0,0,0-1.3.7c.335,4.651.032,17.981-11.6,33.906-10.543,14.772-6.458,26.117-5.008,29.19A23.992,23.992,0,0,0,127.143,75.332Z" transform="translate(-114.73 0.001)" fill="#50c774" opacity="0.15"/>
</svg>
