<svg id="Component_75_1" data-name="Component 75 – 1" xmlns="http://www.w3.org/2000/svg" width="74.149" height="60.985" viewBox="0 0 74.149 60.985">
  <path id="Union_16" data-name="Union 16" d="M-12844.088-2033.726a6.843,6.843,0,0,1-1.912-4.9c.429-3.463,2.386-5.252,3.931-5.732a13.6,13.6,0,0,1,3.585-.487,11.814,11.814,0,0,1,1.991.165c1.071-.969,5.752-5.232,7.929-7.718-.119-5.871-2.3-7.083,0-10.687A229.159,229.159,0,0,1-12799.2-2078s-8.105,18.673-15.385,29.828c-2.393,2.4-6.106-.467-10.1-.587-1.006.387-8.221,7.75-8.221,7.75l-.012-.011a3.052,3.052,0,0,1-.35.446c.074,5.648-.945,6.7-4.11,8.469a7.974,7.974,0,0,1-2.08.287A6.421,6.421,0,0,1-12844.088-2033.726Zm.735-1.744,6.653,1.054,1.055-6.654-6.654-1.054Z" transform="translate(12873.353 2091.038)" fill="#50c774" opacity="0.15"/>
  <path id="Union_17" data-name="Union 17" d="M-12844.925-2018.123l.971-.971a2.032,2.032,0,0,1-.685.278c-1.67.316-1.334-1.451-1.334-1.451s4.868-5.329,4.945-8.6c.2-8.666-.454-23.79,9.269-35.054,11.768-10.172,13.954-8.073,34.994-9.562.115,0,.241,0,.37,0,1.8.016,4.724.032,8.366-4.243,1.72-.635,2.085-.047,2.036.669l.363-.363,1.111,1.109-59.3,59.3Zm49.3-52.583c-10.652,2.125-19.112-.742-30.312,10.078-9.25,8.937-9.946,14.792-11.852,31.76a25.651,25.651,0,0,1-4,7.6l52.488-52.491C-12791.477-2072.4-12794.326-2070.784-12795.62-2070.706Z" transform="translate(12846 2077.999)" fill="#50c774" opacity="0.15"/>
</svg>
