<svg xmlns="http://www.w3.org/2000/svg" width="17" height="17" viewBox="0 0 17 17">
  <g id="eys-of-iyo" transform="translate(0.006 0.001)">
    <path id="Union_34" data-name="Union 34" d="M8.487,17a8.5,8.5,0,1,1,.035,0ZM.278,8.485a8.284,8.284,0,0,0,8.18,8.253A8.281,8.281,0,0,0,16.731,8.51,8.27,8.27,0,0,0,8.574.281H8.53A8.266,8.266,0,0,0,.278,8.485ZM6.44,15.4a8.27,8.27,0,0,1-3.174-4.526C3.127,10.4,3.02,9.9,2.9,9.42l.131-.034c.18.3.344.6.537.886a1.278,1.278,0,0,0,1.16.692,1.267,1.267,0,0,0,1.047-.949,1.725,1.725,0,0,0,.1-1.162A.408.408,0,0,1,5.942,8.5,4.4,4.4,0,0,0,7.514,7.062l.111.077c-.2.4-.4.808-.6,1.2-.084.17-.2.32-.277.489a.7.7,0,0,0,.688,1.021,8.686,8.686,0,0,1,2.186,0,.7.7,0,0,0,.67-1.045c-.213-.426-.457-.833-.674-1.249a4.775,4.775,0,0,1-.189-.537,5.644,5.644,0,0,0,1,.876,1.236,1.236,0,0,1,.793,1.322,2.141,2.141,0,0,0,.441,1.191,1.014,1.014,0,0,0,1.732.039,10.157,10.157,0,0,0,.75-1.244.836.836,0,0,1,.246-.339c-.025.135-.033.276-.068.411a11.62,11.62,0,0,1-2.326,4.836,7.735,7.735,0,0,1-1.84,1.554,3.094,3.094,0,0,1-1.621.477A3.635,3.635,0,0,1,6.44,15.4Zm3.441-2.1c.254-.116.5-.271.752-.416a1.147,1.147,0,0,0-.855-.407H7.242a.96.96,0,0,0-.8.431c.207.1.387.2.576.266a1.887,1.887,0,0,0,.541.14c.652.019,1.3.015,1.959.015A.881.881,0,0,0,9.881,13.3Zm-3.814-.649c.16-.1.285-.174.4-.256a2.088,2.088,0,0,1,1.4-.417,13.733,13.733,0,0,0,1.412,0,1.81,1.81,0,0,1,1.191.349c.145.107.309.189.459.281l.053-.058c-.121-.179-.232-.368-.367-.537-.348-.426-.785-.842-1.346-.731a4.113,4.113,0,0,1-1.5,0,.684.684,0,0,0-.117-.01A2.079,2.079,0,0,0,6.067,12.653ZM.959,7.759a7.6,7.6,0,0,1,15.162.518,7.4,7.4,0,0,1-1.594,4.9,7.023,7.023,0,0,1-2.979,2.285l-.1-.111c.246-.228.492-.446.738-.678A18.823,18.823,0,0,0,14.137,12.8a6.781,6.781,0,0,0,1.418-3.393,6.9,6.9,0,0,0-2.348-6.249A6.648,6.648,0,0,0,9.492,1.471,7.064,7.064,0,0,0,1.781,6.36,6.619,6.619,0,0,0,1.5,9.347a7.1,7.1,0,0,0,2.768,4.787c.5.387.943.842,1.5,1.345A7.4,7.4,0,0,1,.959,7.759Zm11.75,1.767c-.01-.624,0-1.249-.023-1.873,0-.131-.127-.349-.229-.373-.236-.058-.348.111-.348.354a2.666,2.666,0,0,1-.043.484c-.01.058-.082.107-.127.16-.047-.048-.125-.092-.135-.15-.049-.194-.053-.4-.111-.591-.062-.223-.154-.431-.469-.291-.062.029-.184-.058-.262-.111-.246-.155-.488-.32-.73-.484l-.135.092V5.649c0-.034.018-.092.037-.1.49-.16.572-.61.736-1,.02-.044.049-.087.111-.208l.416.62.59-.629c.141.155.3.329.449.508.3.383.406.383.693-.01.043-.058.086-.116.188-.256.146.605.271,1.133.406,1.7A1.706,1.706,0,0,0,13.1,7.493c-.049.673-.059,1.351-.092,2.018a2.42,2.42,0,0,1-.082.373l-.127.01A1.737,1.737,0,0,1,12.709,9.526ZM11,5.315c-.105.015-.227.164-.279.276a2.321,2.321,0,0,0-.174.571.255.255,0,0,0,.082.223,1.983,1.983,0,0,0,2.006.436.98.98,0,0,0,.586-.905c-.033-.068-.072-.291-.207-.378a1.984,1.984,0,0,0-1.121-.3A7.4,7.4,0,0,0,11,5.315Zm-6.037,3.7c-.027-.126-.047-.247-.062-.373-.023-.363-.014-.726-.062-1.084a.382.382,0,0,0-.262-.266c-.1-.01-.227.136-.285.247a1.578,1.578,0,0,1-.2.4,2.932,2.932,0,0,1-.1-.344,2.6,2.6,0,0,0-.7-1.254c-.043-.058-.086-.189-.057-.218.328-.334.2-.774.281-1.167a2.546,2.546,0,0,1,.072-.285c.072,0,.082,0,.092.01.168.15.426.455.5.416a3.134,3.134,0,0,0,.691-.605A1.125,1.125,0,0,0,4.994,4.3L5.5,4.9l.512-.479c.266.377.252.968.852,1.123V6.752c-.629-.053-.865.378-1.1.886l-.236-.523A2.121,2.121,0,0,0,5.28,7.6c-.062.344-.082.692-.125,1.041a3.629,3.629,0,0,1-.084.373Zm.93-3.9c-.262.063-.518.14-.779.208-.416.111-.836.222-1.287.348A1.108,1.108,0,0,0,5.434,6.844a2.892,2.892,0,0,1,.508-.213c.32-.053.662-.155.59-.518a3.863,3.863,0,0,0-.5-.992c-.008-.014-.039-.02-.07-.02A.225.225,0,0,0,5.889,5.112Z" transform="translate(-0.006 -0.001)" fill="#ff7474"/>
  </g>
</svg>
