<?xml version="1.0" encoding="UTF-8"?><svg id="Layer_2" xmlns="http://www.w3.org/2000/svg" xmlns:xlink="http://www.w3.org/1999/xlink" viewBox="0 0 950 500"><defs><pattern id="New_Pattern_2" x="0" y="0" width="23" height="23" patternTransform="translate(-3000.52 1284.8) scale(1 1.11)" patternUnits="userSpaceOnUse" viewBox="0 0 23 23"><g><rect width="23" height="23" fill="none"/><g id="Union_77"><path d="M28.06,37.36V20.24h-3.27v6.67H9.68v-3.65h2.64v-3.02H6.4v17.13h3.27v-7.18h15.11v3.65h-1.89v3.53h5.16Z" fill="none"/><path d="M27.31,36.61h-3.65v-2.02h1.89v-5.16H8.92v7.18h-1.76v-15.62h4.41v1.51h-2.64v5.16H25.55v-6.67h1.76v15.62m.76-16.37h-3.27v6.67H9.68v-3.65h2.64v-3.02H6.4v17.13h3.27v-7.18h15.11v3.65h-1.89v3.53h5.16V20.24Z" fill="#444"/></g><g id="Union_77-2"><path d="M5.06,37.36V20.24H1.79v6.67H-13.32v-3.65h2.64v-3.02h-5.92v17.13h3.27v-7.18H1.79v3.65H-.1v3.53H5.06Z" fill="none"/><path d="M4.31,36.61H.66v-2.02h1.89v-5.16H-14.08v7.18h-1.76v-15.62h4.41v1.51h-2.64v5.16H2.55v-6.67h1.76v15.62m.76-16.37H1.79v6.67H-13.32v-3.65h2.64v-3.02h-5.92v17.13h3.27v-7.18H1.79v3.65H-.1v3.53H5.06V20.24Z" fill="#444"/></g><g id="Union_78"><path d="M17.94,25.76V8.64h3.27v6.67h15.11v-3.65h-2.64v-3.02h5.92V25.76h-3.27v-7.18h-15.11v3.65h1.89v3.53h-5.16Z" fill="none"/><path d="M38.84,25.01h-1.76v-7.18H20.45v5.16h1.89v2.02h-3.65V9.39h1.76v6.67h16.62v-5.16h-2.64v-1.51h4.41v15.62m.76-16.37h-5.92v3.02h2.64v3.65h-15.11v-6.67h-3.27V25.76h5.16v-3.53h-1.89v-3.65h15.11v7.18h3.27V8.64Z" fill="#444"/></g><g><g id="Union_77-3"><path d="M28.06,14.36V-2.76h-3.27V3.91H9.68V.26h2.64V-2.76H6.4V14.36h3.27V7.19h15.11v3.65h-1.89v3.53h5.16Z" fill="none"/><path d="M27.31,13.61h-3.65v-2.02h1.89V6.43H8.92v7.18h-1.76V-2.01h4.41V-.5h-2.64V4.67H25.55V-2.01h1.76V13.61m.76-16.37h-3.27V3.91H9.68V.26h2.64V-2.76H6.4V14.36h3.27V7.19h15.11v3.65h-1.89v3.53h5.16V-2.76Z" fill="#444"/></g><g id="Union_78-2"><path d="M-5.06,25.76V8.64H-1.79v6.67H13.32v-3.65h-2.64v-3.02h5.92V25.76h-3.27v-7.18H-1.79v3.65H.1v3.53H-5.06Z" fill="none"/><path d="M15.84,25.01h-1.76v-7.18H-2.55v5.16H-.66v2.02h-3.65V9.39h1.76v6.67H14.08v-5.16h-2.64v-1.51h4.41v15.62m.76-16.37h-5.92v3.02h2.64v3.65H-1.79v-6.67h-3.27V25.76H.1v-3.53H-1.79v-3.65H13.32v7.18h3.27V8.64Z" fill="#444"/></g></g><g id="Union_77-4"><path d="M5.06,14.36V-2.76H1.79V3.91H-13.32V.26h2.64V-2.76h-5.92V14.36h3.27V7.19H1.79v3.65H-.1v3.53H5.06Z" fill="none"/><path d="M4.31,13.61H.66v-2.02h1.89V6.43H-14.08v7.18h-1.76V-2.01h4.41V-.5h-2.64V4.67H2.55V-2.01h1.76V13.61M5.06-2.76H1.79V3.91H-13.32V.26h2.64V-2.76h-5.92V14.36h3.27V7.19H1.79v3.65H-.1v3.53H5.06V-2.76Z" fill="#444"/></g><g id="Union_78-3"><path d="M17.94,2.76V-14.36h3.27V-7.69h15.11v-3.65h-2.64v-3.02h5.92V2.76h-3.27V-4.42h-15.11V-.76h1.89V2.76h-5.16Z" fill="none"/><path d="M38.84,2.01h-1.76V-5.17H20.45V0h1.89V2.01h-3.65V-13.61h1.76V-6.93h16.62v-5.16h-2.64v-1.51h4.41V2.01m.76-16.37h-5.92v3.02h2.64v3.65h-15.11v-6.67h-3.27V2.76h5.16V-.76h-1.89v-3.65h15.11V2.76h3.27V-14.36Z" fill="#444"/></g><g id="Union_78-4"><path d="M-5.06,2.76V-14.36H-1.79V-7.69H13.32v-3.65h-2.64v-3.02h5.92V2.76h-3.27V-4.42H-1.79V-.76H.1V2.76H-5.06Z" fill="none"/><path d="M15.84,2.01h-1.76V-5.17H-2.55V0H-.66V2.01h-3.65V-13.61h1.76V-6.93H14.08v-5.16h-2.64v-1.51h4.41V2.01m.76-16.37h-5.92v3.02h2.64v3.65H-1.79v-6.67h-3.27V2.76H.1V-.76H-1.79v-3.65H13.32V2.76h3.27V-14.36Z" fill="#444"/></g></g></pattern></defs><g id="Layer_1-2"><rect width="950" height="500" fill="url(#New_Pattern_2)"/></g></svg>