<svg id="Component_179_1" data-name="Component 179 – 1" xmlns="http://www.w3.org/2000/svg" width="12.5" height="11.158" viewBox="0 0 12.5 11.158">
  <g id="dog-svgrepo-com" transform="translate(-41.414)">
    <g id="Group_1" data-name="Group 1" transform="translate(43.914)">
      <path id="Path_288" data-name="Path 288" d="M51.791,1.172a2.88,2.88,0,0,0-.464-.891L51.094,0l-1.37,1.328a9.01,9.01,0,0,0-3.621,0L44.734,0,44.5.281a2.879,2.879,0,0,0-.464.891,2.418,2.418,0,0,0,.2,1.973,2.434,2.434,0,0,0-.016.283,3.678,3.678,0,0,0,.441,1.683c.083.184.168.374.257.6a4.3,4.3,0,0,0,.972,1.6A2.682,2.682,0,0,0,47.6,8V6.319c-.394-.152-.78-.542-.78-.853,0-.517.686-.517,1.1-.517s1.1,0,1.1.517c0,.31-.386.7-.78.853V8a2.682,2.682,0,0,0,1.708-.692,4.3,4.3,0,0,0,.972-1.6c.089-.222.174-.413.257-.6a3.678,3.678,0,0,0,.441-1.683,2.439,2.439,0,0,0-.016-.283A2.418,2.418,0,0,0,51.791,1.172ZM46.962,3.86a.35.35,0,0,1-.375-.317.381.381,0,0,1,.751,0A.35.35,0,0,1,46.962,3.86Zm1.9,0a.353.353,0,0,1-.379-.32.384.384,0,0,1,.757,0A.353.353,0,0,1,48.863,3.862Z" transform="translate(-43.914)" fill="#ffb300"/>
    </g>
  </g>
  <line id="Line_746" data-name="Line 746" x2="12.5" transform="translate(0 10.658)" fill="none" stroke="#e35d5d" stroke-width="1"/>
</svg>
