<svg id="Component_222_2" data-name="Component 222 – 2" xmlns="http://www.w3.org/2000/svg" width="70" height="70" viewBox="0 0 70 70">
  <text id="Perfect_Parry_Counter_Attacks" data-name="Perfect Parry 
Counter Attacks" transform="translate(35 56.333)" fill="#fff" font-size="8" font-family="SegoeUI-Bold, Segoe UI" font-weight="700"><tspan x="-25.58" y="0">Perfect Parry </tspan><tspan x="-30.096" y="11">Counter Attacks</tspan></text>
  <g id="Component_198_1" data-name="Component 198 – 1" transform="translate(19 17)">
    <path id="Union_152" data-name="Union 152" d="M29.959,31.738l-.418-2.394c-.293-.332-.868-.789-.836-1.193l-.345-.45-.02.091c-.265.384-.679.33-.744-.1l-.19-1.238-.622-.811-.081.367c-.265.384-.68.33-.745-.1L25.7,24.228l-.436-.569c-.03-.039,0-.135.057-.215l.778-1.014c.061-.081.135-.114.165-.076,0,0,.274.347.674.85l.821.1c.332.04.417.574.152.956l-.092.049.517.645,1.06.129c.332.04.418.574.153.956l-.233.124.237.287c.217-.209.419-.167.685.135l1.795,2.038a1.3,1.3,0,0,1,.081,1.507l-1,1.5A.753.753,0,0,1,30.5,32,.715.715,0,0,1,29.959,31.738ZM1.512,30.92l-1-1.5a1.306,1.306,0,0,1,.081-1.508L2.39,25.876c.266-.3.467-.344.683-.137l.237-.286-.232-.124c-.265-.384-.18-.917.153-.958l1.061-.129.517-.645-.092-.049c-.265-.383-.18-.916.152-.956l.822-.1c.4-.5.673-.849.673-.849.03-.038.1-.005.165.076L7.3,22.733c.061.08.086.176.058.215l-.436.569L6.666,25.2c-.066.428-.481.483-.745.1l-.081-.366-.622.811-.19,1.238c-.066.427-.481.481-.745.1l-.02-.091-.343.447c.035.406-.542.863-.836,1.2l-.418,2.394a.716.716,0,0,1-.536.262A.752.752,0,0,1,1.512,30.92ZM22.19,26.25a.657.657,0,0,1,.02-.755l1.741-2.119a.3.3,0,0,1-.049-.05c-.071-.092-4.221-5.427-7.87-10.078-3.5,4.466-7.243,9.278-7.311,9.366a.3.3,0,0,1-.046.048l1.742,2.121a.655.655,0,0,1,.021.755.346.346,0,0,1-.579.027l-5.588-6.8A.657.657,0,0,1,4.252,18a.346.346,0,0,1,.579-.025l2.083,2.536a.391.391,0,0,1,.072-.17l7.22-9.423c-1.814-2.3-3.246-4.1-3.561-4.44a5.885,5.885,0,0,1-.7-3.089A14.558,14.558,0,0,1,10.031.747c.006-.023.012-.034.018-.034l0,0,.385.5-.245,3.66.465-3.373,5.38,7.022L21.965.793l.465,3.373L22.185.507l.386-.5a.006.006,0,0,1,0,0c.005,0,.012.011.018.034a14.648,14.648,0,0,1,.092,2.647A5.893,5.893,0,0,1,21.98,5.77c-.347.375-2.044,2.511-4.114,5.142l7.773,10.145a.4.4,0,0,1,.073.174l2.087-2.54a.346.346,0,0,1,.579.025.655.655,0,0,1-.021.755l-5.587,6.8a.363.363,0,0,1-.279.143A.37.37,0,0,1,22.19,26.25Z" transform="translate(-0.313)" fill="#fff" opacity="0.72"/>
    <g id="Component_197_1" data-name="Component 197 – 1" transform="translate(8 7.75)">
      <circle id="Ellipse_290" data-name="Ellipse 290" cx="8.25" cy="8.25" r="8.25" opacity="0.6"/>
      <text id="_15" data-name="15" transform="translate(1.25 13)" fill="#fff" font-size="12" font-family="SegoeUI-Bold, Segoe UI" font-weight="700"><tspan x="0" y="0">15</tspan></text>
    </g>
  </g>
  <rect id="Rectangle_1497" data-name="Rectangle 1497" width="70" height="70" fill="none"/>
</svg>
