<svg id="Component_225_1" data-name="Component 225 – 1" xmlns="http://www.w3.org/2000/svg" width="70" height="70" viewBox="0 0 70 70">
  <text id="Ranged_Kills" data-name="Ranged Kills" transform="translate(35 58.466)" fill="#fff" font-size="8" font-family="SegoeUI-Bold, Segoe UI" font-weight="700"><tspan x="-23.17" y="0">Ranged Kills</tspan></text>
  <g id="Component_196_1" data-name="Component 196 – 1" transform="translate(18 19)">
    <g id="Union_151" data-name="Union 151" transform="translate(-0.001 0)" fill="#50c774" opacity="0.75">
      <path d="M 1.027000069618225 28.40274047851562 L 0.8588709831237793 28.23402976989746 L 1.137249350547791 27.95510101318359 L 0.8309193253517151 27.5645809173584 C 0.7443493604660034 27.61694145202637 0.6655993461608887 27.64972114562988 0.5968493223190308 27.66199111938477 C 0.5474593639373779 27.67133140563965 0.5044493079185486 27.67582130432129 0.4664993286132812 27.67583084106445 C 0.3533993363380432 27.67583084106445 0.3214693367481232 27.63731002807617 0.3094493448734283 27.62280082702637 C 0.2532815635204315 27.55502510070801 0.2467000931501389 27.41921806335449 0.2521514296531677 27.33159828186035 C 0.6120156645774841 26.92673683166504 2.554063558578491 24.67385482788086 2.589929342269897 23.17287063598633 C 2.597719430923462 22.83270072937012 2.602709293365479 22.47386169433594 2.607989311218262 22.09395027160645 C 2.666012525558472 17.92078018188477 2.753858804702759 11.61608505249023 6.878034114837646 6.814474105834961 C 9.162564277648926 4.836155414581299 10.6052713394165 3.907667636871338 12.1968297958374 3.390730857849121 C 13.82572937011719 2.861670970916748 15.57706928253174 2.779420852661133 18.47856903076172 2.643150806427002 C 19.81497383117676 2.580391407012939 21.32951736450195 2.50925874710083 23.17397308349609 2.37837028503418 C 23.18657302856445 2.378196477890015 23.19933128356934 2.378130912780762 23.21225929260254 2.378130912780762 C 23.24940872192383 2.378130912780762 23.28788948059082 2.378700971603394 23.32794952392578 2.379290819168091 L 23.33331871032715 2.379370927810669 C 23.38619995117188 2.379830837249756 23.43961906433105 2.380270957946777 23.49481010437012 2.380270957946777 C 24.56868743896484 2.380270957946777 25.87368774414062 2.136292219161987 27.42124176025391 0.3399277925491333 C 27.63527679443359 0.2660563588142395 27.76691055297852 0.2497709095478058 27.84132957458496 0.2497709095478058 C 27.91108894348145 0.2497709095478058 27.94872856140137 0.2634409070014954 27.9606990814209 0.2762309014797211 C 27.97486877441406 0.291380912065506 27.98935890197754 0.3399809002876282 27.98354911804199 0.4270709156990051 L 27.93911933898926 1.093610882759094 L 28.40431213378906 0.6259692907333374 L 28.57279586791992 0.7947429418563843 L 1.027000069618225 28.40274047851562 Z M 3.619521379470825 23.12504577636719 C 3.450434923171997 23.85441017150879 2.661742925643921 25.45105361938477 1.789219379425049 26.59651184082031 L 2.165079355239868 26.92458152770996 L 26.8565788269043 2.177280902862549 L 26.54747009277344 1.788470864295959 C 24.64535903930664 2.972710847854614 23.93925857543945 3.174470901489258 23.68764877319336 3.189340829849243 L 23.67034912109375 3.190361022949219 L 23.65334892272949 3.193760871887207 C 22.34739875793457 3.45504093170166 21.10001945495605 3.555590867996216 19.89370918273926 3.652830839157104 C 16.45837020874023 3.929750919342041 13.21354961395264 4.191310882568359 9.267979621887207 8.012210845947266 C 4.832717895507812 12.30712795257568 4.500341415405273 15.25523948669434 3.619521379470825 23.12504577636719 Z M 15.94619941711426 27.67520141601562 C 15.17846965789795 27.67520141601562 14.469069480896 27.38227081298828 13.94869899749756 26.85037040710449 C 13.40999126434326 26.30010604858398 13.10828971862793 25.52884101867676 13.1197452545166 24.7325496673584 C 13.31032752990723 23.2298526763916 14.13663673400879 22.45741844177246 14.7898120880127 22.25126266479492 C 15.32619190216064 22.10563468933105 15.86996173858643 22.03180122375488 16.40609931945801 22.03180122375488 C 16.71205902099609 22.03180122375488 17.01299858093262 22.05692100524902 17.3005485534668 22.10647010803223 L 17.42067909240723 22.12717056274414 L 17.5109691619873 22.04526138305664 C 18.13568878173828 21.47856140136719 20.2524299621582 19.53978157043457 21.2617301940918 18.3850212097168 L 21.32539939880371 18.31218147277832 L 21.32345008850098 18.21546173095703 C 21.30164909362793 17.13386154174805 21.13467979431152 16.37846183776855 21.00051879882812 15.77148056030273 C 20.79129219055176 14.82485198974609 20.67449760437012 14.29631328582764 21.25442123413086 13.36240673065186 C 26.53367805480957 10.08428764343262 32.54416656494141 7.421317577362061 34.40371704101562 6.623664379119873 C 33.49721145629883 8.661221504211426 30.32125854492188 15.64303112030029 27.45303726196289 20.05434608459473 C 27.20133209228516 20.29947662353516 26.90093612670898 20.41384124755859 26.51000022888184 20.41385078430176 C 26.05361938476562 20.41386032104492 25.52108955383301 20.25915145874023 24.95728874206543 20.09536170959473 C 24.33281898498535 19.91394996643066 23.62504005432129 19.70833015441895 22.90341949462891 19.68691062927246 L 22.85293960571289 19.68541145324707 L 22.80583953857422 19.70362091064453 C 22.35155868530273 19.87928009033203 19.98826217651367 22.25690460205078 19.02687644958496 23.23632621765137 L 18.98044967651367 23.18990135192871 L 18.81282997131348 23.45138168334961 C 18.77372932434082 23.51238059997559 18.72900009155273 23.56952095031738 18.67606925964355 23.62607002258301 L 18.6072998046875 23.69956016540527 L 18.60861968994141 23.80018997192383 C 18.64273071289062 26.38796997070312 18.17756080627441 26.79823875427246 16.82941246032715 27.5568675994873 C 16.53188323974609 27.63540077209473 16.23489952087402 27.67520141601562 15.94619941711426 27.67520141601562 Z M 14.40353965759277 22.77908134460449 L 14.36454963684082 23.0262508392334 L 13.86954975128174 26.16455078125 L 13.83063888549805 26.4112606048584 L 14.07730960845947 26.45041084289551 L 17.20750999450684 26.94721031188965 L 17.45458984375 26.98642158508301 L 17.49363899230957 26.73932075500488 L 17.98954010009766 23.60102081298828 L 18.02853012084961 23.35424041748047 L 17.78178024291992 23.31509017944336 L 14.65067958831787 22.81829071044922 L 14.40353965759277 22.77908134460449 Z" stroke="none"/>
      <path d="M 1.151380300521851 27.92413902282715 L 2.144530296325684 26.92874717712402 L 1.590349316596985 26.44503021240234 C 2.413989782333374 25.36372756958008 3.202988624572754 23.79168510437012 3.372738122940063 23.08235359191895 C 4.259602546691895 15.15855884552002 4.597045421600342 12.18732833862305 9.094069480895996 7.832621097564697 C 13.10405921936035 3.949330806732178 16.39230918884277 3.684270858764648 19.87362861633301 3.403640985488892 C 21.0727596282959 3.306980848312378 22.31271934509277 3.207031011581421 23.60430908203125 2.948620796203613 L 23.6382999420166 2.941820859909058 L 23.67290878295898 2.939770936965942 C 23.77213478088379 2.933907032012939 24.10092544555664 2.872823238372803 24.95210647583008 2.425762414932251 C 24.42848587036133 2.590380430221558 23.9427375793457 2.630270957946777 23.49481010437012 2.630270957946777 C 23.43889999389648 2.630270957946777 23.38476943969727 2.629820823669434 23.33275985717773 2.629380941390991 L 23.32611846923828 2.629290819168091 C 23.2764835357666 2.628561735153198 23.22931098937988 2.627812147140503 23.18427467346191 2.628265857696533 C 21.3402099609375 2.759026765823364 19.82630348205566 2.830136060714722 18.49029922485352 2.892880916595459 C 12.77444553375244 3.161326169967651 11.40689277648926 3.225678205490112 7.055763721466064 6.991267204284668 C 3.002426147460938 11.72246551513672 2.915426969528198 17.96442985534668 2.857969284057617 22.09743118286133 C 2.852679252624512 22.47792053222656 2.847679376602173 22.83730125427246 2.839859247207642 23.17884063720703 C 2.803548336029053 24.69868278503418 1.030081868171692 26.82610511779785 0.5050910115242004 27.42338371276855 C 0.5171964168548584 27.42201042175293 0.5313999652862549 27.4199275970459 0.547809362411499 27.41682052612305 L 0.5528993606567383 27.41589164733887 C 0.5703093409538269 27.41278076171875 0.6196393370628357 27.40020179748535 0.701529324054718 27.35067176818848 L 1.151380300521851 27.92413902282715 M 15.94619941711426 27.42520141601562 C 16.20355033874512 27.42520141601562 16.4686450958252 27.3908634185791 16.73508834838867 27.32306289672852 C 16.82965850830078 27.26971817016602 16.91936302185059 27.21835327148438 17.00423431396484 27.16807746887207 L 14.17025375366211 26.71829032897949 C 14.63899326324463 27.17461776733398 15.2672119140625 27.42520141601562 15.94619941711426 27.42520141601562 M 17.7696361541748 26.59439659118652 C 18.2300910949707 26.09699249267578 18.37958717346191 25.39285850524902 18.35863876342773 23.80349159240723 L 18.35598945617676 23.60221099853516 L 18.49353981018066 23.45524024963379 C 18.53595924377441 23.40991020202637 18.57155990600586 23.36452102661133 18.60235977172852 23.31647109985352 L 18.93759918212891 22.79349136352539 L 19.02589225769043 22.88178634643555 C 19.35972595214844 22.54397201538086 19.88874053955078 22.0119571685791 20.43493843078613 21.47591018676758 C 22.32411956787109 19.62185096740723 22.56922912597656 19.52708053588867 22.71567916870117 19.47045135498047 L 22.80987930297852 19.43402099609375 L 22.91082954406738 19.43702125549316 C 23.66424942016602 19.45938110351562 24.38825988769531 19.66972160339355 25.02703857421875 19.85529136657715 C 25.5732593536377 20.01397132873535 26.08919906616211 20.16386032104492 26.50998878479004 20.16385078430176 C 26.82565307617188 20.16384124755859 27.05887794494629 20.08016777038574 27.25933456420898 19.89360427856445 C 29.88243865966797 15.85238552093506 32.76235961914062 9.660531997680664 33.91238403320312 7.109042644500732 C 31.5955982208252 8.122529029846191 26.22041893005371 10.57932186126709 21.43653869628906 13.54362201690674 C 20.94422912597656 14.35827445983887 21.04113388061523 14.79683971405029 21.24462890625 15.71753120422363 C 21.38117027282715 16.33527183532715 21.55109977722168 17.10408020019531 21.57339859008789 18.21042060852051 L 21.57729911804199 18.40387153625488 L 21.44997024536133 18.54955101013184 C 20.43181991577148 19.71443176269531 18.3061695098877 21.66144180297852 17.67893981933594 22.23043060302734 L 17.49835968017578 22.39424133300781 L 17.25809860229492 22.35284042358398 C 16.98452949523926 22.30570030212402 16.69787979125977 22.28180122375488 16.40609931945801 22.28180122375488 C 15.89371395111084 22.28180122375488 15.37366676330566 22.35225105285645 14.86022663116455 22.4911994934082 C 14.79842758178711 22.51097679138184 14.73484230041504 22.53662490844727 14.67043113708496 22.56830024719238 L 18.3144588470459 23.14648056030273 L 17.7696361541748 26.59439659118652 M 13.64471817016602 25.98543167114258 L 14.11684322357178 22.99215507507324 C 13.77181625366211 23.36650657653809 13.47458839416504 23.94181060791016 13.36954593658447 24.75010299682617 C 13.36545658111572 25.18319320678711 13.46203708648682 25.60744285583496 13.64471817016602 25.98543167114258 M 26.86969566345215 2.147748947143555 L 27.67189025878906 1.343742251396179 L 27.72726440429688 0.5131123661994934 C 27.68471717834473 0.5214731693267822 27.63128089904785 0.5347704887390137 27.56509780883789 0.5556184649467468 C 27.17999839782715 0.9966832995414734 26.80873107910156 1.345733880996704 26.4513053894043 1.621480345726013 L 26.86969566345215 2.147748947143555 M 1.026899337768555 28.75680160522461 L 0.5057993531227112 28.23390007019043 L 0.9602993130683899 27.77850151062012 C 0.8486993312835693 27.84600067138672 0.7415993213653564 27.89010047912598 0.640799343585968 27.90810012817383 C -0.1440006792545319 28.05659675598145 0.01349933445453644 27.22320175170898 0.01349933445453644 27.22320175170898 C 0.01349933445453644 27.22320175170898 2.303099393844604 24.71130180358887 2.339999437332153 23.16690063476562 C 2.433599233627319 19.08090019226074 2.125799417495728 11.9502010345459 6.700499534606934 6.637500762939453 C 12.23639965057373 1.840500950813293 13.26509952545166 2.831400871276855 23.16329956054688 2.128500938415527 C 23.21820640563965 2.127600431442261 23.27580070495605 2.128500699996948 23.33699989318848 2.129400968551636 C 24.18122673034668 2.13660454750061 25.55910301208496 2.144698858261108 27.27449989318848 0.1269009113311768 C 28.0836067199707 -0.1719014346599579 28.25550079345703 0.1062020286917686 28.23299980163574 0.443700909614563 L 28.40399932861328 0.2718009054660797 L 28.92599868774414 0.7947009205818176 L 1.026899337768555 28.75680160522461 Z M 26.67959976196289 2.000700950622559 C 25.65180015563965 2.640600919723511 24.31169891357422 3.40290093421936 23.70240020751953 3.438900947570801 C 18.69120025634766 4.441501140594482 14.71139907836914 3.08880090713501 9.441899299621582 8.191801071166992 C 5.090399265289307 12.40560054779053 4.761899471282959 15.16590118408203 3.86639928817749 23.16690063476562 C 3.689099311828613 23.95530128479004 2.851199388504028 25.61490058898926 1.988099336624146 26.74800109863281 L 26.67959976196289 2.000700950622559 Z M 15.94619941711426 27.92520141601562 C 15.11279964447021 27.92520141601562 14.33879947662354 27.60660171508789 13.76999950408936 27.02520179748535 C 13.18229961395264 26.42490005493164 12.85379886627197 25.58250045776367 12.86999893188477 24.71490097045898 C 13.07249927520752 23.08230018615723 13.99319934844971 22.23810005187988 14.7194995880127 22.01130104064941 C 15.27479934692383 21.8601016998291 15.84179973602295 21.78180122375488 16.40609931945801 21.78180122375488 C 16.73460006713867 21.78180122375488 17.05049896240234 21.80970001220703 17.34299850463867 21.8601016998291 C 17.84700012207031 21.40290069580078 20.0492992401123 19.39230155944824 21.07349967956543 18.22050094604492 C 21.0177001953125 15.45210075378418 19.99079895019531 14.88060092926025 21.07349967956543 13.18050098419189 C 27.48149871826172 9.193500518798828 34.88669967651367 6.147901058197021 34.88669967651367 6.147901058197021 C 34.88669967651367 6.147901058197021 31.07339859008789 14.95350074768066 27.64799880981445 20.21310043334961 C 26.52300262451172 21.34620475769043 24.77609825134277 19.99260139465332 22.89599990844727 19.93680000305176 C 22.42350006103516 20.1195011138916 19.02869987487793 23.59170150756836 19.02869987487793 23.59170150756836 L 19.02330017089844 23.58630180358887 C 18.97830009460449 23.65650177001953 18.9242992401123 23.7267017364502 18.85859870910645 23.79690170288086 C 18.89369964599609 26.46000099182129 18.41399955749512 26.9541015625 16.92449951171875 27.79020118713379 C 16.59420013427734 27.88020133972168 16.26479911804199 27.92520141601562 15.94619941711426 27.92520141601562 Z M 14.61149978637695 23.06520080566406 L 14.11649894714355 26.20350074768066 L 17.24670028686523 26.7003002166748 L 17.74259948730469 23.5620002746582 L 14.61149978637695 23.06520080566406 Z" stroke="none" fill="#fff"/>
    </g>
    <g id="Component_155_1" data-name="Component 155 – 1" transform="translate(8.999 5.975)">
      <circle id="Ellipse_278" data-name="Ellipse 278" cx="8.25" cy="8.25" r="8.25" opacity="0.6"/>
      <text id="_20" data-name="20" transform="translate(1.5 13)" fill="#fff" font-size="12" font-family="SegoeUI-Bold, Segoe UI" font-weight="700"><tspan x="0" y="0">20</tspan></text>
    </g>
  </g>
  <rect id="Rectangle_1492" data-name="Rectangle 1492" width="70" height="70" fill="none"/>
</svg>
