<svg id="Component_203_1" data-name="Component 203 – 1" xmlns="http://www.w3.org/2000/svg" width="56" height="57" viewBox="0 0 56 57">
  <g id="Component_161_2" data-name="Component 161 – 2" transform="translate(12)">
    <path id="Exclusion_11" data-name="Exclusion 11" d="M23.65,32h0a7.808,7.808,0,0,1-3.413-.792l0-.008a8.709,8.709,0,0,1-4.37-5,9.742,9.742,0,0,1-.432-4.786,9.452,9.452,0,0,1,1.807-4.237,1.92,1.92,0,0,1-.12-.273,1.724,1.724,0,0,1,.03-1.23,1.529,1.529,0,0,1,.825-.854l4.867-2.026a1.364,1.364,0,0,1,.528-.106A1.51,1.51,0,0,1,24.77,13.72a2.024,2.024,0,0,1,.079.291,7.879,7.879,0,0,1,2.176.678v-.005a8.715,8.715,0,0,1,4.434,5.083,9.667,9.667,0,0,1-.192,6.881,8.59,8.59,0,0,1-4.607,4.741l-.014.005-.034.013-.018.007-.015.006A7.692,7.692,0,0,1,23.65,32ZM.086,26.086a.084.084,0,0,1-.044-.014A.08.08,0,0,1,0,26.016a.071.071,0,0,1,0-.049L3.379,13.389a.1.1,0,0,1,.026-.044l5.235-4.87L11.4,3.492a2.479,2.479,0,0,1,0-2.375A2.114,2.114,0,0,1,13.225,0a2.006,2.006,0,0,1,1.093.329,2.281,2.281,0,0,1,.966,1.419,2.45,2.45,0,0,1-.241,1.74A2.077,2.077,0,0,1,13.222,4.6c-.04,0-.078,0-.114,0l-.941,1.7-.4.726-.615,1.112-.408.733-.4.716-1.51,7.3a.1.1,0,0,1-.024.046L4.584,21.38,1.71,24.411l-.945,1-.41.432-.2.209-.015.014a.069.069,0,0,1-.036.021A.062.062,0,0,1,.086,26.086ZM13.224,1.2a.96.96,0,0,0-.248.033,1.015,1.015,0,0,0-.622.5,1.162,1.162,0,0,0-.115.83,1.085,1.085,0,0,0,.461.677.962.962,0,0,0,.523.157.987.987,0,0,0,.867-.533,1.167,1.167,0,0,0,.117-.832,1.1,1.1,0,0,0-.463-.675A.952.952,0,0,0,13.224,1.2Zm2.055,15.979a.127.127,0,0,1-.055-.012.26.26,0,0,1-.142-.287l.539-2.083a.268.268,0,0,1,.21-.165.12.12,0,0,1,.057.012.288.288,0,0,1,.139.16.179.179,0,0,1,0,.127l-.538,2.08a.293.293,0,0,1-.146.152A.188.188,0,0,1,15.279,17.183ZM12.94,15.164a.188.188,0,0,1-.184-.121.236.236,0,0,1,.1-.3l1.734-1.068a.17.17,0,0,1,.112-.046.157.157,0,0,1,.149.109.238.238,0,0,1-.093.3l-1.723,1.1A.244.244,0,0,1,12.94,15.164ZM16.147,13.8a.9.9,0,0,1-.394-.093l.009-.016a.973.973,0,0,1-.492-.56,1.1,1.1,0,0,1,.084-.9,2.812,2.812,0,0,1,.063-1.952,2.376,2.376,0,0,1,1.273-1.237,2.282,2.282,0,0,1,.879-.18,2.223,2.223,0,0,1,2.092,1.581l1,2.827-.036.014-1.044.434L18.6,10.93a1.131,1.131,0,0,0-1.064-.807,1.109,1.109,0,0,0-.427.086,1.272,1.272,0,0,0-.66,1.61.978.978,0,0,1,.563.591,1.083,1.083,0,0,1-.157,1.011A.859.859,0,0,1,16.147,13.8Zm-1.7-1.335a.254.254,0,0,1-.055-.006l-1.909-.546a.251.251,0,0,1-.141-.287.184.184,0,0,1,.189-.164.316.316,0,0,1,.076.01l1.922.584a.165.165,0,0,1,.113.094.178.178,0,0,1,.014.154.25.25,0,0,1-.133.145A.209.209,0,0,1,14.449,12.468Z" fill="#50c774" opacity="0.65"/>
    <circle id="Ellipse_277" data-name="Ellipse 277" cx="8.25" cy="8.25" r="8.25" transform="translate(6.476 8.697)" opacity="0.6"/>
    <text id="_5" data-name="5" transform="translate(11.671 21.566)" fill="#fff" stroke="#951c1c" stroke-width="0.5" font-size="12" font-family="SegoeUI-Bold, Segoe UI" font-weight="700"><tspan x="0" y="0">5</tspan></text>
  </g>
  <text id="Ghost_Weapon_Kills" data-name="Ghost Weapon
Kills" transform="translate(28 44)" fill="#fff" font-size="8" font-family="SegoeUI-Bold, Segoe UI" font-weight="700"><tspan x="-27.691" y="0">Ghost Weapon</tspan><tspan x="-7.766" y="11">Kills</tspan></text>
</svg>
