<svg id="Component_223_1" data-name="Component 223 – 1" xmlns="http://www.w3.org/2000/svg" width="70" height="70" viewBox="0 0 70 70">
  <text id="Assassinations_Or_Crits" data-name="Assassinations
Or Crits" transform="translate(35 56.333)" fill="#fff" font-size="8" font-family="SegoeUI-Bold, Segoe UI" font-weight="700"><tspan x="-27.031" y="0">Assassinations</tspan><tspan x="-14.285" y="11">Or Crits</tspan></text>
  <g id="Component_166_3" data-name="Component 166 – 3" transform="translate(19 17)">
    <g id="Subtraction_381" data-name="Subtraction 381" transform="translate(0 0)" fill="#50c774" opacity="0.65">
      <path d="M 31.21042633056641 31.21237373352051 C 30.26380920410156 30.91379737854004 28.74459266662598 30.46532249450684 26.8686580657959 30.01931953430176 C 24.06347846984863 29.3523998260498 19.85475730895996 28.55739974975586 15.73469734191895 28.55739974975586 C 9.420912742614746 28.55739974975586 3.21290397644043 30.3912467956543 0.8369064331054688 31.17932510375977 C 1.671860933303833 28.81050300598145 3.60229754447937 22.64427947998047 3.60229754447937 16.31970024108887 C 3.60229754447937 9.959735870361328 1.64150059223175 3.337435007095337 0.8227066993713379 0.8497002124786377 C 3.001158475875854 1.634428143501282 8.421492576599121 3.328919649124146 14.60215759277344 3.328919649124146 C 14.98660755157471 3.328919649124146 15.37336730957031 3.322389841079712 15.75170803070068 3.309509754180908 C 22.54023742675781 3.078465700149536 28.56861114501953 1.419816374778748 30.75133895874023 0.7506060004234314 C 30.18269538879395 3.119224786758423 28.70859718322754 9.881352424621582 28.70859718322754 16.31970024108887 C 28.70859718322754 20.43931007385254 29.46302795410156 24.49015998840332 30.09591674804688 27.1629695892334 C 30.51523208618164 28.9338550567627 30.93447113037109 30.34531593322754 31.21042633056641 31.21237373352051 Z M 15.95069789886475 18.956298828125 C 17.33859825134277 18.956298828125 18.83038711547852 19.47665977478027 18.84529685974121 19.48191070556641 L 19.35461807250977 18.64661979675293 C 19.43154716491699 18.71916961669922 19.46648788452148 18.79812049865723 19.48046684265137 18.83872032165527 C 19.36445808410645 18.49848937988281 18.98689842224121 17.29522895812988 18.98689842224121 16.05959892272949 C 18.98689842224121 14.64906978607178 19.38775825500488 13.1338996887207 19.39180755615234 13.11876010894775 L 18.52548789978027 12.66851997375488 C 18.60423851013184 12.57450008392334 18.69578742980957 12.53415966033936 18.74334716796875 12.51848983764648 C 18.41965675354004 12.62446975708008 17.26376724243164 12.97257995605469 15.93385791778564 13.01737976074219 C 15.86884784698486 13.01960945129395 15.8024377822876 13.02073955535889 15.73616790771484 13.02075004577637 C 14.36619758605957 13.02077960968018 13.19796752929688 12.53362941741943 13.18632793426514 12.52870941162109 L 12.6353874206543 13.34008979797363 C 12.5685977935791 13.27229022979736 12.53721714019775 13.20166969299316 12.52445793151855 13.16560935974121 C 12.65370750427246 13.53384017944336 13.07379722595215 14.82644939422607 13.07379722595215 16.05959892272949 C 13.07379722595215 17.43416976928711 12.53196716308594 18.81093978881836 12.52649784088135 18.8246898651123 L 13.34029769897461 19.36742973327637 C 13.27385807037354 19.43227958679199 13.20480728149414 19.46330070495605 13.16955757141113 19.47601890563965 C 13.51109790802002 19.35388946533203 14.71870803833008 18.956298828125 15.95069789886475 18.956298828125 Z" stroke="none"/>
      <path d="M 30.45589447021484 30.45876693725586 C 30.20745849609375 29.62262153625488 29.90818023681641 28.54010963439941 29.60937690734863 27.27817916870117 C 28.9703483581543 24.57943916320801 28.20859718322754 20.48756980895996 28.20859718322754 16.31970024108887 C 28.20859718322754 10.40383338928223 29.40367698669434 4.363178253173828 30.06446647644043 1.475439071655273 C 27.38382530212402 2.245250940322876 21.87957382202148 3.601241111755371 15.76871776580811 3.809219837188721 C 15.38473796844482 3.822289705276489 14.99224758148193 3.828919649124146 14.60215759277344 3.828919649124146 C 9.113829612731934 3.828919649124146 4.213513851165771 2.507758855819702 1.600870013237 1.645884037017822 C 2.528432369232178 4.647925853729248 4.102297782897949 10.58679294586182 4.102297782897949 16.31970024108887 C 4.102297782897949 21.99226760864258 2.566427707672119 27.54225730895996 1.62824022769928 30.40154647827148 C 4.493327140808105 29.51583099365234 10.07127094268799 28.05739974975586 15.73469734191895 28.05739974975586 C 19.90320777893066 28.05739974975586 24.15310668945312 28.85976982116699 26.98430824279785 29.53287887573242 C 28.35868835449219 29.85963821411133 29.5439510345459 30.1879997253418 30.45589447021484 30.45876693725586 M 15.95069789886475 19.456298828125 C 14.76949787139893 19.456298828125 13.56761741638184 19.86467933654785 13.33880805969238 19.94649887084961 C 13.42835807800293 19.91433906555176 13.56189727783203 19.84984016418457 13.68956756591797 19.72521018981934 L 12.06185722351074 18.63998031616211 C 12.06697750091553 18.6270694732666 12.57379722595215 17.33403968811035 12.57379722595215 16.05959892272949 C 12.57379722595215 14.87578010559082 12.14011764526367 13.58031940460205 12.05291748046875 13.33189010620117 C 12.07936763763428 13.40705966949463 12.1439380645752 13.55366992950439 12.27916717529297 13.69095993041992 L 13.38024806976318 12.06783962249756 C 13.39106750488281 12.07236957550049 14.4762077331543 12.52077960968018 15.73609733581543 12.52075004577637 C 15.79670715332031 12.52073955535889 15.85738754272461 12.51970958709717 15.91702747344971 12.51766967773438 C 17.18093681335449 12.47507953643799 18.27993774414062 12.14410018920898 18.58727836608887 12.04346942901611 C 18.48919677734375 12.07563018798828 18.30095672607422 12.15789985656738 18.14217758178711 12.34745979309082 L 19.87484741210938 13.24792003631592 C 19.87096786499023 13.2624397277832 19.48689842224121 14.71599960327148 19.48689842224121 16.05959892272949 C 19.48689842224121 17.24814987182617 19.87550735473633 18.4480094909668 19.95337677001953 18.67635917663574 C 19.92455673217773 18.59228897094727 19.85301780700684 18.42936897277832 19.69766807556152 18.28285980224609 L 18.67917823791504 19.95351028442383 C 18.66503715515137 19.94853973388672 17.24971771240234 19.456298828125 15.95069789886475 19.456298828125 M -0.0004123962426092476 32.00033950805664 L 0.0005176037666387856 31.9981803894043 C 0.03153760358691216 31.9256591796875 3.10229754447937 24.25153923034668 3.10229754447937 16.31970024108887 C 3.10229754447937 8.412799835205078 0.0328076034784317 0.08320975303649902 0.001797603792510927 -2.459716768044018e-07 C 0.06495760381221771 0.02703975327312946 6.677987575531006 2.828919649124146 14.60215759277344 2.828919649124146 C 14.98087787628174 2.828919649124146 15.36191749572754 2.822489738464355 15.73469734191895 2.809799671173096 C 24.15165710449219 2.523329734802246 31.38204765319824 0.02519975416362286 31.45409774780273 -2.459716768044018e-07 C 31.43292808532715 0.07878975570201874 29.20859718322754 8.396519660949707 29.20859718322754 16.31970024108887 C 29.20859718322754 20.39101028442383 29.95570755004883 24.40083885192871 30.58246803283691 27.04776000976562 C 31.27803802490234 29.98534965515137 31.97053718566895 31.91672897338867 31.99967765808105 31.99750900268555 C 31.91156768798828 31.96809959411621 29.83617782592773 31.23877906799316 26.75300788879395 30.50576019287109 C 23.97386741638184 29.84502983093262 19.80634689331055 29.05739974975586 15.73469734191895 29.05739974975586 C 7.82493782043457 29.05739974975586 0.07910760492086411 31.97007942199707 0.001797603792510927 31.9995002746582 L -0.0004123962426092476 32.00033950805664 Z M 19.01156806945801 19.0103702545166 C 19.01033782958984 19.00921058654785 19.00899696350098 19.0052604675293 19.00692749023438 18.99921035766602 C 18.88493728637695 18.64146041870117 18.48689842224121 17.37217903137207 18.48689842224121 16.05959892272949 C 18.48689842224121 14.58102989196777 18.89736747741699 13.03227996826172 18.90878677368164 12.98958015441895 C 18.90780830383301 12.99074935913086 18.90391731262207 12.99203014373779 18.89783668518066 12.99401950836182 C 18.55937767028809 13.10483932495117 17.34657669067383 13.47006988525391 15.95069789886475 13.51709938049316 C 15.88037776947021 13.51950931549072 15.80821800231934 13.52073955535889 15.73623752593994 13.52075004577637 C 14.264967918396 13.52077960968018 13.03339767456055 13.0068998336792 12.99160766601562 12.98923015594482 C 12.99291801452637 12.99055957794189 12.99442768096924 12.99485969543457 12.99673748016357 13.00144004821777 C 13.13210773468018 13.38708972930908 13.57379722595215 14.74734973907471 13.57379722595215 16.05959892272949 C 13.57379722595215 17.53001976013184 13.00953769683838 18.96315002441406 12.99102783203125 19.00963973999023 C 12.99228763580322 19.00840950012207 12.99613761901855 19.00703048706055 13.00196743011475 19.00494003295898 C 13.36190795898438 18.87623023986816 14.63829803466797 18.456298828125 15.95069789886475 18.456298828125 C 17.42416763305664 18.456298828125 18.96556854248047 18.99415016174316 19.01156806945801 19.0103702545166 Z" stroke="none" fill="#fff"/>
    </g>
    <circle id="Ellipse_276" data-name="Ellipse 276" cx="8.25" cy="8.25" r="8.25" transform="translate(8 7)" opacity="0.6"/>
    <text id="_10" data-name="10" transform="translate(9.5 20)" fill="#fff" font-size="12" font-family="SegoeUI-Bold, Segoe UI" font-weight="700"><tspan x="0" y="0">10</tspan></text>
  </g>
  <rect id="Rectangle_1494" data-name="Rectangle 1494" width="70" height="70" fill="none"/>
</svg>
