<svg id="Component_222_1" data-name="Component 222 – 1" xmlns="http://www.w3.org/2000/svg" width="70" height="70" viewBox="0 0 70 70">
  <text id="Perfect_Parry_Counter_Attacks" data-name="Perfect Parry 
Counter Attacks" transform="translate(35 56.333)" fill="#fff" font-size="8" font-family="SegoeUI-Bold, Segoe UI" font-weight="700"><tspan x="-25.58" y="0">Perfect Parry </tspan><tspan x="-30.096" y="11">Counter Attacks</tspan></text>
  <g id="Component_198_1" data-name="Component 198 – 1" transform="translate(19 17)">
    <g id="Union_152" data-name="Union 152" transform="translate(-0.313)" fill="#50c774" opacity="0.72">
      <path d="M 30.49563980102539 31.74999809265137 C 30.38785743713379 31.7499885559082 30.28404235839844 31.70507621765137 30.19235992431641 31.61942481994629 L 29.78787994384766 29.30061721801758 L 29.77574920654297 29.23109817504883 L 29.72905921936035 29.17817687988281 C 29.65925979614258 29.09906768798828 29.5780200958252 29.01688766479492 29.49201011657715 28.92987823486328 C 29.27176094055176 28.70707702636719 28.93890953063965 28.3703670501709 28.95442962646484 28.16938781738281 L 28.96179008483887 28.07398796081543 L 28.90357971191406 27.998046875 L 28.55855941772461 27.5479679107666 L 28.23176956176758 27.12166786193848 L 28.11602020263672 27.64619827270508 L 28.10745811462402 27.68499946594238 C 28.0400390625 27.76835060119629 27.97390747070312 27.7989673614502 27.9346809387207 27.7989673614502 C 27.86842918395996 27.7989673614502 27.84661102294922 27.67860794067383 27.84291076660156 27.65447807312012 L 27.6525993347168 26.41672706604004 L 27.64286994934082 26.35343742370605 L 27.60391044616699 26.3026180267334 L 26.98238945007324 25.49184799194336 L 26.65561103820801 25.06556701660156 L 26.53985023498535 25.59006690979004 L 26.47035980224609 25.90494728088379 C 26.40282440185547 25.98839950561523 26.33638381958008 26.01904678344727 26.29689979553223 26.01904678344727 C 26.2303409576416 26.01904678344727 26.20858001708984 25.8995475769043 26.20488929748535 25.87558746337891 L 25.94596099853516 24.19042778015137 L 25.93622970581055 24.12712669372559 L 25.89727020263672 24.07630729675293 L 25.52403259277344 23.58941078186035 L 26.21100234985352 22.69320106506348 C 26.33011817932129 22.8436222076416 26.51526260375977 23.07721710205078 26.74022102355957 23.36033821105957 L 26.80398941040039 23.44058799743652 L 26.90572929382324 23.45298767089844 L 27.72666931152344 23.55298805236816 C 27.73628044128418 23.55414772033691 27.76172065734863 23.55724716186523 27.7868595123291 23.61317825317383 C 27.8332633972168 23.71640586853027 27.82731628417969 23.90512657165527 27.73289108276367 24.07187843322754 L 27.69895935058594 24.09004783630371 L 27.4340991973877 24.23186683654785 L 27.62170028686523 24.46653747558594 C 27.79240989685059 24.68007850646973 27.9669303894043 24.89794731140137 28.13912963867188 25.11225700378418 L 28.20281982421875 25.1915283203125 L 28.30376052856445 25.20382690429688 L 29.36375045776367 25.33301734924316 C 29.37344932556152 25.33419799804688 29.39909934997559 25.33732795715332 29.4244499206543 25.39370727539062 C 29.47084999084473 25.49694442749023 29.46505165100098 25.68545913696289 29.37091064453125 25.85187530517578 L 29.19651985168457 25.94514846801758 L 28.92794036865234 26.08879852294922 L 29.12120056152344 26.32421684265137 C 29.20627021789551 26.42785835266113 29.28607940673828 26.52450752258301 29.35914039611816 26.61230850219727 L 29.5310001373291 26.81882858276367 L 29.72463035583496 26.632568359375 C 29.77067947387695 26.5882682800293 29.80327987670898 26.57247734069824 29.81843948364258 26.57247734069824 C 29.82579040527344 26.57247734069824 29.8946704864502 26.57752799987793 30.04894065856934 26.75237846374512 L 31.84337997436523 28.78996849060059 C 32.11048889160156 29.09189796447754 32.13813018798828 29.64264678955078 31.90410041809082 29.9930477142334 L 30.90572929382324 31.49430847167969 C 30.79730987548828 31.65665817260742 30.64772987365723 31.74999809265137 30.49563026428223 31.74999809265137 L 30.49563980102539 31.74999809265137 Z M 2.130340099334717 31.03810691833496 C 1.97816014289856 31.03811836242676 1.828630089759827 30.94463729858398 1.720080137252808 30.78164672851562 L 0.722020149230957 29.28211784362793 C 0.488350123167038 28.9312572479248 0.5160201191902161 28.37965774536133 0.7824101448059082 28.07755851745605 L 2.577070236206055 26.0409984588623 C 2.731200218200684 25.86573791503906 2.799870252609253 25.86068725585938 2.807200193405151 25.86068725585938 C 2.822120189666748 25.86068725585938 2.854280233383179 25.87619781494141 2.899770021438599 25.91972732543945 L 3.093360185623169 26.10495758056641 L 3.26476001739502 25.89902687072754 C 3.337810039520264 25.8112678527832 3.417440176010132 25.71484756469727 3.502460241317749 25.61129760742188 L 3.695870161056519 25.3757266998291 L 3.427010059356689 25.23213768005371 L 3.253315448760986 25.13937187194824 C 3.158795595169067 24.9719123840332 3.152898073196411 24.7828540802002 3.199410200119019 24.67963790893555 C 3.224670171737671 24.62355804443359 3.250510215759277 24.62042808532715 3.26023006439209 24.61924743652344 L 4.320859909057617 24.48997688293457 L 4.42179012298584 24.4776782989502 L 4.485490322113037 24.39842796325684 C 4.657740116119385 24.18410682678223 4.832070350646973 23.96652793884277 5.002810001373291 23.75298690795898 L 5.190470218658447 23.51828765869141 L 4.925539970397949 23.37645721435547 L 4.891192436218262 23.35807037353516 C 4.796784400939941 23.19133377075195 4.790840625762939 23.00261878967285 4.837240219116211 22.8993968963623 C 4.862380027770996 22.84345817565918 4.887830257415771 22.84035682678223 4.897409915924072 22.83919715881348 L 5.719350337982178 22.73901748657227 L 5.821060180664062 22.72662734985352 L 5.884819984436035 22.64640808105469 C 6.109395980834961 22.36382865905762 6.294205665588379 22.13072204589844 6.41303014755249 21.980712890625 L 7.099607944488525 22.87745475769043 L 6.726590156555176 23.36395835876465 L 6.687630176544189 23.41478729248047 L 6.677890300750732 23.47808837890625 L 6.41919994354248 25.16056823730469 C 6.41549015045166 25.18477821350098 6.393640041351318 25.30512809753418 6.326859951019287 25.30513763427734 C 6.287497043609619 25.30514717102051 6.221203327178955 25.27452659606934 6.153738975524902 25.19115447998047 L 6.084400177001953 24.8769474029541 L 5.968660354614258 24.35249710083008 L 5.641880035400391 24.7786979675293 L 5.02016019821167 25.58955764770508 L 4.981180191040039 25.6403980255127 L 4.971450328826904 25.70370674133301 L 4.781199932098389 26.94189834594727 C 4.776020050048828 26.97554779052734 4.754030227661133 27.08550834655762 4.688760280609131 27.08550834655762 C 4.649346828460693 27.08551597595215 4.583069801330566 27.05508804321289 4.515703201293945 26.97225189208984 L 4.507260322570801 26.93395805358887 L 4.391590118408203 26.40936851501465 L 4.064730167388916 26.83566856384277 L 3.721980094909668 27.28268814086914 L 3.662860155105591 27.35978698730469 L 3.671320199966431 27.45656776428223 C 3.688770055770874 27.65630722045898 3.356110095977783 27.99313735961914 3.135990142822266 28.21602821350098 C 3.049100160598755 28.30400848388672 2.967020034790039 28.38710784912109 2.896570205688477 28.46721839904785 L 2.850110054016113 28.52004814147949 L 2.838020086288452 28.58935737609863 L 2.433578968048096 30.9079418182373 C 2.341837406158447 30.99333000183105 2.238036155700684 31.03809928894043 2.130340099334717 31.03810691833496 Z M 22.4896297454834 26.16957855224609 C 22.45829010009766 26.16957855224609 22.42342948913574 26.14589691162109 22.39401054382324 26.10458755493164 C 22.3061695098877 25.98129844665527 22.31069946289062 25.76589775085449 22.40352058410645 25.65268707275391 L 24.14389038085938 23.53392791748047 L 24.30342102050781 23.33971786499023 L 24.10836029052734 23.18121719360352 C 24.10667037963867 23.17984771728516 24.10396003723145 23.17730712890625 24.10066032409668 23.17299842834473 C 24.06937980651855 23.13263702392578 19.93704032897949 17.81872749328613 16.22911071777344 13.09249782562256 L 16.03232002258301 12.8416576385498 L 15.83565044403076 13.0925874710083 C 12.2760705947876 17.63434791564941 8.551059722900391 22.42483711242676 8.524310111999512 22.45934677124023 C 8.52107048034668 22.46356773376465 8.518630027770996 22.46616744995117 8.516200065612793 22.46817779541016 L 8.324410438537598 22.62697792053223 L 8.482439994812012 22.81940841674805 L 10.22430038452148 24.94032669067383 C 10.31768989562988 25.05359840393066 10.3224401473999 25.26874732971191 10.23459053039551 25.39206695556641 C 10.20514011383057 25.43316841125488 10.16987991333008 25.45705795288086 10.13827037811279 25.45705795288086 C 10.10095977783203 25.45706748962402 10.0687198638916 25.42453765869141 10.05282020568848 25.4051570892334 L 4.464600086212158 18.60065841674805 C 4.371900081634521 18.48759841918945 4.367370128631592 18.27220726013184 4.455210208892822 18.14890670776367 C 4.48438024520874 18.10820770263672 4.51938009262085 18.08454704284668 4.550849914550781 18.08454704284668 C 4.588340282440186 18.08454704284668 4.62086009979248 18.11741828918457 4.636909961700439 18.13700675964355 L 6.719690322875977 20.67304801940918 L 7.064160346984863 21.09246826171875 L 7.159039974212646 20.55807685852051 C 7.163440227508545 20.53331756591797 7.172070026397705 20.51157760620117 7.183350086212158 20.49685668945312 L 14.40326976776123 11.07396793365479 L 14.5214204788208 10.91976737976074 L 14.40118026733398 10.76718807220459 C 12.31515979766846 8.11994743347168 11.11258983612061 6.621137619018555 10.82688999176025 6.312387466430664 C 10.61003971099854 6.078359603881836 10.44070339202881 5.593102931976318 10.32867336273193 4.901684284210205 L 10.44105052947998 4.913177490234375 L 10.82450580596924 2.13337516784668 L 15.84047031402588 8.680227279663086 L 16.03890991210938 8.939228057861328 L 16.23736953735352 8.680227279663086 L 21.79959106445312 1.420831084251404 L 22.18305015563965 4.200647830963135 L 22.29446983337402 4.189236640930176 C 22.18212509155273 4.881000995635986 22.01283264160156 5.36619758605957 21.79642105102539 5.599747657775879 C 21.48602104187012 5.935187816619873 20.09736061096191 7.67045783996582 17.66888046264648 10.75749778747559 L 17.54887962341309 10.91004753112793 L 17.66691970825195 11.06410789489746 L 25.43984985351562 21.20937728881836 C 25.45193099975586 21.22513771057129 25.46097946166992 21.2479076385498 25.46537971496582 21.27352714538574 L 25.55780029296875 21.81259727478027 L 25.90496063232422 21.38995742797852 L 27.99147987365723 18.84977722167969 C 28.00774002075195 18.82993698120117 28.04022026062012 18.79706764221191 28.07744026184082 18.79706764221191 C 28.10893058776855 18.79706764221191 28.14419937133789 18.82093811035156 28.17419052124023 18.86254692077637 C 28.26124954223633 18.9847583770752 28.25649070739746 19.19990730285645 28.16340065002441 19.31281852722168 L 22.57588958740234 26.11753845214844 C 22.54833984375 26.15095710754395 22.5175895690918 26.16957855224609 22.4896297454834 26.16957855224609 Z" stroke="none"/>
      <path d="M 30.49564552307129 31.49999809265137 C 30.56181144714355 31.49999046325684 30.63749313354492 31.4458122253418 30.69755935668945 31.35586738586426 L 31.69621086120605 29.85419845581055 C 31.86615943908691 29.59972763061523 31.84724998474121 29.17162704467773 31.65576934814453 28.95519828796387 L 29.86148071289062 26.91777801513672 C 29.84909248352051 26.90373802185059 29.83773612976074 26.89141082763672 29.827392578125 26.88060569763184 L 29.51070022583008 27.18526840209961 L 29.1669807434082 26.7722282409668 C 29.09358024597168 26.68402671813965 29.01342010498047 26.58693695068359 28.92795944213867 26.48283767700195 L 28.54146003723145 26.01199722290039 L 29.18036079406738 25.6702823638916 C 29.19432258605957 25.63191223144531 29.20077705383301 25.59538459777832 29.2026252746582 25.56523513793945 L 28.07163047790527 25.42738723754883 L 27.94424057006836 25.26884841918945 C 27.77190971374512 25.05437850952148 27.59725952148438 24.83634757995605 27.42642021179199 24.62264823913574 L 27.05121994018555 24.15330696105957 L 27.54240036010742 23.89029502868652 C 27.55643081665039 23.85189247131348 27.56296920776367 23.81533432006836 27.56489181518555 23.78512382507324 L 26.67201042175293 23.67635726928711 L 26.54449081420898 23.51586723327637 C 26.42098426818848 23.36042594909668 26.30949020385742 23.21992874145508 26.21427917480469 23.09986114501953 L 25.83903503417969 23.58940696716309 L 26.17361068725586 24.02585792541504 L 26.36054611206055 25.24250030517578 L 26.52724075317383 24.4871768951416 L 27.88022994995117 26.25215721130371 L 27.99825096130371 27.01973724365234 L 28.10338973999023 26.54327774047852 L 29.21842002868652 27.99783706665039 L 29.2043399810791 28.18022155761719 C 29.22944831848145 28.30865478515625 29.53745460510254 28.6202392578125 29.6697998046875 28.75411796569824 C 29.75838088989258 28.84371757507324 29.842041015625 28.92834854125977 29.9165210723877 29.01277732849121 L 30.00991058349609 29.11860847473145 L 30.42172622680664 31.47950172424316 C 30.44440841674805 31.4916934967041 30.4694652557373 31.4999942779541 30.49564552307129 31.49999809265137 M 2.130330085754395 30.78810691833496 L 2.130320072174072 30.78810691833496 C 2.156501293182373 30.78810691833496 2.181565999984741 30.77985382080078 2.204264879226685 30.76771926879883 L 2.615920066833496 28.40777778625488 L 2.708840131759644 28.3021183013916 C 2.784070253372192 28.21657752990723 2.868610143661499 28.13097763061523 2.958110094070435 28.04035758972168 C 3.089709758758545 27.90709686279297 3.395837068557739 27.59712600708008 3.42146897315979 27.46914672851562 L 3.405360221862793 27.28475761413574 L 4.52007007598877 25.8309383392334 L 4.625495433807373 26.30911636352539 L 4.743810176849365 25.53911781311035 L 6.097060203552246 23.77417755126953 L 6.263479232788086 24.5283260345459 L 6.450260162353516 23.31349754333496 L 6.784668445587158 22.87735176086426 L 6.409608840942383 22.38748359680176 C 6.314720630645752 22.50711250305176 6.203601360321045 22.64709663391113 6.080530166625977 22.80194854736328 L 5.953020095825195 22.96238708496094 L 5.059207916259766 23.07132911682129 C 5.061131000518799 23.10153579711914 5.067665576934814 23.13809585571289 5.081691265106201 23.17649078369141 L 5.573390007019043 23.439697265625 L 5.198070049285889 23.90910720825195 C 5.027200222015381 24.12281799316406 4.852730274200439 24.34055709838867 4.680350303649902 24.5550479888916 L 4.55295991897583 24.71354675292969 L 3.421248912811279 24.85147476196289 C 3.423142910003662 24.88191795349121 3.429707050323486 24.91886138916016 3.443879842758179 24.95772361755371 L 4.082499980926514 25.29879760742188 L 3.695680141448975 25.76993751525879 C 3.610270023345947 25.87395668029785 3.530290126800537 25.97079849243164 3.456910133361816 26.05895805358887 L 3.114110231399536 26.47081756591797 L 2.798687219619751 26.16900825500488 C 2.788352251052856 26.17984580993652 2.777008056640625 26.19220352172852 2.764630079269409 26.20627784729004 L 0.9699201583862305 28.24289703369141 C 0.7792001366615295 28.45918846130371 0.7602001428604126 28.88843727111816 0.9301301240921021 29.14359855651855 L 1.928160190582275 30.64306831359863 C 1.989550113677979 30.73524856567383 2.063230037689209 30.78810691833496 2.130330085754395 30.78810691833496 M 24.59998321533203 23.25855827331543 L 25.38761520385742 22.29934501647949 L 25.22258758544922 21.33687210083008 L 17.23238945007324 10.9080171585083 L 17.47238922119141 10.60292720794678 C 19.93923950195312 7.467107772827148 21.29358100891113 5.775057792663574 21.61305046081543 5.429827690124512 C 21.69004821777344 5.346728324890137 21.88890075683594 5.059971809387207 22.03450202941895 4.224658012390137 L 21.93539047241211 4.23480749130249 L 21.6337718963623 2.048284530639648 L 16.03890991210938 9.350287437438965 L 10.99032115936279 2.760855436325073 L 10.68871021270752 4.947337627410889 L 10.58863162994385 4.937101364135742 C 10.73388767242432 5.772112369537354 10.93307495117188 6.059171676635742 11.01037979125977 6.142597675323486 C 11.30463981628418 6.460587501525879 12.4780101776123 7.922687530517578 14.5975399017334 10.61244773864746 L 14.83800983428955 10.91761779785156 L 7.401355266571045 20.62338638305664 L 7.232113361358643 21.57660293579102 L 8.029036521911621 22.54697799682617 L 8.339133262634277 22.29021263122559 C 8.577998161315918 21.98295974731445 12.18631553649902 17.34358596801758 15.63887977600098 12.93837738037109 L 16.0322208404541 12.43650722503662 L 16.42580032348633 12.93817806243896 C 20.02000617980957 17.51945686340332 24.01309394836426 22.65304946899414 24.28464508056641 23.00233840942383 L 24.59998321533203 23.25855827331543 M 30.49562454223633 31.99999809265137 C 30.49559783935547 31.99999809265137 30.49559783935547 31.99999809265137 30.49556922912598 31.99999809265137 C 30.30526924133301 31.9999885559082 30.11412048339844 31.91374778747559 29.95919990539551 31.73759841918945 L 29.54159927368164 29.34357833862305 C 29.24873924255371 29.01165771484375 28.67391967773438 28.5549373626709 28.70516967773438 28.15014839172363 L 28.36014938354492 27.7000675201416 L 28.3400993347168 27.79092788696289 C 28.07550048828125 28.17498779296875 27.6614990234375 28.12065696716309 27.59580039978027 27.6923885345459 L 27.4055004119873 26.4547176361084 L 26.78397941589355 25.64394760131836 L 26.70300102233887 26.01088714599609 C 26.43840408325195 26.39493942260742 26.02350234985352 26.34062194824219 25.95779991149902 25.91360855102539 L 25.69886016845703 24.22839736938477 L 25.26300048828125 23.6598072052002 C 25.23329925537109 23.62064743041992 25.25850105285645 23.52463722229004 25.31970024108887 23.44504737854004 L 26.09729957580566 22.43058776855469 C 26.15850257873535 22.3497257232666 26.23229789733887 22.3168888092041 26.26200103759766 22.35477828979492 C 26.26200103759766 22.35477828979492 26.53605079650879 22.70150756835938 26.93596076965332 23.2048168182373 L 27.75690078735352 23.30481719970703 C 28.0890007019043 23.34523773193359 28.17359924316406 23.87836837768555 27.90900039672852 24.26115798950195 L 27.81697082519531 24.31043815612793 C 27.98755073547363 24.52381706237793 28.16193962097168 24.74151802062988 28.33401107788086 24.95566749572754 L 29.39400100708008 25.08485794067383 C 29.72610092163086 25.12528800964355 29.81159973144531 25.65841674804688 29.54700088500977 26.04120826721191 L 29.31443023681641 26.16559791564941 C 29.39912033081055 26.26876831054688 29.47857093811035 26.36498832702637 29.55130958557129 26.4523983001709 C 29.76833152770996 26.24362373352051 29.97000503540039 26.28504753112793 30.23640060424805 26.58696746826172 L 32.03099822998047 28.62473678588867 C 32.37300109863281 29.01131820678711 32.40900039672852 29.68720817565918 32.11199951171875 30.13189697265625 L 31.11389923095703 31.63274765014648 C 30.95181083679199 31.87544822692871 30.72431755065918 31.99999809265137 30.49562454223633 31.99999809265137 Z M 2.130350112915039 31.28810691833496 C 1.901630163192749 31.28811836242676 1.674110174179077 31.16363716125488 1.51200008392334 30.92021751403809 L 0.5139001607894897 29.4206371307373 C 0.2169001400470734 28.97467803955078 0.2529001235961914 28.30005836486816 0.5949001312255859 27.91220855712891 L 2.389500141143799 25.87570762634277 C 2.655109882354736 25.57369804382324 2.856320142745972 25.53213691711426 3.072610139846802 25.73909759521484 C 3.145330190658569 25.6517276763916 3.224600076675415 25.55574798583984 3.309240102767944 25.45265769958496 L 3.077100038528442 25.32867813110352 C 2.812500238418579 24.94462776184082 2.897100210189819 24.41149711608887 3.230100154876709 24.37106704711914 L 4.29062032699585 24.24181747436523 C 4.462739944458008 24.02765846252441 4.636940002441406 23.81024742126465 4.807549953460693 23.59686851501465 L 4.715100288391113 23.54737854003906 C 4.450500011444092 23.16458702087402 4.535099983215332 22.6314582824707 4.867199897766113 22.59102821350098 L 5.68910026550293 22.49085807800293 C 6.088550090789795 21.98824691772461 6.362100124359131 21.64225769042969 6.362100124359131 21.64225769042969 C 6.391798496246338 21.6043586730957 6.464699745178223 21.63720512390137 6.526800155639648 21.71805763244629 L 7.303500175476074 22.73251724243164 C 7.364700317382812 22.81210708618164 7.389900207519531 22.90812683105469 7.361100196838379 22.94728851318359 L 6.924990177154541 23.51607704162598 L 6.666300296783447 25.19855690002441 C 6.600600242614746 25.62682914733887 6.1857008934021 25.68115615844727 5.92110013961792 25.29709815979004 L 5.840270042419434 24.93081855773926 L 5.218550205230713 25.74167823791504 L 5.028300285339355 26.97986793518066 C 4.962599754333496 27.40687561035156 4.547699451446533 27.46119499206543 4.283100128173828 27.07840728759766 L 4.263120174407959 26.9877872467041 L 3.920370101928711 27.43480682373047 C 3.95580005645752 27.84036827087402 3.378140211105347 28.29820823669434 3.08430004119873 28.6323184967041 L 2.666700124740601 31.02633857727051 C 2.511790037155151 31.20190811157227 2.320650100708008 31.2880973815918 2.130350112915039 31.28810691833496 Z M 22.48965072631836 26.41957855224609 C 22.38005065917969 26.41958808898926 22.27086067199707 26.36258697509766 22.19040107727051 26.24965667724609 C 22.03650093078613 26.03362846374512 22.04549980163574 25.69504737854004 22.2101993560791 25.49417686462402 L 23.95071029663086 23.37524795532227 C 23.93332099914551 23.36111831665039 23.91703033447266 23.34438705444336 23.90220069885254 23.32502746582031 C 23.83089065551758 23.23302841186523 19.68159103393555 17.89814758300781 16.03241920471191 13.24680805206299 C 12.53184032440186 17.71327781677246 8.789589881896973 22.52517700195312 8.72189998626709 22.61250686645508 C 8.707759857177734 22.63095855712891 8.69221019744873 22.64701843261719 8.675640106201172 22.66073799133301 L 10.41750049591064 24.78165817260742 C 10.58310031890869 24.9825267791748 10.59210014343262 25.32109832763672 10.43819999694824 25.53712844848633 C 10.2834005355835 25.75316619873047 10.02420043945312 25.7645378112793 9.859499931335449 25.56366729736328 L 4.271399974822998 18.75931739807129 C 4.10669994354248 18.55844688415527 4.097700119018555 18.21987724304199 4.25160026550293 18.00384712219238 C 4.405500888824463 17.78907775878906 4.664700984954834 17.77643775939941 4.830300331115723 17.97857856750488 L 6.912889957427979 20.51437759399414 C 6.924200057983398 20.4506778717041 6.948689937591553 20.39206695556641 6.984899997711182 20.34480857849121 L 14.20481967926025 10.92191791534424 C 12.39097023010254 8.620078086853027 10.95903968811035 6.823287487030029 10.64340019226074 6.482187747955322 C 10.14120006561279 5.9402174949646 9.982800483703613 4.502537727355957 9.938699722290039 3.393327713012695 C 9.888299942016602 2.140097618103027 9.969300270080566 0.9677176475524902 10.0305004119873 0.7466376423835754 C 10.03680038452148 0.7238976359367371 10.04220008850098 0.7125276327133179 10.04850006103516 0.7125276327133179 C 10.04940032958984 0.7125276327133179 10.0511999130249 0.7137876152992249 10.05300045013428 0.7150476574897766 L 10.43819999694824 1.219117641448975 L 10.19340038299561 4.87901782989502 L 10.65869998931885 1.505897641181946 L 16.03891944885254 8.528177261352539 L 21.96540069580078 0.7933776378631592 L 22.43070030212402 4.166487693786621 L 22.18499946594238 0.506597638130188 L 22.57110023498535 0.002527629490941763 C 22.57469940185547 -0.002515043132007122 22.5851993560791 0.003792984178289771 22.59359931945801 0.03410762920975685 C 22.65390014648438 0.2551976442337036 22.73579978942871 1.427577614784241 22.68540000915527 2.680807590484619 C 22.64039993286133 3.790017604827881 22.48200035095215 5.227697849273682 21.97979927062988 5.769667625427246 C 21.6326904296875 6.144777774810791 19.93560028076172 8.280427932739258 17.86536979675293 10.91206741333008 L 25.6382999420166 21.05733680725098 C 25.67534065246582 21.10566711425781 25.70057106018066 21.16589736938477 25.7117805480957 21.23127746582031 L 27.79829978942871 18.69109725952148 C 27.96390151977539 18.48896789550781 28.22219848632812 18.5015983581543 28.37700080871582 18.71636772155762 C 28.5309009552002 18.93239784240723 28.52190017700195 19.27097702026367 28.35630035400391 19.47184753417969 L 22.76910018920898 26.27618789672852 C 22.6900691986084 26.37204742431641 22.58968925476074 26.4195671081543 22.48965072631836 26.41957855224609 Z" stroke="none" fill="#fff"/>
    </g>
    <g id="Component_197_1" data-name="Component 197 – 1" transform="translate(8 7.75)">
      <circle id="Ellipse_290" data-name="Ellipse 290" cx="8.25" cy="8.25" r="8.25" opacity="0.6"/>
      <text id="_15" data-name="15" transform="translate(1.25 13)" fill="#fff" font-size="12" font-family="SegoeUI-Bold, Segoe UI" font-weight="700"><tspan x="0" y="0">15</tspan></text>
    </g>
  </g>
  <rect id="Rectangle_1497" data-name="Rectangle 1497" width="70" height="70" fill="none"/>
</svg>
