<svg xmlns="http://www.w3.org/2000/svg" width="66" height="62.668" viewBox="0 0 66 62.668">
  <g id="td-b-assassinateFromAbove" transform="translate(1)">
    <text id="Assassinate_From_Above" data-name="Assassinate From
Above" transform="translate(32 49.668)" fill="#fff" font-size="8" font-family="SegoeUI-Bold, Segoe UI" font-weight="700"><tspan x="-32.287" y="0">Assassinate From</tspan><tspan x="-12.031" y="11">Above</tspan></text>
    <g id="Component_160_4" data-name="Component 160 – 4" transform="translate(16)">
      <g id="Component_150_1" data-name="Component 150 – 1" opacity="0.75">
        <path id="Subtraction_379" data-name="Subtraction 379" d="M0,32v0A48.665,48.665,0,0,0,3.1,16.321C3.1,8.544.13.346,0,0A40.936,40.936,0,0,0,9.134,2.409L6,8.057l7.839-3.92v8h4.608v-8l7.837,3.92-3.328-6A57.664,57.664,0,0,0,31.455,0a74.224,74.224,0,0,0-2.246,16.322A51.976,51.976,0,0,0,32,32l-.015-.005a56.965,56.965,0,0,0-16.251-2.933A51.44,51.44,0,0,0,0,32ZM15.951,18.457a10.614,10.614,0,0,1,3.061.554A.033.033,0,0,1,19.006,19a10,10,0,0,1-.52-2.94,13.785,13.785,0,0,1,.423-3.071.042.042,0,0,1-.014.005,11.425,11.425,0,0,1-2.945.524l-.21,0a7.767,7.767,0,0,1-2.75-.532A.02.02,0,0,1,13,13L13,13a10.245,10.245,0,0,1,.576,3.056,9.083,9.083,0,0,1-.583,2.95A.035.035,0,0,1,13,19,9.644,9.644,0,0,1,15.951,18.457Z" transform="translate(0 5.959)" fill="#50c774" opacity="0.75"/>
        <g id="Union_111" data-name="Union 111" transform="translate(8 -2.041)" fill="#50c774" opacity="0.75">
          <path d="M 9.800000190734863 19.89979934692383 L 6.499900341033936 19.89979934692383 L 6.499900341033936 11.21989059448242 L 6.499900341033936 11.05384063720703 L 6.353130340576172 11.13150024414062 L -0.7831395864486694 14.90759944915771 L 8.115448951721191 2.215187311172485 L 17.04645347595215 14.90798759460449 L 9.946640014648438 11.16470050811768 L 9.800000190734863 11.08738994598389 L 9.800000190734863 11.25316047668457 L 9.800000190734863 19.89979934692383 Z" stroke="none"/>
          <path d="M 9.700000762939453 19.79980087280273 L 9.700000762939453 10.92162036895752 L 16.7256031036377 14.62577247619629 L 8.115592002868652 2.389171600341797 L -0.4628907442092896 14.62500381469727 L 6.599900245666504 10.88778972625732 L 6.599900245666504 19.79980087280273 L 9.700000762939453 19.79980087280273 M 9.90000057220459 19.99979972839355 L 6.399900436401367 19.99979972839355 L 6.399900436401367 11.21989059448242 L -1.103399634361267 15.19019985198975 L 8.115300178527832 2.041200160980225 L 17.36730003356934 15.19019985198975 L 9.90000057220459 11.25316047668457 L 9.90000057220459 19.99979972839355 Z" stroke="none" fill="#033111"/>
        </g>
      </g>
      <circle id="Ellipse_276" data-name="Ellipse 276" cx="8.25" cy="8.25" r="8.25" transform="translate(8 13.492)" opacity="0.6"/>
      <text id="_5" data-name="5" transform="translate(12.75 26.492)" fill="#fff" font-size="12" font-family="SegoeUI-Bold, Segoe UI" font-weight="700"><tspan x="0" y="0">5</tspan></text>
    </g>
  </g>
</svg>
