<svg id="Component_224_1" data-name="Component 224 – 1" xmlns="http://www.w3.org/2000/svg" width="70" height="70" viewBox="0 0 70 70">
  <text id="Assassinate_From_Above" data-name="Assassinate From
Above" transform="translate(35 56.668)" fill="#fff" font-size="8" font-family="SegoeUI-Bold, Segoe UI" font-weight="700"><tspan x="-32.287" y="0">Assassinate From</tspan><tspan x="-12.031" y="11">Above</tspan></text>
  <g id="Component_160_4" data-name="Component 160 – 4" transform="translate(19 11)">
    <g id="Component_150_1" data-name="Component 150 – 1" opacity="0.75">
      <g id="Subtraction_379" data-name="Subtraction 379" transform="translate(0 5.958)" fill="#50c774" opacity="0.75">
        <path d="M 31.21141242980957 31.21241188049316 C 30.24095726013184 30.90603828430176 28.73483085632324 30.46295928955078 26.8691234588623 30.01968193054199 C 24.06222343444824 29.35251235961914 19.85205459594727 28.55719184875488 15.7351541519165 28.55719184875488 C 9.429740905761719 28.55719184875488 3.213997602462769 30.39227485656738 0.8344560861587524 31.18075180053711 C 1.668118834495544 28.80249977111816 3.603114128112793 22.59898948669434 3.603114128112793 16.31998252868652 C 3.603114128112793 9.970295906066895 1.644294738769531 3.347285747528076 0.8237040638923645 0.8514930009841919 C 2.227745056152344 1.357875943183899 4.95287561416626 2.233880043029785 8.348986625671387 2.796180009841919 L 5.563834190368652 7.814772129058838 L 4.780064105987549 9.227042198181152 L 6.224674224853516 8.504582405090332 L 13.33800411224365 4.947136878967285 L 13.33800411224365 12.13424205780029 L 13.33800411224365 12.58632373809814 C 13.24304294586182 12.5520715713501 13.18993473052979 12.53001976013184 13.1874942779541 12.52899265289307 L 12.73834419250488 13.42006206512451 C 12.63404369354248 13.35865211486816 12.55376434326172 13.25879192352295 12.51810455322266 13.14609241485596 L 12.51642417907715 13.1406421661377 L 12.51797389984131 13.14576244354248 L 12.52119445800781 13.15641212463379 L 12.52489376068115 13.16690254211426 C 12.6539945602417 13.53367233276367 13.07521438598633 14.82622241973877 13.07521438598633 16.05989265441895 C 13.07521438598633 17.43434143066406 12.53256416320801 18.80915260314941 12.52708435058594 18.82287216186523 L 11.9269437789917 20.32577323913574 L 13.21938133239746 19.45805931091309 C 13.61646175384521 19.31977462768555 14.7730598449707 18.95650291442871 15.95204448699951 18.95650291442871 C 17.29227447509766 18.95650291442871 18.69196319580078 19.42824172973633 18.84715461730957 19.48204231262207 L 19.9312744140625 19.85781288146973 L 19.47397804260254 18.82053184509277 C 19.35181617736816 18.4569263458252 18.98727416992188 17.26941108703613 18.98727416992188 16.05989265441895 C 18.98727416992188 14.71901226043701 19.35069465637207 13.27915191650391 19.39213371276855 13.11938190460205 L 19.41676330566406 13.02446269989014 L 19.4037036895752 12.92726230621338 L 18.43634414672852 12.8229923248291 C 18.46171188354492 12.75140476226807 18.50373077392578 12.68679046630859 18.5570240020752 12.63424205780029 L 18.94857406616211 12.63424205780029 L 18.94857406616211 12.13424205780029 L 18.94857406616211 4.947178363800049 L 26.06098365783691 8.504571914672852 L 27.50566482543945 9.22716236114502 L 26.72184371948242 7.814772129058838 L 23.73479843139648 2.432363033294678 C 26.96281814575195 1.851395726203918 29.49640274047852 1.136780977249146 30.75285339355469 0.7509368658065796 C 30.1843204498291 3.126176595687866 28.7095832824707 9.908178329467773 28.7095832824707 16.31998252868652 C 28.7095832824707 20.43832206726074 29.4637336730957 24.48945236206055 30.09638404846191 27.16272163391113 C 30.51480484008789 28.92950439453125 30.93494606018066 30.34358215332031 31.21141242980957 31.21241188049316 Z M 15.740553855896 13.02108192443848 C 14.7761926651001 13.02108192443848 13.9081335067749 12.77881240844727 13.47603130340576 12.63424205780029 L 13.83800411224365 12.63424205780029 L 18.35632133483887 12.63424205780029 C 17.83189010620117 12.77902793884277 16.93105888366699 12.98372173309326 15.93497371673584 13.01777267456055 C 15.87620449066162 13.02002239227295 15.81329441070557 13.02108192443848 15.740553855896 13.02108192443848 Z" stroke="none"/>
        <path d="M 30.45684432983398 30.45860862731934 C 30.20782089233398 29.62079048156738 29.90807342529297 28.53722763061523 29.60982322692871 27.27787208557129 C 28.97104454040527 24.57869148254395 28.2095832824707 20.48656272888184 28.2095832824707 16.31998252868652 C 28.2095832824707 14.30716133117676 28.35374069213867 12.25771617889404 28.56947326660156 10.31829071044922 L 19.44857406616211 5.756319046020508 L 19.44857406616211 12.81299114227295 L 19.89924430847168 12.86068248748779 L 19.92536354064941 13.05507278442383 L 19.87612342834473 13.24492263793945 C 19.86024475097656 13.30613231658936 19.48727416992188 14.75904273986816 19.48727416992188 16.05989265441895 C 19.48727416992188 17.18914413452148 19.84090995788574 18.33800315856934 19.94097328186035 18.64035034179688 L 20.85164451599121 20.70601272583008 L 18.68340492248535 19.9544620513916 C 18.6247444152832 19.93413162231445 17.23205375671387 19.45650291442871 15.95204448699951 19.45650291442871 C 14.901930809021 19.45650291442871 13.86241245269775 19.76778602600098 13.44428730010986 19.90943336486816 L 10.8420238494873 21.65998268127441 L 12.06254386901855 18.63794136047363 C 12.0676736831665 18.62502288818359 12.57521438598633 17.33165168762207 12.57521438598633 16.05989265441895 C 12.57521438598633 14.87576198577881 12.14041423797607 13.58054256439209 12.05325412750244 13.33292198181152 L 12.03787422180176 13.2855224609375 L 12.63433074951172 13.10495281219482 L 12.83800411224365 13.0390453338623 L 12.83800411224365 5.75623607635498 L 3.620383977890015 10.36606025695801 C 3.910493135452271 12.28686714172363 4.103114128112793 14.31676959991455 4.103114128112793 16.31998252868652 C 4.103114128112793 21.95442008972168 2.561872720718384 27.53261375427246 1.623832702636719 30.4036865234375 C 4.490256309509277 29.51794815063477 10.07563591003418 28.05719184875488 15.7351541519165 28.05719184875488 C 19.90049362182617 28.05719184875488 24.15183448791504 28.85988235473633 26.98469352722168 29.53322219848633 C 28.35772705078125 29.85944175720215 29.53836441040039 30.18583297729492 30.45684432983398 30.45860862731934 M 3.610882043838501 10.30342102050781 L 7.57034969329834 3.168806552886963 C 5.084280490875244 2.71726393699646 3.019447565078735 2.122880458831787 1.603473424911499 1.653370499610901 C 2.203285932540894 3.596745252609253 3.071516036987305 6.762537956237793 3.610882043838501 10.30342102050781 M 28.58861541748047 10.14813423156738 C 28.99774742126465 6.551875114440918 29.64752388000488 3.348755359649658 30.07144737243652 1.474684953689575 C 28.78718757629395 1.844224095344543 26.85218620300293 2.34904670715332 24.50908470153809 2.797151565551758 L 28.58861541748047 10.14813423156738 M 0.001534086302854121 32.00130081176758 L 4.086303761141608e-06 32.00008392333984 L 0.0009040862787514925 31.99828147888184 C 0.03190408647060394 31.92655181884766 3.103114128112793 24.1864013671875 3.103114128112793 16.31998252868652 C 3.103114128112793 8.546172142028809 0.1300240904092789 0.3473123013973236 0.003464086214080453 0.002082313178107142 C 0.04233408719301224 0.01699231378734112 3.819414138793945 1.626652359962463 9.133423805236816 2.413092374801636 L 6.00102424621582 8.057392120361328 L 13.83800411224365 4.138042449951172 L 13.83800411224365 12.13424205780029 L 18.44857406616211 12.13424205780029 L 18.44857406616211 4.138042449951172 L 26.28465461730957 8.057392120361328 L 22.95654487609863 2.060412406921387 C 27.93415451049805 1.22207236289978 31.42039489746094 0.0121223134920001 31.45502471923828 2.313232471351512e-06 C 31.4338436126709 0.07794231176376343 29.2095832824707 8.453492164611816 29.2095832824707 16.31998252868652 C 29.2095832824707 20.39010238647461 29.95642471313477 24.40021324157715 30.58294486999512 27.04757308959961 C 31.28774452209473 30.02358245849609 31.99347496032715 31.97847175598145 32.00040435791016 31.99738311767578 C 31.99489402770996 31.99559211730957 31.98212432861328 31.9912223815918 31.96279335021973 31.98461151123047 C 31.26730346679688 31.74696159362793 29.3678035736084 31.12726211547852 26.75354385375977 30.50614166259766 C 23.97258377075195 29.84513282775879 19.80355453491211 29.05719184875488 15.7351541519165 29.05719184875488 C 7.9649338722229 29.05719184875488 0.3264840841293335 31.87819290161133 0.005124086514115334 31.99828147888184 L 0.001534086302854121 32.00130081176758 Z M 19.01090431213379 19.00961303710938 C 19.01049423217773 19.00868225097656 19.00996398925781 19.00717163085938 19.00902366638184 19.00482177734375 C 19.00837326049805 19.00317192077637 19.00759315490723 19.00124168395996 19.00656318664551 18.99918174743652 C 18.88469314575195 18.63991165161133 18.48727416992188 17.3665714263916 18.48727416992188 16.05989265441895 C 18.48727416992188 14.65697193145752 18.86507415771484 13.15994262695312 18.90815353393555 12.99385261535645 L 18.90763473510742 12.98998260498047 C 18.90718460083008 12.99125194549561 18.90437316894531 12.99206256866455 18.90000343322754 12.9932918548584 C 18.56072425842285 13.10423278808594 17.3455638885498 13.46984195709229 15.95205402374268 13.51748275756836 C 15.88899421691895 13.51990222930908 15.81980419158936 13.52108192443848 15.740553855896 13.52108192443848 C 14.25629425048828 13.52108192443848 13.00426387786865 12.99452209472656 12.99203395843506 12.98920249938965 C 12.99310398101807 12.98983192443848 12.99388408660889 12.99232196807861 12.99497413635254 12.99577236175537 L 12.9965238571167 13.00089263916016 C 13.13226413726807 13.38652229309082 13.57521438598633 14.7469425201416 13.57521438598633 16.05989265441895 C 13.57521438598633 17.54470252990723 12.99696445465088 18.9946117401123 12.99112415313721 19.00907325744629 C 12.99307441711426 19.00776290893555 12.99539375305176 19.00692176818848 12.99834442138672 19.00585174560547 C 13.36157417297363 18.87601280212402 14.63724422454834 18.45650291442871 15.95204448699951 18.45650291442871 C 17.3740234375 18.45650291442871 18.84755325317383 18.9529914855957 19.01090431213379 19.00961303710938 Z" stroke="none" fill="#fff"/>
      </g>
      <g id="Union_111" data-name="Union 111" transform="translate(6.897)" fill="#50c774" opacity="0.75">
        <path d="M 10.90339946746826 17.85859870910645 L 7.603299617767334 17.85859870910645 L 7.603299617767334 9.178689956665039 L 7.603299617767334 9.012639999389648 L 7.45652961730957 9.090299606323242 L 0.3202596604824066 12.86639881134033 L 9.21884822845459 0.1739866435527802 L 18.14985275268555 12.86678695678711 L 11.05003929138184 9.123499870300293 L 10.90339946746826 9.046189308166504 L 10.90339946746826 9.211959838867188 L 10.90339946746826 17.85859870910645 Z" stroke="none"/>
        <path d="M 10.80340003967285 17.75860023498535 L 10.80340003967285 8.880419731140137 L 17.82900238037109 12.58457183837891 L 9.218991279602051 0.3479708731174469 L 0.6405085325241089 12.58380317687988 L 7.703299522399902 8.846589088439941 L 7.703299522399902 17.75860023498535 L 10.80340003967285 17.75860023498535 M 11.00339984893799 17.95859909057617 L 7.503299713134766 17.95859909057617 L 7.503299713134766 9.178689956665039 L -3.448486438628606e-07 13.14899921417236 L 9.21869945526123 -4.547119090148044e-07 L 18.47069931030273 13.14899921417236 L 11.00339984893799 9.211959838867188 L 11.00339984893799 17.95859909057617 Z" stroke="none" fill="#fff"/>
      </g>
    </g>
    <ellipse id="Ellipse_276" data-name="Ellipse 276" cx="8.25" cy="8.249" rx="8.25" ry="8.249" transform="translate(8.001 13.492)" opacity="0.6"/>
    <text id="_5" data-name="5" transform="translate(12.75 26.492)" fill="#fff" font-size="12" font-family="SegoeUI-Bold, Segoe UI" font-weight="700"><tspan x="0" y="0">5</tspan></text>
  </g>
  <rect id="Rectangle_1493" data-name="Rectangle 1493" width="70" height="70" fill="none"/>
</svg>
