<svg id="Component_202_1" data-name="Component 202 – 1" xmlns="http://www.w3.org/2000/svg" width="56" height="57" viewBox="0 0 56 57">
  <text id="Kill_inside_Def._Area" data-name="Kill inside Def. 
Area" transform="translate(28 44)" fill="#fff" font-size="8" font-family="SegoeUI-Bold, Segoe UI" font-weight="700"><tspan x="-27.941" y="0">Kill inside Def. </tspan><tspan x="-8.705" y="11">Area</tspan></text>
  <g id="Component_195_1" data-name="Component 195 – 1" transform="translate(12)">
    <path id="Subtraction_485" data-name="Subtraction 485" d="M44.549,47a.868.868,0,0,1-.6-.235l-6.467-6.1V42.69a.827.827,0,0,1-.85.8H34.368a.827.827,0,0,1-.85-.8v-7.61a.827.827,0,0,1,.85-.8h8.063a.827.827,0,0,1,.849.8v2.138a.827.827,0,0,1-.849.8H40.283l6.467,6.1a.77.77,0,0,1,0,1.133l-1.6,1.511A.868.868,0,0,1,44.549,47Zm-27.1,0a.868.868,0,0,1-.6-.235l-1.6-1.511a.77.77,0,0,1,0-1.133l6.467-6.1H19.568a.827.827,0,0,1-.849-.8V35.079a.827.827,0,0,1,.849-.8h8.063a.827.827,0,0,1,.849.8v7.61a.827.827,0,0,1-.849.8H25.367a.827.827,0,0,1-.849-.8V40.662l-6.466,6.1A.873.873,0,0,1,17.45,47ZM42.432,27.723H34.369a.827.827,0,0,1-.849-.8v-7.61a.827.827,0,0,1,.849-.8h2.264a.827.827,0,0,1,.849.8v2.028l6.467-6.1a.884.884,0,0,1,1.2,0l1.6,1.511a.77.77,0,0,1,0,1.133l-6.466,6.1h2.147a.827.827,0,0,1,.849.8v2.137A.827.827,0,0,1,42.432,27.723Zm-14.8,0H19.57a.827.827,0,0,1-.85-.8V24.785a.828.828,0,0,1,.85-.8h2.147l-6.467-6.1a.77.77,0,0,1,0-1.133l1.6-1.511a.886.886,0,0,1,1.2,0l6.466,6.1V19.311a.827.827,0,0,1,.85-.8h2.264a.827.827,0,0,1,.849.8v7.61A.827.827,0,0,1,27.632,27.723Z" transform="translate(-15 -15)" fill="#50c774" opacity="0.65"/>
    <circle id="Ellipse_325" data-name="Ellipse 325" cx="8.25" cy="8.25" r="8.25" transform="translate(8 7.556)" opacity="0.6"/>
    <text id="_25" data-name="25" transform="translate(9.5 20.556)" fill="#fff" stroke="#951c1c" stroke-width="0.5" font-size="12" font-family="SegoeUI-Bold, Segoe UI" font-weight="700"><tspan x="0" y="0">25</tspan></text>
  </g>
</svg>
