<svg id="Component_226_1" data-name="Component 226 – 1" xmlns="http://www.w3.org/2000/svg" width="70" height="70" viewBox="0 0 70 70">
  <g id="Component_167_2" data-name="Component 167 – 2" transform="translate(25 15)">
    <g id="flame-svgrepo-com" opacity="0.65">
      <path id="Path_464" data-name="Path 464" d="M120.051,32.29a.348.348,0,0,0,.453-.5,8.033,8.033,0,0,1-.457-7.922c2.626-5.9,4.223-8.961,4.223-8.961a21.315,21.315,0,0,0,3.153,6.741c2.217,3.053,3.431,6.893,1.474,10.093a.348.348,0,0,0,.452.494,9.874,9.874,0,0,0,5.444-8.718,17.107,17.107,0,0,0-.9-6.332c-1.09-3.4-2.429-4.991-3.2-5.672a.347.347,0,0,0-.573.286c.226,3.672-1.148,4.6-1.929,2.5a12.917,12.917,0,0,1-.494-4.056,13.922,13.922,0,0,0-2.719-8.428A9.52,9.52,0,0,0,123.262.073a.347.347,0,0,0-.557.3c.144,1.994.014,7.707-4.971,14.534-4.519,6.332-2.768,11.2-2.147,12.512A10.284,10.284,0,0,0,120.051,32.29Z" transform="translate(-114.73 0.001)" fill="#50c774" stroke="#fff" stroke-width="1" opacity="0.75"/>
    </g>
    <circle id="Ellipse_304" data-name="Ellipse 304" cx="8.25" cy="8.25" r="8.25" transform="translate(2.001 11.249)" opacity="0.6"/>
    <text id="_15" data-name="15" transform="translate(3.501 24.249)" fill="#fff" font-size="12" font-family="SegoeUI-Bold, Segoe UI" font-weight="700"><tspan x="0" y="0">15</tspan></text>
  </g>
  <text id="Fire_Damage_Kills" data-name="Fire Damage
Kills" transform="translate(35 56.333)" fill="#fff" font-size="8" font-family="SegoeUI-Bold, Segoe UI" font-weight="700"><tspan x="-23.619" y="0">Fire Damage</tspan><tspan x="-7.766" y="11">Kills</tspan></text>
  <rect id="Rectangle_1491" data-name="Rectangle 1491" width="70" height="70" fill="none"/>
</svg>
