<svg id="td-b-killOutsideDefArea" xmlns="http://www.w3.org/2000/svg" width="60" height="57" viewBox="0 0 60 57">
  <g id="Component_159_3" data-name="Component 159 – 3" transform="translate(14)">
    <path id="Subtraction_351" data-name="Subtraction 351" d="M48.151,49H40.088a.827.827,0,0,1-.849-.8V46.061a.827.827,0,0,1,.849-.8h2.148l-6.467-6.1a.77.77,0,0,1,0-1.133l1.6-1.511a.886.886,0,0,1,1.2,0l6.468,6.1V40.588a.827.827,0,0,1,.849-.8h2.264a.827.827,0,0,1,.849.8V48.2A.827.827,0,0,1,48.151,49ZM25.912,49H17.849A.827.827,0,0,1,17,48.2v-7.61a.827.827,0,0,1,.849-.8h2.264a.827.827,0,0,1,.849.8v2.027l6.467-6.1a.885.885,0,0,1,1.2,0l1.6,1.511a.77.77,0,0,1,0,1.133l-6.468,6.1h2.148a.827.827,0,0,1,.849.8V48.2A.827.827,0,0,1,25.912,49ZM37.969,29.722a.87.87,0,0,1-.6-.234l-1.6-1.511a.77.77,0,0,1,0-1.133l6.468-6.1H40.087a.827.827,0,0,1-.849-.8V17.8a.827.827,0,0,1,.849-.8H48.15a.827.827,0,0,1,.849.8v7.61a.827.827,0,0,1-.849.8H45.886a.827.827,0,0,1-.849-.8V23.384l-6.468,6.1A.87.87,0,0,1,37.969,29.722Zm-9.939,0a.87.87,0,0,1-.6-.234l-6.467-6.1v2.027a.827.827,0,0,1-.849.8H17.849a.827.827,0,0,1-.849-.8V17.8a.827.827,0,0,1,.849-.8h8.063a.827.827,0,0,1,.849.8v2.137a.827.827,0,0,1-.849.8H23.764l6.468,6.1a.771.771,0,0,1,0,1.133l-1.6,1.511A.87.87,0,0,1,28.03,29.722Z" transform="translate(-17 -17)" fill="#50c774" opacity="0.65"/>
    <circle id="Ellipse_279" data-name="Ellipse 279" cx="8.25" cy="8.25" r="8.25" transform="translate(8 7.024)" opacity="0.6"/>
    <text id="_25" data-name="25" transform="translate(9.5 20.024)" fill="#fff" font-size="12" font-family="SegoeUI-Bold, Segoe UI" font-weight="700"><tspan x="0" y="0">25</tspan></text>
  </g>
  <text id="Kill_outside_Def._Area" data-name="Kill outside Def.
Area" transform="translate(30 44)" fill="#fff" font-size="8" font-family="SegoeUI-Bold, Segoe UI" font-weight="700"><tspan x="-29.703" y="0">Kill outside Def.</tspan><tspan x="-8.705" y="11">Area</tspan></text>
</svg>
