<svg id="Component_230_1" data-name="Component 230 – 1" xmlns="http://www.w3.org/2000/svg" width="70" height="70" viewBox="0 0 70 70">
  <g id="td-b-headshots" transform="translate(19 14.444)">
    <g id="Component_193_1" data-name="Component 193 – 1">
      <g id="Subtraction_212" data-name="Subtraction 212" transform="translate(0)" fill="#50c774" opacity="0.57">
        <path d="M 16 31.5 C 13.9072904586792 31.5 11.87744045257568 31.09025001525879 9.966839790344238 30.28214073181152 C 8.121159553527832 29.50148963928223 6.463479995727539 28.38381958007812 5.039830207824707 26.96017074584961 C 3.616179943084717 25.53652954101562 2.498509883880615 23.87883949279785 1.717849969863892 22.03315925598145 C 0.9097499847412109 20.12256050109863 0.5 18.09269905090332 0.5 16 C 0.5 13.90729999542236 0.9097499847412109 11.87744045257568 1.717849969863892 9.966830253601074 C 2.498509883880615 8.121159553527832 3.616179943084717 6.463469982147217 5.039830207824707 5.039830207824707 C 6.463469982147217 3.616179943084717 8.121159553527832 2.498509883880615 9.966839790344238 1.717849969863892 C 11.87744045257568 0.9097499847412109 13.90729999542236 0.5 16 0.5 C 18.09269905090332 0.5 20.12256050109863 0.9097499847412109 22.03317070007324 1.717849969863892 C 23.87883949279785 2.498509883880615 25.53652000427246 3.616179943084717 26.96018028259277 5.039830207824707 C 28.38381958007812 6.463479995727539 29.50148963928223 8.121159553527832 30.28215026855469 9.966839790344238 C 31.09025955200195 11.87742042541504 31.5 13.90727043151855 31.5 16 C 31.5 18.09272956848145 31.09025955200195 20.12257957458496 30.28215026855469 22.03315925598145 C 29.50148963928223 23.87883949279785 28.38381958007812 25.53652000427246 26.96018028259277 26.96017074584961 C 25.53652000427246 28.38381958007812 23.87882995605469 29.50149917602539 22.03317070007324 30.28214073181152 C 20.12256050109863 31.09025001525879 18.09271049499512 31.5 16 31.5 Z M 16 2.296129941940308 C 8.443659782409668 2.296129941940308 2.296129941940308 8.443659782409668 2.296129941940308 16 C 2.296129941940308 23.55633926391602 8.443659782409668 29.70387077331543 16 29.70387077331543 C 23.55635070800781 29.70387077331543 29.70388031005859 23.55633926391602 29.70388031005859 16 C 29.70388031005859 8.443659782409668 23.55635070800781 2.296129941940308 16 2.296129941940308 Z" stroke="none"/>
        <path d="M 16 31 C 18.02543067932129 31 19.98974990844727 30.60354042053223 21.8383903503418 29.82163047790527 C 23.62446022033691 29.06620025634766 25.22871971130371 27.98451042175293 26.60662078857422 26.60660934448242 C 27.98451042175293 25.22872924804688 29.06620025634766 23.62446022033691 29.8216495513916 21.8383903503418 C 30.60354042053223 19.98977088928223 31 18.02544975280762 31 16 C 31 13.97455024719238 30.60354042053223 12.01023006439209 29.8216495513916 10.1616096496582 C 29.06620025634766 8.375539779663086 27.98451042175293 6.771269798278809 26.60662078857422 5.39339017868042 C 25.22872924804688 4.015490055084229 23.62446022033691 2.933799982070923 21.8383903503418 2.178359985351562 C 19.98974990844727 1.396460056304932 18.02543067932129 1 16 1 C 13.97457027435303 1 12.01025009155273 1.396460056304932 10.1616096496582 2.17834997177124 C 8.375530242919922 2.933799982070923 6.771269798278809 4.015490055084229 5.393380165100098 5.39339017868042 C 4.015490055084229 6.771269798278809 2.933799982070923 8.375530242919922 2.178359985351562 10.1616096496582 C 1.396460056304932 12.01025009155273 1 13.97457027435303 1 16 C 1 18.02543067932129 1.396460056304932 19.98974990844727 2.17834997177124 21.8383903503418 C 2.933799982070923 23.62446975708008 4.015490055084229 25.22872924804688 5.39339017868042 26.60662078857422 C 6.771279811859131 27.98451042175293 8.375539779663086 29.06620025634766 10.1616096496582 29.82164001464844 C 12.01025009155273 30.60354042053223 13.97457027435303 31 16 31 M 16 1.796129941940308 C 23.83205032348633 1.796129941940308 30.20388031005859 8.167960166931152 30.20388031005859 16 C 30.20388031005859 23.83204078674316 23.83205032348633 30.20387077331543 16 30.20387077331543 C 8.167960166931152 30.20387077331543 1.796129941940308 23.83204078674316 1.796129941940308 16 C 1.796129941940308 8.167960166931152 8.167960166931152 1.796129941940308 16 1.796129941940308 M 16 32 C 13.84000015258789 32 11.74462032318115 31.57695960998535 9.772060394287109 30.74263954162598 C 7.866789817810059 29.93679046630859 6.155680179595947 28.78313064575195 4.686279773712158 27.313720703125 C 3.216870069503784 25.84432029724121 2.063210010528564 24.13320922851562 1.257349967956543 22.22793960571289 C 0.4230400025844574 20.25538063049316 0 18.15999031066895 0 16 C 0 13.84000015258789 0.4230400025844574 11.74462032318115 1.257349967956543 9.772060394287109 C 2.063210010528564 7.866789817810059 3.216870069503784 6.155680179595947 4.686279773712158 4.686279773712158 C 6.155680179595947 3.216870069503784 7.866789817810059 2.063210010528564 9.772060394287109 1.257349967956543 C 11.74462032318115 0.4230400025844574 13.84000015258789 0 16 0 C 18.15999984741211 0 20.25538063049316 0.4230400025844574 22.22793960571289 1.257349967956543 C 24.13320922851562 2.063210010528564 25.84432029724121 3.216870069503784 27.31373023986816 4.686279773712158 C 28.78313064575195 6.155680179595947 29.93679046630859 7.866789817810059 30.74264907836914 9.772060394287109 C 31.57696914672852 11.74462032318115 32 13.84000015258789 32 16 C 32 18.15999031066895 31.57696914672852 20.25538063049316 30.74264907836914 22.22793960571289 C 29.93679046630859 24.13320922851562 28.78313064575195 25.84432029724121 27.31373023986816 27.313720703125 C 25.84432029724121 28.78313064575195 24.13320922851562 29.93679046630859 22.22793960571289 30.74263954162598 C 20.25538063049316 31.57695960998535 18.15999984741211 32 16 32 Z M 16 2.796129941940308 C 8.7193603515625 2.796129941940308 2.796129941940308 8.7193603515625 2.796129941940308 16 C 2.796129941940308 23.2806396484375 8.7193603515625 29.20387077331543 16 29.20387077331543 C 23.28064918518066 29.20387077331543 29.20388031005859 23.2806396484375 29.20388031005859 16 C 29.20388031005859 8.7193603515625 23.28064918518066 2.796129941940308 16 2.796129941940308 Z" stroke="none" fill="#50c774"/>
      </g>
      <g id="Subtraction_214" data-name="Subtraction 214" transform="translate(8 7.703)" fill="#50c774" opacity="0.57">
        <path d="M 7.999889850616455 15.5 C 6.987170219421387 15.5 6.005030155181885 15.3017692565918 5.080739974975586 14.91079998016357 C 4.187709808349609 14.5330696105957 3.385590076446533 13.99220943450928 2.69665002822876 13.30324935913086 C 2.007719993591309 12.61428928375244 1.466879963874817 11.81214904785156 1.089159965515137 10.91909980773926 C 0.6982200145721436 9.994779586791992 0.5 9.012619972229004 0.5 7.999899387359619 C 0.5 6.987179756164551 0.6982200145721436 6.005029678344727 1.089159965515137 5.080719470977783 C 1.466889977455139 4.187699317932129 2.007719993591309 3.38556957244873 2.69665002822876 2.696639537811279 C 3.385570049285889 2.00771951675415 4.187699794769287 1.466889500617981 5.080729961395264 1.089159488677979 C 6.005030155181885 0.6982195377349854 6.987170219421387 0.4999995231628418 7.999889850616455 0.4999995231628418 C 9.01261043548584 0.4999995231628418 9.994779586791992 0.6982195377349854 10.91909980773926 1.089159488677979 C 11.81215000152588 1.466879487037659 12.61429023742676 2.00771951675415 13.30325031280518 2.696649551391602 C 13.99221038818359 3.385589599609375 14.5330696105957 4.187709331512451 14.91079998016357 5.080729484558105 C 15.30177021026611 6.005029678344727 15.5 6.987169742584229 15.5 7.999899387359619 C 15.5 9.012629508972168 15.30175971984863 9.994789123535156 14.91079998016357 10.91908931732178 C 14.53306007385254 11.8121395111084 13.99219989776611 12.61428928375244 13.30325031280518 13.30324935913086 C 12.61429023742676 13.99219989776611 11.81214046478271 14.53305912017822 10.91909027099609 14.91079998016357 C 9.994779586791992 15.30175971984863 9.012619972229004 15.5 7.999889850616455 15.5 Z M 8.000100135803223 2.978319406509399 C 6.658460140228271 2.978319406509399 5.397359848022461 3.500679492950439 4.449090003967285 4.449179649353027 C 3.500679969787598 5.397359371185303 2.978310108184814 6.658469676971436 2.978310108184814 8.000099182128906 C 2.978310108184814 9.341599464416504 3.500679969787598 10.60263919830322 4.449180126190186 11.55090999603271 C 5.397610187530518 12.49932956695557 6.658699989318848 13.02167987823486 8.000100135803223 13.02167987823486 C 9.235429763793945 13.02167987823486 10.4248104095459 12.56978988647461 11.34914016723633 11.74923992156982 C 12.26401042938232 10.93718910217285 12.84319019317627 9.83661937713623 12.97999000549316 8.650279998779297 C 13.00918960571289 8.400629997253418 13.02169036865234 8.205939292907715 13.02169036865234 8.000099182128906 C 13.02169036865234 6.658699512481689 12.49934005737305 5.397609710693359 11.55084991455078 4.449129581451416 C 10.60264015197754 3.500679492950439 9.341609954833984 2.978319406509399 8.000100135803223 2.978319406509399 Z M 8.000100135803223 8.5435791015625 C 7.700429916381836 8.5435791015625 7.456630229949951 8.299779891967773 7.456630229949951 8.000099182128906 C 7.456630229949951 7.700429439544678 7.700429916381836 7.456629753112793 8.000100135803223 7.456629753112793 C 8.299779891967773 7.456629753112793 8.543580055236816 7.700429439544678 8.543580055236816 8.000099182128906 C 8.543580055236816 8.299779891967773 8.299779891967773 8.5435791015625 8.000100135803223 8.5435791015625 Z" stroke="none"/>
        <path d="M 7.999889850616455 15 C 8.945340156555176 15 9.861960411071777 14.81504917144775 10.72430992126465 14.45029926300049 C 11.55776977539062 14.09776973724365 12.30648994445801 13.5928897857666 12.9496898651123 12.9496898651123 C 13.5928897857666 12.30648994445801 14.09776973724365 11.55776977539062 14.4503002166748 10.72429943084717 C 14.81505012512207 9.861969947814941 15 8.94534969329834 15 7.999899387359619 C 15 7.054459571838379 14.81505966186523 6.137839317321777 14.4503002166748 5.275509357452393 C 14.09778022766113 4.442089557647705 13.59290981292725 3.693389415740967 12.94970989227295 3.050209522247314 C 12.30650043487549 2.407029628753662 11.55778026580811 1.902179479598999 10.72432994842529 1.549669504165649 C 9.861969947814941 1.184939503669739 8.945340156555176 0.9999995231628418 7.999889850616455 0.9999995231628418 C 7.054450035095215 0.9999995231628418 6.137829780578613 1.184929490089417 5.275509834289551 1.549659490585327 C 4.442070007324219 1.902179479598999 3.69337010383606 2.407039642333984 3.05019998550415 3.05018949508667 C 2.407040119171143 3.693369626998901 1.902179956436157 4.442069530487061 1.549669981002808 5.27549934387207 C 1.184929966926575 6.137829303741455 1 7.054459571838379 1 7.999899387359619 C 1 8.945339202880859 1.184939980506897 9.861969947814941 1.549669981002808 10.72432994842529 C 1.902179956436157 11.55777931213379 2.40703010559082 12.30649948120117 3.050209999084473 12.94969940185547 C 3.693389892578125 13.59290981292725 4.442090034484863 14.09777927398682 5.275519847869873 14.45029926300049 C 6.137839794158936 14.81505966186523 7.054450035095215 15 7.999889850616455 15 M 8.000100135803223 2.478319406509399 C 9.475190162658691 2.478319406509399 10.86180019378662 3.052709579467773 11.90439987182617 4.095579624176025 C 12.94733047485352 5.138489723205566 13.52169036865234 6.525139331817627 13.52169036865234 8.000099182128906 C 13.52169036865234 8.226369857788086 13.50817966461182 8.438429832458496 13.47669982910156 8.707559585571289 C 13.32579040527344 10.0162992477417 12.68807983398438 11.22932910919189 11.68107986450195 12.12315940856934 C 10.66516017913818 13.02500915527344 9.35789966583252 13.52167987823486 8.000100135803223 13.52167987823486 C 6.525139808654785 13.52167987823486 5.138490200042725 12.94731998443604 4.095670223236084 11.90449905395508 C 3.052700042724609 10.86178970336914 2.478310108184814 9.475179672241211 2.478310108184814 8.000099182128906 C 2.478310108184814 6.524889469146729 3.052700042724609 5.138209342956543 4.095499992370605 4.095669746398926 C 5.138199806213379 3.052709579467773 6.524889945983887 2.478319406509399 8.000100135803223 2.478319406509399 M 7.999889850616455 16 C 6.919899940490723 16 5.872220039367676 15.78847980499268 4.885950088500977 15.37129974365234 C 3.933330059051514 14.96835994720459 3.077790021896362 14.39151954650879 2.343090057373047 13.65679931640625 C 1.608399987220764 12.92207908630371 1.031579971313477 12.06650924682617 0.6286600232124329 11.11386966705322 C 0.2115100026130676 10.12757968902588 0 9.079889297485352 0 7.999899387359619 C 0 6.919899463653564 0.2115100026130676 5.872219562530518 0.6286600232124329 4.885949611663818 C 1.031589984893799 3.933329582214355 1.608399987220764 3.077789545059204 2.343090057373047 2.343089580535889 C 3.077790021896362 1.608399510383606 3.933330059051514 1.031589508056641 4.885950088500977 0.6286595463752747 C 5.872220039367676 0.2115095257759094 6.919899940490723 -4.76837158203125e-07 7.999889850616455 -4.76837158203125e-07 C 9.079890251159668 -4.76837158203125e-07 10.12757968902588 0.2115095257759094 11.11386966705322 0.6286595463752747 C 12.06651020050049 1.031579494476318 12.92208003997803 1.608399510383606 13.65680027008057 2.343089580535889 C 14.39151954650879 3.077789545059204 14.96835994720459 3.933329582214355 15.37129974365234 4.885949611663818 C 15.78847980499268 5.872219562530518 16 6.919899463653564 16 7.999899387359619 C 16 9.079889297485352 15.78847980499268 10.12758922576904 15.37129974365234 11.11386966705322 C 14.96835994720459 12.06650924682617 14.39151954650879 12.92207908630371 13.65680027008057 13.65679931640625 C 12.92208003997803 14.39151954650879 12.06651020050049 14.96835994720459 11.11386966705322 15.37129974365234 C 10.12757968902588 15.78847980499268 9.079890251159668 16 7.999889850616455 16 Z M 8.000100135803223 3.478319406509399 C 6.792049884796143 3.478319406509399 5.656519889831543 3.948649406433105 4.802690029144287 4.802689552307129 C 3.948649883270264 5.656519412994385 3.478310108184814 6.792049407958984 3.478310108184814 8.000099182128906 C 3.478310108184814 9.208019256591797 3.948649883270264 10.34347915649414 4.802690029144287 11.19730949401855 C 5.656730175018311 12.05134963989258 6.79226016998291 12.52167987823486 8.000100135803223 12.52167987823486 C 9.112970352172852 12.52167987823486 10.1844596862793 12.11455917358398 11.0172004699707 11.375319480896 C 11.83992958068848 10.64504909515381 12.36060047149658 9.656939506530762 12.48328018188477 8.593009948730469 C 12.51019954681396 8.362859725952148 12.52169036865234 8.185549736022949 12.52169036865234 8.000099182128906 C 12.52169036865234 6.792259693145752 12.05134963989258 5.656729698181152 11.19729995727539 4.802689552307129 C 10.34348011016846 3.948649406433105 9.208020210266113 3.478319406509399 8.000100135803223 3.478319406509399 Z M 8.000100135803223 9.0435791015625 C 7.424729824066162 9.0435791015625 6.956630229949951 8.575479507446289 6.956630229949951 8.000099182128906 C 6.956630229949951 7.424729347229004 7.424729824066162 6.956629753112793 8.000100135803223 6.956629753112793 C 8.575480461120605 6.956629753112793 9.043580055236816 7.424729347229004 9.043580055236816 8.000099182128906 C 9.043580055236816 8.575479507446289 8.575480461120605 9.0435791015625 8.000100135803223 9.0435791015625 Z" stroke="none" fill="#50c774"/>
      </g>
      <path id="Union_150" data-name="Union 150" d="M23.709,23.774,17.928,16.41l-5.781,7.364L3.183,31.825l7.155-8.912,6.807-6.505.39-.5-.378-.481L10.339,8.912,3.183,0l8.962,8.051,5.781,7.362,5.781-7.361L32.669,0,25.513,8.914l-6.807,6.5-.389.495.379.482,6.82,6.518,7.155,8.912Z" transform="translate(-2.184)" fill="#fff" opacity="0.57"/>
    </g>
    <g id="Component_194_1" data-name="Component 194 – 1" transform="translate(7.875 7.056)">
      <g id="Ellipse_324" data-name="Ellipse 324" stroke="#707070" stroke-width="1" opacity="0.6">
        <ellipse cx="8.125" cy="8.5" rx="8.125" ry="8.5" stroke="none"/>
        <ellipse cx="8.125" cy="8.5" rx="7.625" ry="8" fill="none"/>
      </g>
      <text id="_25" data-name="25" transform="translate(1.5 13)" fill="#fff" font-size="12" font-family="SegoeUI-Bold, Segoe UI" font-weight="700"><tspan x="0" y="0">25</tspan></text>
    </g>
  </g>
  <text id="Headshots" transform="translate(15 57)" fill="#fff" font-size="8" font-family="SegoeUI-Bold, Segoe UI" font-weight="700"><tspan x="0" y="0">Headshots</tspan></text>
  <rect id="Rectangle_1487" data-name="Rectangle 1487" width="70" height="70" fill="none"/>
</svg>
