<svg id="Component_225_1" data-name="Component 225 – 1" xmlns="http://www.w3.org/2000/svg" width="70" height="70" viewBox="0 0 70 70">
  <text id="Ranged_Kills" data-name="Ranged Kills" transform="translate(35 58.466)" fill="#fff" font-size="8" font-family="SegoeUI-Bold, Segoe UI" font-weight="700"><tspan x="-23.17" y="0">Ranged Kills</tspan></text>
  <g id="Component_196_1" data-name="Component 196 – 1" transform="translate(18 19)">
    <path id="Union_151" data-name="Union 151" d="M.506,28.234l.455-.458a.936.936,0,0,1-.321.131c-.786.149-.628-.684-.628-.684S2.3,24.71,2.339,23.168C2.431,19.081,2.126,11.95,6.7,6.638c5.537-4.8,6.565-3.808,16.464-4.509.054,0,.114,0,.174,0,.846.008,2.223.015,3.937-2,.809-.3.98-.022.958.316L28.4.272,28.926.8,1.027,28.757Zm23.2-24.8c-5.012,1-8.992-.35-14.262,4.752-4.352,4.214-4.679,6.976-5.576,14.976a12.1,12.1,0,0,1-1.88,3.584L26.679,2A9.971,9.971,0,0,1,23.7,3.439ZM13.77,27.025a3.227,3.227,0,0,1-.9-2.311,3.046,3.046,0,0,1,1.85-2.7,6.4,6.4,0,0,1,1.686-.23,5.462,5.462,0,0,1,.937.078c.5-.458,2.706-2.468,3.73-3.64-.055-2.768-1.083-3.34,0-5.04A107.839,107.839,0,0,1,34.886,6.148a119.278,119.278,0,0,1-7.238,14.065c-1.126,1.133-2.873-.22-4.752-.277a49.043,49.043,0,0,0-3.867,3.655l-.005-.005a1.358,1.358,0,0,1-.165.21c.035,2.664-.445,3.158-1.934,3.994a3.712,3.712,0,0,1-.978.135A3.017,3.017,0,0,1,13.77,27.025Zm.346-.823,3.13.5.5-3.139-3.13-.5Z" transform="translate(0 0)" fill="#50c774" opacity="0.75"/>
    <g id="Component_155_1" data-name="Component 155 – 1" transform="translate(9 5.975)">
      <circle id="Ellipse_278" data-name="Ellipse 278" cx="8.25" cy="8.25" r="8.25" opacity="0.6"/>
      <text id="_20" data-name="20" transform="translate(1.5 13)" fill="#fff" font-size="12" font-family="SegoeUI-Bold, Segoe UI" font-weight="700"><tspan x="0" y="0">20</tspan></text>
    </g>
  </g>
  <rect id="Rectangle_1492" data-name="Rectangle 1492" width="70" height="70" fill="none"/>
</svg>
