<svg id="Component_240_1" data-name="Component 240 – 1" xmlns="http://www.w3.org/2000/svg" width="70" height="70" viewBox="0 0 70 70">
  <g id="Component_219_1" data-name="Component 219 – 1" transform="translate(19 13)" opacity="0.75">
    <path id="Union_19" data-name="Union 19" d="M3.021,9.314V6.294H0V3.273H3.021V0H6.041V3.273H9.314V6.294H6.041V9.314Z" transform="translate(22.008)" fill="#ff8282"/>
    <path id="Union_20" data-name="Union 20" d="M2.286,7.049V4.763H0V2.476H2.286V0H4.572V2.476H7.048V4.763H4.572V7.049Z" transform="translate(18.986 7.3)" fill="#ff8282"/>
    <path id="Subtraction_224" data-name="Subtraction 224" d="M22.222,19.437c-.937,0-1.216-.689-1.486-1.356-.205-.507-.4-.986-.873-1.1a.469.469,0,0,0-.107-.013.75.75,0,0,0-.532.318h0c-.039,0-.147-.006-.322-.006-.125,0-.258,0-.395.006l-.035-.668h-.181v.668h-.033c-.564.017-1.417.041-2.16.041a10.412,10.412,0,0,1-1.236-.049.953.953,0,0,1-.65-.466c-.155-.206-.3-.4-.608-.4a.887.887,0,0,0-.151.014c-1.024,1.311-1.459,1.584-2.145,1.858a21.172,21.172,0,0,1-5.274.528h0c-.857.025-1.6.046-2.046.1l-.035,0a.214.214,0,0,1-.167-.07c-.172-.186-.127-.716-.072-1.385v-.005a7.4,7.4,0,0,0-.028-2.166c-.928.1-.928.472-.929,1.149a4.651,4.651,0,0,1-.184,1.477c-.205.43-.422.639-.664.639a.679.679,0,0,1-.118-.013h0l-.01,0-.015,0h0c-.034-.005-.069-.058-.108-.12v0c-.055-.086-.117-.184-.2-.2v-.8H.915V18C.394,17.9,0,17.814,0,17.813l.171-3.667h0c.117,0,.235.006.352.006A3.964,3.964,0,0,0,1.6,14.046a.439.439,0,0,0,.28-.22.288.288,0,0,0,0-.211l1.5-.313c.005-.011.556-1.066.409-1.251a3.243,3.243,0,0,1,1.691-.914,7.7,7.7,0,0,1,1.784-.2c.457,0,.771.034.773.035v-.019c0-.25-.047-2.478-.111-3.654A2.8,2.8,0,0,1,8.64,5.784,16.746,16.746,0,0,1,10.267,4a3.694,3.694,0,0,1,.928-.555l0,0c.477-.23.971-.467,1.112-.8.046-.11-.559-.5-1.2-.9h0c-.659-.42-1.34-.854-1.291-.983l.022-.06L9.853.659v0C9.984.3,10.1,0,10.407,0a1.192,1.192,0,0,1,.575.214,35.149,35.149,0,0,1,2.864,2.27l1.274.046a1,1,0,0,0,.362.494,1.353,1.353,0,0,0,.636.143h.034a.012.012,0,0,0,.01-.006c.037-.051-.1-.441-.1-.445h0c-.07-.014-.42-.091-.481-.186a.582.582,0,0,1-.1-.548.236.236,0,0,1,.223-.117h.039a4.536,4.536,0,0,0,.738-.071v.263h.528V1.711a2.843,2.843,0,0,1,.375-.023c.077,0,.153,0,.227.008.111.008.257.015.4.021a8,8,0,0,1,3.916.923A4.941,4.941,0,0,1,24.162,4.63a1.749,1.749,0,0,0,.638.7c.175-.025.166-.143.137-.536l0-.046c0-.024-.048-.071-.106-.13-.091-.093-.205-.208-.213-.3,0,0,0-.01,0-.016V4.287a1.275,1.275,0,0,1,0-.384A12.07,12.07,0,0,0,24.8,2.684c0-.159-.007-.3-.014-.419a2.222,2.222,0,0,1,.071-.855C25.1.595,26.6.531,27.053.531A3.8,3.8,0,0,1,27.831.6c.032.085.062.167.09.243.2.546.345.94.766,1.074a6.537,6.537,0,0,0,2.48,3.609h0c.2.178.412.361.581.528a1.472,1.472,0,0,1,.44-.075.747.747,0,0,1,.6.251.98.98,0,0,1,.161.812c0,.09-.118.121-.267.161a.755.755,0,0,0-.611.442,7.055,7.055,0,0,0-1.827,4.483c-.031.282-.063.573-.108.88-.006.044-.1.048-.2.053-.153.007-.342.015-.368.146,0,0-.163.228-.05.325a.726.726,0,0,0,.39.075c.063,0,.113,0,.122,0-.011.05.025.1.066.167a.419.419,0,0,1,.092.361,3.178,3.178,0,0,1-.433.379h0l-1.171-.174a1.288,1.288,0,0,1-.65.213.736.736,0,0,1-.607-.312,14.106,14.106,0,0,1-1.05-2.361l0,0a6.381,6.381,0,0,0-.864-1.864l-.013,0a.5.5,0,0,0-.292.325c-.191.663.711,2,1.436,3.072.524.776.938,1.388.785,1.513a.63.63,0,0,1-.114.058h0c-.127.056-.3.134-.332.247a.16.16,0,0,0,.032.137c.06.086.1.153.134.2l.007.01c.107.168.107.168.362.269l.006,0h0c.128.051.321.127.62.261h.013a2.009,2.009,0,0,1,1.027.279l.008,0a.662.662,0,0,0,.075.038,1.072,1.072,0,0,1,0,1.05.622.622,0,0,1-.527.343.827.827,0,0,1-.594-.329.133.133,0,0,1-.029-.019.4.4,0,0,0-.225-.1c-.138,0-.241.139-.307.415l-.008,0-.01,0-.01,0-.009,0h-.006a1.274,1.274,0,0,1-.292.046c-.238,0-.442-.137-.66-.445a1.758,1.758,0,0,0-.871-1.292.888.888,0,0,0-.633-.207c-.1,0-.2.006-.313.014h-.018c-.126.009-.24.016-.367.016a2.205,2.205,0,0,1-.943-.2,3.489,3.489,0,0,1-1.153-.922,1.077,1.077,0,0,0-.536.78c-.047.6.615,1.244,1.2,1.809l0,0h0c.53.512,1.031,1,.935,1.375-.056.224-.314.4-.787.531A2.846,2.846,0,0,1,22.222,19.437Zm-12.3-3.855a.607.607,0,0,0-.3.188,1.2,1.2,0,0,0-.139.31h0a.733.733,0,0,1-.152.3.809.809,0,0,1-.323.166.567.567,0,0,0-.1.038,1.164,1.164,0,0,0-.35.306,1.537,1.537,0,0,0,.564.124.776.776,0,0,0,.327-.065,1.039,1.039,0,0,0,.628-.759A1.465,1.465,0,0,0,9.924,15.582Zm-8.81,0v.755h.5v-.755ZM14.605,15.2a.378.378,0,1,0,.378.378A.378.378,0,0,0,14.605,15.2Zm3.776-.252a.378.378,0,1,0,.378.378A.378.378,0,0,0,18.381,14.953Zm-9.062-.5a.378.378,0,1,0,.378.378A.378.378,0,0,0,9.319,14.449Zm9.062-1.4a.378.378,0,1,0,.378.377A.378.378,0,0,0,18.381,13.05Zm-4.756.022a.156.156,0,0,1,.049.008,1.479,1.479,0,0,1,.42.347l.006.006a1.03,1.03,0,0,0,.124.118.559.559,0,0,0,.283.07.968.968,0,0,0,.344-.07l0,0c-.139-.16-1.37-1.564-1.626-1.564a.049.049,0,0,0-.022,0l-.54.321-1.037.526.307.351.876-.292.307.409.032,0a.429.429,0,0,0,.258-.116l.015-.012A.372.372,0,0,1,13.626,13.072Zm2.218-1.95a.608.608,0,0,0-.006.354,1.218,1.218,0,0,0,.186.287.883.883,0,0,1,.159.252l-.013.017a1.2,1.2,0,0,0-.14.312.734.734,0,0,1-.153.3.808.808,0,0,1-.322.166.581.581,0,0,0-.1.038,1.166,1.166,0,0,0-.35.306,1.539,1.539,0,0,0,.564.124.776.776,0,0,0,.327-.065,1.137,1.137,0,0,0,.588-.6.8.8,0,0,0,.152-.351,1.04,1.04,0,0,0-.295-.94A1.486,1.486,0,0,0,15.843,11.122Zm7.606.721a.252.252,0,1,0,.252.252A.252.252,0,0,0,23.449,11.843Zm4.2-1.506-.075.526V11.3a1.455,1.455,0,0,1-.246.353l.759-.5.336-.7.132-.935-.35-.686.073.57-.263-.088.073.935-.277-.292v.686l-.161-.307ZM14.6,10.8a.252.252,0,1,0,.252.252A.252.252,0,0,0,14.6,10.8Zm-2.658-.252V11.3h.5v-.755Zm6.714-.1a.365.365,0,0,1,.118.018.924.924,0,0,1,.312.212h0a.636.636,0,0,0,.086.072,1.188,1.188,0,0,0,.436.169,1.54,1.54,0,0,0-.459-.836,1.211,1.211,0,0,0-.693-.251.586.586,0,0,0-.252.05,1.193,1.193,0,0,0-.388.435.673.673,0,0,0,.316.181.63.63,0,0,0,.078,0,1.273,1.273,0,0,0,.233-.027l.01,0A1.138,1.138,0,0,1,18.652,10.447Zm3.593-.678h-.007a1.413,1.413,0,0,0-.5.089,2.425,2.425,0,0,0,1.044.41l.092,0a.976.976,0,0,0,.854-.322.886.886,0,0,0-.022-.527,1.268,1.268,0,0,0-.187-.014.57.57,0,0,0-.219.035.858.858,0,0,0-.246.178h0a.559.559,0,0,1-.26.167.75.75,0,0,1-.163.016,1.856,1.856,0,0,1-.226-.017l-.035,0h0A1.133,1.133,0,0,0,22.245,9.769Zm1.15-2.675a.6.6,0,0,0-.005.354,1.205,1.205,0,0,0,.185.287.734.734,0,0,1,.17.292.81.81,0,0,1-.036.36.562.562,0,0,0-.023.106,1.164,1.164,0,0,0,.066.461,1.28,1.28,0,0,0,.534-.715,1.039,1.039,0,0,0-.295-.94A1.483,1.483,0,0,0,23.395,7.094ZM15.864,7.4a.378.378,0,1,0,.378.378A.378.378,0,0,0,15.864,7.4Zm12.871-.252a.252.252,0,1,0,.252.252A.252.252,0,0,0,28.735,7.149ZM29.965,6.1h0l-.053.5.751.079.053-.5L29.965,6.1ZM16.484,5.89a.252.252,0,1,0,.252.252A.252.252,0,0,0,16.484,5.89Zm1.5-1.762a.378.378,0,1,0,.378.378A.378.378,0,0,0,17.98,4.128Zm-2.88,0a.252.252,0,1,0,.252.252A.252.252,0,0,0,15.1,4.128Z" transform="translate(0 12.36)" fill="#ff8282"/>
  </g>
  <text id="Slowed_Revives" data-name="Slowed Revives" transform="translate(35 57.297)" fill="#fff" font-size="8" font-family="SegoeUI-Bold, Segoe UI" font-weight="700"><tspan x="-28.771" y="0">Slowed Revives</tspan></text>
  <rect id="Rectangle_1496" data-name="Rectangle 1496" width="70" height="70" fill="none"/>
</svg>
