<svg xmlns="http://www.w3.org/2000/svg" width="38" height="39.024" viewBox="0 0 38 39.024">
  <g id="Component_216_1" data-name="Component 216 – 1" transform="translate(1)">
    <g id="immunity" transform="translate(3.004 -0.027)" opacity="0.75">
      <path id="Path_1285" data-name="Path 1285" d="M166.372,122l-.125.043c-.183.133-.312.334-.551.383-1.125.275-1.17.255-2-.879-.574-.926-.434-1.386.656-2.168a.525.525,0,0,1,.607.314c0,.326-.267.534-.354.825-.164.439.133.376.379.334.934-.16,1.868-.292,2.8-.446.237-.039.6-.237.7.081s-.315.367-.522.494A5.834,5.834,0,0,0,166.372,122Z" transform="translate(-142.085 -105.924)" fill="#ff8282"/>
      <path id="Path_1286" data-name="Path 1286" d="M166.065,135.17a.256.256,0,0,1,.048.044c.43.688.966,1.123,1.833.771.021.364-.33.283-.5.411-.279.208-.1.291.079.388a2.923,2.923,0,0,0,.934.267,12.038,12.038,0,0,0,2,.534h0c.332.278.285.439-.149.463-1.014.056-1.973.438-2.989.49a1.429,1.429,0,0,0-.423.181.331.331,0,0,1-.394-.147.818.818,0,0,1,.367-1.035c.217-.076.367.067.542.156.231.117.316,0,.283-.234a1.176,1.176,0,0,0-.989-.408c-.267-.019-.546-.023-.544-.4.37-.165.506-.35.071-.618a.686.686,0,0,1-.295-.41.56.56,0,0,1,.007-.289A.342.342,0,0,1,166.065,135.17Z" transform="translate(-144.302 -119.617)" fill="#ff8282"/>
      <path id="Path_1287" data-name="Path 1287" d="M61.148,147.928a4.061,4.061,0,0,0-4.017.463,1.361,1.361,0,0,0-.726,1.046c-.011.188-.06.383-.253.42-.252.049-.251-.184-.285-.351-.049-.234-.267-.414-.209-.683.015-.072.028-.211-.1-.205-1.022.049-.869-.8-1.067-1.378a3.255,3.255,0,0,1,.012-1.457h0a.205.205,0,0,1,.267-.047,11.26,11.26,0,0,0,.292,2.177c.077-.189.179-.416.484-.358.257.048.248.273.28.467a5.556,5.556,0,0,0,.276.91,2.679,2.679,0,0,1,1.45-1.227c.552-.216.416-.854.783-1.173a.42.42,0,0,1,.28-.053,4,4,0,0,1,.8.3.22.22,0,0,1,.052.164c-.047.1-.159.133-.213.214a7.89,7.89,0,0,1,1.025.084C60.63,147.4,61.164,147.308,61.148,147.928Z" transform="translate(-47.673 -128.747)" fill="#ff8282"/>
      <path id="Path_1288" data-name="Path 1288" d="M72.261,193.362c.59-.818.59-.818-.384-1.218-.112-.081-.31-.024-.352-.217,0-.152-.044-.318.165-.376.287.2.684.125.946.383l.125.1a4.569,4.569,0,0,1,1.225.252l.247.021c.512.067,1.029.092,1.544.123.448.027.494.119.336.518h0a4.721,4.721,0,0,1-2.4-.241c-.085,0-.191-.036-.253,0-.172.1.009.16.057.219.3.35.792.4,1.117.712-.153.38-.153.38-.667.133-.334,0-.49-.327-.77-.424-.3-.2-.4.213-.642.2A.354.354,0,0,1,72.261,193.362Z" transform="translate(-62.497 -168.475)" fill="#ff8282"/>
      <path id="Path_1289" data-name="Path 1289" d="M5.709,69.657a4.126,4.126,0,0,1-.786-2.972c.045-.759.216-1.448-.675-1.921-.515-.271-.408-.926-.356-1.456a4.416,4.416,0,0,1,.133-.575h0c.216-.267.223-.853.708-.7.407.133.171.614.213.942a.567.567,0,0,1-.079.378c-.18.18-.31-.092-.483-.055a1.332,1.332,0,0,0,.546,1.509,1.431,1.431,0,0,1,.43,1.572,4.359,4.359,0,0,0,.1,1.681c.288-.061.534-.423.8-.16a.957.957,0,0,1,.2,1.046c-.18.156-.267-.023-.392-.108a1.869,1.869,0,0,1-.115.738C5.891,69.653,5.818,69.709,5.709,69.657Z" transform="translate(-3.85 -56.215)" fill="#ff8282"/>
      <path id="Path_1290" data-name="Path 1290" d="M98.814,149.3c-.133-.48-.644-.335-.934-.546a.451.451,0,0,1,.288-.238.8.8,0,0,1,.193-.027c.957.231,1.817-.243,2.723-.38a1.7,1.7,0,0,1,.181-.06,1.756,1.756,0,0,0,.879-.524c.261-.231.55-.374.849-.04a.3.3,0,0,1,.023.181,1,1,0,0,1-.566.387c-.168.071-.3.155-.251.372-.133.18-.4.1-.534.274a2.449,2.449,0,0,0-1.127.606c-.223.219-.548.237-.763.555-.2.3-.354-.212-.567-.29Z" transform="translate(-85.339 -130.115)" fill="#ff8282"/>
      <path id="Path_1291" data-name="Path 1291" d="M17.81,118.18l.177-.18c.511.029.778.608,1.314.582.2.057.3.233.418.379.16.176.323.352.482.534a.912.912,0,0,0,1.425.095c.116-.1.215-.267.364-.084.108.133-.033.248-.133.323a2.3,2.3,0,0,0-.574.862,1.463,1.463,0,0,1-1.059-.247,2.349,2.349,0,0,1-.792-1.075A3.175,3.175,0,0,1,17.81,118.18Z" transform="translate(-15.951 -104.738)" fill="#ff8282"/>
      <path id="Path_1292" data-name="Path 1292" d="M34.115,157.961a2.431,2.431,0,0,0,.4,1.5c-.133.109-.193.3-.371.375-.133-.063-.29-.2-.4-.176-.471.112-.566-.156-.522-.5a.94.94,0,0,0-.43-.885.347.347,0,0,1,.06-.133c0-.235-.231-.387-.22-.623a2.75,2.75,0,0,1-.013-.3c.043-.452,0-.953.586-1.118a1.2,1.2,0,0,1-.121.643.828.828,0,0,0,.335,1.234c.208-.121.115-.414.29-.563C33.969,157.506,33.813,157.906,34.115,157.961Z" transform="translate(-28.785 -137.755)" fill="#ff8282"/>
      <path id="Path_1293" data-name="Path 1293" d="M119.545,170.637a3.007,3.007,0,0,0,1.372-1.614c.188-.547-.12-1.037-.083-1.558.025-.163,0-.344.183-.444a2.757,2.757,0,0,1-.432,3.45.841.841,0,0,1-.7.612C119.524,171.145,119.376,171,119.545,170.637Z" transform="translate(-104.053 -147.218)" fill="#ff8282"/>
      <path id="Path_1294" data-name="Path 1294" d="M24.086,157.237l-.148.028c-.8-.088-.971.116-.973,1.054,0,.242.282.68-.157.7-.306.015-.315-.454-.384-.75-.091-.384.192-.674.221-1.025a1.528,1.528,0,0,0,.969-1.534c-.011-.252.208-.514.323-.771.231.175.115.378.044.574-.093.256-.239.508-.049.782v.282C23.575,156.891,24.2,156.981,24.086,157.237Z" transform="translate(-19.934 -136.75)" fill="#ff8282"/>
      <path id="Path_1295" data-name="Path 1295" d="M143.983,188.133c.41-.244.824-.48,1.226-.736a3.219,3.219,0,0,0,1.309-1.524.163.163,0,0,1,.195-.013c.171.133.144.3.093.48a4.5,4.5,0,0,1-2.46,2.051C144.07,188.524,143.962,188.418,143.983,188.133Z" transform="translate(-125.289 -163.522)" fill="#ff8282"/>
      <path id="Path_1296" data-name="Path 1296" d="M172.167,126.84c.049-.3.284-.4.522-.534a8.139,8.139,0,0,0,1.574-.981c-1.257.207-2.436.4-3.618.592-.188.029-.419.115-.543-.105a.368.368,0,0,1,.213-.534.534.534,0,0,1,.156.235.368.368,0,0,0,.371.083c1.03-.233,2.092-.284,3.111-.57.34-.095.748-.151.854.227.133.467-.37.424-.651.534h0A12.446,12.446,0,0,0,172.167,126.84Z" transform="translate(-147.88 -110.767)" fill="#ff8282"/>
      <path id="Path_1297" data-name="Path 1297" d="M107.76,161.756c.267.1.534.454.755-.088.06-.148.32-.215.488-.318.075.191.245.155.4.164.229.107.65-.115.651.379-.5-.213-.975.275-1.585-.075a3.508,3.508,0,0,1,.5,1.528c-.007.217.012.5-.3.482-.28-.017-.237-.289-.213-.474C108.536,162.679,108.005,162.281,107.76,161.756Z" transform="translate(-93.901 -142.305)" fill="#ff8282"/>
      <path id="Path_1298" data-name="Path 1298" d="M90.587,171.589c.35-.232.686-.5.631-.962a.833.833,0,0,0-.85-.768c-.168-.011-.322-.117-.288-.292.04-.219.267-.217.431-.2a1.122,1.122,0,0,1,.977.7,1.339,1.339,0,0,1-.133,1.433,6.477,6.477,0,0,1-.587.524c-.2.083-.344.044-.375-.2A.3.3,0,0,1,90.587,171.589Z" transform="translate(-78.576 -149.244)" fill="#ff8282"/>
      <path id="Path_1299" data-name="Path 1299" d="M150.993,163.33a1.081,1.081,0,0,1-.133,0,2.373,2.373,0,0,0-.169-2.484,1.893,1.893,0,0,0-1.027-.667c-.3-.081-.4.063-.383.343-.38.025-.267-.239-.256-.44a.355.355,0,0,1,.133-.164,1.117,1.117,0,0,1,.909.011,1.022,1.022,0,0,1,.562.338,1.761,1.761,0,0,0,1.047.636.109.109,0,0,1-.02.16c-.251.12-.476.209-.209.566a1.566,1.566,0,0,1,.067,1.4C151.216,162.917,151.234,163.347,150.993,163.33Z" transform="translate(-129.639 -140.983)" fill="#ff8282"/>
      <path id="Path_1300" data-name="Path 1300" d="M89.91,207.353c.216-.064.508.252.667-.133a17.5,17.5,0,0,1,3.135.358,2.707,2.707,0,0,1-2.312.155.43.43,0,0,1,.2-.119.4.4,0,0,0-.2.117A2.368,2.368,0,0,1,89.91,207.353Z" transform="translate(-78.432 -182.055)" fill="#ff8282"/>
      <path id="Path_1301" data-name="Path 1301" d="M123.366,186.913a5.271,5.271,0,0,0,.945-1.067c.091-.1.22-.267.388-.16s.044.245-.017.391c-.372.9-1.2,1.242-1.976,1.653-.523.061-.371-.216-.2-.444C122.706,187.009,123.069,187.032,123.366,186.913Z" transform="translate(-106.54 -163.364)" fill="#ff8282"/>
      <path id="Path_1302" data-name="Path 1302" d="M129.22,199.543a.378.378,0,0,0,.367.267c-.687.432-1.489.259-2.228.414-.133.08-.318.133-.391-.025-.1-.2.133-.267.252-.38l.391-.133a.384.384,0,0,0,.34.093c-.113-.013-.244.008-.339-.095A3.662,3.662,0,0,1,128.68,199a.267.267,0,0,0,.183.319C128.741,199.748,129.151,199.38,129.22,199.543Z" transform="translate(-110.526 -174.932)" fill="#ff8282"/>
      <path id="Path_1303" data-name="Path 1303" d="M76.674,184.219l-.123.133c-.239.44-.675.286-1,.338.315.033.7-.1,1,.185a1.221,1.221,0,0,1-1.35.133c-.388-.187-.786-.355-1.178-.534.081-.169.024-.376.147-.534.316-.06.524.195.79.284A3.219,3.219,0,0,0,76.674,184.219Z" transform="translate(-64.662 -161.874)" fill="#ff8282"/>
      <path id="Path_1304" data-name="Path 1304" d="M173,154.26c.324-.374.774-.193,1.166-.275a11.8,11.8,0,0,1,2.2-.371c.334,0,.36-.171.228-.424a3.006,3.006,0,0,1,.455.052c.119.033.287.067.288.227,0,.208-.185.236-.335.239-1.227.019-2.389.44-3.6.579A.409.409,0,0,1,173,154.26Z" transform="translate(-150.437 -135.233)" fill="#ff8282"/>
      <path id="Path_1305" data-name="Path 1305" d="M139.859,188.045c-.224-.012-.251-.133-.183-.319.4-.466.922-.835,1.067-1.482a.267.267,0,0,1,.412-.2c.229.117.093.3.017.456A4.4,4.4,0,0,1,139.859,188.045Z" transform="translate(-121.53 -163.667)" fill="#ff8282"/>
      <path id="Path_1306" data-name="Path 1306" d="M54.339,128.858h-.267c.041-.089.081-.18.123-.267.534-.444.567-.7.133-1.077-.088-.183-.107-.435-.408-.4.044-.507.667-.516.811-.934.623.176.459.643.348,1.042a1.338,1.338,0,0,0-.119.75.989.989,0,0,1-.052.408C54.8,128.64,54.7,128.91,54.339,128.858Z" transform="translate(-47.244 -111.827)" fill="#ff8282"/>
      <path id="Path_1307" data-name="Path 1307" d="M54.931,174.163a5.179,5.179,0,0,1-1.131-1.734c.037-.147.007-.324.116-.439.451.506.72,1.211,1.149,1.742l.111.256C55.178,174.247,55.059,174.218,54.931,174.163Z" transform="translate(-47.14 -151.525)" fill="#ff8282"/>
      <path id="Path_1308" data-name="Path 1308" d="M32.44,150.422c-.322-.06-.208-.267-.156-.455a1.882,1.882,0,0,0,.161-.9c.282-.371.368-.973,1.1-.9-.247.382-.468.72-.69,1.059A1.739,1.739,0,0,0,32.44,150.422Z" transform="translate(-28.44 -130.876)" fill="#ff8282"/>
      <path id="Path_1309" data-name="Path 1309" d="M41.178,158.784c-.1.1-.063.352-.241.338s-.143-.225-.151-.367c-.011-.169-.011-.34-.016-.511a2.584,2.584,0,0,1,.287-1.194c.127.048.2.124.143.267C41.554,157.813,41.009,158.295,41.178,158.784Z" transform="translate(-35.848 -138.578)" fill="#ff8282"/>
      <path id="Path_1310" data-name="Path 1310" d="M120.858,193.178a3.006,3.006,0,0,1-.711.444c-.291.092-.347.3.051.378-.036.184-.257.31-.3.192-.143-.371-.635-.646-.367-1.145,0,.282.088.444.387.273.227-.133.435-.292.652-.44A.31.31,0,0,0,120.858,193.178Z" transform="translate(-104.032 -169.628)" fill="#ff8282"/>
      <path id="Path_1311" data-name="Path 1311" d="M125.91,153.031c.143-.195.416-.072.571-.236a.8.8,0,0,1,1.194-.207c.422.275,1,.38,1.123,1a.21.21,0,0,1-.109.16,2.29,2.29,0,0,0-2.5-.69.195.195,0,0,1-.281-.023Z" transform="translate(-109.629 -134.555)" fill="#ff8282"/>
      <path id="Path_1312" data-name="Path 1312" d="M61.73,187.171a.4.4,0,0,0,.318-.171l.376.157c.152.188.471.108.582.36-.093.125-.279.191-.256.394-.147.181-.239.476-.57.28-.1-.179-.416-.267-.205-.582C62.133,187.371,61.863,187.291,61.73,187.171Z" transform="translate(-54.012 -164.533)" fill="#ff8282"/>
      <path id="Path_1313" data-name="Path 1313" d="M81.986,187.662a2.584,2.584,0,0,1-1.7-.255c.56-.288,1.186.028,1.7-.267.007.2.133.267.306.29Z" transform="translate(-70.096 -164.654)" fill="#ff8282"/>
      <path id="Path_1314" data-name="Path 1314" d="M118.016,157.08l.282.023c-.155.347-.6.175-.812.448.205.181.6-.079.691.315a1.587,1.587,0,0,1-1.067.041c-.3.133-.362.017-.267-.259A3.8,3.8,0,0,1,118.016,157.08Z" transform="translate(-101.735 -138.604)" fill="#ff8282"/>
      <path id="Path_1315" data-name="Path 1315" d="M68.576,180.793c.1.219.516.523-.147.534-.267-.015-.4-.2-.544-.39-.105-.161-.431-.235-.275-.5.133-.233.355-.175.542-.016A.859.859,0,0,0,68.576,180.793Z" transform="translate(-59.071 -158.713)" fill="#ff8282"/>
      <path id="Path_1316" data-name="Path 1316" d="M119.08,163.011l1.067-.041a1.216,1.216,0,0,1,.523.538c-.012.168,0,.346-.183.444l-.631-.659C119.687,162.965,119.283,163.265,119.08,163.011Z" transform="translate(-103.71 -143.708)" fill="#ff8282"/>
      <path id="Path_1317" data-name="Path 1317" d="M68.433,207.6c-.306-.021-.83.22-.847-.188-.023-.5.548-.236.855-.322.145.228.408-.081.559.123a.092.092,0,0,1-.048.133Z" transform="translate(-59.086 -181.942)" fill="#ff8282"/>
      <path id="Path_1318" data-name="Path 1318" d="M121.24,205.09c-.105.187-.358.424.133.4-.24.267-.658.017-.9.323a.239.239,0,0,1-.392-.059.253.253,0,0,1,.233-.378C120.674,205.408,120.912,205.125,121.24,205.09Z" transform="translate(-104.547 -180.209)" fill="#ff8282"/>
      <path id="Path_1319" data-name="Path 1319" d="M93.73,197.84c.165-.374-.084-.407-.347-.411a5.376,5.376,0,0,1-1.533-.229c.544,0,1.087-.013,1.63-.008a.5.5,0,0,1,.49.366C94.034,197.752,93.918,197.832,93.73,197.84Z" transform="translate(-80.113 -173.363)" fill="#ff8282"/>
      <path id="Path_1320" data-name="Path 1320" d="M147.167,160.913c.036.18-.064.4.156.523.116.236.293.554-.065.651-.339.091-.292-.287-.348-.51-.043-.169-.112-.331-.169-.495l.072-.076C146.908,160.909,147.018,160.826,147.167,160.913Z" transform="translate(-127.68 -141.894)" fill="#ff8282"/>
      <path id="Path_1321" data-name="Path 1321" d="M53.127,172.063a4.762,4.762,0,0,1-1.449-1.77.133.133,0,0,1-.036-.208l.031-.024A23.253,23.253,0,0,1,53.127,172.063Z" transform="translate(-45.239 -149.853)" fill="#ff8282"/>
      <path id="Path_1322" data-name="Path 1322" d="M43.073,152.849l-.143-.267a2.889,2.889,0,0,1,.155-.354c.1-.16.176-.412.422-.316s.08.342.087.522C43.381,152.523,43.4,152.906,43.073,152.849Z" transform="translate(-37.72 -134.108)" fill="#ff8282"/>
      <path id="Path_1323" data-name="Path 1323" d="M88,200.24a14.521,14.521,0,0,0,2.4.241A3,3,0,0,1,88,200.24Z" transform="translate(-76.777 -176.006)" fill="#ff8282"/>
      <path id="Path_1324" data-name="Path 1324" d="M67.488,188.556c-.145-.187-.464-.123-.558-.386a4.347,4.347,0,0,1,1.728.839,2.9,2.9,0,0,1-1.051-.328A.189.189,0,0,1,67.488,188.556Z" transform="translate(-58.518 -165.546)" fill="#ff8282"/>
      <path id="Path_1325" data-name="Path 1325" d="M186.941,149.724a3.405,3.405,0,0,1-2-.534A6.765,6.765,0,0,1,186.941,149.724Z" transform="translate(-160.784 -131.767)" fill="#ff8282"/>
      <path id="Path_1326" data-name="Path 1326" d="M163.94,182.258a3.876,3.876,0,0,1,.149-.368c.193-.368.3-.231.37.071q-.18.384-.363.77Z" transform="translate(-142.585 -159.912)" fill="#ff8282"/>
      <path id="Path_1327" data-name="Path 1327" d="M67.174,179.56c-.147-.031-.319-.123-.432.017-.184.227.231.288.165.5-.256-.041-.464-.157-.467-.44a.379.379,0,0,1,.29-.318C66.958,179.235,67.1,179.346,67.174,179.56Z" transform="translate(-58.093 -157.851)" fill="#ff8282"/>
      <path id="Path_1328" data-name="Path 1328" d="M30,128.24l.792,1.075C30.267,129.153,30.112,128.71,30,128.24Z" transform="translate(-26.515 -113.612)" fill="#ff8282"/>
      <path id="Path_1329" data-name="Path 1329" d="M77.83,204.605a.653.653,0,0,1,.009-.133.213.213,0,0,1,.172-.221c.215-.079.322-.554.667-.18C78.3,204.109,78.261,204.668,77.83,204.605Z" transform="translate(-67.964 -179.203)" fill="#ff8282"/>
      <path id="Path_1330" data-name="Path 1330" d="M61.14,206.379c.021-.179.1-.311.3-.239.229.084.249.287.212.5h-.239Z" transform="translate(-53.501 -181.101)" fill="#ff8282"/>
      <path id="Path_1331" data-name="Path 1331" d="M82.045,195.312a4.324,4.324,0,0,1-1.225-.252C81.244,195.049,81.7,194.94,82.045,195.312Z" transform="translate(-70.555 -171.497)" fill="#ff8282"/>
      <path id="Path_1332" data-name="Path 1332" d="M53.994,146.28l-.012,1.457A1.713,1.713,0,0,1,53.994,146.28Z" transform="translate(-47.162 -129.245)" fill="#ff8282"/>
      <path id="Path_1333" data-name="Path 1333" d="M155.737,33.873a.442.442,0,0,0-.085.411c-.352,1.512-.736,3.014-1.109,4.519a11.313,11.313,0,0,0-.544,1.88,3.958,3.958,0,0,1-.188.763c-.153.311-.275.48-.634.221-.254-.183-.556-.225-.648.2-.037.169.157.42-.145.49-.267.061-.4-.14-.512-.336-.189-.435-.32-.858.251-1.123.081-.055.227,0,.253-.133.007-.036-.105-.064-.165-.095a.418.418,0,0,1-.221-.572,8.406,8.406,0,0,1,1.187-2.381c.259-.371.236-.847.567-1.158a25.292,25.292,0,0,0,1.714-3.349h0c.133-.077.1-.4.354-.286.215.092.156.3.079.451S155.856,33.73,155.737,33.873Z" transform="translate(-131.986 -30.989)" fill="#ff8282"/>
      <path id="Path_1334" data-name="Path 1334" d="M153.343,77.682c.115.088.133.3.354.267.211-.267-.6-.648.023-.786.267-.06.87-.726,1.011.3.576-.716.471-1.546.708-2.268.079-.239-.024-.543.286-.684.208.387-.1.708-.133,1.067-.109.518-.224,1.034-.323,1.554-.033.176-.244.4-.011.534.151.087.319-.1.458-.2,1.266-.919,2.535-1.844,3.8-2.762.284-.207.584-.391.877-.584a.1.1,0,0,1,.161,0c.028.411-.292.583-.564.752-1.263.78-2.329,1.837-3.644,2.556a1.441,1.441,0,0,0-.638,2.124c.047.023.065.1.133.072a.327.327,0,0,1-.216-.221,1.333,1.333,0,0,1,.091-1.283c.277-.017.277.215.332.386.088.277.249.392.534.279.125-.2.063-.291-.16-.3-.295-.009-.442-.228-.6-.424.458-.9,1.067-1.078,1.89-.55a3.057,3.057,0,0,1-.35,1.528,2.176,2.176,0,0,0-.285.58,1.092,1.092,0,0,1-.607.739h-.044l-.037.024c-.068.085-.113.209-.267.149a.734.734,0,0,0-.534-.282c-.315-.256-.323.044-.439.219-.249.383-.423.925-1.078.667-.273-.348-.881-.658-.115-1.125.2-.124.011-.275-.048-.4a11.179,11.179,0,0,1-.68-1.773A.267.267,0,0,1,153.343,77.682Z" transform="translate(-133.296 -66.675)" fill="#ff8282"/>
      <path id="Path_1335" data-name="Path 1335" d="M20.7,35.045a1.877,1.877,0,0,1-.29-2.087c.116-.256.267-.459.574-.468-.267,1.075.534,1.734,1,2.519a.64.64,0,0,0,.707.205c.379-.169-.083-.5.041-.75a.184.184,0,0,1,.173-.024c.4.57.36.85-.191,1.2a.875.875,0,0,0-.244.288c-.175.043-.323.133-.133.3s.276.562.678.486a1.734,1.734,0,0,1,1.868.969,1.342,1.342,0,0,1-.4,1.593.3.3,0,0,1-.105-.157.573.573,0,0,1,0-.191c.3-.934.267-1.146-.276-1.564-.267-.2-.51-.29-.69.1-.168.36-.383.239-.551.024A4.517,4.517,0,0,1,21.6,35.28a1.564,1.564,0,0,0-.422-.812,1.885,1.885,0,0,1-.479-.9c-.1.482.183.89.125,1.334A.267.267,0,0,1,20.7,35.045Z" transform="translate(-18.039 -30.636)" fill="#ff8282"/>
      <path id="Path_1336" data-name="Path 1336" d="M139.153,36.739c-.14-.225-.339-.5,0-.667s.4.193.515.43a3.536,3.536,0,0,1,.133,2.631c-.227.455-.875.378-1.083.857a2.456,2.456,0,0,1-1.034-.013.2.2,0,0,1,.095-.318c.574-.163.7-.775,1.107-1.1.61.016.615.013.376-.63-.076-.2.035-.332.133-.479.111-.172.133-.328-.105-.415C139.171,36.968,139.225,36.828,139.153,36.739Z" transform="translate(-119.791 -33.705)" fill="#ff8282"/>
      <path id="Path_1337" data-name="Path 1337" d="M124,87.018a4.977,4.977,0,0,1,.359-.471,1.344,1.344,0,0,0,.362-1.78.642.642,0,0,1,.524-1.019c.436-.077.784-.492,1.282-.472a1.6,1.6,0,0,1,.414.917.322.322,0,0,1,.029.267c-.291.113-.331-.145-.4-.3-.181-.415-.455-.419-.8-.22a1.9,1.9,0,0,0-.336.2c-.484.383-.442.775.12,1.013.363.153.746.282.692.792l-.534-.229c-.1.173.157.243.117.392-.209.155-.458-.117-.667.064a1.344,1.344,0,0,0-.3.294,2.187,2.187,0,0,1-.534.584.425.425,0,0,1-.176.045A.3.3,0,0,1,124,87.018Z" transform="translate(-107.974 -74.646)" fill="#ff8282"/>
      <path id="Path_1338" data-name="Path 1338" d="M44.223,84.419c.391.486.43,1.187.975,1.578a.165.165,0,0,1-.08.016c-.554.141-.632-.307-.826-.644-.051.3.215.418.346.607.257.368.3.652-.267.715a.814.814,0,0,1-.446-.159,4.684,4.684,0,0,1-.476-.459,1.854,1.854,0,0,1-.227-.311A1.054,1.054,0,0,1,44.223,84.419Z" transform="translate(-37.926 -75.637)" fill="#ff8282"/>
      <path id="Path_1339" data-name="Path 1339" d="M58.776,36.148a2.311,2.311,0,0,1-.043-1.656c.171-.427.009-.958.287-1.386.116-.181.217-.455.468-.376.2.063.176.326.159.534a7.159,7.159,0,0,0,.195,2.077.247.247,0,0,1-.195,0,.734.734,0,0,1-.376-.654c-.017-.124,0-.252-.027-.383-.076.085-.039.2-.08.29a2.654,2.654,0,0,0-.189,1.067A.557.557,0,0,1,58.776,36.148Z" transform="translate(-51.297 -30.832)" fill="#ff8282"/>
      <path id="Path_1340" data-name="Path 1340" d="M170.888,48.886c-.088-.372.193-.7.133-1.067.316-1.321.643-2.638.934-3.962.052-.236.223-.374.3-.576a1.951,1.951,0,0,1-.165,1.317c-.416,1.1-.526,2.268-.846,3.381A1.905,1.905,0,0,1,170.888,48.886Z" transform="translate(-148.592 -39.987)" fill="#ff8282"/>
      <path id="Path_1341" data-name="Path 1341" d="M119.966,68.883a2.291,2.291,0,0,1-1.562.359,1.34,1.34,0,0,1-.4-2.336.791.791,0,0,1,.842.079.564.564,0,0,0,.715.028.115.115,0,0,1,.168.009.267.267,0,0,1-.007.188.888.888,0,0,1-.962.236c-.283-.061-.58-.156-.758.173a.767.767,0,0,0,.072.866.7.7,0,0,0,.8.311,1.714,1.714,0,0,1,1.091-.08.115.115,0,0,1,.033.111A.358.358,0,0,1,119.966,68.883Z" transform="translate(-102.339 -60.388)" fill="#ff8282"/>
      <path id="Path_1342" data-name="Path 1342" d="M135.8,62.3l-.028-.156a.45.45,0,0,1,.216-.394c.415-.292.659-.758,1.067-1.057.253-.187.133-.43.092-.667.063-.646.659-.586,1.053-.8.091.283-.208.492-.145.77a11.065,11.065,0,0,1-1.713,1.955C136.188,62.116,136.048,62.3,135.8,62.3Z" transform="translate(-118.178 -53.809)" fill="#ff8282"/>
      <path id="Path_1343" data-name="Path 1343" d="M133.081,44.914l-.151-.027a2.937,2.937,0,0,1,.782-.8,2.069,2.069,0,0,0,.9-1.514,2.845,2.845,0,0,1,.459-1.282c.133.047.116.168.143.267a4.359,4.359,0,0,1-.388,1.592c.015.1.133.249.019.3-.515.233-.692.875-1.27,1.022C133.538,44.771,133.394,44.94,133.081,44.914Z" transform="translate(-115.713 -38.262)" fill="#ff8282"/>
      <path id="Path_1344" data-name="Path 1344" d="M35.572,47.068c0-.165-.624-.456.175-.472.658-.013.334-.59.207-.965-.1-.22-.056-.351.2-.253.16.059.239.239.358.362.239.284.148.606.1.921C36.373,47.06,36.094,47.376,35.572,47.068Z" transform="translate(-31.143 -41.776)" fill="#ff8282"/>
      <path id="Path_1345" data-name="Path 1345" d="M66.61,52.33a.787.787,0,0,0,.125,0,5.61,5.61,0,0,0,1.642,2.025c.267.184.486.283.774.109a.2.2,0,0,1,.275-.019c-.205.667-.727.392-1.157.4a2.655,2.655,0,0,0-.7-.091c-.213-.835-.9-1.468-1.017-2.343Z" transform="translate(-58.189 -47.83)" fill="#ff8282"/>
      <path id="Path_1346" data-name="Path 1346" d="M40.634,80.831c-.472.125-.607.624-.971.881-.173.123.167.257.169.43-.153.228-.347.452-.636.288-.245-.133-.167-.419-.119-.656a.759.759,0,0,1,.267-.508c.311-.095.542-.253.487-.632.26-.543.588-.368.926-.089l.02.147Z" transform="translate(-34.337 -72.05)" fill="#ff8282"/>
      <path id="Path_1347" data-name="Path 1347" d="M168.664,35.23a7.571,7.571,0,0,1-1.714,3.349A23.421,23.421,0,0,1,168.664,35.23Z" transform="translate(-145.194 -33.011)" fill="#ff8282"/>
      <path id="Path_1348" data-name="Path 1348" d="M150.257,88.271a1.465,1.465,0,0,1-.108-.8c.267-.112.211-.492.487-.6.037.251.133.442.426.458.1.181-.017.292-.133.4-.56.236-.4.638-.244,1.041l-.045.04C150.235,88.818,150.4,88.438,150.257,88.271Z" transform="translate(-130.628 -77.761)" fill="#ff8282"/>
      <path id="Path_1349" data-name="Path 1349" d="M31.964,35.875a3.117,3.117,0,0,1-.767-1.057.241.241,0,0,1,.012-.308.172.172,0,0,1,.283.032c.241.4.707.612.846,1.085C32.243,35.754,32.088,35.791,31.964,35.875Z" transform="translate(-27.509 -32.336)" fill="#ff8282"/>
      <path id="Path_1350" data-name="Path 1350" d="M207.053,66.137l-.133-.04c.3-.47.89-.6,1.219-1.041.148-.121.308-.327.5-.159.217.193-.02.346-.133.483a2.942,2.942,0,0,0-.372.452l-.133.159c-.1.1-.147.267-.32.284a.178.178,0,0,1-.133-.083C207.4,65.909,207.2,66.3,207.053,66.137Z" transform="translate(-179.831 -58.665)" fill="#ff8282"/>
      <path id="Path_1351" data-name="Path 1351" d="M61.137,93.14l.148.031a1.991,1.991,0,0,1-.31,1.841,2.571,2.571,0,0,0-.372.39c-.055.133-.189.235-.3.169s-.068-.244.013-.343a2.544,2.544,0,0,0,.574-1.4Z" transform="translate(-52.716 -83.195)" fill="#ff8282"/>
      <path id="Path_1352" data-name="Path 1352" d="M59.94,54.775l.04-.55a.143.143,0,0,1,.169.033A15.84,15.84,0,0,0,61.5,56.9a.243.243,0,0,1-.1.153l-.767-.714Q60.283,55.556,59.94,54.775Z" transform="translate(-52.461 -49.46)" fill="#ff8282"/>
      <path id="Path_1353" data-name="Path 1353" d="M86.267,66.54H86c.588-.647.914,0,1.319.267.043.231.084.462.127.692.177.167.133.336.007.506-.08.133-.081.319-.267.37a.439.439,0,0,1-.153-.255A1.455,1.455,0,0,0,86.267,66.54Z" transform="translate(-75.044 -59.903)" fill="#ff8282"/>
      <path id="Path_1354" data-name="Path 1354" d="M180.072,28.13c.021-.167.036-.334.064-.5.021-.119.121-.267-.037-.324-.076-.025-.2.105-.308.164a2.554,2.554,0,0,1,.551-1.2c.43.316.045.656.029.986A1.2,1.2,0,0,1,180.072,28.13Z" transform="translate(-156.321 -25.246)" fill="#ff8282"/>
      <path id="Path_1355" data-name="Path 1355" d="M216,63.715c0-.366.46-.456.48-.818-.171-.172-.308.072-.467.041.093-.328.447-.35.65-.548.295.109.267.3.133.524C216.516,63.168,216.336,63.523,216,63.715Z" transform="translate(-187.7 -56.547)" fill="#ff8282"/>
      <path id="Path_1356" data-name="Path 1356" d="M183.89,23.458c-.117-.326.172-.667-.029-.986-.043-.164.073-.267.149-.384.248-.274.278-.274.4,0A3.515,3.515,0,0,1,183.89,23.458Z" transform="translate(-159.84 -21.444)" fill="#ff8282"/>
      <path id="Path_1357" data-name="Path 1357" d="M37.21,43.084c-.051-.347.113-.37.374-.248.2.205.511.328.543.667-.217.125-.267-.626-.56-.108a.173.173,0,0,0-.12-.024Z" transform="translate(-32.756 -39.544)" fill="#ff8282"/>
      <path id="Path_1358" data-name="Path 1358" d="M37.08,55.608a.981.981,0,0,0,1.043-.408C37.858,55.883,37.534,56.01,37.08,55.608Z" transform="translate(-32.651 -50.317)" fill="#ff8282"/>
      <path id="Path_1359" data-name="Path 1359" d="M185.4,19.417c-.133-.213-.267-.057-.4,0a.636.636,0,0,1,.028-.191c.087-.188.173-.515.4-.41C185.686,18.932,185.555,19.216,185.4,19.417Z" transform="translate(-160.836 -18.77)" fill="#ff8282"/>
      <path id="Path_1360" data-name="Path 1360" d="M201.011,75.061c-.145.415-.554.636-.751,1.014-.031.047-.061.093-.091.133-.287.267-.288.79-.8.841a.316.316,0,0,1-.079-.171,3.418,3.418,0,0,1,1.64-1.888Z" transform="translate(-173.219 -67.466)" fill="#ff8282"/>
      <path id="Path_1361" data-name="Path 1361" d="M172.065,122.073l-.275.133c.012-.076.023-.153.033-.229l.391-.667.267-.149C172.485,121.539,172.11,121.732,172.065,122.073Z" transform="translate(-149.388 -107.477)" fill="#ff8282"/>
      <path id="Path_1362" data-name="Path 1362" d="M34.011,104.726l.133.5a1.493,1.493,0,0,1-.849.579c.089.1.225.049.319.113a.572.572,0,0,1,.133.113c.115.209.448.173.5.448-.427.255-.925.155-1.382.267-.314.081-.367-.312-.567-.458-.29-.352-.667-.659-.6-1.189.052-.3.116-.591.519-.315.534.468.635.464,1.3-.041a.571.571,0,0,1,.351-.133A.22.22,0,0,1,34.011,104.726Z" transform="translate(-27.983 -93.135)" fill="#ff8282"/>
      <path id="Path_1363" data-name="Path 1363" d="M60.384,107.56c-.081-.169-.073-.31.123-.39a.667.667,0,0,1,.51.418,3.288,3.288,0,0,1-.462,1.75c.368-.039.6,0,.578.547a2.073,2.073,0,0,1-.651,1.4.666.666,0,0,1-.013.179c-.072.165-.176.253-.356.133a.687.687,0,0,1-.012-.786.781.781,0,0,0-.113-1.1c.075-.592.558-1.017.659-1.6C60.693,107.841,60.834,107.569,60.384,107.56Z" transform="translate(-52.497 -95.353)" fill="#ff8282"/>
      <path id="Path_1364" data-name="Path 1364" d="M34.123,116.32a.768.768,0,0,0,.95.267,1.293,1.293,0,0,1,.9.043c.112.2.8-.112.44.5a.814.814,0,0,0-.811.376c-.623-.211-1.319.2-1.917-.231.024-.124.121-.2.2-.286C34.075,116.811,33.955,116.511,34.123,116.32Z" transform="translate(-29.704 -103.282)" fill="#ff8282"/>
      <path id="Path_1365" data-name="Path 1365" d="M47.958,90.525,47.8,90.45c-.077-.375.191-.462.447-.444s0-.168.105-.18c.247-.04.57-.045.2-.4-.256-.244-.534-.472-.5-.879.011-.133.051-.291.187-.319.177-.037.2.144.212.267a.963.963,0,0,0,.667.816.671.671,0,0,1-.526.934A5.551,5.551,0,0,0,47.958,90.525Z" transform="translate(-41.93 -78.934)" fill="#ff8282"/>
      <path id="Path_1366" data-name="Path 1366" d="M41.073,109.506l-.133-.007c-.212-.236-.562-.027-.779-.244.355-.219.9-.123,1.087-.635l.237.08c.164.017.392-.028.426.189.029.195-.2.164-.32.236a6.072,6.072,0,0,0-.518.38Z" transform="translate(-35.32 -96.61)" fill="#ff8282"/>
      <path id="Path_1367" data-name="Path 1367" d="M25.247,116.754l-.32.133c-.155,0-.18.12-.205.236l-.414-.267c-.274-.276-.83-.336-.708-.917.327-.133.687.319,1-.057a.188.188,0,0,1,.156.057c.091.144.057.33.159.47C24.989,116.565,25.18,116.6,25.247,116.754Z" transform="translate(-20.953 -102.903)" fill="#ff8282"/>
      <path id="Path_1368" data-name="Path 1368" d="M52.531,131.1l.48-.322c.165.283-.061.488-.072.72-.133.195-.3.37-.52.147C52.226,131.451,52.318,131.248,52.531,131.1Z" transform="translate(-45.852 -115.813)" fill="#ff8282"/>
      <path id="Path_1369" data-name="Path 1369" d="M47.7,120.87c-.195-.47.284-.452.478-.607s.3.037.334.231A.829.829,0,0,1,47.7,120.87Z" transform="translate(-41.817 -106.651)" fill="#ff8282"/>
      <path id="Path_1370" data-name="Path 1370" d="M52.261,190.865c.059.32-.04.476-.388.372-.055-.191-.192-.4-.149-.567.164-.642-.205-.977-.654-1.287,0-.314,0-.314.534-.124a2.845,2.845,0,0,0,.454.257c.3.107.427.245.159.51C51.905,190.329,51.995,190.6,52.261,190.865Z" transform="translate(-44.774 -166.378)" fill="#ff8282"/>
      <path id="Path_1371" data-name="Path 1371" d="M45.417,182.355c-.159.116-.43-.247-.534.124a3.818,3.818,0,0,1-.934-.925c-.036-.283.048-.447.371-.375C44.5,181.752,45.029,181.99,45.417,182.355Z" transform="translate(-38.597 -159.474)" fill="#ff8282"/>
      <path id="Path_1372" data-name="Path 1372" d="M29.146,188.029c-.318-.075-.694-.095-.811-.508a.147.147,0,0,1,.209-.164c.352.149.8.183,1.017.494C29.663,187.994,29.326,188,29.146,188.029Z" transform="translate(-25.069 -164.828)" fill="#ff8282"/>
      <path id="Path_1373" data-name="Path 1373" d="M160,118.517c.592.076.77-.371.9-.787.055-.184-.027-.4.259-.4s.315.176.307.392c-.324.307-.524.708-.838,1.037s.225.623.318.958a1.5,1.5,0,0,1-.017.153A1.327,1.327,0,0,1,160,118.517Z" transform="translate(-139.171 -104.158)" fill="#ff8282"/>
      <path id="Path_1374" data-name="Path 1374" d="M47.541,164.537l.036.208c-.025.172-.009.36-.192.467-.332-.326-.338-.786-.483-1.189-.047-.127-.077-.332.14-.362.168-.024.267.109.324.267C47.434,164.126,47.361,164.372,47.541,164.537Z" transform="translate(-41.133 -144.305)" fill="#ff8282"/>
      <path id="Path_1375" data-name="Path 1375" d="M74.692,205.229l-.172.221c-.157-.108-.47.414-.52-.133l.41-.267A.315.315,0,0,1,74.692,205.229Z" transform="translate(-64.645 -180.174)" fill="#ff8282"/>
      <path id="Path_1376" data-name="Path 1376" d="M160.617,144.921l-.915-.847a1.37,1.37,0,0,1-.643-1.273.315.315,0,0,1,.387-.267c.307.068.667.059.8.454.1.259.288.223.524.25.4.045.985-.112,1.067.572.019.346-.221.236-.392.209-.133-.021-.244-.2-.41-.075A1.165,1.165,0,0,0,160.617,144.921Z" transform="translate(-138.339 -125.992)" fill="#ff8282"/>
      <path id="Path_1377" data-name="Path 1377" d="M56.174,142.8a.823.823,0,0,0,.411-.49c.391-.171.484.24.724.367a4.425,4.425,0,0,0,.414.342.518.518,0,0,1,.156.327c-.065.476-.375.371-.711.311.335.275.688-.06,1,.051.267.053.534.111.6-.288a.548.548,0,0,1,.514-.45c.284.1.584.192.506.6a1.552,1.552,0,0,1-1.119,1.522,1.883,1.883,0,0,0-1.119,1.257c-.422-.387-.363-.918-.534-1.334-.036-.089.109-.253-.079-.318a.248.248,0,0,0-.185.029.221.221,0,0,0-.095.334c.084.143.276.324,0,.416-.191.065-.195-.191-.257-.316A3.058,3.058,0,0,1,56.174,142.8Z" transform="translate(-49.078 -125.773)" fill="#ff8282"/>
      <path id="Path_1378" data-name="Path 1378" d="M64.667,142.38a.667.667,0,0,1-.4-.267c-.133-.295-.2-.562.239-.643.267.526.691.088,1.034.156a.2.2,0,0,1,.113.133.5.5,0,0,1-.087.245c.073,0,.113-.077.185-.088.229-.036.471-.183.667.073.112.379.667.446.652.913l-.231-.028c-.068-.3-.215-.506-.555-.5C65.746,142.657,65.212,142.9,64.667,142.38Z" transform="translate(-56.124 -125.077)" fill="#ff8282"/>
      <path id="Path_1379" data-name="Path 1379" d="M88.785,155.745l-.267.124H87.48c-.2,0-.4.013-.4-.279A2.257,2.257,0,0,1,88.785,155.745Z" transform="translate(-75.98 -137.235)" fill="#ff8282"/>
      <path id="Path_1380" data-name="Path 1380" d="M88.759,155.187l-1.709-.153c.181-.235.444-.073.667-.133a1.4,1.4,0,0,1,1.057.145h0c.052.02.072.045.059.073s-.028.045-.044.045Z" transform="translate(-75.954 -136.677)" fill="#ff8282"/>
      <path id="Path_1381" data-name="Path 1381" d="M92.963,154.375,91.9,154.23a.415.415,0,0,0-.015-.121C92.26,154.151,92.705,153.911,92.963,154.375Z" transform="translate(-80.148 -136.008)" fill="#ff8282"/>
      <path id="Path_1382" data-name="Path 1382" d="M81.182,198.095c-.133-.229-.195-.454-.011-.659.024-.025.156-.011.169.019C81.449,197.7,81.3,197.892,81.182,198.095Z" transform="translate(-70.76 -173.565)" fill="#ff8282"/>
      <path id="Path_1383" data-name="Path 1383" d="M69.108,191.489c-.133-.013-.285,0-.383-.127-.095-.29.092-.3.3-.3l.119.125C69.166,191.29,69.262,191.405,69.108,191.489Z" transform="translate(-60.052 -168.05)" fill="#ff8282"/>
      <path id="Path_1384" data-name="Path 1384" d="M9.288,74.176c-.34.656-.7.426-1.067.027-.228.028-.205-.1-.151-.244a1.049,1.049,0,0,0-.1-.58c-.044-.159.053-.4-.175-.458-.26-.068-.327.152-.4.346-.037.1-.1.219-.236.172a.363.363,0,0,1-.259-.355,8.2,8.2,0,0,1-.075-1.646c.148-.678.165-1.365-.646-1.76-.367-.18-.527-1.516-.271-1.834.105-.133.227-.16.28.035s.063.4.308.463c.041.089.084.179.125.267a7.214,7.214,0,0,1,.812.942.58.58,0,0,0,.862.195.552.552,0,0,0,.133-.816,2.6,2.6,0,0,0-.5-.838h0c.013-.424.1-.448.592-.163a.935.935,0,0,1,.148.152,4.554,4.554,0,0,0,.7.859c.354.287.2.735.224,1.121a3.9,3.9,0,0,1-.113.714,3.408,3.408,0,0,1-.045.616c-.344.556-.025,1.151-.095,1.724a1.123,1.123,0,0,0,.155.748C9.665,74.079,9.5,74.176,9.288,74.176Z" transform="translate(-5.528 -61.181)" fill="#ff8282"/>
      <path id="Path_1385" data-name="Path 1385" d="M132.44,143.886c.232.3.244.747.622.954.149.475.562.756.849,1.13.147.191.267.346.1.57a.673.673,0,0,1-.959-.326,1.041,1.041,0,0,0-.607-.475c-.288-.3-.626-.184-.959-.113h0l-.355.093a2.022,2.022,0,0,0-2.28-.873c-.359-.069-.173-.248-.036-.327a7.631,7.631,0,0,1,.819-.362c.167-.153.364-.081.558-.091a1.264,1.264,0,0,0,1.013-.362C131.767,143.035,131.991,143.071,132.44,143.886Z" transform="translate(-111.995 -126.607)" fill="#ff8282"/>
      <path id="Path_1386" data-name="Path 1386" d="M138.878,133.387a4.687,4.687,0,0,0-.4-.426c-.171-.133-.412-.193-.508.041-.391.955-1.155.763-1.9.656v-.133c.327-.316.759-.121,1.126-.233.247-.125.249-.356.252-.587a.435.435,0,0,1,.065-.165c.258-.278.778-.335.731-.869.127-.276.484-.213.643-.44a.337.337,0,0,1,.119-.111l.812,1.01c-.2.147-.374-.084-.559-.032-.119-.1-.239-.2-.359-.294a.235.235,0,0,0-.383.267Q138.7,132.725,138.878,133.387Z" transform="translate(-118.434 -116.108)" fill="#ff8282"/>
      <path id="Path_1387" data-name="Path 1387" d="M126.147,140.528a2.241,2.241,0,0,1-1.325.123c-.334-.22-.566-.068-.786.2a1.116,1.116,0,0,1-.946.5l1.307-.982c.1-.073.036-.153.016-.232a.3.3,0,0,1,.288-.116c.586.1-.095-.212.081-.242.087-.133.267-.179.306-.355a.466.466,0,0,1,.259-.068c.343.051.78-.133.943.375l-.011.14C125.961,140.03,126.113,140.291,126.147,140.528Z" transform="translate(-107.185 -123.238)" fill="#ff8282"/>
      <path id="Path_1388" data-name="Path 1388" d="M99.878,154.573a.181.181,0,0,1-.015-.119,3.385,3.385,0,0,0,2.044-.187,3.138,3.138,0,0,1,1.045-.077C101.941,154.4,100.977,155.02,99.878,154.573Z" transform="translate(-87.054 -136.088)" fill="#ff8282"/>
      <path id="Path_1389" data-name="Path 1389" d="M31.777,167.87c-.634-.37-.635-.379-.148-.66.037.219.253.295.358.448C32.148,167.888,32.044,167.982,31.777,167.87Z" transform="translate(-27.625 -147.383)" fill="#ff8282"/>
      <path id="Path_1390" data-name="Path 1390" d="M150,159.237c.215-.278.568-.151.85-.267.323-.133.015.254.109.375a2.484,2.484,0,0,0-.959-.108Z" transform="translate(-130.505 -140.219)" fill="#ff8282"/>
      <path id="Path_1391" data-name="Path 1391" d="M101,209.4c.3-.322.3-.322.934-.1a2.393,2.393,0,0,1-.934.1Z" transform="translate(-88.043 -183.727)" fill="#ff8282"/>
      <path id="Path_1392" data-name="Path 1392" d="M131.911,202.746c.105-.027.208-.061.315-.08.14-.025.267-.2.415-.073a.267.267,0,0,1,.013.236c-.089.2-.276.185-.454.163a.415.415,0,0,1-.291-.244Z" transform="translate(-114.829 -178.004)" fill="#ff8282"/>
      <path id="Path_1393" data-name="Path 1393" d="M61.2,138.638c-.426-.055-.436.225-.422.524-.257-.109-.342-.44-.64-.495.037-.1.073-.2.109-.3a.344.344,0,0,0,.312-.249,2.207,2.207,0,0,1,1.734.267.188.188,0,0,1-.085.172C61.874,138.59,61.558,138.87,61.2,138.638Z" transform="translate(-52.634 -122.126)" fill="#ff8282"/>
      <path id="Path_1394" data-name="Path 1394" d="M97.637,107.631v.4a.385.385,0,0,0,.534.015.267.267,0,0,1,.358.044c.133.133.1.267.032.42a.763.763,0,0,1-.5.48c-.168.043-.35.052-.464.212a.678.678,0,0,1-1-.025,1.039,1.039,0,0,0-.534-.232.55.55,0,0,1-.47-.622c.051-.374.312-.249.555-.161s.319-.083.352-.267a2.435,2.435,0,0,0,.008-.4c.008-.871.16-.991,1.029-.811C97.877,106.964,97.722,107.3,97.637,107.631Z" transform="translate(-83.345 -94.87)" fill="#ff8282"/>
      <path id="Path_1395" data-name="Path 1395" d="M100.152,67.617c-.326.085-.582.077-.507-.376a1.089,1.089,0,0,0-.064-.9c-.091-.179-.247-.379-.085-.544a.532.532,0,0,1,.659-.013h0a1.106,1.106,0,0,0,.647-.023c.534-.12.767.133.636.643-.011.043-.052.084-.048.123C101.47,67.456,100.97,67.723,100.152,67.617Z" transform="translate(-86.678 -59.397)" fill="#ff8282"/>
      <path id="Path_1396" data-name="Path 1396" d="M139.214,116.434l-.02.155a.422.422,0,0,1-.507-.3c-.133-.308-.347-.248-.578-.215a.925.925,0,0,0-1.385-.071c-.115.071-.231.141-.363.036a.347.347,0,0,1,.041-.384c.047-.172.093-.346.141-.519.2-.332.519-.567.716-.9.4-.16.655.075.886.352A13.56,13.56,0,0,0,139.214,116.434Z" transform="translate(-118.652 -101.427)" fill="#ff8282"/>
      <path id="Path_1397" data-name="Path 1397" d="M64.019,104.33c-.51,1.13.12,1.868.889,2.554l.168.366a3.816,3.816,0,0,1,.181,1.422c-.045.334-.161.612-.6.44a3.749,3.749,0,0,1-1.692-.229l-.051-.043c.3-.338.683-.567.853-1.055.091-.26.456-.052.587.229.092.2-.045.446.133.628a1.348,1.348,0,0,0-.172-1.761,2.21,2.21,0,0,1-.726-1.712C63.562,104.8,63.427,104.381,64.019,104.33Z" transform="translate(-55.043 -92.892)" fill="#ff8282"/>
      <path id="Path_1398" data-name="Path 1398" d="M110.86,113.057c.177-.249.548-.148.727-.4.1-.147.231-.306.133-.476-.133-.221-.252,0-.374.051-.24.1-.434.1-.468-.224.107-.017.307-.031.308-.055.063-1.067.869-.667,1.433-.734h.133c.071.237-.2.306-.248.492.236.047.376-.2.594-.187a.387.387,0,0,1,.356.274.573.573,0,0,0,.017.093.247.247,0,0,1-.077.163c-.169.056-.364-.045-.523.083-.507.487-.7-.039-.974-.37.064.962-.1,1.193-.877,1.334a.1.1,0,0,1-.161-.044Z" transform="translate(-96.587 -98.843)" fill="#ff8282"/>
      <path id="Path_1399" data-name="Path 1399" d="M99.749,92.921c-.2-.217-.288-.466-.041-.686a1.672,1.672,0,0,0,.4-.755c.248.193.32.667.782.244.163-.148.4.438.624.667s.087.5-.157.682c-.2.145-.492.192-.58-.037-.2-.534-.363-.024-.534-.016C100.121,92.767,99.992,92.554,99.749,92.921Z" transform="translate(-86.792 -81.756)" fill="#ff8282"/>
      <path id="Path_1400" data-name="Path 1400" d="M97.088,108.4l.164.039a.756.756,0,0,1-1.241.148,1.156,1.156,0,0,0-.55-.183.687.687,0,0,1-.47-.893c.077-.39.326-.315.61-.167s.283-.109.294-.275c.013-.241-.031-.487,0-.726.055-.462.447-.619,1.077-.458a.1.1,0,0,1-.013.167c-.837-.083-.891-.024-.886.817,0,.426.056.909-.667.634-.332-.125-.286.172-.211.359A1.82,1.82,0,0,0,97.088,108.4Z" transform="translate(-82.815 -94.191)" fill="#ff8282"/>
      <path id="Path_1401" data-name="Path 1401" d="M132.129,89.273c-.216-.32-.4-.667-.9-.582-.252.041-.306-.205-.368-.387-.095-.267-.165-.6.083-.787.193-.149.348-.412.652-.4a.375.375,0,0,1,.029.375c-.2.647-.053.871.651.886.31,0,.534.036.487.422a1.4,1.4,0,0,0-.169.551.211.211,0,0,1-.184.153Z" transform="translate(-113.846 -77.975)" fill="#ff8282"/>
      <path id="Path_1402" data-name="Path 1402" d="M74.691,137.347a5.767,5.767,0,0,1-.7.1c-.52.009-.169-.213-.087-.363.383-.46,1.05-.4,1.468-.808l.133-.121c.179,0,.41-.151.492.133.06.205-.133.288-.255.411A7.277,7.277,0,0,1,74.691,137.347Z" transform="translate(-64.391 -120.432)" fill="#ff8282"/>
      <path id="Path_1403" data-name="Path 1403" d="M142.981,104.358l.133-.108c.375.133.667.462,1.078.519l.221.16c-.008.171.133.454-.267.326-.147-.048-.278-.306-.447-.105s0,.36.112.534a1.1,1.1,0,0,1,.1.3,1.577,1.577,0,0,0-.934-.259,1.409,1.409,0,0,1,.133-.667C143.232,104.79,142.961,104.6,142.981,104.358Z" transform="translate(-124.421 -92.823)" fill="#ff8282"/>
      <path id="Path_1404" data-name="Path 1404" d="M104.87,67.165c.031-.032.067-.093.091-.089.934.175.957-.494,1.1-1.121.124-.542-.1-.634-.534-.56-.229.039-.458.2-.652-.063.322-.056.643-.123.967-.167.412-.055.583.16.5.543a3.581,3.581,0,0,0-.216,1.278c.028.213-.228.288-.434.316h-.116C105.365,67.113,105.1,67.234,104.87,67.165Z" transform="translate(-91.396 -58.945)" fill="#ff8282"/>
      <path id="Path_1405" data-name="Path 1405" d="M130.01,128.1c.121.326-.133.275-.3.3-.28.157-.488-.037-.715-.145-.133-.1-.258-.208-.193-.4l.145-.033c.243.105.338.084.419-.233.115-.444-.043-.977.378-1.334.175.354.019.723.059,1.082C129.71,127.629,130.045,127.818,130.01,128.1Z" transform="translate(-112.116 -111.887)" fill="#ff8282"/>
      <path id="Path_1406" data-name="Path 1406" d="M129.93,104.578l.019-.148a.34.34,0,0,1,.105-.073c.894-.392.934-.849.133-1.53.295-.486.534.049.8.047.083.172.167.344.251.516.295.58-.085.955-.442,1.294A.557.557,0,0,1,129.93,104.578Z" transform="translate(-113.113 -91.412)" fill="#ff8282"/>
      <path id="Path_1407" data-name="Path 1407" d="M78.9,106.36c.223.133.252.452.52.544.327.372.8.133,1.214.306-.2.1-.378.217-.408.45l-.247.168a.976.976,0,0,0-1.159-.488c-.165-.209-.352-.072-.534-.032a.352.352,0,0,1-.161-.416C78.265,106.556,78.612,106.508,78.9,106.36Z" transform="translate(-68.207 -94.651)" fill="#ff8282"/>
      <path id="Path_1408" data-name="Path 1408" d="M76.286,127.692a2.7,2.7,0,0,1-1.468.809l-.044-.057c-.033-.133.156-.133.143-.256a.377.377,0,0,1,.012-.115.56.56,0,0,0,.51-.694c-.039-.39-.064-.779-.1-1.169a1.194,1.194,0,0,1,.248,1C75.527,127.835,75.746,127.971,76.286,127.692Z" transform="translate(-65.312 -111.853)" fill="#ff8282"/>
      <path id="Path_1409" data-name="Path 1409" d="M126.49,109.559c.822.3,1.287-.133,1.3-1.189a.766.766,0,0,1-.075,1.1c-.315.347-.612.667-1.119.336a1.129,1.129,0,0,0-.639-.123C126.1,109.477,126.31,109.584,126.49,109.559Z" transform="translate(-109.673 -96.393)" fill="#ff8282"/>
      <path id="Path_1410" data-name="Path 1410" d="M115.206,129.139c-.145.133-.294.255-.438.386-.253.229-.459.211-.608-.113l.77-.68a.288.288,0,0,1,.4.023C115.426,128.884,115.3,129.025,115.206,129.139Z" transform="translate(-99.447 -113.977)" fill="#ff8282"/>
      <path id="Path_1411" data-name="Path 1411" d="M101,97.925c0-.085.013-.172.013-.259,0-.213.045-.426.3-.411s.241.267.241.454a1.688,1.688,0,0,1-.059.32A.426.426,0,0,1,101,97.925Z" transform="translate(-88.043 -86.76)" fill="#ff8282"/>
      <path id="Path_1412" data-name="Path 1412" d="M99.581,65.075c-.511-.037-.823.021-.448.644a.845.845,0,0,1-.061.811c-.088-.219.043-.482-.133-.683h0c-.025-.083-.047-.168-.079-.247-.093-.231-.176-.5.047-.658a.483.483,0,0,1,.675.132Z" transform="translate(-86.104 -58.687)" fill="#ff8282"/>
      <path id="Path_1413" data-name="Path 1413" d="M87.01,79.991c0,.079-.008.157-.013.237l-.267.267c-.316.04-.62.335-.95.041C86.107,80.169,86.436,79.808,87.01,79.991Z" transform="translate(-74.853 -71.758)" fill="#ff8282"/>
      <path id="Path_1414" data-name="Path 1414" d="M138.85,110.26c.115.253-.076.448-.133.667a1.5,1.5,0,0,1-.667.8Q138.444,111,138.85,110.26Z" transform="translate(-120.15 -98.031)" fill="#ff8282"/>
      <path id="Path_1415" data-name="Path 1415" d="M92.677,104.487c0,.141-.031.294-.184.307s-.276-.133-.316-.284a.212.212,0,0,1,.2-.28.243.243,0,0,1,.3.257Z" transform="translate(-80.387 -92.798)" fill="#ff8282"/>
      <path id="Path_1416" data-name="Path 1416" d="M118.559,104.572a.237.237,0,0,1-.267.231c-.209,0-.255-.149-.233-.319s.147-.213.292-.193a.232.232,0,0,1,.208.282Z" transform="translate(-102.822 -92.854)" fill="#ff8282"/>
      <path id="Path_1417" data-name="Path 1417" d="M120.206,128.592c.105-.267.043-.426-.276-.408.044-.052.088-.1.133-.153.2.036.507-.069.564.188S120.434,128.56,120.206,128.592Z" transform="translate(-104.447 -113.43)" fill="#ff8282"/>
      <path id="Path_1418" data-name="Path 1418" d="M109.87,106.457c0-.056.009-.112.013-.167.558.288.408.667.133,1.067C109.935,107.058,110.129,106.721,109.87,106.457Z" transform="translate(-95.729 -94.59)" fill="#ff8282"/>
      <path id="Path_1419" data-name="Path 1419" d="M134.8,126.534c-.111-.416.112-.8.133-1.2l.133-.133.019.412a.89.89,0,0,1-.1.909.133.133,0,0,1-.189.013Z" transform="translate(-117.307 -110.978)" fill="#ff8282"/>
      <path id="Path_1420" data-name="Path 1420" d="M156,90.7l.133-.4c.179.016.386.071.331.276S156.191,90.794,156,90.7Z" transform="translate(-135.705 -80.734)" fill="#ff8282"/>
      <path id="Path_1421" data-name="Path 1421" d="M174.435,71.482a15.466,15.466,0,0,0-1.57,1.884,8.1,8.1,0,0,1-1.182,1.6c-.161.232-.386.065-.534-.117a1.292,1.292,0,0,0-1.868.534h0c-.267.476-.077.987-.112,1.481h0a1.193,1.193,0,0,1,.024-1.9c1.4-1.019,2.818-2.027,4.221-3.047a5.773,5.773,0,0,0,.534-.491l.77-.488Z" transform="translate(-146.721 -63.957)" fill="#ff8282"/>
      <path id="Path_1422" data-name="Path 1422" d="M181.751,90.644a.523.523,0,0,0,.7-.221c.306-.443.675-.843,1.017-1.262a1.191,1.191,0,0,0,.023.167c-.012.076-.023.152-.033.228a1.793,1.793,0,0,0-.65.814,15.448,15.448,0,0,0-1.85,2.284c0-.064-.032-.157,0-.191C181.45,91.955,181.315,91.176,181.751,90.644Z" transform="translate(-157.32 -79.746)" fill="#ff8282"/>
      <path id="Path_1423" data-name="Path 1423" d="M21.488,51.216a.479.479,0,0,0,0-.1.346.346,0,0,0,.059-.079c.619.219.838.507.791,1.1-.027.328-.063.658-.1.986-.069.235.019.623-.452.472l-.016.012c-.376-.248-.344-.748-.644-1.043a.574.574,0,0,1,.5-.694c.159-.035.332-.051.151-.267C21.619,51.526,21.427,51.466,21.488,51.216Z" transform="translate(-18.822 -46.712)" fill="#ff8282"/>
      <path id="Path_1424" data-name="Path 1424" d="M12.3,71.024c.165.257.324.523.5.772s.387.43.708.205c.486-.2.278-.526.2-.867-.068-.288-.3-.478-.358-.755a1.383,1.383,0,0,1,.667,1.2c.06.364-.195.558-.495.7a.55.55,0,0,1-.715-.179A4.14,4.14,0,0,1,12.03,70.9Z" transform="translate(-10.943 -63.471)" fill="#ff8282"/>
      <path id="Path_1425" data-name="Path 1425" d="M20.12,60.33c.22-.016.18-.368.5-.335a1.333,1.333,0,0,0,.14,1.378c-.179.015-.367-.522-.534.008C19.779,61.072,20.008,60.7,20.12,60.33Z" transform="translate(-17.816 -54.47)" fill="#ff8282"/>
      <path id="Path_1426" data-name="Path 1426" d="M22.4,52.36l.294.392a.344.344,0,0,1-.494-.133C22.118,52.464,22.259,52.388,22.4,52.36Z" transform="translate(-19.735 -47.856)" fill="#ff8282"/>
      <path id="Path_1427" data-name="Path 1427" d="M22.943,40.841a1.559,1.559,0,0,1,.019-.587c.291-.667-.036-1.078-.52-1.45a2.251,2.251,0,0,1-.124-1.884c.955,1.432,1.249,3.225,2.52,4.479.183-.723.483-.8,1.067-.287.726.647.738.726.26,1.77a.157.157,0,0,1-.1-.083c-.113-.371-.482-.458-.853-.2a.813.813,0,0,1-.81.029c-.163-.172-.34-.331-.5-.51a.843.843,0,0,1-.171-.714c-.043.024-.023.068-.043.1a.29.29,0,0,1-.352.232C22.9,41.568,23.128,41.116,22.943,40.841Z" transform="translate(-19.724 -34.475)" fill="#ff8282"/>
      <path id="Path_1428" data-name="Path 1428" d="M33.529,73.376c.4-.041.91.088.885-.6,0-.04.147-.133.2-.119.239.081.055.37.248.511.343-.069.2-.474.426-.7.35.435-.2.839.017,1.219a.084.084,0,0,1-.025.087c-.231.187-.768-.522-.791.267a1.637,1.637,0,0,1-.4.515c-.511.2-.141.69-.458.974.371.089.5-.188.728-.161l.133.259c.013.256.133.4.4.4l.391.145c.083.057.235.113.236.175,0,.163-.152.06-.235.085-.224.065-.459.1-.554.364l-.248.184c-.42.3-.841.6-1.347.163-.155-.332-.564-.57-.379-1.026a1.742,1.742,0,0,0,.267-1.053,2.151,2.151,0,0,1,.1-.281,2.247,2.247,0,0,0,.1-.842C33.251,73.719,33.187,73.436,33.529,73.376Z" transform="translate(-28.86 -65.283)" fill="#ff8282"/>
      <path id="Path_1429" data-name="Path 1429" d="M76.893,69.87l-1.226.552-.642-.156c-.5-.248-.515-.855-.887-1.2a.431.431,0,0,1,.02-.371.241.241,0,0,1,.16-.083c.133-.044.2.29.363.055a.217.217,0,0,1,.067-.133c.392-.144.891.2,1.214-.267.627-.041.921.267.934.881C76.893,69.393,76.893,69.631,76.893,69.87Z" transform="translate(-64.736 -61.636)" fill="#ff8282"/>
      <path id="Path_1430" data-name="Path 1430" d="M64.869,87.5c-.446.18-.251.594-.327.907-.133.071-.133-.112-.235-.107l-.407-.422c.534-.508.372-1.227.558-1.841l.133-.144c.155-.159.088-.379.157-.562.152-.4.379-.587.771-.244h0c.071.083.22.133.112.286a1.048,1.048,0,0,0-.2.144,1.746,1.746,0,0,1,.287-.2c.18.016.315.153.5.175.427.049.586.235.236.587-.191.191-.061.422-.133.623A1.852,1.852,0,0,0,64.869,87.5Z" transform="translate(-55.892 -76.06)" fill="#ff8282"/>
      <path id="Path_1431" data-name="Path 1431" d="M71.395,73.762c.29.147.636.26.507.7-.085.29.358.243.294.5a3.321,3.321,0,0,1-1.355-1.039l.052-.057C71.037,73.723,71.187,73.59,71.395,73.762Z" transform="translate(-61.906 -66.332)" fill="#ff8282"/>
      <path id="Path_1432" data-name="Path 1432" d="M76.133,86.495c-.043-.091-.085-.183-.133-.275.29.111.572.244.869.326.34.093.412.292.315.6-.438.065.017.612-.379.7a.853.853,0,0,1-.113-.3c.023-.628-.012-.706-.56-1.047Z" transform="translate(-66.378 -77.198)" fill="#ff8282"/>
      <path id="Path_1433" data-name="Path 1433" d="M69.918,84.085c-.411-.133-.659-.029-.667.439,0,.184-.029.346-.259.367a1.081,1.081,0,0,1,.185-.839C69.495,83.62,69.685,83.676,69.918,84.085Z" transform="translate(-60.288 -75.059)" fill="#ff8282"/>
      <path id="Path_1434" data-name="Path 1434" d="M133.973,64.9l.495-.432c.37-.049.739-.236,1.1.009.144.165.627.247.26.558-.476.4-.77.993-1.343,1.289a.731.731,0,0,1-.24-.917.485.485,0,0,1,.08-.095c.064-.061,0,.039.052-.035-.024,0-.035.016-.056.023a.359.359,0,0,1-.366-.285A1.114,1.114,0,0,0,133.973,64.9Z" transform="translate(-116.605 -58.247)" fill="#ff8282"/>
      <path id="Path_1435" data-name="Path 1435" d="M146.938,44.112a2.149,2.149,0,0,1,.388-1.592c.228-.256.312-.089.372.133a.463.463,0,0,1-.323.619c.049.267.518.116.438.55C147.684,44.529,147.681,44.556,146.938,44.112Z" transform="translate(-127.824 -39.216)" fill="#ff8282"/>
      <path id="Path_1436" data-name="Path 1436" d="M133.171,87.258c-.011-.125-.024-.376-.119-.322-.755.426-1.006-.446-1.7-.548a1.244,1.244,0,0,0,.752-.877c.718-.416.718-.416,1.193.71-.028.338.308.568.267.91C133.458,87.276,133.337,87.345,133.171,87.258Z" transform="translate(-114.343 -76.363)" fill="#ff8282"/>
      <path id="Path_1437" data-name="Path 1437" d="M129.452,104.15c.363.029.712.08.824.512.133.515-.332.783-.515,1.162-.085.179-.351-.089-.546-.071h0a2.054,2.054,0,0,1-.028-1.341Z" transform="translate(-112.38 -92.736)" fill="#ff8282"/>
      <path id="Path_1438" data-name="Path 1438" d="M121.473,111.368c-.143.1-.284.211-.428.314-.1.069-.161.267-.318.133-.133-.112-.282-.247-.256-.44s.2-.124.326-.144a.339.339,0,0,0,.292-.236.159.159,0,0,1,.091-.032C121.6,110.861,121.62,111.052,121.473,111.368Z" transform="translate(-104.914 -98.616)" fill="#ff8282"/>
      <path id="Path_1439" data-name="Path 1439" d="M126.093,107.178c.019-.22-.04-.386-.294-.411l.547-.667c.267.442,0,.894.028,1.341Z" transform="translate(-109.534 -94.426)" fill="#ff8282"/>
      <path id="Path_1440" data-name="Path 1440" d="M44.773,96.58a1.037,1.037,0,0,0-.183.071c-.125.076-.081.427-.348.253-.227-.147-.145-.326.036-.484.057-.051.063-.159.091-.24Z" transform="translate(-38.738 -85.829)" fill="#ff8282"/>
      <path id="Path_1441" data-name="Path 1441" d="M60.279,47.417h-.1a1.389,1.389,0,0,1,.235-1.067.647.647,0,0,1,.4.133c-.052.279.141.459.267.667h-.037C60.813,47.33,60.518,47.294,60.279,47.417Z" transform="translate(-52.658 -42.647)" fill="#ff8282"/>
      <path id="Path_1442" data-name="Path 1442" d="M62.154,42.162c-.175.08-.359.189-.4-.133V41.7c0-.109-.145-.319.133-.338.191-.012.28.1.284.278S62.154,41.982,62.154,42.162Z" transform="translate(-54 -38.326)" fill="#ff8282"/>
      <path id="Path_1443" data-name="Path 1443" d="M121.261,69.337a2.612,2.612,0,0,0,.125,1.043l-.292.267c-.384.228-.845.147-1.261.335-.335.152-.658-.229-.834-.522a1.077,1.077,0,0,1,.035-1.187.614.614,0,0,1,.837-.133c.378.221.667.048.986-.068.2-.013.267.184.4.267Z" transform="translate(-103.501 -62.306)" fill="#ff8282"/>
      <path id="Path_1444" data-name="Path 1444" d="M61,52.089c.079-.6.492-.235.768-.267a3.162,3.162,0,0,0,.618,1.078c.364.371.275.9.472,1.334.037.017.052.039.047.064s-.016.041-.025.041v.412l-.5.1a8.184,8.184,0,0,1-1.223-2.013A2.087,2.087,0,0,1,61,52.089Z" transform="translate(-53.379 -47.319)" fill="#ff8282"/>
      <path id="Path_1445" data-name="Path 1445" d="M74.911,68.882a.267.267,0,0,0-.021-.105c.172-.559.358-.013.534,0,.009.039.019.077.025.116.06.1.083.228-.031.267-.205.072-.276-.143-.4-.243A.646.646,0,0,0,74.911,68.882Z" transform="translate(-65.416 -61.864)" fill="#ff8282"/>
      <path id="Path_1446" data-name="Path 1446" d="M43,84.8c.049-.237.1-.475.4-.515C43.568,84.692,43.336,84.785,43,84.8Z" transform="translate(-37.781 -75.526)" fill="#ff8282"/>
      <path id="Path_1447" data-name="Path 1447" d="M142.953,99.393l.391-.133h.013c.133.378.161.8.515,1.067a.152.152,0,0,1,.032.113c-.554.231-.857-.06-1.078-.519C142.674,99.7,142.438,99.46,142.953,99.393Z" transform="translate(-124.125 -88.498)" fill="#ff8282"/>
      <path id="Path_1448" data-name="Path 1448" d="M148.432,100.357c-.558-.171-.54-.619-.515-1.067C148.22,99.581,148.245,100.008,148.432,100.357Z" transform="translate(-128.692 -88.524)" fill="#ff8282"/>
      <path id="Path_1449" data-name="Path 1449" d="M30.563,95.682c-.165.411.16.7.255,1.054-.049.06-.093.055-.133-.009-.06-.056-.133-.168-.179-.157-.18.039-.049.22-.116.322-.047.044-.083.033-.108-.024.02-.3-.173-.534-.241-.808a.969.969,0,0,1,.247-.921c.16-.055.259.027.335.155A.474.474,0,0,1,30.563,95.682Z" transform="translate(-26.524 -84.911)" fill="#ff8282"/>
      <path id="Path_1450" data-name="Path 1450" d="M31.719,108.21l.108.024c-.105.5.4.69.55,1.058.061.287.288.6-.123.814-.12-.112-.558.228-.4-.28-.069-.16.036-.367-.133-.5v-.073C32.066,108.905,31.5,108.558,31.719,108.21Z" transform="translate(-27.961 -96.254)" fill="#ff8282"/>
      <path id="Path_1451" data-name="Path 1451" d="M35.07,106.415a.5.5,0,0,0,.133.009c.484.408.893,0,1.334-.124C35.952,106.936,35.594,106.964,35.07,106.415Z" transform="translate(-30.909 -94.599)" fill="#ff8282"/>
      <path id="Path_1452" data-name="Path 1452" d="M40.12,113.15c.267.055.642-.229.779.244C40.627,113.353,40.256,113.633,40.12,113.15Z" transform="translate(-35.285 -100.505)" fill="#ff8282"/>
      <path id="Path_1453" data-name="Path 1453" d="M62.1,110.056c.159-.133.148.091.235.107a2.246,2.246,0,0,0,.736,1.438c.667.534.523,1.261.491,1.957-.015.322-.282.364-.534.338-.29-.031-.256-.267-.237-.455.015-.152.084-.3.085-.448a.251.251,0,0,0-.249-.257c-.133-.011-.244.073-.224.184.125.69-.428.691-.833.846-.4-.125-.181-.243,0-.366.278-.185.9-.215.355-.782-.027-.027,0-.127.025-.177.079-.149.436-.228.193-.452s-.455.044-.688.191A10.213,10.213,0,0,0,62.1,110.056Z" transform="translate(-53.674 -97.817)" fill="#ff8282"/>
      <path id="Path_1454" data-name="Path 1454" d="M31.456,116.57c.4.069.282.282.133.5C31.181,117,31.448,116.761,31.456,116.57Z" transform="translate(-27.696 -103.499)" fill="#ff8282"/>
      <path id="Path_1455" data-name="Path 1455" d="M93.976,138.044a.987.987,0,0,0-.74.232,1.624,1.624,0,0,1-1.409.164c-.495-.161-.934-.5-1.5-.4a.224.224,0,0,1-.236-.195c-.04-.2.085-.326.229-.443,1.468-1.219,2.383-1.23,3.9-.037.167.133.42.257.332.516C94.46,138.171,94.183,138.032,93.976,138.044Z" transform="translate(-78.582 -120.752)" fill="#ff8282"/>
      <path id="Path_1456" data-name="Path 1456" d="M128.452,140.37l.635.267c.121.248.667.033.563.351s-.482.071-.742.033a1.3,1.3,0,0,0-.191,0c-.183-.195-.508-.155-.658-.4C128.139,140.454,128.311,140.438,128.452,140.37Z" transform="translate(-111.492 -124.124)" fill="#ff8282"/>
      <path id="Path_1457" data-name="Path 1457" d="M124.256,136.571c-.029.244-.209.247-.392.243-.061-.019-.144-.017-.183-.057-.18-.189-.616-.323-.408-.635.243-.366.462.121.71.163Z" transform="translate(-107.296 -120.325)" fill="#ff8282"/>
      <path id="Path_1458" data-name="Path 1458" d="M90,129.232a1.082,1.082,0,0,1,1.085.463c.1.109.228.241.089.4s-.277.068-.4-.04A3.081,3.081,0,0,1,90,129.232Z" transform="translate(-78.51 -114.455)" fill="#ff8282"/>
      <path id="Path_1459" data-name="Path 1459" d="M67.91,148.29a2.878,2.878,0,0,0,1.618,0c-.073.153-.367.133-.324.366.167.877-.347.56-.754.439-.3-.064-.348-.3-.376-.547Z" transform="translate(-59.367 -130.987)" fill="#ff8282"/>
      <path id="Path_1460" data-name="Path 1460" d="M62.39,149.629l.376.547c-.384-.073-.8.277-1.169-.123-.113-.124-.344-.192-.2-.4s.292-.073.422.067C62.049,149.971,62.255,150.007,62.39,149.629Z" transform="translate(-53.683 -132.075)" fill="#ff8282"/>
      <path id="Path_1461" data-name="Path 1461" d="M27.744,68.038c-.243.267-.076.582-.133.87-.041.236.148.522-.144.7-.282-.322-.124-.716-.181-1.033-.133.292.267.866-.44.945a3.788,3.788,0,0,0,.133-1.225c-.017-.281-.063-.49-.384-.59-.4-.133-.295-.632-.564-.874.4-.023.192-.34.259-.526l.4.8c.26.071.548.1.659.41C27.514,67.672,27.868,67.677,27.744,68.038Z" transform="translate(-23.075 -59.944)" fill="#ff8282"/>
      <path id="Path_1462" data-name="Path 1462" d="M32.095,79.386c.4-.157.221-.519.279-.8s-.1-.566.343-.9v1.784c-.044.044-.088.089-.133.133-.117.168-.051.427-.267.546l-.236-.121C32.085,79.818,32.091,79.6,32.095,79.386Z" transform="translate(-28.318 -69.806)" fill="#ff8282"/>
      <path id="Path_1463" data-name="Path 1463" d="M134.824,125.962a.6.6,0,0,0,.133-.009,1.722,1.722,0,0,1,1.281-.5.347.347,0,0,0,.386-.267.267.267,0,0,1,.219-.149l.224-.5c.392.267.382.837.82,1.03.009.113.3.352-.119.277a.753.753,0,0,0-.534.119,1.037,1.037,0,0,1-.978.239.668.668,0,0,0-.759.448l-.274-.037C135.016,126.444,134.7,126.336,134.824,125.962Z" transform="translate(-117.33 -110.406)" fill="#ff8282"/>
      <path id="Path_1464" data-name="Path 1464" d="M139.817,135.9c-.1-.578.048-.69.594-.622a5.917,5.917,0,0,0,1.143-.065c.267.76-.366.756-.791.927C140.526,135.725,140.092,136.116,139.817,135.9Z" transform="translate(-121.657 -119.652)" fill="#ff8282"/>
      <path id="Path_1465" data-name="Path 1465" d="M144.042,143.325c-.408-.107-.292-.464-.267-.7.015-.14.254.08.4.037C144.516,142.959,144.309,143.15,144.042,143.325Z" transform="translate(-125.081 -126.035)" fill="#ff8282"/>
      <path id="Path_1466" data-name="Path 1466" d="M76.517,103.7c.073.554-.494.28-.667.515a.316.316,0,0,1-.4.049c-.255-.392.133-.572.275-.833C76.125,103.114,76.32,103.4,76.517,103.7Z" transform="translate(-65.828 -91.995)" fill="#ff8282"/>
      <path id="Path_1467" data-name="Path 1467" d="M81.97,111.893c.4-.467.779-.013,1.151.044.3.045-.008.334.055.5-.249.312-.388.033-.554-.1-.133-.22-.331-.064-.5-.091a.452.452,0,0,1-.311-.2C81.8,111.931,81.837,111.86,81.97,111.893Z" transform="translate(-71.414 -99.265)" fill="#ff8282"/>
      <path id="Path_1468" data-name="Path 1468" d="M75.581,105.826c.188.009.41-.08.514.175a.509.509,0,0,0-.5.073c-.336.2-.706.376-1.015,0a1.261,1.261,0,0,1-.207-1.3.571.571,0,0,1,.4-.4c-.029.283-.351.466-.267.786C74.741,105.579,74.929,106.071,75.581,105.826Z" transform="translate(-64.885 -92.927)" fill="#ff8282"/>
      <path id="Path_1469" data-name="Path 1469" d="M137.624,126.606c.189.375.133.62-.343.523a1.154,1.154,0,0,0-1.215.4c-.12.141-.159-.028-.185-.125a1.78,1.78,0,0,1,.157-.914l.267-.156A1.058,1.058,0,0,1,137.624,126.606Z" transform="translate(-118.262 -111.859)" fill="#ff8282"/>
      <path id="Path_1470" data-name="Path 1470" d="M140.395,124.692a4.83,4.83,0,0,0-1.325-.267c.2-.72.8-.267,1.191-.36.351-.089.245.3.275.514Z" transform="translate(-121.034 -109.945)" fill="#ff8282"/>
      <path id="Path_1471" data-name="Path 1471" d="M109.352,97.753c-.019.208-.123.352-.328.346s-.233-.173-.233-.338c0-.193.076-.367.285-.372S109.352,97.569,109.352,97.753Z" transform="translate(-94.793 -86.877)" fill="#ff8282"/>
      <path id="Path_1472" data-name="Path 1472" d="M77.117,110.947c-.723.459-1.007.282-1.067-.667h.392c0,.148-.015.3.133.41a.267.267,0,0,1,.267.117A.336.336,0,0,1,77.117,110.947Z" transform="translate(-66.421 -98.048)" fill="#ff8282"/>
      <path id="Path_1473" data-name="Path 1473" d="M80.157,110.833l-.267-.117c0-.249.072-.464.378-.376.244.069.077.24.035.371Z" transform="translate(-69.749 -98.082)" fill="#ff8282"/>
      <path id="Path_1474" data-name="Path 1474" d="M32.455,67.139c-.06-.133-.175-.267-.015-.412a.193.193,0,0,1,.29,0c.157.145.04.277-.017.414a.16.16,0,0,1-.257,0Z" transform="translate(-28.559 -60.249)" fill="#ff8282"/>
      <path id="Path_1475" data-name="Path 1475" d="M46.619,69.43a.187.187,0,0,1-.2.2.213.213,0,0,1-.233-.192.18.18,0,0,1,.157-.239A.254.254,0,0,1,46.619,69.43Z" transform="translate(-40.532 -62.449)" fill="#ff8282"/>
      <path id="Path_1476" data-name="Path 1476" d="M31.321,70.24h.257c-.187.267.177.435.133.679l-.662-.4a.267.267,0,0,0,.271-.275Z" transform="translate(-27.425 -63.35)" fill="#ff8282"/>
      <path id="Path_1477" data-name="Path 1477" d="M33.86,92.616a.682.682,0,0,1,.267-.546c-.063.326.37.768-.228.969Z" transform="translate(-29.86 -82.268)" fill="#ff8282"/>
      <path id="Path_1478" data-name="Path 1478" d="M75.88,71.255c.141-.057.314.428.431-.025.1.1.319.229.133.343C76.151,71.748,75.957,71.56,75.88,71.255Z" transform="translate(-66.274 -64.208)" fill="#ff8282"/>
      <path id="Path_1479" data-name="Path 1479" d="M73.9,88.233a.218.218,0,0,1-.028.059c-.119.133-.049.414-.311.442a.133.133,0,0,1-.133-.169.4.4,0,0,1,.472-.332Z" transform="translate(-64.144 -78.935)" fill="#ff8282"/>
      <path id="Path_1480" data-name="Path 1480" d="M136.989,68.919c-.008-.208,0-.412.295-.358a.2.2,0,0,1,.181.28C137.357,69.119,137.165,68.994,136.989,68.919Z" transform="translate(-119.228 -61.888)" fill="#ff8282"/>
    </g>
    <text id="Immunity-2" data-name="Immunity" transform="translate(18 37.024)" fill="#fff" font-size="8" font-family="SegoeUI-Bold, Segoe UI" font-weight="700"><tspan x="-18.281" y="0">Immunity</tspan></text>
  </g>
</svg>
