<svg id="Component_236_2" data-name="Component 236 – 2" xmlns="http://www.w3.org/2000/svg" width="70" height="70" viewBox="0 0 70 70">
  <g id="Component_233_1" data-name="Component 233 – 1" transform="translate(15 12.04)">
    <path id="Subtraction_218" data-name="Subtraction 218" d="M4.715,18.325h0a4.1,4.1,0,0,1-.472-.5c-.2-.244-.432-.573-.411-.757a2.9,2.9,0,0,1,.288-.79,1.689,1.689,0,0,1,.279-.358.5.5,0,0,0,.172-.552A1.1,1.1,0,0,0,4,14.641a1.948,1.948,0,0,0-.576-.224,4.394,4.394,0,0,0-.105,1.3,1.015,1.015,0,0,1-.3.91,1.044,1.044,0,0,1-.848.336,1.8,1.8,0,0,1-1.006-.307,1.543,1.543,0,0,1-.649-.972A1.529,1.529,0,0,1,.9,14.5c.2-.27.349-.466.039-.746a6.429,6.429,0,0,1-.093-1.692.089.089,0,0,1,.061-.019,4.807,4.807,0,0,1,1.251.7c-.091-.153-.217-.323-.362-.519a10.227,10.227,0,0,1-.772-1.167,2.125,2.125,0,0,1-.179-1.57,4.33,4.33,0,0,1,.59-1.19,2.266,2.266,0,0,0,.367-.73,2.579,2.579,0,0,0-.13-1.445.079.079,0,0,0-.058-.033.056.056,0,0,0-.022,0A19.337,19.337,0,0,0,.313,9.039c-.041.11-.09.166-.143.166-.074,0-.133-.11-.133-.112A5.915,5.915,0,0,1,.012,8.013a8.378,8.378,0,0,1,.15-1.174A8.675,8.675,0,0,1,.582,5.4,9.069,9.069,0,0,1,1.9,3.332a10.259,10.259,0,0,1,1.85-1.72A9.088,9.088,0,0,1,5.939.436,6.772,6.772,0,0,1,8.266,0a5.645,5.645,0,0,1,.59.031,8.446,8.446,0,0,1,1.758.258A9.788,9.788,0,0,1,14.036,1.92a8.777,8.777,0,0,1,1.427,1.332,7.3,7.3,0,0,1,1.728,5.774s-.127.285-.228.285c-.03,0-.055-.025-.075-.074a9.754,9.754,0,0,0-1.261-3.159c-.006-.01-.012-.015-.018-.015-.035,0-.078.152-.113.4-.078.543-.119,1.7.249,1.807a1.722,1.722,0,0,1,.3.492,4.846,4.846,0,0,1,.253.728,2.026,2.026,0,0,1,.056,1.265,5.934,5.934,0,0,1-.615.979,2.477,2.477,0,0,0-.46.817,1.622,1.622,0,0,0,.488-.249,1.571,1.571,0,0,1,.571-.277.1.1,0,0,1,.086.04s.06.053.035.1a5.717,5.717,0,0,1-.213,1.534c-.08.222-.15.233-.151.233-.111.217.03.384.21.595a1.935,1.935,0,0,1,.361.547,1.375,1.375,0,0,1,.023.881,1.827,1.827,0,0,1-1.476.989,1.661,1.661,0,0,1-.86-.268,1.978,1.978,0,0,1-.344-.268l-.191-1.933a1.262,1.262,0,0,0-.4.117,1.6,1.6,0,0,0-.51.348.842.842,0,0,0-.249.619.658.658,0,0,1,.065.155,1.831,1.831,0,0,0,.541.8h0a6.909,6.909,0,0,1,.083.8,1.543,1.543,0,0,1-.458.686,1.148,1.148,0,0,1-.472.3h0a.012.012,0,0,1-.011-.006,1.307,1.307,0,0,1,.128-.447,1.7,1.7,0,0,0,.163-.6.374.374,0,0,0-.208-.094.173.173,0,0,0-.07.016l-.007,0h0a.117.117,0,0,1-.044.013c-.039,0-.083-.04-.188-.244a.276.276,0,0,0-.008-.268.393.393,0,0,0-.335-.145.535.535,0,0,0-.461.241c-.022.028-.037.041-.046.041s-.02-.042-.023-.112a1.006,1.006,0,0,0-.483-.9.4.4,0,0,0-.1-.011,1.128,1.128,0,0,0-.524.2.561.561,0,0,1-.17.082h0c-.028,0-.053-.051-.087-.122a1.556,1.556,0,0,0-.1-.178.615.615,0,0,0-.547-.3H9.272a.678.678,0,0,0-.5.278,1.3,1.3,0,0,0-.172.276.672.672,0,0,0-.125-.261.706.706,0,0,0-.59-.261,1.337,1.337,0,0,0-.232.022.572.572,0,0,0-.344.346,1.409,1.409,0,0,0-.093.288,1.087,1.087,0,0,0-.693-.36.6.6,0,0,0-.343.109.586.586,0,0,0-.292.443,1.664,1.664,0,0,0-.037.343,1.372,1.372,0,0,0-.59-.253.215.215,0,0,0-.137.042.749.749,0,0,0-.191.534.35.35,0,0,1,0,.054s-.036.021-.086.049a2.406,2.406,0,0,0-.326.2c-.04.1.075.335.187.567a2.928,2.928,0,0,1,.161.371.032.032,0,0,1-.005.03A.239.239,0,0,1,4.715,18.325ZM8.576,10.7h0s-.3.43-.613.984a6.168,6.168,0,0,0-.741,1.791A2.416,2.416,0,0,0,7.6,14.523a.22.22,0,0,0,.175.09c.181,0,.4-.217.551-.4a3.85,3.85,0,0,0,.288-.4,7.115,7.115,0,0,0,.739.781.059.059,0,0,0,.029.007c.087,0,.243-.156.377-.379A1.546,1.546,0,0,0,10,13.471a5.654,5.654,0,0,0-.713-1.585c-.352-.62-.71-1.184-.713-1.189ZM9.594,8.82a1.931,1.931,0,0,1,.541.072.718.718,0,0,1,.478.364c.112.36.208.68.293.963a4.692,4.692,0,0,0,.794,1.9c.3.29.743.336,1.673.336,1.034-.281,2.245-1.528,2.113-2.469a2.084,2.084,0,0,0-.658-1.865,21.943,21.943,0,0,0-2.674-.791L11.81,7.25a2.819,2.819,0,0,0-.327-.02,1.961,1.961,0,0,0-1.631.8,2.4,2.4,0,0,0-.392.8h0C9.5,8.821,9.547,8.82,9.594,8.82ZM5.768,7.231a2.821,2.821,0,0,0-.327.02L5.1,7.332h0a21.943,21.943,0,0,0-2.674.791,2.084,2.084,0,0,0-.658,1.865c-.132.941,1.079,2.188,2.113,2.469.931,0,1.369-.047,1.673-.336a4.692,4.692,0,0,0,.794-1.9h0c.085-.283.18-.6.292-.962a.718.718,0,0,1,.478-.364,1.931,1.931,0,0,1,.541-.072c.082,0,.134,0,.134,0a2.4,2.4,0,0,0-.392-.8A1.961,1.961,0,0,0,5.768,7.231Z" transform="translate(11.232 15.735)" fill="#ff94b0"/>
    <path id="Union_18" data-name="Union 18" d="M2,2.609a.546.546,0,0,1-.6-.54.192.192,0,0,0-.1-.027.338.338,0,0,0-.045.011.55.55,0,0,1-.606.556C.546,2.616.2,2.275.2,2.179A3.257,3.257,0,0,1,0,.871C.044.4-.011.378.167.162A.64.64,0,0,1,.71.008c.232-.042.536.274.543.37v.15a.238.238,0,0,1,.09,0,.08.08,0,0,1,.045,0V.378c.008-.1.311-.412.543-.37a.64.64,0,0,1,.543.154c.179.216.124.24.168.709a3.271,3.271,0,0,1-.2,1.308A.989.989,0,0,1,2,2.609Zm-.654-.653.047.089c0-.031,0-.062,0-.092A.282.282,0,0,1,1.345,1.957Z" transform="translate(18.514 31.347)" fill="#ff94b0"/>
    <path id="Path_802" data-name="Path 802" d="M.222,2.476a.642.642,0,0,0,.552.116c.234.026.516-.31.516-.406L1.2.825C1.177.517,1.182-.027.523,0,.428,0,.11.365.11.461A3.274,3.274,0,0,0,0,1.781C.082,2.245.03,2.273.222,2.476Z" transform="matrix(-0.995, -0.105, 0.105, -0.995, 22.287, 34.36)" fill="#ff94b0"/>
    <path id="Path_803" data-name="Path 803" d="M.222.134A.642.642,0,0,1,.774.019c.234-.026.516.31.516.406L1.2,1.785c-.019.308-.013.852-.672.824-.1,0-.413-.364-.413-.46A3.274,3.274,0,0,1,0,.829C.082.365.03.337.222.134Z" transform="translate(17.086 31.777) rotate(-7)" fill="#ff94b0"/>
    <path id="Path_804" data-name="Path 804" d="M.365.155C.558-.047.643.006.643.006c.234-.026.471.36.471.455-.075.207-.077.166-.054.574.027.517.321.844-.273,1.213-.1,0-.531-.1-.787-1.313A1.164,1.164,0,0,1,.365.155Z" transform="matrix(0.978, -0.208, 0.208, 0.978, 15.938, 32.558)" fill="#ff94b0"/>
    <path id="Path_805" data-name="Path 805" d="M.365,2.093c.192.2.278.149.278.149.234.026.471-.36.471-.455-.075-.207-.077-.166-.054-.574C1.086.7,1.38.368.787,0,.691,0,.256.1,0,1.313A1.165,1.165,0,0,0,.365,2.093Z" transform="matrix(-0.978, -0.208, 0.208, -0.978, 23.301, 34.757)" fill="#ff94b0"/>
    <g id="Union_14" data-name="Union 14" fill="#a0b6ab" opacity="0.64">
      <path d="M 11.26045036315918 28.60276031494141 C 9.541660308837891 28.60272026062012 8.08905029296875 25.55347061157227 8.08905029296875 21.94415092468262 C 8.08905029296875 20.43257141113281 8.343510627746582 18.93544006347656 8.805550575256348 17.72853088378906 L 8.808341026306152 17.72123146057129 L 8.808770179748535 17.71343040466309 L 8.813850402832031 17.62223052978516 C 8.90001106262207 16.0769100189209 8.974411010742188 14.7423210144043 8.673230171203613 14.52729034423828 C 8.617300987243652 14.48737049102783 8.561800956726074 14.44385051727295 8.508280754089355 14.39793109893799 L 8.45327091217041 14.35074043273926 L 8.428680419921875 14.41892051696777 C 7.941220760345459 15.77065086364746 6.647760391235352 16.67884063720703 5.210080623626709 16.67884063720703 C 3.324040651321411 16.67884063720703 1.789630651473999 15.14452075958252 1.789630651473999 13.25858116149902 C 1.789630651473999 12.9256010055542 1.837380647659302 12.59656047821045 1.931550621986389 12.28061103820801 L 1.94174063205719 12.24641036987305 L 1.912710666656494 12.22565078735352 C 0.728930652141571 11.37938022613525 0.0500006265938282 9.859641075134277 0.0500006265938282 8.056090354919434 C 0.0500006265938282 5.255710601806641 2.121580600738525 2.977430820465088 4.667900562286377 2.977430820465088 C 5.512910842895508 2.977430820465088 6.267480850219727 3.200080633163452 6.910640716552734 3.639200687408447 L 6.960090637207031 3.672970771789551 L 6.984490394592285 3.618280649185181 C 7.936730861663818 1.483980655670166 10.47786045074463 0.05000070109963417 13.30776023864746 0.05000070109963417 C 14.67334079742432 0.05000070109963417 15.9875602722168 0.3766607046127319 17.10835075378418 0.9946706891059875 C 18.20135116577148 1.597360730171204 19.04057121276855 2.434980630874634 19.5352897644043 3.416990756988525 L 19.57803153991699 3.501830816268921 L 19.62376022338867 3.418560743331909 C 20.68838119506836 1.480340719223022 23.06425094604492 0.22795070707798 25.67658042907715 0.22795070707798 C 27.05471992492676 0.22795070707798 28.3758602142334 0.5684106945991516 29.4971809387207 1.212520718574524 C 30.59210968017578 1.841480731964111 31.4176197052002 2.710830688476562 31.88444137573242 3.726580619812012 L 31.91014099121094 3.782510757446289 L 31.95962142944336 3.745890617370605 C 32.70944976806641 3.190870761871338 33.58308029174805 2.897510766983032 34.48604965209961 2.897510766983032 C 37.00994110107422 2.897510766983032 39.06328201293945 5.190300464630127 39.06328201293945 8.00852108001709 C 39.06328201293945 9.634150505065918 38.36043167114258 11.1780309677124 37.18313980102539 12.1383810043335 L 37.15805053710938 12.15885066986084 L 37.16646957397461 12.19012069702148 C 37.24420166015625 12.47884082794189 37.28361129760742 12.77845096588135 37.28361129760742 13.0806303024292 C 37.28361129760742 14.96657085418701 35.74919891357422 16.50089073181152 33.8631591796875 16.50089073181152 C 32.58782196044922 16.50089073181152 31.42675971984863 15.79893112182617 30.83308982849121 14.66894054412842 L 30.77509117126465 14.55854034423828 L 30.74076080322266 14.67842102050781 C 30.35436820983887 16.02772521972656 30.33781242370605 17.51425743103027 30.69028091430664 19.22226524353027 L 30.68514060974121 19.22846031188965 L 30.6694507598877 19.24710083007812 L 30.67446136474609 19.27094078063965 C 30.85319137573242 20.12264060974121 30.94382095336914 21.02204132080078 30.94382095336914 21.94415092468262 C 30.94382095336914 25.55325126647949 29.49147796630859 28.60234832763672 27.7722053527832 28.60272026062012 C 27.73582077026367 28.59563446044922 27.64931678771973 28.44351387023926 27.58611106872559 28.33237075805664 C 27.4432201385498 28.08112144470215 27.24752998352051 27.73702049255371 26.95510101318359 27.57658004760742 C 26.93679046630859 27.56669998168945 26.91551971435547 27.56178092956543 26.89158058166504 27.56178092956543 C 26.76489067077637 27.56178092956543 26.56034088134766 27.69732093811035 26.28520011901855 27.88879013061523 C 26.17905044555664 27.96267127990723 26.07878112792969 28.03245162963867 26.01473999023438 28.06568145751953 C 25.95670127868652 28.0959300994873 25.92582130432129 28.10227012634277 25.91011047363281 28.10228157043457 C 25.90742111206055 28.10228157043457 25.90093994140625 28.10205078125 25.8988208770752 28.09991073608398 C 25.88640975952148 28.08736991882324 25.88699150085449 28.03229141235352 25.88733100891113 27.99939155578613 C 25.88757133483887 27.97598075866699 25.88771057128906 27.95306015014648 25.88591003417969 27.93294143676758 C 25.88916015625 27.91567039489746 25.947021484375 27.86708068847656 25.99806976318359 27.82421112060547 C 26.2598705291748 27.60436058044434 26.80463027954102 27.14688110351562 26.98064041137695 25.78278160095215 C 27.11473083496094 24.74352073669434 26.8183708190918 24.41669082641602 26.53177070617676 24.10062026977539 C 26.31826972961426 23.86517143249512 26.11661148071289 23.64277076721191 26.08769035339355 23.12262153625488 C 26.03267097473145 22.13150978088379 26.05496025085449 21.05531120300293 26.15215110778809 20.01037979125977 L 26.15713119506836 19.95674133300781 L 26.103271484375 19.95576095581055 C 26.04865074157715 19.95476150512695 25.99426078796387 19.95423126220703 25.94013977050781 19.95423126220703 C 25.37580108642578 19.95423126220703 24.93790054321289 20.01300048828125 24.56204986572266 20.13920021057129 C 24.56156349182129 20.13936424255371 24.56109619140625 20.1395149230957 24.56064987182617 20.1396541595459 C 24.54202270507812 20.05792999267578 24.67168235778809 19.70654487609863 24.76737022399902 19.44723129272461 L 24.80685043334961 19.34001159667969 C 24.99065971374512 18.83893013000488 25.06980133056641 18.56418991088867 24.99225044250488 18.45314025878906 C 24.9759407043457 18.42978096008301 24.95351791381836 18.41449356079102 24.92641258239746 18.40798759460449 C 24.98668670654297 18.29363632202148 25.11841201782227 18.03560638427734 24.90157127380371 17.81750106811523 C 24.3983211517334 17.31186103820801 23.1209602355957 16.59049034118652 22.81550025939941 16.59049034118652 C 22.80309104919434 16.59049034118652 22.79195022583008 16.59152030944824 22.78211975097656 16.59341049194336 C 22.25513076782227 16.69493103027344 21.84288024902344 16.99312019348145 21.44420051574707 17.2814998626709 C 20.95287132263184 17.63691139221191 20.44480133056641 18.00440979003906 19.71465110778809 18.00440979003906 C 18.56161117553711 18.00440979003906 17.8417797088623 18.89443016052246 17.00827980041504 19.92500114440918 C 16.4018497467041 20.67480087280273 15.71451091766357 21.52465057373047 14.75459098815918 22.13238143920898 C 14.42945098876953 22.33829116821289 13.99781036376953 22.44268989562988 13.47167015075684 22.44270133972168 C 13.33064079284668 22.44270133972168 13.18029022216797 22.43519020080566 13.02479076385498 22.42038154602051 L 12.97122097015381 22.41526985168457 L 12.97006034851074 22.46907043457031 C 12.96531105041504 22.68903160095215 12.95688056945801 22.90891075134277 12.94502067565918 23.12263107299805 C 12.91617107391357 23.64278030395508 12.71451091766357 23.86518096923828 12.50101089477539 24.10064125061035 C 12.21441078186035 24.41670989990234 11.91805076599121 24.74353981018066 12.05223083496094 25.78278160095215 C 12.22823047637939 27.14688110351562 12.77291107177734 27.60436058044434 13.03466033935547 27.82421112060547 C 13.08570098876953 27.86708068847656 13.14355087280273 27.91567039489746 13.14681053161621 27.93412017822266 C 13.1450309753418 27.95304107666016 13.14518070220947 27.975830078125 13.14544105529785 27.99912071228027 C 13.14580059051514 28.03210067749023 13.14640045166016 28.08728981018066 13.13395023345947 28.09988021850586 C 13.13181018829346 28.10204124450684 13.12531089782715 28.10228157043457 13.1226110458374 28.10228157043457 C 13.10691070556641 28.10228157043457 13.07602024078369 28.0959415435791 13.01805019378662 28.06572151184082 C 12.95392036437988 28.03245162963867 12.85363101959229 27.96265029907227 12.74745082855225 27.88875007629395 C 12.47238063812256 27.69729995727539 12.2678804397583 27.56178092956543 12.14126110076904 27.56178092956543 C 12.1173210144043 27.56178092956543 12.09606075286865 27.56671142578125 12.07806015014648 27.57643127441406 C 11.78521060943604 27.73704147338867 11.58954048156738 28.08118057250977 11.44667053222656 28.33246040344238 C 11.38338088989258 28.44378089904785 11.29669094085693 28.59624099731445 11.26045036315918 28.60276031494141 Z" stroke="none"/>
      <path d="M 27.78647422790527 28.55264472961426 C 29.4724178314209 28.53535079956055 30.89381980895996 25.51609420776367 30.89381980895996 21.94415092468262 C 30.89381980895996 21.02548027038574 30.80355072021484 20.12954139709473 30.62552070617676 19.28120994567871 L 30.61552047729492 19.23353004455566 L 30.63644790649414 19.20867538452148 C 30.28733825683594 17.50249862670898 30.30580520629883 16.01566696166992 30.69268989562988 14.66466045379639 L 30.76136016845703 14.42489051818848 L 30.87736129760742 14.64568042755127 C 31.46236038208008 15.75917053222656 32.60644912719727 16.45089149475098 33.8631591796875 16.45089149475098 C 35.72163009643555 16.45089149475098 37.23361206054688 14.93900108337402 37.23361206054688 13.0806303024292 C 37.23361206054688 12.78284072875977 37.19478225708008 12.48760032653809 37.11819076538086 12.20312023162842 L 37.10134887695312 12.14057064056396 L 37.15153884887695 12.09963035583496 C 38.31729888916016 11.14868068695068 39.01327896118164 9.619290351867676 39.01327896118164 8.00852108001709 C 39.01327896118164 5.217870712280273 36.98237228393555 2.947510719299316 34.48604965209961 2.947510719299316 C 33.5938606262207 2.947510719299316 32.73052215576172 3.237480640411377 31.98936080932617 3.786080598831177 L 31.89041137695312 3.859320640563965 L 31.83901023864746 3.747460603713989 C 31.37655067443848 2.741210699081421 30.55815124511719 1.8796306848526 29.47227096557617 1.25588071346283 C 28.35853004455566 0.6161106824874878 27.04600143432617 0.2779507040977478 25.67658042907715 0.2779507040977478 C 23.08222007751465 0.2779507040977478 20.72355079650879 1.520160675048828 19.6675910949707 3.442630767822266 L 19.57612037658691 3.609160661697388 L 19.49063110351562 3.439480781555176 C 19.0004711151123 2.4665207862854 18.1683406829834 1.636260747909546 17.0842113494873 1.038460731506348 C 15.97079086303711 0.4245107173919678 14.66492080688477 0.1000007018446922 13.30776023864746 0.1000007018446922 C 10.49726104736328 0.1000007018446922 7.974490642547607 1.522080659866333 7.030150413513184 3.63865065574646 L 6.981350421905518 3.748030662536621 L 6.882440567016602 3.680500745773315 C 6.247750759124756 3.247150659561157 5.502670764923096 3.027430772781372 4.667900562286377 3.027430772781372 C 2.149150609970093 3.027430772781372 0.1000006273388863 5.283280849456787 0.1000006273388863 8.056090354919434 C 0.1000006273388863 9.843290328979492 0.7713106274604797 11.34821033477783 1.941790580749512 12.18498039245605 L 1.999850630760193 12.22649097442627 L 1.979460597038269 12.29489040374756 C 1.886680603027344 12.60621070861816 1.839630603790283 12.93044090270996 1.839630603790283 13.25858116149902 C 1.839630603790283 15.11695098876953 3.351610660552979 16.62884140014648 5.210080623626709 16.62884140014648 C 6.626750469207764 16.62884140014648 7.901310443878174 15.73392105102539 8.381650924682617 14.4019603729248 L 8.430820465087891 14.26561069488525 L 8.540830612182617 14.35998058319092 C 8.593230247497559 14.40494060516357 8.647550582885742 14.44753074645996 8.702290534973145 14.48659038543701 C 9.010231018066406 14.70646095275879 8.96427059173584 15.82242107391357 8.863780975341797 17.6250114440918 L 8.857831001281738 17.7318115234375 L 8.852240562438965 17.74640083312988 C 8.392330169677734 18.94774055480957 8.139050483703613 20.43852996826172 8.139050483703613 21.94415092468262 C 8.139050483703613 25.51609420776367 9.560452461242676 28.53535079956055 11.2463960647583 28.55264472961426 C 11.28131866455078 28.52212524414062 11.34855365753174 28.40387725830078 11.40321063995361 28.30774116516113 C 11.54903030395508 28.05127143859863 11.74875068664551 27.70001029968262 12.05429077148438 27.53244018554688 C 12.07966041564941 27.51873016357422 12.10892105102539 27.51177978515625 12.14126110076904 27.51177978515625 C 12.28277015686035 27.51177978515625 12.48446083068848 27.64479064941406 12.77602100372314 27.84771156311035 C 12.88083076477051 27.9206600189209 12.97982025146484 27.98956108093262 13.04116058349609 28.02138137817383 C 13.06476306915283 28.03368377685547 13.08241844177246 28.04108810424805 13.09514999389648 28.04554557800293 C 13.09577560424805 28.03025054931641 13.09558391571045 28.0125675201416 13.09544086456299 27.99967002868652 C 13.09524631500244 27.98218154907227 13.09505176544189 27.9642505645752 13.09583473205566 27.94642639160156 C 13.07984352111816 27.92745399475098 13.03742122650146 27.89183044433594 13.00250053405762 27.86250114440918 C 12.73590087890625 27.63857078552246 12.1811408996582 27.17262077331543 12.00264072418213 25.7891902923584 C 11.86551094055176 24.72705078125 12.16974067687988 24.39153099060059 12.46397018432617 24.06705093383789 C 12.67135047912598 23.83834075927734 12.86723041534424 23.6223201751709 12.89509105682373 23.1198616027832 C 12.90693092346191 22.90670013427734 12.91533088684082 22.68737983703613 12.92007064819336 22.46799087524414 L 12.92240047454834 22.36040115356445 L 13.02953052520752 22.37060165405273 C 13.75405597686768 22.4395809173584 14.32526016235352 22.34508323669434 14.72785091400146 22.09014129638672 C 15.68081092834473 21.4868106842041 16.36540031433105 20.64035987854004 16.96940040588379 19.89355087280273 C 17.81095123291016 18.85303115844727 18.53774070739746 17.95441055297852 19.71465110778809 17.95441055297852 C 20.42862129211426 17.95441055297852 20.90769004821777 17.60787010192871 21.4148998260498 17.24099159240723 C 21.81799125671387 16.94942092895508 22.23480033874512 16.64792060852051 22.77262115478516 16.54432106018066 C 22.78598022460938 16.54174041748047 22.80001068115234 16.54049110412598 22.81550025939941 16.54049110412598 C 23.16314125061035 16.54049110412598 24.45189094543457 17.2947998046875 24.93702125549316 17.78223991394043 C 25.15144157409668 17.99790000915527 25.06007957458496 18.2502613067627 24.99434089660645 18.38492965698242 C 25.0091724395752 18.39554214477539 25.02226638793945 18.40880012512207 25.03324127197266 18.42451095581055 C 25.12395095825195 18.55440139770508 25.04765129089355 18.82877159118652 24.85379981994629 19.35723114013672 L 24.81428146362305 19.46453094482422 C 24.73835372924805 19.67030715942383 24.63933563232422 19.93866157531738 24.61526107788086 20.06955146789551 C 24.98076629638672 19.95691108703613 25.40436363220215 19.90423011779785 25.94013977050781 19.90423011779785 C 25.99455070495605 19.90423011779785 26.04926109313965 19.90476989746094 26.10418128967285 19.90577125549316 L 26.21191024780273 19.90773010253906 L 26.20193099975586 20.01501083374023 C 26.10497093200684 21.05753135681152 26.08273124694824 22.13116073608398 26.13762092590332 23.11985015869141 C 26.16555023193359 23.62230110168457 26.36143112182617 23.83833122253418 26.56881141662598 24.06704139709473 C 26.8630313873291 24.39151000976562 27.16727066040039 24.72702980041504 27.03023147583008 25.78918075561523 C 26.85173034667969 27.17263031005859 26.29687118530273 27.63858032226562 26.03022003173828 27.86250114440918 C 25.99530410766602 27.8918285369873 25.9528980255127 27.92743873596191 25.93689346313477 27.9464168548584 C 25.93769454956055 27.96426582336426 25.93750953674316 27.98230743408203 25.93733024597168 27.99990081787109 C 25.93719291687012 28.01272773742676 25.93700790405273 28.03029441833496 25.9376277923584 28.0455150604248 C 25.95038414001465 28.04104614257812 25.96807098388672 28.03362464904785 25.99172019958496 28.02130126953125 C 26.05288124084473 27.98956108093262 26.1518611907959 27.92068099975586 26.25665092468262 27.84775161743164 C 26.61484146118164 27.59848403930664 26.83925247192383 27.4572582244873 26.97915077209473 27.53275108337402 C 27.28400039672852 27.70000076293945 27.48373031616211 28.05121040344238 27.62957000732422 28.30766105651855 C 27.68425559997559 28.4038257598877 27.75153732299805 28.52211952209473 27.78647422790527 28.55264472961426 M 27.77180099487305 28.6527214050293 C 27.62124061584473 28.6527214050293 27.4019603729248 27.87878036499023 26.93105125427246 27.62042045593262 C 26.78882789611816 27.5437068939209 26.24952125549316 28.00019073486328 26.03777122497559 28.11006164550781 C 25.79254913330078 28.23787879943848 25.84573173522949 28.04472160339355 25.83611106872559 27.93740081787109 C 25.82170104980469 27.7777099609375 26.7005615234375 27.56277084350586 26.93105125427246 25.77638053894043 C 27.16154098510742 23.98999977111816 26.10713005065918 24.37313079833984 26.03777122497559 23.12540054321289 C 25.97970008850098 22.07936096191406 26.0090503692627 21.00901031494141 26.10235977172852 20.00575065612793 C 25.5590934753418 19.99584197998047 25.03897666931152 20.03180885314941 24.57796096801758 20.18660163879395 C 24.40880012512207 20.24328231811523 24.59110260009766 19.78312873840332 24.75991058349609 19.32280158996582 C 24.92730140686035 18.86647033691406 25.08143424987793 18.40999031066895 24.86610984802246 18.4578800201416 C 24.78032302856445 18.47693061828613 25.14208984375 18.13033103942871 24.86610984802246 17.85275077819824 C 24.36141014099121 17.34564971923828 23.03065490722656 16.59652328491211 22.79156112670898 16.64251136779785 C 21.62837982177734 16.86658096313477 21.05625152587891 18.05441093444824 19.71465110778809 18.05441093444824 C 17.7413215637207 18.05441093444824 17.04154014587402 20.74367141723633 14.78134059906006 22.17463111877441 C 14.31431102752686 22.47037887573242 13.690110206604 22.53398513793945 13.02005100250244 22.47014999389648 C 13.01532077789307 22.68901062011719 13.00702095031738 22.90781021118164 12.99494075775146 23.12540054321289 C 12.92575073242188 24.37313079833984 11.87117099761963 23.98999977111816 12.10182094573975 25.77638053894043 C 12.33231067657471 27.56277084350586 13.21101093292236 27.7777099609375 13.19660091400146 27.93740081787109 C 13.18715000152588 28.04471969604492 13.24017238616943 28.23788261413574 12.99494075775146 28.11006164550781 C 12.7831916809082 28.00019073486328 12.24389171600342 27.54370880126953 12.10182094573975 27.62042045593262 C 11.63075065612793 27.87878036499023 11.41164016723633 28.6527214050293 11.26107025146484 28.6527214050293 C 9.540980339050293 28.6527214050293 8.039051055908203 25.67916107177734 8.039051055908203 21.94415092468262 C 8.039051055908203 20.35140991210938 8.31212043762207 18.87757110595703 8.758851051330566 17.71065139770508 C 8.842180252075195 16.21367073059082 8.928740501403809 14.77115058898926 8.644180297851562 14.56798076629639 C 8.586071014404297 14.52651023864746 8.529900550842285 14.48236083984375 8.475720405578613 14.43588066101074 C 7.993530750274658 15.77298069000244 6.7134108543396 16.72883987426758 5.210080623626709 16.72883987426758 C 3.293460607528687 16.72883987426758 1.739630579948425 15.17518043518066 1.739630579948425 13.25858116149902 C 1.739630579948425 12.91390037536621 1.789920568466187 12.5807409286499 1.883630633354187 12.26633071899414 C 0.6993106007575989 11.41967105865479 6.24999984211172e-07 9.897570610046387 6.24999984211172e-07 8.056090354919434 C 6.24999984211172e-07 5.205700874328613 2.112350702285767 2.927430629730225 4.667900562286377 2.927430629730225 C 5.542120456695557 2.927430629730225 6.30871057510376 3.167690753936768 6.938830852508545 3.597910642623901 C 7.874550819396973 1.500640749931335 10.37292098999023 7.025146260275505e-07 13.30776023864746 7.025146260275505e-07 C 16.14681053161621 7.025146260275505e-07 18.5772705078125 1.404210686683655 19.57994079589844 3.394490718841553 C 20.62107086181641 1.499030709266663 22.95926094055176 0.1779506951570511 25.67658042907715 0.1779506951570511 C 28.54047012329102 0.1779506951570511 30.98293113708496 1.645270705223083 31.92987060546875 3.705700635910034 C 32.66234970092773 3.163530588150024 33.54119873046875 2.847510814666748 34.48604965209961 2.847510814666748 C 37.04161071777344 2.847510814666748 39.11328125 5.158130645751953 39.11328125 8.00852108001709 C 39.11328125 9.72074031829834 38.36576080322266 11.23820114135742 37.21475219726562 12.17712116241455 C 37.29228210449219 12.46510028839111 37.33361053466797 12.76798057556152 37.33361053466797 13.0806303024292 C 37.33361053466797 14.99723052978516 35.77976989746094 16.55088996887207 33.8631591796875 16.55088996887207 C 32.52828216552734 16.55088996887207 31.36937141418457 15.79719066619873 30.7888298034668 14.6921911239624 C 30.47185134887695 15.79908084869385 30.3334903717041 17.26243019104004 30.74412155151367 19.23567008972168 C 30.73727035522461 19.24405097961426 30.73031997680664 19.25244140625 30.72339057922363 19.26067161560059 C 30.89665985107422 20.0863208770752 30.99382019042969 20.99402046203613 30.99382019042969 21.94415092468262 C 30.99382019042969 25.67916107177734 29.49188041687012 28.6527214050293 27.77180099487305 28.6527214050293 Z" stroke="none" fill="#000"/>
    </g>
    <path id="Path_806" data-name="Path 806" d="M0,0A4.192,4.192,0,0,1,1.791,1,6.7,6.7,0,0,1,3.025,3.025" transform="translate(7.17 8.987)" fill="none" stroke="#fff" stroke-width="0.1" opacity="0.64"/>
    <path id="Path_807" data-name="Path 807" d="M3.025,0A4.192,4.192,0,0,0,1.235,1,6.7,6.7,0,0,0,0,3.025" transform="translate(28.662 8.834)" fill="none" stroke="#fff" stroke-width="0.1" opacity="0.64"/>
    <path id="Path_808" data-name="Path 808" d="M.458-2.435A6.549,6.549,0,0,1,2.009,2.308,32.335,32.335,0,0,1-.1,9.756" transform="translate(10.627 8.676)" fill="none" stroke="#fff" stroke-width="0.1" opacity="0.64"/>
    <path id="Path_809" data-name="Path 809" d="M1.475-2.435A6.549,6.549,0,0,0-.077,2.308,32.335,32.335,0,0,0,2.029,9.756" transform="translate(26.141 8.352)" fill="none" stroke="#fff" stroke-width="0.1" opacity="0.64"/>
    <path id="Path_810" data-name="Path 810" d="M0,0A3.832,3.832,0,0,1,3.589,2.633C4.346,5.258,2.57,9.26,2.57,9.26" transform="translate(6.281 10.59)" fill="none" stroke="#fff" stroke-width="0.1" opacity="0.64"/>
    <path id="Path_811" data-name="Path 811" d="M3.777,0A3.832,3.832,0,0,0,.188,2.633C-.569,5.258,1.207,9.26,1.207,9.26" transform="translate(28.701 10.59)" fill="none" stroke="#fff" stroke-width="0.1" opacity="0.64"/>
    <path id="Path_812" data-name="Path 812" d="M-1.822,0A20.043,20.043,0,0,0-3.463,5.024a6.56,6.56,0,0,0,.573,3.7" transform="translate(13.971 17.352)" fill="none" stroke="#fff" stroke-width="0.1" opacity="0.64"/>
    <path id="Path_813" data-name="Path 813" d="M.311,0A13.854,13.854,0,0,1,.169,3.492C.034,4.575-.843,5.729-1.05,6.971A8.474,8.474,0,0,0-.935,9.966" transform="translate(13.979 12.19)" fill="none" stroke="#fff" stroke-width="0.1" opacity="0.64"/>
    <path id="Path_814" data-name="Path 814" d="M-.982,0a4.912,4.912,0,0,0-.14,2.138,3.376,3.376,0,0,0,1.03,1.6" transform="translate(14.91 18.598)" fill="none" stroke="#fff" stroke-width="0.1" opacity="0.64"/>
    <path id="Path_815" data-name="Path 815" d="M0,0A6.829,6.829,0,0,0,.543,1.119a4.486,4.486,0,0,0,.7.839" transform="translate(8.943 24.648)" fill="none" stroke="#fff" stroke-width="0.1" opacity="0.64"/>
    <path id="Path_816" data-name="Path 816" d="M.341,0S.858.276.724,3.123C.663,4.433.01,6.264-.193,7.933a5.717,5.717,0,0,0,.534,3.214" transform="translate(15.73 9.877)" fill="none" stroke="#fff" stroke-width="0.1" opacity="0.64"/>
    <path id="Path_817" data-name="Path 817" d="M2.754.02a5.442,5.442,0,0,1,.177,4.189C2.67,5.145,1.3,6.975.826,8.087A8.229,8.229,0,0,0,0,10.872" transform="translate(16.424 8.438)" fill="none" stroke="#fff" stroke-width="0.1" opacity="0.64"/>
    <path id="Path_818" data-name="Path 818" d="M2.67,0A16.187,16.187,0,0,1,2.01,4.394,14.459,14.459,0,0,1,0,8.186" transform="translate(19.799 7.92)" fill="none" stroke="#fff" stroke-width="0.1" opacity="0.64"/>
    <path id="Path_819" data-name="Path 819" d="M1.6,0a4.6,4.6,0,0,1-.567,1.107A10.261,10.261,0,0,1,0,2.314c.014-.014,0,0,0,0" transform="translate(19.799 15.75)" fill="none" stroke="#fff" stroke-width="0.1" opacity="0.64"/>
    <path id="Path_820" data-name="Path 820" d="M.89,0a6.741,6.741,0,0,1,0,2.248A5,5,0,0,1,0,4.093" transform="translate(21.941 12.904)" fill="none" stroke="#fff" stroke-width="0.1" opacity="0.64"/>
    <path id="Path_821" data-name="Path 821" d="M.712,0A5.339,5.339,0,0,1,.593,1.482,5.307,5.307,0,0,1,0,2.845" transform="translate(25.322 15.575)" fill="none" stroke="#fff" stroke-width="0.1" opacity="0.64"/>
    <path id="Path_822" data-name="Path 822" d="M1.37,2.836A1.608,1.608,0,0,1,1.1,4.1,6.963,6.963,0,0,1,0,5.535" transform="translate(25.145 14.487)" fill="none" stroke="#fff" stroke-width="0.1" opacity="0.64"/>
    <path id="Path_796" data-name="Path 796" d="M0,0S.453.2.542,1.137a13.571,13.571,0,0,1-.186,2.6" transform="translate(27.281 19.487)" fill="none" stroke="#fff" stroke-width="0.1" opacity="0.64"/>
    <path id="Path_797" data-name="Path 797" d="M.534,0a3.977,3.977,0,0,1,0,1.353A4.668,4.668,0,0,1,0,2.67" transform="translate(28.17 21.268)" fill="none" stroke="#fff" stroke-width="0.1" opacity="0.64"/>
    <path id="Path_798" data-name="Path 798" d="M.155,2.94A13.017,13.017,0,0,0,1.108,1.7a8.943,8.943,0,0,0,.8-1.7" transform="translate(28.398 23.581)" fill="none" stroke="#fff" stroke-width="0.1" opacity="0.64"/>
    <path id="Path_823" data-name="Path 823" d="M4.072-.694a3.582,3.582,0,0,0-2.5.184C.687.113.623,2.482.623,2.482" transform="translate(29.438 14.307)" fill="none" stroke="#fff" stroke-width="0.1" opacity="0.64"/>
    <path id="Path_833" data-name="Path 833" d="M-.245,1.964A3.146,3.146,0,0,1,.5.573,2.782,2.782,0,0,1,1.912,0" transform="translate(2.145 10.59)" fill="none" stroke="#fff" stroke-width="0.1" opacity="0.64"/>
    <path id="Path_824" data-name="Path 824" d="M-.256-19.156S-1.211-24.374,4.8-23.1C9.554-21.65,7.93-13.995,7.93-13.995" transform="translate(2.973 29.033)" fill="none" stroke="#fff" stroke-width="0.1" opacity="0.64"/>
    <path id="Path_825" data-name="Path 825" d="M0,0S3.176.568,4.066,2.926s-.506,6.507-.506,6.507" transform="translate(9.48 4.54)" fill="none" stroke="#fff" stroke-width="0.1" opacity="0.64"/>
    <path id="Path_826" data-name="Path 826" d="M-2.312-1.5S.85-2.253,2.941-.963,6.464,3.75,6.464,3.75" transform="translate(11.385 4.703)" fill="none" stroke="#fff" stroke-width="0.1" opacity="0.64"/>
    <path id="Path_827" data-name="Path 827" d="M-1.916-1.427A6.363,6.363,0,0,1,1.941.524,9.671,9.671,0,0,1,3.315,5.067" transform="translate(15.373 1.705)" fill="none" stroke="#fff" stroke-width="0.1" opacity="0.64"/>
    <path id="Path_829" data-name="Path 829" d="M8.142-19.156S9.1-24.374,3.084-23.1C-1.667-21.65-.044-13.995-.044-13.995" transform="translate(27.857 29.033)" fill="none" stroke="#fff" stroke-width="0.1" opacity="0.64"/>
    <path id="Path_830" data-name="Path 830" d="M4.362,0S1.186.568.3,2.926.8,9.432.8,9.432" transform="translate(24.869 4.54)" fill="none" stroke="#fff" stroke-width="0.1" opacity="0.64"/>
    <path id="Path_831" data-name="Path 831" d="M6.464-1.5S3.3-2.253,1.211-.963-2.312,3.75-2.312,3.75" transform="translate(23.178 4.703)" fill="none" stroke="#fff" stroke-width="0.1" opacity="0.64"/>
    <path id="Path_832" data-name="Path 832" d="M3.315-1.427A6.363,6.363,0,0,0-.541.524,9.671,9.671,0,0,0-1.916,5.067" transform="translate(22.367 1.705)" fill="none" stroke="#fff" stroke-width="0.1" opacity="0.64"/>
    <path id="Path_828" data-name="Path 828" d="M2.147,1.722A3.591,3.591,0,0,0,1.371.712,3.784,3.784,0,0,0,0,0" transform="translate(34.986 10.501)" fill="none" stroke="#fff" stroke-width="0.1" opacity="0.64"/>
  </g>
  <text id="Toxic_Clouds" data-name="Toxic Clouds" transform="translate(35 56.742)" fill="#fff" font-size="8" font-family="SegoeUI-Bold, Segoe UI" font-weight="700"><tspan x="-23.453" y="0">Toxic Clouds</tspan></text>
  <rect id="Rectangle_1501" data-name="Rectangle 1501" width="70" height="70" fill="none"/>
</svg>
