<svg id="Component_237_2" data-name="Component 237 – 2" xmlns="http://www.w3.org/2000/svg" width="70" height="70" viewBox="0 0 70 70">
  <path id="Subtraction_364" data-name="Subtraction 364" d="M13.155,37.035a3.644,3.644,0,0,1-1.622-.308,2.017,2.017,0,0,1-1.355-2.079L8.22,35.2H8.161a1.758,1.758,0,0,1-1.3-.553,2.756,2.756,0,0,1-.717-2.166,2.633,2.633,0,0,1,.266-.992l0-.006,0-.005,0-.01a2.351,2.351,0,0,0,.161-.427c.083-.328-.176-.438-.405-.535l-.006,0-.012,0-.007,0a.617.617,0,0,1-.272-.164.682.682,0,0,1,0-.561c-.024.046-.1.185-.168.185-.046,0-.08-.064-.1-.189-.04-.26-.116-.823-.212-1.583l0-.013c0-.007,0-.013,0-.019V28.14c0-.01,0-.016,0-.016a4.182,4.182,0,0,1-.447-.32,5.228,5.228,0,0,1-.788-.865,2.008,2.008,0,0,1-1.2-.744A3.4,3.4,0,0,1,2.4,24.935l0-.01v-.005l0-.014,0-.006,0-.013a6.759,6.759,0,0,0-.29-.872,1.439,1.439,0,0,1-.161-.835.331.331,0,0,1,.106-.213c.017.034.387.814.624.814a.125.125,0,0,0,.1-.065c-.049-.1-.156-.337-.095-.393a.45.45,0,0,1,.136-.047l.011,0,.022-.006.03-.007c.238-.06.6-.151.652-.311a.172.172,0,0,0-.051-.167,1.311,1.311,0,0,0-.733-.3H2.735a2.442,2.442,0,0,1-1-.375A2.3,2.3,0,0,1,1.1,21.46a1.752,1.752,0,0,1-.209-.852,1.979,1.979,0,0,1,.248-.955,2.576,2.576,0,0,1,.268-.422l0,0,0,0-.008-.006C1.057,18.944.774,18.7.6,18.531a2.47,2.47,0,0,1-.44-1c-.05-.128.024-.288.128-.509l0-.008A3,3,0,0,0,.629,15.49,8.118,8.118,0,0,0,0,13.055a2.09,2.09,0,0,1,1.294.6.908.908,0,0,0,.6.314c.022,0,.045,0,.066,0h.017c.614-.073.94-.857.975-.946l.6-1.4a1.237,1.237,0,0,1,.182-.451,2.157,2.157,0,0,1,.4-.415L5.4,9.5a2.779,2.779,0,0,1,.189-1.382,1.994,1.994,0,0,1,.487-.676l0-.005.014-.014.012-.011c.05-.047.1-.1.164-.166a1.048,1.048,0,0,1,.77-.376h.007a.5.5,0,0,1,.072,0,1.351,1.351,0,0,1,.607.2,1.532,1.532,0,0,0-.769.445A1.784,1.784,0,0,0,6.5,8.865c.041.315.145.475.307.475.212,0,.466-.28.566-.4a1.845,1.845,0,0,1-.421.744c-.212.232-.509.5-.772.732l-.013.011-.005,0-.006.005-.012.011a6.444,6.444,0,0,0-.739.723,1.017,1.017,0,0,0-.205.887.1.1,0,0,0,.089.063c.05,0,.135-.04.255-.233A9.162,9.162,0,0,1,6.445,10.8l.02-.023.01-.01,0-.006.015-.017a13.045,13.045,0,0,0,1.232-1.5c.345-.536.349-.681.354-.848a1.1,1.1,0,0,1,.08-.411,2.315,2.315,0,0,1,.464-.867l.039-.05a.907.907,0,0,0,.217-.571,3.247,3.247,0,0,0,.111-1.978C8.877,3.8,8.778,3.187,9.4,2.8a1.135,1.135,0,0,1,.576-.315,1.249,1.249,0,0,1,.249-.022,2.668,2.668,0,0,1,.568.068c-.034.027-.833.629-.817,1.24a.15.15,0,0,0,.1.041c.175,0,.433-.259.759-.587l.014-.013,0,0A5.541,5.541,0,0,1,12.261,2.08a4.9,4.9,0,0,1,1.755-.559.386.386,0,0,1,.314.1.284.284,0,0,1,.034.258c-.035.145-.055.194-.079.194s-.021-.008-.038-.023l-.011-.008a.04.04,0,0,0-.009-.007l-.005,0a.207.207,0,0,0-.129-.046c-.213,0-.551.289-1,.858l-.007.013a10.675,10.675,0,0,1-1.392,1.872,3.7,3.7,0,0,1-.336.26c-.271.191-.335.236-.5,1.094a4.68,4.68,0,0,0-.015,1.541v.021a4.31,4.31,0,0,1,.015,1.217c-.151.939-.319.979-.6,1.046l-.018,0h-.023c-.268,0-.731-1.043-.821-1.252l0-.006a9.949,9.949,0,0,0-.922,2.191c0,.064.019.1.055.1.185,0,.749-.8.813-.9a.357.357,0,0,1,.09.187l0,.008a.468.468,0,0,0,.193.307c.007.02-.037.066-.1.129l-.006.006L9.51,10.7a1.062,1.062,0,0,0-.388,1.191l.851-.849a1.814,1.814,0,0,1,.514-.587,2.237,2.237,0,0,1,.833-.283c.126-.592.333-.65.5-.7a.264.264,0,0,0,.2-.14.45.45,0,0,1-.072-.4,1.438,1.438,0,0,1,.365-.456,1.307,1.307,0,0,0-.309-1l0-.006a1.517,1.517,0,0,1-.273-1.551,3.881,3.881,0,0,1,1.122-1.294,6.348,6.348,0,0,1,1.51-.962v.284h.293c.02.052-.078.169-.226.346l0,.005a3.631,3.631,0,0,0-.8,1.348,2.388,2.388,0,0,1,.332,1.258v.018a2.626,2.626,0,0,0,.113.717l.026,0a.334.334,0,0,1,.266.178,3.158,3.158,0,0,1,.292.665l0,.008a.763.763,0,0,1,.176-.112c0-.009.014-.044.115-.172.455-.371.379-.811.3-1.278a1.665,1.665,0,0,1,.126-1.279,1.836,1.836,0,0,1,1.565-.971l.054-.012.028-.005c.121-.023.255-.049.4-.082,0,.209-.3.474-.556.709l0,0,0,0-.008.008,0,0-.005.005c-.217.195-.441.4-.441.528,0,.315.076,1.005.3,1.005a.132.132,0,0,0,.053-.012c.1-.042.072-.12.036-.229l0-.006c-.071-.2-.178-.508.362-.892a1.974,1.974,0,0,0,.644-1.378,4.579,4.579,0,0,0,.016-.931V3.395h0a2.5,2.5,0,0,1-.082-.568,2.89,2.89,0,0,1,.26-1.312A3.411,3.411,0,0,1,18.868.389,3.548,3.548,0,0,1,19.406,0s-.142.322-.064.491c.017.038.035.06.053.064a4.067,4.067,0,0,0-.611,1.525,1.728,1.728,0,0,1,.465,1.254v.009a3.254,3.254,0,0,0,.092.737c.159.615.393.706.518.706a.2.2,0,0,0,.068-.011s-.071.314,0,.385a.493.493,0,0,0,.281.078.228.228,0,0,0,.2-.078.425.425,0,0,0,.041-.3c.059-.016.349-.131.305-.905-.027-.494-.13-1.5-.3-2.9L20.452,1l.413.449a8,8,0,0,0,.408,1.8l0,.007,0,.006A3.027,3.027,0,0,1,21.1,5.926c-.105.038-.2.076-.283.107a1.777,1.777,0,0,1-.795.17c-.465-.2-.654-.977-.779-1.493V4.7c-.065-.278-.12-.519-.2-.519-.054,0-.119.126-.205.4-.264.84-.1,1.049.1,1.291a1.112,1.112,0,0,1,.288.659,4.838,4.838,0,0,1-.035.966l0,.03v.009c-.035.311-.066.58.02.671a.109.109,0,0,0,.083.034.319.319,0,0,0,.124-.032c.219-.1.223-.236.229-.409V7.795a.907.907,0,0,1,.53-.854,2.862,2.862,0,0,1,1.108-.508l.009,0a2.733,2.733,0,0,0,.9-.38c.65-.454.668-.82.668-.823.338.243.329.707-.024,1.306A2.008,2.008,0,0,1,22,7.248l-.009.005a2.632,2.632,0,0,0-.576.406c-.349.35-.381.471-.425.639l0,.013v.005l0,.01,0,.007,0,.009,0,.015,0,.007-.006.021c0,.013-.008.027-.013.042-.077.232.182.623.235.7a.475.475,0,0,1,0,.389,3.194,3.194,0,0,1-1.019,1.27,2.527,2.527,0,0,1-.554.2l-.01,0-.006,0-.015,0a6.778,6.778,0,0,0-1.327.513,1.187,1.187,0,0,0-.562.812.881.881,0,0,0,.175.719,1.112,1.112,0,0,1,.189.321l0,.01c.092.224.171.418.947.738a.23.23,0,0,0,.1.029.074.074,0,0,0,.071-.042.636.636,0,0,0-.127-.495.846.846,0,0,0-.249-.2.7.7,0,0,1-.338-.335.5.5,0,0,1,.027-.362l0-.008,0-.008a1.153,1.153,0,0,0,.08-.474c-.013-.356-.035-.383-.041-.383a.77.77,0,0,1,.531-.137h.011a1.382,1.382,0,0,0,.556-.094c-.006.009-.6.94-.305,1.293.367.445.985,1.225,1.184,1.55a2.013,2.013,0,0,1,.213.758v.005l0,.018a1.758,1.758,0,0,0,.073.352h.293a3.6,3.6,0,0,1,.036-2.16,1.436,1.436,0,0,1,.862-.664l0,0a1.708,1.708,0,0,0,.835-.572c.417-.6.722-.727.905-.727a.3.3,0,0,1,.186.057.892.892,0,0,1-.094.368,4.965,4.965,0,0,1-.855,1.239,1.416,1.416,0,0,1-.517.419l0,0-.005,0a1.348,1.348,0,0,0-.594.529c-.159.4-.019.517.159.666.23.191.516.429.271,1.391.116.235.234.36.34.36s.194-.128.247-.36a2.38,2.38,0,0,0-.192-1.77,2.478,2.478,0,0,1,.583.354c.261.218.274.295.274.5a1.61,1.61,0,0,1-.028.238v.006a.665.665,0,0,0,.029.478.236.236,0,0,0,.188.077.326.326,0,0,0,.243-.108.444.444,0,0,0,.076-.392,2.678,2.678,0,0,0-.773-1.281l0,0,0,0c-.19-.214-.064-.563.076-.819a3.331,3.331,0,0,1,.347-.511,1.941,1.941,0,0,0,.275.624l.005.006,0,0a1.4,1.4,0,0,1,.365.7c.01.037.021.083.035.146l.005.023.007.027,0,.009a1.619,1.619,0,0,0,.221.6s.364-.092.364-.649a2.445,2.445,0,0,0-.43-1.244l0-.006-.01-.019c-.046-.081-.116-.209-.192-.353a8.552,8.552,0,0,1-.374-2.21A2.434,2.434,0,0,1,24.6,8.59,1.743,1.743,0,0,1,26,7.681l.088-.022L26.3,7.6l.105-.031.064-.019.662-.191.009,0,.009,0,.007,0,.007,0,.03-.009.017-.005.049-.014.056-.016.037-.011.008,0a6.081,6.081,0,0,0-1.87,1.636c-.268.463-.37.9-.254,1.092a.211.211,0,0,0,.2.1.667.667,0,0,0,.255-.064,5.363,5.363,0,0,1,2.1-1.166,8.165,8.165,0,0,0-1.3,1.165c-.083.121-.1.22-.065.3.054.106.212.133.277.14l1.533-.947a8.878,8.878,0,0,0-.675.813c-.294.407-.627.968-.547,1.327a4.687,4.687,0,0,0,.344.929l.006.013.006.013,0,.006,0,.009.005.01a7.811,7.811,0,0,1,.463,1.223,3.84,3.84,0,0,1,.173,1.026v.014c0,.1,0,.144.059.173a.049.049,0,0,0,.026.006c.065,0,.154-.108.237-.289a2.39,2.39,0,0,0,.181-.638.811.811,0,0,0-.127-.526.494.494,0,0,1-.051-.535,1.511,1.511,0,0,1,.669-.6s-.185.416-.114.6a.38.38,0,0,0,.383.243.743.743,0,0,0,.211-.033.863.863,0,0,0,.434-.378,2.272,2.272,0,0,1,.2-.25c.035-.112.058-.2.075-.27a8.082,8.082,0,0,1-.305,1.643,3.056,3.056,0,0,1-.408.753l0,0,0,0,0,0a2.6,2.6,0,0,0-.471,1.02c-.245.815-.14.973.887,2.161.1.111.192.225.306.367l.016.02.01.011.007.01c.363.445.65.8.986.8a.523.523,0,0,0,.152-.023,1.347,1.347,0,0,1,.308-1.71l.013-.015,0,0a1.309,1.309,0,0,0,.192-.245,2.735,2.735,0,0,0-.114.859c.05.1.121.228.153.285a.29.29,0,0,0,.015.03,3.187,3.187,0,0,1,.644,1.4,3.114,3.114,0,0,1-.068,1.411,6.791,6.791,0,0,1-.63,1.525,1.39,1.39,0,0,1-1,.745c-.29.082-.541.152-.635.529a.97.97,0,0,0,.266.976l0,0,.006,0,0,.005a1.2,1.2,0,0,1,.28.489c.094.41.03.508.006.545-.007.01-.011.017-.006.023a.182.182,0,0,0,.082.021.651.651,0,0,0,.419-.294,1.025,1.025,0,0,0,.265-.79,2.94,2.94,0,0,0-.259-.641h.009c.214.018.929.108,1.16.532a1.669,1.669,0,0,1-.931,2.214l-.009,0-.022.009-.009,0-.005,0a.961.961,0,0,0-.157.085,1.832,1.832,0,0,1-.59.194l-1.292,1.584a.976.976,0,0,1-.516.2h-.006a.959.959,0,0,0-.627.284l-1.317.287a1.53,1.53,0,0,1-.747.792l0,0c-.255.165-.456.295-.418.46a.488.488,0,0,0,.219.29l0,0a1.009,1.009,0,0,1,.421.713c.021.114.046.22.07.323l0,.005,0,.019v.007a1.743,1.743,0,0,1-.2,1.613,2.453,2.453,0,0,1-2,1.13,1.827,1.827,0,0,1-.229.014,3.949,3.949,0,0,1-1.778-.575l0,.006a2.131,2.131,0,0,1-.093,1.214,2.835,2.835,0,0,1-.9.81,1.983,1.983,0,0,1-1.435.421,12.257,12.257,0,0,1-3.352-.662.988.988,0,0,0-.246-.032.675.675,0,0,0-.216.032.506.506,0,0,0-.184.112l0,0a.716.716,0,0,1-.375.174c-.356.07-1.053.286-1.06.288h-.006A7.508,7.508,0,0,1,13.155,37.035Zm-.5-2.918c-.034,0-.126.021-.252.22a1.217,1.217,0,0,0-.218.9c.517,1.119.983,1.206,1.113,1.206a.227.227,0,0,0,.049,0,.679.679,0,0,0,.158-.965,2.509,2.509,0,0,1-.142-.367c-.109-.385-.109-.385-.082-.558l.009-.057a.755.755,0,0,0-.542-.383.255.255,0,0,0-.077.012A.055.055,0,0,0,12.655,34.117Zm7.444.059h0a.735.735,0,0,0-.526.372l.008.056c.026.167.026.167-.08.539a2.434,2.434,0,0,1-.138.355.658.658,0,0,0,.153.935.212.212,0,0,0,.048,0c.127,0,.579-.084,1.079-1.168a1.184,1.184,0,0,0-.211-.871c-.123-.193-.212-.213-.245-.213a.049.049,0,0,0-.015,0,.245.245,0,0,0-.074-.011Zm-5.986-.809a.611.611,0,0,0-.482.186.535.535,0,0,0-.131.436c0,.072,0,.162-.006.28a3.2,3.2,0,0,0,.277,1.3,1,1,0,0,0,.479.406h.005c.649-.05.615-.532.593-.851l0-.048-.075-1.361a.7.7,0,0,0-.524-.347.273.273,0,0,0-.06.006S14.158,33.367,14.113,33.367Zm4.474-.013a.7.7,0,0,0-.519.324l-.122,1.34-.005.048c-.034.314-.085.788.554.858H18.5a1.033,1.033,0,0,0,.486-.384,3.194,3.194,0,0,0,.319-1.271c0-.116,0-.2,0-.275a.526.526,0,0,0-.113-.435.625.625,0,0,0-.5-.2h-.043A.272.272,0,0,0,18.587,33.354Zm-8.2-1.854h0a2.4,2.4,0,0,1,.67.249,1.23,1.23,0,0,1,.664.8.547.547,0,0,1-.2.614,2.288,2.288,0,0,0-.661,1.274c-.024.2.247.571.48.842a4.646,4.646,0,0,0,.55.56c.027,0,.14-.014.171-.055a.033.033,0,0,0,.006-.032,3.141,3.141,0,0,0-.188-.411c-.124-.245-.265-.523-.218-.63a3.034,3.034,0,0,1,.382-.219c.069-.037.1-.052.1-.054a.323.323,0,0,0,.006-.059.814.814,0,0,1,.222-.593.263.263,0,0,1,.16-.047,1.633,1.633,0,0,1,.688.282v-.006c0-.171.043-.738.385-.866a.726.726,0,0,1,.4-.121,1.273,1.273,0,0,1,.806.4.022.022,0,0,1,0-.007c.035-.144.176-.621.51-.695a1.607,1.607,0,0,1,.27-.024.784.784,0,0,1,.832.577l0,0c.073-.142.344-.606.783-.61h.032a.724.724,0,0,1,.637.332,1.587,1.587,0,0,1,.113.2c.037.072.068.135.1.135a.653.653,0,0,0,.2-.092l.006,0a1.351,1.351,0,0,1,.6-.217.5.5,0,0,1,.112.013,1.1,1.1,0,0,1,.563,1c0,.082.007.124.027.124s.029-.015.054-.046a.633.633,0,0,1,.537-.268.466.466,0,0,1,.391.163.292.292,0,0,1,.008.3c.122.226.173.271.219.271a.146.146,0,0,0,.051-.013l.009,0a.2.2,0,0,1,.081-.018.444.444,0,0,1,.242.1A1.82,1.82,0,0,1,21,35.3l0,.008a1.389,1.389,0,0,0-.147.49.015.015,0,0,0,.013.006,1.352,1.352,0,0,0,.552-.337,1.713,1.713,0,0,0,.534-.761,7.511,7.511,0,0,0-.1-.884,2.038,2.038,0,0,1-.63-.885l0-.009a.668.668,0,0,0-.073-.164.912.912,0,0,1,.286-.685,1.959,1.959,0,0,1,1.066-.519l.223,2.146a2.207,2.207,0,0,0,1.4.6,2.136,2.136,0,0,0,1.72-1.1,1.5,1.5,0,0,0-.445-1.585c-.21-.235-.375-.421-.246-.661.021-.006.094-.041.176-.259a6.069,6.069,0,0,0,.247-1.7c.025-.049-.024-.1-.04-.114a.12.12,0,0,0-.1-.045,1.871,1.871,0,0,0-.665.308,1.941,1.941,0,0,1-.569.276,2.744,2.744,0,0,1,.536-.908,6.517,6.517,0,0,0,.717-1.087,1.918,1.918,0,0,0-.2-1.391,4.394,4.394,0,0,0-.777-1.341c-.462-.129-.4-1.931-.3-2.626.032-.216.068-.339.1-.339.006,0,.012,0,.017.014.124.22.23.332.315.332a.107.107,0,0,0,.077-.036c.237-.24.166-1.655.165-1.669-.085-.2-.239-.426-.374-.426a.467.467,0,0,0-.124.144c-.091.139-.2.312-.659.312a3.017,3.017,0,0,1-.5-.049c-.4.018-.453.156-.515.316a.572.572,0,0,1-.347.374,2.094,2.094,0,0,1-.8.193.91.91,0,0,1-.655-.247,1.649,1.649,0,0,1-.385-1.043,1.508,1.508,0,0,0,.777.274.749.749,0,0,0,.652-.367,1.285,1.285,0,0,0-.026-.146l0-.015c-.041-.185-.084-.376.154-.528a2.814,2.814,0,0,0,1.119.25A2.339,2.339,0,0,0,25.242,18.1c.17-.35.2-.67.071-.816a.208.208,0,0,1-.113-.13c-.084-.279.28-.856.666-1.467l0-.006a4.676,4.676,0,0,0,.709-1.393,1.965,1.965,0,0,0-.522-1.256,5.713,5.713,0,0,0-.593-.646l0,0a.059.059,0,0,1,.006.016,11.714,11.714,0,0,1,.32,1.228c.119.6.2,1.379-.072,1.676-.968.907-.886,1.465-.821,1.914a1.1,1.1,0,0,1-.01.557,1.938,1.938,0,0,1-1.574,1.2,1.605,1.605,0,0,1-.913-.319c-.187-.069-.341-.485-.49-.888l0-.013c-.155-.422-.3-.82-.48-.859a1.47,1.47,0,0,1-.58-.314,1.169,1.169,0,0,0-.589-.3l-.036-.01-.015,0a2.55,2.55,0,0,0-.72-.123,1.049,1.049,0,0,0-.61.166h0l0,0c-.006-.01,0-.041.02-.088a.679.679,0,0,0-.133-.792c.556-.02.8-.061.815-.14.022-.108-.4-.286-1.046-.555l-.041-.017-.116-.049a5.446,5.446,0,0,0-1.552-.238,6.109,6.109,0,0,0-.746.051l-.057.007-.043.005a3.553,3.553,0,0,1-.437.039c-.345,0-.563-.131-.726-.823-.014-.074-.032-.151-.051-.232l0-.01A1.4,1.4,0,0,1,15.2,11.8a9.007,9.007,0,0,0,1.523-1.609,3.125,3.125,0,0,0,.53-1.121,1.06,1.06,0,0,0-.116-.87V8.21a4.768,4.768,0,0,1-.147.83,1.682,1.682,0,0,1-.734,1.106c-2.186,2.183-2.4,3.247-2.048,4.555a2.49,2.49,0,0,0,2.254,1.783h.008c.237,0,.494-.286.716-.554.03-.035.059-.071.087-.106l.009-.011c.194-.234.361-.437.48-.437a.1.1,0,0,1,.059.021c.461.308.252.759.03,1.235s-.442.951-.03,1.319a1.248,1.248,0,0,0,.449.087,1.4,1.4,0,0,0,1.137-.678c-.156,1.01-.54,1.522-1.141,1.522a3.252,3.252,0,0,1-1.877-1.11c-2.389-.395-2.884-1.038-3.781-2.206l-.089-.116c-.071-.092-.143-.186-.221-.284a2.314,2.314,0,0,1-.415-2.029,3.184,3.184,0,0,1,.415-.977,3.432,3.432,0,0,0-.587.374,2,2,0,0,0-.742,1.025,1.405,1.405,0,0,0,.36,1.236,9.336,9.336,0,0,0,1.44,1.49.544.544,0,0,1,.257.579,1.188,1.188,0,0,0,.271.908c.2.346.425.522.669.522.4,0,.717-.469.752-.522.611.2.9.5.835.874a1.447,1.447,0,0,1-.589.808,1.615,1.615,0,0,1-.783.368.177.177,0,0,1-.091-.02c-2.318-.926-2.229-1.654-2.144-2.358a1.352,1.352,0,0,0-.207-1.116c-.817-1.067-1.033-1.182-1.087-1.182a.025.025,0,0,0-.026.019,2.445,2.445,0,0,1,.158,1.591.963.963,0,0,1-.964.547,1.607,1.607,0,0,1-.214-.014s0,0,0,.005a2.609,2.609,0,0,0,.131.579,1.657,1.657,0,0,0,.694.907,1.25,1.25,0,0,0,.151.009,1.122,1.122,0,0,0,.809-.34c.067-.063.122-.126.171-.181.082-.092.142-.159.19-.159.026,0,.049.019.069.058.087.163-.174.629-.4,1.04l0,.005c-.2.362-.4.7-.328.795a1.616,1.616,0,0,0,1.464.915,2.513,2.513,0,0,0,1.114-.3l-.044.132-.015.045a6.665,6.665,0,0,1-.306.8c-.091.182-.225.294-.611.294a4.09,4.09,0,0,1-.613-.059c-.2-.032-1.707-.424-2.059-1.084a.562.562,0,0,1,0-.55c.049-.428-.18-.571-.47-.753a1.727,1.727,0,0,1-.648-.606.98.98,0,0,1-.4-1.187,4.538,4.538,0,0,1,.7-1.221c.254-.351.454-.629.4-.776a5.4,5.4,0,0,0-.39-.685l0-.007c.072.129.358.84-.951,2.051a1.205,1.205,0,0,0-.9.77A3.414,3.414,0,0,0,7.3,19.025c0,.023,0,.046,0,.069s0,.049.005.072c.147.7.883.948,1.9,1.287l.057.019.113.038c.421.432.033,1.128-.1,1.331l0,0a4.644,4.644,0,0,0-1.638-.76.21.21,0,0,0-.211.108.128.128,0,0,1-.124.06,1.924,1.924,0,0,1-.688-.284l-.167-.1a1.551,1.551,0,0,0-.372-.187c-.011,0-.016,0-.018.012A3.255,3.255,0,0,0,6.1,21.81a1.388,1.388,0,0,0,.319.643.988.988,0,0,0,.73.32c.219,0,.413-.075.452-.174.116-.328.2-.481.275-.481.044,0,.078.054.114.112l.006.01c.034.055.076.122.131.122s.086-.035.136-.108a.068.068,0,0,1,.026-.005.092.092,0,0,1,.068.038,2.747,2.747,0,0,1,.151,1.6,2.465,2.465,0,0,1-.425.808,4.745,4.745,0,0,0-.69,1.324A2.263,2.263,0,0,0,7.6,27.765a11.227,11.227,0,0,0,.9,1.3l.005.007c.167.216.311.4.416.571a5.756,5.756,0,0,0-1.457-.775.107.107,0,0,0-.071.021A6.9,6.9,0,0,0,7.5,30.764c.361.311.191.528-.044.828A1.649,1.649,0,0,0,7,32.9a1.708,1.708,0,0,0,.756,1.079,2.168,2.168,0,0,0,1.172.341,1.248,1.248,0,0,0,.988-.373,1.094,1.094,0,0,0,.35-1.011v-.006a4.65,4.65,0,0,1,.123-1.433Zm5.257,1.543a.6.6,0,0,0-.458.168.558.558,0,0,0-.16.445c0,.074-.01.167-.022.289a3.334,3.334,0,0,0,.213,1.357,1.025,1.025,0,0,0,.476.446.583.583,0,0,0,.658-.579.262.262,0,0,1,.036-.009l.019,0a.22.22,0,0,1,.089.024.581.581,0,0,0,.653.565,1.032,1.032,0,0,0,.48-.445,3.344,3.344,0,0,0,.213-1.357c-.013-.124-.018-.217-.023-.292a.554.554,0,0,0-.159-.442.6.6,0,0,0-.458-.168.9.9,0,0,0-.128.008.274.274,0,0,0-.048,0,.717.717,0,0,0-.538.387v.16a.1.1,0,0,0-.025,0l-.016,0a.272.272,0,0,0-.057-.006l-.034,0v-.155a.717.717,0,0,0-.538-.386.276.276,0,0,0-.047,0A.9.9,0,0,0,15.642,33.043Zm10.387-5.5a.4.4,0,0,0-.249.145,1.1,1.1,0,0,0-.18.867c.044.123.121.191.216.191a.4.4,0,0,0,.305-.209.933.933,0,0,0,.076-.828C26.159,27.6,26.1,27.547,26.029,27.547ZM6.848,27.8a.22.22,0,0,0-.171.139l-.01.017,0,.005,0,.01c-.081.16-.3.585-.229.716a.086.086,0,0,0,.081.042.708.708,0,0,0,.445-.29.736.736,0,0,0,0-.56A.124.124,0,0,0,6.848,27.8Zm21.724-5.433h0a5.338,5.338,0,0,1,.561,1.978,1.988,1.988,0,0,1-.3,1.52,3.428,3.428,0,0,0-.781.932,6.915,6.915,0,0,0-.416,1.4.008.008,0,0,0,0,.005l.511-.148a1.407,1.407,0,0,1,.652-.541v0a1.1,1.1,0,0,1,.054-.332.469.469,0,0,1,.149-.13,1.413,1.413,0,0,0,.695-1.361,5.588,5.588,0,0,0-.162-.991l0-.005a3,3,0,0,1-.114-1.011.958.958,0,0,1,.406-.787l0,0c.057-.044.1-.076.089-.113a.246.246,0,0,0-.116-.023.913.913,0,0,0-.127.01l-.013,0h-.011a1.394,1.394,0,0,1-.149.01.748.748,0,0,1-.235-.037A1.971,1.971,0,0,1,28.572,22.366ZM6.564,25.228a.154.154,0,0,0-.1.032.61.61,0,0,0-.424.539,1,1,0,0,0,.039.373l.611.743v0l0-.006V26.9a7.808,7.808,0,0,0,.068-.825,2.688,2.688,0,0,1,.426-.945.014.014,0,0,1,0-.006,1.028,1.028,0,0,1-.426.151.159.159,0,0,1-.073-.013A.288.288,0,0,0,6.564,25.228Zm19.809.707a.475.475,0,0,0-.248.091c-.107.066-.283.358-.179.547a.231.231,0,0,0,.216.121.46.46,0,0,0,.3-.132.4.4,0,0,0,.076-.522A.181.181,0,0,0,26.373,25.935Zm-22.9-2.061a.751.751,0,0,0-.069.776,1.313,1.313,0,0,1,.112.253c.1.263.179.489,1.022.836a.679.679,0,0,0,.273-.349.2.2,0,0,0-.043-.163.571.571,0,0,0-.352-.186H4.4a.74.74,0,0,1-.354-.163,4.774,4.774,0,0,1-.58-1ZM25.122,22.65a.623.623,0,0,1,.056.364l0,.006a.57.57,0,0,0,.06.372c.019,0,.087.029.143.143a1.617,1.617,0,0,1,.061.854c.195.03.279.2.368.378l0,.007h0l0,0a.806.806,0,0,0,.338.413c.2-.034.316-.092.35-.177.054-.137-.1-.32-.272-.532l0,0,0,0-.009-.01a1.393,1.393,0,0,1-.373-.65,3.494,3.494,0,0,1-.01-.371v-.018c.005-.156.006-.18-.126-.383A1.032,1.032,0,0,0,25.122,22.65ZM6.461,24.1s.087.353.281.41a.246.246,0,0,0,.067.008.949.949,0,0,0,.446-.189c.131-.444.277-.5.339-.525.017-.007.029-.013.032-.021s-.017-.051-.077-.142l0-.005-.009-.013-.046-.07-.007-.012-.023-.034a.291.291,0,0,1-.217.08,1.441,1.441,0,0,1-.372-.076l-.006,0a1.419,1.419,0,0,0-.4-.081.368.368,0,0,0-.135.021L6.17,24.1Zm19.552-2.408c-.047,0-.071.038-.071.114a1.85,1.85,0,0,0,.242,1.034c.082.106.151.157.211.157.09,0,.143-.116.184-.23a.664.664,0,0,0-.13-.7C26.306,21.88,26.116,21.691,26.013,21.691Zm3.879-2.113h0a2.342,2.342,0,0,1,.064,1.374.54.54,0,0,1-.351.4c-.141.056-.285.115-.393.52.069.005.139.008.22.008a1.107,1.107,0,0,0,.788-.205,1.828,1.828,0,0,0,.455-.808c.066-.418.018-.618-.2-.823a5.678,5.678,0,0,0-.58-.461Zm-1.678-.218a.292.292,0,0,0-.089.013c-.218.07-.375.935-.4,1.267a.193.193,0,0,0,.037.15.1.1,0,0,0,.079.031c.114,0,.3-.138.421-.393a.518.518,0,0,1,.293-.3.288.288,0,0,0,.2-.249.353.353,0,0,0-.087-.309A.65.65,0,0,0,28.214,19.36Zm-1.1-.1a.375.375,0,0,0-.337.175,3.259,3.259,0,0,0-.377,1.177.018.018,0,0,0,.016.01c.017,0,.043-.021.081-.066a3.381,3.381,0,0,1,.478-.429c.26-.208.5-.4.53-.568a.2.2,0,0,0-.054-.167A.466.466,0,0,0,27.112,19.263Zm-21.9-5.99-.6.982-.064.824c.1.239-.031.394-.167.559a.767.767,0,0,0-.243.517c.029.006.178.065.257.573l.063.174.154.5-.217.442c-.062.116-.132.227-.189.316l-.007.011a1.462,1.462,0,0,0-.33.918,1.947,1.947,0,0,1,.372.239l.01.009a1.339,1.339,0,0,0,.667.293l.155-.345c.161-.155.066-.269-.054-.413l0,0a.615.615,0,0,1-.185-.617,6.767,6.767,0,0,1,.692-1.748l-.544-.813V14.132ZM28.14,16.517A3.877,3.877,0,0,1,26,18.665l-.006,0-.009,0c-.17.071-.282.118-.309.2a.256.256,0,0,0,.059.2.545.545,0,0,0,.351.11,2.127,2.127,0,0,0,1.364-.722C28.068,17.806,28.431,17.362,28.14,16.517ZM22.858,17.57h0c-.009.017-.218.422,0,.56a.639.639,0,0,0,.329.063,3.059,3.059,0,0,0,.553-.062h.005a.714.714,0,0,1,0-.432c.072-.139.5-.182.506-.182-.023-.024-.347-.342-.506-.364a.14.14,0,0,0-.026,0c-.075,0-.113.054-.157.117l0,0a.636.636,0,0,1-.2.2.772.772,0,0,1-.405.1.823.823,0,0,1-.1-.005ZM1.282,16.432a.03.03,0,0,0-.026.01,1.1,1.1,0,0,0-.135.4l0,.014,0,.019c-.017.073-.033.141-.05.209a1.044,1.044,0,0,0,.244.861.187.187,0,0,0,.145.064.562.562,0,0,0,.323-.167.539.539,0,0,0-.011-.533l0-.01a4.312,4.312,0,0,1-.184-.61S1.375,16.432,1.282,16.432Zm.78-.559v.56a1.408,1.408,0,0,1,.306,1.231v.007l0,.042v.005l0,.024v.012l0,.029c0,.017,0,.034,0,.052.714-.177.763-.527.844-1.107l0-.011c0-.009,0-.018,0-.026s0-.009,0-.014l0-.012,0-.02c.02-.136.039-.265.069-.407a2.912,2.912,0,0,1-.623-.179A3.6,3.6,0,0,0,2.062,15.873Zm4.254-1.78h0a2.27,2.27,0,0,1,.125.312l0,.013v.006l0,.006,0,0c.148.416.349.985.771.985a.568.568,0,0,0,.108-.012,2.5,2.5,0,0,0,1.474-1.5,1.98,1.98,0,0,0,.115-1.243,6.529,6.529,0,0,0-.32.608l-.01.017,0,.006c-.269.557-.523,1.083-1.089,1.252a.24.24,0,0,1-.046,0,3.919,3.919,0,0,1-1.131-.458Zm1.231-3.706h0l-.008.011a5.1,5.1,0,0,0-.544.851c-.041.843.168.909.353.968.22.068.41.127.135,1.434l0,0a1.171,1.171,0,0,0,.559-.366A3.4,3.4,0,0,0,8.3,12.277v-.005c.012-.071.038-.311-.115-.418a.144.144,0,0,0-.089-.026.563.563,0,0,0-.169.041l-.007,0,0,0H7.91l-.008,0a.512.512,0,0,1-.159.039c-.073,0-.12-.043-.146-.136a7.331,7.331,0,0,1-.051-1.371v-.02Zm7.909,21.329a.261.261,0,0,1-.2-.1,2.612,2.612,0,0,1-.438-1.168,10.315,10.315,0,0,1,1.578-3.082l.006.01a13.663,13.663,0,0,1,1.655,3.072,1.665,1.665,0,0,1-.284.837c-.157.247-.338.42-.44.42a.082.082,0,0,1-.033-.007,8.241,8.241,0,0,1-.861-.868s0,0,0,.006C16.332,30.984,15.823,31.717,15.456,31.717Zm6.412-2.393h0a3.725,3.725,0,0,1-1.663-.217,2.444,2.444,0,0,1-.833-.957l-.009-.014c-.236-.366-.53-.821-1-1.417a3.349,3.349,0,0,1-1.337-1.724.74.74,0,0,1,.067-.589.087.087,0,0,1,.011-.027c1.488-.5,1.691-.7,1.8-.8s.137-.128,1.278-.294a3.318,3.318,0,0,1,.951.32,10.482,10.482,0,0,0,2.483.8c.6.445.716,1.135.709,2.176.154,1.045-1.256,2.431-2.461,2.742Zm-10.95,0h0c-1.205-.312-2.615-1.7-2.461-2.742-.007-1.041.107-1.731.709-2.176a10.472,10.472,0,0,0,2.48-.8,3.327,3.327,0,0,1,.954-.321,19.078,19.078,0,0,0,3.089,1.121.775.775,0,0,1,.067.59,3.361,3.361,0,0,1-1.336,1.724,17.115,17.115,0,0,0-1.006,1.432l0,.008a2.425,2.425,0,0,1-.828.948A3.717,3.717,0,0,1,10.918,29.324Zm19.289-16.9h0c.027-.25.05-.513.068-.784l0-.035V11.6a2.046,2.046,0,0,1-.07.826Z" transform="translate(19 9.498)" fill="#ff94b0"/>
  <text id="Wildfire" transform="translate(35 57.051)" fill="#fff" font-size="8" font-family="SegoeUI-Bold, Segoe UI" font-weight="700"><tspan x="-15.18" y="0">Wildfire</tspan></text>
  <rect id="Rectangle_1500" data-name="Rectangle 1500" width="70" height="70" fill="none"/>
</svg>
