<svg id="Component_241_1" data-name="Component 241 – 1" xmlns="http://www.w3.org/2000/svg" width="70" height="70" viewBox="0 0 70 70">
  <g id="Component_217_1" data-name="Component 217 – 1" transform="translate(18 12.758)" opacity="0.75">
    <path id="Path_1010" data-name="Path 1010" d="M791.909,362.447a5.659,5.659,0,0,0,.558.96c.225.255.589.651.829.611a1.213,1.213,0,0,0,.8-.743c.066-.248-.234-.678-.483-.9a3.746,3.746,0,0,0-1.056-.449l.131.5c-.517.017-.514-.023-.4-.514a23.044,23.044,0,0,0,.453-2.453,2.3,2.3,0,0,0-1.317-2.333c-1.176-.722-1.263-.945-.846-2.216.823-2.5,1.66-5,2.492-7.5.03-.092.065-.183.1-.276l.208.069a13.963,13.963,0,0,1,.7,1.9,58.081,58.081,0,0,0,1.955,5.957c.345,1.046.229,1.377-.706,1.968a3.711,3.711,0,0,0-.721,5.27c.332.378.707.756.406,1.333a1.573,1.573,0,0,1-1.5,1.033,1.964,1.964,0,0,1-1.92-.851C791.311,363.358,791.311,362.954,791.909,362.447Z" transform="translate(-770.289 -338.358)" fill="#ff8282"/>
    <path id="Path_1011" data-name="Path 1011" d="M730.6,355.452c-.218-.648-.528-1.264-.735-1.915-.627-1.99-1.227-3.988-1.891-6.167-.371.977-.68,1.732-.942,2.512a3.733,3.733,0,0,0-.053.9c-1.238.159-.192.911-.015,1.544l-.707-.433c-.433,1.192-.866,2.329-1.248,3.489-.325,1.01-.121,1.316.776,1.886a2.948,2.948,0,0,1,1.136,1.118,3.954,3.954,0,0,1-.519,4.249,1.165,1.165,0,0,0,.154,1.866,2.14,2.14,0,0,0,2.849-.289,1.039,1.039,0,0,0-.038-1.443,2.551,2.551,0,0,0-.56-.326,1.864,1.864,0,0,0-.144.654c.1.782-.331,1.26-1.073,1.154a3.8,3.8,0,0,0-.569,0c-.264-1.017-.1-1.765,1.154-1.844.153-.01.407-.387.4-.586-.018-.6-.176-1.2-.219-1.8a2.674,2.674,0,0,1,1.573-2.817A1.237,1.237,0,0,0,730.6,355.452Zm-2.219-2.219a2.514,2.514,0,0,1-.776.039c-.128-.017-.237-.185-.355-.289a1.319,1.319,0,0,1,.433-.234,4.494,4.494,0,0,1,.76.028l.17-.237.245.465A2.007,2.007,0,0,1,728.381,353.233Z" transform="translate(-716.669 -338.542)" fill="#ff8282"/>
    <path id="Subtraction_225" data-name="Subtraction 225" d="M13.5,27.009A13.441,13.441,0,0,1,5.954,24.7a13.544,13.544,0,0,1-4.893-5.941A13.487,13.487,0,0,1,2.306,5.954,13.544,13.544,0,0,1,8.248,1.061,13.487,13.487,0,0,1,21.055,2.306a13.544,13.544,0,0,1,4.893,5.941A13.487,13.487,0,0,1,24.7,21.055a13.544,13.544,0,0,1-5.941,4.893A13.42,13.42,0,0,1,13.5,27.009ZM13.428.607A12.821,12.821,0,1,0,26.25,13.428,12.836,12.836,0,0,0,13.428.607Z" transform="translate(3.492 3.489)" fill="#ff8282" opacity="0.5"/>
    <g id="Component_83_1" data-name="Component 83 – 1">
      <path id="Path_852" data-name="Path 852" d="M0,1.139H2.616V11.686H0Z" transform="translate(15.856 -0.966)" fill="#ff8282"/>
      <path id="Subtraction_227" data-name="Subtraction 227" d="M16.994,33.988a17.127,17.127,0,0,1-3.425-.345,16.9,16.9,0,0,1-6.077-2.557,17.044,17.044,0,0,1-6.157-7.477,16.908,16.908,0,0,1-.99-3.19,17.162,17.162,0,0,1,0-6.85A16.907,16.907,0,0,1,2.9,7.493,17.121,17.121,0,0,1,4.977,4.977c.074-.074.149-.148.225-.221L6.71,6.263A14.863,14.863,0,1,0,16.994,2.124c-.381,0-.767.015-1.145.044V.038C16.229.013,16.615,0,16.994,0a17.125,17.125,0,0,1,3.425.345A16.9,16.9,0,0,1,26.5,2.9a17.041,17.041,0,0,1,6.157,7.477,16.9,16.9,0,0,1,.99,3.19,17.162,17.162,0,0,1,0,6.85A16.9,16.9,0,0,1,31.086,26.5a17.045,17.045,0,0,1-7.477,6.157,16.917,16.917,0,0,1-3.19.99A17.125,17.125,0,0,1,16.994,33.988Z" transform="translate(0)" fill="#ff8282"/>
    </g>
  </g>
  <text id="Tool_Shortage" data-name="Tool Shortage" transform="translate(35 58)" fill="#fff" font-size="8" font-family="SegoeUI-Bold, Segoe UI" font-weight="700"><tspan x="-26.268" y="0">Tool Shortage</tspan></text>
  <rect id="Rectangle_1495" data-name="Rectangle 1495" width="70" height="70" fill="none"/>
</svg>
