<svg id="Component_238_1" data-name="Component 238 – 1" xmlns="http://www.w3.org/2000/svg" width="70" height="70" viewBox="0 0 70 70">
  <g id="Component_232_1" data-name="Component 232 – 1" transform="translate(15 10.065)" opacity="0.75">
    <line id="Line_625" data-name="Line 625" y1="10.884" x2="4.316" transform="translate(29.447)" fill="none" stroke="#ff7474" stroke-width="0.3"/>
    <line id="Line_627" data-name="Line 627" y1="4.691" x2="3.941" transform="translate(34.699 9.759)" fill="none" stroke="#ff7474" stroke-width="0.3"/>
    <line id="Line_628" data-name="Line 628" x1="3.941" y1="4.691" transform="translate(0.738 9.947)" fill="none" stroke="#ff7474" stroke-width="0.3"/>
    <line id="Line_629" data-name="Line 629" x1="0.563" y1="3.003" transform="translate(12.561 0.188)" fill="none" stroke="#ff7474" stroke-width="0.3"/>
    <line id="Line_630" data-name="Line 630" y1="3.003" x2="0.563" transform="translate(26.066 0.188)" fill="none" stroke="#ff7474" stroke-width="0.3"/>
    <line id="Line_631" data-name="Line 631" y1="1.501" x2="2.627" transform="translate(36.393 23.835)" fill="none" stroke="#ff7474" stroke-width="0.3"/>
    <line id="Line_632" data-name="Line 632" x1="2.627" y1="1.501" transform="translate(0.082 23.835)" fill="none" stroke="#ff7474" stroke-width="0.3"/>
    <line id="Line_626" data-name="Line 626" x1="4.316" y1="10.884" transform="translate(5.428)" fill="none" stroke="#ff7474" stroke-width="0.3"/>
    <path id="Subtraction_240" data-name="Subtraction 240" d="M22.527,32.636a5.923,5.923,0,0,1-2.02-.442,8.359,8.359,0,0,1-.962-.442h0a9.326,9.326,0,0,1-.949.432,5.64,5.64,0,0,1-1.9.433,2.31,2.31,0,0,1-.38-.03,2.12,2.12,0,0,1-.857-.359,3.109,3.109,0,0,1-.618-.577,3.86,3.86,0,0,1-.5-.772v-.008a.457.457,0,0,1-.1.013h-.01a2.3,2.3,0,0,1-1.5.341,3.778,3.778,0,0,1-2.261-.588,1.612,1.612,0,0,1-.557-1.222,4.106,4.106,0,0,1,.212-1.228c.119-.41.561-.655.853-.818.171-.095.295-.163.294-.225,0-.025-.022-.049-.066-.071-.022-.011-.044-.025-.063-.037a.364.364,0,0,0-.216-.074,1.887,1.887,0,0,0-.8.332c-.293.174-.314.529-.335.871-.028.463-.054.9-.708.9a3.955,3.955,0,0,1-1.217-.272c-1.832-.639-4.093-1.678-5.59-2.366h0l-.006,0C1.474,26.062.9,25.8.778,25.775h0c.023,0,1.243.186,2.535.382h.005l.491.075.025,0,.666.1c1.833.278,3.716.563,3.789.563h0l-.007,0a6.15,6.15,0,0,1-2.9-1.356,3.664,3.664,0,0,1-1.014-3.133,2.324,2.324,0,0,1,.424-1.1,1.957,1.957,0,0,1,.83-.621l-.055-.078,0-.006a4.8,4.8,0,0,1,1.83-.4A3.391,3.391,0,0,1,9.917,21.3a2.941,2.941,0,0,1,.859,1.8,2.064,2.064,0,0,1-1.97,2.142c-1.118,0-1.573-.116-1.573-1.277,0-.079-.069-.117-.21-.117a1.336,1.336,0,0,0-.185.015.4.4,0,0,0-.037.169,1.746,1.746,0,0,0,.184.943,2.106,2.106,0,0,0,1.257,1,1.285,1.285,0,0,0,.389.06,4.011,4.011,0,0,0,.554-.059l.008,0-.053.038a3.559,3.559,0,0,0,1.453-1.189,3.032,3.032,0,0,0,.558-1.744,3.1,3.1,0,0,0-1.072-2.322,3.857,3.857,0,0,0-2.587-.962,3.925,3.925,0,0,0-2.09.587l-.138-.2-4.8-4.858L0,14.548l.955.27h0c.007,0,.322.191,4.088,2.626a6.338,6.338,0,0,1-.067-2.526A3.142,3.142,0,0,1,6,13.109a1.814,1.814,0,0,1,.98-.439c.3,0,.531.185.759.6.05.09.089.132.124.132.075,0,.127-.193.214-.514.017-.062.035-.13.055-.2a1.563,1.563,0,0,1-.327.039.983.983,0,0,1-.82-.466C6.215,9.324,4.7,2.77,4.689,2.7h0c.04,0,.491.241,4,8.584l.023.087a6.458,6.458,0,0,0,.882,1.845c.6.516.948.828,1.155,1.015a1.569,1.569,0,0,0,.611.43h0l.012.005.108.047a.488.488,0,0,0-.125.339h0a.459.459,0,0,1-.089.276,3.249,3.249,0,0,0-2.753,1.8,4.953,4.953,0,0,0-.528,1.652A8.438,8.438,0,0,1,9.11,16.95a2.836,2.836,0,0,1,.864-.756,4.41,4.41,0,0,1,.98-.414,5.46,5.46,0,0,1,1.136-.209l.741-.76-.937-.215L9.921,12.522l-.23-.32a2.017,2.017,0,0,1,1.031-1.346,5.1,5.1,0,0,1,2.377-.591,5.632,5.632,0,0,1,1.44.193c.009-.813-.053-2.518-.118-4.324V6.119a51.464,51.464,0,0,1-.073-6.1A.036.036,0,0,1,14.374,0c.223,0,.84,2.8,1.493,5.764l.008.036c.23,1.045.468,2.125.694,3.106A3.924,3.924,0,0,1,19.6,7.593,4.165,4.165,0,0,1,22.3,8.61c0,.045.01.068.021.068.188,0,1.448-7.278,1.461-7.351l.79-1.308V1.426c0,.038-.088,4.083-.222,9.3a5.738,5.738,0,0,1,1.717-.274,5.1,5.1,0,0,1,2.377.591,2.468,2.468,0,0,1,.662.561,1.825,1.825,0,0,1,.34.665l-.182.252L27.288,14.6l-.937.215.741.76a5.557,5.557,0,0,1,1.136.209,4.407,4.407,0,0,1,.98.414,2.839,2.839,0,0,1,.864.756,8.188,8.188,0,0,1,1.124,1.832,4.891,4.891,0,0,0-.528-1.653,3.249,3.249,0,0,0-2.753-1.8.46.46,0,0,1-.089-.276h0a.488.488,0,0,0-.125-.338,2.988,2.988,0,0,0,.7-.582,4.018,4.018,0,0,1,.855-.708.966.966,0,0,1,.2-.08c-.01.051-.019.1-.028.136.083-.052.165-.1.243-.146a.331.331,0,0,1,.239.235s.036-.367.071-.734c.112-.433.223-.959.235-1.018h0L34.1,3.08v0c-.051.318-.539,3.295-2.11,9.7a1.891,1.891,0,0,1,.981.306,2.74,2.74,0,0,1,1.247,1.787,6.17,6.17,0,0,1-.118,2.569.016.016,0,0,0,0,.014.021.021,0,0,0,.017.006c.388,0,6.389-3.955,6.45-3.994l0,0c-.237.269-2.436,2.735-6.589,6.539-.034.093-.071.187-.111.279a3.928,3.928,0,0,0-2.071-.575,3.856,3.856,0,0,0-2.587.962,3.349,3.349,0,0,0-.643.776,7.41,7.41,0,0,0-.326-2.789,7.548,7.548,0,0,0-1.461-2.6,9.719,9.719,0,0,0-6.77-3.291,5.824,5.824,0,0,0-.6-.031,6.961,6.961,0,0,0-2.377.442,9.305,9.305,0,0,0-2.233,1.192,9.947,9.947,0,0,0-3.238,3.842,8.682,8.682,0,0,0-.583,2.649,6.02,6.02,0,0,0,.026,1.1c.006.012.064.113.136.113.054,0,.1-.057.146-.168a19.525,19.525,0,0,1,1.311-2.989.059.059,0,0,1,.022,0,.081.081,0,0,1,.06.034,2.6,2.6,0,0,1,.132,1.464,2.287,2.287,0,0,1-.375.74h0a4.38,4.38,0,0,0-.6,1.205,2.141,2.141,0,0,0,.183,1.592,10.355,10.355,0,0,0,.789,1.183c.148.2.276.372.37.527a4.891,4.891,0,0,0-1.278-.707.091.091,0,0,0-.063.019,6.348,6.348,0,0,0,.095,1.715c.317.284.168.482-.039.756a1.545,1.545,0,0,0-.4,1.2,1.575,1.575,0,0,0,.471.833.729.729,0,0,0,.163.131l.03.021a1.852,1.852,0,0,0,1.027.311,1.07,1.07,0,0,0,.866-.34,1.023,1.023,0,0,0,.307-.923,4.427,4.427,0,0,1,.108-1.314,2,2,0,0,1,.589.227,1.111,1.111,0,0,1,.582.731.509.509,0,0,1-.176.56,2.123,2.123,0,0,0-.579,1.164c-.021.186.217.52.42.767a4.162,4.162,0,0,0,.482.511h0c.019,0,.118-.013.146-.05a.033.033,0,0,0,.005-.03,2.941,2.941,0,0,0-.164-.374v0c-.114-.235-.233-.477-.192-.575a2.43,2.43,0,0,1,.328-.2l.006,0c.057-.031.086-.047.087-.049A.342.342,0,0,0,16,30a.755.755,0,0,1,.2-.542.221.221,0,0,1,.141-.043,1.378,1.378,0,0,1,.6.257.007.007,0,0,1,0,0c0-.111.021-.67.336-.793a.621.621,0,0,1,.35-.11,1.107,1.107,0,0,1,.708.365h0c.012-.058.124-.566.446-.642a1.372,1.372,0,0,1,.237-.022.724.724,0,0,1,.6.263.675.675,0,0,1,.13.267h0c.026-.057.264-.558.687-.561h.029a.629.629,0,0,1,.559.3,1.573,1.573,0,0,1,.1.18c.035.072.06.123.089.123h0a.564.564,0,0,0,.172-.083h0a1.158,1.158,0,0,1,.535-.2.419.419,0,0,1,.1.011,1.017,1.017,0,0,1,.493.914c0,.071.006.113.024.113s.025-.013.047-.042a.548.548,0,0,1,.471-.244.4.4,0,0,1,.343.148.276.276,0,0,1,.009.267l-.036-.059v0c-.117-.191-.2-.211-.233-.211a.047.047,0,0,0-.014,0,.227.227,0,0,0-.071-.011.7.7,0,0,0-.5.369l.008.054c.025.166.025.166-.075.533v0a2.468,2.468,0,0,1-.131.353.671.671,0,0,0,.146.928.23.23,0,0,0,.045,0,.623.623,0,0,0,.4-.191,2.848,2.848,0,0,0,.629-.969,1.357,1.357,0,0,0-.083-.653c.056.088.085.1.109.1a.119.119,0,0,0,.044-.012h0l.007,0a.179.179,0,0,1,.071-.016.384.384,0,0,1,.212.1,1.714,1.714,0,0,1-.167.609,1.323,1.323,0,0,0-.131.453.013.013,0,0,0,.011.006h0a1.174,1.174,0,0,0,.483-.308,1.563,1.563,0,0,0,.468-.7,6.827,6.827,0,0,0-.084-.807v0a1.857,1.857,0,0,1-.552-.807.665.665,0,0,0-.067-.157.849.849,0,0,1,.251-.625,1.7,1.7,0,0,1,.935-.475l.2,1.96a1.98,1.98,0,0,0,.33.258v.03h.049a1.652,1.652,0,0,0,.85.256,1.867,1.867,0,0,0,1.508-1,1.4,1.4,0,0,0-.392-1.447c-.183-.214-.328-.383-.214-.6,0,0,.072-.01.154-.236a5.751,5.751,0,0,0,.218-1.555c.025-.05-.033-.1-.036-.1a.1.1,0,0,0-.088-.041,1.6,1.6,0,0,0-.583.281,1.66,1.66,0,0,1-.5.252,2.508,2.508,0,0,1,.47-.829,6.018,6.018,0,0,0,.629-.993,2.038,2.038,0,0,0-.057-1.282,3.17,3.17,0,0,0-.565-1.237c-.373-.108-.334-1.275-.256-1.823.036-.254.081-.411.117-.411.006,0,.013.005.018.015a9.849,9.849,0,0,1,1.288,3.2.152.152,0,0,0,.04.061,2.988,2.988,0,0,0-.116.826,3.033,3.033,0,0,0,.558,1.745,3.558,3.558,0,0,0,1.453,1.189l-.052-.038H30.1a4.049,4.049,0,0,0,.554.059,1.3,1.3,0,0,0,.388-.06,2.106,2.106,0,0,0,1.257-1,1.745,1.745,0,0,0,.184-.943.4.4,0,0,0-.037-.17,1.369,1.369,0,0,0-.185-.015c-.141,0-.21.038-.21.117,0,1.162-.455,1.278-1.573,1.278a2.064,2.064,0,0,1-1.97-2.142,2.94,2.94,0,0,1,.859-1.8,3.39,3.39,0,0,1,2.527-1.094,4.816,4.816,0,0,1,1.855.407l-.044.088a1.956,1.956,0,0,1,.793.618,2.283,2.283,0,0,1,.4,1.059,6.5,6.5,0,0,1-.054,1.584,2.731,2.731,0,0,1-.483,1.155A7.414,7.414,0,0,1,31.6,26.954l1.862-.3.047-.009,4.149-.795a3.751,3.751,0,0,1-1,.608c-.832.424-2.536,1.211-5.93,2.545a.32.32,0,0,1-.24.073,1.947,1.947,0,0,1-.407-.06h0L30.028,29c-.739-.393-.7-.659-.658-.94a.731.731,0,0,0-.083-.561,1.435,1.435,0,0,0-1.114-.555.322.322,0,0,0-.064,0,.163.163,0,0,0-.13.085c-.036.089.055.225.136.345.064.1.124.185.109.234h0a.8.8,0,0,1,.1-.006.889.889,0,0,1,.65.269,1.6,1.6,0,0,1,.31,1.219c-.005.047-.011.093-.016.139v.007a1.94,1.94,0,0,1-.529,1.381,4.52,4.52,0,0,1-2.7.676c-.036,0-.072,0-.106,0a.618.618,0,0,1-.528-.235.8.8,0,0,1-.131-.308,5.992,5.992,0,0,1-.887,1.081,2.737,2.737,0,0,1-1.33.743A2.85,2.85,0,0,1,22.527,32.636Zm-6.135-2.988c-.031,0-.117.021-.234.211a1.2,1.2,0,0,0-.2.865,2.848,2.848,0,0,0,.629.969.623.623,0,0,0,.4.191.229.229,0,0,0,.045,0,.671.671,0,0,0,.146-.928,2.472,2.472,0,0,1-.131-.353v0c-.1-.367-.1-.367-.075-.532l.008-.055a.7.7,0,0,0-.5-.369.226.226,0,0,0-.071.011A.047.047,0,0,0,16.392,29.648Zm5.29-.755a.688.688,0,0,0-.518.366l-.049,1.405c0,.016,0,.032,0,.05a1.253,1.253,0,0,0,.054.54.567.567,0,0,0,.549.327h0a1.03,1.03,0,0,0,.469-.427,3.406,3.406,0,0,0,.25-1.342c-.008-.122-.009-.215-.011-.289a.565.565,0,0,0-.137-.446.586.586,0,0,0-.465-.183.771.771,0,0,0-.089,0A.258.258,0,0,0,21.682,28.893Zm-4.029,0a.593.593,0,0,0-.478.191.565.565,0,0,0-.129.449c0,.074,0,.167-.006.289a3.43,3.43,0,0,0,.274,1.338.7.7,0,0,0,.2.245.686.686,0,0,0,.273.173h.005a.567.567,0,0,0,.543-.337,1.252,1.252,0,0,0,.044-.541l0-.05-.074-1.4a.7.7,0,0,0-.519-.357.26.26,0,0,0-.059.007A.72.72,0,0,0,17.653,28.9ZM19,28.533a.558.558,0,0,0-.438.167.566.566,0,0,0-.153.442c0,.074-.009.167-.021.289a3.426,3.426,0,0,0,.2,1.35.7.7,0,0,0,.192.258c.087.085.208.185.263.185h0a.566.566,0,0,0,.626-.576l.039-.009h.015a.206.206,0,0,1,.085.024.563.563,0,0,0,.625.562h0c.056,0,.177-.1.263-.185a.7.7,0,0,0,.192-.258,3.4,3.4,0,0,0,.2-1.35c-.012-.122-.017-.215-.021-.289a.565.565,0,0,0-.153-.441.558.558,0,0,0-.438-.167.82.82,0,0,0-.122.008.252.252,0,0,0-.045,0,.689.689,0,0,0-.515.384v.16a.087.087,0,0,0-.023,0l-.015,0a.236.236,0,0,0-.055-.006l-.031,0v-.154a.689.689,0,0,0-.515-.384.253.253,0,0,0-.045,0A.812.812,0,0,0,19,28.533Zm.81,2.092-.04-.075h0l.034,0c0,.026,0,.051,0,.077Zm-.91-3.058a.225.225,0,0,1-.179-.091,2.439,2.439,0,0,1-.385-1.067A9.419,9.419,0,0,1,19.719,23.6h0a13.415,13.415,0,0,1,1.456,2.812,1.559,1.559,0,0,1-.249.764c-.137.226-.3.384-.385.384a.059.059,0,0,1-.029-.007,7.245,7.245,0,0,1-.755-.792v0C19.7,26.842,19.234,27.567,18.9,27.567ZM14.92,25.382c-1.057-.285-2.293-1.55-2.159-2.5-.006-.951.094-1.581.622-1.987a8.969,8.969,0,0,0,2.175-.729,2.826,2.826,0,0,1,.836-.294A16.446,16.446,0,0,0,19.1,20.892a.717.717,0,0,1,.059.538A3.058,3.058,0,0,1,17.991,23a15.69,15.69,0,0,0-.883,1.307,2.2,2.2,0,0,1-.73.872A3.141,3.141,0,0,1,14.92,25.382Zm9.6,0h0a3.143,3.143,0,0,1-1.458-.2,2.2,2.2,0,0,1-.73-.872h0v0a15.708,15.708,0,0,0-.881-1.3A3.058,3.058,0,0,1,20.28,21.43a.714.714,0,0,1,.059-.538c0-.009.008-.024.01-.024,1.3-.458,1.481-.634,1.577-.729s.119-.117,1.12-.269a2.824,2.824,0,0,1,.836.293,8.984,8.984,0,0,0,2.176.73c.528.406.628,1.036.622,1.987.134.954-1.1,2.219-2.159,2.5Z" transform="translate(0 3.948)" fill="#ff8282"/>
  </g>
  <text id="Eruption" transform="translate(35 57.242)" fill="#fff" font-size="8" font-family="SegoeUI-Bold, Segoe UI" font-weight="700"><tspan x="-16.191" y="0">Eruption</tspan></text>
  <rect id="Rectangle_1499" data-name="Rectangle 1499" width="70" height="70" fill="none"/>
</svg>
