<svg xmlns="http://www.w3.org/2000/svg" width="34" height="39.107" viewBox="0 0 34 39.107">
  <g id="Component_212_1" data-name="Component 212 – 1" transform="translate(1 0.055)">
    <g id="Component_143_3" data-name="Component 143 – 3" transform="translate(2)" opacity="0.75">
      <line id="Line_625" data-name="Line 625" y1="7.695" x2="3.052" transform="translate(20.819)" fill="none" stroke="#ff7474" stroke-width="0.3"/>
      <line id="Line_627" data-name="Line 627" y1="3.317" x2="2.786" transform="translate(24.533 6.899)" fill="none" stroke="#ff7474" stroke-width="0.3"/>
      <line id="Line_628" data-name="Line 628" x1="2.786" y1="3.317" transform="translate(0.521 7.033)" fill="none" stroke="#ff7474" stroke-width="0.3"/>
      <line id="Line_629" data-name="Line 629" x1="0.398" y1="2.123" transform="translate(8.881 0.133)" fill="none" stroke="#ff7474" stroke-width="0.3"/>
      <line id="Line_630" data-name="Line 630" y1="2.123" x2="0.398" transform="translate(18.431 0.133)" fill="none" stroke="#ff7474" stroke-width="0.3"/>
      <line id="Line_631" data-name="Line 631" y1="1.061" x2="1.857" transform="translate(25.729 16.852)" fill="none" stroke="#ff7474" stroke-width="0.3"/>
      <line id="Line_632" data-name="Line 632" x1="1.857" y1="1.061" transform="translate(0.058 16.852)" fill="none" stroke="#ff7474" stroke-width="0.3"/>
      <line id="Line_626" data-name="Line 626" x1="3.052" y1="7.695" transform="translate(3.838)" fill="none" stroke="#ff7474" stroke-width="0.3"/>
      <path id="Subtraction_240" data-name="Subtraction 240" d="M15.927,23.074a4.188,4.188,0,0,1-1.428-.312,5.909,5.909,0,0,1-.68-.312h0a6.594,6.594,0,0,1-.671.306,3.988,3.988,0,0,1-1.342.306,1.633,1.633,0,0,1-.269-.021,1.5,1.5,0,0,1-.606-.254,2.2,2.2,0,0,1-.437-.408,2.729,2.729,0,0,1-.353-.546v-.006a.323.323,0,0,1-.073.009h-.007A1.628,1.628,0,0,1,9,22.078a2.671,2.671,0,0,1-1.6-.416,1.14,1.14,0,0,1-.394-.864,2.9,2.9,0,0,1,.15-.868c.084-.29.4-.463.6-.578.121-.067.208-.116.208-.159,0-.018-.016-.034-.047-.05-.016-.008-.031-.018-.044-.027a.257.257,0,0,0-.152-.052,1.334,1.334,0,0,0-.567.235c-.207.123-.222.374-.237.616-.02.327-.038.637-.5.637a2.8,2.8,0,0,1-.86-.192c-1.3-.452-2.894-1.187-3.952-1.673h0l0,0c-.56-.257-.964-.443-1.052-.46h0c.017,0,.879.131,1.792.27h0l.347.053.018,0,.471.072c1.3.2,2.627.4,2.679.4h0l-.005,0A4.348,4.348,0,0,1,3.8,18.058a2.59,2.59,0,0,1-.717-2.215,1.643,1.643,0,0,1,.3-.777,1.384,1.384,0,0,1,.587-.439l-.039-.055,0,0a3.391,3.391,0,0,1,1.294-.281,2.4,2.4,0,0,1,1.787.773,2.079,2.079,0,0,1,.607,1.272,1.459,1.459,0,0,1-1.393,1.514c-.79,0-1.112-.082-1.112-.9,0-.056-.049-.083-.148-.083a.944.944,0,0,0-.131.011.284.284,0,0,0-.026.12,1.234,1.234,0,0,0,.13.667,1.489,1.489,0,0,0,.889.7A.909.909,0,0,0,6.1,18.4a2.836,2.836,0,0,0,.392-.042H6.5l-.037.027a2.516,2.516,0,0,0,1.028-.841,2.144,2.144,0,0,0,.395-1.233,2.194,2.194,0,0,0-.758-1.642,2.727,2.727,0,0,0-1.829-.68,2.775,2.775,0,0,0-1.478.415l-.1-.139-3.4-3.435L0,10.286l.675.191h0s.228.135,2.89,1.857a4.481,4.481,0,0,1-.047-1.786,2.221,2.221,0,0,1,.723-1.277,1.283,1.283,0,0,1,.693-.311c.21,0,.376.131.537.424.035.064.063.094.088.094.053,0,.09-.137.151-.363l.039-.144A1.105,1.105,0,0,1,5.515,9a.7.7,0,0,1-.579-.329c-.542-2.073-1.61-6.708-1.621-6.754h0c.028,0,.347.17,2.825,6.069l.017.062a4.566,4.566,0,0,0,.623,1.3c.425.365.67.586.816.717a1.109,1.109,0,0,0,.432.3h0l.009,0,.076.033a.345.345,0,0,0-.088.239h0a.324.324,0,0,1-.063.195A2.3,2.3,0,0,0,6.02,12.11a3.5,3.5,0,0,0-.373,1.168,5.966,5.966,0,0,1,.794-1.294,2.005,2.005,0,0,1,.611-.534,3.118,3.118,0,0,1,.693-.293,3.86,3.86,0,0,1,.8-.148l.524-.537-.662-.152L7.014,8.853l-.163-.226a1.426,1.426,0,0,1,.729-.951,3.606,3.606,0,0,1,1.68-.418,3.982,3.982,0,0,1,1.018.137c.006-.574-.037-1.78-.084-3.057V4.326A36.386,36.386,0,0,1,10.143.013.025.025,0,0,1,10.163,0a22.023,22.023,0,0,1,1.055,4.075l.006.026c.163.739.331,1.5.491,2.2a2.774,2.774,0,0,1,2.139-.928,2.945,2.945,0,0,1,1.91.719c0,.032.007.048.015.048.133,0,1.024-5.146,1.033-5.2L17.37.013v.995c0,.027-.062,2.886-.157,6.576a4.057,4.057,0,0,1,1.214-.194,3.6,3.6,0,0,1,1.68.418,1.745,1.745,0,0,1,.468.4,1.29,1.29,0,0,1,.241.47l-.128.179L19.293,10.32l-.662.152.524.537a3.929,3.929,0,0,1,.8.148,3.116,3.116,0,0,1,.693.293,2.007,2.007,0,0,1,.611.534,5.789,5.789,0,0,1,.795,1.3,3.458,3.458,0,0,0-.374-1.169,2.3,2.3,0,0,0-1.946-1.27.325.325,0,0,1-.063-.195h0a.345.345,0,0,0-.088-.239,2.113,2.113,0,0,0,.5-.411,2.841,2.841,0,0,1,.6-.5.683.683,0,0,1,.143-.056c-.007.036-.013.067-.02.1.059-.037.117-.071.172-.1a.234.234,0,0,1,.169.166s.025-.259.05-.519c.079-.306.158-.678.166-.719h0l2.741-6.18v0c-.036.225-.381,2.33-1.492,6.86a1.337,1.337,0,0,1,.694.217,1.937,1.937,0,0,1,.881,1.264,4.362,4.362,0,0,1-.083,1.816.011.011,0,0,0,0,.01.015.015,0,0,0,.012,0c.274,0,4.517-2.8,4.56-2.824l0,0c-.168.19-1.722,1.934-4.659,4.623-.024.066-.05.132-.078.2a2.777,2.777,0,0,0-1.464-.407,2.726,2.726,0,0,0-1.829.68,2.368,2.368,0,0,0-.455.549,5.239,5.239,0,0,0-.23-1.972,5.337,5.337,0,0,0-1.033-1.835,6.871,6.871,0,0,0-4.787-2.327,4.118,4.118,0,0,0-.426-.022,4.921,4.921,0,0,0-1.681.312,6.579,6.579,0,0,0-1.579.843,7.033,7.033,0,0,0-2.29,2.716,6.138,6.138,0,0,0-.412,1.873,4.256,4.256,0,0,0,.018.775c0,.008.045.08.1.08s.073-.04.1-.119A13.8,13.8,0,0,1,8.9,13.382a.042.042,0,0,1,.016,0,.057.057,0,0,1,.042.024,1.841,1.841,0,0,1,.093,1.035,1.617,1.617,0,0,1-.265.523h0a3.1,3.1,0,0,0-.426.852A1.514,1.514,0,0,0,8.49,16.94a7.321,7.321,0,0,0,.558.836c.1.141.2.263.261.373a3.458,3.458,0,0,0-.9-.5.065.065,0,0,0-.044.013,4.488,4.488,0,0,0,.067,1.213c.224.2.119.341-.028.534a1.092,1.092,0,0,0-.284.846,1.114,1.114,0,0,0,.333.589.515.515,0,0,0,.115.093l.021.015a1.309,1.309,0,0,0,.726.22.756.756,0,0,0,.613-.241.724.724,0,0,0,.217-.653,3.13,3.13,0,0,1,.076-.929,1.417,1.417,0,0,1,.416.161.786.786,0,0,1,.412.517.36.36,0,0,1-.124.4,1.5,1.5,0,0,0-.41.823c-.015.132.153.368.3.543a2.943,2.943,0,0,0,.341.362h0c.014,0,.084-.009.1-.035a.023.023,0,0,0,0-.021,2.079,2.079,0,0,0-.116-.265h0c-.081-.166-.164-.338-.135-.406a1.718,1.718,0,0,1,.232-.139l0,0,.061-.035a.242.242,0,0,0,0-.038.534.534,0,0,1,.138-.383.156.156,0,0,1,.1-.03.974.974,0,0,1,.426.181.005.005,0,0,1,0,0c0-.078.015-.474.238-.561a.439.439,0,0,1,.248-.078.783.783,0,0,1,.5.258h0c.008-.041.088-.4.316-.454a.97.97,0,0,1,.168-.016.512.512,0,0,1,.424.186.477.477,0,0,1,.092.189h0c.018-.04.187-.395.486-.4h.02a.445.445,0,0,1,.4.215,1.112,1.112,0,0,1,.07.128c.025.051.043.087.063.087h0a.4.4,0,0,0,.122-.058h0a.819.819,0,0,1,.378-.142.3.3,0,0,1,.069.008.719.719,0,0,1,.349.646c0,.05,0,.08.017.08s.018-.009.033-.029a.387.387,0,0,1,.333-.173.284.284,0,0,1,.242.1.2.2,0,0,1,.007.189l-.025-.042h0c-.083-.135-.143-.149-.165-.149h-.01a.16.16,0,0,0-.05-.008.5.5,0,0,0-.354.261l.006.038c.017.118.017.118-.053.377v0a1.745,1.745,0,0,1-.093.25.474.474,0,0,0,.1.656.163.163,0,0,0,.032,0,.441.441,0,0,0,.283-.135,2.014,2.014,0,0,0,.445-.685.959.959,0,0,0-.059-.462c.04.062.06.071.077.071a.084.084,0,0,0,.031-.009h0l.005,0a.126.126,0,0,1,.05-.011.272.272,0,0,1,.15.067,1.212,1.212,0,0,1-.118.43.935.935,0,0,0-.092.32.009.009,0,0,0,.008,0h0a.83.83,0,0,0,.341-.217,1.1,1.1,0,0,0,.331-.491,4.827,4.827,0,0,0-.06-.57h0a1.313,1.313,0,0,1-.391-.57.47.47,0,0,0-.047-.111.6.6,0,0,1,.177-.442,1.2,1.2,0,0,1,.661-.336l.138,1.386a1.4,1.4,0,0,0,.234.182v.021h.035a1.168,1.168,0,0,0,.6.181,1.32,1.32,0,0,0,1.066-.709.991.991,0,0,0-.277-1.023c-.129-.151-.232-.271-.151-.426,0,0,.051-.007.109-.167a4.066,4.066,0,0,0,.154-1.1c.018-.036-.024-.072-.025-.074a.07.07,0,0,0-.062-.029,1.135,1.135,0,0,0-.412.2,1.174,1.174,0,0,1-.353.178,1.773,1.773,0,0,1,.332-.586,4.255,4.255,0,0,0,.445-.7,1.441,1.441,0,0,0-.041-.907,2.241,2.241,0,0,0-.4-.875c-.264-.076-.236-.9-.181-1.289.025-.179.057-.291.083-.291,0,0,.009,0,.013.011a6.964,6.964,0,0,1,.911,2.265.108.108,0,0,0,.028.043,2.113,2.113,0,0,0-.082.584,2.144,2.144,0,0,0,.395,1.234,2.516,2.516,0,0,0,1.028.84l-.037-.027h.005a2.862,2.862,0,0,0,.392.042.922.922,0,0,0,.275-.043,1.489,1.489,0,0,0,.889-.7,1.234,1.234,0,0,0,.13-.667.285.285,0,0,0-.026-.12.968.968,0,0,0-.131-.011c-.1,0-.148.027-.148.082,0,.822-.322.9-1.112.9a1.459,1.459,0,0,1-1.393-1.514,2.079,2.079,0,0,1,.607-1.272,2.4,2.4,0,0,1,1.787-.773,3.405,3.405,0,0,1,1.312.288l-.031.062a1.383,1.383,0,0,1,.561.437,1.614,1.614,0,0,1,.286.749,4.6,4.6,0,0,1-.038,1.12,1.931,1.931,0,0,1-.341.816,5.242,5.242,0,0,1-1.953,1.348l1.316-.21.033-.006,2.934-.562a2.652,2.652,0,0,1-.709.43c-.588.3-1.793.856-4.193,1.8a.226.226,0,0,1-.17.051,1.377,1.377,0,0,1-.288-.043h0l-.037-.008c-.522-.278-.494-.466-.465-.664a.517.517,0,0,0-.059-.4,1.015,1.015,0,0,0-.787-.393.227.227,0,0,0-.045,0,.115.115,0,0,0-.092.06c-.025.063.039.159.1.244.045.067.088.131.077.166h0a.563.563,0,0,1,.072,0,.628.628,0,0,1,.459.19,1.134,1.134,0,0,1,.219.862c0,.033-.008.065-.011.1v.005a1.372,1.372,0,0,1-.374.976,3.2,3.2,0,0,1-1.911.478c-.026,0-.051,0-.075,0a.437.437,0,0,1-.373-.166.564.564,0,0,1-.093-.218,4.236,4.236,0,0,1-.627.764,1.935,1.935,0,0,1-.94.526A2.015,2.015,0,0,1,15.927,23.074ZM11.59,20.962c-.022,0-.082.015-.165.149a.846.846,0,0,0-.142.612,2.014,2.014,0,0,0,.445.685.441.441,0,0,0,.283.135.162.162,0,0,0,.032,0,.475.475,0,0,0,.1-.656,1.748,1.748,0,0,1-.093-.25v0c-.071-.259-.071-.259-.053-.376L12,21.216a.5.5,0,0,0-.354-.261.16.16,0,0,0-.05.008Zm3.74-.534a.487.487,0,0,0-.366.259l-.035.994c0,.011,0,.023,0,.035a.886.886,0,0,0,.038.382.4.4,0,0,0,.388.231h0a.728.728,0,0,0,.331-.3,2.408,2.408,0,0,0,.177-.949c-.005-.087-.007-.152-.008-.2a.4.4,0,0,0-.1-.316.415.415,0,0,0-.328-.129.545.545,0,0,0-.063,0A.182.182,0,0,0,15.33,20.428Zm-2.849,0a.419.419,0,0,0-.338.135.4.4,0,0,0-.091.317c0,.053,0,.118,0,.2a2.425,2.425,0,0,0,.194.946.493.493,0,0,0,.143.174.485.485,0,0,0,.193.123h0a.4.4,0,0,0,.384-.238A.885.885,0,0,0,13,21.708l0-.035-.052-.993a.492.492,0,0,0-.367-.253.184.184,0,0,0-.042,0A.509.509,0,0,0,12.481,20.43Zm.951-.256a.4.4,0,0,0-.31.118.4.4,0,0,0-.108.312c0,.053-.007.118-.015.2a2.422,2.422,0,0,0,.144.955.5.5,0,0,0,.136.182c.061.06.147.131.186.131h0a.4.4,0,0,0,.443-.407l.027-.007h.01a.146.146,0,0,1,.06.017.4.4,0,0,0,.442.4h0c.039,0,.125-.071.186-.131a.5.5,0,0,0,.136-.183,2.4,2.4,0,0,0,.144-.955c-.008-.086-.012-.152-.015-.2a.4.4,0,0,0-.108-.312.4.4,0,0,0-.31-.118.58.58,0,0,0-.086.006l-.032,0a.487.487,0,0,0-.364.272v.113l-.017,0h-.011a.167.167,0,0,0-.039,0h-.022v-.109a.487.487,0,0,0-.364-.272l-.032,0A.574.574,0,0,0,13.432,20.174Zm.573,1.479-.028-.053H14c0,.018,0,.036,0,.055Zm-.643-2.162a.159.159,0,0,1-.126-.064,1.724,1.724,0,0,1-.272-.754,6.659,6.659,0,0,1,.978-1.989h0a9.484,9.484,0,0,1,1.029,1.988,1.1,1.1,0,0,1-.176.54c-.1.16-.209.272-.272.272a.042.042,0,0,1-.021,0,5.122,5.122,0,0,1-.534-.56h0C13.931,18.978,13.6,19.491,13.362,19.491Zm-2.813-1.545c-.747-.2-1.621-1.1-1.526-1.77,0-.672.066-1.118.44-1.4A6.342,6.342,0,0,0,11,14.256a2,2,0,0,1,.591-.208,11.627,11.627,0,0,0,1.915.723.507.507,0,0,1,.042.38,2.162,2.162,0,0,1-.828,1.113,11.093,11.093,0,0,0-.624.924,1.557,1.557,0,0,1-.516.617A2.22,2.22,0,0,1,10.549,17.946Zm6.789,0h0a2.223,2.223,0,0,1-1.031-.14,1.556,1.556,0,0,1-.516-.616h0a11.106,11.106,0,0,0-.623-.922,2.162,2.162,0,0,1-.828-1.113.5.5,0,0,1,.042-.38c0-.006.006-.017.007-.017.92-.324,1.047-.449,1.115-.516s.084-.083.792-.19a2,2,0,0,1,.591.207,6.352,6.352,0,0,0,1.538.516c.373.287.444.732.44,1.4.1.674-.779,1.569-1.526,1.77Z" transform="translate(0 2.791)" fill="#ff8282"/>
    </g>
    <text id="Eruption" transform="translate(16 37.052)" fill="#fff" font-size="8" font-family="SegoeUI-Bold, Segoe UI" font-weight="700"><tspan x="-16.191" y="0">Eruption</tspan></text>
  </g>
</svg>
