<svg id="Component_235_1" data-name="Component 235 – 1" xmlns="http://www.w3.org/2000/svg" width="70" height="70" viewBox="0 0 70 70">
  <path id="Subtraction_489" data-name="Subtraction 489" d="M18.942,40.908a9.038,9.038,0,0,1-2.271-.383,11.739,11.739,0,0,1-1.713-.613,4.992,4.992,0,0,0-2.068-.382c-.249,0-.527.013-.8.038v.017h-.029l-.05,0-.042,0-.116,0a.73.73,0,0,0-.095.014V39.6c-.425.017-.777.025-1.044.025a2.245,2.245,0,0,1-.587-.04c-1.075-.549-3.943-1.618-4.508-1.826L5.6,37.751l5.46-1.182L2.63,30.56l7.777.15L0,18.852l.022.009c1.038.428,10.163,4.186,10.98,4.186a.078.078,0,0,0,.057-.015.021.021,0,0,0,0-.021A114.925,114.925,0,0,0,6.168,12.041C4.532,8.766,3.14,6.213,3.127,6.19l13.1,14.362-.308-10.394.006.016c.34.755,1.234,2.722,2.181,4.664,1.039,2.135,2.361,4.681,2.759,4.681.161,0,.5-1.026,1.013-3.05.411-1.631.929-3.889,1.54-6.71C24.448,4.972,25.429.036,25.436,0l.926,20.552L37.09,9.087a21.478,21.478,0,0,0-1.307,2.769c-.817,1.968-2.207,5.665-4.19,12.1,0,.442-.367,2.669-.37,2.689l7-.952-7,7.018,8.275.279-.02.008c-.539.211-1.618.642-2.794,1.154a22.013,22.013,0,0,0-3.841,2,2.951,2.951,0,0,0-1.6,2.533c-.039.282-.067.486-.158.557a2.148,2.148,0,0,1-1.157.253c-.1,0-.173,0-.192,0l-3.826.228-.022.009c-.522.247-.98.429-1.273.538a7.582,7.582,0,0,1-2.337.547,1.285,1.285,0,0,1-.813-.219.977.977,0,0,0-.589-.166,1.049,1.049,0,0,0-.105,0,.6.6,0,0,0-.129-.011.89.89,0,0,0-.562.2A1.829,1.829,0,0,1,18.942,40.908Zm5.112-2.881a.728.728,0,0,0-.517.386l.008.055c.026.173.026.173-.077.558a2.37,2.37,0,0,1-.136.371.7.7,0,0,0,.152.967.181.181,0,0,0,.046,0c.125,0,.571-.087,1.064-1.21a1.27,1.27,0,0,0-.208-.9c-.121-.2-.209-.221-.242-.221a.056.056,0,0,0-.015,0A.239.239,0,0,0,24.054,38.027Zm-6.943.011c-.032,0-.121.021-.242.219a1.273,1.273,0,0,0-.208.9c.493,1.122.939,1.21,1.064,1.21a.181.181,0,0,0,.046,0,.7.7,0,0,0,.152-.969,2.453,2.453,0,0,1-.136-.368c-.1-.386-.1-.386-.077-.56l.008-.057a.727.727,0,0,0-.517-.385.237.237,0,0,0-.074.012Zm1.317-.787a.611.611,0,0,0-.494.2.589.589,0,0,0-.135.464c0,.08,0,.179-.006.307a3.755,3.755,0,0,0,.283,1.395,1.085,1.085,0,0,0,.491.438c.674-.054.637-.575.612-.92l0-.049L19.1,37.62a.717.717,0,0,0-.537-.373.248.248,0,0,0-.06.006C18.487,37.253,18.462,37.251,18.428,37.251Zm4.207,0a.709.709,0,0,0-.536.382L22.048,39.1l0,.051c-.017.344-.043.865.623.906a1.031,1.031,0,0,0,.489-.445,3.685,3.685,0,0,0,.259-1.4c-.007-.12-.009-.213-.011-.288v-.014a.579.579,0,0,0-.623-.656.821.821,0,0,0-.091,0A.229.229,0,0,0,22.635,37.248ZM15.089,35.59h0a2.044,2.044,0,0,1,.613.241,1.176,1.176,0,0,1,.607.776.544.544,0,0,1-.183.593,2.27,2.27,0,0,0-.6,1.236c-.022.2.226.551.438.813a4.006,4.006,0,0,0,.5.543.24.24,0,0,0,.156-.052.039.039,0,0,0,0-.032,2.9,2.9,0,0,0-.162-.38l-.008-.017-.007-.016c-.116-.243-.236-.495-.193-.595a1.637,1.637,0,0,1,.291-.181l.051-.029.037-.02.026-.015.033-.019a.193.193,0,0,0,0-.037l0-.02a.818.818,0,0,1,.2-.577.233.233,0,0,1,.147-.044,1.391,1.391,0,0,1,.627.271l0-.016c.02-.451.146-.745.353-.828a.634.634,0,0,1,.366-.118,1.138,1.138,0,0,1,.737.388l0-.008c.054-.223.187-.606.468-.674a1.405,1.405,0,0,1,.248-.023.718.718,0,0,1,.761.561c.106-.222.344-.593.717-.6h.029a.654.654,0,0,1,.582.322,1.4,1.4,0,0,1,.093.169l.009.019c.041.085.066.133.094.133a.519.519,0,0,0,.163-.075l.02-.013a1.2,1.2,0,0,1,.558-.215.511.511,0,0,1,.1.012,1.087,1.087,0,0,1,.514.969c0,.075.006.121.025.121s.019-.006.05-.044a.568.568,0,0,1,.491-.259.417.417,0,0,1,.356.155.3.3,0,0,1,.008.288c.113.22.158.262.2.262a.132.132,0,0,0,.045-.012l.009,0a.212.212,0,0,1,.074-.017.4.4,0,0,1,.222.1,1.779,1.779,0,0,1-.166.624l-.008.02a1.321,1.321,0,0,0-.136.483.013.013,0,0,0,.011.006,1.235,1.235,0,0,0,.5-.327,1.684,1.684,0,0,0,.488-.738,7.564,7.564,0,0,0-.088-.856A1.963,1.963,0,0,1,25,36.986a.761.761,0,0,0-.07-.167.906.906,0,0,1,.265-.667,1.768,1.768,0,0,1,.971-.5l.2,2.079a2.109,2.109,0,0,0,.366.288,1.758,1.758,0,0,0,.917.288,1.944,1.944,0,0,0,1.572-1.064,1.5,1.5,0,0,0-.409-1.535c-.19-.227-.341-.406-.223-.639.025-.009.09-.05.161-.251a6.216,6.216,0,0,0,.226-1.65c.025-.046-.022-.1-.037-.11a.1.1,0,0,0-.092-.044,1.656,1.656,0,0,0-.607.3l-.017.012a1.681,1.681,0,0,1-.5.258,2.671,2.671,0,0,1,.486-.874l.016-.021a6.34,6.34,0,0,0,.644-1.036,2.21,2.21,0,0,0-.06-1.362,3.4,3.4,0,0,0-.589-1.312c-.391-.115-.349-1.358-.266-1.943.037-.263.084-.426.121-.426.006,0,.013.005.019.015a10.546,10.546,0,0,1,1.345,3.4c.022.053.048.08.081.08.1,0,.218-.254.241-.305a7.91,7.91,0,0,0-1.839-6.211,9.894,9.894,0,0,0-3.285-2.5,9.659,9.659,0,0,0-3.755-.963,6.052,6.052,0,0,0-.629-.032,7.145,7.145,0,0,0-2.48.468,9.666,9.666,0,0,0-2.33,1.265,10.939,10.939,0,0,0-1.972,1.851,9.764,9.764,0,0,0-1.406,2.225,9.333,9.333,0,0,0-.607,2.809,6.359,6.359,0,0,0,.026,1.161s.06.123.143.123c.056,0,.107-.06.152-.179a20.91,20.91,0,0,1,1.366-3.169.054.054,0,0,1,.025-.006.083.083,0,0,1,.06.037,2.8,2.8,0,0,1,.139,1.553,2.44,2.44,0,0,1-.383.773L12.979,29l-.011.017a4.67,4.67,0,0,0-.62,1.265,2.316,2.316,0,0,0,.191,1.688,10.965,10.965,0,0,0,.818,1.246l0,.008c.148.2.287.392.387.56a5.073,5.073,0,0,0-1.334-.75.087.087,0,0,0-.065.02,7.206,7.206,0,0,0,.1,1.82c.328.3.175.507-.036.795a1.484,1.484,0,0,0,.269,2.321,1.908,1.908,0,0,0,1.072.331,1.106,1.106,0,0,0,.9-.362,1.094,1.094,0,0,0,.321-.975,4.794,4.794,0,0,1,.111-1.4Zm5.5,3.479a.22.22,0,0,1,.093.028.581.581,0,0,0,.646.582c.112,0,.466-.365.474-.462a3.739,3.739,0,0,0,.209-1.409c-.01-.109-.015-.2-.02-.266l0-.037a.592.592,0,0,0-.156-.458.579.579,0,0,0-.454-.175.852.852,0,0,0-.123.009.343.343,0,0,0-.049,0,.72.72,0,0,0-.533.4v.169a.089.089,0,0,0-.03-.005l-.015,0a.248.248,0,0,0-.056-.006.241.241,0,0,0-.042,0v-.163a.71.71,0,0,0-.531-.4.239.239,0,0,0-.046,0,.854.854,0,0,0-.125-.009.576.576,0,0,0-.454.175.6.6,0,0,0-.158.463l0,.037c0,.07-.009.154-.019.262a3.709,3.709,0,0,0,.21,1.409c.008.1.36.462.471.462a.586.586,0,0,0,.649-.6l.01,0,.038-.009ZM19.726,35.8a.238.238,0,0,1-.186-.1,2.668,2.668,0,0,1-.4-1.132,6.638,6.638,0,0,1,.784-1.915c.2-.349.42-.713.648-1.053l.011-.016.014.017A12.884,12.884,0,0,1,22.1,34.572a1.666,1.666,0,0,1-.26.81c-.144.24-.309.408-.4.408a.078.078,0,0,1-.029-.008,7.622,7.622,0,0,1-.788-.84l-.006.016C20.409,35.272,20.02,35.8,19.726,35.8Zm-4.111-2.317h0c-1.031-.28-2.238-1.527-2.108-2.467,0-.937.093-1.558.609-1.956a8.715,8.715,0,0,0,2.122-.719,2.782,2.782,0,0,1,.818-.29A16.275,16.275,0,0,0,19.7,29.059a.716.716,0,0,1,.059.529,3.014,3.014,0,0,1-1.145,1.552c-.407.545-.657.953-.858,1.282l-.006.011a2.149,2.149,0,0,1-.709.856A3.053,3.053,0,0,1,15.615,33.482Zm9.974-.008h0a3.052,3.052,0,0,1-1.423-.2,2.11,2.11,0,0,1-.7-.844l-.01-.016a15.164,15.164,0,0,0-.861-1.286,3.021,3.021,0,0,1-1.145-1.552.709.709,0,0,1,.059-.53.105.105,0,0,1,.009-.025c1.269-.449,1.445-.624,1.54-.718s.118-.117,1.1-.265a2.73,2.73,0,0,1,.812.285,8.545,8.545,0,0,0,2.128.722c.516.4.613,1.021.607,1.958.132.939-1.076,2.186-2.108,2.467Z" transform="translate(15 5.835)" fill="#ff8282" opacity="0.75"/>
  <text id="Fighting_Blind" data-name="Fighting Blind" transform="translate(35 57.239)" fill="#fff" font-size="8" font-family="SegoeUI-Bold, Segoe UI" font-weight="700"><tspan x="-26.529" y="0">Fighting Blind</tspan></text>
  <rect id="Rectangle_1502" data-name="Rectangle 1502" width="70" height="70" fill="none"/>
</svg>
