<svg xmlns="http://www.w3.org/2000/svg" width="48" height="39.936" viewBox="0 0 48 39.936">
  <g id="Component_214_1" data-name="Component 214 – 1" transform="translate(1)">
    <g id="Component_149_6" data-name="Component 149 – 6" transform="translate(8)">
      <path id="Subtraction_218" data-name="Subtraction 218" d="M3.629,14.1h0a3.152,3.152,0,0,1-.363-.388c-.153-.188-.333-.441-.317-.582a2.234,2.234,0,0,1,.222-.608,1.3,1.3,0,0,1,.215-.276.388.388,0,0,0,.132-.425.843.843,0,0,0-.439-.555,1.5,1.5,0,0,0-.444-.172,3.381,3.381,0,0,0-.081,1,.781.781,0,0,1-.232.7.8.8,0,0,1-.653.258,1.389,1.389,0,0,1-.774-.236,1.187,1.187,0,0,1-.5-.748,1.177,1.177,0,0,1,.3-.909c.156-.208.269-.358.03-.574a4.947,4.947,0,0,1-.071-1.3A.068.068,0,0,1,.7,9.269a3.7,3.7,0,0,1,.963.536c-.07-.118-.167-.249-.278-.4a7.871,7.871,0,0,1-.595-.9A1.636,1.636,0,0,1,.653,7.3a3.332,3.332,0,0,1,.454-.916,1.744,1.744,0,0,0,.282-.562,1.985,1.985,0,0,0-.1-1.112.061.061,0,0,0-.045-.026.043.043,0,0,0-.017,0A14.881,14.881,0,0,0,.241,6.957c-.032.085-.069.128-.11.128C.074,7.084.029,7,.028,7a4.552,4.552,0,0,1-.019-.832,6.447,6.447,0,0,1,.116-.9A6.676,6.676,0,0,1,.448,4.156,6.979,6.979,0,0,1,1.464,2.564,7.9,7.9,0,0,1,2.888,1.24,7,7,0,0,1,4.571.335,5.212,5.212,0,0,1,6.362,0a4.345,4.345,0,0,1,.454.024,6.5,6.5,0,0,1,1.353.2A7.533,7.533,0,0,1,10.8,1.478,6.755,6.755,0,0,1,11.9,2.5a5.621,5.621,0,0,1,1.33,4.444s-.1.219-.175.219c-.023,0-.043-.019-.058-.057a7.506,7.506,0,0,0-.971-2.431c0-.008-.009-.012-.014-.012-.027,0-.06.117-.087.306-.06.418-.091,1.308.192,1.39a1.325,1.325,0,0,1,.231.379,3.729,3.729,0,0,1,.195.56,1.559,1.559,0,0,1,.043.973,4.566,4.566,0,0,1-.474.753,1.906,1.906,0,0,0-.354.629,1.249,1.249,0,0,0,.375-.191,1.209,1.209,0,0,1,.44-.213.074.074,0,0,1,.066.031s.046.041.027.079a4.4,4.4,0,0,1-.164,1.181c-.061.171-.115.179-.116.179-.086.167.023.3.161.458a1.489,1.489,0,0,1,.278.421,1.058,1.058,0,0,1,.018.678,1.406,1.406,0,0,1-1.136.761,1.279,1.279,0,0,1-.661-.206,1.523,1.523,0,0,1-.264-.206l-.147-1.488a.971.971,0,0,0-.31.09,1.234,1.234,0,0,0-.392.268.648.648,0,0,0-.191.477.506.506,0,0,1,.05.119,1.409,1.409,0,0,0,.416.612h0a5.317,5.317,0,0,1,.064.613,1.188,1.188,0,0,1-.352.528.884.884,0,0,1-.363.233h0a.01.01,0,0,1-.008,0,1.006,1.006,0,0,1,.1-.344,1.311,1.311,0,0,0,.126-.462.288.288,0,0,0-.16-.072.134.134,0,0,0-.054.012l-.005,0h0a.09.09,0,0,1-.034.01c-.03,0-.064-.031-.144-.187a.212.212,0,0,0-.006-.207.3.3,0,0,0-.258-.112.412.412,0,0,0-.355.185c-.017.022-.028.032-.036.032S8.7,12.9,8.7,12.848a.774.774,0,0,0-.372-.693.311.311,0,0,0-.074-.009.868.868,0,0,0-.4.153.432.432,0,0,1-.131.063h0c-.021,0-.041-.039-.067-.094a1.2,1.2,0,0,0-.075-.137.473.473,0,0,0-.421-.231H7.136a.522.522,0,0,0-.385.214,1,1,0,0,0-.133.213.517.517,0,0,0-.1-.2.543.543,0,0,0-.454-.2,1.029,1.029,0,0,0-.179.017.44.44,0,0,0-.264.267,1.084,1.084,0,0,0-.072.221.837.837,0,0,0-.533-.277.465.465,0,0,0-.264.084.451.451,0,0,0-.225.341,1.281,1.281,0,0,0-.028.264,1.056,1.056,0,0,0-.454-.2.165.165,0,0,0-.106.032.577.577,0,0,0-.147.411.269.269,0,0,1,0,.041l-.066.037a1.852,1.852,0,0,0-.251.151c-.031.074.058.258.144.436a2.254,2.254,0,0,1,.124.285.025.025,0,0,1,0,.023A.184.184,0,0,1,3.629,14.1ZM6.6,8.232h0s-.23.331-.472.757a4.747,4.747,0,0,0-.57,1.378,1.859,1.859,0,0,0,.29.81.169.169,0,0,0,.135.069c.14,0,.308-.167.424-.307a2.963,2.963,0,0,0,.222-.307,5.476,5.476,0,0,0,.569.6.046.046,0,0,0,.022.005c.067,0,.187-.12.29-.292a1.19,1.19,0,0,0,.188-.579,4.351,4.351,0,0,0-.549-1.22C6.878,8.67,6.6,8.236,6.6,8.232Zm.784-1.444a1.486,1.486,0,0,1,.416.055.552.552,0,0,1,.368.28c.086.277.16.523.225.741A3.611,3.611,0,0,0,9,9.329c.234.223.571.259,1.288.259.8-.216,1.728-1.176,1.626-1.9a1.6,1.6,0,0,0-.506-1.435,16.889,16.889,0,0,0-2.058-.609L9.089,5.58a2.169,2.169,0,0,0-.252-.015,1.509,1.509,0,0,0-1.255.613,1.848,1.848,0,0,0-.3.613h0C7.312,6.789,7.347,6.788,7.384,6.788ZM4.439,5.565a2.171,2.171,0,0,0-.252.015l-.265.063h0a16.889,16.889,0,0,0-2.058.609,1.6,1.6,0,0,0-.506,1.435c-.1.724.83,1.684,1.626,1.9.716,0,1.053-.036,1.288-.259a3.611,3.611,0,0,0,.611-1.464h0c.065-.217.139-.464.225-.74a.552.552,0,0,1,.368-.28,1.486,1.486,0,0,1,.416-.055c.063,0,.1,0,.1,0a1.846,1.846,0,0,0-.3-.613A1.509,1.509,0,0,0,4.439,5.565Z" transform="translate(8.646 12.11)" fill="#f17a7a" opacity="0.75"/>
      <path id="Union_18" data-name="Union 18" d="M1.539,2.008a.42.42,0,0,1-.465-.416.147.147,0,0,0-.079-.021L.96,1.58a.423.423,0,0,1-.466.428C.42,2.013.156,1.751.151,1.677A2.506,2.506,0,0,1,0,.67C.034.31-.008.291.129.125A.493.493,0,0,1,.547.006C.725-.026.959.217.964.291V.406a.183.183,0,0,1,.069,0,.062.062,0,0,1,.034,0V.291c.006-.074.24-.317.418-.284A.492.492,0,0,1,1.9.125c.138.166.1.185.129.546a2.517,2.517,0,0,1-.151,1.007.761.761,0,0,1-.341.331Zm-.5-.5.036.068c0-.024,0-.047,0-.071Z" transform="translate(14.248 24.125)" fill="#f17a7a" opacity="0.64"/>
      <path id="Path_802" data-name="Path 802" d="M.171,1.905A.494.494,0,0,0,.6,1.994c.18.02.4-.239.4-.312L.92.635C.906.4.91-.021.4,0,.329,0,.085.281.085.355A2.52,2.52,0,0,0,0,1.371C.063,1.728.023,1.749.171,1.905Z" transform="matrix(-0.995, -0.105, 0.105, -0.995, 17.152, 26.443)" fill="#f17a7a" opacity="0.64"/>
      <path id="Path_803" data-name="Path 803" d="M.171.1A.494.494,0,0,1,.6.014c.18-.02.4.239.4.312L.92,1.374C.906,1.611.91,2.03.4,2.008c-.074,0-.318-.28-.318-.354A2.52,2.52,0,0,1,0,.638C.063.281.023.259.171.1Z" transform="translate(13.15 24.456) rotate(-7)" fill="#f17a7a" opacity="0.64"/>
      <path id="Path_804" data-name="Path 804" d="M.281.119C.429-.036.495.005.495.005c.18-.02.362.277.362.35C.8.514.8.483.815.8c.02.4.247.65-.21.933C.532,1.731.2,1.653,0,.72A.9.9,0,0,1,.281.119Z" transform="matrix(0.978, -0.208, 0.208, 0.978, 12.267, 25.057)" fill="#f17a7a" opacity="0.64"/>
      <path id="Path_805" data-name="Path 805" d="M.281,1.611c.148.156.214.114.214.114.18.02.362-.277.362-.35C.8,1.216.8,1.248.815.933c.02-.4.247-.65-.21-.933C.532,0,.2.078,0,1.011A.9.9,0,0,0,.281,1.611Z" transform="matrix(-0.978, -0.208, 0.208, -0.978, 17.933, 26.749)" fill="#f17a7a" opacity="0.64"/>
      <g id="Union_14" data-name="Union 14" fill="#627e70" opacity="0.64">
        <path d="M 8.663089752197266 22.00148773193359 C 7.349739551544189 22.00097846984863 6.237049579620361 19.65956878662109 6.237049579620361 16.88809776306152 C 6.237049579620361 15.72616767883301 6.432609558105469 14.57543754577637 6.787709712982178 13.64789772033691 L 6.790509700775146 13.64059829711914 L 6.790939331054688 13.63279819488525 L 6.794849395751953 13.56268787384033 C 6.871969699859619 12.17966747283936 6.902839660644531 11.328537940979 6.681819438934326 11.17074775695801 C 6.639139652252197 11.14028835296631 6.596699714660645 11.10700798034668 6.55566930770874 11.07181835174561 L 6.500669479370117 11.024658203125 L 6.476089477539062 11.09281826019287 C 6.102569580078125 12.12853813171387 5.111449718475342 12.82441806793213 4.009809494018555 12.82441806793213 C 2.564609527587891 12.82441806793213 1.388859510421753 11.64878749847412 1.388859510421753 10.20373821258545 C 1.388859510421753 9.94859790802002 1.42544949054718 9.696477890014648 1.497609496116638 9.454378128051758 L 1.507799506187439 9.420177459716797 L 1.478769540786743 9.399417877197266 C 0.5707695484161377 8.750328063964844 0.04999953135848045 7.584157943725586 0.04999953135848045 6.199917793273926 C 0.04999953135848045 4.051117897033691 1.639169573783875 2.302937984466553 3.592529535293579 2.302937984466553 C 4.240519523620605 2.302937984466553 4.819059371948242 2.473608016967773 5.312099456787109 2.81021785736084 L 5.361549377441406 2.843987941741943 L 5.385949611663818 2.789297819137573 C 6.116999626159668 1.150837898254395 8.068489074707031 0.04999789968132973 10.24197959899902 0.04999789968132973 C 12.35616970062256 0.04999789968132973 14.23343944549561 1.064617872238159 15.02454948425293 2.634877920150757 L 15.06728935241699 2.71970796585083 L 15.1130199432373 2.636447906494141 C 15.93038940429688 1.148437857627869 17.75495910644531 0.1869478970766068 19.76132965087891 0.1869478970766068 C 21.87442970275879 0.1869478970766068 23.79023933410645 1.266297936439514 24.52857971191406 2.872767925262451 L 24.55427932739258 2.928697824478149 L 24.603759765625 2.892077922821045 C 25.17882919311523 2.466417789459229 25.84882926940918 2.241427898406982 26.54130935668945 2.241427898406982 C 28.47740936279297 2.241427898406982 30.05253982543945 4.000777721405029 30.05253982543945 6.163317680358887 C 30.05253982543945 7.410957813262939 29.5131893157959 8.59577751159668 28.60978889465332 9.332697868347168 L 28.58469009399414 9.353157997131348 L 28.59310913085938 9.384437561035156 C 28.65266036987305 9.605688095092773 28.68285942077637 9.835257530212402 28.68285942077637 10.06678771972656 C 28.68285942077637 11.51183795928955 27.50710868835449 12.68746757507324 26.06192016601562 12.68746757507324 C 25.08467864990234 12.68746757507324 24.19500923156738 12.14960765838623 23.74009895324707 11.28376770019531 L 23.68210029602051 11.17337799072266 L 23.64776992797852 11.29325771331787 C 23.35026168823242 12.33211040496826 23.33707618713379 13.47615909576416 23.60759544372559 14.79025363922119 L 23.60721969604492 14.7907075881958 L 23.59152984619141 14.8093376159668 L 23.5965404510498 14.83317756652832 C 23.73392868041992 15.48787784576416 23.8036003112793 16.17924880981445 23.8036003112793 16.88809776306152 C 23.8036003112793 19.65787696838379 22.69237518310547 21.99811935424805 21.37636756896973 22.00097465515137 C 21.34857940673828 21.98796653747559 21.28897476196289 21.8831787109375 21.2409496307373 21.79873847961426 C 21.13031005859375 21.60418701171875 20.97876930236816 21.33772850036621 20.7508487701416 21.21268844604492 C 20.7349796295166 21.20412826538086 20.7167797088623 21.19987869262695 20.69641876220703 21.19987869262695 C 20.59554862976074 21.19987869262695 20.43663024902344 21.3050479888916 20.22311973571777 21.45362854003906 C 20.14175033569336 21.51025772094727 20.06489944458008 21.5637378692627 20.01627922058105 21.58896827697754 C 19.96974945068359 21.61321830749512 19.94817924499512 21.61583709716797 19.94105911254883 21.61583709716797 C 19.93441963195801 21.60852813720703 19.93482971191406 21.5693473815918 19.93504905700684 21.54828834533691 C 19.93522644042969 21.53119850158691 19.93531608581543 21.51444244384766 19.93419456481934 21.49946975708008 C 19.94150543212891 21.48487663269043 19.98108863830566 21.45163345336914 20.01616859436035 21.42217826843262 C 20.21876907348633 21.25203704833984 20.64035987854004 20.89801788330078 20.77639007568359 19.84375762939453 C 20.88027000427246 19.03867721557617 20.65036964416504 18.78514862060547 20.42803955078125 18.53996849060059 C 20.26512908935547 18.36031723022461 20.11124992370605 18.19062805175781 20.08922958374023 17.79440879821777 C 20.04690933227539 17.0322380065918 20.06404876708984 16.20459747314453 20.1387996673584 15.40094757080078 L 20.14377975463867 15.34730815887451 L 20.08992004394531 15.34632778167725 C 20.04781913757324 15.34555816650391 20.00584983825684 15.34514808654785 19.96413993835449 15.34514808654785 C 19.5350170135498 15.34514808654785 19.20046234130859 15.38922214508057 18.91290855407715 15.48376274108887 C 18.91264152526855 15.40334892272949 19.00407791137695 15.15555572509766 19.07238006591797 14.97045803070068 L 19.10276985168457 14.88793754577637 C 19.24560928344727 14.49856758117676 19.30667877197266 14.28446769714355 19.24408912658691 14.19483757019043 C 19.23290252685547 14.1788215637207 19.21800231933594 14.16701602935791 19.20049476623535 14.15998077392578 C 19.25007057189941 14.06458568572998 19.33854103088379 13.87059307098389 19.17302894592285 13.70412826538086 C 18.81156921386719 13.34097766876221 17.81624031066895 12.75642776489258 17.55935859680176 12.75642776489258 C 17.54899978637695 12.75642776489258 17.53970909118652 12.75729751586914 17.5314998626709 12.75887775421143 C 17.1234188079834 12.83748817443848 16.80508995056152 13.0677375793457 16.49724960327148 13.29040813446045 C 16.12059020996094 13.56284809112549 15.73109912872314 13.84456825256348 15.17286968231201 13.84456825256348 C 14.27996921539307 13.84456825256348 13.72437000274658 14.53150749206543 13.08102989196777 15.32691764831543 C 12.61486911773682 15.90327835083008 12.08650970458984 16.55653762817383 11.34932994842529 17.02322769165039 C 11.10097980499268 17.18049812316895 10.77086925506592 17.26023864746094 10.3681697845459 17.26025772094727 C 10.25998973846436 17.26025772094727 10.14462947845459 17.25449752807617 10.02528953552246 17.24312782287598 L 9.971719741821289 17.23801803588867 L 9.970559120178223 17.29181861877441 C 9.966909408569336 17.46085739135742 9.960429191589355 17.62995719909668 9.951309204101562 17.79440879821777 C 9.929329872131348 18.19063758850098 9.775459289550781 18.36032867431641 9.612549781799316 18.53997802734375 C 9.390219688415527 18.78515815734863 9.160319328308105 19.03868865966797 9.264269828796387 19.84375762939453 C 9.400299072265625 20.89801788330078 9.821819305419922 21.25203704833984 10.02438926696777 21.42217826843262 C 10.05946350097656 21.45163536071777 10.09903907775879 21.48488235473633 10.10634708404541 21.49947357177734 C 10.10524463653564 21.51445007324219 10.10534381866455 21.53110313415527 10.10552978515625 21.54809761047363 C 10.1057596206665 21.5692081451416 10.1061897277832 21.60848808288574 10.09958934783936 21.6179084777832 C 10.09063911437988 21.61583709716797 10.06912994384766 21.61235809326172 10.02433967590332 21.58900833129883 C 9.975629806518555 21.5637378692627 9.898749351501465 21.51022720336914 9.817349433898926 21.45357704162598 C 9.603899955749512 21.30502700805664 9.445019721984863 21.19987869262695 9.344209671020508 21.19987869262695 C 9.323859214782715 21.19987869262695 9.305649757385254 21.20413780212402 9.290099143981934 21.21252822875977 C 9.061789512634277 21.33774757385254 8.910259246826172 21.60423851013184 8.799629211425781 21.79881858825684 C 8.750929832458496 21.88445854187012 8.690319061279297 21.99104881286621 8.663089752197266 22.00148773193359 Z" stroke="none"/>
        <path d="M 21.39470672607422 21.95077514648438 C 22.67556381225586 21.92605781555176 23.75359916687012 19.61771774291992 23.75359916687012 16.88809776306152 C 23.75359916687012 16.18269729614258 23.68428993225098 15.49477767944336 23.54759979248047 14.8434476852417 L 23.53759956359863 14.79576778411865 L 23.55376052856445 14.77657318115234 C 23.28662872314453 13.46439838409424 23.30172920227051 12.31998538970947 23.59969902038574 11.27949810028076 L 23.66836929321289 11.03973770141602 L 23.78437042236328 11.26051807403564 C 24.23060989379883 12.10984802246094 25.10330963134766 12.6374683380127 26.06192016601562 12.6374683380127 C 27.47953987121582 12.6374683380127 28.63286018371582 11.48426818847656 28.63286018371582 10.06678771972656 C 28.63286018371582 9.839648246765137 28.60323905944824 9.614438056945801 28.54483032226562 9.397427558898926 L 28.52799034118652 9.334887504577637 L 28.57818031311035 9.293948173522949 C 29.47006988525391 8.566428184509277 30.00253868103027 7.396098136901855 30.00253868103027 6.163317680358887 C 30.00253868103027 4.028347969055176 28.44983863830566 2.291427850723267 26.54130935668945 2.291427850723267 C 25.859619140625 2.291427850723267 25.19990921020508 2.513027906417847 24.63349914550781 2.932267904281616 L 24.53455924987793 3.005507946014404 L 24.48315048217773 2.893647909164429 C 23.7528190612793 1.304597854614258 21.85525894165039 0.2369478940963745 19.76132965087891 0.2369478940963745 C 17.77293014526367 0.2369478940963745 15.96555995941162 1.188257932662964 15.15684986114502 2.660517930984497 L 15.06537914276123 2.827047824859619 L 14.97988986968994 2.657367944717407 C 14.19720935821533 1.103827953338623 12.33746910095215 0.09999790042638779 10.24197959899902 0.09999790042638779 C 8.087899208068848 0.09999790042638779 6.154759407043457 1.188937902450562 5.431609630584717 2.809677839279175 L 5.382809638977051 2.919047832489014 L 5.283899307250977 2.851517915725708 C 4.79932975769043 2.520687818527222 4.230269432067871 2.352937936782837 3.592529535293579 2.352937936782837 C 1.666739583015442 2.352937936782837 0.09999953210353851 4.07868766784668 0.09999953210353851 6.199917793273926 C 0.09999953210353851 7.567807674407959 0.6131395101547241 8.719158172607422 1.507839560508728 9.358747482299805 L 1.565909504890442 9.40025806427002 L 1.545519590377808 9.468657493591309 C 1.474749565124512 9.706128120422363 1.438859581947327 9.953437805175781 1.438859581947327 10.20373821258545 C 1.438859581947327 11.62121772766113 2.592179536819458 12.77441787719727 4.009809494018555 12.77441787719727 C 5.090439319610596 12.77441787719727 6.062659740447998 12.09181785583496 6.429049491882324 11.0758581161499 L 6.478209495544434 10.93952751159668 L 6.58821964263916 11.03386783599854 C 6.628129482269287 11.06808757781982 6.669389724731445 11.10044765472412 6.710879325866699 11.13004779815674 C 6.958199501037598 11.30662822723389 6.924909591674805 12.12832832336426 6.844769477844238 13.56546783447266 L 6.839999675750732 13.65117835998535 L 6.834409713745117 13.66576766967773 C 6.481439590454102 14.58774757385254 6.287049293518066 15.73212814331055 6.287049293518066 16.88809776306152 C 6.287049293518066 19.61771774291992 7.365075588226318 21.92605781555176 8.645942687988281 21.95077514648438 C 8.672100067138672 21.92194366455078 8.718281745910645 21.84071922302246 8.756159782409668 21.77409744262695 C 8.869749069213867 21.57432746887207 9.02531909942627 21.30071830749512 9.26630973815918 21.16855812072754 C 9.289239883422852 21.15615844726562 9.315449714660645 21.14987754821777 9.344209671020508 21.14987754821777 C 9.459839820861816 21.14987754821777 9.617919921875 21.25387763977051 9.845889091491699 21.41252708435059 C 9.925929069519043 21.46822738647461 10.00152969360352 21.52084732055664 10.04745960235596 21.544677734375 C 10.0502815246582 21.5461483001709 10.05297565460205 21.54751777648926 10.05554103851318 21.54879188537598 C 10.05554008483887 21.54874420166016 10.05554008483887 21.5486946105957 10.05553913116455 21.54864883422852 C 10.05541801452637 21.5375804901123 10.05535507202148 21.52664566040039 10.05558013916016 21.51613235473633 C 10.04176425933838 21.50206184387207 10.01479625701904 21.47941207885742 9.992229461669922 21.46046829223633 C 9.784809112548828 21.28625869750977 9.353209495544434 20.92375755310059 9.214679718017578 19.85016822814941 C 9.107769966125488 19.02219772338867 9.356269836425781 18.74816703796387 9.575509071350098 18.50638771057129 C 9.739099502563477 18.32597732543945 9.880389213562012 18.1701774597168 9.901379585266113 17.7916374206543 C 9.910479545593262 17.62774848937988 9.916929244995117 17.4592170715332 9.92056941986084 17.29073715209961 L 9.92289924621582 17.18314743041992 L 10.030029296875 17.1933479309082 C 10.58224487304688 17.24594688415527 11.0172233581543 17.17435455322266 11.32258987426758 16.98098754882812 C 12.052809715271 16.5186882019043 12.57841968536377 15.8688383102417 13.04215908050537 15.29547786712646 C 13.69354915618896 14.49010753631592 14.25609970092773 13.79456806182861 15.17286968231201 13.79456806182861 C 15.71490955352783 13.79456806182861 16.08069038391113 13.52999782562256 16.46794891357422 13.24988746643066 C 16.78019905090332 13.02403831481934 17.10309028625488 12.79048824310303 17.52212905883789 12.70976829528809 C 17.53384971618652 12.70751762390137 17.54601860046387 12.70642757415771 17.55935859680176 12.70642757415771 C 17.83065986633301 12.70642757415771 18.83243942260742 13.2910680770874 19.2084789276123 13.66886806488037 C 19.37606239318848 13.83740901947021 19.31664657592773 14.03093719482422 19.26481437683105 14.14262866973877 C 19.2722225189209 14.14963531494141 19.27900505065918 14.15750980377197 19.28507995605469 14.16620826721191 C 19.36120986938477 14.27522754669189 19.30484962463379 14.48227787017822 19.14971923828125 14.90514755249023 L 19.11927032470703 14.98782825469971 C 19.07043266296387 15.12018585205078 19.00279808044434 15.303466796875 18.97561836242676 15.41206550598145 C 19.2504711151123 15.33247661590576 19.5677661895752 15.29514789581299 19.96413993835449 15.29514789581299 C 20.00614929199219 15.29514789581299 20.04841995239258 15.29556751251221 20.09082984924316 15.29633808135986 L 20.19855880737305 15.29829788208008 L 20.18857955932617 15.40557765960693 C 20.11405944824219 16.20680809020996 20.09696960449219 17.03188705444336 20.13916015625 17.79162788391113 C 20.16018867492676 18.17016792297363 20.30147933959961 18.32596778869629 20.46508026123047 18.50637817382812 C 20.6843204498291 18.7481575012207 20.93280982971191 19.02218818664551 20.82597923278809 19.85015869140625 C 20.68745040893555 20.92375755310059 20.25576972961426 21.28625869750977 20.04831886291504 21.46046829223633 C 20.02576065063477 21.47941207885742 19.99879837036133 21.50204849243164 19.98497581481934 21.51612281799316 C 19.98521041870117 21.52665138244629 19.98515510559082 21.53763961791992 19.98504066467285 21.54876518249512 C 19.98764419555664 21.5474739074707 19.99038124084473 21.54608345031738 19.99324989318848 21.54458808898926 C 20.03899002075195 21.52084732055664 20.11455917358398 21.4682674407959 20.19455909729004 21.41258811950684 C 20.47917175292969 21.21453094482422 20.65616607666016 21.10486602783203 20.77490043640137 21.16885757446289 C 21.01523017883301 21.30070877075195 21.17080879211426 21.57426834106445 21.28442001342773 21.77401733398438 C 21.32232475280762 21.84067535400391 21.3685359954834 21.92193222045898 21.39470672607422 21.95077514648438 M 21.37385940551758 22.05097770690918 C 21.25798034667969 22.05097770690918 21.08922004699707 21.45535850524902 20.72679901123047 21.25652694702148 C 20.61733436584473 21.197509765625 20.20226860046387 21.54878807067871 20.03931045532227 21.63334846496582 C 19.85057258605957 21.73171424865723 19.89151000976562 21.58305931091309 19.88410949707031 21.50046730041504 C 19.87300872802734 21.37756729125977 20.54940986633301 21.212158203125 20.72679901123047 19.83735847473145 C 20.90419006347656 18.46256828308105 20.09267997741699 18.75742721557617 20.03931045532227 17.79717826843262 C 19.99460983276367 16.99214744567871 20.0172004699707 16.16841697692871 20.08901023864746 15.39631748199463 C 19.67092323303223 15.38870716094971 19.2706127166748 15.41636753082275 18.91580009460449 15.53548812866211 C 18.78560066223145 15.57912158966064 18.92591094970703 15.22498512268066 19.05583000183105 14.87071800231934 C 19.18465995788574 14.51952743530273 19.30327987670898 14.16823482513428 19.13756942749023 14.205078125 C 19.07150459289551 14.21975898742676 19.3499698638916 13.95299625396729 19.13756942749023 13.73937797546387 C 18.74912643432617 13.3491153717041 17.72497177124023 12.77260684967041 17.54093933105469 12.8079776763916 C 16.64573860168457 12.98042774200439 16.20541000366211 13.89456748962402 15.17286968231201 13.89456748962402 C 13.65415954589844 13.89456748962402 13.11557960510254 15.96421813964844 11.37607955932617 17.06547737121582 C 11.01663875579834 17.29308891296387 10.53623867034912 17.34203147888184 10.02054977416992 17.29289817810059 C 10.0169095993042 17.46133804321289 10.01051998138428 17.62972831726074 10.00122928619385 17.79717826843262 C 9.947969436645508 18.75742721557617 9.13633918762207 18.46256828308105 9.313859939575195 19.83735847473145 C 9.491249084472656 21.212158203125 10.16751956939697 21.37756729125977 10.15642929077148 21.50046730041504 C 10.14914894104004 21.58305549621582 10.18995952606201 21.73171234130859 10.00122928619385 21.63334846496582 C 9.838259696960449 21.54878997802734 9.423203468322754 21.1975040435791 9.313859939575195 21.25652694702148 C 8.951309204101562 21.45535850524902 8.782679557800293 22.05097770690918 8.666799545288086 22.05097770690918 C 7.342979431152344 22.05097770690918 6.187049388885498 19.76253700256348 6.187049388885498 16.88809776306152 C 6.187049388885498 15.66232776641846 6.397209644317627 14.52806758880615 6.741019725799561 13.63001823425293 C 6.805159568786621 12.47794818878174 6.871779441833496 11.3677978515625 6.652769565582275 11.21143817901611 C 6.608049392700195 11.17952823638916 6.5648193359375 11.14553833007812 6.523119449615479 11.10977745056152 C 6.152019500732422 12.13879776000977 5.166809558868408 12.87441825866699 4.009809494018555 12.87441825866699 C 2.534729480743408 12.87441825866699 1.338859558105469 11.67873764038086 1.338859558105469 10.20373821258545 C 1.338859558105469 9.938467979431152 1.377569556236267 9.68206787109375 1.449689507484436 9.440097808837891 C 0.5382095575332642 8.788517951965332 -4.68749988158379e-07 7.617117881774902 -4.68749988158379e-07 6.199917793273926 C -4.68749988158379e-07 4.006278038024902 1.625719547271729 2.252937793731689 3.592529535293579 2.252937793731689 C 4.265349388122559 2.252937793731689 4.855339527130127 2.437837839126587 5.34028959274292 2.768927812576294 C 6.060449600219727 1.154877901077271 7.983249664306641 -2.100219717249274e-06 10.24197959899902 -2.100219717249274e-06 C 12.42697906494141 -2.100219717249274e-06 14.29751968383789 1.08067786693573 15.06919956207275 2.612377882003784 C 15.87047958374023 1.153647899627686 17.67000961303711 0.136947900056839 19.76132965087891 0.136947900056839 C 21.96543884277344 0.136947900056839 23.84521865844727 1.266187906265259 24.57400894165039 2.851887941360474 C 25.13773918151855 2.434628009796143 25.81412887573242 2.191427946090698 26.54130935668945 2.191427946090698 C 28.50812911987305 2.191427946090698 30.1025390625 3.969667911529541 30.1025390625 6.163317680358887 C 30.1025390625 7.481028079986572 29.52721977233887 8.648858070373535 28.64138984680176 9.371438026428223 C 28.7010498046875 9.593077659606934 28.73285865783691 9.826168060302734 28.73285865783691 10.06678771972656 C 28.73285865783691 11.54178810119629 27.53698921203613 12.73746776580811 26.06192016601562 12.73746776580811 C 25.03455924987793 12.73746776580811 24.14263916015625 12.15742778778076 23.69583892822266 11.30702781677246 C 23.45187950134277 12.15888786315918 23.34539031982422 13.28506755828857 23.66143035888672 14.80365753173828 C 23.65616035461426 14.81011772155762 23.65079879760742 14.81657791137695 23.64546966552734 14.82290744781494 C 23.7788200378418 15.45831775665283 23.85359954833984 16.1568775177002 23.85359954833984 16.88809776306152 C 23.85359954833984 19.76253700256348 22.69767951965332 22.05097770690918 21.37385940551758 22.05097770690918 Z" stroke="none" fill="#a6c1a7"/>
      </g>
      <path id="Path_806" data-name="Path 806" d="M0,0A3.226,3.226,0,0,1,1.378.769a5.153,5.153,0,0,1,.95,1.56" transform="translate(5.518 6.917)" fill="none" stroke="#a6c1a7" stroke-width="0.1" opacity="0.64"/>
      <path id="Path_807" data-name="Path 807" d="M2.328,0A3.226,3.226,0,0,0,.95.769,5.153,5.153,0,0,0,0,2.328" transform="translate(22.059 6.799)" fill="none" stroke="#a6c1a7" stroke-width="0.1" opacity="0.64"/>
      <path id="Path_808" data-name="Path 808" d="M.33-2.435a5.04,5.04,0,0,1,1.194,3.65A24.884,24.884,0,0,1-.1,6.947" transform="translate(8.201 7.238)" fill="none" stroke="#a6c1a7" stroke-width="0.1" opacity="0.64"/>
      <path id="Path_809" data-name="Path 809" d="M1.113-2.435A5.04,5.04,0,0,0-.081,1.216,24.884,24.884,0,0,0,1.539,6.947" transform="translate(20.141 6.989)" fill="none" stroke="#a6c1a7" stroke-width="0.1" opacity="0.64"/>
      <path id="Path_810" data-name="Path 810" d="M0,0A2.949,2.949,0,0,1,2.762,2.026c.582,2.02-.785,5.1-.785,5.1" transform="translate(4.834 8.15)" fill="none" stroke="#a6c1a7" stroke-width="0.1" opacity="0.64"/>
      <path id="Path_811" data-name="Path 811" d="M2.907,0A2.949,2.949,0,0,0,.144,2.026c-.582,2.02.785,5.1.785,5.1" transform="translate(22.089 8.15)" fill="none" stroke="#a6c1a7" stroke-width="0.1" opacity="0.64"/>
      <path id="Path_812" data-name="Path 812" d="M-2.212,0A15.425,15.425,0,0,0-3.475,3.867a5.048,5.048,0,0,0,.441,2.845" transform="translate(11.563 13.354)" fill="none" stroke="#a6c1a7" stroke-width="0.1" opacity="0.64"/>
      <path id="Path_813" data-name="Path 813" d="M-.022,0A10.662,10.662,0,0,1-.131,2.687c-.1.834-.779,1.722-.938,2.678a6.521,6.521,0,0,0,.088,2.3" transform="translate(11.02 9.382)" fill="none" stroke="#a6c1a7" stroke-width="0.1" opacity="0.64"/>
      <path id="Path_814" data-name="Path 814" d="M-1.031,0a3.78,3.78,0,0,0-.108,1.646A2.6,2.6,0,0,0-.346,2.876" transform="translate(11.751 14.313)" fill="none" stroke="#a6c1a7" stroke-width="0.1" opacity="0.64"/>
      <path id="Path_815" data-name="Path 815" d="M0,0A5.255,5.255,0,0,0,.418.861a3.452,3.452,0,0,0,.541.646" transform="translate(6.884 18.969)" fill="none" stroke="#a6c1a7" stroke-width="0.1" opacity="0.64"/>
      <path id="Path_816" data-name="Path 816" d="M.208,0s.4.212.3,2.4C.456,3.412-.047,4.821-.2,6.105A4.4,4.4,0,0,0,.208,8.578" transform="translate(12.159 7.601)" fill="none" stroke="#a6c1a7" stroke-width="0.1" opacity="0.64"/>
      <path id="Path_817" data-name="Path 817" d="M2.119.02a4.188,4.188,0,0,1,.136,3.224C2.055,3.964,1,5.372.635,6.228A6.333,6.333,0,0,0,0,8.372" transform="translate(12.64 6.489)" fill="none" stroke="#a6c1a7" stroke-width="0.1" opacity="0.64"/>
      <path id="Path_818" data-name="Path 818" d="M2.055,0a12.457,12.457,0,0,1-.508,3.382A11.127,11.127,0,0,1,0,6.3" transform="translate(15.239 6.095)" fill="none" stroke="#a6c1a7" stroke-width="0.1" opacity="0.64"/>
      <path id="Path_819" data-name="Path 819" d="M1.233,0A3.539,3.539,0,0,1,.8.852a7.9,7.9,0,0,1-.8.929c.011-.011,0,0,0,0" transform="translate(15.239 12.122)" fill="none" stroke="#a6c1a7" stroke-width="0.1" opacity="0.64"/>
      <path id="Path_820" data-name="Path 820" d="M.685,0a5.188,5.188,0,0,1,0,1.73A3.844,3.844,0,0,1,0,3.15" transform="translate(16.886 9.931)" fill="none" stroke="#a6c1a7" stroke-width="0.1" opacity="0.64"/>
      <path id="Path_821" data-name="Path 821" d="M.548,0A4.109,4.109,0,0,1,.457,1.14,4.084,4.084,0,0,1,0,2.189" transform="translate(19.489 11.987)" fill="none" stroke="#a6c1a7" stroke-width="0.1" opacity="0.64"/>
      <path id="Path_822" data-name="Path 822" d="M1.054,2.836a1.237,1.237,0,0,1-.2.972A5.358,5.358,0,0,1,0,4.913" transform="translate(19.352 10.496)" fill="none" stroke="#a6c1a7" stroke-width="0.1" opacity="0.64"/>
      <path id="Path_796" data-name="Path 796" d="M0,0S.349.156.417.875a10.443,10.443,0,0,1-.143,2" transform="translate(20.996 14.997)" fill="none" stroke="#a6c1a7" stroke-width="0.1" opacity="0.64"/>
      <path id="Path_797" data-name="Path 797" d="M.411,0a3.06,3.06,0,0,1,0,1.041A3.592,3.592,0,0,1,0,2.054" transform="translate(21.68 16.368)" fill="none" stroke="#a6c1a7" stroke-width="0.1" opacity="0.64"/>
      <path id="Path_798" data-name="Path 798" d="M.155,2.263a10.018,10.018,0,0,0,.734-.955A6.883,6.883,0,0,0,1.5,0" transform="translate(21.821 18.147)" fill="none" stroke="#a6c1a7" stroke-width="0.1" opacity="0.64"/>
      <path id="Path_823" data-name="Path 823" d="M3.277-.729a2.757,2.757,0,0,0-1.92.142c-.685.479-.734,2.3-.734,2.3" transform="translate(22.512 11.205)" fill="none" stroke="#a6c1a7" stroke-width="0.1" opacity="0.64"/>
      <path id="Path_833" data-name="Path 833" d="M-.245,1.511A2.421,2.421,0,0,1,.328.441,2.141,2.141,0,0,1,1.415,0" transform="translate(1.707 8.15)" fill="none" stroke="#a6c1a7" stroke-width="0.1" opacity="0.64"/>
      <path id="Path_824" data-name="Path 824" d="M-.269-20.111S-1-24.127,3.624-23.149c3.657,1.118,2.408,7.01,2.408,7.01" transform="translate(2.36 27.712)" fill="none" stroke="#a6c1a7" stroke-width="0.1" opacity="0.64"/>
      <path id="Path_825" data-name="Path 825" d="M0,0S2.444.437,3.129,2.252s-.39,5.007-.39,5.007" transform="translate(7.297 3.494)" fill="none" stroke="#a6c1a7" stroke-width="0.1" opacity="0.64"/>
      <path id="Path_826" data-name="Path 826" d="M-2.312-1.546a6.2,6.2,0,0,1,4.043.409C3.34-.144,4.442,2.49,4.442,2.49" transform="translate(9.295 4.015)" fill="none" stroke="#a6c1a7" stroke-width="0.1" opacity="0.64"/>
      <path id="Path_827" data-name="Path 827" d="M-1.916-1.427A4.9,4.9,0,0,1,1.052.074a7.443,7.443,0,0,1,1.058,3.5" transform="translate(12.272 1.641)" fill="none" stroke="#a6c1a7" stroke-width="0.1" opacity="0.64"/>
      <path id="Path_829" data-name="Path 829" d="M6.195-20.111S6.93-24.127,2.3-23.149c-3.657,1.118-2.408,7.01-2.408,7.01" transform="translate(21.512 27.712)" fill="none" stroke="#a6c1a7" stroke-width="0.1" opacity="0.64"/>
      <path id="Path_830" data-name="Path 830" d="M3.357,0S.913.437.228,2.252s.39,5.007.39,5.007" transform="translate(19.142 3.494)" fill="none" stroke="#a6c1a7" stroke-width="0.1" opacity="0.64"/>
      <path id="Path_831" data-name="Path 831" d="M4.442-1.546A6.2,6.2,0,0,0,.4-1.137C-1.21-.144-2.312,2.49-2.312,2.49" transform="translate(18.371 4.015)" fill="none" stroke="#a6c1a7" stroke-width="0.1" opacity="0.64"/>
      <path id="Path_832" data-name="Path 832" d="M2.11-1.427A4.9,4.9,0,0,0-.858.074a7.443,7.443,0,0,0-1.058,3.5" transform="translate(17.657 1.641)" fill="none" stroke="#a6c1a7" stroke-width="0.1" opacity="0.64"/>
      <path id="Path_828" data-name="Path 828" d="M1.652,1.326a2.763,2.763,0,0,0-.6-.777A2.913,2.913,0,0,0,0,0" transform="translate(26.926 8.082)" fill="none" stroke="#a6c1a7" stroke-width="0.1" opacity="0.64"/>
    </g>
    <text id="Toxic_Clouds" data-name="Toxic Clouds" transform="translate(23 37.936)" fill="#fff" font-size="8" font-family="SegoeUI-Bold, Segoe UI" font-weight="700"><tspan x="-23.453" y="0">Toxic Clouds</tspan></text>
  </g>
</svg>
