<svg id="Component_239_1" data-name="Component 239 – 1" xmlns="http://www.w3.org/2000/svg" width="70" height="70" viewBox="0 0 70 70">
  <g id="Component_231_1" data-name="Component 231 – 1" transform="translate(20 12.079)" opacity="0.75">
    <path id="Subtraction_236" data-name="Subtraction 236" d="M3.555,33.909a4.938,4.938,0,0,1-2.061-1.091A5.419,5.419,0,0,1,0,31.407c-.047-.22.295-.75,1.045-1.623.667-.774,1.582-1.733,2.466-2.66l.022-.023.029-.031A32.761,32.761,0,0,1,7.25,23.788l-.645-.742a1.031,1.031,0,1,1,1.556-1.353l.671.772.315-.265a6.094,6.094,0,0,0,1.376.927,6.815,6.815,0,0,0,1.644.526c-.687.5-1.183.853-1.417,1.019l.522.6a1.031,1.031,0,1,1-1.556,1.353l-.437-.5A17.483,17.483,0,0,0,5.893,29.4a11.275,11.275,0,0,0-2.081,4.337A.23.23,0,0,1,3.555,33.909ZM1.979,30.225a.127.127,0,0,0-.053.009,2.551,2.551,0,0,0-.614.477,1.689,1.689,0,0,0-.421.549c-.018.109.1.143.308.2a2.57,2.57,0,0,1,.794.341,3.543,3.543,0,0,1,.572.527c.221.236.412.44.594.44a.277.277,0,0,0,.183-.074c.177-.15.373-.486.3-1.235a2.431,2.431,0,0,0-.7-.691A2.517,2.517,0,0,0,1.979,30.225Zm5.468-8.154a.311.311,0,0,0-.309.283.307.307,0,0,0,.071.226l2.984,3.556a.309.309,0,0,0,.545-.173.305.305,0,0,0-.071-.225L7.684,22.181A.307.307,0,0,0,7.448,22.071Zm.2,2.172a.208.208,0,0,0-.126.048.206.206,0,0,0-.025.291l1,1.187a.2.2,0,0,0,.158.073.2.2,0,0,0,.132-.048.207.207,0,0,0,.073-.161Zm4.8-.79h0c-.426-.1-1.071-.282-1.918-.545a7.668,7.668,0,0,1-1.218-.841c.842-.713,2.561-2.176,4.612-3.988a6.984,6.984,0,0,0,.072,1.973,1.828,1.828,0,0,0,.249,1.142.538.538,0,0,0,.163.137,4.8,4.8,0,0,0,.236.49c-.739.559-1.478,1.108-2.2,1.633Zm2.418-1.8h0c-.037-.079-.077-.167-.121-.263a1.506,1.506,0,0,0,.567-.21l.528-.45.493-.42.007-.006c2.488-2.121,6.651-5.67,7.357-6.386a.474.474,0,0,0,.12-.359c-.035-.635-1.038-1.531-1.049-1.54l-.168.125c.2.168.845.754.849,1.189a.366.366,0,0,1-.136.292c-.046.157-8.129,7.177-8.211,7.247a.637.637,0,0,1-.368.179.267.267,0,0,1-.165-.056c-.072-.165-.149-.344-.229-.533-.013-.082-.022-.172-.028-.269,0-.443.018-.532.048-.532.013,0,.03.021.049.047l0,.007.005.007c.024.031.05.06.079.06s.04-.015.06-.046a1.45,1.45,0,0,0,.086-.346l-.518-.531c0,.01-.014.07-.03.165a3.953,3.953,0,0,1,.1-1.188l.643-.572A135.131,135.131,0,0,0,25.363,7.017C30.207.763,30.7.028,30.718,0l0,.006a7.216,7.216,0,0,1,.187.956,10.337,10.337,0,0,1,.008,2.513,11.208,11.208,0,0,1-1.02,3.5A13.656,13.656,0,0,1,27,10.911a53.921,53.921,0,0,1-4.882,4.822c-1.607,1.425-3.445,2.949-5.464,4.53-.581.455-1.186.921-1.8,1.387ZM29.482,2.4A4.919,4.919,0,0,1,29,3.37c-.406.7-1.243,2.04-2.918,4.414C22.032,11.71,14.636,18.313,14.562,18.379l.407.515c.049-.043,6.424-5.612,10.363-9.439A17.272,17.272,0,0,0,28.974,4.31,5.462,5.462,0,0,0,29.482,2.4Zm-6.156,8.984-.2.194a7.97,7.97,0,0,0,.715.566A2.67,2.67,0,0,0,25.1,12.7a.489.489,0,0,0,.345-.122,6.4,6.4,0,0,0,.857-.951l-.088.056a4.183,4.183,0,0,1-1.024.808.459.459,0,0,1-.148.022,2.169,2.169,0,0,1-1.1-.566,7.151,7.151,0,0,1-.609-.565l0,0Z" transform="translate(0 0)" fill="#ff8282"/>
    <path id="Subtraction_235" data-name="Subtraction 235" d="M18.87,26.774h0a5.5,5.5,0,0,1-3.614-1.289,5.862,5.862,0,0,1-1.308-1.606,7.793,7.793,0,0,1-.816-2.242,2.779,2.779,0,0,1-.585.058,4.9,4.9,0,0,1-1.9-.435,4.974,4.974,0,0,1-1.69-1.178,2.646,2.646,0,0,1-.76-2.049,1.672,1.672,0,0,0,.445.307,1.954,1.954,0,0,0,.8.263.372.372,0,0,0,.329-.147c.14-.2.092-.618-.143-1.229a2.808,2.808,0,0,1-1.186.327,3.432,3.432,0,0,1-1.383-.4,2.72,2.72,0,0,1-1.495-1.4L5.5,15.633c-.015-.028-.035-.062-.057-.1a2.369,2.369,0,0,1-.361-1.849,1.325,1.325,0,0,1,.447-.738c.166-.15.285-.259.183-.682.14-.357-.676-1.4-1.386-2.216-.771-.884-1.582-1.69-1.59-1.7l.061.032c1.076.573,1.931,1.038,2.457,1.326.247.187.417.3.541.389.344.236.372.255.8.9a1.793,1.793,0,0,1,.249,1.677c-.036.174-.077.371-.108.593A2.637,2.637,0,0,0,7.45,15.1a2.451,2.451,0,0,0,1.868.887,2.762,2.762,0,0,0,.665-.084,1.139,1.139,0,0,0,.08-.937.55.55,0,0,0-.216-.251h.006c.1-.01.215-.015.328-.015s.228.005.335.016c.158.165.278.238.387.238a.382.382,0,0,0,.1-.015h0a.344.344,0,0,1,.084-.014.2.2,0,0,1,.117.041,2.307,2.307,0,0,0,.309.822c.186.331.369.544.468.544a.063.063,0,0,0,.051-.026c.076-.1.037-.467-.112-1.068.017-.38-.51-.662-1.119-.989a7.506,7.506,0,0,1-1.15-.71,1.929,1.929,0,0,1-.731-1.045c.015-.137.029-.267.043-.393.089-.808.153-1.392.019-1.542a.114.114,0,0,0-.088-.039.346.346,0,0,0-.179.072.538.538,0,0,1,.046-.367.46.46,0,0,1,.424-.258.918.918,0,0,1,.6.258c.183.112.2.471.216.967a9.414,9.414,0,0,0,.121,1.317,3.522,3.522,0,0,0,2.46,1.443,1.35,1.35,0,0,0,1.064-.468c.3-.366.083-.6.081-.6a1.831,1.831,0,0,0,.425-.07,1.144,1.144,0,0,0,.328-.177,2.453,2.453,0,0,0-.081.543,1.41,1.41,0,0,0,.081.458,6.634,6.634,0,0,0-.6,4.85,7.214,7.214,0,0,0,.89,2.118,9.058,9.058,0,0,0,.964,1,4.35,4.35,0,0,0,2.095,1.15c.089,0,.178,0,.263,0a5.678,5.678,0,0,0,4.673-2,1.417,1.417,0,0,1,.143-.155s0,0,0,0-.04-.01-.112-.01c-.141,0-.369.012-.379.013a7.077,7.077,0,0,1-1.12.764,6.639,6.639,0,0,1-1.2.526,4.78,4.78,0,0,1-1.45.239,4.379,4.379,0,0,1-3.716-2.337l1.618-1.345.014-.011c3.994-3.318,6.4-5.32,8.438-7.372a3.311,3.311,0,0,1,1.393.991,2.532,2.532,0,0,1,.273,2.5,1.273,1.273,0,0,1,.208-.017,1.555,1.555,0,0,1,1.22.678,2.97,2.97,0,0,1,.559,1.712A2.075,2.075,0,0,1,27.7,18.68c-.247.2-.442.367-.442.559,0,.251.095.267.215.287.194.033.459.078.509,1.142a4,4,0,0,1-.215,1.511,4.144,4.144,0,0,1-.578,1.091,4.023,4.023,0,0,1-.873.883,7.085,7.085,0,0,0-.153-2.747c-.3-.774-.674-1.184-1.081-1.184a.646.646,0,0,0-.151.018c-.2.1-.3.2-.314.3-.026.14.1.284.263.467a1.891,1.891,0,0,1,.571,1.128,3.392,3.392,0,0,1-1,2.24A8.451,8.451,0,0,1,18.87,26.774Zm-3.713-12.56h0a6.3,6.3,0,0,0-.015-1.1,5.472,5.472,0,0,0-.664-2.205,3.918,3.918,0,0,0-1.583-1.459,4.145,4.145,0,0,0-.934-.356h0a3.071,3.071,0,0,1,.6.421,5,5,0,0,1,1.161,1.517,2.926,2.926,0,0,1-.393,1.806.944.944,0,0,1-.792.538,1.164,1.164,0,0,1-.642-.233,5.456,5.456,0,0,1-1.284-1.148,3.463,3.463,0,0,1,.064-1.506c.067-.346.12-.619.035-.729a12.165,12.165,0,0,0-1.92-1.525,2.23,2.23,0,0,0-1.053-.386A.511.511,0,0,0,7.2,8.29h0a.979.979,0,0,1,.44-.1,1.076,1.076,0,0,1,.393.076,1.335,1.335,0,0,1,.813.769,1.031,1.031,0,0,1-.13.736,1.573,1.573,0,0,1-.995.826,2.558,2.558,0,0,1-.871-.205,2.086,2.086,0,0,1-.834-.683A5.357,5.357,0,0,1,5.53,7.2a4.262,4.262,0,0,0-.448-2.221l-.548-.371C2.986,3.567,2.925,3.526,2.925,3.255,3.139,1.249,1.229.37.072.024A.389.389,0,0,1,0,0H0c.011,0,.05.005.12.015.276.038,1.008.14,2.49.26A2.466,2.466,0,0,1,3.872,2.023c.179.622.32,1.113,1.236,1.113A3.519,3.519,0,0,0,5.565,3.1a1.8,1.8,0,0,1,.931.24,2.722,2.722,0,0,1,.847.958.751.751,0,0,1-.053.593.625.625,0,0,1-.466.193c-.126.015-.226.026-.249.094-.048.139.217.506,1.709,1.97a3.919,3.919,0,0,0,1.94.785A.894.894,0,0,0,11.1,7.38a2.28,2.28,0,0,0,.128-1.123,1.71,1.71,0,0,0-1.7-1.628.861.861,0,0,0-.1.005l0,0A4.266,4.266,0,0,1,9.966,4.1a2.347,2.347,0,0,1,1.24-.587,1.166,1.166,0,0,1,.288-.035,2.148,2.148,0,0,1,1.534.813,2.768,2.768,0,0,1,.611,2.275c-.243,1.5-.04,1.657.366,1.967a2.989,2.989,0,0,1,.437.387,2.977,2.977,0,0,0,1.937.832c.55,0,1.221-.243,1.3-1.4A1.4,1.4,0,0,0,17.4,7.272a1.154,1.154,0,0,0-.881-.316,3.778,3.778,0,0,0-1.284.283s0,0,0,0a6.4,6.4,0,0,1,.494-1.364,4.01,4.01,0,0,1,.7-1.018,2.157,2.157,0,0,1,1.086-.627,2.57,2.57,0,0,1,.537-.056,3.1,3.1,0,0,1,1.4.352,3.025,3.025,0,0,1,1.034.848,1.365,1.365,0,0,1,.3,1.193c-.136.133-.2.245-.184.341.018.14.187.236.383.346.323.182.725.409.6.952a4.251,4.251,0,0,1-.757,1.128c-1.465,1.289-3.375,2.932-5.677,4.883Z" transform="translate(0.158 1.771)" fill="#ff8282"/>
  </g>
  <text id="Burning_Blades" data-name="Burning Blades" transform="translate(35 57.242)" fill="#fff" font-size="8" font-family="SegoeUI-Bold, Segoe UI" font-weight="700"><tspan x="-28.398" y="0">Burning Blades</tspan></text>
  <rect id="Rectangle_1498" data-name="Rectangle 1498" width="70" height="70" fill="none"/>
</svg>
