<svg id="Component_237_1" data-name="Component 237 – 1" xmlns="http://www.w3.org/2000/svg" width="70" height="70" viewBox="0 0 70 70">
  <path id="Subtraction_364" data-name="Subtraction 364" d="M13.156,37.035a3.647,3.647,0,0,1-1.622-.308,2.019,2.019,0,0,1-1.356-2.079L8.22,35.2H8.162a1.758,1.758,0,0,1-1.3-.552,2.759,2.759,0,0,1-.718-2.167,2.621,2.621,0,0,1,.267-.995v0h0v0l0,0a2.354,2.354,0,0,0,.164-.433c.084-.329-.177-.438-.407-.535l0,0h0l-.008,0h0a.629.629,0,0,1-.278-.166.68.68,0,0,1,0-.561c-.029.056-.1.186-.168.186-.047,0-.08-.064-.1-.189-.039-.25-.112-.8-.213-1.583,0-.013,0-.024,0-.033v-.013a.121.121,0,0,0,0-.016l0,0a3.9,3.9,0,0,1-.446-.319,5.207,5.207,0,0,1-.788-.865v0a1.984,1.984,0,0,1-1.2-.742,3.411,3.411,0,0,1-.555-1.27h0v0h0v0l0-.009V24.9h0a6.742,6.742,0,0,0-.294-.883,1.451,1.451,0,0,1-.161-.836.328.328,0,0,1,.106-.213l0,0c.065.135.4.81.622.81a.126.126,0,0,0,.1-.065h0c-.048-.1-.155-.336-.094-.393a.509.509,0,0,1,.147-.05h0l.018,0h0l.026-.006h0c.237-.06.6-.151.649-.311a.17.17,0,0,0-.051-.167,1.31,1.31,0,0,0-.733-.3H2.732a2.429,2.429,0,0,1-1-.374A2.3,2.3,0,0,1,1.1,21.46a1.75,1.75,0,0,1-.208-.852,1.992,1.992,0,0,1,.247-.956,2.573,2.573,0,0,1,.269-.422h0l0,0,0,0h0l-.006,0C1.055,18.942.772,18.7.6,18.531a2.435,2.435,0,0,1-.44-1c-.05-.127.024-.286.126-.507v0h0v0l0,0A2.983,2.983,0,0,0,.629,15.49,8.047,8.047,0,0,0,0,13.056a2.1,2.1,0,0,1,1.294.6l0,0a.9.9,0,0,0,.6.312c.02,0,.042,0,.06,0h.022c.617-.074.94-.857.975-.946l.6-1.4a1.2,1.2,0,0,1,.182-.451,2.148,2.148,0,0,1,.4-.415L5.4,9.495h0a2.792,2.792,0,0,1,.19-1.381,2,2,0,0,1,.485-.674h0l.005-.005.014-.014.011-.011c.05-.048.1-.1.164-.166a1.052,1.052,0,0,1,.775-.377h0a.477.477,0,0,1,.071-.005,1.361,1.361,0,0,1,.608.2,1.532,1.532,0,0,0-.769.445A1.786,1.786,0,0,0,6.5,8.865c.041.315.145.475.307.475.212,0,.467-.28.566-.4l0,0v0a1.884,1.884,0,0,1-.423.744c-.213.233-.512.5-.776.735l-.009.008-.005,0-.006.005a6.45,6.45,0,0,0-.752.734,1.017,1.017,0,0,0-.205.887.1.1,0,0,0,.089.063c.05,0,.135-.04.255-.233A9.154,9.154,0,0,1,6.445,10.8l.02-.022.009-.011,0,0,0,0A13.037,13.037,0,0,0,7.727,9.239c.346-.536.349-.68.354-.848a1.1,1.1,0,0,1,.08-.411,2.311,2.311,0,0,1,.464-.867l0,0,.037-.047a.918.918,0,0,0,.216-.57,3.255,3.255,0,0,0,.111-1.978v0C8.877,3.8,8.778,3.187,9.4,2.8a1.145,1.145,0,0,1,.576-.315,1.293,1.293,0,0,1,.249-.021,2.691,2.691,0,0,1,.569.068h0c-.008.006-.835.627-.819,1.241a.15.15,0,0,0,.1.041c.175,0,.434-.26.76-.588l.012-.012v0h0a5.54,5.54,0,0,1,1.405-1.13,4.907,4.907,0,0,1,1.755-.559.39.39,0,0,1,.315.1.285.285,0,0,1,.034.258c-.036.147-.055.194-.079.194a.075.075,0,0,1-.038-.022h0l-.009-.007-.009-.007h0l0,0h0a.205.205,0,0,0-.127-.044c-.213,0-.551.288-1,.857h0l-.007.011a10.673,10.673,0,0,1-1.393,1.872,3.658,3.658,0,0,1-.331.257l0,0,0,0h0c-.267.188-.331.233-.5,1.091a4.675,4.675,0,0,0-.016,1.539v.024a4.33,4.33,0,0,1,.015,1.217c-.151.938-.319.978-.6,1.045l-.019,0h0l-.019,0c-.267,0-.731-1.043-.821-1.252V8.66h0a9.688,9.688,0,0,0-.922,2.19c0,.065.019.1.055.1.189,0,.788-.86.813-.9h0a.394.394,0,0,1,.086.188h0v0h0a.462.462,0,0,0,.194.31c.007.021-.038.067-.1.13l0,0,0,0L9.51,10.7c-.207.211-.639.649-.388,1.191l.851-.849a1.828,1.828,0,0,1,.514-.587,2.255,2.255,0,0,1,.834-.283c.125-.592.333-.65.5-.7h0a.261.261,0,0,0,.2-.139.445.445,0,0,1-.072-.4,1.407,1.407,0,0,1,.365-.456,1.309,1.309,0,0,0-.31-1v0l0,0h0a1.514,1.514,0,0,1-.271-1.548,3.894,3.894,0,0,1,1.122-1.295,6.359,6.359,0,0,1,1.511-.962v.284h.294c.02.052-.078.169-.226.346h0l0,0h0a3.656,3.656,0,0,0-.8,1.348,2.388,2.388,0,0,1,.332,1.257v.017h0a2.61,2.61,0,0,0,.114.716l.026,0a.334.334,0,0,1,.266.178,3.1,3.1,0,0,1,.291.665v.007a.779.779,0,0,1,.177-.112s.005-.032.115-.172c.455-.371.378-.812.3-1.278v0a1.663,1.663,0,0,1,.127-1.276,1.837,1.837,0,0,1,1.564-.972h0l.051-.01c.132-.025.275-.052.431-.087,0,.209-.3.475-.558.71l0,0h0l-.009.009,0,0,0,0,0,0,0,0h0c-.225.2-.438.4-.438.524,0,.315.076,1.006.3,1.006a.136.136,0,0,0,.054-.011c.1-.043.072-.121.036-.229v0h0v0c-.071-.2-.179-.508.361-.892a1.973,1.973,0,0,0,.645-1.378,4.524,4.524,0,0,0,.016-.931.006.006,0,0,0,0,0,2.538,2.538,0,0,1-.081-.569,2.889,2.889,0,0,1,.26-1.312A3.4,3.4,0,0,1,18.868.389,3.569,3.569,0,0,1,19.406,0V0a.757.757,0,0,0-.063.489c.017.039.036.06.054.064a4.056,4.056,0,0,0-.612,1.525,1.726,1.726,0,0,1,.465,1.255v.008h0a3.182,3.182,0,0,0,.092.736c.159.614.392.706.517.706a.2.2,0,0,0,.069-.011s-.073.314,0,.385a.49.49,0,0,0,.28.078.229.229,0,0,0,.2-.078.417.417,0,0,0,.041-.3c.059-.016.349-.134.305-.906-.027-.485-.13-1.489-.3-2.9L20.452,1V.994l.414.454a7.979,7.979,0,0,0,.409,1.8h0v.01A3.025,3.025,0,0,1,21.1,5.926c-.1.037-.2.073-.283.107a1.786,1.786,0,0,1-.8.17c-.465-.2-.654-.976-.779-1.491v0h0V4.7c-.064-.277-.12-.516-.2-.516-.054,0-.119.126-.205.4-.265.841-.1,1.05.1,1.291a1.1,1.1,0,0,1,.288.659,4.742,4.742,0,0,1-.034.957V7.5l0,.03v.012c-.035.309-.065.577.02.667a.109.109,0,0,0,.084.034.324.324,0,0,0,.124-.032c.219-.1.223-.236.228-.409v0a.907.907,0,0,1,.53-.856,2.864,2.864,0,0,1,1.107-.507h.005l0,0h0a2.724,2.724,0,0,0,.9-.379c.649-.454.668-.82.668-.824.338.243.329.707-.024,1.306A2.01,2.01,0,0,1,22,7.247h0a2.67,2.67,0,0,0-.584.411c-.348.349-.38.47-.425.638v0l0,.012v0a.028.028,0,0,1,0,.013l0,.007,0,.009,0,.015,0,.008c0,.018-.011.039-.019.063-.084.253.234.7.237.7a.49.49,0,0,1-.007.387,3.2,3.2,0,0,1-1.019,1.27,2.7,2.7,0,0,1-.554.2l-.01,0-.006,0h0l-.013,0h-.007a6.755,6.755,0,0,0-1.32.512,1.188,1.188,0,0,0-.561.811.88.88,0,0,0,.174.719,1.094,1.094,0,0,1,.193.329v.006c.092.222.171.414.946.734a.228.228,0,0,0,.1.028.073.073,0,0,0,.071-.042.634.634,0,0,0-.127-.495.856.856,0,0,0-.248-.2h0l0,0a.686.686,0,0,1-.335-.332.5.5,0,0,1,.027-.361v0l0-.006v0h0a1.149,1.149,0,0,0,.081-.477c-.013-.356-.035-.383-.041-.383a.769.769,0,0,1,.53-.137h.012a1.37,1.37,0,0,0,.555-.094c-.006.009-.6.94-.305,1.294.365.442.982,1.219,1.185,1.55a2.025,2.025,0,0,1,.213.757h0v.01l0,.014v0a1.756,1.756,0,0,0,.072.349h.293a3.6,3.6,0,0,1,.037-2.16,1.44,1.44,0,0,1,.861-.665h.005a1.713,1.713,0,0,0,.835-.571c.417-.6.723-.728.905-.728a.288.288,0,0,1,.186.057.859.859,0,0,1-.094.368,4.945,4.945,0,0,1-.854,1.239,1.421,1.421,0,0,1-.521.421h-.006a1.351,1.351,0,0,0-.6.53c-.159.4-.018.517.16.666h0c.229.191.515.428.269,1.39.117.236.234.36.341.36s.195-.128.247-.36a2.37,2.37,0,0,0-.191-1.771h0a2.576,2.576,0,0,1,.581.353c.26.218.273.3.273.505a1.623,1.623,0,0,1-.028.238v.007a.663.663,0,0,0,.029.476.238.238,0,0,0,.188.076.327.327,0,0,0,.244-.108.444.444,0,0,0,.075-.391,2.677,2.677,0,0,0-.777-1.285l0,0c-.19-.214-.064-.564.075-.82a3.362,3.362,0,0,1,.348-.51h0a1.87,1.87,0,0,0,.274.625l.005.006,0,0h0a1.4,1.4,0,0,1,.365.7c.012.045.023.092.035.145l.005.024.008.027h0l0,.008h0a1.6,1.6,0,0,0,.221.6s.364-.089.364-.649a2.457,2.457,0,0,0-.43-1.243h0l0,0v0l-.009-.016c-.028-.05-.1-.184-.191-.353v0a8.429,8.429,0,0,1-.373-2.205A2.432,2.432,0,0,1,24.6,8.591,1.744,1.744,0,0,1,26,7.68l.088-.021L26.3,7.6l.105-.031.065-.019L27,7.4l.134-.039.017,0,.014,0,.02-.006h0l.025-.007.049-.015.094-.027h0l.007,0h0a5.963,5.963,0,0,0-1.874,1.637c-.268.463-.37.9-.253,1.092a.209.209,0,0,0,.2.1.663.663,0,0,0,.255-.064,5.4,5.4,0,0,1,2.1-1.165,8.384,8.384,0,0,0-1.3,1.165c-.083.12-.1.22-.065.3.056.109.226.135.277.14l1.533-.947a8.793,8.793,0,0,0-.675.815c-.294.407-.627.967-.547,1.326a4.688,4.688,0,0,0,.347.935l0,.007.006.014v0l0,0,0,.009v0a7.727,7.727,0,0,1,.466,1.229,3.822,3.822,0,0,1,.173,1.028v.014c0,.1,0,.142.059.171a.05.05,0,0,0,.026.006c.065,0,.153-.108.236-.289a2.377,2.377,0,0,0,.181-.638.813.813,0,0,0-.128-.526v0a.491.491,0,0,1-.049-.533,1.483,1.483,0,0,1,.668-.6s-.185.416-.114.6a.379.379,0,0,0,.383.243.762.762,0,0,0,.211-.033.868.868,0,0,0,.434-.378h0a2.122,2.122,0,0,1,.2-.248c.034-.107.058-.193.076-.27a8.4,8.4,0,0,1-.306,1.643,3.073,3.073,0,0,1-.408.755l0,0,0,0,0,.005v0a2.6,2.6,0,0,0-.469,1.017c-.245.815-.141.973.887,2.161.114.13.214.253.307.367l.016.02.01.011v0l.006.007,0,0h0c.362.443.649.793.984.793a.521.521,0,0,0,.152-.024,1.348,1.348,0,0,1,.307-1.71l.013-.015,0,0,0,0a1.249,1.249,0,0,0,.191-.243,2.726,2.726,0,0,0-.114.86c.059.111.124.232.153.285a.268.268,0,0,0,.015.029,3.192,3.192,0,0,1,.643,1.4,3.117,3.117,0,0,1-.067,1.411,6.781,6.781,0,0,1-.631,1.524,1.389,1.389,0,0,1-1,.746h0c-.289.081-.538.152-.633.529a.972.972,0,0,0,.267.977l0,0,0,0h0a1.2,1.2,0,0,1,.286.494c.093.409.03.508.006.545-.007.009-.011.017-.006.023a.167.167,0,0,0,.081.021.65.65,0,0,0,.42-.293,1.027,1.027,0,0,0,.265-.791,2.921,2.921,0,0,0-.259-.641h0c.037,0,.91.06,1.167.532a1.669,1.669,0,0,1-.932,2.215h0l0,0h0l-.02.009-.009,0-.005,0,0,0a.86.86,0,0,0-.152.083,1.861,1.861,0,0,1-.591.193l-1.292,1.584a.991.991,0,0,1-.516.2h-.009a.951.951,0,0,0-.624.282l-1.317.287a1.524,1.524,0,0,1-.748.793l0,0h0c-.254.164-.455.294-.416.459a.487.487,0,0,0,.218.289l0,0h0a1.009,1.009,0,0,1,.422.713c.021.114.046.22.07.323v.006l0,.019v0h0a1.744,1.744,0,0,1-.2,1.613,2.453,2.453,0,0,1-2,1.13,1.86,1.86,0,0,1-.23.015,3.918,3.918,0,0,1-1.777-.575h0v0a2.337,2.337,0,0,1-.089,1.22,2.842,2.842,0,0,1-.9.81h0a1.98,1.98,0,0,1-1.433.42,12.409,12.409,0,0,1-3.352-.662.962.962,0,0,0-.246-.032.649.649,0,0,0-.215.032.5.5,0,0,0-.184.111l0,0,0,0a.714.714,0,0,1-.375.173c-.33.065-.939.251-1.058.287h-.008A7.526,7.526,0,0,1,13.156,37.035Zm-.5-2.919h0c-.034,0-.126.021-.253.22a1.217,1.217,0,0,0-.218.9,2.957,2.957,0,0,0,.681,1.007.688.688,0,0,0,.433.2.244.244,0,0,0,.049,0,.679.679,0,0,0,.158-.965,2.505,2.505,0,0,1-.142-.367v0c-.108-.382-.108-.382-.082-.554l.009-.057a.758.758,0,0,0-.542-.384.255.255,0,0,0-.077.011.053.053,0,0,0-.016,0h0Zm7.443.061a.734.734,0,0,0-.525.372l.008.054c.026.168.026.168-.079.537v0a2.426,2.426,0,0,1-.138.356.658.658,0,0,0,.153.935.244.244,0,0,0,.047,0,.667.667,0,0,0,.419-.192,2.863,2.863,0,0,0,.66-.976,1.18,1.18,0,0,0-.211-.871c-.123-.192-.212-.213-.245-.213a.05.05,0,0,0-.015,0A.246.246,0,0,0,20.1,34.178Zm-5.986-.81a.612.612,0,0,0-.482.185.533.533,0,0,0-.13.435c0,.072,0,.162-.006.281a3.226,3.226,0,0,0,.276,1.3,1,1,0,0,0,.479.406h.006a.574.574,0,0,0,.548-.327,1.168,1.168,0,0,0,.044-.524l0-.048-.074-1.361a.7.7,0,0,0-.524-.346.272.272,0,0,0-.06.006S14.158,33.367,14.113,33.367Zm4.474-.013a.694.694,0,0,0-.519.324l-.122,1.341-.005.048a1.152,1.152,0,0,0,.025.518.565.565,0,0,0,.529.34H18.5a1.029,1.029,0,0,0,.486-.385,3.157,3.157,0,0,0,.319-1.27c0-.117,0-.206,0-.277a.525.525,0,0,0-.113-.434.627.627,0,0,0-.5-.2h-.042A.275.275,0,0,0,18.587,33.354Zm-8.2-1.854h0a2.341,2.341,0,0,1,.671.249,1.23,1.23,0,0,1,.664.8.546.546,0,0,1-.2.613,2.3,2.3,0,0,0-.66,1.275c-.024.2.247.57.479.841a4.645,4.645,0,0,0,.55.56h0c.022,0,.135-.014.166-.055a.035.035,0,0,0,.006-.033,3.133,3.133,0,0,0-.185-.406l0-.006c-.13-.257-.265-.523-.218-.629a2.805,2.805,0,0,1,.375-.216l.006,0c.064-.034.1-.052.1-.053a.353.353,0,0,0,.006-.06.807.807,0,0,1,.223-.593.259.259,0,0,1,.16-.047,1.648,1.648,0,0,1,.687.281v0c0-.122.025-.736.384-.87a.728.728,0,0,1,.4-.121,1.277,1.277,0,0,1,.807.4c.022-.1.151-.624.509-.7a1.63,1.63,0,0,1,.271-.024.782.782,0,0,1,.832.58c.03-.063.308-.613.783-.616h.033a.725.725,0,0,1,.637.333,1.7,1.7,0,0,1,.112.2v0c.04.079.069.135.1.135h0a.663.663,0,0,0,.2-.09h0a1.354,1.354,0,0,1,.611-.221.493.493,0,0,1,.112.012,1.1,1.1,0,0,1,.563,1v0c0,.077.006.123.027.123s.028-.015.054-.046a.633.633,0,0,1,.537-.268.466.466,0,0,1,.391.162.294.294,0,0,1,.009.3c.122.226.173.27.219.27a.14.14,0,0,0,.05-.013h0l.008,0a.208.208,0,0,1,.081-.017.446.446,0,0,1,.242.1,1.819,1.819,0,0,1-.19.667,1.4,1.4,0,0,0-.149.5.015.015,0,0,0,.012.006h0a1.35,1.35,0,0,0,.55-.337,1.711,1.711,0,0,0,.533-.761,7.188,7.188,0,0,0-.1-.884v0a2.023,2.023,0,0,1-.63-.884.713.713,0,0,0-.076-.172.911.911,0,0,1,.286-.685,1.968,1.968,0,0,1,1.066-.52l.223,2.147a2.217,2.217,0,0,0,1.4.6,2.137,2.137,0,0,0,1.72-1.1,1.5,1.5,0,0,0-.447-1.585c-.209-.235-.374-.42-.245-.661,0,0,.083-.011.176-.259a6.083,6.083,0,0,0,.248-1.7c.029-.055-.038-.112-.041-.115a.114.114,0,0,0-.1-.044,1.869,1.869,0,0,0-.665.308,1.927,1.927,0,0,1-.569.276,2.72,2.72,0,0,1,.535-.908,6.558,6.558,0,0,0,.717-1.088,1.913,1.913,0,0,0-.2-1.39,4.4,4.4,0,0,0-.776-1.341c-.462-.129-.4-1.931-.3-2.626.032-.216.068-.34.1-.34.006,0,.012,0,.017.014.124.22.23.332.315.332a.107.107,0,0,0,.077-.035c.239-.242.166-1.655.165-1.67-.085-.205-.239-.426-.374-.426a.46.46,0,0,0-.125.144c-.091.139-.2.313-.659.313a3,3,0,0,1-.5-.049c-.4.019-.453.157-.516.317a.573.573,0,0,1-.347.373,2.1,2.1,0,0,1-.8.192.908.908,0,0,1-.655-.247,1.648,1.648,0,0,1-.386-1.043,1.528,1.528,0,0,0,.777.274.75.75,0,0,0,.652-.367,1.453,1.453,0,0,0-.03-.16c-.042-.185-.085-.376.154-.528a2.812,2.812,0,0,0,1.119.25A2.339,2.339,0,0,0,25.242,18.1c.17-.35.2-.67.072-.816a.206.206,0,0,1-.114-.13c-.084-.279.282-.859.67-1.473a4.658,4.658,0,0,0,.709-1.394,1.961,1.961,0,0,0-.521-1.256,5.787,5.787,0,0,0-.593-.646l0,0h0a11.354,11.354,0,0,1,.326,1.243c.118.6.2,1.379-.072,1.676-.968.907-.886,1.465-.82,1.914a1.1,1.1,0,0,1-.01.556,1.936,1.936,0,0,1-1.574,1.2,1.6,1.6,0,0,1-.913-.319c-.188-.069-.344-.492-.494-.9s-.3-.82-.48-.859a1.477,1.477,0,0,1-.581-.314,1.173,1.173,0,0,0-.588-.3.475.475,0,0,1-.05-.014,2.555,2.555,0,0,0-.721-.124,1.05,1.05,0,0,0-.611.166.006.006,0,0,1,0,0c-.006-.009,0-.04.02-.089a.678.678,0,0,0-.133-.79c.555-.02.8-.062.814-.141.021-.107-.4-.285-1.042-.553l0,0-.013-.005-.008,0-.138-.058a5.419,5.419,0,0,0-1.551-.238,6.026,6.026,0,0,0-.746.051l-.1.012h0a3.731,3.731,0,0,1-.436.038c-.345,0-.563-.131-.727-.823-.014-.076-.032-.154-.053-.241A1.4,1.4,0,0,1,15.2,11.8a9.024,9.024,0,0,0,1.523-1.609,3.136,3.136,0,0,0,.53-1.122,1.057,1.057,0,0,0-.116-.87.014.014,0,0,1,0,0,4.679,4.679,0,0,1-.147.834,1.683,1.683,0,0,1-.734,1.106c-2.187,2.184-2.405,3.247-2.048,4.556a2.492,2.492,0,0,0,2.254,1.783h.008c.236,0,.494-.286.717-.554l.078-.094.01-.012h0c.2-.239.367-.446.488-.446a.094.094,0,0,1,.059.02c.462.309.252.76.029,1.238s-.442.948-.029,1.317a1.246,1.246,0,0,0,.449.087,1.4,1.4,0,0,0,1.137-.678c-.156,1.01-.54,1.522-1.142,1.522a3.241,3.241,0,0,1-1.878-1.11c-2.39-.4-2.884-1.039-3.781-2.207-.1-.128-.2-.259-.309-.4a2.314,2.314,0,0,1-.414-2.029,3.2,3.2,0,0,1,.414-.976,3.446,3.446,0,0,0-.586.374,2,2,0,0,0-.742,1.025,1.407,1.407,0,0,0,.36,1.236,9.347,9.347,0,0,0,1.44,1.489.547.547,0,0,1,.258.579,1.18,1.18,0,0,0,.271.907c.2.346.425.522.669.522.4,0,.717-.469.752-.522.61.2.9.5.836.875a1.45,1.45,0,0,1-.59.808,1.619,1.619,0,0,1-.783.368.184.184,0,0,1-.091-.02c-2.317-.925-2.229-1.654-2.144-2.358a1.349,1.349,0,0,0-.207-1.116c-.817-1.066-1.033-1.181-1.087-1.181a.025.025,0,0,0-.026.019,2.4,2.4,0,0,1,.158,1.591.962.962,0,0,1-.964.547,1.551,1.551,0,0,1-.215-.014h0a2.494,2.494,0,0,0,.131.585,1.656,1.656,0,0,0,.694.907,1.367,1.367,0,0,0,.151.009,1.12,1.12,0,0,0,.809-.34c.068-.064.125-.129.172-.181.082-.092.141-.158.19-.158.026,0,.048.019.069.057.088.164-.175.632-.407,1.045h0c-.2.362-.395.7-.327.794a1.616,1.616,0,0,0,1.464.915,2.5,2.5,0,0,0,1.114-.3h0l-.06.178v0a6.6,6.6,0,0,1-.3.8c-.091.181-.225.294-.612.294a4.013,4.013,0,0,1-.612-.06c-.2-.032-1.707-.424-2.06-1.084a.563.563,0,0,1,0-.55c.05-.428-.179-.571-.469-.753a1.729,1.729,0,0,1-.648-.606.978.978,0,0,1-.4-1.187,4.547,4.547,0,0,1,.7-1.221c.254-.351.455-.628.4-.776a5.546,5.546,0,0,0-.39-.685l0-.007c.072.129.364.834-.951,2.051a1.2,1.2,0,0,0-.9.77A3.4,3.4,0,0,0,7.3,19.025c0,.047.006.094.009.141.147.7.884.948,1.9,1.287l.1.032.075.025c.421.433.032,1.129-.1,1.332l0,0a4.674,4.674,0,0,0-1.637-.76.211.211,0,0,0-.211.109.13.13,0,0,1-.125.06,1.9,1.9,0,0,1-.687-.284l-.137-.079-.03-.017h0a1.539,1.539,0,0,0-.371-.187c-.011,0-.016,0-.018.012a3.264,3.264,0,0,0,.03,1.111,1.394,1.394,0,0,0,.319.643.988.988,0,0,0,.73.32c.218,0,.413-.075.452-.174.116-.328.2-.481.275-.481.045,0,.079.056.116.115l0,.007h0c.033.054.075.121.13.121s.085-.036.136-.109a.067.067,0,0,1,.026-.005.094.094,0,0,1,.068.038,2.751,2.751,0,0,1,.151,1.6,2.468,2.468,0,0,1-.427.811,4.726,4.726,0,0,0-.688,1.321A2.264,2.264,0,0,0,7.6,27.765a11.3,11.3,0,0,0,.9,1.3l0,0c.168.217.313.4.419.574a5.648,5.648,0,0,0-1.457-.774.107.107,0,0,0-.072.021A6.679,6.679,0,0,0,7.5,30.764c.362.311.191.528-.045.828A1.652,1.652,0,0,0,7,32.9a1.712,1.712,0,0,0,.756,1.079,2.175,2.175,0,0,0,1.172.341,1.245,1.245,0,0,0,.988-.373,1.093,1.093,0,0,0,.351-1.011,4.664,4.664,0,0,1,.123-1.439Zm5.257,1.543a.6.6,0,0,0-.458.168.555.555,0,0,0-.16.444c0,.075-.01.168-.022.29a3.328,3.328,0,0,0,.213,1.357.709.709,0,0,0,.2.26.687.687,0,0,0,.275.186h0a.581.581,0,0,0,.655-.579l.04-.009H16.4a.223.223,0,0,1,.089.024c.026.236.122.551.653.565h0a.686.686,0,0,0,.276-.186.709.709,0,0,0,.2-.259,3.3,3.3,0,0,0,.213-1.357c-.012-.123-.018-.216-.022-.29a.555.555,0,0,0-.16-.444.6.6,0,0,0-.458-.168.886.886,0,0,0-.128.008.276.276,0,0,0-.047,0,.718.718,0,0,0-.539.386v.161a.091.091,0,0,0-.025,0l-.016,0a.262.262,0,0,0-.057-.006l-.033,0v-.155a.717.717,0,0,0-.539-.386.274.274,0,0,0-.047,0A.9.9,0,0,0,15.642,33.043Zm10.387-5.5a.4.4,0,0,0-.249.144,1.1,1.1,0,0,0-.179.867c.044.123.12.191.215.191a.4.4,0,0,0,.306-.209.932.932,0,0,0,.076-.828C26.159,27.6,26.1,27.548,26.029,27.548ZM6.848,27.8a.222.222,0,0,0-.172.14l-.009.017v0l0,0,0,0,0,0c-.081.16-.3.587-.229.718a.084.084,0,0,0,.081.042.709.709,0,0,0,.445-.289.731.731,0,0,0,0-.56A.125.125,0,0,0,6.848,27.8Zm21.723-5.432h0a5.328,5.328,0,0,1,.561,1.978,1.987,1.987,0,0,1-.3,1.52,3.417,3.417,0,0,0-.781.932,6.97,6.97,0,0,0-.416,1.4.015.015,0,0,0,0,.005l.511-.148a1.406,1.406,0,0,1,.651-.541v0a1.123,1.123,0,0,1,.054-.332c.013-.033.065-.072.149-.131h0a1.412,1.412,0,0,0,.693-1.359,5.6,5.6,0,0,0-.162-.99v0l0,0v-.005a2.984,2.984,0,0,1-.113-1.006.957.957,0,0,1,.406-.787h0l0,0c.057-.044.1-.077.089-.113a.247.247,0,0,0-.116-.022.963.963,0,0,0-.127.009h-.026a1.4,1.4,0,0,1-.148.01.75.75,0,0,1-.235-.037A1.971,1.971,0,0,1,28.572,22.366ZM6.563,25.228a.155.155,0,0,0-.1.031.608.608,0,0,0-.424.539,1.019,1.019,0,0,0,.038.374v0l.611.74v-.005a.012.012,0,0,1,0,0h0a.04.04,0,0,1,0-.006v0a7.873,7.873,0,0,0,.067-.824,2.637,2.637,0,0,1,.426-.945l0-.006v0l0,0h0a1.075,1.075,0,0,1-.425.155.167.167,0,0,1-.073-.014A.287.287,0,0,0,6.563,25.228Zm19.81.707a.477.477,0,0,0-.249.091c-.107.066-.283.359-.179.547a.232.232,0,0,0,.216.121.458.458,0,0,0,.3-.133.406.406,0,0,0,.076-.522A.182.182,0,0,0,26.373,25.935ZM3.47,23.874a.755.755,0,0,0-.069.777,1.381,1.381,0,0,1,.112.253v0c.095.261.177.487,1.021.834h0a.69.69,0,0,0,.27-.347.2.2,0,0,0-.043-.163.576.576,0,0,0-.355-.187h0a.732.732,0,0,1-.355-.164,4.677,4.677,0,0,1-.581-1ZM25.122,22.65a.623.623,0,0,1,.056.365v.006a.57.57,0,0,0,.06.373c.014,0,.085.025.143.143a1.615,1.615,0,0,1,.062.854c.193.029.278.2.368.377v0l0,.005v0h0v0a.8.8,0,0,0,.338.411c.2-.035.315-.093.35-.177.054-.138-.1-.322-.276-.536v0h0l0,0v0a1.4,1.4,0,0,1-.378-.656c-.013-.184-.011-.3-.01-.37v-.02c0-.154.006-.177-.127-.381A1.049,1.049,0,0,0,25.122,22.65ZM6.461,24.1s.086.353.28.409a.282.282,0,0,0,.067.009h0a.96.96,0,0,0,.445-.189c.131-.443.277-.5.339-.525.015-.006.029-.011.033-.021s-.019-.054-.077-.143v0l-.009-.013c-.012-.018-.029-.042-.046-.07l-.008-.011-.023-.034a.286.286,0,0,1-.216.08,1.431,1.431,0,0,1-.377-.078h0a1.411,1.411,0,0,0-.391-.079.373.373,0,0,0-.135.021L6.17,24.1Zm19.551-2.409c-.047,0-.071.039-.071.115a1.845,1.845,0,0,0,.242,1.034c.08.1.151.158.211.158.092,0,.147-.123.184-.23a.663.663,0,0,0-.13-.7C26.306,21.88,26.116,21.691,26.012,21.691Zm3.878-2.113h0a2.342,2.342,0,0,1,.062,1.375.542.542,0,0,1-.35.4h0c-.139.055-.283.113-.39.519.072.006.144.008.22.008.6,0,.787-.2.788-.206a1.833,1.833,0,0,0,.455-.808c.066-.418.018-.618-.2-.823a5.827,5.827,0,0,0-.579-.461h0l0,0Zm-1.676-.217a.286.286,0,0,0-.089.012c-.216.069-.375.935-.4,1.268a.2.2,0,0,0,.037.15.105.105,0,0,0,.079.031c.114,0,.3-.138.422-.394a.513.513,0,0,1,.293-.3h0a.283.283,0,0,0,.2-.248.354.354,0,0,0-.087-.309A.652.652,0,0,0,28.215,19.36Zm-1.1-.1a.375.375,0,0,0-.336.174,3.264,3.264,0,0,0-.377,1.177.018.018,0,0,0,.016.01c.017,0,.044-.022.081-.066a3.48,3.48,0,0,1,.478-.429l0,0h0c.258-.206.5-.4.527-.565a.2.2,0,0,0-.053-.166A.469.469,0,0,0,27.112,19.263Zm-21.9-5.991-.6.983-.063.824c.1.239-.031.394-.168.559l0,0h0a.763.763,0,0,0-.24.514c.017,0,.174.044.258.573l.063.174.153.505-.216.442c-.061.116-.132.227-.189.317h0l-.005.009v0a1.458,1.458,0,0,0-.329.916,1.935,1.935,0,0,1,.375.242l.008.006a1.339,1.339,0,0,0,.668.293l.154-.344c.162-.155.066-.27-.056-.415l0,0a.613.613,0,0,1-.185-.616,6.669,6.669,0,0,1,.691-1.748l-.544-.813V14.131Zm22.927,3.245A3.88,3.88,0,0,1,26,18.665h-.006l-.009,0c-.17.071-.282.118-.308.2a.256.256,0,0,0,.059.2.538.538,0,0,0,.35.11,2.128,2.128,0,0,0,1.364-.722c.617-.655.981-1.1.69-1.945ZM22.859,17.57h0s-.222.419,0,.56a.64.64,0,0,0,.329.063,3.1,3.1,0,0,0,.553-.062h.008s0,0,0,0a0,0,0,0,1,0,0,.757.757,0,0,1,0-.429c.072-.139.5-.182.505-.182l0,0s-.337-.339-.5-.362a.127.127,0,0,0-.026,0c-.074,0-.111.052-.157.117v0l0,0h0a.644.644,0,0,1-.2.2.773.773,0,0,1-.405.1.822.822,0,0,1-.1-.005ZM1.282,16.432a.032.032,0,0,0-.026.011,1.147,1.147,0,0,0-.138.416l0,.019-.005.022c-.015.065-.03.127-.045.187a1.045,1.045,0,0,0,.243.862.19.19,0,0,0,.145.064.565.565,0,0,0,.323-.166.538.538,0,0,0-.01-.533l0-.01v0a4.39,4.39,0,0,1-.184-.607S1.374,16.432,1.282,16.432Zm.78-.559v.56a1.41,1.41,0,0,1,.306,1.234v0l0,.043v.006c0,.012,0,.023,0,.034v.011c0,.024,0,.046,0,.07.715-.178.764-.528.844-1.107,0-.012,0-.024.006-.037l0-.014,0-.013c.022-.148.042-.282.072-.427a2.955,2.955,0,0,1-.623-.178l0,0a3.594,3.594,0,0,0-.592-.183Zm4.254-1.779a2.614,2.614,0,0,1,.124.313l0,.012,0,.006,0,.006v.007c.147.415.349.983.771.983a.567.567,0,0,0,.108-.011,2.5,2.5,0,0,0,1.474-1.5,1.981,1.981,0,0,0,.115-1.244,6.677,6.677,0,0,0-.321.608l0,0-.007.016h0c-.269.559-.523,1.087-1.092,1.257a.281.281,0,0,1-.046,0,3.915,3.915,0,0,1-1.131-.458Zm1.23-3.706v0l0,0h0l0,.006A5.05,5.05,0,0,0,7,11.25c-.042.842.168.909.353.967.22.069.41.128.134,1.434h.005a1.166,1.166,0,0,0,.559-.366A3.439,3.439,0,0,0,8.3,12.277v-.005c.012-.071.04-.31-.115-.419a.144.144,0,0,0-.089-.026.568.568,0,0,0-.175.043H7.905a.528.528,0,0,1-.163.04c-.073,0-.12-.043-.145-.136a7.32,7.32,0,0,1-.051-1.371v-.02Zm7.909,21.329a.261.261,0,0,1-.2-.1,2.606,2.606,0,0,1-.439-1.168,10.314,10.314,0,0,1,1.577-3.082l0,0a14.076,14.076,0,0,1,1.659,3.079,1.662,1.662,0,0,1-.284.836c-.157.248-.338.421-.44.421a.073.073,0,0,1-.034-.008,8.258,8.258,0,0,1-.862-.868h0C16.373,30.922,15.84,31.717,15.455,31.717Zm-4.538-2.393c-1.2-.312-2.615-1.7-2.462-2.742-.007-1.042.107-1.732.71-2.177a10.522,10.522,0,0,0,2.48-.8,3.3,3.3,0,0,1,.954-.322,19.288,19.288,0,0,0,3.089,1.12.758.758,0,0,1,.067.589,3.353,3.353,0,0,1-1.336,1.725,17.2,17.2,0,0,0-1,1.428l0,0a2.442,2.442,0,0,1-.833.956A3.716,3.716,0,0,1,10.918,29.324Zm10.95,0h0a3.718,3.718,0,0,1-1.663-.217,2.441,2.441,0,0,1-.832-.955,17.136,17.136,0,0,0-1.007-1.432,3.353,3.353,0,0,1-1.336-1.725.756.756,0,0,1,.067-.589c0-.007.009-.027.012-.027,1.484-.5,1.689-.7,1.8-.8s.136-.128,1.278-.295a3.3,3.3,0,0,1,.953.321,10.514,10.514,0,0,0,2.481.8c.6.445.716,1.135.71,2.177.153,1.045-1.257,2.43-2.462,2.742Zm8.338-16.9h0c.028-.257.051-.52.069-.784l0-.034V11.6s0,0,0,0a2.036,2.036,0,0,1-.071.825h0ZM19.4.555h0c.037-.062.064-.1.066-.1l.006-.01v0l0,0h0C19.462.48,19.436.555,19.4.555Z" transform="translate(19 9.498)" fill="#ff8282" opacity="0.75"/>
  <text id="Wildfire" transform="translate(35 57.051)" fill="#fff" font-size="8" font-family="SegoeUI-Bold, Segoe UI" font-weight="700"><tspan x="-15.18" y="0">Wildfire</tspan></text>
  <rect id="Rectangle_1500" data-name="Rectangle 1500" width="70" height="70" fill="none"/>
</svg>
