<svg id="Component_235_2" data-name="Component 235 – 2" xmlns="http://www.w3.org/2000/svg" width="70" height="70" viewBox="0 0 70 70">
  <path id="Subtraction_489" data-name="Subtraction 489" d="M18.942,40.908a9.052,9.052,0,0,1-2.271-.383,11.7,11.7,0,0,1-1.713-.613,4.988,4.988,0,0,0-2.068-.382c-.255,0-.533.013-.8.039v.015h-.029l-.05,0c-.04,0-.094.005-.158.007s-.092.012-.095.014V39.6c-.4.017-.758.025-1.044.025a2.255,2.255,0,0,1-.587-.04c-1.068-.545-3.943-1.617-4.508-1.826L5.6,37.751l5.46-1.182L2.63,30.559l7.778.15L0,18.851l.021.009c1.038.428,10.163,4.186,10.982,4.186.03,0,.05-.005.058-.015a.023.023,0,0,0,0-.022A114.372,114.372,0,0,0,6.168,12.041C4.529,8.762,3.136,6.205,3.128,6.19l13.1,14.361-.309-10.393.007.015c.111.248,1.117,2.486,2.181,4.665,1.038,2.135,2.36,4.681,2.758,4.681.162,0,.5-1.026,1.013-3.049.407-1.613.926-3.871,1.54-6.709C24.457,4.925,25.428.039,25.436,0l.926,20.552L37.094,9.083v.006a20.285,20.285,0,0,0-1.31,2.768c-.816,1.965-2.2,5.66-4.19,12.1,0,.437-.366,2.672-.37,2.689l7-.952-7,7.018,8.275.279L39.477,33c-.138.054-1.394.544-2.794,1.154a21.9,21.9,0,0,0-3.842,2,2.954,2.954,0,0,0-1.6,2.533c-.039.282-.067.486-.158.556a2.149,2.149,0,0,1-1.156.253c-.1,0-.17,0-.193,0l-3.826.229-.021.01c-.527.248-.984.429-1.274.537a7.541,7.541,0,0,1-2.337.547,1.287,1.287,0,0,1-.813-.219.977.977,0,0,0-.589-.166.964.964,0,0,0-.105,0,.584.584,0,0,0-.129-.011.891.891,0,0,0-.562.2A1.834,1.834,0,0,1,18.942,40.908Zm5.112-2.881a.732.732,0,0,0-.517.386l.008.056c.025.174.025.174-.077.558a2.565,2.565,0,0,1-.134.366l0,.005a.7.7,0,0,0,.152.967.185.185,0,0,0,.046,0c.125,0,.571-.087,1.065-1.21a1.272,1.272,0,0,0-.208-.9c-.122-.2-.21-.221-.242-.221a.054.054,0,0,0-.015,0A.245.245,0,0,0,24.054,38.027Zm-6.943.01c-.032,0-.12.021-.242.22a1.279,1.279,0,0,0-.207.9c.493,1.122.939,1.21,1.064,1.21a.206.206,0,0,0,.047,0,.7.7,0,0,0,.151-.968,2.523,2.523,0,0,1-.136-.369c-.1-.387-.1-.387-.078-.56l.008-.057a.73.73,0,0,0-.517-.384.248.248,0,0,0-.074.012Zm1.318-.786a.612.612,0,0,0-.5.2.589.589,0,0,0-.134.466v.038c0,.071,0,.158-.007.267a3.591,3.591,0,0,0,.284,1.4,1.082,1.082,0,0,0,.491.437c.673-.054.636-.575.612-.921l0-.049L19.1,37.62a.724.724,0,0,0-.538-.373.262.262,0,0,0-.06.006C18.487,37.253,18.462,37.251,18.429,37.251Zm4.2,0a.7.7,0,0,0-.535.382L22.048,39.1l0,.05c-.018.345-.045.866.622.906a1.038,1.038,0,0,0,.49-.445,3.623,3.623,0,0,0,.259-1.4c-.008-.119-.01-.21-.011-.284v-.017a.578.578,0,0,0-.622-.657.884.884,0,0,0-.09,0A.333.333,0,0,0,22.634,37.248ZM15.089,35.59h0a2.049,2.049,0,0,1,.613.24,1.177,1.177,0,0,1,.608.776.544.544,0,0,1-.182.593,2.275,2.275,0,0,0-.6,1.237c-.023.2.226.551.438.813a4.293,4.293,0,0,0,.5.543.25.25,0,0,0,.157-.052.037.037,0,0,0,0-.032,3.034,3.034,0,0,0-.17-.4l0-.008c-.118-.246-.239-.5-.2-.6a1.745,1.745,0,0,1,.292-.182l.05-.029.038-.02.059-.033a.236.236,0,0,0,0-.038V38.38a.826.826,0,0,1,.2-.577.233.233,0,0,1,.148-.044,1.466,1.466,0,0,1,.627.272l0-.015c.021-.452.146-.746.354-.829a.636.636,0,0,1,.366-.118,1.112,1.112,0,0,1,.736.387v-.007c.054-.223.187-.607.467-.674a1.4,1.4,0,0,1,.247-.023.725.725,0,0,1,.76.562c.085-.179.329-.594.717-.6h.03a.654.654,0,0,1,.582.322,1.481,1.481,0,0,1,.1.182l0,.006c.039.083.065.134.094.134a.524.524,0,0,0,.165-.077l.018-.01a1.2,1.2,0,0,1,.557-.215.486.486,0,0,1,.1.013,1.086,1.086,0,0,1,.514.968c0,.071.006.122.024.122s.026-.014.05-.044a.566.566,0,0,1,.49-.259.417.417,0,0,1,.356.155.3.3,0,0,1,.008.288c.113.22.158.262.2.262a.121.121,0,0,0,.039-.01l.006,0,.009,0a.191.191,0,0,1,.075-.017.4.4,0,0,1,.221.1,1.732,1.732,0,0,1-.165.623l-.008.022a1.321,1.321,0,0,0-.137.482.013.013,0,0,0,.011.006,1.228,1.228,0,0,0,.5-.327,1.669,1.669,0,0,0,.488-.737,7.421,7.421,0,0,0-.088-.856A1.976,1.976,0,0,1,25,36.987a.789.789,0,0,0-.07-.169.9.9,0,0,1,.265-.667,1.768,1.768,0,0,1,.971-.5l.2,2.079,0,0a2.22,2.22,0,0,0,.362.285,1.764,1.764,0,0,0,.917.289,1.941,1.941,0,0,0,1.572-1.065,1.5,1.5,0,0,0-.409-1.534c-.191-.227-.341-.406-.223-.64.019-.005.085-.038.161-.251a6.232,6.232,0,0,0,.226-1.65c.024-.047-.022-.1-.036-.11a.1.1,0,0,0-.092-.043,1.667,1.667,0,0,0-.606.3l-.018.011a1.629,1.629,0,0,1-.5.258,2.693,2.693,0,0,1,.485-.873l.005-.007.011-.014a6.405,6.405,0,0,0,.644-1.037,2.2,2.2,0,0,0-.06-1.362,3.376,3.376,0,0,0-.589-1.312c-.391-.115-.348-1.359-.266-1.943.036-.259.084-.427.121-.427.007,0,.012,0,.019.015a10.556,10.556,0,0,1,1.345,3.4c.022.053.048.079.08.079.09,0,.2-.211.24-.3a7.907,7.907,0,0,0-1.838-6.214,9.886,9.886,0,0,0-3.285-2.5,9.654,9.654,0,0,0-3.755-.963,6.035,6.035,0,0,0-.629-.032,7.15,7.15,0,0,0-2.479.467,9.647,9.647,0,0,0-2.33,1.265,10.934,10.934,0,0,0-1.972,1.85,9.747,9.747,0,0,0-1.406,2.225,9.293,9.293,0,0,0-.608,2.809,6.347,6.347,0,0,0,.026,1.162s.06.122.142.122c.057,0,.106-.059.152-.179a20.991,20.991,0,0,1,1.366-3.17.067.067,0,0,1,.025-.005.081.081,0,0,1,.06.037,2.8,2.8,0,0,1,.139,1.552,2.4,2.4,0,0,1-.382.769L12.979,29l-.012.017a4.638,4.638,0,0,0-.619,1.265,2.321,2.321,0,0,0,.191,1.688,10.92,10.92,0,0,0,.817,1.246l.005.007c.14.191.284.388.387.56a5.18,5.18,0,0,0-1.334-.75.088.088,0,0,0-.065.02,6.752,6.752,0,0,0,.1,1.811l0,.01c.33.3.175.51-.04.8a1.483,1.483,0,0,0,.274,2.316,1.9,1.9,0,0,0,1.072.331,1.183,1.183,0,0,0,1.223-1.338,4.791,4.791,0,0,1,.112-1.394Zm5.5,3.48a.218.218,0,0,1,.092.028.581.581,0,0,0,.646.582c.112,0,.466-.365.474-.462a3.59,3.59,0,0,0,.209-1.408c-.011-.111-.016-.2-.02-.27l0-.034a.593.593,0,0,0-.157-.459.578.578,0,0,0-.454-.174.969.969,0,0,0-.121.008.464.464,0,0,0-.051,0,.716.716,0,0,0-.533.4v.17a.1.1,0,0,0-.03-.005l-.015,0a.246.246,0,0,0-.056-.006.241.241,0,0,0-.042,0v-.164a.706.706,0,0,0-.532-.4.263.263,0,0,0-.046,0,.948.948,0,0,0-.125-.008.575.575,0,0,0-.454.174.6.6,0,0,0-.158.459c0,.083-.009.178-.022.3a3.537,3.537,0,0,0,.211,1.409c.007.1.358.462.471.462a.586.586,0,0,0,.65-.6.344.344,0,0,1,.048-.012ZM19.726,35.8a.239.239,0,0,1-.186-.095,2.645,2.645,0,0,1-.4-1.132,6.643,6.643,0,0,1,.784-1.914c.322-.575.625-1.02.659-1.069l.014.018A13.325,13.325,0,0,1,22.1,34.572a1.664,1.664,0,0,1-.26.81c-.145.24-.31.408-.4.408a.062.062,0,0,1-.03-.007,7.565,7.565,0,0,1-.788-.841l-.007.014C20.451,35.209,20.037,35.8,19.726,35.8Zm-4.111-2.317h0c-1.031-.28-2.238-1.527-2.108-2.467,0-.937.094-1.558.608-1.957a8.72,8.72,0,0,0,2.122-.719,2.791,2.791,0,0,1,.818-.29A16.53,16.53,0,0,0,19.7,29.058a.719.719,0,0,1,.059.529,3.011,3.011,0,0,1-1.144,1.552,15.28,15.28,0,0,0-.852,1.272l-.006.01-.007.012a2.15,2.15,0,0,1-.709.855A3.056,3.056,0,0,1,15.615,33.482Zm9.975-.007h0a3.038,3.038,0,0,1-1.423-.2,2.139,2.139,0,0,1-.709-.854l0-.006a15.4,15.4,0,0,0-.861-1.286,3.018,3.018,0,0,1-1.145-1.552.724.724,0,0,1,.058-.529.113.113,0,0,1,.009-.025c1.27-.45,1.446-.624,1.54-.717s.118-.117,1.1-.266a2.714,2.714,0,0,1,.812.285,8.564,8.564,0,0,0,2.128.722c.516.4.614,1.021.608,1.958.131.939-1.076,2.186-2.108,2.467Z" transform="translate(15 5.835)" fill="#ff94b0"/>
  <text id="Fighting_Blind" data-name="Fighting Blind" transform="translate(35 57.239)" fill="#fff" font-size="8" font-family="SegoeUI-Bold, Segoe UI" font-weight="700"><tspan x="-26.529" y="0">Fighting Blind</tspan></text>
  <rect id="Rectangle_1502" data-name="Rectangle 1502" width="70" height="70" fill="none"/>
</svg>
