<svg id="Component_234_1" data-name="Component 234 – 1" xmlns="http://www.w3.org/2000/svg" width="70" height="70" viewBox="0 0 70 70">
  <g id="immunity" transform="translate(16.004 13.913)" opacity="0.75">
    <path id="Path_1285" data-name="Path 1285" d="M167.209,122.728l-.16.055c-.234.171-.4.426-.7.489-1.437.351-1.5.326-2.558-1.124-.733-1.183-.554-1.772.839-2.771a.672.672,0,0,1,.776.4c0,.416-.341.682-.452,1.054-.21.561.171.481.484.426,1.194-.2,2.387-.373,3.581-.57.3-.049.766-.3.9.1s-.4.469-.667.631A7.456,7.456,0,0,0,167.209,122.728Z" transform="translate(-136.167 -102.193)" fill="#ff8282"/>
    <path id="Path_1286" data-name="Path 1286" d="M166.105,135.17a.326.326,0,0,1,.061.056c.549.88,1.235,1.436,2.343.986.027.466-.421.362-.643.525-.356.266-.131.372.1.5a3.736,3.736,0,0,0,1.194.341,15.385,15.385,0,0,0,2.558.682h0c.425.355.365.561-.191.592-1.3.072-2.522.559-3.82.626a1.827,1.827,0,0,0-.541.232.423.423,0,0,1-.5-.188,1.045,1.045,0,0,1,.469-1.323c.278-.1.469.085.692.2.295.15.4,0,.361-.3a1.5,1.5,0,0,0-1.263-.522c-.341-.024-.7-.029-.7-.512.472-.211.646-.447.09-.789a.876.876,0,0,1-.377-.523.716.716,0,0,1,.008-.37A.437.437,0,0,1,166.105,135.17Z" transform="translate(-138.289 -115.3)" fill="#ff8282"/>
    <path id="Path_1287" data-name="Path 1287" d="M63.02,148.545a5.19,5.19,0,0,0-5.134.592,1.74,1.74,0,0,0-.928,1.337c-.014.24-.077.489-.324.537-.322.063-.321-.235-.365-.448-.063-.3-.341-.529-.268-.873.019-.092.036-.269-.124-.263-1.306.063-1.11-1.023-1.364-1.761a4.16,4.16,0,0,1,.015-1.862h0a.263.263,0,0,1,.341-.06,14.391,14.391,0,0,0,.373,2.783c.1-.242.228-.532.619-.457.329.061.317.35.358.6a7.1,7.1,0,0,0,.353,1.163,3.424,3.424,0,0,1,1.853-1.569c.706-.276.532-1.091,1-1.5a.537.537,0,0,1,.358-.068,5.115,5.115,0,0,1,1.023.387.281.281,0,0,1,.066.21c-.06.13-.2.171-.273.273a10.082,10.082,0,0,1,1.31.107C62.359,147.877,63.041,147.754,63.02,148.545Z" transform="translate(-45.797 -124.039)" fill="#ff8282"/>
    <path id="Path_1288" data-name="Path 1288" d="M72.467,193.866c.754-1.045.754-1.045-.491-1.557-.143-.1-.4-.031-.45-.278,0-.194-.056-.406.211-.481.367.254.875.16,1.209.489l.16.128a5.839,5.839,0,0,1,1.565.322l.315.027c.655.085,1.315.118,1.973.157.573.034.631.152.43.662h0a6.033,6.033,0,0,1-3.069-.309c-.109,0-.244-.046-.324,0-.22.133.012.2.073.28.382.447,1.013.512,1.427.911-.2.486-.2.486-.853.171-.426,0-.626-.418-.984-.542-.382-.257-.512.273-.82.261A.452.452,0,0,1,72.467,193.866Z" transform="translate(-59.986 -162.066)" fill="#ff8282"/>
    <path id="Path_1289" data-name="Path 1289" d="M6.227,71.785a5.273,5.273,0,0,1-1-3.8c.058-.97.276-1.85-.863-2.455-.658-.346-.522-1.183-.455-1.86a5.644,5.644,0,0,1,.171-.735h0c.276-.341.285-1.09.905-.9.52.171.218.784.273,1.2a.725.725,0,0,1-.1.483c-.23.23-.4-.118-.617-.07a1.7,1.7,0,0,0,.7,1.929,1.829,1.829,0,0,1,.549,2.009,5.571,5.571,0,0,0,.13,2.148c.368-.078.682-.541,1.023-.2a1.223,1.223,0,0,1,.257,1.337c-.23.2-.341-.029-.5-.138a2.389,2.389,0,0,1-.147.943C6.46,71.78,6.366,71.851,6.227,71.785Z" transform="translate(-3.85 -54.612)" fill="#ff8282"/>
    <path id="Path_1290" data-name="Path 1290" d="M99.074,149.854c-.171-.614-.824-.428-1.194-.7a.576.576,0,0,1,.368-.3,1.026,1.026,0,0,1,.247-.034c1.223.3,2.322-.31,3.48-.486a2.175,2.175,0,0,1,.232-.077,2.244,2.244,0,0,0,1.124-.67c.334-.295.7-.477,1.084-.051a.388.388,0,0,1,.029.232,1.274,1.274,0,0,1-.723.494c-.215.09-.389.2-.321.476-.171.23-.512.126-.682.35a3.13,3.13,0,0,0-1.441.774c-.285.28-.7.3-.975.709-.256.38-.452-.271-.725-.37Z" transform="translate(-81.85 -125.348)" fill="#ff8282"/>
    <path id="Path_1291" data-name="Path 1291" d="M17.81,118.23l.227-.23c.653.038.994.778,1.68.743.259.073.379.3.534.484.2.225.413.45.616.682a1.166,1.166,0,0,0,1.821.121c.148-.123.275-.341.466-.107.138.171-.043.317-.171.413a2.935,2.935,0,0,0-.733,1.1,1.87,1.87,0,0,1-1.354-.315,3,3,0,0,1-1.013-1.374A4.058,4.058,0,0,1,17.81,118.23Z" transform="translate(-15.433 -101.058)" fill="#ff8282"/>
    <path id="Path_1292" data-name="Path 1292" d="M34.531,158.479a3.107,3.107,0,0,0,.512,1.917c-.171.14-.247.389-.474.479-.171-.08-.37-.259-.512-.225-.6.143-.723-.2-.667-.645a1.2,1.2,0,0,0-.549-1.131.444.444,0,0,1,.077-.171c0-.3-.295-.495-.281-.8a3.514,3.514,0,0,1-.017-.379c.055-.578,0-1.217.749-1.429a1.535,1.535,0,0,1-.155.822,1.058,1.058,0,0,0,.428,1.577c.266-.155.147-.529.37-.72C34.345,157.9,34.145,158.409,34.531,158.479Z" transform="translate(-27.717 -132.661)" fill="#ff8282"/>
    <path id="Path_1293" data-name="Path 1293" d="M119.565,171.643a3.843,3.843,0,0,0,1.753-2.063c.24-.7-.153-1.325-.106-1.992.032-.208,0-.44.234-.568.733,1.584.8,3.086-.552,4.41a1.074,1.074,0,0,1-.9.783C119.537,172.292,119.348,172.1,119.565,171.643Z" transform="translate(-99.763 -141.719)" fill="#ff8282"/>
    <path id="Path_1294" data-name="Path 1294" d="M24.554,157.876l-.189.036c-1.023-.113-1.241.148-1.243,1.347,0,.309.36.87-.2.9-.39.019-.4-.58-.491-.958-.116-.491.246-.861.283-1.31a1.953,1.953,0,0,0,1.238-1.961c-.014-.322.266-.656.413-.986.295.223.147.483.056.733-.119.327-.305.65-.063,1v.36C23.9,157.433,24.7,157.549,24.554,157.876Z" transform="translate(-19.246 -131.699)" fill="#ff8282"/>
    <path id="Path_1295" data-name="Path 1295" d="M143.984,188.773c.523-.312,1.054-.614,1.567-.941a4.114,4.114,0,0,0,1.673-1.947.208.208,0,0,1,.249-.017c.218.171.184.389.119.614a5.745,5.745,0,0,1-3.144,2.621C144.095,189.273,143.956,189.136,143.984,188.773Z" transform="translate(-120.09 -157.325)" fill="#ff8282"/>
    <path id="Path_1296" data-name="Path 1296" d="M172.756,127.363c.063-.385.363-.512.667-.682a10.4,10.4,0,0,0,2.012-1.253c-1.606.264-3.114.512-4.624.757-.24.038-.535.147-.694-.135a.47.47,0,0,1,.273-.682.683.683,0,0,1,.2.3.471.471,0,0,0,.474.106c1.316-.3,2.674-.363,3.976-.728.435-.121.957-.193,1.091.29.171.6-.472.542-.832.682h0A15.908,15.908,0,0,0,172.756,127.363Z" transform="translate(-141.714 -106.828)" fill="#ff8282"/>
    <path id="Path_1297" data-name="Path 1297" d="M107.76,161.868c.341.133.682.58.965-.113.077-.189.409-.275.624-.406.1.244.314.2.512.21.293.136.83-.147.832.484-.634-.273-1.246.351-2.026-.1a4.484,4.484,0,0,1,.636,1.952c-.009.278.015.641-.389.616-.358-.022-.3-.37-.273-.605C108.752,163.048,108.074,162.54,107.76,161.868Z" transform="translate(-90.046 -137.016)" fill="#ff8282"/>
    <path id="Path_1298" data-name="Path 1298" d="M90.729,172.21c.447-.3.876-.643.807-1.229A1.065,1.065,0,0,0,90.45,170c-.215-.014-.411-.15-.368-.373.051-.28.341-.278.551-.259a1.434,1.434,0,0,1,1.248.892,1.711,1.711,0,0,1-.171,1.831,8.282,8.282,0,0,1-.75.67c-.261.106-.44.056-.479-.254A.379.379,0,0,1,90.729,172.21Z" transform="translate(-75.376 -143.659)" fill="#ff8282"/>
    <path id="Path_1299" data-name="Path 1299" d="M151.548,164.3a1.388,1.388,0,0,1-.17,0,3.032,3.032,0,0,0-.217-3.175,2.42,2.42,0,0,0-1.313-.853c-.384-.1-.512.08-.489.438-.486.032-.341-.305-.327-.563a.453.453,0,0,1,.171-.21,1.427,1.427,0,0,1,1.161.014,1.306,1.306,0,0,1,.718.431,2.25,2.25,0,0,0,1.339.813.14.14,0,0,1-.026.2c-.321.153-.609.268-.268.723a2,2,0,0,1,.085,1.79C151.832,163.777,151.855,164.326,151.548,164.3Z" transform="translate(-124.254 -135.751)" fill="#ff8282"/>
    <path id="Path_1300" data-name="Path 1300" d="M89.91,207.391c.276-.082.65.322.853-.171a22.366,22.366,0,0,1,4.007.457,3.459,3.459,0,0,1-2.955.2.549.549,0,0,1,.259-.152.511.511,0,0,0-.261.15A3.026,3.026,0,0,1,89.91,207.391Z" transform="translate(-75.239 -175.064)" fill="#ff8282"/>
    <path id="Path_1301" data-name="Path 1301" d="M123.65,187.264a6.738,6.738,0,0,0,1.207-1.364c.116-.13.281-.341.5-.2s.056.314-.022.5c-.476,1.151-1.535,1.587-2.525,2.113-.668.078-.474-.276-.259-.568C122.806,187.387,123.27,187.416,123.65,187.264Z" transform="translate(-102.143 -157.173)" fill="#ff8282"/>
    <path id="Path_1302" data-name="Path 1302" d="M129.853,199.694a.483.483,0,0,0,.469.341c-.878.552-1.9.331-2.848.529-.171.1-.406.171-.5-.032-.124-.259.171-.341.322-.486l.5-.171a.491.491,0,0,0,.435.119c-.145-.017-.312.01-.433-.121a4.68,4.68,0,0,1,1.364-.873.341.341,0,0,0,.234.408C129.241,199.957,129.764,199.486,129.853,199.694Z" transform="translate(-105.959 -168.246)" fill="#ff8282"/>
    <path id="Path_1303" data-name="Path 1303" d="M77.412,184.3l-.157.17c-.305.563-.863.365-1.282.431.4.043.888-.133,1.279.237a1.56,1.56,0,0,1-1.726.171c-.5-.239-1-.454-1.506-.682.1-.217.031-.481.188-.682.4-.077.67.249,1.009.363A4.115,4.115,0,0,0,77.412,184.3Z" transform="translate(-62.059 -155.747)" fill="#ff8282"/>
    <path id="Path_1304" data-name="Path 1304" d="M173,154.558c.414-.477.989-.247,1.49-.351a15.083,15.083,0,0,1,2.808-.474c.426,0,.46-.218.292-.542a3.842,3.842,0,0,1,.581.066c.152.043.367.085.368.29,0,.266-.237.3-.428.305-1.569.024-3.054.563-4.6.74A.522.522,0,0,1,173,154.558Z" transform="translate(-144.161 -130.247)" fill="#ff8282"/>
    <path id="Path_1305" data-name="Path 1305" d="M139.919,188.614c-.286-.015-.321-.171-.234-.408.512-.6,1.178-1.067,1.364-1.894a.341.341,0,0,1,.527-.254c.293.15.119.387.022.583A5.628,5.628,0,0,1,139.919,188.614Z" transform="translate(-116.492 -157.464)" fill="#ff8282"/>
    <path id="Path_1306" data-name="Path 1306" d="M54.455,129.6h-.341c.053-.114.1-.23.157-.341.682-.568.725-.9.171-1.376-.113-.234-.136-.556-.522-.512.056-.648.853-.66,1.037-1.194.8.225.587.822.445,1.332a1.71,1.71,0,0,0-.152.958,1.264,1.264,0,0,1-.066.522C55.047,129.324,54.921,129.669,54.455,129.6Z" transform="translate(-45.386 -107.843)" fill="#ff8282"/>
    <path id="Path_1307" data-name="Path 1307" d="M55.246,174.768a6.62,6.62,0,0,1-1.446-2.217c.048-.188.009-.414.148-.561.576.646.921,1.548,1.468,2.227l.142.327C55.561,174.875,55.41,174.838,55.246,174.768Z" transform="translate(-45.286 -145.842)" fill="#ff8282"/>
    <path id="Path_1308" data-name="Path 1308" d="M32.5,151.051c-.411-.077-.266-.341-.2-.581a2.406,2.406,0,0,0,.206-1.151c.36-.474.471-1.243,1.41-1.148-.315.488-.6.921-.882,1.354A2.223,2.223,0,0,0,32.5,151.051Z" transform="translate(-27.387 -126.077)" fill="#ff8282"/>
    <path id="Path_1309" data-name="Path 1309" d="M41.292,159.267c-.13.131-.08.45-.309.431s-.182-.288-.193-.469c-.014-.217-.014-.435-.02-.653a3.3,3.3,0,0,1,.367-1.526c.162.061.256.159.182.341C41.773,158.025,41.075,158.641,41.292,159.267Z" transform="translate(-34.478 -133.449)" fill="#ff8282"/>
    <path id="Path_1310" data-name="Path 1310" d="M121.25,193.26a3.842,3.842,0,0,1-.909.568c-.372.118-.443.384.065.483-.046.235-.329.4-.385.246-.182-.474-.812-.825-.469-1.463,0,.36.113.568.494.35.29-.171.556-.373.834-.563A.4.4,0,0,0,121.25,193.26Z" transform="translate(-99.743 -163.17)" fill="#ff8282"/>
    <path id="Path_1311" data-name="Path 1311" d="M125.91,153.2c.182-.249.532-.092.73-.3a1.021,1.021,0,0,1,1.526-.264c.539.351,1.281.486,1.436,1.272a.268.268,0,0,1-.14.2,2.927,2.927,0,0,0-3.192-.882.249.249,0,0,1-.36-.029Z" transform="translate(-105.101 -129.598)" fill="#ff8282"/>
    <path id="Path_1312" data-name="Path 1312" d="M61.73,187.218a.511.511,0,0,0,.406-.218l.481.2c.194.24.6.138.743.46-.119.16-.356.244-.327.5-.188.232-.305.609-.728.358-.133-.228-.532-.341-.263-.743C62.245,187.474,61.9,187.372,61.73,187.218Z" transform="translate(-51.864 -158.292)" fill="#ff8282"/>
    <path id="Path_1313" data-name="Path 1313" d="M82.457,187.807a3.3,3.3,0,0,1-2.167-.326c.716-.368,1.516.036,2.171-.341.009.252.171.341.39.37Z" transform="translate(-67.26 -158.408)" fill="#ff8282"/>
    <path id="Path_1314" data-name="Path 1314" d="M118.354,157.08l.36.029c-.2.443-.772.223-1.038.573.263.232.767-.1.883.4a2.028,2.028,0,0,1-1.364.053c-.385.171-.462.022-.341-.331A4.859,4.859,0,0,1,118.354,157.08Z" transform="translate(-97.545 -133.474)" fill="#ff8282"/>
    <path id="Path_1315" data-name="Path 1315" d="M68.856,180.935c.131.28.66.668-.188.682-.341-.019-.512-.259-.7-.5-.135-.206-.551-.3-.351-.636.17-.3.454-.223.692-.021A1.1,1.1,0,0,0,68.856,180.935Z" transform="translate(-56.707 -152.722)" fill="#ff8282"/>
    <path id="Path_1316" data-name="Path 1316" d="M119.08,163.023l1.364-.053a1.553,1.553,0,0,1,.668.687c-.015.215,0,.442-.234.568l-.807-.842C119.856,162.963,119.339,163.347,119.08,163.023Z" transform="translate(-99.435 -138.36)" fill="#ff8282"/>
    <path id="Path_1317" data-name="Path 1317" d="M68.669,207.741c-.39-.027-1.061.281-1.083-.24-.029-.636.7-.3,1.093-.411.186.292.522-.1.714.157a.118.118,0,0,1-.061.171Z" transform="translate(-56.721 -174.957)" fill="#ff8282"/>
    <path id="Path_1318" data-name="Path 1318" d="M121.572,205.09c-.135.239-.457.542.171.512-.307.341-.841.022-1.154.413a.305.305,0,0,1-.5-.075.324.324,0,0,1,.3-.483C120.849,205.5,121.153,205.134,121.572,205.09Z" transform="translate(-100.236 -173.298)" fill="#ff8282"/>
    <path id="Path_1319" data-name="Path 1319" d="M94.253,198.021c.211-.477-.107-.52-.443-.525a6.871,6.871,0,0,1-1.959-.293c.7,0,1.39-.017,2.084-.01a.638.638,0,0,1,.626.467C94.641,197.908,94.493,198.011,94.253,198.021Z" transform="translate(-76.848 -166.745)" fill="#ff8282"/>
    <path id="Path_1320" data-name="Path 1320" d="M147.286,160.923c.046.23-.082.512.2.668.148.3.375.708-.084.832-.433.116-.373-.367-.445-.651-.055-.217-.143-.423-.217-.633l.092-.1C146.955,160.918,147.095,160.812,147.286,160.923Z" transform="translate(-122.379 -136.623)" fill="#ff8282"/>
    <path id="Path_1321" data-name="Path 1321" d="M53.55,172.619a6.087,6.087,0,0,1-1.852-2.263.171.171,0,0,1-.046-.266l.039-.031A29.719,29.719,0,0,1,53.55,172.619Z" transform="translate(-43.467 -144.241)" fill="#ff8282"/>
    <path id="Path_1322" data-name="Path 1322" d="M43.112,153.115l-.182-.341a3.692,3.692,0,0,1,.2-.452c.124-.2.225-.527.539-.4s.1.437.111.667C43.506,152.7,43.534,153.188,43.112,153.115Z" transform="translate(-36.27 -129.17)" fill="#ff8282"/>
    <path id="Path_1323" data-name="Path 1323" d="M88,200.24a18.557,18.557,0,0,0,3.069.309A3.835,3.835,0,0,1,88,200.24Z" transform="translate(-73.655 -169.275)" fill="#ff8282"/>
    <path id="Path_1324" data-name="Path 1324" d="M67.643,188.663c-.186-.239-.593-.157-.713-.493a5.556,5.556,0,0,1,2.208,1.073,3.708,3.708,0,0,1-1.344-.419A.242.242,0,0,1,67.643,188.663Z" transform="translate(-56.178 -159.263)" fill="#ff8282"/>
    <path id="Path_1325" data-name="Path 1325" d="M187.5,149.872a4.352,4.352,0,0,1-2.558-.682A8.646,8.646,0,0,1,187.5,149.872Z" transform="translate(-154.065 -126.929)" fill="#ff8282"/>
    <path id="Path_1326" data-name="Path 1326" d="M163.94,182.422a4.955,4.955,0,0,1,.191-.471c.247-.471.384-.3.472.09q-.23.491-.464.984Z" transform="translate(-136.646 -153.87)" fill="#ff8282"/>
    <path id="Path_1327" data-name="Path 1327" d="M67.378,179.636c-.188-.039-.408-.157-.552.022-.235.29.295.368.211.634-.327-.053-.593-.2-.6-.563a.485.485,0,0,1,.37-.406C67.1,179.22,67.282,179.361,67.378,179.636Z" transform="translate(-55.771 -151.896)" fill="#ff8282"/>
    <path id="Path_1328" data-name="Path 1328" d="M30,128.24l1.013,1.374C30.341,129.406,30.143,128.84,30,128.24Z" transform="translate(-25.545 -109.552)" fill="#ff8282"/>
    <path id="Path_1329" data-name="Path 1329" d="M77.83,204.794a.835.835,0,0,1,.012-.171.273.273,0,0,1,.22-.283c.275-.1.411-.708.853-.23C78.43,204.159,78.381,204.874,77.83,204.794Z" transform="translate(-65.219 -172.334)" fill="#ff8282"/>
    <path id="Path_1330" data-name="Path 1330" d="M61.14,206.451c.027-.229.131-.4.384-.305.293.107.319.367.271.638H61.49Z" transform="translate(-51.375 -174.152)" fill="#ff8282"/>
    <path id="Path_1331" data-name="Path 1331" d="M82.385,195.389a5.526,5.526,0,0,1-1.565-.322C81.362,195.053,81.939,194.913,82.385,195.389Z" transform="translate(-67.699 -164.958)" fill="#ff8282"/>
    <path id="Path_1332" data-name="Path 1332" d="M54.041,146.28l-.015,1.862A2.189,2.189,0,0,1,54.041,146.28Z" transform="translate(-45.308 -124.516)" fill="#ff8282"/>
    <path id="Path_1333" data-name="Path 1333" d="M156.857,34.144a.565.565,0,0,0-.109.525c-.45,1.932-.941,3.852-1.417,5.775a14.457,14.457,0,0,0-.7,2.4,5.06,5.06,0,0,1-.24.975c-.2.4-.351.614-.81.283-.324-.234-.711-.288-.829.254-.048.217.2.537-.186.626-.341.078-.512-.179-.655-.43-.242-.556-.409-1.1.321-1.436.1-.07.29,0,.324-.171.009-.046-.135-.082-.211-.121a.534.534,0,0,1-.283-.732,10.743,10.743,0,0,1,1.518-3.044c.331-.474.3-1.083.725-1.48a32.324,32.324,0,0,0,2.191-4.28h0c.171-.1.124-.512.452-.365.275.118.2.384.1.576S157.009,33.962,156.857,34.144Z" transform="translate(-126.5 -30.466)" fill="#ff8282"/>
    <path id="Path_1334" data-name="Path 1334" d="M153.377,78.684c.147.113.171.384.452.341.269-.341-.767-.829.029-1,.341-.077,1.112-.928,1.293.384.737-.916.6-1.976.905-2.9.1-.305-.031-.694.365-.875.266.495-.128.905-.171,1.364-.14.662-.286,1.321-.413,1.987-.043.225-.312.512-.014.682.193.111.408-.133.585-.261,1.618-1.175,3.24-2.357,4.851-3.53.363-.264.747-.5,1.12-.747a.131.131,0,0,1,.206,0c.036.525-.373.745-.721.962-1.615,1-2.977,2.348-4.657,3.267-1.148.628-1.337,1.48-.815,2.715.06.029.084.125.171.092a.418.418,0,0,1-.276-.283,1.7,1.7,0,0,1,.116-1.64c.355-.022.355.275.425.493.113.355.319.5.682.356.16-.251.08-.372-.2-.384-.377-.012-.564-.292-.771-.542.585-1.154,1.364-1.378,2.416-.7a3.907,3.907,0,0,1-.447,1.952,2.782,2.782,0,0,0-.365.742,1.4,1.4,0,0,1-.776.945h-.056l-.048.031c-.087.109-.145.268-.341.191a.938.938,0,0,0-.682-.36c-.4-.327-.413.056-.561.28-.319.489-.541,1.182-1.378.853-.35-.445-1.125-.841-.147-1.437.259-.159.014-.351-.061-.512a14.288,14.288,0,0,1-.87-2.266A.341.341,0,0,1,153.377,78.684Z" transform="translate(-127.754 -64.624)" fill="#ff8282"/>
    <path id="Path_1335" data-name="Path 1335" d="M20.836,35.755a2.4,2.4,0,0,1-.37-2.667c.148-.327.341-.587.733-.6-.341,1.374.682,2.217,1.272,3.219a.818.818,0,0,0,.9.263c.484-.217-.106-.636.053-.958a.235.235,0,0,1,.222-.031c.512.728.46,1.086-.244,1.535a1.119,1.119,0,0,0-.312.368c-.223.055-.413.171-.171.385s.353.718.866.621a2.217,2.217,0,0,1,2.387,1.238,1.716,1.716,0,0,1-.512,2.036.379.379,0,0,1-.135-.2.732.732,0,0,1,0-.244c.387-1.194.341-1.465-.353-2-.341-.259-.651-.37-.882.123-.215.46-.489.305-.7.031a5.773,5.773,0,0,1-1.611-2.82,2,2,0,0,0-.539-1.038,2.409,2.409,0,0,1-.612-1.146c-.123.616.234,1.137.16,1.705A.341.341,0,0,1,20.836,35.755Z" transform="translate(-17.431 -30.128)" fill="#ff8282"/>
    <path id="Path_1336" data-name="Path 1336" d="M139.574,36.936c-.179-.288-.433-.645,0-.853s.512.247.658.549A4.519,4.519,0,0,1,140.4,40c-.29.581-1.119.483-1.385,1.095a3.139,3.139,0,0,1-1.322-.017.252.252,0,0,1,.121-.406c.733-.208.888-.991,1.415-1.4.779.02.786.017.481-.8-.1-.261.044-.425.171-.612.142-.22.171-.419-.135-.53C139.6,37.228,139.666,37.049,139.574,36.936Z" transform="translate(-114.828 -33.066)" fill="#ff8282"/>
    <path id="Path_1337" data-name="Path 1337" d="M124,88.059a6.358,6.358,0,0,1,.459-.6,1.718,1.718,0,0,0,.462-2.275.82.82,0,0,1,.67-1.3c.558-.1,1-.629,1.639-.6a2.039,2.039,0,0,1,.529,1.171.411.411,0,0,1,.038.341c-.372.145-.423-.186-.512-.384-.232-.53-.581-.535-1.023-.281a2.432,2.432,0,0,0-.43.254c-.619.489-.564.991.153,1.294.464.2.953.36.885,1.013l-.682-.293c-.124.222.2.31.15.5-.268.2-.585-.15-.853.082a1.718,1.718,0,0,0-.379.375,2.8,2.8,0,0,1-.682.747.543.543,0,0,1-.225.058A.384.384,0,0,1,124,88.059Z" transform="translate(-103.516 -72.254)" fill="#ff8282"/>
    <path id="Path_1338" data-name="Path 1338" d="M44.517,84.419c.5.621.549,1.518,1.246,2.017a.211.211,0,0,1-.1.02c-.708.181-.808-.392-1.055-.824-.065.382.275.534.442.776.329.471.382.834-.341.914a1.04,1.04,0,0,1-.57-.2,5.987,5.987,0,0,1-.609-.587,2.37,2.37,0,0,1-.29-.4A1.348,1.348,0,0,1,44.517,84.419Z" transform="translate(-36.467 -73.202)" fill="#ff8282"/>
    <path id="Path_1339" data-name="Path 1339" d="M58.826,37.1a2.954,2.954,0,0,1-.055-2.116c.218-.546.012-1.224.367-1.772.148-.232.278-.581.6-.481.259.08.225.416.2.682a9.15,9.15,0,0,0,.249,2.655.315.315,0,0,1-.249,0,.938.938,0,0,1-.481-.836c-.022-.159,0-.322-.034-.489-.1.109-.049.254-.1.37a3.391,3.391,0,0,0-.242,1.364A.712.712,0,0,1,58.826,37.1Z" transform="translate(-49.265 -30.316)" fill="#ff8282"/>
    <path id="Path_1340" data-name="Path 1340" d="M170.893,50.445c-.113-.476.247-.892.171-1.364.4-1.688.822-3.371,1.194-5.064.067-.3.285-.477.384-.737a2.494,2.494,0,0,1-.211,1.683c-.532,1.4-.672,2.9-1.081,4.321A2.435,2.435,0,0,1,170.893,50.445Z" transform="translate(-142.395 -39.079)" fill="#ff8282"/>
    <path id="Path_1341" data-name="Path 1341" d="M120.653,69.456a2.928,2.928,0,0,1-2,.459c-1.315-.4-1.545-1.915-.512-2.986a1.01,1.01,0,0,1,1.076.1.721.721,0,0,0,.914.036.147.147,0,0,1,.215.012.341.341,0,0,1-.009.24,1.135,1.135,0,0,1-1.229.3c-.361-.078-.742-.2-.969.222a.98.98,0,0,0,.092,1.107.9.9,0,0,0,1.023.4,2.191,2.191,0,0,1,1.395-.1.147.147,0,0,1,.043.142A.458.458,0,0,1,120.653,69.456Z" transform="translate(-98.123 -58.607)" fill="#ff8282"/>
    <path id="Path_1342" data-name="Path 1342" d="M135.813,63.159l-.036-.2a.575.575,0,0,1,.276-.5c.53-.373.842-.969,1.364-1.35.324-.239.17-.549.118-.853.08-.825.842-.749,1.345-1.023.116.362-.266.629-.186.984a14.141,14.141,0,0,1-2.189,2.5C136.3,62.918,136.124,63.157,135.813,63.159Z" transform="translate(-113.283 -52.309)" fill="#ff8282"/>
    <path id="Path_1343" data-name="Path 1343" d="M133.123,45.921l-.193-.034a3.754,3.754,0,0,1,1-1.023,2.644,2.644,0,0,0,1.153-1.935,3.636,3.636,0,0,1,.587-1.639c.171.06.148.215.182.341a5.571,5.571,0,0,1-.5,2.034c.019.131.171.319.024.385-.658.3-.885,1.119-1.623,1.306C133.708,45.739,133.523,45.955,133.123,45.921Z" transform="translate(-110.924 -37.428)" fill="#ff8282"/>
    <path id="Path_1344" data-name="Path 1344" d="M35.637,47.547c0-.211-.8-.583.223-.6.841-.017.426-.754.264-1.233-.128-.281-.072-.448.259-.324.2.075.305.305.457.462.305.363.189.774.13,1.177C36.66,47.537,36.3,47.941,35.637,47.547Z" transform="translate(-29.974 -40.791)" fill="#ff8282"/>
    <path id="Path_1345" data-name="Path 1345" d="M66.627,52.33a1.006,1.006,0,0,0,.16,0,7.17,7.17,0,0,0,2.1,2.588c.341.235.621.362.989.14a.257.257,0,0,1,.351-.024c-.263.853-.929.5-1.478.512a3.392,3.392,0,0,0-.9-.116c-.273-1.067-1.156-1.876-1.3-2.994Z" transform="translate(-55.862 -46.585)" fill="#ff8282"/>
    <path id="Path_1346" data-name="Path 1346" d="M41.081,80.985c-.6.16-.776.8-1.241,1.125-.222.157.213.329.217.549-.2.292-.443.578-.813.368-.314-.171-.213-.535-.152-.839a.97.97,0,0,1,.341-.65c.4-.121.692-.324.622-.808.333-.694.752-.471,1.183-.114l.026.188Z" transform="translate(-33.032 -69.769)" fill="#ff8282"/>
    <path id="Path_1347" data-name="Path 1347" d="M169.141,35.23c-.564,1.511-.905,3.136-2.191,4.28A29.934,29.934,0,0,1,169.141,35.23Z" transform="translate(-139.143 -32.401)" fill="#ff8282"/>
    <path id="Path_1348" data-name="Path 1348" d="M150.288,88.66a1.873,1.873,0,0,1-.138-1.023c.341-.143.269-.629.622-.767.048.321.171.564.544.585.123.232-.022.373-.171.512-.716.3-.512.815-.312,1.33l-.058.051C150.261,89.36,150.467,88.874,150.288,88.66Z" transform="translate(-125.201 -75.236)" fill="#ff8282"/>
    <path id="Path_1349" data-name="Path 1349" d="M32.191,36.272a3.983,3.983,0,0,1-.98-1.35.309.309,0,0,1,.015-.394.22.22,0,0,1,.361.041c.309.512.9.783,1.081,1.386C32.547,36.117,32.349,36.164,32.191,36.272Z" transform="translate(-26.496 -31.755)" fill="#ff8282"/>
    <path id="Path_1350" data-name="Path 1350" d="M207.091,66.5l-.17-.051c.387-.6,1.137-.772,1.558-1.33.189-.155.394-.418.636-.2.278.247-.026.442-.171.617a3.761,3.761,0,0,0-.476.578l-.171.2c-.126.133-.188.341-.409.363a.227.227,0,0,1-.171-.106C207.539,66.208,207.275,66.7,207.091,66.5Z" transform="translate(-172.297 -56.957)" fill="#ff8282"/>
    <path id="Path_1351" data-name="Path 1351" d="M61.388,93.14l.189.039a2.545,2.545,0,0,1-.4,2.353,3.287,3.287,0,0,0-.476.5c-.07.17-.242.3-.385.217s-.087-.312.017-.438a3.252,3.252,0,0,0,.733-1.792Z" transform="translate(-50.624 -80.437)" fill="#ff8282"/>
    <path id="Path_1352" data-name="Path 1352" d="M59.94,54.932l.051-.7a.182.182,0,0,1,.217.043,20.245,20.245,0,0,0,1.721,3.371.31.31,0,0,1-.13.2l-.98-.912Q60.378,55.93,59.94,54.932Z" transform="translate(-50.38 -48.146)" fill="#ff8282"/>
    <path id="Path_1353" data-name="Path 1353" d="M86.341,66.618H86c.752-.827,1.168,0,1.686.341.055.3.107.59.162.885.227.213.171.43.009.646-.1.171-.1.408-.341.472a.561.561,0,0,1-.2-.326A1.86,1.86,0,0,0,86.341,66.618Z" transform="translate(-71.996 -58.142)" fill="#ff8282"/>
    <path id="Path_1354" data-name="Path 1354" d="M180.15,28.647c.027-.213.046-.426.082-.638.027-.152.155-.341-.048-.414-.1-.032-.261.135-.394.21a3.264,3.264,0,0,1,.7-1.535c.549.4.058.839.038,1.26A1.529,1.529,0,0,1,180.15,28.647Z" transform="translate(-149.793 -24.969)" fill="#ff8282"/>
    <path id="Path_1355" data-name="Path 1355" d="M216,64.083c0-.467.588-.583.614-1.045-.218-.22-.394.092-.6.053.119-.419.571-.447.83-.7.377.14.341.389.171.67C216.66,63.384,216.43,63.838,216,64.083Z" transform="translate(-179.829 -54.93)" fill="#ff8282"/>
    <path id="Path_1356" data-name="Path 1356" d="M183.9,23.9c-.15-.416.22-.853-.037-1.26-.055-.21.094-.341.191-.491.317-.35.355-.35.512,0A4.492,4.492,0,0,1,183.9,23.9Z" transform="translate(-153.162 -21.33)" fill="#ff8282"/>
    <path id="Path_1357" data-name="Path 1357" d="M37.213,43.172c-.065-.443.145-.472.477-.317.261.263.653.419.694.853-.278.16-.341-.8-.716-.138a.222.222,0,0,0-.153-.031Z" transform="translate(-31.518 -38.655)" fill="#ff8282"/>
    <path id="Path_1358" data-name="Path 1358" d="M37.08,55.722a1.254,1.254,0,0,0,1.333-.522C38.074,56.073,37.66,56.235,37.08,55.722Z" transform="translate(-31.418 -48.966)" fill="#ff8282"/>
    <path id="Path_1359" data-name="Path 1359" d="M185.511,19.59c-.171-.273-.341-.073-.512,0a.813.813,0,0,1,.036-.244c.111-.24.222-.658.512-.523C185.876,18.969,185.709,19.333,185.511,19.59Z" transform="translate(-154.115 -18.77)" fill="#ff8282"/>
    <path id="Path_1360" data-name="Path 1360" d="M201.49,75.08c-.186.53-.708.813-.96,1.3-.039.06-.078.119-.116.171-.367.341-.368,1.009-1.023,1.074a.4.4,0,0,1-.1-.218,4.369,4.369,0,0,1,2.1-2.413Z" transform="translate(-165.968 -65.382)" fill="#ff8282"/>
    <path id="Path_1361" data-name="Path 1361" d="M172.141,122.326l-.351.17c.015-.1.029-.2.043-.293l.5-.853.341-.191C172.678,121.644,172.2,121.892,172.141,122.326Z" transform="translate(-143.157 -103.679)" fill="#ff8282"/>
    <path id="Path_1362" data-name="Path 1362" d="M34.655,104.758l.171.638a1.908,1.908,0,0,1-1.084.74c.114.13.288.063.408.145a.731.731,0,0,1,.171.145c.147.268.573.222.645.573-.546.326-1.182.2-1.767.341-.4.1-.469-.4-.725-.585-.37-.45-.853-.842-.769-1.519.067-.387.148-.755.663-.4.682.6.812.593,1.657-.053a.73.73,0,0,1,.448-.171A.281.281,0,0,1,34.655,104.758Z" transform="translate(-26.95 -89.951)" fill="#ff8282"/>
    <path id="Path_1363" data-name="Path 1363" d="M60.5,107.668c-.1-.217-.094-.4.157-.5a.853.853,0,0,1,.651.534,4.2,4.2,0,0,1-.59,2.237c.471-.049.76,0,.738.7a2.65,2.65,0,0,1-.832,1.787.852.852,0,0,1-.017.228c-.092.211-.225.324-.455.171a.878.878,0,0,1-.015-1,1,1,0,0,0-.145-1.4c.1-.757.713-1.3.842-2.046C60.89,108.028,61.071,107.68,60.5,107.668Z" transform="translate(-50.414 -92.074)" fill="#ff8282"/>
    <path id="Path_1364" data-name="Path 1364" d="M34.246,116.32a.982.982,0,0,0,1.214.341,1.652,1.652,0,0,1,1.144.055c.143.251,1.023-.143.563.638a1.04,1.04,0,0,0-1.037.481c-.8-.269-1.686.252-2.45-.3.031-.159.155-.251.252-.365C34.185,116.947,34.031,116.564,34.246,116.32Z" transform="translate(-28.597 -99.664)" fill="#ff8282"/>
    <path id="Path_1365" data-name="Path 1365" d="M48.005,91.165l-.2-.1c-.1-.479.244-.59.571-.568s0-.215.135-.23c.315-.051.728-.058.259-.512-.327-.312-.682-.6-.641-1.124.014-.171.065-.372.239-.408.227-.048.256.184.271.341a1.231,1.231,0,0,0,.853,1.044.857.857,0,0,1-.672,1.194A7.1,7.1,0,0,0,48.005,91.165Z" transform="translate(-40.3 -76.358)" fill="#ff8282"/>
    <path id="Path_1366" data-name="Path 1366" d="M41.326,109.752l-.171-.009c-.271-.3-.718-.034-1-.312.454-.28,1.149-.157,1.39-.812l.3.1c.21.022.5-.036.544.242.038.249-.257.21-.409.3a7.759,7.759,0,0,0-.662.486Z" transform="translate(-33.972 -93.277)" fill="#ff8282"/>
    <path id="Path_1367" data-name="Path 1367" d="M25.71,117l-.409.171c-.2,0-.23.153-.263.3l-.529-.341c-.35-.353-1.061-.43-.905-1.171.418-.171.878.408,1.279-.073a.24.24,0,0,1,.2.073c.116.184.073.421.2.6C25.381,116.755,25.624,116.8,25.71,117Z" transform="translate(-20.221 -99.301)" fill="#ff8282"/>
    <path id="Path_1368" data-name="Path 1368" d="M52.591,131.191l.614-.411c.211.361-.078.624-.092.921-.171.249-.385.472-.665.188C52.2,131.638,52.32,131.379,52.591,131.191Z" transform="translate(-44.054 -111.659)" fill="#ff8282"/>
    <path id="Path_1369" data-name="Path 1369" d="M47.716,121.055c-.249-.6.363-.578.61-.776s.38.048.426.3A1.06,1.06,0,0,1,47.716,121.055Z" transform="translate(-40.191 -102.888)" fill="#ff8282"/>
    <path id="Path_1370" data-name="Path 1370" d="M52.593,191.348c.075.409-.051.609-.5.476-.07-.244-.246-.512-.191-.725.21-.82-.263-1.248-.836-1.645,0-.4,0-.4.682-.159a3.635,3.635,0,0,0,.58.329c.38.136.546.314.2.651C52.137,190.663,52.252,191.009,52.593,191.348Z" transform="translate(-43.022 -160.059)" fill="#ff8282"/>
    <path id="Path_1371" data-name="Path 1371" d="M45.828,182.687c-.2.148-.549-.315-.682.159a4.88,4.88,0,0,1-1.194-1.182c-.046-.361.061-.571.474-.479C44.653,181.916,45.331,182.22,45.828,182.687Z" transform="translate(-37.109 -153.451)" fill="#ff8282"/>
    <path id="Path_1372" data-name="Path 1372" d="M29.373,188.22c-.406-.1-.887-.121-1.037-.65a.188.188,0,0,1,.268-.21c.45.191,1.023.234,1.3.631C30.033,188.176,29.6,188.183,29.373,188.22Z" transform="translate(-24.161 -158.575)" fill="#ff8282"/>
    <path id="Path_1373" data-name="Path 1373" d="M160,118.848c.757.1.984-.474,1.146-1.006.07-.235-.034-.512.331-.512s.4.225.392.5c-.414.392-.67.905-1.071,1.325s.288.8.406,1.224a1.917,1.917,0,0,1-.022.2A1.7,1.7,0,0,1,160,118.848Z" transform="translate(-133.378 -100.502)" fill="#ff8282"/>
    <path id="Path_1374" data-name="Path 1374" d="M47.728,164.781l.046.266c-.032.22-.012.46-.246.6-.425-.416-.431-1-.617-1.519-.06-.162-.1-.425.179-.462.215-.031.341.14.414.341C47.592,164.256,47.5,164.57,47.728,164.781Z" transform="translate(-39.537 -138.931)" fill="#ff8282"/>
    <path id="Path_1375" data-name="Path 1375" d="M74.885,205.278l-.22.283c-.2-.138-.6.529-.665-.171l.523-.341A.4.4,0,0,1,74.885,205.278Z" transform="translate(-62.042 -173.264)" fill="#ff8282"/>
    <path id="Path_1376" data-name="Path 1376" d="M161.056,145.587l-1.17-1.083a1.751,1.751,0,0,1-.822-1.627.4.4,0,0,1,.495-.341c.392.087.853.075,1.023.58.123.331.368.285.67.319.512.058,1.258-.143,1.364.731.024.442-.283.3-.5.268-.171-.027-.312-.252-.524-.1A1.489,1.489,0,0,0,161.056,145.587Z" transform="translate(-132.582 -121.402)" fill="#ff8282"/>
    <path id="Path_1377" data-name="Path 1377" d="M56.212,142.951a1.052,1.052,0,0,0,.525-.626c.5-.218.619.307.926.469a5.658,5.658,0,0,0,.529.437.661.661,0,0,1,.2.418c-.084.609-.479.474-.909.4.428.351.88-.077,1.282.065.341.068.682.141.772-.368a.7.7,0,0,1,.656-.575c.363.131.747.246.646.766a1.983,1.983,0,0,1-1.431,1.946,2.406,2.406,0,0,0-1.431,1.606c-.539-.494-.464-1.173-.682-1.705-.046-.114.14-.324-.1-.406a.317.317,0,0,0-.237.038.283.283,0,0,0-.121.426c.107.182.353.414,0,.532-.244.084-.249-.244-.329-.4A3.908,3.908,0,0,1,56.212,142.951Z" transform="translate(-47.142 -121.192)" fill="#ff8282"/>
    <path id="Path_1378" data-name="Path 1378" d="M64.806,142.633a.853.853,0,0,1-.512-.341c-.171-.377-.251-.718.305-.822.341.672.883.113,1.321.2a.261.261,0,0,1,.145.171.638.638,0,0,1-.111.314c.094,0,.145-.1.237-.113.293-.046.6-.234.853.094.143.484.853.57.834,1.166l-.295-.036c-.087-.379-.275-.646-.709-.643C66.185,142.988,65.5,143.3,64.806,142.633Z" transform="translate(-53.886 -120.526)" fill="#ff8282"/>
    <path id="Path_1379" data-name="Path 1379" d="M89.259,155.814l-.341.159H87.592c-.252,0-.512.017-.512-.356A2.885,2.885,0,0,1,89.259,155.814Z" transform="translate(-72.892 -132.163)" fill="#ff8282"/>
    <path id="Path_1380" data-name="Path 1380" d="M89.234,155.279l-2.184-.2c.232-.3.568-.094.853-.17a1.8,1.8,0,0,1,1.35.186h0c.066.026.092.058.075.094s-.036.058-.056.058Z" transform="translate(-72.867 -131.629)" fill="#ff8282"/>
    <path id="Path_1381" data-name="Path 1381" d="M93.261,154.457l-1.352-.186a.53.53,0,0,0-.019-.155C92.362,154.17,92.932,153.863,93.261,154.457Z" transform="translate(-76.882 -130.989)" fill="#ff8282"/>
    <path id="Path_1382" data-name="Path 1382" d="M81.217,198.282c-.171-.293-.249-.58-.014-.842.031-.032.2-.014.217.024C81.558,197.772,81.374,198.022,81.217,198.282Z" transform="translate(-67.895 -166.938)" fill="#ff8282"/>
    <path id="Path_1383" data-name="Path 1383" d="M69.222,191.609c-.171-.017-.365,0-.489-.162-.121-.37.118-.389.379-.387l.152.16C69.3,191.355,69.418,191.5,69.222,191.609Z" transform="translate(-57.646 -161.659)" fill="#ff8282"/>
    <path id="Path_1384" data-name="Path 1384" d="M10.263,75.967c-.435.839-.9.544-1.364.034-.292.036-.263-.126-.193-.312a1.341,1.341,0,0,0-.13-.742c-.056-.2.068-.512-.223-.585-.333-.087-.418.194-.512.442-.048.131-.124.28-.3.22a.464.464,0,0,1-.331-.454,10.485,10.485,0,0,1-.1-2.1c.189-.866.211-1.744-.825-2.249-.469-.23-.674-1.937-.346-2.345.135-.171.29-.2.358.044s.08.512.394.592c.053.114.107.229.16.341a9.22,9.22,0,0,1,1.038,1.2.742.742,0,0,0,1.1.249.706.706,0,0,0,.171-1.044,3.323,3.323,0,0,0-.634-1.071h0c.017-.542.131-.573.757-.208a1.2,1.2,0,0,1,.189.194,5.82,5.82,0,0,0,.893,1.1c.452.367.256.94.286,1.432a4.985,4.985,0,0,1-.145.912,4.355,4.355,0,0,1-.058.788c-.44.711-.032,1.472-.121,2.2a1.436,1.436,0,0,0,.2.957C10.745,75.842,10.535,75.967,10.263,75.967Z" transform="translate(-5.456 -59.366)" fill="#ff8282"/>
    <path id="Path_1385" data-name="Path 1385" d="M133.5,144.067c.3.385.312.955.795,1.219.191.607.718.967,1.084,1.444.188.244.341.442.126.728a.861.861,0,0,1-1.226-.416,1.33,1.33,0,0,0-.776-.607c-.368-.384-.8-.235-1.226-.145h0l-.454.119a2.584,2.584,0,0,0-2.914-1.115c-.459-.089-.222-.317-.046-.418a9.749,9.749,0,0,1,1.047-.462c.213-.2.465-.1.713-.116a1.616,1.616,0,0,0,1.294-.462C132.637,142.979,132.923,143.025,133.5,144.067Z" transform="translate(-107.365 -121.99)" fill="#ff8282"/>
    <path id="Path_1386" data-name="Path 1386" d="M139.659,134.017a5.99,5.99,0,0,0-.512-.544c-.218-.171-.527-.247-.65.053-.5,1.221-1.477.975-2.428.839v-.171c.418-.4.97-.155,1.439-.3.315-.16.319-.455.322-.75a.556.556,0,0,1,.084-.211c.329-.355.994-.428.934-1.11.162-.353.619-.273.822-.563a.431.431,0,0,1,.152-.142l1.038,1.291c-.261.188-.477-.107-.714-.041-.152-.126-.305-.251-.459-.375a.3.3,0,0,0-.489.341Q139.426,133.171,139.659,134.017Z" transform="translate(-113.528 -111.941)" fill="#ff8282"/>
    <path id="Path_1387" data-name="Path 1387" d="M127,140.856a2.864,2.864,0,0,1-1.693.157c-.426-.281-.723-.087-1,.251a1.427,1.427,0,0,1-1.209.634l1.671-1.255c.126-.094.046-.2.02-.3a.379.379,0,0,1,.368-.148c.749.131-.121-.271.1-.309.111-.171.341-.228.39-.454a.6.6,0,0,1,.331-.087c.438.065,1-.171,1.206.479l-.014.179C126.76,140.22,126.954,140.554,127,140.856Z" transform="translate(-102.762 -118.765)" fill="#ff8282"/>
    <path id="Path_1388" data-name="Path 1388" d="M99.883,154.684a.232.232,0,0,1-.019-.152,4.326,4.326,0,0,0,2.612-.239,4.011,4.011,0,0,1,1.335-.1C102.519,154.465,101.288,155.255,99.883,154.684Z" transform="translate(-83.492 -131.066)" fill="#ff8282"/>
    <path id="Path_1389" data-name="Path 1389" d="M31.915,168.054c-.81-.472-.812-.484-.189-.844.048.28.324.377.457.573C32.389,168.076,32.256,168.2,31.915,168.054Z" transform="translate(-26.607 -141.877)" fill="#ff8282"/>
    <path id="Path_1390" data-name="Path 1390" d="M150,159.319c.275-.355.726-.193,1.086-.341.413-.171.019.324.14.479a3.174,3.174,0,0,0-1.226-.138Z" transform="translate(-125.083 -135.019)" fill="#ff8282"/>
    <path id="Path_1391" data-name="Path 1391" d="M101,209.475c.384-.411.384-.411,1.194-.124a3.059,3.059,0,0,1-1.194.126Z" transform="translate(-84.438 -176.664)" fill="#ff8282"/>
    <path id="Path_1392" data-name="Path 1392" d="M131.912,202.8c.135-.034.266-.078.4-.1.179-.032.341-.261.53-.094a.341.341,0,0,1,.017.3c-.114.252-.353.237-.58.208a.53.53,0,0,1-.372-.312Z" transform="translate(-110.078 -171.187)" fill="#ff8282"/>
    <path id="Path_1393" data-name="Path 1393" d="M61.5,138.8c-.544-.07-.558.288-.539.67-.329-.14-.437-.563-.818-.633.048-.128.094-.257.14-.385a.44.44,0,0,0,.4-.319,2.82,2.82,0,0,1,2.217.341.24.24,0,0,1-.109.22C62.357,138.736,61.953,139.094,61.5,138.8Z" transform="translate(-50.545 -117.701)" fill="#ff8282"/>
    <path id="Path_1394" data-name="Path 1394" d="M98.209,107.915v.512a.492.492,0,0,0,.682.019.341.341,0,0,1,.457.056c.171.17.131.341.041.537a.975.975,0,0,1-.643.614c-.215.055-.447.066-.593.271a.867.867,0,0,1-1.284-.032,1.328,1.328,0,0,0-.682-.3.7.7,0,0,1-.6-.795c.065-.477.4-.319.709-.206s.408-.106.45-.341a3.113,3.113,0,0,0,.01-.512c.01-1.113.2-1.267,1.315-1.037C98.516,107.062,98.318,107.493,98.209,107.915Z" transform="translate(-79.942 -91.612)" fill="#ff8282"/>
    <path id="Path_1395" data-name="Path 1395" d="M100.354,68.157c-.416.109-.743.1-.648-.481a1.391,1.391,0,0,0-.082-1.148c-.116-.228-.315-.484-.109-.7a.68.68,0,0,1,.842-.017h0a1.413,1.413,0,0,0,.827-.029c.682-.153.98.17.813.822-.014.055-.066.107-.061.157C102.038,67.95,101.4,68.291,100.354,68.157Z" transform="translate(-83.132 -57.658)" fill="#ff8282"/>
    <path id="Path_1396" data-name="Path 1396" d="M140.018,117.061l-.026.2a.539.539,0,0,1-.648-.389c-.171-.394-.443-.317-.738-.275a1.182,1.182,0,0,0-1.77-.09c-.147.09-.295.181-.464.046a.443.443,0,0,1,.053-.491c.06-.22.119-.442.181-.663.252-.425.663-.725.916-1.151.512-.2.837.1,1.132.45A17.331,17.331,0,0,0,140.018,117.061Z" transform="translate(-113.737 -97.889)" fill="#ff8282"/>
    <path id="Path_1397" data-name="Path 1397" d="M64.325,104.33c-.651,1.444.153,2.387,1.136,3.264l.215.467a4.877,4.877,0,0,1,.232,1.818c-.058.426-.206.783-.761.563a4.791,4.791,0,0,1-2.162-.293l-.065-.055c.38-.431.873-.725,1.09-1.349.116-.332.583-.066.75.293.118.252-.058.57.171.8a1.723,1.723,0,0,0-.22-2.251,2.824,2.824,0,0,1-.928-2.188C63.74,104.93,63.568,104.395,64.325,104.33Z" transform="translate(-52.851 -89.719)" fill="#ff8282"/>
    <path id="Path_1398" data-name="Path 1398" d="M110.86,113.574c.227-.319.7-.189.929-.512.131-.188.295-.39.171-.609-.171-.283-.322,0-.477.065-.307.128-.554.131-.6-.286.136-.022.392-.039.394-.07.08-1.364,1.11-.853,1.831-.938h.171c.09.3-.251.39-.317.629.3.06.481-.252.759-.239a.494.494,0,0,1,.455.35.732.732,0,0,0,.022.119.316.316,0,0,1-.1.208c-.217.072-.466-.058-.668.106-.648.622-.89-.049-1.245-.472.082,1.229-.124,1.524-1.12,1.705a.13.13,0,0,1-.206-.056Z" transform="translate(-92.617 -95.415)" fill="#ff8282"/>
    <path id="Path_1399" data-name="Path 1399" d="M99.8,93.322c-.259-.278-.368-.6-.053-.876a2.137,2.137,0,0,0,.512-.965c.317.247.409.853,1,.312.208-.189.512.559.8.853s.111.643-.2.871c-.254.186-.629.246-.742-.048-.259-.682-.464-.031-.682-.02C100.279,93.125,100.113,92.853,99.8,93.322Z" transform="translate(-83.241 -79.06)" fill="#ff8282"/>
    <path id="Path_1400" data-name="Path 1400" d="M97.678,109.12l.21.049a.966.966,0,0,1-1.586.189,1.477,1.477,0,0,0-.7-.234.878.878,0,0,1-.6-1.141c.1-.5.416-.4.779-.213s.361-.14.375-.351c.017-.309-.039-.622,0-.928.07-.59.571-.791,1.376-.585a.123.123,0,0,1-.017.213c-1.069-.106-1.139-.031-1.132,1.044,0,.544.072,1.161-.853.81-.425-.16-.365.22-.269.459A2.326,2.326,0,0,0,97.678,109.12Z" transform="translate(-79.435 -90.962)" fill="#ff8282"/>
    <path id="Path_1401" data-name="Path 1401" d="M132.506,89.873c-.276-.409-.512-.853-1.148-.743-.322.053-.39-.263-.471-.494-.121-.341-.211-.762.106-1.006.247-.191.445-.527.834-.512a.479.479,0,0,1,.038.479c-.261.827-.068,1.113.832,1.132.4,0,.682.046.622.539a1.785,1.785,0,0,0-.217.7.269.269,0,0,1-.235.2Z" transform="translate(-109.137 -75.441)" fill="#ff8282"/>
    <path id="Path_1402" data-name="Path 1402" d="M74.965,137.691a7.374,7.374,0,0,1-.9.123c-.665.012-.217-.273-.111-.464.489-.588,1.342-.512,1.876-1.033l.171-.155c.228,0,.523-.193.629.171.077.263-.171.368-.326.525A9.3,9.3,0,0,1,74.965,137.691Z" transform="translate(-61.799 -116.08)" fill="#ff8282"/>
    <path id="Path_1403" data-name="Path 1403" d="M142.982,104.388l.171-.138c.479.17.853.59,1.378.663l.283.2c-.01.218.171.58-.341.416-.188-.061-.355-.391-.571-.135s0,.46.143.682a1.4,1.4,0,0,1,.13.387,2.016,2.016,0,0,0-1.194-.331,1.8,1.8,0,0,1,.171-.853C143.3,104.941,142.957,104.7,142.982,104.388Z" transform="translate(-119.259 -89.652)" fill="#ff8282"/>
    <path id="Path_1404" data-name="Path 1404" d="M104.87,67.724c.039-.041.085-.119.116-.114,1.194.223,1.223-.631,1.407-1.432.159-.692-.133-.81-.682-.716-.293.049-.585.261-.834-.08.411-.072.822-.157,1.236-.213.527-.07.745.2.638.694a4.576,4.576,0,0,0-.276,1.634c.036.273-.292.368-.554.4h-.148C105.5,67.657,105.163,67.812,104.87,67.724Z" transform="translate(-87.648 -57.225)" fill="#ff8282"/>
    <path id="Path_1405" data-name="Path 1405" d="M130.352,128.612c.155.416-.171.351-.389.382-.358.2-.624-.048-.914-.186-.171-.133-.329-.266-.247-.512l.186-.043c.31.135.431.107.535-.3.147-.568-.055-1.248.483-1.705.223.452.024.924.075,1.383C129.968,128.013,130.4,128.254,130.352,128.612Z" transform="translate(-107.481 -107.901)" fill="#ff8282"/>
    <path id="Path_1406" data-name="Path 1406" d="M129.93,105.122l.024-.189a.435.435,0,0,1,.135-.094c1.142-.5,1.194-1.084.171-1.956.377-.621.682.063,1.023.06q.159.33.321.66c.377.742-.109,1.221-.564,1.654A.712.712,0,0,1,129.93,105.122Z" transform="translate(-108.435 -88.302)" fill="#ff8282"/>
    <path id="Path_1407" data-name="Path 1407" d="M79.115,106.36c.285.171.322.578.665.7.418.476,1.023.171,1.552.39-.259.131-.483.278-.522.575l-.315.215a1.248,1.248,0,0,0-1.482-.624c-.211-.268-.45-.092-.682-.041a.45.45,0,0,1-.206-.532C78.308,106.611,78.751,106.549,79.115,106.36Z" transform="translate(-65.451 -91.402)" fill="#ff8282"/>
    <path id="Path_1408" data-name="Path 1408" d="M76.707,128.1a3.444,3.444,0,0,1-1.876,1.033l-.056-.073c-.043-.171.2-.171.182-.327a.482.482,0,0,1,.015-.147.716.716,0,0,0,.651-.887c-.049-.5-.082-1-.123-1.494a1.526,1.526,0,0,1,.317,1.272C75.737,128.287,76.017,128.461,76.707,128.1Z" transform="translate(-62.681 -107.868)" fill="#ff8282"/>
    <path id="Path_1409" data-name="Path 1409" d="M126.637,109.889c1.05.379,1.645-.171,1.666-1.519a.978.978,0,0,1-.1,1.407c-.4.443-.783.853-1.431.43a1.444,1.444,0,0,0-.817-.157C126.137,109.785,126.407,109.922,126.637,109.889Z" transform="translate(-105.142 -93.07)" fill="#ff8282"/>
    <path id="Path_1410" data-name="Path 1410" d="M115.5,129.271c-.186.171-.375.326-.559.493-.324.293-.587.269-.778-.145l.984-.87a.368.368,0,0,1,.512.029C115.778,128.946,115.623,129.127,115.5,129.271Z" transform="translate(-95.354 -109.901)" fill="#ff8282"/>
    <path id="Path_1411" data-name="Path 1411" d="M101,98.112c0-.109.017-.22.017-.331,0-.273.058-.544.385-.525s.309.341.309.58a2.156,2.156,0,0,1-.075.409A.544.544,0,0,1,101,98.112Z" transform="translate(-84.438 -83.85)" fill="#ff8282"/>
    <path id="Path_1412" data-name="Path 1412" d="M99.808,65.135c-.653-.048-1.052.027-.573.824A1.08,1.08,0,0,1,99.157,67c-.113-.28.055-.616-.171-.873h0c-.032-.106-.06-.215-.1-.315-.119-.295-.225-.643.06-.841a.617.617,0,0,1,.863.169Z" transform="translate(-82.583 -56.978)" fill="#ff8282"/>
    <path id="Path_1413" data-name="Path 1413" d="M87.352,80c0,.1-.01.2-.017.3l-.341.341c-.4.051-.793.428-1.214.053C86.2,80.232,86.619,79.771,87.352,80Z" transform="translate(-71.813 -69.489)" fill="#ff8282"/>
    <path id="Path_1414" data-name="Path 1414" d="M139.073,110.26c.147.324-.1.573-.171.853a1.914,1.914,0,0,1-.853,1.023Q138.553,111.2,139.073,110.26Z" transform="translate(-115.171 -94.637)" fill="#ff8282"/>
    <path id="Path_1415" data-name="Path 1415" d="M92.82,104.561c0,.181-.039.375-.235.392s-.353-.17-.4-.363a.271.271,0,0,1,.252-.358.31.31,0,0,1,.387.329Z" transform="translate(-77.11 -89.629)" fill="#ff8282"/>
    <path id="Path_1416" data-name="Path 1416" d="M118.7,104.652a.3.3,0,0,1-.341.295c-.268,0-.326-.191-.3-.408s.188-.273.373-.247a.3.3,0,0,1,.266.36Z" transform="translate(-98.584 -89.683)" fill="#ff8282"/>
    <path id="Path_1417" data-name="Path 1417" d="M120.283,128.748c.135-.341.055-.544-.353-.522.056-.066.113-.131.171-.2.257.046.648-.089.721.24S120.575,128.707,120.283,128.748Z" transform="translate(-100.14 -109.377)" fill="#ff8282"/>
    <path id="Path_1418" data-name="Path 1418" d="M109.87,106.5c0-.072.012-.143.017-.213.713.368.522.853.171,1.364C109.954,107.272,110.2,106.841,109.87,106.5Z" transform="translate(-91.796 -91.344)" fill="#ff8282"/>
    <path id="Path_1419" data-name="Path 1419" d="M134.809,126.905c-.142-.532.143-1.023.171-1.535l.171-.171.024.527a1.137,1.137,0,0,1-.123,1.161.171.171,0,0,1-.242.017Z" transform="translate(-112.45 -107.03)" fill="#ff8282"/>
    <path id="Path_1420" data-name="Path 1420" d="M156,90.812l.171-.512c.229.02.493.09.423.353S156.244,90.931,156,90.812Z" transform="translate(-130.06 -78.081)" fill="#ff8282"/>
    <path id="Path_1421" data-name="Path 1421" d="M176.027,71.632a19.765,19.765,0,0,0-2.007,2.408,10.353,10.353,0,0,1-1.511,2.046c-.206.3-.493.084-.682-.15a1.651,1.651,0,0,0-2.387.682h0c-.341.609-.1,1.262-.143,1.893h0a1.525,1.525,0,0,1,.031-2.425c1.794-1.3,3.6-2.59,5.4-3.895a7.379,7.379,0,0,0,.682-.627l.984-.624Z" transform="translate(-140.604 -62.022)" fill="#ff8282"/>
    <path id="Path_1422" data-name="Path 1422" d="M181.976,91.056a.669.669,0,0,0,.9-.283c.39-.566.863-1.078,1.3-1.613a1.519,1.519,0,0,0,.029.213c-.015.1-.029.194-.043.292a2.292,2.292,0,0,0-.83,1.04,19.745,19.745,0,0,0-2.365,2.919c0-.082-.041-.2,0-.244C181.591,92.732,181.419,91.736,181.976,91.056Z" transform="translate(-150.75 -77.135)" fill="#ff8282"/>
    <path id="Path_1423" data-name="Path 1423" d="M21.59,51.265a.612.612,0,0,0,0-.124.442.442,0,0,0,.075-.1c.791.28,1.071.648,1.011,1.412-.034.419-.08.841-.123,1.26-.089.3.024.8-.578.6l-.02.015c-.481-.317-.44-.957-.824-1.333a.733.733,0,0,1,.645-.887c.2-.044.425-.065.193-.341C21.757,51.661,21.511,51.584,21.59,51.265Z" transform="translate(-18.181 -45.515)" fill="#ff8282"/>
    <path id="Path_1424" data-name="Path 1424" d="M12.374,71.2c.211.329.414.668.641.987s.494.549.905.263c.621-.251.355-.672.254-1.108-.087-.368-.382-.61-.457-.965a1.768,1.768,0,0,1,.853,1.535c.077.465-.249.713-.633.9a.7.7,0,0,1-.914-.228,5.291,5.291,0,0,1-.994-1.545Z" transform="translate(-10.639 -61.558)" fill="#ff8282"/>
    <path id="Path_1425" data-name="Path 1425" d="M20.165,60.424c.281-.02.23-.471.645-.428a1.7,1.7,0,0,0,.179,1.761c-.228.019-.469-.667-.682.01C19.728,61.372,20.021,60.891,20.165,60.424Z" transform="translate(-17.218 -52.942)" fill="#ff8282"/>
    <path id="Path_1426" data-name="Path 1426" d="M22.463,52.36l.375.5a.44.44,0,0,1-.631-.171C22.1,52.493,22.282,52.4,22.463,52.36Z" transform="translate(-19.055 -46.61)" fill="#ff8282"/>
    <path id="Path_1427" data-name="Path 1427" d="M23.159,41.931a1.993,1.993,0,0,1,.024-.75c.372-.853-.046-1.378-.665-1.853a2.877,2.877,0,0,1-.159-2.408c1.221,1.83,1.6,4.121,3.221,5.724.234-.924.617-1.023,1.364-.367.928.827.943.928.333,2.263a.2.2,0,0,1-.123-.106c-.145-.474-.616-.585-1.09-.256a1.039,1.039,0,0,1-1.035.038c-.208-.22-.435-.423-.636-.651a1.078,1.078,0,0,1-.218-.912c-.055.031-.029.087-.055.123a.37.37,0,0,1-.45.3C23.106,42.861,23.4,42.283,23.159,41.931Z" transform="translate(-19.045 -33.803)" fill="#ff8282"/>
    <path id="Path_1428" data-name="Path 1428" d="M33.759,73.628c.512-.053,1.163.113,1.131-.761,0-.051.188-.171.251-.152.305.1.07.472.317.653.438-.089.261-.605.544-.9.447.556-.251,1.073.022,1.559a.107.107,0,0,1-.032.111c-.295.239-.982-.667-1.011.341a2.092,2.092,0,0,1-.512.658c-.653.257-.181.882-.585,1.245.474.114.641-.24.931-.206l.171.331c.017.327.171.512.512.512l.5.186c.106.073.3.145.3.223,0,.208-.194.077-.3.109-.286.084-.587.133-.708.465l-.317.235c-.537.389-1.074.766-1.722.208-.2-.425-.721-.728-.484-1.311a2.227,2.227,0,0,0,.341-1.345,2.751,2.751,0,0,1,.131-.36,2.872,2.872,0,0,0,.133-1.076C33.4,74.066,33.32,73.7,33.759,73.628Z" transform="translate(-27.789 -63.291)" fill="#ff8282"/>
    <path id="Path_1429" data-name="Path 1429" d="M77.668,70.317l-1.567.706-.82-.2c-.639-.317-.658-1.093-1.134-1.535a.551.551,0,0,1,.026-.474.309.309,0,0,1,.2-.106c.171-.056.259.37.464.07a.278.278,0,0,1,.085-.171c.5-.184,1.139.251,1.552-.341.8-.053,1.177.341,1.194,1.125C77.668,69.708,77.668,70.011,77.668,70.317Z" transform="translate(-62.13 -59.801)" fill="#ff8282"/>
    <path id="Path_1430" data-name="Path 1430" d="M65.138,88.219c-.57.23-.321.759-.418,1.159-.171.09-.171-.143-.3-.136L63.9,88.7c.682-.65.476-1.569.713-2.353l.171-.184c.2-.2.113-.484.2-.718.194-.512.484-.75.986-.312h0c.09.106.281.171.143.365a1.34,1.34,0,0,0-.254.184,2.232,2.232,0,0,1,.367-.251c.23.02.4.2.636.223.546.063.749.3.3.75-.244.244-.078.539-.171.8A2.367,2.367,0,0,0,65.138,88.219Z" transform="translate(-53.664 -73.608)" fill="#ff8282"/>
    <path id="Path_1431" data-name="Path 1431" d="M71.549,73.785c.37.188.813.332.648.89-.109.37.457.31.375.643a4.245,4.245,0,0,1-1.732-1.328l.067-.073C71.092,73.735,71.283,73.565,71.549,73.785Z" transform="translate(-59.421 -64.295)" fill="#ff8282"/>
    <path id="Path_1432" data-name="Path 1432" d="M76.171,86.571c-.055-.116-.109-.234-.171-.351.37.142.731.312,1.11.416.435.119.527.373.4.762-.559.084.022.783-.484.9a1.09,1.09,0,0,1-.145-.382c.029-.8-.015-.9-.716-1.339Z" transform="translate(-63.701 -74.697)" fill="#ff8282"/>
    <path id="Path_1433" data-name="Path 1433" d="M70.181,84.178c-.525-.171-.842-.038-.853.561,0,.235-.038.442-.331.469a1.381,1.381,0,0,1,.237-1.073C69.64,83.583,69.884,83.655,70.181,84.178Z" transform="translate(-57.871 -72.65)" fill="#ff8282"/>
    <path id="Path_1434" data-name="Path 1434" d="M133.977,65.05l.633-.552c.472-.063.945-.3,1.412.012.184.211.8.315.332.713-.609.512-.984,1.269-1.717,1.647a.934.934,0,0,1-.307-1.171.621.621,0,0,1,.1-.121c.082-.078,0,.049.066-.044-.031,0-.044.02-.072.029a.459.459,0,0,1-.467-.365A1.425,1.425,0,0,0,133.977,65.05Z" transform="translate(-111.778 -56.557)" fill="#ff8282"/>
    <path id="Path_1435" data-name="Path 1435" d="M146.947,44.59a2.747,2.747,0,0,1,.5-2.034c.292-.327.4-.114.476.171a.592.592,0,0,1-.413.791c.063.341.662.148.559.7C147.9,45.124,147.9,45.158,146.947,44.59Z" transform="translate(-122.516 -38.341)" fill="#ff8282"/>
    <path id="Path_1436" data-name="Path 1436" d="M133.677,87.815c-.014-.16-.031-.481-.152-.411-.965.544-1.286-.57-2.176-.7a1.59,1.59,0,0,0,.962-1.12c.917-.532.917-.532,1.524.907-.036.431.394.726.341,1.163C134.044,87.837,133.889,87.926,133.677,87.815Z" transform="translate(-109.613 -73.898)" fill="#ff8282"/>
    <path id="Path_1437" data-name="Path 1437" d="M129.554,104.15c.464.038.911.1,1.054.655.171.658-.425,1-.658,1.485-.109.228-.448-.114-.7-.09h0a2.625,2.625,0,0,1-.036-1.714Z" transform="translate(-107.734 -89.569)" fill="#ff8282"/>
    <path id="Path_1438" data-name="Path 1438" d="M121.753,111.488c-.182.133-.363.269-.547.4-.123.089-.206.341-.406.171-.171-.143-.36-.315-.327-.563s.261-.159.416-.184a.433.433,0,0,0,.373-.3.2.2,0,0,1,.116-.041C121.911,110.84,121.94,111.084,121.753,111.488Z" transform="translate(-100.587 -95.197)" fill="#ff8282"/>
    <path id="Path_1439" data-name="Path 1439" d="M126.175,107.478c.024-.281-.051-.493-.375-.525l.7-.853c.341.564,0,1.142.036,1.714Z" transform="translate(-105.009 -91.187)" fill="#ff8282"/>
    <path id="Path_1440" data-name="Path 1440" d="M44.96,96.692a1.326,1.326,0,0,0-.234.09c-.16.1-.1.546-.445.324-.29-.188-.186-.416.046-.619.073-.065.08-.2.116-.307Z" transform="translate(-37.244 -82.958)" fill="#ff8282"/>
    <path id="Path_1441" data-name="Path 1441" d="M60.31,47.714h-.123a1.776,1.776,0,0,1,.3-1.364A.827.827,0,0,1,61,46.52c-.067.356.181.587.341.853h-.048C60.992,47.6,60.615,47.557,60.31,47.714Z" transform="translate(-50.569 -41.625)" fill="#ff8282"/>
    <path id="Path_1442" data-name="Path 1442" d="M62.276,42.384c-.223.1-.459.242-.512-.171V41.8c0-.14-.186-.408.171-.431.244-.015.358.124.363.355S62.276,42.154,62.276,42.384Z" transform="translate(-51.853 -37.489)" fill="#ff8282"/>
    <path id="Path_1443" data-name="Path 1443" d="M121.935,69.421a3.338,3.338,0,0,0,.16,1.333l-.373.341c-.491.292-1.079.188-1.611.428-.428.194-.841-.293-1.066-.667a1.376,1.376,0,0,1,.044-1.518.785.785,0,0,1,1.069-.171c.483.283.853.061,1.26-.087.257-.017.341.235.512.341Z" transform="translate(-99.235 -60.442)" fill="#ff8282"/>
    <path id="Path_1444" data-name="Path 1444" d="M61,52.186c.1-.767.629-.3.982-.341a4.042,4.042,0,0,0,.789,1.378c.466.474.351,1.153.6,1.705.048.022.067.049.06.082s-.02.053-.032.053v.527l-.643.131A10.46,10.46,0,0,1,61.2,53.148,2.667,2.667,0,0,1,61,52.186Z" transform="translate(-51.259 -46.097)" fill="#ff8282"/>
    <path id="Path_1445" data-name="Path 1445" d="M74.917,68.981a.341.341,0,0,0-.027-.135c.22-.714.457-.017.682,0,.012.049.024.1.032.148.077.128.106.292-.039.341-.263.092-.353-.182-.512-.31A.827.827,0,0,0,74.917,68.981Z" transform="translate(-62.78 -60.019)" fill="#ff8282"/>
    <path id="Path_1446" data-name="Path 1446" d="M43,84.948c.063-.3.124-.607.512-.658C43.726,84.8,43.43,84.923,43,84.948Z" transform="translate(-36.328 -73.096)" fill="#ff8282"/>
    <path id="Path_1447" data-name="Path 1447" d="M143.041,99.431l.5-.171h.017c.171.483.206,1.023.658,1.364a.194.194,0,0,1,.041.145c-.708.295-1.095-.077-1.378-.663C142.684,99.828,142.382,99.516,143.041,99.431Z" transform="translate(-118.976 -85.513)" fill="#ff8282"/>
    <path id="Path_1448" data-name="Path 1448" d="M148.578,100.654c-.713-.218-.691-.791-.658-1.364C148.307,99.662,148.339,100.207,148.578,100.654Z" transform="translate(-123.347 -85.538)" fill="#ff8282"/>
    <path id="Path_1449" data-name="Path 1449" d="M30.717,95.838c-.211.525.2.9.326,1.347-.063.077-.119.07-.171-.012-.077-.072-.171-.215-.228-.2-.23.049-.063.281-.148.411-.06.056-.106.043-.138-.031.026-.385-.222-.682-.309-1.033a1.238,1.238,0,0,1,.315-1.177c.2-.07.331.034.428.2A.605.605,0,0,1,30.717,95.838Z" transform="translate(-25.553 -82.079)" fill="#ff8282"/>
    <path id="Path_1450" data-name="Path 1450" d="M31.733,108.21q.07.014.138.031c-.135.641.512.882.7,1.352.078.367.368.764-.157,1.04-.153-.143-.713.292-.512-.358-.089-.2.046-.469-.171-.639v-.094C32.176,109.1,31.457,108.655,31.733,108.21Z" transform="translate(-26.928 -92.937)" fill="#ff8282"/>
    <path id="Path_1451" data-name="Path 1451" d="M35.07,106.447a.634.634,0,0,0,.171.012c.619.522,1.141,0,1.705-.159C36.2,107.113,35.74,107.149,35.07,106.447Z" transform="translate(-29.75 -91.353)" fill="#ff8282"/>
    <path id="Path_1452" data-name="Path 1452" d="M40.12,113.16c.341.07.82-.293,1,.312C40.768,113.419,40.294,113.777,40.12,113.16Z" transform="translate(-33.939 -97.006)" fill="#ff8282"/>
    <path id="Path_1453" data-name="Path 1453" d="M62.306,110.068c.2-.171.189.116.3.136a2.87,2.87,0,0,0,.941,1.838c.853.682.668,1.611.627,2.5-.019.411-.36.465-.682.431-.37-.039-.327-.341-.3-.581.019-.194.107-.382.109-.573a.321.321,0,0,0-.319-.329c-.171-.014-.312.094-.286.235.16.882-.547.883-1.064,1.081-.512-.16-.232-.31,0-.467.355-.237,1.153-.275.454-1-.034-.034,0-.162.032-.227.1-.191.558-.292.247-.578s-.581.056-.88.244A13.053,13.053,0,0,0,62.306,110.068Z" transform="translate(-51.541 -94.433)" fill="#ff8282"/>
    <path id="Path_1454" data-name="Path 1454" d="M31.482,116.57c.512.089.36.36.171.639C31.13,117.124,31.471,116.814,31.482,116.57Z" transform="translate(-26.675 -99.872)" fill="#ff8282"/>
    <path id="Path_1455" data-name="Path 1455" d="M95.058,138.48a1.262,1.262,0,0,0-.946.3,2.075,2.075,0,0,1-1.8.21c-.633-.206-1.194-.643-1.917-.512a.286.286,0,0,1-.3-.249c-.051-.259.109-.416.293-.566,1.876-1.559,3.045-1.572,4.989-.048.213.171.537.329.425.66C95.677,138.642,95.323,138.464,95.058,138.48Z" transform="translate(-75.383 -116.386)" fill="#ff8282"/>
    <path id="Path_1456" data-name="Path 1456" d="M128.561,140.37l.812.341c.155.317.853.043.72.448s-.616.09-.948.043a1.663,1.663,0,0,0-.244,0c-.234-.249-.65-.2-.841-.512C128.161,140.477,128.381,140.457,128.561,140.37Z" transform="translate(-106.884 -119.613)" fill="#ff8282"/>
    <path id="Path_1457" data-name="Path 1457" d="M124.544,136.734c-.037.312-.268.315-.5.31-.078-.024-.184-.022-.234-.073-.23-.242-.788-.413-.522-.812.31-.467.59.155.907.208Z" transform="translate(-102.867 -115.977)" fill="#ff8282"/>
    <path id="Path_1458" data-name="Path 1458" d="M90,129.238a1.383,1.383,0,0,1,1.386.592c.124.14.292.309.114.512s-.355.087-.512-.051A3.938,3.938,0,0,1,90,129.238Z" transform="translate(-75.314 -110.358)" fill="#ff8282"/>
    <path id="Path_1459" data-name="Path 1459" d="M67.91,148.29a3.678,3.678,0,0,0,2.068,0c-.094.2-.469.171-.414.467.213,1.12-.443.716-.963.561-.38-.082-.445-.38-.481-.7Z" transform="translate(-56.991 -126.183)" fill="#ff8282"/>
    <path id="Path_1460" data-name="Path 1460" d="M62.679,149.652l.481.7c-.491-.094-1.023.355-1.494-.157-.145-.159-.44-.246-.257-.512s.373-.094.539.085C62.243,150.089,62.507,150.135,62.679,149.652Z" transform="translate(-51.55 -127.224)" fill="#ff8282"/>
    <path id="Path_1461" data-name="Path 1461" d="M28.221,68.518c-.31.341-.1.743-.171,1.112-.053.3.189.667-.184.9-.36-.411-.159-.916-.232-1.32-.171.373.341,1.107-.563,1.207a4.841,4.841,0,0,0,.171-1.565c-.022-.36-.08-.626-.491-.754-.512-.171-.377-.808-.721-1.117.512-.029.246-.435.331-.672l.512,1.023c.333.09.7.126.842.523C27.926,68.051,28.38,68.058,28.221,68.518Z" transform="translate(-22.252 -58.182)" fill="#ff8282"/>
    <path id="Path_1462" data-name="Path 1462" d="M32.1,79.857c.512-.2.283-.663.356-1.023s-.128-.723.438-1.144v2.28c-.056.056-.113.114-.171.171-.15.215-.065.546-.341.7l-.3-.155C32.087,80.41,32.094,80.13,32.1,79.857Z" transform="translate(-27.27 -67.621)" fill="#ff8282"/>
    <path id="Path_1463" data-name="Path 1463" d="M134.831,126.358a.764.764,0,0,0,.171-.012,2.2,2.2,0,0,1,1.637-.634.443.443,0,0,0,.493-.341.341.341,0,0,1,.28-.191l.287-.639c.5.341.488,1.069,1.049,1.316.012.145.379.45-.152.355a.962.962,0,0,0-.682.152,1.326,1.326,0,0,1-1.25.305.854.854,0,0,0-.97.573l-.35-.048C135.077,126.973,134.676,126.835,134.831,126.358Z" transform="translate(-112.472 -106.483)" fill="#ff8282"/>
    <path id="Path_1464" data-name="Path 1464" d="M139.825,136.088c-.124-.738.061-.882.759-.795a7.562,7.562,0,0,0,1.461-.084c.341.972-.467.967-1.011,1.185C140.73,135.868,140.176,136.368,139.825,136.088Z" transform="translate(-116.613 -115.333)" fill="#ff8282"/>
    <path id="Path_1465" data-name="Path 1465" d="M144.126,143.533c-.522-.136-.373-.593-.341-.9.019-.179.324.1.512.048C144.731,143.066,144.467,143.31,144.126,143.533Z" transform="translate(-119.891 -121.443)" fill="#ff8282"/>
    <path id="Path_1466" data-name="Path 1466" d="M76.838,103.818c.094.708-.631.358-.853.658a.4.4,0,0,1-.512.063c-.326-.5.171-.732.351-1.064C76.336,103.064,76.585,103.434,76.838,103.818Z" transform="translate(-63.175 -88.86)" fill="#ff8282"/>
    <path id="Path_1467" data-name="Path 1467" d="M82.014,111.951c.512-.6,1-.017,1.472.056.382.058-.01.426.07.645-.319.4-.5.043-.708-.131-.171-.281-.423-.082-.638-.116a.578.578,0,0,1-.4-.259C81.8,112,81.844,111.909,82.014,111.951Z" transform="translate(-68.522 -95.819)" fill="#ff8282"/>
    <path id="Path_1468" data-name="Path 1468" d="M75.944,106.23c.24.012.523-.1.656.223a.65.65,0,0,0-.638.094c-.43.252-.9.481-1.3,0a1.611,1.611,0,0,1-.264-1.666.73.73,0,0,1,.512-.512c-.038.361-.448.6-.341,1C74.87,105.915,75.11,106.544,75.944,106.23Z" transform="translate(-62.272 -89.752)" fill="#ff8282"/>
    <path id="Path_1469" data-name="Path 1469" d="M138.111,126.714c.242.479.171.793-.438.668a1.475,1.475,0,0,0-1.553.512c-.153.181-.2-.036-.237-.16a2.275,2.275,0,0,1,.2-1.168l.341-.2A1.352,1.352,0,0,1,138.111,126.714Z" transform="translate(-113.364 -107.874)" fill="#ff8282"/>
    <path id="Path_1470" data-name="Path 1470" d="M140.763,124.882a6.174,6.174,0,0,0-1.693-.341c.259-.921,1.023-.341,1.523-.46.448-.114.314.384.351.656Z" transform="translate(-116.017 -106.041)" fill="#ff8282"/>
    <path id="Path_1471" data-name="Path 1471" d="M109.508,97.855c-.024.266-.157.45-.419.442s-.3-.222-.3-.431c0-.247.1-.469.365-.476S109.508,97.619,109.508,97.855Z" transform="translate(-90.9 -83.961)" fill="#ff8282"/>
    <path id="Path_1472" data-name="Path 1472" d="M77.414,111.133c-.924.587-1.287.36-1.364-.853h.5c0,.189-.019.389.171.523a.341.341,0,0,1,.341.15A.43.43,0,0,1,77.414,111.133Z" transform="translate(-63.743 -94.654)" fill="#ff8282"/>
    <path id="Path_1473" data-name="Path 1473" d="M80.231,110.976l-.341-.15c0-.319.092-.593.483-.481.312.089.1.307.044.474Z" transform="translate(-66.928 -94.687)" fill="#ff8282"/>
    <path id="Path_1474" data-name="Path 1474" d="M32.482,67.272c-.077-.171-.223-.341-.019-.527a.247.247,0,0,1,.37,0c.2.186.051.355-.022.529a.2.2,0,0,1-.329,0Z" transform="translate(-27.501 -58.474)" fill="#ff8282"/>
    <path id="Path_1475" data-name="Path 1475" d="M46.742,69.494a.239.239,0,0,1-.256.259.273.273,0,0,1-.3-.246.23.23,0,0,1,.2-.305A.324.324,0,0,1,46.742,69.494Z" transform="translate(-38.962 -60.579)" fill="#ff8282"/>
    <path id="Path_1476" data-name="Path 1476" d="M31.4,70.24h.329c-.239.341.227.556.171.868l-.846-.517a.341.341,0,0,0,.346-.351Z" transform="translate(-26.416 -61.441)" fill="#ff8282"/>
    <path id="Path_1477" data-name="Path 1477" d="M33.86,92.767a.871.871,0,0,1,.341-.7c-.08.416.472.982-.292,1.238Z" transform="translate(-28.747 -79.549)" fill="#ff8282"/>
    <path id="Path_1478" data-name="Path 1478" d="M75.88,71.262c.181-.073.4.547.551-.032.133.124.408.293.171.438C76.226,71.892,75.979,71.651,75.88,71.262Z" transform="translate(-63.601 -62.263)" fill="#ff8282"/>
    <path id="Path_1479" data-name="Path 1479" d="M74.033,88.236a.278.278,0,0,1-.036.075c-.152.17-.063.529-.4.564a.171.171,0,0,1-.171-.217.512.512,0,0,1,.6-.425Z" transform="translate(-61.563 -76.359)" fill="#ff8282"/>
    <path id="Path_1480" data-name="Path 1480" d="M136.989,69.021c-.01-.266,0-.527.377-.457a.261.261,0,0,1,.232.358C137.46,69.277,137.214,69.117,136.989,69.021Z" transform="translate(-114.289 -60.042)" fill="#ff8282"/>
  </g>
  <text id="Immunity-2" data-name="Immunity" transform="translate(35 57.336)" fill="#fff" font-size="8" font-family="SegoeUI-Bold, Segoe UI" font-weight="700"><tspan x="-18.281" y="0">Immunity</tspan></text>
  <rect id="Rectangle_1503" data-name="Rectangle 1503" width="70" height="70" fill="none"/>
</svg>
