<svg xmlns="http://www.w3.org/2000/svg" width="76.508" height="73.786" viewBox="0 0 76.508 73.786">
  <g id="Component_181_1" data-name="Component 181 – 1" opacity="0.25">
    <path id="Union_19" data-name="Union 19" d="M7.01,21.614V14.6H0V7.594H7.01V0h7.01V7.594h7.594V14.6H14.02v7.01Z" transform="translate(51.07)" fill="#ff8282"/>
    <path id="Union_20" data-name="Union 20" d="M5.3,16.356v-5.3H0V5.747H5.3V0H10.61V5.747h5.747v5.305H10.61v5.3Z" transform="translate(44.061 16.941)" fill="#ff8282"/>
    <path id="Subtraction_224" data-name="Subtraction 224" d="M51.569,45.1c-2.174,0-2.822-1.6-3.448-3.146-.477-1.176-.927-2.287-2.026-2.548a1.089,1.089,0,0,0-.249-.029,1.74,1.74,0,0,0-1.234.738h0c-.09,0-.342-.014-.747-.014-.29,0-.6,0-.916.014l-.081-1.551h-.421v1.551l-.076,0c-1.31.038-3.288.1-5.012.1a24.163,24.163,0,0,1-2.869-.113,2.212,2.212,0,0,1-1.509-1.081c-.359-.477-.7-.928-1.411-.928a2.058,2.058,0,0,0-.351.033c-2.376,3.043-3.386,3.675-4.978,4.311-2.358.942-7.836,1.1-12.238,1.226h-.009c-1.989.057-3.707.107-4.748.221-.031,0-.058,0-.08,0a.5.5,0,0,1-.386-.162c-.4-.433-.3-1.66-.166-3.215V40.5a17.171,17.171,0,0,0-.064-5.026c-2.154.23-2.155,1.095-2.155,2.666a10.792,10.792,0,0,1-.427,3.427c-.476,1-.98,1.482-1.541,1.483a1.576,1.576,0,0,1-.274-.029h-.01l-.022,0-.035-.006H4.073c-.08-.012-.159-.135-.251-.278l0,0c-.128-.2-.272-.428-.474-.464V40.408H2.125v1.363C.914,41.538,0,41.336,0,41.335l.4-8.51H.408c.272.01.546.015.816.015a9.2,9.2,0,0,0,2.485-.247,1.019,1.019,0,0,0,.65-.511.668.668,0,0,0,0-.49l3.492-.727c.013-.024,1.289-2.473.949-2.9A7.525,7.525,0,0,1,12.73,25.84a17.867,17.867,0,0,1,4.141-.456c1.06,0,1.789.08,1.793.08V25.42c-.011-.58-.11-5.749-.258-8.48a6.494,6.494,0,0,1,1.646-3.52,38.86,38.86,0,0,1,3.775-4.139A8.572,8.572,0,0,1,25.979,8l.008,0c1.108-.533,2.254-1.084,2.58-1.866.107-.255-1.3-1.15-2.782-2.1l0,0c-1.529-.974-3.109-1.981-3-2.282l.052-.138.028-.076,0,0C23.169.707,23.431,0,24.15,0a2.767,2.767,0,0,1,1.334.5A81.568,81.568,0,0,1,32.13,5.764l2.957.106a2.325,2.325,0,0,0,.841,1.147,3.141,3.141,0,0,0,1.475.332h.078a.028.028,0,0,0,.024-.013c.085-.119-.225-1.022-.228-1.032h0c-.161-.033-.974-.212-1.117-.433A1.351,1.351,0,0,1,35.925,4.6a.547.547,0,0,1,.518-.271h.09a10.527,10.527,0,0,0,1.712-.164v.611h1.226V3.969a6.6,6.6,0,0,1,.871-.054c.178,0,.356.007.528.019.257.019.6.034.923.048,2.193.1,6.276.277,9.087,2.142a11.467,11.467,0,0,1,5.192,4.619,4.06,4.06,0,0,0,1.479,1.622c.406-.058.385-.333.318-1.244l-.008-.106c0-.056-.111-.164-.246-.3-.212-.215-.476-.482-.493-.692,0-.01,0-.022,0-.037l0-.021,0-.019a2.958,2.958,0,0,1,.008-.892,28.007,28.007,0,0,0,.429-2.827c0-.37-.016-.69-.032-.972a5.155,5.155,0,0,1,.164-1.983c.556-1.893,4.041-2.04,5.1-2.04a8.819,8.819,0,0,1,1.807.156c.075.2.144.386.209.564.464,1.266.8,2.181,1.777,2.493.768,4,3.651,6.53,5.755,8.375l0,0c.47.412.957.838,1.349,1.225a3.415,3.415,0,0,1,1.022-.173,1.733,1.733,0,0,1,1.382.583,2.274,2.274,0,0,1,.374,1.884c0,.209-.274.282-.62.374a1.753,1.753,0,0,0-1.418,1.027c-3.561,4.189-3.891,7.208-4.241,10.4-.071.654-.145,1.33-.25,2.042-.015.1-.226.111-.471.122-.354.016-.794.035-.854.338,0,.005-.379.529-.116.754a1.685,1.685,0,0,0,.905.173c.147,0,.263-.007.283-.008-.025.117.058.243.153.389a.973.973,0,0,1,.213.837,7.375,7.375,0,0,1-1.006.879l0,0-2.717-.4a2.988,2.988,0,0,1-1.508.493,1.708,1.708,0,0,1-1.408-.724,32.733,32.733,0,0,1-2.437-5.478l0-.009c-.862-2.225-1.677-4.326-2.005-4.326a.074.074,0,0,0-.03.006,1.151,1.151,0,0,0-.678.755c-.442,1.538,1.651,4.638,3.332,7.129,1.216,1.8,2.176,3.221,1.822,3.51a1.462,1.462,0,0,1-.263.134l0,0c-.294.131-.7.31-.77.573a.371.371,0,0,0,.075.318c.14.2.239.355.312.468l.015.024c.249.391.249.391.841.625l.014.006h0c.3.117.744.294,1.439.606h.03a4.662,4.662,0,0,1,2.382.647l.019.011a1.536,1.536,0,0,0,.175.088,2.488,2.488,0,0,1-.005,2.436,1.443,1.443,0,0,1-1.222.8,1.918,1.918,0,0,1-1.379-.764A.309.309,0,0,1,65,40.55a.918.918,0,0,0-.522-.231c-.32,0-.559.324-.712.962l-.02,0-.024.006L63.7,41.3l-.022.005-.01,0h0a2.956,2.956,0,0,1-.677.106c-.553,0-1.025-.319-1.531-1.034a4.079,4.079,0,0,0-2.02-3,2.06,2.06,0,0,0-1.469-.481c-.225,0-.462.015-.727.033l-.043,0c-.291.02-.557.036-.852.036a5.117,5.117,0,0,1-2.189-.456,8.1,8.1,0,0,1-2.676-2.14,2.5,2.5,0,0,0-1.243,1.81c-.11,1.4,1.428,2.887,2.784,4.2l0,0,0,0c1.23,1.188,2.392,2.31,2.169,3.192-.131.52-.728.923-1.826,1.232A6.6,6.6,0,0,1,51.569,45.1ZM23.031,36.158a1.409,1.409,0,0,0-.7.436,2.782,2.782,0,0,0-.323.72v0a1.7,1.7,0,0,1-.354.7,1.877,1.877,0,0,1-.75.386,1.316,1.316,0,0,0-.232.089,2.7,2.7,0,0,0-.813.711,3.566,3.566,0,0,0,1.308.287,1.8,1.8,0,0,0,.759-.151,2.412,2.412,0,0,0,1.457-1.762A3.4,3.4,0,0,0,23.031,36.158Zm-20.445,0v1.752H3.754V36.158Zm31.308-.876a.876.876,0,1,0,.876.876A.877.877,0,0,0,33.894,35.282Zm8.763-.584a.876.876,0,1,0,.876.876A.877.877,0,0,0,42.656,34.7ZM21.626,33.53a.876.876,0,1,0,.876.876A.877.877,0,0,0,21.626,33.53Zm21.03-3.248a.876.876,0,1,0,.876.876A.877.877,0,0,0,42.656,30.282Zm-11.036.05a.362.362,0,0,1,.115.019,3.432,3.432,0,0,1,.976.805l.013.014a2.391,2.391,0,0,0,.287.273,1.3,1.3,0,0,0,.658.162,2.245,2.245,0,0,0,.8-.162l-.006-.008c-.324-.371-3.18-3.629-3.774-3.629a.113.113,0,0,0-.05.01l-1.254.746-2.406,1.22.712.814,2.033-.678.712.948a.577.577,0,0,0,.074,0,1,1,0,0,0,.6-.27l.035-.027A.863.863,0,0,1,31.62,30.333Zm5.146-4.524a1.411,1.411,0,0,0-.013.821,2.826,2.826,0,0,0,.431.665,2.049,2.049,0,0,1,.37.584c-.009.011-.019.025-.03.039a2.788,2.788,0,0,0-.324.724,1.7,1.7,0,0,1-.354.7,1.876,1.876,0,0,1-.748.385,1.347,1.347,0,0,0-.234.089,2.705,2.705,0,0,0-.813.711,3.572,3.572,0,0,0,1.309.287,1.8,1.8,0,0,0,.758-.151,2.637,2.637,0,0,0,1.364-1.383,1.86,1.86,0,0,0,.353-.815,2.413,2.413,0,0,0-.684-2.182A3.449,3.449,0,0,0,36.766,25.809Zm17.651,1.673a.584.584,0,1,0,.584.584A.585.585,0,0,0,54.417,27.482Zm9.739-3.494-.175,1.22v1.01a3.376,3.376,0,0,1-.57.82l1.762-1.152.779-1.627.305-2.169L65.444,20.5l.169,1.322-.609-.2.169,2.169-.644-.678V24.7l-.373-.711ZM33.872,25.06a.584.584,0,1,0,.584.584A.585.585,0,0,0,33.872,25.06ZM27.7,24.475v1.752h1.169V24.475Zm15.58-.233a.846.846,0,0,1,.274.041,2.145,2.145,0,0,1,.723.492l0,0a1.477,1.477,0,0,0,.2.166,2.758,2.758,0,0,0,1.012.392A3.574,3.574,0,0,0,44.429,23.4a2.811,2.811,0,0,0-1.608-.583,1.361,1.361,0,0,0-.584.117,2.767,2.767,0,0,0-.9,1.009,1.561,1.561,0,0,0,.733.419,1.463,1.463,0,0,0,.181.011,2.956,2.956,0,0,0,.54-.064l.023,0A2.641,2.641,0,0,1,43.284,24.242Zm8.337-1.572H51.6a3.279,3.279,0,0,0-1.153.207,5.627,5.627,0,0,0,2.423.95c.072,0,.143,0,.212,0a2.265,2.265,0,0,0,1.982-.747,2.056,2.056,0,0,0-.051-1.224,2.944,2.944,0,0,0-.434-.034,1.323,1.323,0,0,0-.508.08,1.992,1.992,0,0,0-.571.414l0,0a1.3,1.3,0,0,1-.6.387,1.741,1.741,0,0,1-.379.036,4.307,4.307,0,0,1-.524-.039l-.082-.011h0A2.63,2.63,0,0,0,51.621,22.67Zm2.67-6.207a1.4,1.4,0,0,0-.013.822,2.8,2.8,0,0,0,.43.665,1.7,1.7,0,0,1,.394.678,1.88,1.88,0,0,1-.084.837,1.306,1.306,0,0,0-.053.246,2.7,2.7,0,0,0,.154,1.07,2.97,2.97,0,0,0,1.24-1.66,2.411,2.411,0,0,0-.685-2.181A3.441,3.441,0,0,0,54.291,16.462Zm-17.476.711a.876.876,0,1,0,.876.876A.877.877,0,0,0,36.815,17.173Zm29.87-.584a.584.584,0,1,0,.584.584A.585.585,0,0,0,66.684,16.589Zm2.854-2.425h0l-.122,1.162,1.743.183.122-1.162-1.743-.183Zm-31.285-.5a.584.584,0,1,0,.585.584A.585.585,0,0,0,38.253,13.668Zm3.471-4.089a.876.876,0,1,0,.876.876A.877.877,0,0,0,41.724,9.579Zm-6.684,0a.584.584,0,1,0,.584.585A.585.585,0,0,0,35.04,9.579Z" transform="translate(0 28.683)" fill="#ff8282"/>
  </g>
</svg>
