<svg xmlns="http://www.w3.org/2000/svg" width="18.643" height="16.498" viewBox="0 0 18.643 16.498">
  <g id="immunity" transform="translate(0.004 -0.027)">
    <path id="Path_1285" data-name="Path 1285" d="M165.284,121.047l-.08.027c-.117.085-.2.213-.352.244-.718.175-.747.163-1.278-.561-.366-.591-.277-.885.419-1.384a.336.336,0,0,1,.388.2c0,.208-.17.341-.226.526-.1.28.085.24.242.213.6-.1,1.193-.187,1.789-.285.152-.025.382-.152.449.052s-.2.234-.333.315A3.725,3.725,0,0,0,165.284,121.047Z" transform="translate(-149.778 -110.775)" fill="#ff7474"/>
    <path id="Path_1286" data-name="Path 1286" d="M166.013,135.17a.162.162,0,0,1,.031.028c.274.44.617.717,1.17.492.014.233-.21.181-.321.262-.178.133-.066.186.05.248a1.868,1.868,0,0,0,.6.17,7.688,7.688,0,0,0,1.278.341h0c.212.177.182.28-.1.3-.647.036-1.26.279-1.908.313a.913.913,0,0,0-.27.116.211.211,0,0,1-.251-.094.522.522,0,0,1,.234-.661c.139-.049.234.043.346.1.147.075.2,0,.181-.149a.751.751,0,0,0-.631-.261c-.17-.012-.348-.014-.348-.256.236-.106.323-.223.045-.394a.438.438,0,0,1-.188-.262.358.358,0,0,1,0-.185A.218.218,0,0,1,166.013,135.17Z" transform="translate(-152.119 -125.23)" fill="#ff7474"/>
    <path id="Path_1287" data-name="Path 1287" d="M58.714,147.124a2.593,2.593,0,0,0-2.565.3.869.869,0,0,0-.463.668c-.007.12-.038.244-.162.268-.161.032-.16-.118-.182-.224-.032-.149-.17-.264-.134-.436.009-.046.018-.135-.062-.131-.653.032-.555-.511-.681-.88a2.078,2.078,0,0,1,.008-.93h0a.131.131,0,0,1,.17-.03,7.19,7.19,0,0,0,.187,1.39c.049-.121.114-.266.309-.228.164.031.158.175.179.3a3.548,3.548,0,0,0,.176.581,1.71,1.71,0,0,1,.926-.784c.353-.138.266-.545.5-.749a.268.268,0,0,1,.179-.034,2.554,2.554,0,0,1,.511.193.141.141,0,0,1,.033.1c-.03.065-.1.085-.136.136a5.04,5.04,0,0,1,.654.054C58.384,146.79,58.725,146.729,58.714,147.124Z" transform="translate(-50.112 -134.868)" fill="#ff7474"/>
    <path id="Path_1288" data-name="Path 1288" d="M71.994,192.707c.377-.522.377-.522-.245-.778-.072-.052-.2-.015-.225-.139,0-.1-.028-.2.106-.24.183.127.437.08.6.244l.08.064a2.918,2.918,0,0,1,.782.161l.158.014c.327.043.657.059.986.078.286.017.315.076.215.331h0a3.014,3.014,0,0,1-1.533-.154c-.055,0-.122-.023-.162,0-.11.066.006.1.037.14.191.223.506.256.713.455-.1.243-.1.243-.426.085-.213,0-.313-.209-.492-.271-.191-.129-.256.136-.41.13A.226.226,0,0,1,71.994,192.707Z" transform="translate(-65.761 -176.807)" fill="#ff7474"/>
    <path id="Path_1289" data-name="Path 1289" d="M5.035,66.892a2.634,2.634,0,0,1-.5-1.9c.029-.485.138-.924-.431-1.227-.329-.173-.261-.591-.227-.929a2.82,2.82,0,0,1,.085-.367h0c.138-.17.142-.544.452-.448.26.085.109.392.136.6a.362.362,0,0,1-.05.241c-.115.115-.2-.059-.308-.035a.851.851,0,0,0,.348.963.914.914,0,0,1,.274,1,2.783,2.783,0,0,0,.065,1.073c.184-.039.341-.27.511-.1a.611.611,0,0,1,.129.668c-.115.1-.17-.014-.25-.069a1.194,1.194,0,0,1-.073.471C5.152,66.889,5.1,66.925,5.035,66.892Z" transform="translate(-3.85 -58.299)" fill="#ff7474"/>
    <path id="Path_1290" data-name="Path 1290" d="M98.476,148.568c-.085-.307-.411-.214-.6-.348a.288.288,0,0,1,.184-.152.509.509,0,0,1,.124-.017,4.373,4.373,0,0,0,1.739-.243,1.083,1.083,0,0,1,.116-.038,1.121,1.121,0,0,0,.561-.335c.167-.147.351-.239.542-.026a.193.193,0,0,1,.014.116.636.636,0,0,1-.361.247c-.107.045-.194.1-.16.238-.085.115-.256.063-.341.175a1.564,1.564,0,0,0-.72.387c-.142.14-.35.152-.487.354s-.226-.135-.362-.185Z" transform="translate(-89.874 -136.312)" fill="#ff7474"/>
    <path id="Path_1291" data-name="Path 1291" d="M17.81,118.115l.113-.115c.326.019.5.388.839.371.129.037.189.149.267.242.1.112.206.225.308.341a.583.583,0,0,0,.91.06c.074-.061.137-.17.233-.054.069.085-.021.158-.085.206a1.466,1.466,0,0,0-.366.55.934.934,0,0,1-.676-.158,1.5,1.5,0,0,1-.506-.687A2.028,2.028,0,0,1,17.81,118.115Z" transform="translate(-16.625 -109.523)" fill="#ff7474"/>
    <path id="Path_1292" data-name="Path 1292" d="M33.574,157.288a1.552,1.552,0,0,0,.256.958c-.085.07-.124.194-.237.239-.085-.04-.185-.129-.256-.112-.3.072-.361-.1-.333-.322a.6.6,0,0,0-.274-.565.221.221,0,0,1,.038-.085c0-.15-.147-.247-.141-.4a1.756,1.756,0,0,1-.009-.189c.027-.289,0-.608.374-.714a.767.767,0,0,1-.078.411.529.529,0,0,0,.214.788c.133-.077.073-.264.185-.359C33.481,157,33.382,157.253,33.574,157.288Z" transform="translate(-30.173 -144.377)" fill="#ff7474"/>
    <path id="Path_1293" data-name="Path 1293" d="M119.52,169.329a1.92,1.92,0,0,0,.876-1.031c.12-.349-.077-.662-.053-.995.016-.1,0-.22.117-.284a1.761,1.761,0,0,1-.276,2.2.537.537,0,0,1-.45.391C119.506,169.654,119.412,169.559,119.52,169.329Z" transform="translate(-109.629 -154.367)" fill="#ff7474"/>
    <path id="Path_1294" data-name="Path 1294" d="M23.479,156.407l-.095.018c-.511-.056-.62.074-.621.673,0,.154.18.434-.1.447-.2.009-.2-.29-.245-.479-.058-.245.123-.43.141-.654a.976.976,0,0,0,.618-.98c-.007-.161.133-.328.206-.492.147.112.073.241.028.366-.06.164-.152.325-.032.5v.18C23.153,156.185,23.552,156.243,23.479,156.407Z" transform="translate(-20.829 -143.316)" fill="#ff7474"/>
    <path id="Path_1295" data-name="Path 1295" d="M143.982,187.3c.262-.156.526-.307.783-.47a2.056,2.056,0,0,0,.836-.973.1.1,0,0,1,.124-.009c.109.085.092.194.06.307a2.87,2.87,0,0,1-1.571,1.309C144.037,187.552,143.968,187.484,143.982,187.3Z" transform="translate(-132.047 -171.578)" fill="#ff7474"/>
    <path id="Path_1296" data-name="Path 1296" d="M171.4,126.159c.032-.193.181-.256.333-.341a5.2,5.2,0,0,0,1.005-.626l-2.31.378c-.12.019-.267.073-.347-.067a.235.235,0,0,1,.136-.341.341.341,0,0,1,.1.15.235.235,0,0,0,.237.053c.658-.149,1.336-.181,1.987-.364.217-.06.478-.1.545.145.085.3-.236.271-.416.341h0A7.945,7.945,0,0,0,171.4,126.159Z" transform="translate(-155.896 -115.887)" fill="#ff7474"/>
    <path id="Path_1297" data-name="Path 1297" d="M107.76,161.609c.17.066.341.29.482-.056.038-.095.2-.137.312-.2.048.122.157.1.256.1.147.068.415-.073.416.242-.317-.136-.623.175-1.012-.048a2.239,2.239,0,0,1,.318.975c0,.139.008.32-.194.308-.179-.011-.152-.185-.136-.3C108.256,162.2,107.917,161.945,107.76,161.609Z" transform="translate(-98.912 -149.18)" fill="#ff7474"/>
    <path id="Path_1298" data-name="Path 1298" d="M90.4,170.783c.223-.148.438-.321.4-.614a.532.532,0,0,0-.543-.491c-.107-.007-.205-.075-.184-.187.026-.14.17-.139.275-.13a.716.716,0,0,1,.624.446.855.855,0,0,1-.085.915,4.135,4.135,0,0,1-.375.335c-.13.053-.22.028-.239-.127A.189.189,0,0,1,90.4,170.783Z" transform="translate(-82.734 -156.506)" fill="#ff7474"/>
    <path id="Path_1299" data-name="Path 1299" d="M150.273,162.063a.684.684,0,0,1-.085,0,1.515,1.515,0,0,0-.108-1.586,1.209,1.209,0,0,0-.656-.426c-.192-.052-.256.04-.244.219-.243.016-.17-.152-.164-.281a.227.227,0,0,1,.085-.1.713.713,0,0,1,.58.007.653.653,0,0,1,.359.216,1.124,1.124,0,0,0,.669.406.07.07,0,0,1-.013.1c-.16.077-.3.134-.134.361a1,1,0,0,1,.043.894C150.415,161.8,150.426,162.074,150.273,162.063Z" transform="translate(-136.639 -147.785)" fill="#ff7474"/>
    <path id="Path_1300" data-name="Path 1300" d="M89.91,207.305c.138-.041.325.161.426-.085a11.177,11.177,0,0,1,2,.228,1.728,1.728,0,0,1-1.476.1.274.274,0,0,1,.129-.076.256.256,0,0,0-.13.075A1.512,1.512,0,0,1,89.91,207.305Z" transform="translate(-82.583 -191.142)" fill="#ff7474"/>
    <path id="Path_1301" data-name="Path 1301" d="M123,186.457a3.365,3.365,0,0,0,.6-.681c.058-.065.141-.17.248-.1s.028.157-.011.25c-.238.575-.767.793-1.262,1.055-.334.039-.237-.138-.129-.284C122.575,186.518,122.807,186.533,123,186.457Z" transform="translate(-112.255 -171.411)" fill="#ff7474"/>
    <path id="Path_1302" data-name="Path 1302" d="M128.4,199.347a.241.241,0,0,0,.234.17c-.439.276-.951.165-1.423.264-.085.051-.2.085-.25-.016-.062-.129.085-.17.161-.243l.25-.085a.245.245,0,0,0,.217.06c-.072-.009-.156.005-.216-.06a2.338,2.338,0,0,1,.681-.436.17.17,0,0,0,.117.2C128.092,199.478,128.353,199.243,128.4,199.347Z" transform="translate(-116.463 -183.622)" fill="#ff7474"/>
    <path id="Path_1303" data-name="Path 1303" d="M75.714,184.115l-.078.085c-.152.281-.431.182-.641.216.2.021.444-.066.639.118a.779.779,0,0,1-.862.085c-.248-.119-.5-.227-.752-.341.052-.108.015-.24.094-.341.2-.038.335.124.5.181A2.055,2.055,0,0,0,75.714,184.115Z" transform="translate(-68.047 -169.838)" fill="#ff7474"/>
    <path id="Path_1304" data-name="Path 1304" d="M173,153.873c.207-.239.494-.124.745-.175a7.535,7.535,0,0,1,1.4-.237c.213,0,.23-.109.146-.271a1.917,1.917,0,0,1,.29.033c.076.021.183.043.184.145,0,.133-.118.151-.214.152-.784.012-1.526.281-2.3.37A.261.261,0,0,1,173,153.873Z" transform="translate(-158.595 -141.715)" fill="#ff7474"/>
    <path id="Path_1305" data-name="Path 1305" d="M139.781,187.306c-.143-.008-.16-.085-.117-.2.256-.3.589-.533.681-.946a.17.17,0,0,1,.263-.127c.147.075.06.193.011.291A2.811,2.811,0,0,1,139.781,187.306Z" transform="translate(-128.08 -171.731)" fill="#ff7474"/>
    <path id="Path_1306" data-name="Path 1306" d="M54.187,127.89h-.17c.026-.057.052-.115.078-.17.341-.284.362-.448.085-.687-.056-.117-.068-.278-.261-.256.028-.324.426-.33.518-.6.4.112.293.411.222.665a.855.855,0,0,0-.076.479.631.631,0,0,1-.033.261C54.483,127.751,54.42,127.923,54.187,127.89Z" transform="translate(-49.659 -117.006)" fill="#ff7474"/>
    <path id="Path_1307" data-name="Path 1307" d="M54.522,173.378a3.307,3.307,0,0,1-.722-1.107c.024-.094,0-.207.074-.28.288.323.46.774.733,1.113l.071.164C54.68,173.431,54.6,173.413,54.522,173.378Z" transform="translate(-49.549 -158.913)" fill="#ff7474"/>
    <path id="Path_1308" data-name="Path 1308" d="M32.361,149.605c-.205-.038-.133-.17-.1-.29a1.2,1.2,0,0,0,.1-.575c.18-.237.235-.621.7-.573-.158.244-.3.46-.44.676A1.111,1.111,0,0,0,32.361,149.605Z" transform="translate(-29.809 -137.116)" fill="#ff7474"/>
    <path id="Path_1309" data-name="Path 1309" d="M41.031,158.157c-.065.066-.04.225-.154.215s-.091-.144-.1-.234c-.007-.108-.007-.217-.01-.326a1.65,1.65,0,0,1,.183-.762c.081.031.128.079.091.17C41.271,157.537,40.922,157.845,41.031,158.157Z" transform="translate(-37.629 -145.246)" fill="#ff7474"/>
    <path id="Path_1310" data-name="Path 1310" d="M120.349,193.07a1.919,1.919,0,0,1-.454.284c-.186.059-.221.192.032.241-.023.118-.164.2-.193.123-.091-.237-.405-.412-.234-.731,0,.18.056.284.247.175.145-.085.278-.187.417-.281A.2.2,0,0,0,120.349,193.07Z" transform="translate(-109.607 -178.024)" fill="#ff7474"/>
    <path id="Path_1311" data-name="Path 1311" d="M125.91,152.805c.091-.124.266-.046.365-.151a.51.51,0,0,1,.762-.132c.269.175.64.243.717.635a.134.134,0,0,1-.07.1,1.462,1.462,0,0,0-1.595-.44.124.124,0,0,1-.18-.014Z" transform="translate(-115.516 -140.999)" fill="#ff7474"/>
    <path id="Path_1312" data-name="Path 1312" d="M61.73,187.109a.256.256,0,0,0,.2-.109l.24.1c.1.12.3.069.371.23-.06.08-.178.122-.164.251-.094.116-.152.3-.364.179-.066-.114-.266-.17-.131-.371C61.987,187.237,61.815,187.186,61.73,187.109Z" transform="translate(-56.803 -172.645)" fill="#ff7474"/>
    <path id="Path_1313" data-name="Path 1313" d="M81.373,187.473a1.65,1.65,0,0,1-1.083-.163c.358-.184.757.018,1.084-.17,0,.126.085.17.2.185Z" transform="translate(-73.782 -172.773)" fill="#ff7474"/>
    <path id="Path_1314" data-name="Path 1314" d="M117.577,157.08l.18.014c-.1.221-.386.112-.519.286.131.116.383-.05.441.2a1.013,1.013,0,0,1-.681.026c-.193.085-.231.011-.17-.165A2.427,2.427,0,0,1,117.577,157.08Z" transform="translate(-107.183 -145.273)" fill="#ff7474"/>
    <path id="Path_1315" data-name="Path 1315" d="M68.211,180.609c.066.14.33.334-.094.341-.17-.009-.256-.129-.348-.249-.067-.1-.275-.15-.175-.318.085-.149.227-.112.346-.01A.549.549,0,0,0,68.211,180.609Z" transform="translate(-62.144 -166.501)" fill="#ff7474"/>
    <path id="Path_1316" data-name="Path 1316" d="M119.08,163l.681-.026a.776.776,0,0,1,.334.343c-.008.107,0,.221-.117.284l-.4-.421C119.468,162.967,119.209,163.158,119.08,163Z" transform="translate(-109.268 -150.662)" fill="#ff7474"/>
    <path id="Path_1317" data-name="Path 1317" d="M68.126,207.415c-.2-.014-.53.141-.541-.12-.014-.318.35-.151.546-.205.093.146.261-.052.357.078a.059.059,0,0,1-.031.085Z" transform="translate(-62.16 -191.023)" fill="#ff7474"/>
    <path id="Path_1318" data-name="Path 1318" d="M120.808,205.09c-.067.119-.228.271.085.256-.153.17-.42.011-.577.206a.152.152,0,0,1-.25-.037.162.162,0,0,1,.149-.241C120.447,205.293,120.6,205.112,120.808,205.09Z" transform="translate(-110.151 -189.194)" fill="#ff7474"/>
    <path id="Path_1319" data-name="Path 1319" d="M93.05,197.605c.106-.239-.054-.26-.221-.262a3.431,3.431,0,0,1-.979-.147c.348,0,.694-.008,1.041-.005a.319.319,0,0,1,.313.233C93.245,197.549,93.17,197.6,93.05,197.605Z" transform="translate(-84.358 -181.967)" fill="#ff7474"/>
    <path id="Path_1320" data-name="Path 1320" d="M147.013,160.9c.023.115-.041.256.1.334.074.151.187.354-.042.416s-.187-.183-.222-.325c-.027-.108-.072-.211-.108-.316l.046-.049C146.847,160.9,146.917,160.844,147.013,160.9Z" transform="translate(-134.572 -148.747)" fill="#ff7474"/>
    <path id="Path_1321" data-name="Path 1321" d="M52.578,171.339a3.041,3.041,0,0,1-.925-1.13.085.085,0,0,1-.023-.133l.02-.015A14.844,14.844,0,0,1,52.578,171.339Z" transform="translate(-47.543 -157.148)" fill="#ff7474"/>
    <path id="Path_1322" data-name="Path 1322" d="M43.021,152.5l-.091-.17a1.845,1.845,0,0,1,.1-.226c.062-.1.112-.263.269-.2s.051.218.055.333C43.218,152.295,43.232,152.539,43.021,152.5Z" transform="translate(-39.605 -140.527)" fill="#ff7474"/>
    <path id="Path_1323" data-name="Path 1323" d="M88,200.24a9.274,9.274,0,0,0,1.533.154A1.916,1.916,0,0,1,88,200.24Z" transform="translate(-80.836 -184.757)" fill="#ff7474"/>
    <path id="Path_1324" data-name="Path 1324" d="M67.286,188.416c-.093-.119-.3-.078-.356-.246a2.776,2.776,0,0,1,1.1.536,1.852,1.852,0,0,1-.671-.21A.121.121,0,0,1,67.286,188.416Z" transform="translate(-61.561 -173.715)" fill="#ff7474"/>
    <path id="Path_1325" data-name="Path 1325" d="M186.218,149.531a2.174,2.174,0,0,1-1.278-.341A4.32,4.32,0,0,1,186.218,149.531Z" transform="translate(-169.518 -138.056)" fill="#ff7474"/>
    <path id="Path_1326" data-name="Path 1326" d="M163.94,182.045a2.466,2.466,0,0,1,.1-.235c.124-.235.192-.147.236.045l-.232.492Z" transform="translate(-150.307 -167.767)" fill="#ff7474"/>
    <path id="Path_1327" data-name="Path 1327" d="M66.909,179.462c-.094-.02-.2-.078-.276.011-.118.145.147.184.106.317-.164-.026-.3-.1-.3-.281a.242.242,0,0,1,.185-.2C66.771,179.255,66.861,179.325,66.909,179.462Z" transform="translate(-61.112 -165.591)" fill="#ff7474"/>
    <path id="Path_1328" data-name="Path 1328" d="M30,128.24l.506.687C30.17,128.823,30.072,128.54,30,128.24Z" transform="translate(-27.776 -118.89)" fill="#ff7474"/>
    <path id="Path_1329" data-name="Path 1329" d="M77.83,204.361a.418.418,0,0,1,.006-.085.136.136,0,0,1,.11-.141c.137-.05.205-.354.426-.115C78.13,204.044,78.105,204.4,77.83,204.361Z" transform="translate(-71.532 -188.131)" fill="#ff7474"/>
    <path id="Path_1330" data-name="Path 1330" d="M61.14,206.285c.014-.114.066-.2.192-.152.147.054.159.183.135.319h-.152Z" transform="translate(-56.264 -190.136)" fill="#ff7474"/>
    <path id="Path_1331" data-name="Path 1331" d="M81.6,195.213a2.762,2.762,0,0,1-.782-.161C81.091,195.045,81.379,194.975,81.6,195.213Z" transform="translate(-74.267 -179.997)" fill="#ff7474"/>
    <path id="Path_1332" data-name="Path 1332" d="M53.933,146.28l-.008.93A1.094,1.094,0,0,1,53.933,146.28Z" transform="translate(-49.573 -135.393)" fill="#ff7474"/>
    <path id="Path_1333" data-name="Path 1333" d="M154.281,33.52a.282.282,0,0,0-.055.262c-.225.965-.47,1.924-.708,2.885a7.221,7.221,0,0,0-.348,1.2,2.528,2.528,0,0,1-.12.487c-.1.2-.175.307-.4.141-.162-.117-.355-.144-.414.127-.024.108.1.268-.093.313-.17.039-.256-.089-.327-.215-.121-.278-.2-.548.16-.717.052-.035.145,0,.162-.085,0-.023-.067-.041-.106-.06a.267.267,0,0,1-.141-.365,5.367,5.367,0,0,1,.758-1.521c.165-.237.151-.541.362-.739a16.154,16.154,0,0,0,1.095-2.138h0c.085-.049.062-.256.226-.182.137.059.1.192.05.288S154.357,33.429,154.281,33.52Z" transform="translate(-139.117 -31.669)" fill="#ff7474"/>
    <path id="Path_1334" data-name="Path 1334" d="M153.3,76.378c.073.056.085.192.226.17.135-.17-.383-.414.014-.5.17-.038.555-.463.646.192.368-.457.3-.987.452-1.448.05-.152-.015-.347.182-.437.133.247-.064.452-.085.681-.07.331-.143.66-.206.992-.021.112-.156.256-.007.341.1.055.2-.066.292-.13.808-.587,1.619-1.177,2.424-1.763.181-.132.373-.25.56-.373a.066.066,0,0,1,.1,0c.018.262-.187.372-.36.48-.807.5-1.487,1.173-2.326,1.632a.92.92,0,0,0-.407,1.356c.03.014.042.062.085.046a.209.209,0,0,1-.138-.141.851.851,0,0,1,.058-.819c.177-.011.177.137.212.246.056.177.159.25.341.178.08-.125.04-.186-.1-.192-.188-.006-.282-.146-.385-.271.292-.577.682-.688,1.207-.351a1.952,1.952,0,0,1-.223.975,1.39,1.39,0,0,0-.182.371.7.7,0,0,1-.388.472h-.028l-.024.015c-.043.055-.072.134-.17.1a.469.469,0,0,0-.341-.18c-.2-.164-.206.028-.28.14-.159.244-.27.59-.688.426-.175-.222-.562-.42-.073-.718.129-.079.007-.175-.031-.256a7.135,7.135,0,0,1-.434-1.132A.17.17,0,0,1,153.3,76.378Z" transform="translate(-140.5 -69.341)" fill="#ff7474"/>
    <path id="Path_1335" data-name="Path 1335" d="M20.527,34.121a1.2,1.2,0,0,1-.185-1.332c.074-.164.17-.293.366-.3-.17.687.341,1.107.635,1.608a.409.409,0,0,0,.451.131c.242-.108-.053-.318.026-.479a.118.118,0,0,1,.111-.015c.256.364.23.543-.122.767a.559.559,0,0,0-.156.184c-.112.027-.206.085-.085.193s.176.359.433.31a1.107,1.107,0,0,1,1.193.618.857.857,0,0,1-.256,1.017.189.189,0,0,1-.067-.1.365.365,0,0,1,0-.122c.193-.6.17-.732-.176-1-.17-.129-.325-.185-.44.061-.107.23-.244.152-.352.015a2.884,2.884,0,0,1-.805-1.409,1,1,0,0,0-.269-.519,1.2,1.2,0,0,1-.306-.572c-.061.308.117.568.08.852A.17.17,0,0,1,20.527,34.121Z" transform="translate(-18.828 -31.297)" fill="#ff7474"/>
    <path id="Path_1336" data-name="Path 1336" d="M138.6,36.483c-.089-.144-.216-.322,0-.426s.256.124.329.274a2.258,2.258,0,0,1,.085,1.68c-.145.29-.559.241-.692.547a1.568,1.568,0,0,1-.66-.009.126.126,0,0,1,.06-.2c.366-.1.444-.495.707-.7.389.01.393.009.24-.4-.049-.13.022-.212.085-.306.071-.11.085-.21-.067-.265C138.617,36.629,138.651,36.54,138.6,36.483Z" transform="translate(-126.244 -34.536)" fill="#ff7474"/>
    <path id="Path_1337" data-name="Path 1337" d="M124,85.665a3.18,3.18,0,0,1,.229-.3.858.858,0,0,0,.231-1.136.41.41,0,0,1,.335-.651c.279-.049.5-.314.819-.3a1.019,1.019,0,0,1,.264.585.205.205,0,0,1,.019.17c-.186.072-.211-.093-.256-.192-.116-.265-.29-.267-.511-.141a1.215,1.215,0,0,0-.215.127c-.309.244-.282.495.077.647.232.1.476.18.442.506l-.341-.147c-.062.111.1.155.075.25-.134.1-.292-.075-.426.041a.858.858,0,0,0-.189.187,1.4,1.4,0,0,1-.341.373.272.272,0,0,1-.112.029A.192.192,0,0,1,124,85.665Z" transform="translate(-113.769 -77.755)" fill="#ff7474"/>
    <path id="Path_1338" data-name="Path 1338" d="M43.841,84.419c.25.31.274.758.623,1.008a.106.106,0,0,1-.051.01c-.354.09-.4-.2-.527-.411-.032.191.137.267.221.388.164.235.191.417-.17.457a.52.52,0,0,1-.285-.1,2.988,2.988,0,0,1-.3-.293,1.183,1.183,0,0,1-.145-.2A.673.673,0,0,1,43.841,84.419Z" transform="translate(-39.822 -78.802)" fill="#ff7474"/>
    <path id="Path_1339" data-name="Path 1339" d="M58.711,34.907a1.476,1.476,0,0,1-.027-1.057c.109-.273.006-.612.183-.885.074-.116.139-.29.3-.24.129.04.112.208.1.341a4.571,4.571,0,0,0,.124,1.326.158.158,0,0,1-.124,0,.469.469,0,0,1-.24-.417c-.011-.079,0-.161-.017-.244-.049.055-.025.127-.051.185a1.694,1.694,0,0,0-.121.681A.356.356,0,0,1,58.711,34.907Z" transform="translate(-53.937 -31.503)" fill="#ff7474"/>
    <path id="Path_1340" data-name="Path 1340" d="M170.882,46.86c-.056-.238.124-.446.085-.681.2-.843.411-1.684.6-2.53.033-.151.142-.239.192-.368a1.246,1.246,0,0,1-.106.841c-.266.7-.336,1.448-.54,2.159A1.216,1.216,0,0,1,170.882,46.86Z" transform="translate(-156.647 -41.168)" fill="#ff7474"/>
    <path id="Path_1341" data-name="Path 1341" d="M119.074,68.138a1.463,1.463,0,0,1-1,.229.856.856,0,0,1-.256-1.492.5.5,0,0,1,.538.05.36.36,0,0,0,.457.018.073.073,0,0,1,.107.006.17.17,0,0,1,0,.12.567.567,0,0,1-.614.151c-.181-.039-.371-.1-.484.111a.49.49,0,0,0,.046.553.447.447,0,0,0,.511.2,1.094,1.094,0,0,1,.7-.051.073.073,0,0,1,.021.071A.228.228,0,0,1,119.074,68.138Z" transform="translate(-107.821 -62.705)" fill="#ff7474"/>
    <path id="Path_1342" data-name="Path 1342" d="M135.794,61.193l-.018-.1a.287.287,0,0,1,.138-.251c.265-.187.421-.484.682-.675.162-.119.085-.274.059-.426.04-.412.421-.374.672-.511.058.181-.133.314-.093.492a7.064,7.064,0,0,1-1.094,1.248C136.038,61.073,135.949,61.192,135.794,61.193Z" transform="translate(-124.541 -55.759)" fill="#ff7474"/>
    <path id="Path_1343" data-name="Path 1343" d="M133.026,43.6l-.1-.017a1.875,1.875,0,0,1,.5-.511,1.321,1.321,0,0,0,.576-.967,1.817,1.817,0,0,1,.293-.819c.085.03.074.107.091.17a2.783,2.783,0,0,1-.248,1.016c.009.066.085.159.012.193-.329.149-.442.559-.811.653C133.318,43.513,133.226,43.621,133.026,43.6Z" transform="translate(-121.938 -39.347)" fill="#ff7474"/>
    <path id="Path_1344" data-name="Path 1344" d="M35.488,46.445c0-.106-.4-.291.112-.3.42-.009.213-.377.132-.616-.064-.141-.036-.224.129-.162.1.037.152.152.228.231.152.181.095.387.065.588C36,46.44,35.821,46.642,35.488,46.445Z" transform="translate(-32.661 -43.057)" fill="#ff7474"/>
    <path id="Path_1345" data-name="Path 1345" d="M66.588,52.33a.5.5,0,0,0,.08,0,3.582,3.582,0,0,0,1.049,1.293c.17.118.31.181.494.07a.129.129,0,0,1,.175-.012c-.131.426-.464.25-.739.256a1.7,1.7,0,0,0-.449-.058c-.136-.533-.578-.937-.649-1.5Z" transform="translate(-61.213 -49.447)" fill="#ff7474"/>
    <path id="Path_1346" data-name="Path 1346" d="M40.053,80.632c-.3.08-.388.4-.62.562-.111.078.106.164.108.274-.1.146-.221.289-.406.184-.157-.085-.106-.267-.076-.419a.485.485,0,0,1,.17-.325c.2-.06.346-.162.311-.4.166-.347.376-.235.591-.057l.013.094Z" transform="translate(-36.034 -75.015)" fill="#ff7474"/>
    <path id="Path_1347" data-name="Path 1347" d="M168.045,35.23a4.834,4.834,0,0,1-1.095,2.138A14.951,14.951,0,0,1,168.045,35.23Z" transform="translate(-153.06 -33.803)" fill="#ff7474"/>
    <path id="Path_1348" data-name="Path 1348" d="M150.215,87.764a.935.935,0,0,1-.069-.511c.17-.072.135-.314.311-.383.024.16.085.282.272.292.061.116-.011.187-.085.256-.358.151-.256.407-.156.664l-.029.026C150.2,88.114,150.3,87.871,150.215,87.764Z" transform="translate(-137.684 -81.044)" fill="#ff7474"/>
    <path id="Path_1349" data-name="Path 1349" d="M31.668,35.36a1.99,1.99,0,0,1-.49-.675.154.154,0,0,1,.008-.2.11.11,0,0,1,.181.02c.154.256.451.391.54.693C31.846,35.283,31.748,35.307,31.668,35.36Z" transform="translate(-28.826 -33.091)" fill="#ff7474"/>
    <path id="Path_1350" data-name="Path 1350" d="M207.005,65.666l-.085-.026c.193-.3.568-.386.779-.664.095-.078.2-.209.318-.1.139.124-.013.221-.085.308a1.881,1.881,0,0,0-.238.289l-.085.1c-.063.066-.094.17-.2.181a.113.113,0,0,1-.085-.053C207.229,65.52,207.1,65.768,207.005,65.666Z" transform="translate(-189.625 -60.886)" fill="#ff7474"/>
    <path id="Path_1351" data-name="Path 1351" d="M60.811,93.14l.095.02a1.272,1.272,0,0,1-.2,1.176,1.643,1.643,0,0,0-.238.249c-.035.085-.121.15-.193.108s-.043-.156.009-.219a1.625,1.625,0,0,0,.366-.9Z" transform="translate(-55.436 -86.78)" fill="#ff7474"/>
    <path id="Path_1352" data-name="Path 1352" d="M59.94,54.571l.026-.351a.091.091,0,0,1,.108.021,10.114,10.114,0,0,0,.86,1.684.155.155,0,0,1-.065.1l-.49-.456Z" transform="translate(-55.166 -51.168)" fill="#ff7474"/>
    <path id="Path_1353" data-name="Path 1353" d="M86.17,66.44H86c.376-.413.584,0,.842.17.027.147.054.295.081.442.113.106.085.215,0,.323-.051.085-.052.2-.17.236a.28.28,0,0,1-.1-.163A.929.929,0,0,0,86.17,66.44Z" transform="translate(-79.006 -62.192)" fill="#ff7474"/>
    <path id="Path_1354" data-name="Path 1354" d="M179.97,27.457c.014-.106.023-.213.041-.319.014-.076.077-.17-.024-.207-.049-.016-.13.067-.2.1a1.631,1.631,0,0,1,.352-.767c.274.2.029.419.019.63A.764.764,0,0,1,179.97,27.457Z" transform="translate(-164.806 -25.607)" fill="#ff7474"/>
    <path id="Path_1355" data-name="Path 1355" d="M216,63.236c0-.233.294-.291.307-.522-.109-.11-.2.046-.3.026.06-.21.285-.223.415-.35.188.07.17.194.085.335C216.33,62.887,216.215,63.113,216,63.236Z" transform="translate(-197.932 -58.65)" fill="#ff7474"/>
    <path id="Path_1356" data-name="Path 1356" d="M183.876,22.888c-.075-.208.11-.426-.019-.63-.027-.1.047-.17.1-.245.158-.175.177-.175.256,0A2.244,2.244,0,0,1,183.876,22.888Z" transform="translate(-168.522 -21.593)" fill="#ff7474"/>
    <path id="Path_1357" data-name="Path 1357" d="M37.207,42.97c-.032-.221.072-.236.239-.158.13.131.326.21.347.426-.139.08-.17-.4-.358-.069a.111.111,0,0,0-.077-.015Z" transform="translate(-34.364 -40.7)" fill="#ff7474"/>
    <path id="Path_1358" data-name="Path 1358" d="M37.08,55.461a.626.626,0,0,0,.666-.261C37.577,55.636,37.37,55.717,37.08,55.461Z" transform="translate(-34.253 -52.072)" fill="#ff7474"/>
    <path id="Path_1359" data-name="Path 1359" d="M185.255,19.193c-.085-.136-.17-.037-.256,0a.406.406,0,0,1,.018-.122c.055-.12.111-.329.256-.262C185.438,18.883,185.354,19.064,185.255,19.193Z" transform="translate(-169.572 -18.77)" fill="#ff7474"/>
    <path id="Path_1360" data-name="Path 1360" d="M200.389,75.035c-.093.265-.354.406-.48.647-.02.03-.039.06-.058.085-.183.17-.184.5-.511.537a.2.2,0,0,1-.05-.109,2.183,2.183,0,0,1,1.047-1.205Z" transform="translate(-182.645 -70.176)" fill="#ff7474"/>
    <path id="Path_1361" data-name="Path 1361" d="M171.965,121.743l-.175.085c.008-.049.014-.1.021-.147l.25-.426.17-.1C172.234,121.4,171.994,121.525,171.965,121.743Z" transform="translate(-157.488 -112.413)" fill="#ff7474"/>
    <path id="Path_1362" data-name="Path 1362" d="M33.173,104.684l.085.319a.953.953,0,0,1-.542.37c.057.065.144.032.2.072a.366.366,0,0,1,.085.072c.073.134.286.111.322.286-.273.163-.59.1-.883.17-.2.052-.234-.2-.362-.292-.185-.225-.426-.421-.384-.759.033-.193.074-.377.331-.2.341.3.405.3.828-.026a.365.365,0,0,1,.224-.085A.141.141,0,0,1,33.173,104.684Z" transform="translate(-29.326 -97.273)" fill="#ff7474"/>
    <path id="Path_1363" data-name="Path 1363" d="M60.239,107.419c-.052-.108-.047-.2.078-.249a.426.426,0,0,1,.325.267,2.1,2.1,0,0,1-.295,1.118c.235-.025.38,0,.369.349a1.324,1.324,0,0,1-.416.893.426.426,0,0,1-.009.114c-.046.106-.112.162-.227.085a.438.438,0,0,1-.008-.5.5.5,0,0,0-.072-.7c.048-.378.356-.649.421-1.022C60.436,107.6,60.526,107.425,60.239,107.419Z" transform="translate(-55.204 -99.615)" fill="#ff7474"/>
    <path id="Path_1364" data-name="Path 1364" d="M33.963,116.32a.491.491,0,0,0,.607.17.825.825,0,0,1,.572.027c.072.125.511-.072.281.319a.52.52,0,0,0-.518.24c-.4-.135-.842.126-1.224-.147.015-.079.078-.125.126-.182C33.932,116.633,33.855,116.442,33.963,116.32Z" transform="translate(-31.143 -107.986)" fill="#ff7474"/>
    <path id="Path_1365" data-name="Path 1365" d="M47.9,89.693l-.1-.048c-.049-.239.122-.295.285-.284s0-.107.067-.115c.158-.026.364-.029.129-.256-.164-.156-.341-.3-.32-.561.007-.085.032-.186.119-.2.113-.024.128.092.135.17a.615.615,0,0,0,.426.521.428.428,0,0,1-.336.6A3.549,3.549,0,0,0,47.9,89.693Z" transform="translate(-44.05 -82.282)" fill="#ff7474"/>
    <path id="Path_1366" data-name="Path 1366" d="M40.743,109.186l-.085,0c-.135-.151-.359-.017-.5-.156.227-.14.574-.078.694-.405l.152.051c.1.011.25-.018.272.121s-.129.1-.2.151A3.874,3.874,0,0,0,40.743,109.186Z" transform="translate(-37.071 -100.942)" fill="#ff7474"/>
    <path id="Path_1367" data-name="Path 1367" d="M24.645,116.439l-.2.085c-.1,0-.115.077-.131.151l-.264-.17c-.175-.176-.53-.215-.452-.585.209-.085.439.2.639-.037a.12.12,0,0,1,.1.037c.058.092.037.21.1.3C24.481,116.318,24.6,116.34,24.645,116.439Z" transform="translate(-21.905 -107.585)" fill="#ff7474"/>
    <path id="Path_1368" data-name="Path 1368" d="M52.452,130.985l.307-.205c.106.181-.039.312-.046.46-.085.124-.193.236-.332.094C52.258,131.208,52.317,131.079,52.452,130.985Z" transform="translate(-48.189 -121.214)" fill="#ff7474"/>
    <path id="Path_1369" data-name="Path 1369" d="M47.687,120.63c-.124-.3.181-.289.3-.388s.19.024.213.147A.529.529,0,0,1,47.687,120.63Z" transform="translate(-43.93 -111.541)" fill="#ff7474"/>
    <path id="Path_1370" data-name="Path 1370" d="M51.831,190.238c.037.2-.026.3-.248.238-.035-.122-.123-.256-.1-.362.1-.41-.131-.624-.417-.822,0-.2,0-.2.341-.079a1.815,1.815,0,0,0,.29.164c.19.068.273.157.1.325C51.6,189.9,51.66,190.068,51.831,190.238Z" transform="translate(-47.052 -174.593)" fill="#ff7474"/>
    <path id="Path_1371" data-name="Path 1371" d="M44.884,181.924c-.1.074-.274-.158-.341.079a2.438,2.438,0,0,1-.6-.59c-.023-.181.031-.285.237-.239C44.3,181.539,44.636,181.691,44.884,181.924Z" transform="translate(-40.531 -167.305)" fill="#ff7474"/>
    <path id="Path_1372" data-name="Path 1372" d="M28.852,187.78c-.2-.048-.443-.06-.518-.325a.094.094,0,0,1,.134-.1c.225.1.511.117.649.315C29.181,187.758,28.967,187.761,28.852,187.78Z" transform="translate(-26.25 -172.956)" fill="#ff7474"/>
    <path id="Path_1373" data-name="Path 1373" d="M160,118.088c.378.049.492-.237.572-.5.035-.118-.017-.256.165-.256s.2.112.2.25c-.207.2-.335.452-.535.662s.144.4.2.612a.955.955,0,0,1-.011.1A.847.847,0,0,1,160,118.088Z" transform="translate(-146.702 -108.91)" fill="#ff7474"/>
    <path id="Path_1374" data-name="Path 1374" d="M47.3,164.22l.023.133c-.016.11-.006.23-.123.3-.212-.208-.216-.5-.308-.759-.03-.081-.049-.212.089-.231.107-.015.17.07.207.17C47.23,163.957,47.183,164.114,47.3,164.22Z" transform="translate(-43.208 -151.292)" fill="#ff7474"/>
    <path id="Path_1375" data-name="Path 1375" d="M74.442,205.164l-.11.141c-.1-.069-.3.264-.332-.085l.262-.17A.2.2,0,0,1,74.442,205.164Z" transform="translate(-68.028 -189.157)" fill="#ff7474"/>
    <path id="Path_1376" data-name="Path 1376" d="M160.047,144.055l-.584-.541a.875.875,0,0,1-.411-.813.2.2,0,0,1,.247-.17c.2.043.426.037.511.29.061.165.184.142.335.159.256.029.629-.072.681.365.012.221-.141.151-.25.134-.085-.014-.156-.126-.262-.048A.744.744,0,0,0,160.047,144.055Z" transform="translate(-145.824 -131.959)" fill="#ff7474"/>
    <path id="Path_1377" data-name="Path 1377" d="M56.124,142.612a.526.526,0,0,0,.262-.313c.25-.109.309.153.463.234a2.829,2.829,0,0,0,.264.218.33.33,0,0,1,.1.209c-.042.3-.239.237-.454.2.214.175.44-.038.641.032.17.034.341.071.386-.184a.35.35,0,0,1,.328-.287c.181.066.373.123.323.382a.991.991,0,0,1-.715.972,1.2,1.2,0,0,0-.715.8c-.269-.247-.232-.586-.341-.852-.023-.057.07-.162-.05-.2a.159.159,0,0,0-.118.019.141.141,0,0,0-.06.213c.054.091.176.207,0,.266-.122.042-.124-.122-.164-.2A1.952,1.952,0,0,1,56.124,142.612Z" transform="translate(-51.596 -131.728)" fill="#ff7474"/>
    <path id="Path_1378" data-name="Path 1378" d="M64.486,142.051a.426.426,0,0,1-.256-.17c-.085-.188-.125-.359.152-.411.17.336.441.056.66.1a.13.13,0,0,1,.072.085.319.319,0,0,1-.055.157c.047,0,.072-.049.118-.056.147-.023.3-.117.426.047.072.242.426.285.417.583l-.147-.018c-.043-.189-.137-.323-.354-.321C65.175,142.228,64.835,142.382,64.486,142.051Z" transform="translate(-59.033 -130.993)" fill="#ff7474"/>
    <path id="Path_1379" data-name="Path 1379" d="M88.169,155.657l-.17.079h-.663c-.126,0-.256.009-.256-.178A1.441,1.441,0,0,1,88.169,155.657Z" transform="translate(-79.994 -143.828)" fill="#ff7474"/>
    <path id="Path_1380" data-name="Path 1380" d="M88.141,155.067l-1.091-.1c.116-.15.284-.047.426-.085a.9.9,0,0,1,.675.093h0c.033.013.046.029.037.047s-.018.029-.028.029Z" transform="translate(-79.967 -143.239)" fill="#ff7474"/>
    <path id="Path_1381" data-name="Path 1381" d="M92.575,154.27l-.676-.093a.265.265,0,0,0-.009-.078C92.126,154.127,92.41,153.974,92.575,154.27Z" transform="translate(-84.394 -142.532)" fill="#ff7474"/>
    <path id="Path_1382" data-name="Path 1382" d="M81.137,197.852c-.085-.147-.124-.29-.007-.421.015-.016.1-.007.108.012C81.307,197.6,81.215,197.722,81.137,197.852Z" transform="translate(-74.483 -182.179)" fill="#ff7474"/>
    <path id="Path_1383" data-name="Path 1383" d="M68.961,191.334c-.085-.009-.182,0-.244-.081-.06-.185.059-.194.189-.193l.076.08C69,191.207,69.059,191.28,68.961,191.334Z" transform="translate(-63.18 -176.358)" fill="#ff7474"/>
    <path id="Path_1384" data-name="Path 1384" d="M8.02,71.849c-.217.419-.448.272-.681.017-.146.018-.131-.063-.1-.156a.67.67,0,0,0-.065-.371c-.028-.1.034-.256-.112-.292-.166-.043-.209.1-.256.221-.024.066-.062.14-.151.11a.232.232,0,0,1-.165-.227A5.239,5.239,0,0,1,6.447,70.1c.095-.433.106-.871-.412-1.124-.234-.115-.336-.968-.173-1.171.067-.085.145-.1.179.022s.04.256.2.3l.08.17a4.606,4.606,0,0,1,.519.6.371.371,0,0,0,.55.124.353.353,0,0,0,.085-.521,1.66,1.66,0,0,0-.317-.535h0c.009-.271.066-.286.378-.1a.6.6,0,0,1,.095.1,2.908,2.908,0,0,0,.446.549c.226.183.128.469.143.716a2.49,2.49,0,0,1-.072.456,2.176,2.176,0,0,1-.029.394c-.22.355-.016.735-.06,1.1a.717.717,0,0,0,.1.478C8.261,71.787,8.157,71.849,8.02,71.849Z" transform="translate(-5.621 -63.542)" fill="#ff7474"/>
    <path id="Path_1385" data-name="Path 1385" d="M131.066,143.651c.148.192.156.477.4.609.1.3.359.483.542.722.094.122.17.221.063.364a.43.43,0,0,1-.612-.208.664.664,0,0,0-.388-.3c-.184-.192-.4-.118-.613-.072h0l-.227.06a1.291,1.291,0,0,0-1.456-.557c-.229-.044-.111-.158-.023-.209a4.865,4.865,0,0,1,.523-.231c.106-.1.233-.052.356-.058a.807.807,0,0,0,.647-.231C130.637,143.107,130.78,143.13,131.066,143.651Z" transform="translate(-118.014 -132.608)" fill="#ff7474"/>
    <path id="Path_1386" data-name="Path 1386" d="M137.863,132.567a2.993,2.993,0,0,0-.256-.272c-.109-.085-.263-.124-.325.026-.25.61-.738.487-1.213.419v-.085c.209-.2.485-.078.719-.149.158-.08.159-.227.161-.375a.278.278,0,0,1,.042-.106c.164-.177.5-.214.467-.555.081-.176.309-.136.411-.281a.215.215,0,0,1,.076-.071l.519.645c-.13.094-.239-.054-.357-.02-.076-.063-.152-.125-.229-.187a.15.15,0,0,0-.244.17Q137.746,132.145,137.863,132.567Z" transform="translate(-124.811 -121.525)" fill="#ff7474"/>
    <path id="Path_1387" data-name="Path 1387" d="M125.042,140.1a1.431,1.431,0,0,1-.846.078c-.213-.141-.361-.043-.5.125a.713.713,0,0,1-.6.317l.835-.627c.063-.047.023-.1.01-.148a.189.189,0,0,1,.184-.074c.374.066-.06-.135.052-.154.055-.085.17-.114.2-.227a.3.3,0,0,1,.165-.043c.219.032.5-.085.6.239l-.007.089C124.923,139.783,125.02,139.95,125.042,140.1Z" transform="translate(-112.936 -129.052)" fill="#ff7474"/>
    <path id="Path_1388" data-name="Path 1388" d="M99.871,154.43a.116.116,0,0,1-.009-.076,2.161,2.161,0,0,0,1.305-.119,2,2,0,0,1,.667-.049C101.188,154.321,100.573,154.715,99.871,154.43Z" transform="translate(-91.685 -142.617)" fill="#ff7474"/>
    <path id="Path_1389" data-name="Path 1389" d="M31.6,167.632c-.4-.236-.405-.242-.095-.422.024.14.162.188.228.286C31.835,167.643,31.768,167.7,31.6,167.632Z" transform="translate(-28.948 -154.541)" fill="#ff7474"/>
    <path id="Path_1390" data-name="Path 1390" d="M150,159.131c.137-.177.363-.1.543-.17.206-.085.009.162.07.239A1.586,1.586,0,0,0,150,159.131Z" transform="translate(-137.554 -146.978)" fill="#ff7474"/>
    <path id="Path_1391" data-name="Path 1391" d="M101,209.312c.192-.205.192-.205.6-.062a1.528,1.528,0,0,1-.6.063Z" transform="translate(-92.728 -192.907)" fill="#ff7474"/>
    <path id="Path_1392" data-name="Path 1392" d="M131.911,202.673c.067-.017.133-.039.2-.051.089-.016.17-.13.265-.047a.17.17,0,0,1,.008.151c-.057.126-.176.118-.29.1a.265.265,0,0,1-.186-.156Z" transform="translate(-121.005 -186.866)" fill="#ff7474"/>
    <path id="Path_1393" data-name="Path 1393" d="M60.818,138.431c-.272-.035-.279.144-.269.335-.164-.07-.218-.281-.409-.316.024-.064.047-.129.07-.193a.22.22,0,0,0,.2-.159,1.409,1.409,0,0,1,1.107.17.12.12,0,0,1-.055.11C61.247,138.4,61.046,138.579,60.818,138.431Z" transform="translate(-55.349 -127.878)" fill="#ff7474"/>
    <path id="Path_1394" data-name="Path 1394" d="M96.893,107.263v.256a.246.246,0,0,0,.341.009.17.17,0,0,1,.228.028c.085.085.066.17.02.268a.487.487,0,0,1-.321.307c-.107.027-.223.033-.3.135a.433.433,0,0,1-.641-.016.664.664,0,0,0-.341-.148.351.351,0,0,1-.3-.4c.032-.239.2-.159.354-.1s.2-.053.225-.17a1.555,1.555,0,0,0,.005-.256c.005-.556.1-.633.657-.518C97.046,106.837,96.947,107.052,96.893,107.263Z" transform="translate(-87.769 -99.105)" fill="#ff7474"/>
    <path id="Path_1395" data-name="Path 1395" d="M99.889,66.917c-.208.055-.371.049-.324-.24a.7.7,0,0,0-.041-.573c-.058-.114-.158-.242-.055-.348a.34.34,0,0,1,.421-.009h0a.706.706,0,0,0,.413-.014c.341-.077.49.085.406.411-.007.027-.033.054-.031.078C100.731,66.814,100.411,66.984,99.889,66.917Z" transform="translate(-91.288 -61.658)" fill="#ff7474"/>
    <path id="Path_1396" data-name="Path 1396" d="M138.169,115.619l-.013.1a.269.269,0,0,1-.324-.194c-.085-.2-.222-.158-.369-.137a.591.591,0,0,0-.884-.045c-.073.045-.147.09-.232.023a.221.221,0,0,1,.026-.245c.03-.11.06-.221.09-.331.126-.212.331-.362.457-.575.256-.1.418.048.566.225A8.657,8.657,0,0,0,138.169,115.619Z" transform="translate(-125.041 -106.028)" fill="#ff7474"/>
    <path id="Path_1397" data-name="Path 1397" d="M63.622,104.33c-.325.722.077,1.193.567,1.63l.107.233a2.436,2.436,0,0,1,.116.908c-.029.213-.1.391-.38.281a2.393,2.393,0,0,1-1.08-.147l-.032-.027c.19-.216.436-.362.544-.674.058-.166.291-.033.375.147.059.126-.029.285.085.4a.861.861,0,0,0-.11-1.124,1.411,1.411,0,0,1-.463-1.093C63.33,104.63,63.244,104.362,63.622,104.33Z" transform="translate(-57.892 -97.017)" fill="#ff7474"/>
    <path id="Path_1398" data-name="Path 1398" d="M110.86,112.385c.113-.159.35-.095.464-.256.066-.094.147-.2.085-.3-.085-.141-.161,0-.239.032-.153.064-.277.066-.3-.143.068-.011.2-.02.2-.035.04-.681.555-.426.915-.469h.085c.045.152-.125.2-.158.314.151.03.24-.126.379-.119a.247.247,0,0,1,.227.175.366.366,0,0,0,.011.06.158.158,0,0,1-.049.1c-.108.036-.233-.029-.334.053-.324.311-.445-.025-.622-.236.041.614-.062.762-.56.852a.065.065,0,0,1-.1-.028Z" transform="translate(-101.748 -103.3)" fill="#ff7474"/>
    <path id="Path_1399" data-name="Path 1399" d="M99.68,92.4c-.129-.139-.184-.3-.026-.438a1.067,1.067,0,0,0,.256-.482c.158.124.2.426.5.156.1-.095.256.279.4.426s.055.321-.1.435c-.127.093-.314.123-.371-.024-.129-.341-.232-.015-.341-.01C99.917,92.3,99.835,92.166,99.68,92.4Z" transform="translate(-91.408 -85.262)" fill="#ff7474"/>
    <path id="Path_1400" data-name="Path 1400" d="M96.322,107.473l.1.025a.483.483,0,0,1-.792.095.738.738,0,0,0-.351-.117.439.439,0,0,1-.3-.57c.049-.249.208-.2.389-.106s.181-.07.187-.175c.009-.154-.02-.311,0-.463.035-.295.285-.4.687-.292a.061.061,0,0,1-.009.106c-.534-.053-.569-.015-.566.521,0,.272.036.58-.426.4-.212-.08-.182.11-.135.229A1.162,1.162,0,0,0,96.322,107.473Z" transform="translate(-87.21 -98.388)" fill="#ff7474"/>
    <path id="Path_1401" data-name="Path 1401" d="M131.64,88.494c-.138-.2-.256-.426-.573-.371-.161.026-.2-.131-.235-.247-.06-.17-.106-.381.053-.5.124-.1.222-.263.417-.256a.239.239,0,0,1,.019.239c-.13.413-.034.556.416.566.2,0,.341.023.311.269a.892.892,0,0,0-.108.352.135.135,0,0,1-.118.1Z" transform="translate(-119.968 -81.27)" fill="#ff7474"/>
    <path id="Path_1402" data-name="Path 1402" d="M74.335,136.9a3.678,3.678,0,0,1-.45.061c-.332.006-.108-.136-.055-.232.244-.294.67-.256.937-.516l.085-.078c.114,0,.262-.1.314.085.038.131-.085.184-.163.262A4.644,4.644,0,0,1,74.335,136.9Z" transform="translate(-67.761 -126.09)" fill="#ff7474"/>
    <path id="Path_1403" data-name="Path 1403" d="M142.98,104.319l.085-.069c.239.085.426.295.688.331l.141.1c-.005.109.085.29-.17.208-.094-.031-.177-.2-.285-.067s0,.23.072.341a.7.7,0,0,1,.065.193,1.007,1.007,0,0,0-.6-.165.9.9,0,0,1,.085-.426C143.141,104.595,142.968,104.476,142.98,104.319Z" transform="translate(-131.131 -96.944)" fill="#ff7474"/>
    <path id="Path_1404" data-name="Path 1404" d="M104.87,66.439c.02-.02.043-.06.058-.057.6.112.611-.315.7-.716.079-.346-.066-.4-.341-.358-.147.025-.292.13-.417-.04.205-.036.411-.078.618-.106.263-.035.372.1.319.347a2.286,2.286,0,0,0-.138.816c.018.136-.146.184-.277.2h-.074C105.186,66.406,105.017,66.483,104.87,66.439Z" transform="translate(-96.269 -61.181)" fill="#ff7474"/>
    <path id="Path_1405" data-name="Path 1405" d="M129.565,127.43c.078.208-.085.175-.194.191-.179.1-.312-.024-.457-.093-.085-.066-.164-.133-.124-.256l.093-.021c.155.067.216.054.268-.149.073-.284-.027-.624.241-.852.112.226.012.462.037.691C129.374,127.131,129.587,127.251,129.565,127.43Z" transform="translate(-118.142 -117.07)" fill="#ff7474"/>
    <path id="Path_1406" data-name="Path 1406" d="M129.93,103.871l.012-.095a.217.217,0,0,1,.067-.047c.571-.25.6-.542.085-.977.188-.31.341.032.511.03.053.11.106.22.16.33.188.371-.055.61-.282.826A.356.356,0,0,1,129.93,103.871Z" transform="translate(-119.194 -95.455)" fill="#ff7474"/>
    <path id="Path_1407" data-name="Path 1407" d="M78.612,106.36c.142.085.161.289.332.348.209.238.511.085.775.2-.129.066-.241.139-.261.287l-.158.107a.623.623,0,0,0-.74-.312c-.106-.134-.225-.046-.341-.02a.225.225,0,0,1-.1-.266C78.209,106.485,78.43,106.455,78.612,106.36Z" transform="translate(-71.788 -98.874)" fill="#ff7474"/>
    <path id="Path_1408" data-name="Path 1408" d="M75.738,127.156a1.721,1.721,0,0,1-.937.516l-.028-.037c-.021-.085.1-.085.091-.164a.241.241,0,0,1,.008-.073.358.358,0,0,0,.325-.443c-.025-.249-.041-.5-.061-.746a.762.762,0,0,1,.158.636C75.253,127.248,75.393,127.334,75.738,127.156Z" transform="translate(-68.733 -117.033)" fill="#ff7474"/>
    <path id="Path_1409" data-name="Path 1409" d="M126.3,109.129c.525.189.822-.085.832-.759a.489.489,0,0,1-.048.7c-.2.221-.391.426-.715.215a.721.721,0,0,0-.408-.078C126.049,109.077,126.183,109.145,126.3,109.129Z" transform="translate(-115.562 -100.713)" fill="#ff7474"/>
    <path id="Path_1410" data-name="Path 1410" d="M114.828,128.966c-.093.085-.187.163-.279.246-.162.147-.293.135-.388-.072l.492-.434a.184.184,0,0,1,.256.014C114.968,128.8,114.891,128.894,114.828,128.966Z" transform="translate(-104.767 -119.276)" fill="#ff7474"/>
    <path id="Path_1411" data-name="Path 1411" d="M101,97.683c0-.055.009-.11.009-.165,0-.136.029-.272.193-.262s.154.17.154.29a1.077,1.077,0,0,1-.037.2A.272.272,0,0,1,101,97.683Z" transform="translate(-92.728 -90.544)" fill="#ff7474"/>
    <path id="Path_1412" data-name="Path 1412" d="M99.285,65c-.326-.024-.526.014-.286.411a.54.54,0,0,1-.039.518c-.056-.14.027-.308-.085-.436h0c-.016-.053-.03-.107-.05-.158-.06-.147-.112-.321.03-.42a.308.308,0,0,1,.431.084Z" transform="translate(-90.682 -60.908)" fill="#ff7474"/>
    <path id="Path_1413" data-name="Path 1413" d="M86.565,79.973c0,.05-.005.1-.009.152l-.17.17c-.2.026-.4.214-.607.026C85.989,80.087,86.2,79.857,86.565,79.973Z" transform="translate(-78.805 -74.707)" fill="#ff7474"/>
    <path id="Path_1414" data-name="Path 1414" d="M138.561,110.26c.073.162-.049.286-.085.426a.957.957,0,0,1-.426.511Q138.3,110.731,138.561,110.26Z" transform="translate(-126.622 -102.442)" fill="#ff7474"/>
    <path id="Path_1415" data-name="Path 1415" d="M92.493,104.391c0,.09-.02.187-.118.2s-.176-.085-.2-.181a.135.135,0,0,1,.126-.179.155.155,0,0,1,.193.164Z" transform="translate(-84.647 -96.918)" fill="#ff7474"/>
    <path id="Path_1416" data-name="Path 1416" d="M118.377,104.469a.152.152,0,0,1-.17.147c-.134,0-.163-.1-.149-.2s.094-.136.187-.124a.148.148,0,0,1,.133.18Z" transform="translate(-108.33 -96.977)" fill="#ff7474"/>
    <path id="Path_1417" data-name="Path 1417" d="M120.106,128.389c.067-.17.027-.272-.176-.261l.085-.1c.129.023.324-.044.36.12S120.252,128.368,120.106,128.389Z" transform="translate(-110.046 -118.698)" fill="#ff7474"/>
    <path id="Path_1418" data-name="Path 1418" d="M109.87,106.4c0-.036.006-.072.009-.106.356.184.261.426.085.681C109.912,106.781,110.035,106.565,109.87,106.4Z" transform="translate(-100.843 -98.81)" fill="#ff7474"/>
    <path id="Path_1419" data-name="Path 1419" d="M134.789,126.052c-.071-.266.072-.511.085-.767l.085-.085.012.263a.568.568,0,0,1-.061.58.085.085,0,0,1-.121.009Z" transform="translate(-123.621 -116.109)" fill="#ff7474"/>
    <path id="Path_1420" data-name="Path 1420" d="M156,90.556l.085-.256c.114.01.246.045.211.176S156.122,90.615,156,90.556Z" transform="translate(-143.043 -84.182)" fill="#ff7474"/>
    <path id="Path_1421" data-name="Path 1421" d="M172.366,71.286a9.877,9.877,0,0,0-1,1.2,5.172,5.172,0,0,1-.755,1.022c-.1.148-.246.042-.341-.075a.825.825,0,0,0-1.193.341h0c-.17.3-.049.63-.072.946h0a.762.762,0,0,1,.015-1.211c.9-.651,1.8-1.294,2.7-1.946a3.691,3.691,0,0,0,.341-.313l.492-.312Z" transform="translate(-154.672 -66.471)" fill="#ff7474"/>
    <path id="Path_1422" data-name="Path 1422" d="M181.459,90.107a.334.334,0,0,0,.447-.141c.2-.283.431-.538.649-.806a.759.759,0,0,0,.014.106c-.008.049-.014.1-.021.146a1.145,1.145,0,0,0-.415.52,9.864,9.864,0,0,0-1.182,1.458c0-.041-.02-.1,0-.122C181.267,90.945,181.181,90.447,181.459,90.107Z" transform="translate(-165.861 -83.139)" fill="#ff7474"/>
    <path id="Path_1423" data-name="Path 1423" d="M21.356,51.152a.306.306,0,0,0,0-.062.221.221,0,0,0,.037-.05c.4.14.535.324.505.705-.017.21-.04.42-.061.63-.044.15.012.4-.289.3l-.01.008c-.24-.158-.22-.478-.411-.666a.366.366,0,0,1,.322-.443c.1-.022.212-.032.1-.17C21.44,51.35,21.317,51.312,21.356,51.152Z" transform="translate(-19.656 -48.267)" fill="#ff7474"/>
    <path id="Path_1424" data-name="Path 1424" d="M12.2,70.791c.106.164.207.334.32.493s.247.274.452.131c.31-.125.177-.336.127-.554-.043-.184-.191-.3-.228-.482a.883.883,0,0,1,.426.767c.038.233-.124.356-.316.449a.351.351,0,0,1-.457-.114,2.643,2.643,0,0,1-.5-.772Z" transform="translate(-11.337 -65.959)" fill="#ff7474"/>
    <path id="Path_1425" data-name="Path 1425" d="M20.063,60.209c.141-.01.115-.235.322-.214a.851.851,0,0,0,.089.88c-.114.009-.234-.333-.341.005C19.845,60.682,19.992,60.442,20.063,60.209Z" transform="translate(-18.594 -56.457)" fill="#ff7474"/>
    <path id="Path_1426" data-name="Path 1426" d="M22.319,52.36l.187.25a.22.22,0,0,1-.315-.085C22.139,52.426,22.229,52.378,22.319,52.36Z" transform="translate(-20.619 -49.474)" fill="#ff7474"/>
    <path id="Path_1427" data-name="Path 1427" d="M22.661,39.424a1,1,0,0,1,.012-.375c.186-.426-.023-.688-.332-.926a1.437,1.437,0,0,1-.079-1.2c.61.914.8,2.059,1.609,2.86.117-.462.308-.511.681-.183.463.413.471.463.166,1.13a.1.1,0,0,1-.061-.053c-.072-.237-.308-.292-.544-.128a.519.519,0,0,1-.517.019c-.1-.11-.217-.211-.318-.325a.539.539,0,0,1-.109-.456c-.027.015-.014.043-.027.061a.185.185,0,0,1-.225.148C22.635,39.888,22.779,39.6,22.661,39.424Z" transform="translate(-20.608 -35.349)" fill="#ff7474"/>
    <path id="Path_1428" data-name="Path 1428" d="M33.232,73.048c.256-.026.581.056.565-.38,0-.026.094-.085.125-.076.152.052.035.236.158.326.219-.044.13-.3.272-.449.223.278-.125.536.011.779a.054.054,0,0,1-.016.055c-.147.119-.491-.333-.505.17a1.045,1.045,0,0,1-.256.329c-.326.129-.09.44-.292.622.237.057.32-.12.465-.1l.085.165c.009.164.085.256.256.256l.25.093c.053.037.15.072.151.112,0,.1-.1.038-.15.055-.143.042-.293.066-.354.233l-.158.118c-.268.194-.537.382-.86.1-.1-.212-.36-.364-.242-.655a1.113,1.113,0,0,0,.17-.672,1.376,1.376,0,0,1,.066-.18,1.434,1.434,0,0,0,.066-.538C33.054,73.267,33.013,73.087,33.232,73.048Z" transform="translate(-30.252 -67.871)" fill="#ff7474"/>
    <path id="Path_1429" data-name="Path 1429" d="M75.885,69.289l-.783.353-.41-.1c-.319-.158-.329-.546-.566-.767a.275.275,0,0,1,.013-.237.154.154,0,0,1,.1-.053c.085-.028.129.185.232.035a.139.139,0,0,1,.043-.085c.25-.092.569.125.775-.17.4-.026.588.17.6.562C75.885,68.985,75.885,69.136,75.885,69.289Z" transform="translate(-68.125 -64.022)" fill="#ff7474"/>
    <path id="Path_1430" data-name="Path 1430" d="M64.518,86.562c-.285.115-.16.379-.209.579-.085.045-.085-.072-.15-.068L63.9,86.8c.341-.325.238-.784.356-1.176l.085-.092c.1-.1.056-.242.1-.359.1-.256.242-.375.492-.156h0c.045.053.141.085.072.182a.669.669,0,0,0-.127.092,1.116,1.116,0,0,1,.183-.125c.115.01.2.1.318.112.273.032.374.15.151.375-.122.122-.039.269-.085.4A1.183,1.183,0,0,0,64.518,86.562Z" transform="translate(-58.789 -79.249)" fill="#ff7474"/>
    <path id="Path_1431" data-name="Path 1431" d="M71.194,73.733c.185.094.406.166.324.445-.055.185.228.155.187.321a2.121,2.121,0,0,1-.866-.664l.033-.037C70.966,73.708,71.061,73.623,71.194,73.733Z" transform="translate(-65.137 -68.979)" fill="#ff7474"/>
    <path id="Path_1432" data-name="Path 1432" d="M76.085,86.4c-.027-.058-.055-.117-.085-.175.185.071.365.156.555.208.217.06.263.187.2.381-.279.042.011.391-.242.447a.544.544,0,0,1-.072-.191c.014-.4-.008-.451-.358-.669Z" transform="translate(-69.858 -80.45)" fill="#ff7474"/>
    <path id="Path_1433" data-name="Path 1433" d="M69.576,83.965c-.262-.085-.421-.019-.426.28,0,.118-.019.221-.165.234a.69.69,0,0,1,.118-.536C69.306,83.668,69.428,83.7,69.576,83.965Z" transform="translate(-63.429 -78.192)" fill="#ff7474"/>
    <path id="Path_1434" data-name="Path 1434" d="M133.969,64.7l.316-.276c.236-.032.472-.151.705.006.092.106.4.158.166.356-.3.256-.492.634-.858.823a.467.467,0,0,1-.153-.585.312.312,0,0,1,.051-.06c.041-.039,0,.025.033-.022-.015,0-.022.01-.036.014a.229.229,0,0,1-.233-.182A.711.711,0,0,0,133.969,64.7Z" transform="translate(-122.88 -60.444)" fill="#ff7474"/>
    <path id="Path_1435" data-name="Path 1435" d="M146.926,43.489a1.372,1.372,0,0,1,.248-1.016c.146-.164.2-.057.238.085a.3.3,0,0,1-.206.4c.031.17.331.074.279.351C147.4,43.756,147.4,43.773,146.926,43.489Z" transform="translate(-134.723 -40.354)" fill="#ff7474"/>
    <path id="Path_1436" data-name="Path 1436" d="M132.513,86.535c-.007-.08-.015-.24-.076-.205-.482.272-.642-.285-1.087-.35a.794.794,0,0,0,.48-.56c.458-.266.458-.266.762.453-.018.216.2.363.17.581C132.7,86.546,132.618,86.59,132.513,86.535Z" transform="translate(-120.493 -79.568)" fill="#ff7474"/>
    <path id="Path_1437" data-name="Path 1437" d="M129.319,104.15c.232.019.455.051.526.327.085.329-.212.5-.329.742-.055.114-.224-.057-.348-.045h0a1.311,1.311,0,0,1-.018-.856Z" transform="translate(-118.42 -96.852)" fill="#ff7474"/>
    <path id="Path_1438" data-name="Path 1438" d="M121.11,111.212c-.091.066-.181.135-.273.2-.061.044-.1.17-.2.085s-.18-.158-.164-.281.13-.079.208-.092a.216.216,0,0,0,.187-.151.1.1,0,0,1,.058-.02C121.189,110.888,121.2,111.01,121.11,111.212Z" transform="translate(-110.538 -103.06)" fill="#ff7474"/>
    <path id="Path_1439" data-name="Path 1439" d="M125.987,106.788c.012-.141-.026-.246-.187-.262l.349-.426c.17.282,0,.571.018.856Z" transform="translate(-115.416 -98.636)" fill="#ff7474"/>
    <path id="Path_1440" data-name="Path 1440" d="M44.532,96.436a.663.663,0,0,0-.117.045c-.08.049-.052.273-.222.162-.145-.094-.093-.208.023-.309.037-.032.04-.1.058-.153Z" transform="translate(-40.679 -89.561)" fill="#ff7474"/>
    <path id="Path_1441" data-name="Path 1441" d="M60.239,47.031h-.061a.887.887,0,0,1,.15-.681.413.413,0,0,1,.256.085c-.033.178.09.293.17.426H60.73C60.58,46.976,60.392,46.953,60.239,47.031Z" transform="translate(-55.375 -43.976)" fill="#ff7474"/>
    <path id="Path_1442" data-name="Path 1442" d="M62,41.873c-.112.051-.229.121-.256-.085v-.209c0-.07-.093-.2.085-.216.122-.008.179.062.181.177S62,41.758,62,41.873Z" transform="translate(-56.791 -39.414)" fill="#ff7474"/>
    <path id="Path_1443" data-name="Path 1443" d="M120.385,69.228a1.668,1.668,0,0,0,.08.666l-.187.17c-.245.146-.539.094-.805.214-.214.1-.42-.147-.532-.333a.687.687,0,0,1,.022-.758.392.392,0,0,1,.534-.085c.241.141.426.031.63-.043.129-.009.17.118.256.17Z" transform="translate(-109.047 -64.729)" fill="#ff7474"/>
    <path id="Path_1444" data-name="Path 1444" d="M61,51.963c.05-.383.314-.15.491-.17a2.019,2.019,0,0,0,.394.688c.233.237.175.576.3.852.024.011.033.025.03.041s-.01.026-.016.026v.263l-.321.066a5.226,5.226,0,0,1-.781-1.285A1.332,1.332,0,0,1,61,51.963Z" transform="translate(-56.136 -48.908)" fill="#ff7474"/>
    <path id="Path_1445" data-name="Path 1445" d="M74.9,68.753a.17.17,0,0,0-.014-.067c.11-.357.228-.009.341,0,.006.025.012.049.016.074.038.064.053.146-.02.17-.131.046-.176-.091-.256-.155a.413.413,0,0,0-.068-.022Z" transform="translate(-68.842 -64.262)" fill="#ff7474"/>
    <path id="Path_1446" data-name="Path 1446" d="M43,84.619c.032-.152.062-.3.256-.329C43.363,84.546,43.215,84.606,43,84.619Z" transform="translate(-39.669 -78.684)" fill="#ff7474"/>
    <path id="Path_1447" data-name="Path 1447" d="M142.839,99.345l.25-.085h.009c.085.241.1.511.329.681a.1.1,0,0,1,.02.072c-.354.147-.547-.038-.688-.331C142.661,99.544,142.51,99.388,142.839,99.345Z" transform="translate(-130.819 -92.379)" fill="#ff7474"/>
    <path id="Path_1448" data-name="Path 1448" d="M148.242,99.971c-.356-.109-.345-.4-.329-.681C148.107,99.476,148.123,99.748,148.242,99.971Z" transform="translate(-135.64 -92.406)" fill="#ff7474"/>
    <path id="Path_1449" data-name="Path 1449" d="M30.363,95.479c-.106.262.1.45.163.673-.032.038-.06.035-.085-.006s-.085-.107-.114-.1c-.115.025-.032.141-.074.205-.03.028-.053.021-.069-.015.013-.193-.111-.341-.154-.516a.618.618,0,0,1,.158-.588c.1-.035.165.017.214.1A.3.3,0,0,1,30.363,95.479Z" transform="translate(-27.785 -88.592)" fill="#ff7474"/>
    <path id="Path_1450" data-name="Path 1450" d="M31.7,108.21l.069.015c-.067.32.256.44.351.676.039.183.184.382-.078.52-.077-.072-.356.146-.256-.179-.044-.1.023-.234-.085-.319v-.047C31.922,108.654,31.563,108.432,31.7,108.21Z" transform="translate(-29.302 -100.567)" fill="#ff7474"/>
    <path id="Path_1451" data-name="Path 1451" d="M35.07,106.373a.316.316,0,0,0,.085.006c.309.261.57,0,.852-.079C35.633,106.706,35.4,106.724,35.07,106.373Z" transform="translate(-32.415 -98.819)" fill="#ff7474"/>
    <path id="Path_1452" data-name="Path 1452" d="M40.12,113.137c.17.035.41-.147.5.156C40.444,113.267,40.207,113.446,40.12,113.137Z" transform="translate(-37.034 -105.054)" fill="#ff7474"/>
    <path id="Path_1453" data-name="Path 1453" d="M61.823,110.041c.1-.085.095.058.15.068a1.434,1.434,0,0,0,.47.918c.426.341.334.805.313,1.25-.009.205-.18.233-.341.216-.185-.02-.164-.17-.152-.29.009-.1.054-.191.055-.286a.16.16,0,0,0-.159-.164c-.085-.007-.156.047-.143.118.08.44-.273.441-.532.54-.256-.08-.116-.155,0-.233.177-.118.576-.137.227-.5-.017-.017,0-.081.016-.113.05-.1.279-.146.124-.289s-.29.028-.44.122A6.522,6.522,0,0,0,61.823,110.041Z" transform="translate(-56.447 -102.217)" fill="#ff7474"/>
    <path id="Path_1454" data-name="Path 1454" d="M31.422,116.57c.256.044.18.18.085.319C31.247,116.847,31.417,116.692,31.422,116.57Z" transform="translate(-29.023 -108.214)" fill="#ff7474"/>
    <path id="Path_1455" data-name="Path 1455" d="M92.569,137.479a.631.631,0,0,0-.473.148,1.037,1.037,0,0,1-.9.1c-.316-.1-.6-.321-.958-.256a.143.143,0,0,1-.151-.124c-.026-.129.055-.208.147-.283a1.633,1.633,0,0,1,2.493-.024c.106.085.268.164.212.33C92.878,137.56,92.7,137.471,92.569,137.479Z" transform="translate(-82.742 -126.428)" fill="#ff7474"/>
    <path id="Path_1456" data-name="Path 1456" d="M128.31,140.37l.406.17c.078.158.426.021.359.224s-.308.045-.474.021a.832.832,0,0,0-.122,0c-.117-.124-.325-.1-.42-.256C128.11,140.424,128.22,140.413,128.31,140.37Z" transform="translate(-117.483 -129.987)" fill="#ff7474"/>
    <path id="Path_1457" data-name="Path 1457" d="M123.88,136.36c-.019.156-.134.158-.25.155-.039-.012-.092-.011-.117-.037-.115-.121-.394-.206-.261-.406.155-.233.295.078.453.1Z" transform="translate(-113.053 -125.977)" fill="#ff7474"/>
    <path id="Path_1458" data-name="Path 1458" d="M90,129.225a.691.691,0,0,1,.693.3c.062.07.146.154.057.256s-.177.043-.256-.026A1.967,1.967,0,0,1,90,129.225Z" transform="translate(-82.665 -119.78)" fill="#ff7474"/>
    <path id="Path_1459" data-name="Path 1459" d="M67.91,148.29a1.838,1.838,0,0,0,1.033,0c-.047.1-.234.085-.207.233.106.56-.221.358-.481.28-.19-.041-.222-.19-.24-.349Z" transform="translate(-62.457 -137.232)" fill="#ff7474"/>
    <path id="Path_1460" data-name="Path 1460" d="M62.015,149.6l.24.349c-.245-.047-.511.177-.746-.078-.072-.079-.22-.123-.129-.256s.187-.047.269.043C61.8,149.817,61.929,149.84,62.015,149.6Z" transform="translate(-56.457 -138.381)" fill="#ff7474"/>
    <path id="Path_1461" data-name="Path 1461" d="M27.125,67.413c-.155.17-.049.371-.085.555-.026.151.095.333-.092.45-.18-.205-.079-.457-.116-.659-.085.187.17.553-.281.6a2.418,2.418,0,0,0,.085-.782c-.011-.18-.04-.313-.245-.377-.256-.085-.188-.4-.36-.558.256-.014.123-.217.165-.336l.256.511c.166.045.35.063.421.262C26.977,67.18,27.2,67.183,27.125,67.413Z" transform="translate(-24.145 -62.236)" fill="#ff7474"/>
    <path id="Path_1462" data-name="Path 1462" d="M32.089,78.773c.256-.1.141-.331.178-.511s-.064-.361.219-.572v1.139l-.085.085c-.075.107-.032.273-.17.348l-.151-.078C32.083,79.049,32.087,78.909,32.089,78.773Z" transform="translate(-29.679 -72.646)" fill="#ff7474"/>
    <path id="Path_1463" data-name="Path 1463" d="M134.814,125.448a.383.383,0,0,0,.085-.006,1.1,1.1,0,0,1,.818-.317.221.221,0,0,0,.246-.17.17.17,0,0,1,.14-.1l.143-.319c.25.17.244.534.524.658.006.072.189.225-.076.177a.48.48,0,0,0-.341.076.662.662,0,0,1-.624.152.427.427,0,0,0-.485.286l-.175-.024C134.937,125.756,134.737,125.687,134.814,125.448Z" transform="translate(-123.646 -115.505)" fill="#ff7474"/>
    <path id="Path_1464" data-name="Path 1464" d="M139.807,135.649c-.062-.369.031-.44.379-.4a3.778,3.778,0,0,0,.73-.042c.17.486-.233.483-.505.592C140.259,135.539,139.983,135.788,139.807,135.649Z" transform="translate(-128.213 -125.266)" fill="#ff7474"/>
    <path id="Path_1465" data-name="Path 1465" d="M143.933,143.054c-.261-.068-.187-.3-.17-.448.009-.089.162.051.256.024C144.236,142.821,144.1,142.942,143.933,143.054Z" transform="translate(-131.828 -132.005)" fill="#ff7474"/>
    <path id="Path_1466" data-name="Path 1466" d="M76.1,103.556c.047.354-.315.179-.426.329a.2.2,0,0,1-.256.032c-.163-.25.085-.365.175-.532C75.851,103.18,75.975,103.364,76.1,103.556Z" transform="translate(-69.277 -96.07)" fill="#ff7474"/>
    <path id="Path_1467" data-name="Path 1467" d="M81.913,111.818c.256-.3.5-.009.735.028.191.029-.005.213.035.322-.159.2-.248.021-.354-.066-.085-.141-.211-.041-.319-.058a.289.289,0,0,1-.2-.129C81.807,111.842,81.827,111.8,81.913,111.818Z" transform="translate(-75.174 -103.745)" fill="#ff7474"/>
    <path id="Path_1468" data-name="Path 1468" d="M75.11,105.3c.12.006.262-.051.328.112a.325.325,0,0,0-.319.047c-.215.126-.451.24-.648,0a.805.805,0,0,1-.132-.832.365.365,0,0,1,.256-.256c-.019.181-.224.3-.17.5C74.573,105.142,74.694,105.456,75.11,105.3Z" transform="translate(-68.282 -97.054)" fill="#ff7474"/>
    <path id="Path_1469" data-name="Path 1469" d="M136.991,126.466c.121.239.085.4-.219.334a.737.737,0,0,0-.776.256c-.077.09-.1-.018-.118-.08a1.137,1.137,0,0,1,.1-.584l.17-.1A.676.676,0,0,1,136.991,126.466Z" transform="translate(-124.63 -117.04)" fill="#ff7474"/>
    <path id="Path_1470" data-name="Path 1470" d="M139.916,124.445a3.084,3.084,0,0,0-.846-.17c.129-.46.511-.17.761-.23.224-.057.157.192.175.328Z" transform="translate(-127.555 -115.019)" fill="#ff7474"/>
    <path id="Path_1471" data-name="Path 1471" d="M109.149,97.622c-.012.133-.078.225-.21.221s-.149-.111-.149-.216c0-.124.049-.234.182-.238S109.149,97.5,109.149,97.622Z" transform="translate(-99.855 -90.667)" fill="#ff7474"/>
    <path id="Path_1472" data-name="Path 1472" d="M76.731,110.706c-.462.293-.643.18-.681-.426h.25c0,.095-.009.194.085.262a.17.17,0,0,1,.17.075A.215.215,0,0,1,76.731,110.706Z" transform="translate(-69.904 -102.46)" fill="#ff7474"/>
    <path id="Path_1473" data-name="Path 1473" d="M80.06,110.647l-.17-.075c0-.159.046-.3.241-.24.156.044.049.153.022.237Z" transform="translate(-73.417 -102.496)" fill="#ff7474"/>
    <path id="Path_1474" data-name="Path 1474" d="M32.42,66.967c-.038-.085-.112-.17-.009-.263a.124.124,0,0,1,.185,0c.1.093.026.177-.011.264a.1.1,0,0,1-.164,0Z" transform="translate(-29.934 -62.558)" fill="#ff7474"/>
    <path id="Path_1475" data-name="Path 1475" d="M46.458,69.347a.119.119,0,0,1-.128.129.136.136,0,0,1-.149-.123.115.115,0,0,1,.1-.152A.162.162,0,0,1,46.458,69.347Z" transform="translate(-42.574 -64.88)" fill="#ff7474"/>
    <path id="Path_1476" data-name="Path 1476" d="M31.223,70.24h.164c-.119.17.113.278.085.434l-.423-.258a.17.17,0,0,0,.173-.175Z" transform="translate(-28.737 -65.831)" fill="#ff7474"/>
    <path id="Path_1477" data-name="Path 1477" d="M33.86,92.418a.435.435,0,0,1,.17-.348c-.04.208.236.491-.146.618Z" transform="translate(-31.308 -85.801)" fill="#ff7474"/>
    <path id="Path_1478" data-name="Path 1478" d="M75.88,71.246c.09-.037.2.273.275-.016.066.062.2.147.085.219C76.053,71.561,75.929,71.44,75.88,71.246Z" transform="translate(-69.748 -66.737)" fill="#ff7474"/>
    <path id="Path_1479" data-name="Path 1479" d="M73.727,88.23a.139.139,0,0,1-.018.037c-.076.085-.032.264-.2.282a.085.085,0,0,1-.085-.108.256.256,0,0,1,.3-.212Z" transform="translate(-67.5 -82.283)" fill="#ff7474"/>
    <path id="Path_1480" data-name="Path 1480" d="M136.988,68.787c-.005-.133,0-.263.188-.228a.13.13,0,0,1,.116.179C137.223,68.914,137.1,68.834,136.988,68.787Z" transform="translate(-125.65 -64.287)" fill="#ff7474"/>
  </g>
</svg>
