<svg xmlns="http://www.w3.org/2000/svg" width="65.129" height="71.065" viewBox="0 0 65.129 71.065">
  <g id="Component_180_1" data-name="Component 180 – 1" opacity="0.2">
    <path id="Subtraction_379" data-name="Subtraction 379" d="M0,61.5H0c.061-.135,6.313-15,6.313-30.136C6.313,16.08.068.157,0,0A88.648,88.648,0,0,0,23.579,5.185l-3.916,6.988L30.11,7V17.556h6.143V7L46.7,12.173,42.437,4.568A128.1,128.1,0,0,0,64.016,0c-.043.159-4.567,16.289-4.567,31.367,0,15.119,5.449,29.523,5.681,30.129l-.049-.016c-1.792-.576-17.949-5.631-33.056-5.631C16.116,55.851.159,61.447,0,61.5ZM32.464,35.475a22.628,22.628,0,0,1,6.229,1.063s0-.006-.007-.012l0-.013a18.185,18.185,0,0,1-1.057-5.645,24.824,24.824,0,0,1,.857-5.892v-.009s-.007,0-.017.007a24.538,24.538,0,0,1-6,1.009c-.144,0-.285.006-.427.006a16.921,16.921,0,0,1-5.591-1.022s0,0,0,.012l.006.014a18.8,18.8,0,0,1,1.172,5.875,16.641,16.641,0,0,1-1.184,5.665l.026-.007A20.693,20.693,0,0,1,32.464,35.475Z" transform="translate(0 9.561)" fill="#50c774" opacity="0.75"/>
    <path id="Union_111" data-name="Union 111" d="M8.848,26.292V14.639L0,19.121,11.061,0,22.12,19.121l-8.848-4.483V26.292Z" transform="translate(22.119)" fill="#50c774" opacity="0.75"/>
  </g>
</svg>
