<svg id="Component_68_3" data-name="Component 68 – 3" xmlns="http://www.w3.org/2000/svg" width="84.002" height="73.176" viewBox="0 0 84.002 73.176">
  <path id="Subtraction_212" data-name="Subtraction 212" d="M36.588,73.176a36.6,36.6,0,0,1-14.242-70.3A36.6,36.6,0,0,1,50.829,70.3,36.359,36.359,0,0,1,36.588,73.176Zm0-66.782A30.194,30.194,0,1,0,66.781,36.588,30.228,30.228,0,0,0,36.588,6.394Z" transform="translate(5.413 0)" fill="#50c774" opacity="0.15"/>
  <path id="Subtraction_214" data-name="Subtraction 214" d="M24.51,49.021A24.517,24.517,0,0,1,14.97,1.926,24.517,24.517,0,0,1,34.051,47.095,24.356,24.356,0,0,1,24.51,49.021Zm0-38.364a13.854,13.854,0,1,0,0,27.707,13.912,13.912,0,0,0,9.244-3.512,13.48,13.48,0,0,0,4.492-8.524,15,15,0,0,0,.118-1.817A13.854,13.854,0,0,0,24.511,10.657Zm0,17.051a3.2,3.2,0,1,1,3.2-3.2A3.2,3.2,0,0,1,24.511,27.708Z" transform="translate(17.492 12.077)" fill="#50c774" opacity="0.15"/>
  <path id="Path_571" data-name="Path 571" d="M0,0,10.657,18.281l9.83,23.5L7.97,20.833Z" transform="translate(76.658 0.717) rotate(69)" fill="#fff" opacity="0.15"/>
  <path id="Path_572" data-name="Path 572" d="M0,41.779,10.657,23.5,20.486,0,7.97,20.946Z" transform="translate(37.656 57.491) rotate(-69)" fill="#fff" opacity="0.15"/>
  <path id="Path_573" data-name="Path 573" d="M0,41.779,10.657,23.5,20.486,0,7.97,20.946Z" transform="translate(46.345 15.688) rotate(111)" fill="#fff" opacity="0.15"/>
  <path id="Path_574" data-name="Path 574" d="M0,0,10.657,18.281l9.83,23.5L7.97,20.832Z" transform="translate(7.344 72.464) rotate(-111)" fill="#fff" opacity="0.15"/>
</svg>
