<svg xmlns="http://www.w3.org/2000/svg" width="68.345" height="51.966" viewBox="0 0 68.345 51.966">
  <g id="Component_76_1" data-name="Component 76 – 1" opacity="0.15">
    <rect id="Rectangle_917" data-name="Rectangle 917" width="17.694" height="1.712" rx="0.856" transform="translate(9.525 28.217) rotate(43)" fill="#50c774"/>
    <path id="Subtraction_184" data-name="Subtraction 184" d="M3.4,36.391a.567.567,0,0,1-.4-.167L.167,33.4a.57.57,0,0,1,0-.807L31.5,1.271l.973,5.4L31.963.811,32.77,0a.014.014,0,0,1,.01,0c.012,0,.024.019.037.056a17.986,17.986,0,0,1,.192,4.239c-.093,1.778-.424,4.079-1.475,4.949C29.448,10.97,4.056,35.972,3.8,36.224A.567.567,0,0,1,3.4,36.391Z" transform="translate(14.495)" fill="#50c774"/>
    <path id="Path_503" data-name="Path 503" d="M12.808.312c.088,0,.159.147.159.328v2.3c0,.181-.071.328-.159.328L0,3.26C-.084,3.26,1.3-.143,2.061,0S12.808.312,12.808.312Z" transform="translate(4.08 43.507) rotate(-45)" fill="#50c774"/>
    <path id="Path_500" data-name="Path 500" d="M2.033.417a1.237,1.237,0,0,1,1.852,0L5.771,2.95c.417.56-.1,1.263-.926,1.263L2.967,3.3l-1.893.913c-.827,0-1.343-.7-.926-1.263Z" transform="translate(8.901 36.96) rotate(48)" fill="#50c774"/>
    <path id="Path_502" data-name="Path 502" d="M2.033.417a1.237,1.237,0,0,1,1.852,0L5.771,2.95c.417.56-.1,1.263-.926,1.263L2.967,3.3l-1.893.913c-.827,0-1.343-.7-.926-1.263Z" transform="translate(12.326 34.106) rotate(48)" fill="#50c774"/>
    <path id="Path_499" data-name="Path 499" d="M1.319,0,3.662.4c.946,0,.625,1.725.625,2.671L6.608,6.248A1.712,1.712,0,0,1,4.9,7.961H1.712A1.712,1.712,0,0,1,0,6.248V1.273C0,.328.373,0,1.319,0Z" transform="translate(6.008 40.614) rotate(49)" fill="#50c774"/>
    <rect id="Rectangle_917-2" data-name="Rectangle 917" width="17.694" height="1.712" rx="0.856" transform="translate(59.987 30.611) rotate(137)" fill="#50c774"/>
    <path id="Subtraction_184-2" data-name="Subtraction 184" d="M3.4,0a.567.567,0,0,0-.4.167L.167,2.993a.57.57,0,0,0,0,.807L31.5,35.121l.973-5.4-.513,5.864.807.806a.014.014,0,0,0,.01,0c.012,0,.024-.019.037-.056a17.986,17.986,0,0,0,.192-4.239c-.093-1.778-.424-4.079-1.475-4.949C29.448,25.422,4.056.42,3.8.167A.567.567,0,0,0,3.4,0Z" transform="translate(53.85 37.533) rotate(180)" fill="#50c774"/>
    <path id="Path_503-2" data-name="Path 503" d="M12.808,2.955c.088,0,.159-.147.159-.328V.328C12.966.147,12.9,0,12.808,0L0,.007c-.088,0,1.3,3.4,2.057,3.255S12.808,2.955,12.808,2.955Z" transform="translate(61.954 46.958) rotate(-135)" fill="#50c774"/>
    <path id="Path_500-2" data-name="Path 500" d="M2.033,3.8a1.237,1.237,0,0,0,1.852,0L5.771,1.263C6.188.7,5.672,0,4.845,0L2.967.913,1.074,0C.246,0-.269.7.148,1.263Z" transform="translate(62.574 40.921) rotate(132)" fill="#50c774"/>
    <path id="Path_502-2" data-name="Path 502" d="M2.033,3.8a1.237,1.237,0,0,0,1.852,0L5.771,1.263C6.188.7,5.672,0,4.845,0L2.967.913,1.074,0C.246,0-.269.7.148,1.263Z" transform="translate(59.149 38.067) rotate(132)" fill="#50c774"/>
    <path id="Path_499-2" data-name="Path 499" d="M1.319,7.961l2.343-.4c.946,0,.625-1.725.625-2.671L6.608,1.712A1.712,1.712,0,0,0,4.9,0H1.712A1.712,1.712,0,0,0,0,1.712V6.687C0,7.633.373,7.961,1.319,7.961Z" transform="translate(68.345 46.978) rotate(131)" fill="#50c774"/>
  </g>
</svg>
