<svg id="Component_178_1" data-name="Component 178 – 1" xmlns="http://www.w3.org/2000/svg" width="11.5" height="10.868" viewBox="0 0 11.5 10.868">
  <path id="bear-head-svgrepo-com" d="M4.209,6.33v.332l.494.286a.212.212,0,0,1,.077.288.209.209,0,0,1-.182.106.207.207,0,0,1-.1-.028L4,7.027l-.494.286a.208.208,0,0,1-.285-.078A.212.212,0,0,1,3.3,6.948l.494-.286V6.33a.366.366,0,0,1-.044-.037l-.6-.6a.365.365,0,0,1-.081-.4A.36.36,0,0,1,3.4,5.074H4.6a.36.36,0,0,1,.334.226.365.365,0,0,1-.081.4l-.6.6A.361.361,0,0,1,4.209,6.33ZM7.382,3.31c.231.6.957,2.741.134,3.77A4.96,4.96,0,0,1,4.858,8.568c-.086.023-.16.042-.2.057A2.265,2.265,0,0,1,4,8.754a2.267,2.267,0,0,1-.654-.129c-.045-.015-.119-.034-.2-.057A4.96,4.96,0,0,1,.484,7.08c-.823-1.03-.1-3.166.134-3.77A1.478,1.478,0,0,1,0,2.2,1.448,1.448,0,0,1,1.19.754h.023c.389.014.714.424.885.69a1.061,1.061,0,0,1,.558-.188H5.344a1.061,1.061,0,0,1,.558.188c.171-.266.5-.677.885-.69H6.81A1.448,1.448,0,0,1,8,2.2,1.478,1.478,0,0,1,7.382,3.31Zm-4.759,1.1a.609.609,0,0,0,.587-.456.211.211,0,0,0-.09-.232L2.48,3.312a.208.208,0,0,0-.247.016.614.614,0,0,0,.39,1.082Zm2.84,1.767a1.766,1.766,0,0,0-.77-1.463,1.156,1.156,0,0,0-1.385,0,1.766,1.766,0,0,0-.77,1.463A1.485,1.485,0,0,0,3.7,7.647a1.015,1.015,0,0,0,.608,0A1.485,1.485,0,0,0,5.463,6.177ZM5.984,3.8a.613.613,0,0,0-.218-.47.208.208,0,0,0-.247-.016l-.641.411a.211.211,0,0,0-.09.232.607.607,0,0,0,1.2-.157Z" transform="translate(1.5 -0.754)" fill="#236cd9"/>
  <line id="Line_745" data-name="Line 745" x2="11.5" transform="translate(0 10.368)" fill="none" stroke="#e35d5d" stroke-width="1"/>
</svg>
