<svg xmlns="http://www.w3.org/2000/svg" width="17" height="17" viewBox="0 0 17 17">
  <path id="Union_147" data-name="Union 147" d="M-3348.379-709.005a.846.846,0,0,1-.274-.116h0c-.214-.114-.141-.322-.143-.5-.01-1.318-.033-2.637,0-3.954.012-.478-.092-.649-.6-.635-1.275.034-2.552.018-3.829,0-.2,0-.456.112-.612-.138v0l0,.012a.122.122,0,0,1-.044-.108s0-.005,0-.008a1.364,1.364,0,0,1-.11-.773q-.011-2.345,0-4.686c-.01-.284-.048-.587.242-.781a1.584,1.584,0,0,1,.849-.1c.117.007.234.015.35.012,1.247-.03,2.493-.033,3.739-.049-.156-1.565-.044-3.136-.056-4.7,0-.345.256-.464.545-.465,1.878-.007,3.756,0,5.636,0,.427,0,.55.249.547.651-.019,1.508-.02,3.016-.026,4.525l.005.006c1.406.01,2.811.018,4.217.033.238,0,.5-.074.709.118h0c.258.124.236.364.236.586v5.176a.713.713,0,0,1-.247.659,21.8,21.8,0,0,1-2.665.068c-.472-.007-.945-.014-1.418-.005-.87.016-.854,0-.849.88.008,1.221-.013,2.441,0,3.662,0,.41-.143.637-.56.638Q-3345.559-709-3348.379-709.005Zm3.887-10.03c.108-.26.385-.3.635-.33.464-.056.936-.047,1.4-.066v.005l.006-.005a2.169,2.169,0,0,0,.25-.013.781.781,0,0,1,.639.126.814.814,0,0,1,.1,0c.076,0,.152,0,.185-.033.408-.451.791-.287,1.177.02l.154.041c.292-.14.616-.536.819.022a.939.939,0,0,1,1.042-.294.552.552,0,0,0,.391-.048c.044-.017.086-.033.13-.045a.568.568,0,0,1,.043-.7.289.289,0,0,1-.07.053,21.618,21.618,0,0,1-2.537.063c-.491-.007-.982-.014-1.472,0-.248.007-.5,0-.745,0-.436-.1-.5-.445-.511-.815-.035-1.074,0-2.151-.018-3.225-.011-.911-.148-1.053-1.043-1.062q-1.581-.012-3.163,0c-.861.007-1.021.166-1.033,1.011-.015,1.034.015,2.068-.015,3.109-.023.87-.2,1.067-1.061,1.088-1.178.03-2.362.018-3.536,0a1.3,1.3,0,0,1-.62-.1.588.588,0,0,1-.131.788.324.324,0,0,1,.048.175.314.314,0,0,1,.053.244h.237a1.365,1.365,0,0,0,.015-.264.949.949,0,0,1,.616-.112l.006,0c.221.024.332.174.137.3a.953.953,0,0,0-.1.074h.355c.154-.116.437-.157.581-.275.079.047.1.173.137.275h.456c.178-.194.3-.549.662-.163a.2.2,0,0,0,.1-.013.189.189,0,0,1,.18,0,.377.377,0,0,1,.048.047c.4.053.681-.235,1.019-.361.392.19.544.278.487.49h.162c-.083-.164.1-.239.344-.247.167.107.136-.052.17-.124a.5.5,0,0,1,.711.2c.193-.163.343-.01.506.065s.356.094.439-.081c.228-.482.566-.356.921-.208h0a.964.964,0,0,1,.2.227c.07.039.146.084.229.134l.04.037Z" transform="translate(3353.999 725.999)" fill="#ff8080"/>
</svg>
