<svg xmlns="http://www.w3.org/2000/svg" width="71.887" height="78.665" viewBox="0 0 71.887 78.665">
  <g id="Component_109_100" data-name="Component 109 – 100" opacity="0.25">
    <path id="Subtraction_236" data-name="Subtraction 236" d="M8.248,78.665c-.861,0-2.648-.946-4.782-2.532C1.6,74.744.112,73.337.01,72.861-.1,72.349.694,71.118,2.435,69.1c1.545-1.8,3.678-4.034,5.741-6.2l.028-.03.068-.071a76.189,76.189,0,0,1,8.548-7.616l-1.5-1.722a2.392,2.392,0,1,1,3.61-3.138l1.557,1.791.729-.614a14.158,14.158,0,0,0,3.194,2.15,15.808,15.808,0,0,0,3.812,1.221c-1.468,1.069-2.6,1.875-3.286,2.362l1.211,1.392a2.392,2.392,0,1,1-3.61,3.138L21.525,60.6a40.257,40.257,0,0,0-7.854,7.6A26.123,26.123,0,0,0,8.844,78.26.534.534,0,0,1,8.248,78.665ZM4.591,70.116a.321.321,0,0,0-.124.022,5.881,5.881,0,0,0-1.423,1.107,3.879,3.879,0,0,0-.977,1.273c-.043.25.239.33.705.461l.011,0a5.955,5.955,0,0,1,1.838.79A8.2,8.2,0,0,1,5.95,75c.511.547.953,1.02,1.377,1.02a.639.639,0,0,0,.423-.172c.411-.349.867-1.129.7-2.864a5.628,5.628,0,0,0-1.616-1.6A5.868,5.868,0,0,0,4.591,70.116ZM17.276,51.2a.717.717,0,0,0-.55,1.179l6.922,8.249a.717.717,0,0,0,1.1-.923l-6.921-8.249A.717.717,0,0,0,17.276,51.2Zm.462,5.037a.488.488,0,0,0-.293.112.476.476,0,0,0-.059.673L19.7,59.777a.478.478,0,0,0,.844-.314l-2.8-3.225h0Zm11.125-1.833h0c-.987-.228-2.484-.654-4.45-1.265a17.756,17.756,0,0,1-2.826-1.951c2.391-2.022,6.188-5.266,10.7-9.252a16.243,16.243,0,0,0,.167,4.576,4.246,4.246,0,0,0,.579,2.649,1.245,1.245,0,0,0,.378.318,11.179,11.179,0,0,0,.547,1.135c-1.692,1.281-3.406,2.555-5.094,3.79Zm5.608-4.18h0c-.089-.19-.184-.4-.282-.612a3.5,3.5,0,0,0,1.316-.487l2.368-2.019.017-.015c5.773-4.922,15.435-13.159,17.068-14.815a1.1,1.1,0,0,0,.279-.833c-.082-1.478-2.409-3.552-2.433-3.573l-.392.291c.327.273,1.961,1.7,1.969,2.758a.841.841,0,0,1-.316.678c-.1.335-15.793,13.986-18.938,16.719l-.108.094a1.468,1.468,0,0,1-.853.416.617.617,0,0,1-.385-.132c-.168-.384-.346-.8-.53-1.232-.03-.19-.052-.4-.066-.628,0-1.023.045-1.233.112-1.233.032,0,.07.05.113.108l.024.032c.057.073.118.14.185.14.048,0,.093-.035.139-.106a3.333,3.333,0,0,0,.2-.8l-1.2-1.231c0,.015-.033.164-.07.382a9.176,9.176,0,0,1,.243-2.756c.489-.434.991-.88,1.492-1.327,7.5-6.684,17.819-16.232,24.416-23.764C70.3,1.483,71.252.011,71.258,0l0,.006A14.961,14.961,0,0,1,71.7,2.232a23.882,23.882,0,0,1,.017,5.83,25.913,25.913,0,0,1-2.365,8.126,31.626,31.626,0,0,1-6.708,9.122A124.908,124.908,0,0,1,51.322,36.5c-3.723,3.3-7.988,6.838-12.676,10.509-1.348,1.056-2.752,2.139-4.173,3.218ZM68.392,5.573a11.454,11.454,0,0,1-1.129,2.244c-.94,1.628-2.878,4.726-6.768,10.242-9.356,9.079-26.541,24.423-26.714,24.577l.944,1.2c.134-.117,14.959-13.074,24.039-21.9C63.77,16.764,66.122,12.591,67.213,10a12.669,12.669,0,0,0,1.179-4.427ZM54.113,26.413l-.472.451.008.007A18.781,18.781,0,0,0,55.3,28.179a6.209,6.209,0,0,0,2.918,1.294,1.139,1.139,0,0,0,.8-.283,13.333,13.333,0,0,0,1.989-2.208l-.2.132a9.728,9.728,0,0,1-2.378,1.876,1.083,1.083,0,0,1-.34.052,5.035,5.035,0,0,1-2.554-1.315,15.936,15.936,0,0,1-1.417-1.315Z" fill="#ff8282"/>
    <path id="Subtraction_235" data-name="Subtraction 235" d="M43.774,62.111h0a12.751,12.751,0,0,1-8.385-2.99,13.6,13.6,0,0,1-3.035-3.725,18.079,18.079,0,0,1-1.893-5.2,6.446,6.446,0,0,1-1.357.135,11.371,11.371,0,0,1-4.416-1.008,11.538,11.538,0,0,1-3.921-2.733A6.139,6.139,0,0,1,19,41.832a3.879,3.879,0,0,0,1.032.711,4.532,4.532,0,0,0,1.86.609.863.863,0,0,0,.764-.342c.325-.474.214-1.433-.332-2.85a6.513,6.513,0,0,1-2.752.759,7.961,7.961,0,0,1-3.207-.931A6.311,6.311,0,0,1,12.9,36.532c-.049-.094-.095-.181-.141-.266-.035-.065-.08-.143-.133-.233a5.5,5.5,0,0,1-.837-4.289,3.075,3.075,0,0,1,1.037-1.712c.384-.349.662-.6.425-1.582.325-.829-1.569-3.253-3.215-5.142-1.788-2.05-3.669-3.92-3.688-3.939l.142.075c2.5,1.33,4.478,2.407,5.7,3.076.573.433.967.7,1.255.9.8.548.863.592,1.867,2.077a4.16,4.16,0,0,1,.577,3.89c-.084.4-.179.86-.25,1.375a6.116,6.116,0,0,0,1.642,4.269,5.686,5.686,0,0,0,4.333,2.059,6.408,6.408,0,0,0,1.542-.2,2.642,2.642,0,0,0,.186-2.173,1.276,1.276,0,0,0-.5-.583l.015,0c.236-.022.5-.034.761-.034s.528.012.777.037c.367.382.644.552.9.552a.886.886,0,0,0,.225-.035l.009,0a.8.8,0,0,1,.2-.032.456.456,0,0,1,.27.1,5.351,5.351,0,0,0,.717,1.907c.431.767.857,1.262,1.085,1.262a.146.146,0,0,0,.119-.061c.177-.226.086-1.083-.261-2.478.038-.881-1.183-1.535-2.6-2.293a17.413,17.413,0,0,1-2.669-1.647A4.476,4.476,0,0,1,20.7,28.985c.034-.318.067-.62.1-.911.206-1.874.355-3.229.044-3.576a.265.265,0,0,0-.2-.091.8.8,0,0,0-.416.167,1.248,1.248,0,0,1,.107-.851,1.066,1.066,0,0,1,.983-.6,2.13,2.13,0,0,1,1.386.6c.424.261.456,1.092.5,2.243a21.841,21.841,0,0,0,.28,3.056c2.529,2.766,4.5,3.347,5.707,3.347a3.132,3.132,0,0,0,2.468-1.085c.692-.85.194-1.4.189-1.4a4.246,4.246,0,0,0,.985-.162,2.653,2.653,0,0,0,.762-.411,5.691,5.691,0,0,0-.189,1.259,3.271,3.271,0,0,0,.189,1.062,15.39,15.39,0,0,0-1.394,11.251,16.735,16.735,0,0,0,2.065,4.914,21.013,21.013,0,0,0,2.235,2.331,10.091,10.091,0,0,0,4.86,2.667c.206.006.412.009.611.009,6.855,0,9.855-3.5,10.841-4.648a3.287,3.287,0,0,1,.331-.359s.005-.005,0-.008-.092-.022-.26-.022c-.326,0-.857.029-.879.03a16.417,16.417,0,0,1-2.6,1.773,15.4,15.4,0,0,1-2.784,1.219,11.087,11.087,0,0,1-3.363.554c-3.41,0-6.311-1.824-8.621-5.422,1.318-1.1,2.556-2.125,3.753-3.119l.031-.026c9.265-7.7,14.856-12.342,19.573-17.1a7.681,7.681,0,0,1,3.232,2.3,5.875,5.875,0,0,1,.632,5.807,2.952,2.952,0,0,1,.484-.04,3.608,3.608,0,0,1,2.831,1.574,6.889,6.889,0,0,1,1.3,3.971,4.815,4.815,0,0,1-2.215,4.054c-.573.475-1.026.85-1.026,1.3,0,.583.22.62.5.667.45.076,1.066.18,1.181,2.65a9.291,9.291,0,0,1-.5,3.505,9.612,9.612,0,0,1-1.34,2.53,9.332,9.332,0,0,1-2.025,2.049c.005-.039.54-4.063-.356-6.373-.7-1.8-1.563-2.746-2.507-2.746a1.5,1.5,0,0,0-.35.042c-.453.235-.685.455-.729.693-.061.325.235.659.61,1.083a4.387,4.387,0,0,1,1.325,2.616c.11,1.45-.645,3.149-2.309,5.2C52.789,60.133,48.189,62.11,43.774,62.111ZM35.161,32.974h0a14.62,14.62,0,0,0-.036-2.559A12.694,12.694,0,0,0,33.586,25.3a9.088,9.088,0,0,0-3.673-3.384,9.616,9.616,0,0,0-2.166-.826h0a7.124,7.124,0,0,1,1.4.976,11.593,11.593,0,0,1,2.694,3.519,6.788,6.788,0,0,1-.911,4.19,2.189,2.189,0,0,1-1.838,1.247,2.7,2.7,0,0,1-1.49-.54,12.656,12.656,0,0,1-2.979-2.664,8.033,8.033,0,0,1,.148-3.493c.156-.8.278-1.437.08-1.691A28.22,28.22,0,0,0,20.4,19.1a5.174,5.174,0,0,0-2.442-.895,1.186,1.186,0,0,0-1.259,1.029h0A2.271,2.271,0,0,1,17.717,19a2.5,2.5,0,0,1,.913.176,3.1,3.1,0,0,1,1.885,1.785,2.392,2.392,0,0,1-.3,1.706A3.649,3.649,0,0,1,17.9,24.58a5.935,5.935,0,0,1-2.02-.476,4.84,4.84,0,0,1-1.935-1.584,12.428,12.428,0,0,1-1.121-5.809c-.057-1.908-.11-3.711-1.039-5.153l-1.272-.86C6.927,8.275,6.787,8.18,6.787,7.55,7.282,2.9,2.851.858.166.056A.9.9,0,0,1,0,0S0,0,.008,0C.034,0,.124.012.286.035c.64.089,2.339.325,5.777.6A5.722,5.722,0,0,1,8.982,4.692c.415,1.443.743,2.583,2.868,2.583A8.162,8.162,0,0,0,12.909,7.2a4.169,4.169,0,0,1,2.159.557,6.315,6.315,0,0,1,1.965,2.222,1.741,1.741,0,0,1-.122,1.377,1.449,1.449,0,0,1-1.081.449c-.293.034-.525.061-.578.218-.111.323.5,1.174,3.964,4.569a9.092,9.092,0,0,0,4.5,1.821,2.074,2.074,0,0,0,2.04-1.29,5.29,5.29,0,0,0,.3-2.605,3.967,3.967,0,0,0-3.94-3.777,2,2,0,0,0-.239.012s0,0,.005-.008a9.9,9.9,0,0,1,1.24-1.237A5.444,5.444,0,0,1,26,8.144a2.705,2.705,0,0,1,.669-.081,4.984,4.984,0,0,1,3.559,1.887,6.421,6.421,0,0,1,1.418,5.278c-.565,3.484-.092,3.845.849,4.563a6.934,6.934,0,0,1,1.013.9A6.906,6.906,0,0,0,38,22.619c1.275,0,2.833-.564,3.011-3.249a3.236,3.236,0,0,0-.651-2.5,2.678,2.678,0,0,0-2.043-.733,8.764,8.764,0,0,0-2.978.656s0,0,0-.007a14.835,14.835,0,0,1,1.146-3.165,9.3,9.3,0,0,1,1.634-2.362A5,5,0,0,1,40.635,9.8a5.963,5.963,0,0,1,1.245-.13,7.2,7.2,0,0,1,3.255.817,7.016,7.016,0,0,1,2.4,1.967,3.168,3.168,0,0,1,.7,2.767c-.316.309-.456.568-.427.79.043.326.435.547.888.8.749.422,1.681.948,1.392,2.207a9.861,9.861,0,0,1-1.757,2.618c-3.4,2.99-7.83,6.8-13.169,11.328Z" transform="translate(0.365 4.112)" fill="#ff8282"/>
  </g>
</svg>
