<svg xmlns="http://www.w3.org/2000/svg" width="17" height="17" viewBox="0 0 17 17">
  <g id="Layer_2" data-name="Layer 2" transform="translate(-0.997 0.002)">
    <g id="Layer_1" data-name="Layer 1" transform="translate(0.997 -0.002)">
      <path id="Path_1974" data-name="Path 1974" d="M12.359,13.971h0a.327.327,0,0,0,.387-.142l.135-.064c.12.032.2,0,.221-.112h0c.456-.043.526-.366.63-.664l.259-.133c.114.049.193.024.231-.085l.172-.094c.153.018.253-.025.265-.173a.212.212,0,0,1,.072-.045c.278,0,.528-.128.5-.351-.04-.295.138-.331.36-.4q.258-.078.505-.18c.1-.04.2-.108.154-.214-.056-.128-.179-.12-.3-.055l-.7.058a.438.438,0,0,0-.4.033l-.121.015a3.291,3.291,0,0,0-1.553.2c-.147.037-.249.2-.437.124-.191-.141-.412-.025-.616-.053-.133-.018-.269-.066-.278-.171-.017-.136.145-.143.263-.154.321-.03.643-.044.961-.089a.914.914,0,0,0,.717-.3,4.022,4.022,0,0,0-1.1.007c-.71.127-.7.119-1.146-.109a.651.651,0,0,0-.566-.072l-.334.02c-.108-.046-.194-.033-.242.074l-.978.07a1.747,1.747,0,0,0-1.15.1l-.162.015a.4.4,0,0,0-.464.024l-.355.022a.628.628,0,0,0-.572.065l-.431.04c-.927.069-1.861.119-2.788.216a2.318,2.318,0,0,0-1.233.226h0a.406.406,0,0,0-.286.028l-.5.025a6.192,6.192,0,0,0-1.127.158c-.14.016-.362.149-.226.266.219.189.411.552.854.317a.7.7,0,0,1,.371-.035c.138.1.24.089.295-.072a2.46,2.46,0,0,0,.951-.093,1.292,1.292,0,0,1,.6-.112c.093.1.159.081.207-.032l1.284-.112c.063.014.093-.013.1-.066l.034-.019h.041l-.006.23c-.3-.041-.514.222-.834.175a1.222,1.222,0,0,0-.717.209c-.007,0,.014.089.034.094a1.487,1.487,0,0,0,.724-.007,31.059,31.059,0,0,1,3.782-.671c.953-.127,1.876-.389,2.84-.447.193.046.476-.136.566.17L6.359,12.4l.022.123a2.3,2.3,0,0,0,1.365.028,1.843,1.843,0,0,1,.9-.086c-.338.445-.939.249-1.391.434a11.749,11.749,0,0,1-1.738.75,3.7,3.7,0,0,1-.834.2.224.224,0,0,1-.021-.194.264.264,0,0,1,.143-.149,10.086,10.086,0,0,0-2.625.59c-.121.046-.316.076-.245.228.06.127.229.081.371.041.587-.179,1.174-.36,1.768-.518.138-.037.408-.231.416.127-.145,0-.3-.01-.323.172a1.56,1.56,0,0,0-1,.149c-.075.04-.185.081-.157.172.034.109.156.121.263.1.278-.062.556-.133.834-.2l.058.067a.093.093,0,0,1,.057.119l-1.807.615a.883.883,0,0,0-.716.269.081.081,0,0,0-.011.078.1.1,0,0,0,.063.056.868.868,0,0,0,.71-.154c.009-.007.009-.025.013-.037l.161-.03a2.669,2.669,0,0,0,1.323-.375,6.016,6.016,0,0,1,1.278-.348c.157.006.309,0,.381-.153a4.941,4.941,0,0,0,1.475-.289c.58-.248,1.184-.453,1.777-.676a.167.167,0,0,0,.128,0,.135.135,0,0,0,.08-.087l.235.008c.011.093.074.113.167.091.026.1-.07.143-.14.195-.155.01-.289.045-.332.2l-.085.139c-.464-.033-.807.266-1.222.367a.138.138,0,0,0-.087.063.11.11,0,0,0-.006.1c.031.076.113.081.185.081a2.538,2.538,0,0,0,.752-.14c.131-.042.356-.266.489.029l-.337.2a4.319,4.319,0,0,0-1.987.852c.48.144.48.144.662.006l-.006.006c.407.028.715-.217,1.08-.3.207-.05.445-.059.544.095s-.149.252-.269.317c-.32.175-.54.365-.4.724-.093.081-.308.076-.272.279.27.045.518-.13.788-.071a.575.575,0,0,0,.346.092c-.093.137-.065.222.131.237.2.063.238-.041.248-.178l.222-.215c.629-.56,1.243-1.137,1.893-1.675a1.214,1.214,0,0,0,.549-.879l.026-.017a.078.078,0,0,0,.069.006A.062.062,0,0,0,12.359,13.971Zm2.331-5.991h0a.324.324,0,0,0-.366.244c-.042.066-.116.069-.185.076a4.9,4.9,0,0,0-1.483,0c-.988.016-1.976-.046-2.966.032a1.087,1.087,0,0,1-.927-.684c-.068-.136-.12-.309-.371-.244l-.175-.028c-.047-.03-.093-.081-.144-.087-.626-.06-1.289.137-1.874-.213L6.165,7.1l-.349-.049a.222.222,0,0,0-.157-.105.246.246,0,0,0-.191.045l-.59-.081A.926.926,0,0,0,4.1,6.8l-.156-.02-1.669-.26-.347-.045c-.116-.119-.266-.218-.415-.081-.121.11-.093.244.116.291l.135.132a.133.133,0,0,0,.022.126.175.175,0,0,0,.125.065.2.2,0,0,1,.038.053.062.062,0,0,0,.015.062.083.083,0,0,0,.066.024l.669.8-.054.35L1.631,8.3c-.168-.06-.185.043-.179.14.008.153.144.181.286.208.278.053.681-.091.829.093.185.235-.29.419-.292.69h0c-.34.1-.383.437-.62.622-.112.087-.253.192-.166.342s.273.091.415.068c.767-.119,1.522-.284,2.3-.352a2.265,2.265,0,0,0,1.052-.228l.176-.019a1.265,1.265,0,0,0,.951-.131l.249-.023c.5.081.927-.181,1.4-.2.027,0,.055.007.083.01.1.081.163.058.2-.048a1.03,1.03,0,0,0,.492-.406.126.126,0,0,0,.091-.046.1.1,0,0,0,.016-.091.3.3,0,0,1,.041-.054,1.033,1.033,0,0,1,.523-.212c.629,0,1.257-.03,1.886-.041.935-.017,1.871-.029,2.806-.044l.185.1c-.006.123.066.162.193.133.233.14.423.38.766.269.5-.162,1-.334,1.5-.5.093-.03.176-.074.177-.162,0-.1-.11-.129-.2-.133a3.462,3.462,0,0,1-1-.358c-.307-.1-.627-.348-.971-.054C14.731,7.86,14.7,7.913,14.689,7.979ZM5.8,2.789h0c.108.3.378.362.693.351l.093.025c.008.049.032.057.075.024l.556.145c.064.219.307.174.472.244.464.2,1.025.244,1.353.654l-.933-.138c-.045-.05-.082-.136-.138-.147a21.406,21.406,0,0,0-2.449-.507,17.237,17.237,0,0,0-2.039-.413l.012.011c.051-.1-.051-.1-.107-.133a6.236,6.236,0,0,0-.957-.325c-.1-.011-.228-.077-.271.05s.093.162.185.192a6.705,6.705,0,0,0,1.146.365l1.228.388c-.343.275-.706.071-1.063.035a1.5,1.5,0,0,1-.581-.09c-.464-.127-.927-.231-1.391-.356-.093-.024-.15-.028-.185.044s.043.119.111.137a9.367,9.367,0,0,0,2.064.464.959.959,0,0,0,.927.2,2.338,2.338,0,0,1,.617.1,8.658,8.658,0,0,0,1.3.428,20.511,20.511,0,0,0,2.719.406c.733.057,1.437.28,2.177.3.166.035.326.05.422-.114l.446.028a.9.9,0,0,0,.942.155l.251.043a.146.146,0,0,0,.109.089.167.167,0,0,0,.143-.035l.505.071a.5.5,0,0,0,.488.018l.144.022c.052.1.123.106.212.037l.172.01a4.253,4.253,0,0,0,1.138.14.085.085,0,0,0,.088-.114c-.023-.056-.069-.146-.118-.153-.371-.056-.7-.28-1.1-.218l-1.729-.533.056-.2c.192.119.422.059.629.1.028.119.093.143.2.061l.25.053c.153.175.408.276.567.136.134-.118-.07-.259-.252-.308L14.7,4.395c-.038-.162-.173-.244-.338-.3a2.917,2.917,0,0,1-1.276-.838.815.815,0,0,0-.633-.291l-.26-.1c-.093-.233-.364-.258-.556-.372-.108-.063-.284-.073-.286-.222,0-.335-.289-.421-.566-.52h0a.246.246,0,0,0-.3-.218,1.423,1.423,0,0,1-.439-.27A2.443,2.443,0,0,0,8.453.229.707.707,0,0,0,8.112.111C8.065,0,7.972-.048,7.893.056s-.023.2.146.2l.32.217q-.117.087-.245.162c-.133.071-.3.154-.246.294s.17.325.429.235a3.169,3.169,0,0,1,1,.663c-.016.093-.11.114-.185.153-.146.006-.228-.092-.331-.156a1.9,1.9,0,0,0-.742-.38c-.314-.138-.616-.378-1.02-.194-.073.033-.2-.022-.235.081-.04.121.093.153.181.2a17.616,17.616,0,0,0,2.115.9c.284.1.536.325.886.256l.185.1c.137.244.464.233.666.4.063.052.185.081.147.176s-.146.057-.23.05a1.556,1.556,0,0,0-.676.015l-.17-.01a3.821,3.821,0,0,0-1.707-.6H8.178c-.012-.088-.023-.177-.152-.071l-.178-.068A.08.08,0,0,0,7.8,2.634a.1.1,0,0,0-.071.007l-.649-.229A10.432,10.432,0,0,0,4.439,1.373c.41.615,1.14.6,1.625.947L5.8,2.446c-.907-.124-1.72-.513-2.6-.706-.039-.088-.078-.175-.219-.123L2.833,1.6c-.237-.218-.59-.2-.881-.31-.093-.033-.231-.046-.273.076-.031.092.066.141.144.184a1.766,1.766,0,0,0,.686.209q.28.126.573.227c.834.251,1.682.487,2.523.736Zm-.175,12.6c-.266-.014-.268.146-.307.325.253-.041.476-.041.591-.244l1.216-.58a.175.175,0,0,0,.235-.112.063.063,0,0,0-.023-.062c-.1-.054-.159.019-.223.067a.439.439,0,0,0-.371.053C6.361,15.013,5.992,15.2,5.62,15.389ZM9.253,5.217a.529.529,0,0,0-.584-.1L8.327,5.07a.15.15,0,0,0-.1-.086.175.175,0,0,0-.14.022L7.836,4.97a.109.109,0,0,0-.185-.017l-.32.006h.01a2.943,2.943,0,0,0-.786-.171c-.074-.153-.176-.148-.3-.041L4.119,4.341c-.307-.322-.773-.181-1.153-.3-.1-.032-.278-.064-.328.057-.065.151.139.185.233.253.058.042.174.023.265.031l.17.028c-.067.244-.252.31-.513.249-.145-.034-.287-.093-.427.008l-.176-.026A2.315,2.315,0,0,0,.255,4.62c-.1.072-.291.076-.25.244s.224.162.371.19c1.094.234,2.213.335,3.325.468A7.367,7.367,0,0,0,5.356,5.6l.256.017A9.081,9.081,0,0,0,8.578,5.9l.164.015a2.266,2.266,0,0,0,1.228.114l.812.034a4.216,4.216,0,0,0,2.114.081c.232-.045.431-.2.708-.131.1.028.278.037.294-.109.01-.115-.145-.122-.247-.136a10.48,10.48,0,0,0-2.465-.152c-.057-.081-.118-.162-.246-.15A9.119,9.119,0,0,1,9.253,5.217Z" transform="translate(0.001 0.002)" fill="#3c0705"/>
      <path id="Path_1975" data-name="Path 1975" d="M37.221,14.58l-.464-.028c-.193-.1-.4-.21-.439.114-.772-.019-1.5-.242-2.265-.3a22.3,22.3,0,0,1-2.829-.4,9.317,9.317,0,0,1-1.35-.425,2.539,2.539,0,0,0-.642-.1c.053-.024.107-.073.157-.07a3.518,3.518,0,0,1,.946.066.328.328,0,0,0,.378-.1c.06-.125-.121-.142-.231-.189a2.725,2.725,0,0,0-1.12-.135l-1.274-.385-.012-.161a19.435,19.435,0,0,1,2.122.41,8.668,8.668,0,0,0,2.692.645l.97.137a.54.54,0,0,0,.611.073,5.162,5.162,0,0,0-2.508-.967l-.579-.144c-.012-.042-.037-.051-.078-.024l-.1-.023c-.143-.257-.519-.177-.721-.348h0c-.03-.093-.108-.093-.2-.072q-1.314-.363-2.625-.73-.3-.1-.6-.226c.071-.114.227-.1.337-.156l.15.021c.017.118.116.129.228.122.918.192,1.764.578,2.707.7a3.381,3.381,0,0,0,1.149.242c.221.048.213-.139.185-.276l.675.226a.075.075,0,0,0,.052.046.1.1,0,0,0,.075-.009l.178.063c.02.074.075.094.158.07h.01a4.805,4.805,0,0,0,1.776.6l.177.01a8.193,8.193,0,0,0,2.229.342A6.6,6.6,0,0,0,36.1,12.6c-.37-.125-.653-.388-1.075-.388l-.193-.1c-.3-.185-.691-.236-1.013-.4-.178-.085-.508-.174-.211-.441.107.064.193.161.344.155.014.038.019.1.041.109a8.565,8.565,0,0,1,1.521.625,1,1,0,0,0,.853.037c-.822-.295-1.471-.69-2.223-.924a3.287,3.287,0,0,0-1.046-.658c-.038-.106-.21-.188-.112-.309.028-.035.193-.028.264.006a12.735,12.735,0,0,0,1.663.392,1.447,1.447,0,0,0,.457.268.29.29,0,0,0,.311.216h0c-.193.34-.372-.06-.568-.014-.081.019-.193-.143-.272,0-.047.087.052.145.135.185a15.591,15.591,0,0,0,2.175.933l.27.1a6.737,6.737,0,0,0,2.338,1.422l.289.143a.578.578,0,0,1-.328.171l-.26-.052a.143.143,0,0,0-.089-.069.177.177,0,0,0-.121.009c-.216-.044-.455.016-.655-.1a7.633,7.633,0,0,0-1.263-.264c-.072,0-.172-.007-.172.089,0,.029.041.081.069.081.451.047.83.322,1.307.287l1.787.53c.159.118.482.242-.013.343l-.178-.01a.14.14,0,0,0-.1-.064.161.161,0,0,0-.121.028l-.15-.022a1.059,1.059,0,0,0-.507-.018l-.526-.071a.17.17,0,0,0-.116-.079.2.2,0,0,0-.146.026l-.261-.043A2.046,2.046,0,0,0,37.221,14.58Z" transform="translate(-24.888 -9.455)" fill="#ff6363"/>
      <path id="Path_1976" data-name="Path 1976" d="M66.766,139.146c.161.071.251-.087.38-.123.484.154.9-.118,1.35-.2l.106-.015a.322.322,0,0,0,.35-.033l.607-.058c.031.19-.111.2-.242.247-.9.3-1.8.6-2.7.9-.161.052-.4.124-.359.262.067.21.27.03.409,0,.645-.161,1.29-.327,1.982-.5l-.15.288a.182.182,0,0,0-.063.044.236.236,0,0,0-.231.172l-.15.093a.147.147,0,0,0-.2.085l-.228.135c-.177.022-.421.042-.412.242.007.181-.1.277-.136.415h0a.143.143,0,0,0-.192.111l-.118.064a.307.307,0,0,0-.336.141h0a.059.059,0,0,0-.089.044l-.023.017a16.254,16.254,0,0,0-1.822.875.306.306,0,0,0,.447.074c.153-.081.31-.15.462-.229.081-.04.169-.063.221,0s-.023.152-.081.2a4.82,4.82,0,0,1-1.092.918c-.233.115-.511.221-.594.525h.007c-.2,0-.4-.006-.5.231-.235-.058-.451.115-.685.071-.031-.2.154-.193.236-.277a1.407,1.407,0,0,0,.938-.623l-.437.031a3.134,3.134,0,0,1,.816-.686c.085-.048.2-.147.064-.183-.264-.071-.526-.322-.828-.069a.442.442,0,0,1-.361.134l.132-.286.293-.2a1.711,1.711,0,0,0,1.192-.693c-.441.017-.825.4-1.3.2l.074-.138a.22.22,0,0,0,.289-.2c.06-.052.144-.089.122-.193a.13.13,0,0,0-.052-.161c-.054-.031-.081.018-.093.07l-.2-.008c-.1-.056-.161-.027-.181.087-.516.222-1.041.426-1.545.671a3.832,3.832,0,0,1-1.282.287c.081-.409.4-.553.75-.664l.817-.26c-.178-.234-.4.1-.579-.21l2.781-.811c-.389-.22-.758,0-1.128-.045a1.415,1.415,0,0,0-.779.085,1.767,1.767,0,0,1-1.186-.027l-.019-.123,4.255-.766A1.3,1.3,0,0,0,66.766,139.146ZM62.5,140.774a3.9,3.9,0,0,1,.442.027c.081.026.218-.11.322-.181a.115.115,0,0,0-.018-.1c-.106-.068-.2.019-.291.053C62.822,140.625,62.645,140.59,62.5,140.774Z" transform="translate(-53.468 -127.414)" fill="#ff6363"/>
      <path id="Path_1977" data-name="Path 1977" d="M19.733,80.853c.01-.009.026-.028.027-.027.509.347,1.086.152,1.63.211.044,0,.081.056.125.086-.081.06-.218.122-.085.234.178.15.134.549.519.484a1.389,1.389,0,0,0-.282-.691c.217-.061.262.11.322.242a.979.979,0,0,0,.806.679c-.05.192.1.148.189.148q1.066,0,2.133-.011c.116,0,.258.02.254-.168a3.742,3.742,0,0,1,1.29,0c-.132.109.034.182.034.276-.813.015-1.626.027-2.44.044-.547.011-1.094.041-1.64.041-.2,0-.311.124-.455.21.037-.157-.214-.231-.152-.336.15-.254-.043-.194-.161-.209a11.763,11.763,0,0,0-2.063-.018,14.867,14.867,0,0,0-2.015.008c-.069.013-.186-.026-.177.1.007.092.093.113.182.113.343,0,.687-.018,1.028.006a9.32,9.32,0,0,1,2.418.11c.127.042.331-.139.384.122a.471.471,0,0,1-.137.442.428.428,0,0,0-.111.293c-.414.021-.788.285-1.219.2a2.1,2.1,0,0,0,.614-.667c.185-.265.118-.359-.177-.361H18.729a.5.5,0,0,0-.455.253c-.186.268-.217.645-.542.819a.2.2,0,0,0-.057.175c.024.1.127.065.2.073.363.037.695-.212,1.065-.117a1.774,1.774,0,0,1-.915.226c-.678.068-1.335.232-2,.35-.124.023-.282.089-.361-.068s.047-.253.144-.339c.206-.184.242-.513.539-.617-.091.322-.42.511-.49.87a.925.925,0,0,0,1.03-.463,2.931,2.931,0,0,1,.387-.65c.081-.089.233-.215.156-.338s-.268-.065-.408-.07a.29.29,0,0,0-.272.181c-.1.172-.177.392-.4.468,0-.269.417-.451.254-.685-.128-.182-.476-.04-.721-.092-.123-.027-.242-.055-.248-.206,0-.1.01-.2.156-.139-.066.218.081.214.223.214.36,0,.725,0,1.082-.011.076,0,.161-.03.152-.152-.181-.11-.393.036-.576-.056.016-.116.031-.231.047-.347a1.349,1.349,0,0,0,.247.187.43.43,0,0,0,.489-.017c.145-.15-.071-.242-.131-.359a4.615,4.615,0,0,0-.967-1.23l1.451.258c-.2.081-.242.2-.081.36a4.447,4.447,0,0,1,.588.806.411.411,0,0,0,.388.223c.6-.007,1.209,0,1.81-.009.122,0,.313.027.28-.182-.027-.174-.184-.214-.346-.181a1.4,1.4,0,0,1-.266.075c-.227,0-.46-.181-.371-.336C19.934,81.067,19.757,80.993,19.733,80.853Z" transform="translate(-14.373 -73.738)" fill="#ffc9c9"/>
      <path id="Path_1978" data-name="Path 1978" d="M11.63,133.768a1,1,0,0,0-.528.111,1.887,1.887,0,0,1-.827.093c-.1-.035-.2-.071-.256.072-.114-.044-.218.014-.322.035-.28-.468.3-.161.322-.373-.109-.081-.3.057-.372-.141.152-.092.393.006.484-.221l.438-.025a.182.182,0,0,0,.249-.028h0a.973.973,0,0,0,.161.012c1.016-.107,2.031-.214,3.046-.328a1.157,1.157,0,0,0,.29-.122l.375-.04a.473.473,0,0,0,.5-.064l.309-.022a.463.463,0,0,0,.4-.024l.141-.015a1.818,1.818,0,0,0,1-.1l.85-.069c.1.073.161.023.21-.073l.29-.02c.1.081.131.136-.019.217-.181.1-.4.046-.584.122.073.173.193.135.292.146.206.021.093.134.069.222-.838.057-1.641.317-2.47.443a23.747,23.747,0,0,0-3.288.667,1.137,1.137,0,0,1-.629.007c-.018,0-.036-.09-.03-.093a.969.969,0,0,1,.623-.207c.275.048.459-.214.725-.173a3.937,3.937,0,0,0,1.523-.408,4.59,4.59,0,0,0-1.518.18h-.035l-.03.019-.086.065-1.116.111a.117.117,0,0,0-.184.03Z" transform="translate(-8.845 -121.658)" fill="#ff6363"/>
      <path id="Path_1979" data-name="Path 1979" d="M12.059,52.589l1.859.4c.073.1.161.073.258.041a2.29,2.29,0,0,1,.682.17h-.009l.278-.007a.1.1,0,0,0,.161.017l.217.035a.136.136,0,0,0,.21.064l.3.043a.613.613,0,0,0,.508.1,6.975,6.975,0,0,0,1.463.252c.111-.01.161.069.214.149-.28.194-.607-.156-.93.087.354.291.785.1,1.182.251-.217.128-.426.031-.6.107l-.706-.034a2.029,2.029,0,0,0-1.068-.114l-.143-.015A2.168,2.168,0,0,0,15,54.021a8.436,8.436,0,0,0-1.647-.161l-.222-.017a.716.716,0,0,0-.492-.129c-.741.027-1.447-.242-2.184-.242-.2,0-.559-.085-.546-.138.1-.416-.3-.2-.4-.344-.054-.081-.219-.037-.29-.168.416-.142.775.191,1.161.069l.153.026c.147.1.276.272.484.226a4.961,4.961,0,0,1,1.934.18,4.29,4.29,0,0,0,1.272.172l.024-.126-2.9-.709-.147-.029C11.477,52.357,11.777,52.647,12.059,52.589Z" transform="translate(-8.477 -48.244)" fill="#ff6363"/>
      <path id="Path_1980" data-name="Path 1980" d="M42.165,108.083c-.37-.1-.7.154-1.065.117-.075-.007-.178.03-.2-.073a.2.2,0,0,1,.057-.175c.322-.178.356-.55.542-.819a.5.5,0,0,1,.455-.253H43.8c.295,0,.362.1.177.361a2.1,2.1,0,0,1-.614.667l-.217.023a1.33,1.33,0,0,0-.827.13Z" transform="translate(-36.968 -98.196)" fill="#ff6363"/>
      <path id="Path_1981" data-name="Path 1981" d="M42.432,83.85c.023.14.2.214.073.436-.089.156.143.338.371.336a1.4,1.4,0,0,0,.266-.075c.161-.033.322.006.346.181.032.209-.161.181-.28.182-.6.008-1.209,0-1.81.009a.411.411,0,0,1-.388-.222,4.414,4.414,0,0,0-.588-.806c-.161-.161-.117-.278.081-.36l.135.02a.945.945,0,0,0,.681.11l.513.081a.219.219,0,0,0,.3.06Z" transform="translate(-36.45 -76.743)" fill="#ff6363"/>
      <path id="Path_1982" data-name="Path 1982" d="M37.3,152.941c.37.042.739-.175,1.128.045l-2.781.811c.176.305.4-.024.579.21l-.817.26c-.347.111-.667.255-.75.664-.063.155-.2.161-.331.152.065-.139.112-.258-.134-.2a1.79,1.79,0,0,1-.745.126.1.1,0,0,0-.051-.119c.081,0,.178.028.229-.081a.277.277,0,0,0-.279.018c-.242.067-.484.138-.725.2-.093.024-.2.012-.229-.1s.071-.131.136-.171a1.209,1.209,0,0,1,.876-.151,1.328,1.328,0,0,0,.393-.015c.294-.1.636-.131.781-.478a9.6,9.6,0,0,0,1.511-.745C36.479,153.188,37,153.382,37.3,152.941Z" transform="translate(-29.111 -140.438)" fill="#ffc9c9"/>
      <path id="Path_1983" data-name="Path 1983" d="M151.921,96.128c0-.093-.166-.167-.034-.276.063-.007.127-.01.161-.076.209.051.261-.1.318-.242h0c.073,0,.1-.044.118-.108.3-.293.577-.051.844.053.294.106.536.334.874.348.075,0,.172.028.171.132s-.076.134-.154.161c-.434.161-.867.334-1.3.5-.3.11-.463-.128-.666-.267-.025-.081-.07-.141-.168-.132Z" transform="translate(-137.378 -87.545)" fill="#ff6363"/>
      <path id="Path_1984" data-name="Path 1984" d="M1.9,54.681c-.387.122-.746-.211-1.161-.069.071.131.236.09.29.168.1.147.5-.072.4.344-.013.052.347.138.546.138.737,0,1.443.272,2.184.242a.716.716,0,0,1,.492.129,5.687,5.687,0,0,1-1.439-.081,28.252,28.252,0,0,1-2.891-.465C.2,55.059.039,55.067,0,54.9s.131-.172.218-.242A1.787,1.787,0,0,1,1.9,54.681Z" transform="translate(0.003 -50.035)" fill="#ffc9c9"/>
      <path id="Path_1985" data-name="Path 1985" d="M74.119,181.65l-.132.286a.442.442,0,0,0,.361-.134c.3-.252.564,0,.828.069.135.036.021.135-.064.183a3.134,3.134,0,0,0-.818.686l.437-.031a1.408,1.408,0,0,1-.938.623c-.123-.356.069-.545.347-.719.1-.064.322-.155.234-.314s-.293-.143-.473-.094c-.318.087-.585.33-.939.3v-.086l.1-.1c-.01-.006-.023-.019-.031-.017-.06.02-.06.072-.06.122l-.147.022c.022.093.1.035.147.052-.161.136-.161.136-.575-.006A3.535,3.535,0,0,1,74.119,181.65Z" transform="translate(-65.47 -166.884)" fill="#ffc9c9"/>
      <path id="Path_1986" data-name="Path 1986" d="M43.67,103.12a.428.428,0,0,1,.11-.293.471.471,0,0,0,.137-.442c-.053-.261-.257-.081-.384-.123a9.316,9.316,0,0,0-2.418-.11c-.342-.023-.686-.007-1.028-.006-.089,0-.175-.021-.182-.113-.009-.124.108-.085.177-.1a14.878,14.878,0,0,1,2.015-.008,11.774,11.774,0,0,1,2.063.018c.116.015.309-.045.161.209-.062.1.189.179.152.336a.3.3,0,0,0-.035.054.114.114,0,0,0-.093.135.938.938,0,0,1-.428.4.121.121,0,0,0-.177.048Z" transform="translate(-35.988 -93.609)" fill="#ff6363"/>
      <path id="Path_1987" data-name="Path 1987" d="M111.27,132.647c.024-.089.137-.2-.069-.222-.1-.01-.219.027-.292-.146.188-.076.4-.025.584-.122.15-.081.121-.135.019-.217a.494.494,0,0,1,.492.072c.385.226.379.235,1,.108a3.067,3.067,0,0,1,.954-.007c-.161.258-.4.262-.623.3-.276.045-.557.059-.836.089-.1.011-.242.018-.229.153.01.1.129.152.242.169.178.027.37-.088.536.052a1.308,1.308,0,0,1-1.29-.059C111.684,132.512,111.438,132.693,111.27,132.647Z" transform="translate(-100.28 -121.184)" fill="#ffc9c9"/>
      <path id="Path_1988" data-name="Path 1988" d="M109.659,69.409c.177-.076.386.021.6-.107-.4-.152-.828.039-1.182-.251.322-.242.65.107.93-.087a8.133,8.133,0,0,1,2.143.151c.089.014.223.02.214.135-.011.145-.161.135-.255.108-.242-.072-.414.085-.616.13A3.2,3.2,0,0,1,109.659,69.409Z" transform="translate(-98.59 -63.338)" fill="#ffc9c9"/>
      <path id="Path_1989" data-name="Path 1989" d="M101.44,175.22c.081-.3.361-.409.594-.525a4.871,4.871,0,0,0,1.092-.918c.056-.052.139-.123.081-.2s-.143-.044-.221,0c-.152.081-.31.149-.462.229a.308.308,0,0,1-.447-.074,16.253,16.253,0,0,1,1.822-.875,1.237,1.237,0,0,1-.477.872c-.564.538-1.1,1.107-1.646,1.663C101.735,175.184,101.53,175.319,101.44,175.22Z" transform="translate(-91.791 -158.793)" fill="#ffc9c9"/>
      <path id="Path_1990" data-name="Path 1990" d="M18.152,79.785a4.583,4.583,0,0,1,.967,1.23c.061.116.277.209.132.358a.43.43,0,0,1-.489.017,1.35,1.35,0,0,1-.247-.187l-.582-.793a.069.069,0,0,0-.068-.085.2.2,0,0,0-.033-.053.152.152,0,0,0-.128-.189l-.114-.137c.007-.17.152-.161.26-.206Z" transform="translate(-16.172 -73.26)" fill="#ff6363"/>
      <path id="Path_1991" data-name="Path 1991" d="M133.426,139.386l.155-.288c-.689.176-1.335.343-1.982.5-.139.035-.343.215-.409,0-.044-.138.2-.21.359-.262.9-.295,1.8-.6,2.7-.9.129-.043.271-.057.242-.247.1-.064.212-.073.26.055.04.1-.047.172-.134.212a4.508,4.508,0,0,1-.439.179c-.193.064-.347.1-.313.393C133.882,139.259,133.668,139.388,133.426,139.386Z" transform="translate(-118.391 -126.928)" fill="#ffc9c9"/>
      <path id="Path_1992" data-name="Path 1992" d="M74.969,15.27c-.248.267.027.357.178.438a6.606,6.606,0,0,1,.849.407c-.3.065-.524-.152-.771-.254a14.358,14.358,0,0,1-1.83-.887c-.076-.046-.192-.081-.157-.2.027-.1.141-.044.2-.081.351-.182.613.056.887.193A1.667,1.667,0,0,1,74.969,15.27Z" transform="translate(-66.239 -13.451)" fill="#ffc9c9"/>
      <path id="Path_1993" data-name="Path 1993" d="M26.349,54.36l2.9.708-.024.126a4.29,4.29,0,0,1-1.272-.172,4.971,4.971,0,0,0-1.934-.18c-.2.045-.334-.123-.484-.226.122-.1.246-.042.372-.008C26.132,54.668,26.293,54.6,26.349,54.36Z" transform="translate(-23.472 -49.944)" fill="#ffc9c9"/>
      <path id="Path_1994" data-name="Path 1994" d="M50.186,17.991c.023.138.03.322-.155.276-.322-.081-.675-.031-.96-.242L49.3,17.9c-.422-.347-1.057-.33-1.413-.94A8.443,8.443,0,0,1,50.186,17.991Z" transform="translate(-43.343 -15.593)" fill="#ffc9c9"/>
      <path id="Path_1995" data-name="Path 1995" d="M86.653,3.864a9.3,9.3,0,0,1-1.39-.392c-.06-.034-.2-.04-.221-.006-.081.121.062.2.093.309-.226.086-.322-.091-.373-.234s.1-.222.214-.292a2.584,2.584,0,0,0,.213-.161c.139-.009.254.179.428.064-.106-.139-.342-.1-.349-.313A2.138,2.138,0,0,1,86.653,3.864Zm-.932-.621.019.013V3.237Z" transform="translate(-76.745 -2.611)" fill="#ffc9c9"/>
      <path id="Path_1996" data-name="Path 1996" d="M22.959,166.836c-.007-.356-.242-.161-.362-.127-.517.157-1.027.337-1.537.514-.122.042-.268.085-.322-.041-.062-.152.107-.181.213-.226a7.86,7.86,0,0,1,2.283-.586.25.25,0,0,0-.106.34C23.105,166.8,23.06,166.853,22.959,166.836Z" transform="translate(-19.054 -152.856)" fill="#ffc9c9"/>
      <path id="Path_1997" data-name="Path 1997" d="M83.135,170.825c.471.209.855-.178,1.3-.2a1.7,1.7,0,0,1-1.192.693c-.116-.293-.312-.071-.426-.029a1.965,1.965,0,0,1-.654.139c-.066,0-.138-.006-.161-.081a.122.122,0,0,1,.081-.161C82.434,171.089,82.728,170.792,83.135,170.825Z" transform="translate(-74.194 -156.752)" fill="#ffc9c9"/>
      <path id="Path_1998" data-name="Path 1998" d="M108.6,34.37c.352,0,.6.264.9.388a5.533,5.533,0,0,1,.887.588A5.818,5.818,0,0,1,108.52,35a1.208,1.208,0,0,1,.588-.015c.073.006.168.058.2-.05s-.073-.123-.128-.175C109,34.6,108.72,34.609,108.6,34.37Zm.826.674.024.016v-.024Z" transform="translate(-98.27 -31.578)" fill="#ffc9c9"/>
      <path id="Path_1999" data-name="Path 1999" d="M27.565,177.622a1.769,1.769,0,0,0,.745-.126c.244-.06.2.059.134.2a4.55,4.55,0,0,0-1.111.345,2.324,2.324,0,0,0-1.15.369l-.14.03c-.017-.07-.035-.139-.052-.21Z" transform="translate(-23.895 -163.05)" fill="#ff6363"/>
      <path id="Path_2000" data-name="Path 2000" d="M40.334,44.036a1.929,1.929,0,0,1,.936.135c.092.047.242.064.193.189a.248.248,0,0,1-.313.1,2.469,2.469,0,0,0-.791-.066c-.042,0-.087.046-.131.07a.762.762,0,0,1-.806-.2l-.012-.2C39.72,44.107,40.036,44.309,40.334,44.036Z" transform="translate(-35.679 -40.458)" fill="#ffc9c9"/>
      <path id="Path_2001" data-name="Path 2001" d="M109.414,21.839a11.967,11.967,0,0,1-1.817-.933c-.069-.04-.152-.1-.113-.185.066-.144.161.018.227,0,.161-.046.311.354.475.014.242.1.488.185.492.517,0,.147.156.161.249.22C109.1,21.583,109.334,21.608,109.414,21.839Z" transform="translate(-97.313 -18.996)" fill="#ffc9c9"/>
      <path id="Path_2002" data-name="Path 2002" d="M27.977,137.76a1.156,1.156,0,0,1-.29.123c-1.015.114-2.03.221-3.046.328a.973.973,0,0,1-.161-.012c.316-.267.712-.181,1.072-.224C26.359,137.878,27.169,137.829,27.977,137.76Z" transform="translate(-22.507 -126.572)" fill="#ffc9c9"/>
      <path id="Path_2003" data-name="Path 2003" d="M2.168,143.836c-.088.227-.328.129-.484.221.068.2.264.064.372.141-.023.209-.606-.1-.322.373-.385.234-.552-.127-.742-.314-.118-.117.075-.248.2-.264A4.674,4.674,0,0,1,2.168,143.836Z" transform="translate(-0.878 -132.15)" fill="#ffc9c9"/>
      <path id="Path_2004" data-name="Path 2004" d="M98.52,22.6c.629.234,1.171.629,1.858.924a.706.706,0,0,1-.712-.037,6.554,6.554,0,0,0-1.271-.625c-.019,0-.023-.071-.035-.109C98.424,22.713,98.507,22.693,98.52,22.6Z" transform="translate(-89.053 -20.778)" fill="#ffc9c9"/>
      <path id="Path_2005" data-name="Path 2005" d="M60.53,69.12a8.313,8.313,0,0,1,1.647.161,2.108,2.108,0,0,1,.928.123A6.958,6.958,0,0,1,60.53,69.12Z" transform="translate(-54.764 -63.495)" fill="#ffc9c9"/>
      <path id="Path_2006" data-name="Path 2006" d="M52.455,144.119a4.589,4.589,0,0,1,1.518-.18,4.023,4.023,0,0,1-1.523.408Z" transform="translate(-47.515 -132.236)" fill="#ffc9c9"/>
      <path id="Path_2007" data-name="Path 2007" d="M106.965,102.194c0,.189-.138.168-.254.168q-1.066.011-2.133.011c-.089,0-.242.044-.189-.148C105.247,102.148,106.106,102.21,106.965,102.194Z" transform="translate(-94.433 -93.888)" fill="#ff6363"/>
      <path id="Path_2008" data-name="Path 2008" d="M136.3,37.932a5.561,5.561,0,0,1-1.954-1.422.676.676,0,0,1,.55.289,2.538,2.538,0,0,0,1.109.832A.414.414,0,0,1,136.3,37.932Z" transform="translate(-121.302 -33.543)" fill="#ffc9c9"/>
      <path id="Path_2009" data-name="Path 2009" d="M77.79,41.07a3.906,3.906,0,0,1,2.1.967c-.231.093-.382.074-.51-.073-.285-.41-.774-.453-1.177-.65C78.057,41.242,77.846,41.288,77.79,41.07Z" transform="translate(-70.423 -37.734)" fill="#ffc9c9"/>
      <path id="Path_2010" data-name="Path 2010" d="M17.862,39.266l.012.2A7.3,7.3,0,0,1,16.08,39c-.06-.018-.135-.051-.1-.136s.081-.067.161-.044c.4.124.811.226,1.209.353A1.234,1.234,0,0,0,17.862,39.266Z" transform="translate(-14.685 -35.656)" fill="#ff6363"/>
      <path id="Path_2011" data-name="Path 2011" d="M61.759,43.085a6.449,6.449,0,0,1-2.249-.645,16.475,16.475,0,0,1,2.129.5C61.689,42.95,61.72,43.035,61.759,43.085Z" transform="translate(-53.864 -38.993)" fill="#ffc9c9"/>
      <path id="Path_2012" data-name="Path 2012" d="M164.3,64.593c.413-.1.143-.225.01-.343.347-.061.631.161.953.217.043.007.081.1.1.152a.082.082,0,0,1-.077.113A3.265,3.265,0,0,1,164.3,64.593Z" transform="translate(-148.838 -59.022)" fill="#ffc9c9"/>
      <path id="Path_2013" data-name="Path 2013" d="M18.257,102.21c.184.093.395-.054.576.056.011.123-.076.15-.152.152-.36.01-.721.01-1.082.011-.139,0-.289,0-.223-.214Z" transform="translate(-15.961 -93.91)" fill="#ff6363"/>
      <path id="Path_2014" data-name="Path 2014" d="M24.346,31.966l.01.161a5.391,5.391,0,0,1-1-.362c-.081-.03-.2-.081-.161-.191.037-.126.148-.06.235-.049a4.744,4.744,0,0,1,.833.322l.092.132Z" transform="translate(-21.322 -28.96)" fill="#ffc9c9"/>
      <path id="Path_2015" data-name="Path 2015" d="M29.652,49.771c-.282.058-.582-.231-.853.044-.081-.008-.18.011-.231-.031-.081-.068-.259-.1-.2-.251.045-.12.194-.089.285-.056C28.98,49.593,29.385,49.452,29.652,49.771Z" transform="translate(-25.694 -45.431)" fill="#ffc9c9"/>
      <path id="Path_2016" data-name="Path 2016" d="M19.065,15.909c-.092.056-.222.043-.281.156a1.4,1.4,0,0,1-.6-.207c-.068-.042-.152-.091-.125-.182.036-.121.161-.108.237-.075C18.552,15.708,18.859,15.693,19.065,15.909Z" transform="translate(-16.602 -14.322)" fill="#ffc9c9"/>
      <path id="Path_2017" data-name="Path 2017" d="M89.734,35.306a3.6,3.6,0,0,1-1.484-.6A3.067,3.067,0,0,1,89.734,35.306Z" transform="translate(-79.95 -31.891)" fill="#ffc9c9"/>
      <path id="Path_2018" data-name="Path 2018" d="M61.935,181.988l-1.057.575-.247-.081c.322-.183.645-.373.973-.546a.341.341,0,0,1,.322-.052C61.928,181.917,61.932,181.952,61.935,181.988Z" transform="translate(-54.938 -167.078)" fill="#ff6363"/>
      <path id="Path_2019" data-name="Path 2019" d="M87.164,90.9a1.4,1.4,0,0,1,.282.691c-.385.064-.341-.334-.519-.484-.133-.112,0-.173.085-.234Z" transform="translate(-78.775 -83.489)" fill="#ff6363"/>
      <path id="Path_2020" data-name="Path 2020" d="M18.738,186.81c.017.07.035.139.052.21,0,.012,0,.03-.011.037a.683.683,0,0,1-.617.153.089.089,0,0,1-.045-.133A.724.724,0,0,1,18.738,186.81Z" transform="translate(-16.642 -171.628)" fill="#ffc9c9"/>
      <path id="Path_2021" data-name="Path 2021" d="M132.78,52.595c-.4.035-.715-.242-1.092-.287-.023,0-.058-.055-.058-.081,0-.1.081-.089.143-.089a5.252,5.252,0,0,1,1.055.264Z" transform="translate(-119.287 -47.904)" fill="#ffc9c9"/>
      <path id="Path_2022" data-name="Path 2022" d="M45.26,168.482c.1.017.146-.039.169-.126a2.9,2.9,0,0,0,.725-.2c-.145.347-.484.38-.781.478a1.446,1.446,0,0,1-.393.015C45,168.469,45.134,168.485,45.26,168.482Z" transform="translate(-40.763 -154.481)" fill="#ff6363"/>
      <path id="Path_2023" data-name="Path 2023" d="M141.38,160.657c.039-.138.143-.235.136-.415-.009-.2.235-.222.412-.242C141.837,160.293,141.777,160.614,141.38,160.657Z" transform="translate(-128.208 -147.005)" fill="#ffc9c9"/>
      <path id="Path_2024" data-name="Path 2024" d="M143.51,139.7c-.448.081-.868.35-1.35.2A2.567,2.567,0,0,1,143.51,139.7Z" transform="translate(-128.482 -128.328)" fill="#ffc9c9"/>
      <path id="Path_2025" data-name="Path 2025" d="M94.25,72.613a2.029,2.029,0,0,1,1.068.114A1.791,1.791,0,0,1,94.25,72.613Z" transform="translate(-85.424 -66.685)" fill="#ffc9c9"/>
      <path id="Path_2026" data-name="Path 2026" d="M87.077,1.5c.007.212.242.171.349.309-.174.114-.289-.073-.428-.064l-.278-.215.064-.147A.552.552,0,0,1,87.077,1.5Z" transform="translate(-78.628 -1.274)" fill="#ff6363"/>
      <path id="Path_2027" data-name="Path 2027" d="M57.587,189.551l.247.081c-.1.2-.294.2-.514.242C57.354,189.7,57.355,189.537,57.587,189.551Z" transform="translate(-51.981 -174.147)" fill="#ffc9c9"/>
      <path id="Path_2028" data-name="Path 2028" d="M98.774,202.186c.09.1.295-.036.334.161l-.193.214a.235.235,0,0,0-.216.177c-.17-.015-.2-.1-.114-.235.106-.081.3-.11.2-.322Z" transform="translate(-89.358 -185.76)" fill="#ff6363"/>
      <path id="Path_2029" data-name="Path 2029" d="M28.37,184.752a2.324,2.324,0,0,1,1.15-.372A2.035,2.035,0,0,1,28.37,184.752Z" transform="translate(-25.711 -169.394)" fill="#ffc9c9"/>
      <path id="Path_2030" data-name="Path 2030" d="M90.239,133.911a1.818,1.818,0,0,1-1,.1A1.347,1.347,0,0,1,90.239,133.911Z" transform="translate(-80.889 -122.995)" fill="#ffc9c9"/>
      <path id="Path_2031" data-name="Path 2031" d="M132.31,63.446a1.428,1.428,0,0,1,.819.154A.706.706,0,0,1,132.31,63.446Z" transform="translate(-119.95 -58.282)" fill="#ffc9c9"/>
      <path id="Path_2032" data-name="Path 2032" d="M58.55,119.78a1.335,1.335,0,0,1,.827-.13A.982.982,0,0,1,58.55,119.78Z" transform="translate(-53.08 -109.909)" fill="#ffc9c9"/>
      <path id="Path_2033" data-name="Path 2033" d="M158.17,56.051a.464.464,0,0,0,.274-.171c.161.048.336.189.219.305C158.525,56.328,158.3,56.228,158.17,56.051Z" transform="translate(-143.202 -51.342)" fill="#ffc9c9"/>
      <path id="Path_2034" data-name="Path 2034" d="M95.866,202.218c.109.213-.089.242-.2.322a.454.454,0,0,1-.3-.091C95.461,202.213,95.663,202.218,95.866,202.218Z" transform="translate(-86.486 -185.795)" fill="#ffc9c9"/>
      <path id="Path_2035" data-name="Path 2035" d="M62.52,34.37c.169.171.484.091.6.348C62.849,34.729,62.613,34.672,62.52,34.37Z" transform="translate(-56.692 -31.6)" fill="#ffc9c9"/>
      <path id="Path_2036" data-name="Path 2036" d="M44.9,83.476a.945.945,0,0,1-.681-.11A.721.721,0,0,1,44.9,83.476Z" transform="translate(-40.095 -76.565)" fill="#ffc9c9"/>
      <path id="Path_2037" data-name="Path 2037" d="M15.981,78.06c-.108.042-.253.036-.26.206-.184-.045-.206-.181-.1-.289C15.754,77.843,15.881,77.941,15.981,78.06Z" transform="translate(-14.303 -71.585)" fill="#ffc9c9"/>
      <path id="Path_2038" data-name="Path 2038" d="M73.017,136.041a.473.473,0,0,1-.5.064A.489.489,0,0,1,73.017,136.041Z" transform="translate(-65.766 -124.959)" fill="#ffc9c9"/>
      <path id="Path_2039" data-name="Path 2039" d="M94.028,62.558a.613.613,0,0,1-.508-.1A.418.418,0,0,1,94.028,62.558Z" transform="translate(-84.81 -57.339)" fill="#ffc9c9"/>
      <path id="Path_2040" data-name="Path 2040" d="M82.893,135.182a.463.463,0,0,1-.4.024A.31.31,0,0,1,82.893,135.182Z" transform="translate(-74.815 -124.147)" fill="#ffc9c9"/>
      <path id="Path_2041" data-name="Path 2041" d="M123,62.192c.034-.322.2-.214.367-.114C123.28,62.242,123.14,62.226,123,62.192Z" transform="translate(-111.559 -56.943)" fill="#ffc9c9"/>
      <path id="Path_2042" data-name="Path 2042" d="M84.991.114c-.022.049-.041.1-.064.147-.147,0-.2-.1-.127-.2S84.95,0,84.991.114Z" transform="translate(-76.896 -0.002)" fill="#ffc9c9"/>
      <path id="Path_2043" data-name="Path 2043" d="M154.818,98.291c-.057.146-.11.3-.318.242A.286.286,0,0,1,154.818,98.291Z" transform="translate(-139.828 -90.308)" fill="#ffc9c9"/>
      <path id="Path_2044" data-name="Path 2044" d="M97.4,168.9a.219.219,0,0,1-.289.2C97.147,168.945,97.262,168.908,97.4,168.9Z" transform="translate(-88.084 -155.162)" fill="#ffc9c9"/>
      <path id="Path_2045" data-name="Path 2045" d="M100.51,207.127a.235.235,0,0,1,.216-.177C100.717,207.086,100.68,207.189,100.51,207.127Z" transform="translate(-91.174 -190.145)" fill="#ffc9c9"/>
      <path id="Path_2046" data-name="Path 2046" d="M113.33,19.074a.251.251,0,0,1-.26-.216A.222.222,0,0,1,113.33,19.074Z" transform="translate(-102.563 -17.337)" fill="#ffc9c9"/>
      <path id="Path_2047" data-name="Path 2047" d="M100.4,164.471c.01-.052.039-.1.093-.07a.13.13,0,0,1,.052.161C100.464,164.583,100.41,164.563,100.4,164.471Z" transform="translate(-91.08 -151.043)" fill="#ffc9c9"/>
      <path id="Path_2048" data-name="Path 2048" d="M59.3,85.668a.219.219,0,0,1-.3-.06.194.194,0,0,1,.3.06Z" transform="translate(-53.515 -78.613)" fill="#ffc9c9"/>
      <path id="Path_2049" data-name="Path 2049" d="M14.6,151.381c.052-.143.154-.107.256-.072C14.809,151.469,14.72,151.48,14.6,151.381Z" transform="translate(-13.423 -138.993)" fill="#ffc9c9"/>
      <path id="Path_2050" data-name="Path 2050" d="M133.36,170.372a.307.307,0,0,1,.336-.141A.268.268,0,0,1,133.36,170.372Z" transform="translate(-120.959 -156.378)" fill="#ffc9c9"/>
      <path id="Path_2051" data-name="Path 2051" d="M67.768,57.65c-.093.032-.185.056-.258-.041C67.615,57.5,67.7,57.5,67.768,57.65Z" transform="translate(-61.237 -52.86)" fill="#ffc9c9"/>
      <path id="Path_2052" data-name="Path 2052" d="M155.32,154.161a.236.236,0,0,1,.23-.172C155.54,154.136,155.455,154.179,155.32,154.161Z" transform="translate(-140.582 -141.485)" fill="#ffc9c9"/>
      <path id="Path_2053" data-name="Path 2053" d="M153.35,67.312a.745.745,0,0,1,.424.018A.388.388,0,0,1,153.35,67.312Z" transform="translate(-138.77 -61.825)" fill="#ffc9c9"/>
      <path id="Path_2054" data-name="Path 2054" d="M139,168.168a.143.143,0,0,1,.192-.111C139.17,168.168,139.1,168.2,139,168.168Z" transform="translate(-126.092 -154.378)" fill="#ffc9c9"/>
      <path id="Path_2055" data-name="Path 2055" d="M76.7,181.269c0-.035-.007-.071-.01-.106.056-.047.106-.119.194-.066a.068.068,0,0,1,.02.061C76.867,181.246,76.811,181.314,76.7,181.269Z" transform="translate(-69.567 -166.358)" fill="#ffc9c9"/>
      <path id="Path_2056" data-name="Path 2056" d="M82.691,60.536a.1.1,0,0,1-.161-.017C82.59,60.455,82.648,60.462,82.691,60.536Z" transform="translate(-74.868 -55.564)" fill="#ffc9c9"/>
      <path id="Path_2057" data-name="Path 2057" d="M160.57,139.056a.322.322,0,0,1-.35.033A.34.34,0,0,1,160.57,139.056Z" transform="translate(-145.087 -127.734)" fill="#ffc9c9"/>
      <path id="Path_2058" data-name="Path 2058" d="M86.642,33.321a.089.089,0,0,1-.132-.07C86.622,33.146,86.63,33.234,86.642,33.321Z" transform="translate(-78.481 -30.527)" fill="#ffc9c9"/>
      <path id="Path_2059" data-name="Path 2059" d="M32.31,19.885c-.093.007-.176,0-.19-.122C32.243,19.711,32.276,19.8,32.31,19.885Z" transform="translate(-29.531 -18.156)" fill="#ffc9c9"/>
      <path id="Path_2060" data-name="Path 2060" d="M112.4,132.373c-.045.1-.107.146-.21.073C112.232,132.34,112.306,132.327,112.4,132.373Z" transform="translate(-101.77 -121.601)" fill="#ffc9c9"/>
      <path id="Path_2061" data-name="Path 2061" d="M153.29,56.464a.126.126,0,0,1,.176.06C153.372,56.606,153.314,56.583,153.29,56.464Z" transform="translate(-138.715 -51.865)" fill="#ffc9c9"/>
      <path id="Path_2062" data-name="Path 2062" d="M34.55,148.442a.117.117,0,0,1,.18-.032C34.688,148.526,34.63,148.543,34.55,148.442Z" transform="translate(-31.342 -136.332)" fill="#ffc9c9"/>
      <path id="Path_2063" data-name="Path 2063" d="M151,157.207a.147.147,0,0,1,.2-.085A.125.125,0,0,1,151,157.207Z" transform="translate(-136.61 -144.351)" fill="#ffc9c9"/>
      <path id="Path_2064" data-name="Path 2064" d="M95.62,165.052c.019-.114.081-.143.181-.087a.129.129,0,0,1-.181.087Z" transform="translate(-86.741 -151.545)" fill="#ffc9c9"/>
      <path id="Path_2065" data-name="Path 2065" d="M18.929,84a.152.152,0,0,1,.128.189A.147.147,0,0,1,18.929,84Z" transform="translate(-17.397 -77.179)" fill="#ffc9c9"/>
      <path id="Path_2066" data-name="Path 2066" d="M160.16,67.716a.118.118,0,0,1,.185.036C160.267,67.822,160.205,67.814,160.16,67.716Z" transform="translate(-145.031 -62.19)" fill="#ffc9c9"/>
      <path id="Path_2067" data-name="Path 2067" d="M145.18,65.66a.145.145,0,0,1,.219.053.132.132,0,0,1-.219-.053Z" transform="translate(-131.695 -60.301)" fill="#ffc9c9"/>
      <path id="Path_2068" data-name="Path 2068" d="M154.9,106.9c.1-.009.143.049.168.132C154.954,107.058,154.892,107.022,154.9,106.9Z" transform="translate(-140.192 -98.219)" fill="#ffc9c9"/>
      <path id="Path_2069" data-name="Path 2069" d="M87.43,61.422a.136.136,0,1,1-.089-.085A.136.136,0,0,1,87.43,61.422Z" transform="translate(-79.119 -56.35)" fill="#ffc9c9"/>
      <path id="Path_2070" data-name="Path 2070" d="M87.52,116.527a.121.121,0,0,1,.177-.048C87.662,116.582,87.605,116.609,87.52,116.527Z" transform="translate(-79.394 -107.001)" fill="#fff"/>
      <path id="Path_2071" data-name="Path 2071" d="M21.639,143.052a.182.182,0,0,1-.249.028A.314.314,0,0,1,21.639,143.052Z" transform="translate(-19.666 -131.424)" fill="#ffc9c9"/>
      <path id="Path_2072" data-name="Path 2072" d="M60.47,33.347c.075-.022.14-.021.165.072Z" transform="translate(-54.856 -30.648)" fill="#fff"/>
      <path id="Path_2073" data-name="Path 2073" d="M94.973,110.185a.114.114,0,0,1,.093-.135.106.106,0,0,1-.093.135Z" transform="translate(-86.158 -101.114)" fill="#fff"/>
      <path id="Path_2074" data-name="Path 2074" d="M158.578,96.975c-.014.064-.045.108-.118.108C158.472,97.014,158.5,96.961,158.578,96.975Z" transform="translate(-143.469 -89.099)" fill="#ffc9c9"/>
      <path id="Path_2075" data-name="Path 2075" d="M36.592,35.922,36.5,35.79C36.548,35.822,36.636,35.825,36.592,35.922Z" transform="translate(-33.113 -32.905)" fill="#d6cece"/>
      <path id="Path_2076" data-name="Path 2076" d="M50.63,146.615l.086-.065C50.711,146.6,50.685,146.629,50.63,146.615Z" transform="translate(-45.933 -134.65)" fill="#fff"/>
      <path id="Path_2077" data-name="Path 2077" d="M79.06,61.09Z" transform="translate(-71.731 -56.13)" fill="#785d5c"/>
      <path id="Path_2078" data-name="Path 2078" d="M20.972,87a.069.069,0,0,1,.071.085A.068.068,0,0,1,20.972,87Z" transform="translate(-19.28 -79.934)" fill="#ffc9c9"/>
      <path id="Path_2079" data-name="Path 2079" d="M132.21,172.034a.059.059,0,0,1,.089-.044.06.06,0,0,1-.089.044Z" transform="translate(-119.944 -157.995)" fill="#fff"/>
      <path id="Path_2080" data-name="Path 2080" d="M83.446,32.462a.069.069,0,0,1-.106-.037.074.074,0,0,1,.106.037Z" transform="translate(-75.607 -29.802)" fill="#fff"/>
      <path id="Path_2081" data-name="Path 2081" d="M71,38.828c.035-.027.056-.018.065.024C71.026,38.883,71,38.875,71,38.828Z" transform="translate(-64.414 -35.684)" fill="#fff"/>
      <path id="Path_2082" data-name="Path 2082" d="M84.54,161.009c.143-.185.322-.15.457-.2.088-.034.185-.121.291-.053a.115.115,0,0,1,.018.1c-.106.071-.242.207-.322.181A3.944,3.944,0,0,0,84.54,161.009Z" transform="translate(-76.646 -147.676)" fill="#ffc9c9"/>
      <path id="Path_2083" data-name="Path 2083" d="M18.91,108.7c.224-.081.3-.3.4-.468a.29.29,0,0,1,.272-.181c.139,0,.33-.056.408.07s-.075.248-.156.338a2.932,2.932,0,0,0-.387.65.927.927,0,0,1-1.03.463c.07-.359.4-.55.49-.87Z" transform="translate(-16.935 -99.262)" fill="#ff6363"/>
      <path id="Path_2084" data-name="Path 2084" d="M44.28,176.462a.277.277,0,0,1,.279-.018c-.051.111-.147.081-.229.081Z" transform="translate(-40.165 -162.071)" fill="#fff"/>
      <path id="Path_2085" data-name="Path 2085" d="M79.5,189.9c0-.051,0-.1.06-.123.007,0,.02.011.031.017l-.1.1Z" transform="translate(-72.115 -174.359)" fill="#fff"/>
      <path id="Path_2086" data-name="Path 2086" d="M77.877,191.3c-.048-.018-.125.041-.147-.052l.147-.022-.006-.006v.086Z" transform="translate(-70.515 -175.683)" fill="#fff"/>
      <path id="Path_2087" data-name="Path 2087" d="M96.77,7.766l.023-.006,0,.019Z" transform="translate(-87.797 -7.134)" fill="#d6cece"/>
      <path id="Path_2088" data-name="Path 2088" d="M119.74,42.638l.027-.008,0,.024Z" transform="translate(-108.637 -39.168)" fill="#3c0705"/>
    </g>
  </g>
</svg>
