<svg id="Component_49_8" data-name="Component 49 – 8" xmlns="http://www.w3.org/2000/svg" width="15" height="15" viewBox="0 0 15 15">
  <path id="Subtraction_46" data-name="Subtraction 46" d="M7.5,15A7.5,7.5,0,0,1,4.581.589a7.5,7.5,0,0,1,5.839,13.821A7.453,7.453,0,0,1,7.5,15ZM7.5.8a6.7,6.7,0,1,0,6.7,6.7A6.7,6.7,0,0,0,7.5.8Z" transform="translate(0 0)" fill="#ff7474"/>
  <path id="Path_295" data-name="Path 295" d="M0,0H.908a.83.83,0,0,1,.84.819L1.606,1.99V3.607l.141,2.045H0L.146,3.607V1.99Z" transform="translate(6.6 1.546)" fill="#ff7474"/>
  <path id="Path_296" data-name="Path 296" d="M0,0H.343c.52.039,1.316.176,1.285,1.2V5.626H.874A.872.872,0,0,1,0,4.757l.151-1.3Z" transform="translate(10.286 3.489) rotate(90)" fill="#ff7474"/>
  <circle id="Ellipse_138" data-name="Ellipse 138" cx="0.214" cy="0.214" r="0.214" transform="translate(8.348 7.875)" fill="#fff"/>
  <circle id="Ellipse_139" data-name="Ellipse 139" cx="0.214" cy="0.214" r="0.214" transform="translate(6.034 7.875)" fill="#fff"/>
  <path id="Path_297" data-name="Path 297" d="M.874,0c.483,0,.317.649.824.975s1.024.147,1.128.251-.239.089-.483.286c-.148.12-.155.349-.188.389-.083.1-.383-.156-.653-.184C1.269,1.694,1,1.9.874,1.9A.915.915,0,0,1,0,.951.915.915,0,0,1,.874,0Z" transform="translate(3.722 7.618)" fill="#ff7474"/>
  <path id="Path_298" data-name="Path 298" d="M1.967,0c-.483,0-.317.649-.824.975S.12,1.122.016,1.227s.239.089.483.286c.148.12.155.349.188.389.083.1.383-.156.653-.184.233-.024.506.184.629.184A.915.915,0,0,0,2.841.951.915.915,0,0,0,1.967,0Z" transform="translate(8.348 7.618)" fill="#ff7474"/>
  <path id="Path_299" data-name="Path 299" d="M-48.338-10.02c-.248,0-.236-.174-.5-.3-.177-.084-.466.011-.575-.164-.08-.128-.144-.651-.032-.767s.329.26.492.238.169-.374.169-.5c-.037-.471-.209-.564-.124-.758.534-.164.43-.224.57-.231a.972.972,0,0,0,.5.231c.005.228-.131.382-.126.758-.023.115.007.493.217.5.132,0,.42-.314.508-.238.147.127-.037.649-.069.767s-.306.062-.538.164C-48.121-10.2-48.09-10.02-48.338-10.02Z" transform="translate(55.805 20.536)" fill="#ff7474"/>
  <path id="Path_301" data-name="Path 301" d="M41.793,2.055a.353.353,0,0,1,.284,0,5.674,5.674,0,0,1,.917.39,4.708,4.708,0,0,1,.817.586.235.235,0,0,1-.117.441l-.79-.055a1.874,1.874,0,0,1-1.066.54,1.576,1.576,0,0,1-.99-.54l-.722.055a.235.235,0,0,1-.117-.441,5.437,5.437,0,0,1,.838-.586A5.431,5.431,0,0,1,41.793,2.055Z" transform="translate(-34.453 9.279)" fill="#ff7474"/>
  <path id="Path_303" data-name="Path 303" d="M.054.321,0,.606.1.775l.1-.2A.943.943,0,0,1,.258.389,2.386,2.386,0,0,0,1.268.6a.9.9,0,0,0,.649-.5,2.89,2.89,0,0,1-.846.1A2.466,2.466,0,0,1,.349,0Z" transform="translate(6.679 11.742) rotate(-150)" fill="#ff7474"/>
  <path id="Path_304" data-name="Path 304" d="M.054.4,0,.117.115,0,.186.164a.827.827,0,0,0,.072.17A2.386,2.386,0,0,1,1.268.127a.9.9,0,0,1,.649.5,2.89,2.89,0,0,0-.846-.1A2.466,2.466,0,0,0,.349.723Z" transform="matrix(0.875, -0.485, 0.485, 0.875, 7.809, 11.088)" fill="#ff7474"/>
  <path id="Path_305" data-name="Path 305" d="M.231,0A.5.5,0,0,1,.364.16a.563.563,0,0,1,.017.3L.231.41,0,.429.15.27Z" transform="matrix(-0.951, -0.309, 0.309, -0.951, 6.415, 10.734)" fill="#fff"/>
  <path id="Path_307" data-name="Path 307" d="M.231,0A.5.5,0,0,1,.364.16a.563.563,0,0,1,.017.3L.231.41,0,.429.15.27Z" transform="translate(7.055 11.006) rotate(-163)" fill="#fff"/>
  <path id="Path_308" data-name="Path 308" d="M.231.464A.5.5,0,0,0,.364.3.563.563,0,0,0,.381,0L.231.054,0,.035.15.194Z" transform="matrix(0.951, -0.309, 0.309, 0.951, 7.75, 10.574)" fill="#fff"/>
  <path id="Path_306" data-name="Path 306" d="M.231.464A.5.5,0,0,0,.364.3.563.563,0,0,0,.381,0L.231.054,0,.035.15.194Z" transform="matrix(0.951, -0.309, 0.309, 0.951, 8.319, 10.292)" fill="#fff"/>
  <path id="Path_457" data-name="Path 457" d="M.231.464A.5.5,0,0,0,.364.3.563.563,0,0,0,.381,0L.231.054,0,.035.15.194Z" transform="translate(8.297 11.309) rotate(163)" fill="#fff"/>
  <path id="Path_458" data-name="Path 458" d="M.231,0A.5.5,0,0,1,.364.16a.563.563,0,0,1,.017.3L.231.41,0,.429.15.27Z" transform="matrix(0.875, 0.485, -0.485, 0.875, 6.754, 10.846)" fill="#fff"/>
</svg>
