<svg id="Layer_2" data-name="Layer 2" xmlns="http://www.w3.org/2000/svg" width="16.994" height="17.108" viewBox="0 0 16.994 17.108">
  <g id="Layer_1" data-name="Layer 1" transform="translate(0 0)">
    <path id="Path_1770" data-name="Path 1770" d="M13.689,43.584,12.7,40.716l-.134.029q.257,1.1.514,2.207l-.163.068-2.791-4.259.192.665c-.725-.433-1.412-2.087-1-2.534l1.809,2.822.059-.024-1.046-2.273.116-.082a4.959,4.959,0,0,1,.471.641c.36.689.693,1.39,1.036,2.091l.15-.04c.025-.082.082-.163.067-.234a12.547,12.547,0,0,0-.42-1.814c-.381-1.022-.847-2.014-1.2-3.067l.443.741c.009-1.343-.654-2.517-.942-3.784l.1-.039a28.848,28.848,0,0,0,1.263,3.224c.533,1.017.538,2.26,1.363,3.129l.1-.035-.758-3.227.113-.038.236.259V34.062l.114-.011c.213.8.451,1.6.621,2.415.225,1.05.409,2.108.572,3.169.04.258-.114.545-.082.808.105.89.257,1.775.383,2.662a3.245,3.245,0,0,1,0,.463Z" transform="translate(-8.441 -29.228)" fill="#ff8282"/>
    <path id="Path_1771" data-name="Path 1771" d="M140.786,40.761l.736-1.012.1.022-.851,2.32.112.045,1.1-2.159.2.082c-.074.22-.15.439-.225.661.051.075.172.175.155.245a5.211,5.211,0,0,1-.3.981,17.157,17.157,0,0,1-.854,1.669c-.141.239-.417.4-.6.614a6.83,6.83,0,0,0-.429.626l-.506.74-.111-.062q.289-1.17.58-2.339l-.132-.043-1.126,3.2-.112-.013a1.512,1.512,0,0,1-.023-.319c.127-.941.269-1.88.385-2.822.03-.245-.036-.5-.02-.754.029-.445.064-.892.137-1.331.131-.79.288-1.575.44-2.362.036-.183.1-.362.145-.543l.105.008v2.275h.087l1.484-4.565.148.043-.454,1.6.153.082a2.019,2.019,0,0,0,.3-.423c.321-.871.623-1.749.932-2.625l.125.041c-.153.518-.316,1.034-.458,1.553-.148.545-.273,1.1-.419,1.643a5.413,5.413,0,0,1-.226.694c-.251.6-.527,1.189-.766,1.793-.047.12.029.29.049.437Z" transform="translate(-127.169 -31.781)" fill="#ff8282"/>
    <path id="Path_1772" data-name="Path 1772" d="M89.584,29.386c-.048-.527-.119-.948-.116-1.369,0-.393-.037-.685-.7-.572.163-.271.217-.507.354-.572a.393.393,0,0,0,.257-.475c-.069-.811-.124-1.623-.176-2.434-.016-.253,0-.507,0-.736.633-.176.443.452.773.705a5.544,5.544,0,0,0,.038-.579c-.074-1.372-.163-2.744-.231-4.116a10.218,10.218,0,0,1,.3-3.113,6.154,6.154,0,0,1,.218-.585l.12.028q-.163,1.171-.318,2.341l-.063-.019c.021.237.05.474.063.711q.149,2.71.289,5.419a4.052,4.052,0,0,1-.087,1.135,4.567,4.567,0,0,0-.065-.736c-.028-.116-.18-.2-.276-.3-.094.1-.245.2-.269.313a2.471,2.471,0,0,0,.024.61c.042.554.071.572.684.441a4.447,4.447,0,0,1,.128.736c0,.319.082.5.443.428.049-.009.11.047.245.113l-2.18.3.017.154h.551l.069.368.837-.149a6.086,6.086,0,0,1,.111,2.1c-.007.068-.03.133-.036.2-.088,1.063-.23.789-1.063.714-.075-.007-.21-.142-.2-.19C89.411,29.929,89.517,29.61,89.584,29.386Z" transform="translate(-81.514 -14.27)" fill="#ff8282"/>
    <path id="Path_1773" data-name="Path 1773" d="M51.412,16.633c-.072-.49-.163-.972-.212-1.462-.047-.453-.021-.914-.082-1.363-.059-.405-.2-.8-.279-1.2a7.6,7.6,0,0,1-.069-.81l.115-.007.25.785.087-.006q-.057-.49-.116-.976a73.091,73.091,0,0,1,1.265,9.634l-.15.025-.2-.865-.065.007c.014.228.033.456.04.685a2.08,2.08,0,0,1-.065.67q-.736-3.838-1.465-7.675l.13-.034c.124.424.257.846.37,1.273s.213.88.317,1.321Z" transform="translate(-46.345 -10.643)" fill="#ff8282"/>
    <path id="Path_1774" data-name="Path 1774" d="M132.356,19.326q.327-1.242.662-2.485l.163.036q-.662,3.5-1.316,7.008l-.069,0-.047-1.031-.06.006q-.13.537-.261,1.072l-.11-.02c.3-3.115.572-6.232,1.177-9.318.025.138.05.277.088.49l.285-.719.109.029q-.337,2.457-.675,4.914Z" transform="translate(-120.586 -13.195)" fill="#ff8282"/>
    <path id="Path_1775" data-name="Path 1775" d="M88.989,3.833l-.177-.327a18,18,0,0,1,.047,5,1.446,1.446,0,0,1-.111-1.889c.171-.154.174-.219-.03-.356a.822.822,0,0,1-.371-.472A12.814,12.814,0,0,1,88.162,3.6,4.778,4.778,0,0,1,89.616.327,4.543,4.543,0,0,1,90.032,0c-.043.427-.01.713-.307,1.018a3.04,3.04,0,0,0-.482,1.138,2.031,2.031,0,0,0-.2,1.417C89.064,3.621,89.021,3.692,88.989,3.833Z" transform="translate(-80.952 0)" fill="#ff8282"/>
    <path id="Path_1776" data-name="Path 1776" d="M176.36,98.009c.267-.619.48-1.144.721-1.654a11.075,11.075,0,0,1,.539-.969c.034-.056.126-.082.245-.147l-.058.468.051.022.723-1.171C178.7,95.358,177.493,97.217,176.36,98.009Z" transform="translate(-161.944 -86.831)" fill="#ff8282"/>
    <path id="Path_1777" data-name="Path 1777" d="M36.026,46.891l-.516-1.73.132-.041.553,1.722Z" transform="translate(-32.607 -41.432)" fill="#ff8282"/>
    <path id="Path_1778" data-name="Path 1778" d="M91.4,204.05l1.352.28-.016.118a2.929,2.929,0,0,1-1.2-.163C91.48,204.281,91.449,204.133,91.4,204.05Z" transform="translate(-83.929 -187.371)" fill="#ff8282"/>
    <path id="Path_1779" data-name="Path 1779" d="M.642,95.418,0,94.312l.132-.082.654,1.09Z" transform="translate(0 -86.528)" fill="#ff8282"/>
    <path id="Path_1780" data-name="Path 1780" d="M103.84,155.686,105,155.48l.016.1A1.186,1.186,0,0,1,103.84,155.686Z" transform="translate(-95.352 -142.771)" fill="#ff8282"/>
    <path id="Path_1781" data-name="Path 1781" d="M180.45,70.7l.585-1.2.123.061-.6,1.209Z" transform="translate(-165.7 -63.819)" fill="#ff8282"/>
    <path id="Path_1782" data-name="Path 1782" d="M201.271,106.3l-.591.538a.925.925,0,0,1,.479-.682Z" transform="translate(-184.276 -97.482)" fill="#ff8282"/>
  </g>
</svg>
