<svg id="Layer_2" data-name="Layer 2" xmlns="http://www.w3.org/2000/svg" width="17" height="17" viewBox="0 0 17 17">
  <g id="Layer_1" data-name="Layer 1" transform="translate(0 0)">
    <path id="Path_1770" data-name="Path 1770" d="M13.689,43.476,12.7,40.635l-.134.028q.257,1.093.514,2.187l-.163.067L10.124,38.7l.192.658c-.725-.429-1.412-2.068-1-2.511l1.809,2.8.059-.023-1.046-2.252.116-.081a4.916,4.916,0,0,1,.471.635c.36.683.693,1.377,1.036,2.072l.15-.04c.025-.081.082-.162.067-.232a12.336,12.336,0,0,0-.42-1.8c-.381-1.012-.847-2-1.2-3.039l.443.735c.009-1.331-.654-2.494-.942-3.749l.1-.039a28.427,28.427,0,0,0,1.263,3.194c.533,1.008.538,2.239,1.363,3.1l.1-.035-.758-3.2.113-.037.236.257V34.041l.114-.011c.213.8.451,1.587.621,2.393.225,1.04.409,2.089.572,3.14.04.256-.114.54-.082.8.105.882.257,1.758.383,2.638a3.186,3.186,0,0,1,0,.459Z" transform="translate(-8.441 -29.228)" fill="#ff8282"/>
    <path id="Path_1771" data-name="Path 1771" d="M140.786,40.7l.736-1,.1.022-.851,2.3.112.045,1.1-2.139.2.081c-.074.218-.15.435-.225.655.051.075.172.173.155.243a5.128,5.128,0,0,1-.3.972,16.941,16.941,0,0,1-.854,1.654c-.141.237-.417.392-.6.608a6.765,6.765,0,0,0-.429.62l-.506.733-.111-.062q.289-1.159.58-2.317l-.132-.042-1.126,3.173-.112-.013a1.485,1.485,0,0,1-.023-.316c.127-.932.269-1.863.385-2.8.03-.243-.036-.5-.02-.748a13.172,13.172,0,0,1,.137-1.319c.131-.782.288-1.561.44-2.34.036-.181.1-.359.145-.538l.105.008V40.44h.087l1.484-4.523.148.043-.454,1.588.153.081a2,2,0,0,0,.3-.419c.321-.863.623-1.733.932-2.6l.125.041c-.153.513-.316,1.025-.458,1.539-.148.54-.273,1.087-.419,1.628a5.329,5.329,0,0,1-.226.688c-.251.594-.527,1.178-.766,1.777-.047.119.029.288.049.433Z" transform="translate(-127.164 -31.781)" fill="#ff8282"/>
    <path id="Path_1772" data-name="Path 1772" d="M89.584,29.286c-.048-.523-.119-.941-.116-1.359,0-.39-.037-.68-.7-.568.163-.269.217-.5.354-.568a.39.39,0,0,0,.257-.471c-.069-.805-.124-1.611-.176-2.417-.016-.251,0-.5,0-.73.633-.174.443.449.773.7a5.465,5.465,0,0,0,.038-.575c-.074-1.363-.163-2.724-.231-4.087a10.074,10.074,0,0,1,.3-3.09,6.082,6.082,0,0,1,.218-.581l.12.028q-.163,1.163-.318,2.324l-.063-.019c.021.235.05.471.063.706q.149,2.69.289,5.38a4,4,0,0,1-.087,1.126,4.5,4.5,0,0,0-.065-.73c-.028-.115-.18-.2-.276-.3-.094.1-.245.195-.269.311a2.436,2.436,0,0,0,.024.605c.042.55.071.568.684.437a4.386,4.386,0,0,1,.128.73c0,.316.082.5.443.425.049-.009.11.047.245.112l-2.18.3.017.153h.551l.069.365.837-.148a6,6,0,0,1,.111,2.083c-.007.067-.03.132-.036.2-.088,1.055-.23.783-1.063.708-.075-.007-.21-.141-.2-.189C89.411,29.825,89.517,29.509,89.584,29.286Z" transform="translate(-81.511 -14.27)" fill="#ff8282"/>
    <path id="Path_1773" data-name="Path 1773" d="M51.412,16.633c-.072-.49-.163-.972-.212-1.462-.047-.453-.021-.914-.082-1.363-.059-.405-.2-.8-.279-1.2a7.6,7.6,0,0,1-.069-.81l.115-.007.25.785.087-.006q-.057-.49-.116-.976a73.091,73.091,0,0,1,1.265,9.634l-.15.025-.2-.865-.065.007c.014.228.033.456.04.685a2.08,2.08,0,0,1-.065.67q-.736-3.838-1.465-7.675l.13-.034c.124.424.257.846.37,1.273s.213.88.317,1.321Z" transform="translate(-46.343 -10.643)" fill="#ff8282"/>
    <path id="Path_1774" data-name="Path 1774" d="M132.356,19.326q.327-1.242.662-2.485l.163.036q-.662,3.5-1.316,7.008l-.069,0-.047-1.031-.06.006q-.13.537-.261,1.072l-.11-.02c.3-3.115.572-6.232,1.177-9.318.025.138.05.277.088.49l.285-.719.109.029q-.337,2.457-.675,4.914Z" transform="translate(-120.582 -13.195)" fill="#ff8282"/>
    <path id="Path_1775" data-name="Path 1775" d="M88.989,3.833l-.177-.327a18,18,0,0,1,.047,5,1.446,1.446,0,0,1-.111-1.889c.171-.154.174-.219-.03-.356a.822.822,0,0,1-.371-.472A12.814,12.814,0,0,1,88.162,3.6,4.778,4.778,0,0,1,89.616.327,4.543,4.543,0,0,1,90.032,0c-.043.427-.01.713-.307,1.018a3.04,3.04,0,0,0-.482,1.138,2.031,2.031,0,0,0-.2,1.417C89.064,3.621,89.021,3.692,88.989,3.833Z" transform="translate(-80.949 0)" fill="#ff8282"/>
    <path id="Path_1776" data-name="Path 1776" d="M176.36,98.009c.267-.619.48-1.144.721-1.654a11.075,11.075,0,0,1,.539-.969c.034-.056.126-.082.245-.147l-.058.468.051.022.723-1.171C178.7,95.358,177.493,97.217,176.36,98.009Z" transform="translate(-161.939 -86.892)" fill="#ff8282"/>
    <path id="Path_1777" data-name="Path 1777" d="M36.026,46.891l-.516-1.73.132-.041.553,1.722Z" transform="translate(-32.606 -41.458)" fill="#ff8282"/>
    <path id="Path_1778" data-name="Path 1778" d="M91.4,204.05l1.352.28-.016.118a2.929,2.929,0,0,1-1.2-.163C91.48,204.281,91.449,204.133,91.4,204.05Z" transform="translate(-83.926 -187.479)" fill="#ff8282"/>
    <path id="Path_1779" data-name="Path 1779" d="M.642,95.418,0,94.312l.132-.082.654,1.09Z" transform="translate(0 -86.58)" fill="#ff8282"/>
    <path id="Path_1780" data-name="Path 1780" d="M103.84,155.686,105,155.48l.016.1A1.186,1.186,0,0,1,103.84,155.686Z" transform="translate(-95.349 -142.853)" fill="#ff8282"/>
    <path id="Path_1781" data-name="Path 1781" d="M180.45,70.7l.585-1.2.123.061-.6,1.209Z" transform="translate(-165.695 -63.858)" fill="#ff8282"/>
    <path id="Path_1782" data-name="Path 1782" d="M201.271,106.3l-.591.538a.925.925,0,0,1,.479-.682Z" transform="translate(-184.271 -97.539)" fill="#ff8282"/>
  </g>
</svg>
