<svg xmlns="http://www.w3.org/2000/svg" width="12.862" height="12.854" viewBox="0 0 12.862 12.854">
  <g id="eys-of-iyo" transform="translate(0.005 0.001)">
    <path id="Union_34" data-name="Union 34" d="M-14577.593-3046.354a6.416,6.416,0,0,1-6.42-6.449,6.428,6.428,0,0,1,6.472-6.405,6.429,6.429,0,0,1,6.391,6.486,6.415,6.415,0,0,1-6.415,6.369Zm-6.211-6.438a6.267,6.267,0,0,0,6.189,6.24,6.263,6.263,0,0,0,6.259-6.222,6.254,6.254,0,0,0-6.171-6.222h-.034A6.253,6.253,0,0,0-14583.8-3052.792Zm4.663,5.23a6.246,6.246,0,0,1-2.4-3.422c-.105-.362-.187-.736-.278-1.1l.1-.026c.135.223.26.454.406.67a.966.966,0,0,0,.878.523.957.957,0,0,0,.791-.717,1.3,1.3,0,0,0,.073-.878.307.307,0,0,1,.055-.264,3.332,3.332,0,0,0,1.189-1.091l.084.059c-.15.3-.3.611-.457.911-.062.128-.15.242-.209.37a.529.529,0,0,0,.52.772,6.581,6.581,0,0,1,1.654,0,.527.527,0,0,0,.506-.791c-.161-.322-.345-.63-.509-.944a3.4,3.4,0,0,1-.144-.406,4.209,4.209,0,0,0,.758.662.935.935,0,0,1,.6,1,1.611,1.611,0,0,0,.333.9.768.768,0,0,0,1.311.029,7.485,7.485,0,0,0,.567-.941.643.643,0,0,1,.187-.256c-.019.1-.025.208-.052.311a8.784,8.784,0,0,1-1.76,3.656,5.881,5.881,0,0,1-1.392,1.175,2.346,2.346,0,0,1-1.227.36A2.75,2.75,0,0,1-14579.141-3047.562Zm2.6-1.589c.193-.088.377-.2.57-.315a.87.87,0,0,0-.647-.308h-1.918a.726.726,0,0,0-.6.326c.157.073.292.15.436.2a1.437,1.437,0,0,0,.409.106c.494.015.988.011,1.482.011A.663.663,0,0,0-14576.538-3049.151Zm-2.885-.49c.121-.077.216-.132.3-.194a1.582,1.582,0,0,1,1.059-.315,10.4,10.4,0,0,0,1.068,0,1.367,1.367,0,0,1,.9.264c.109.081.234.143.348.212l.04-.044c-.091-.135-.176-.278-.278-.406-.263-.322-.593-.637-1.018-.552a3.116,3.116,0,0,1-1.134,0,.512.512,0,0,0-.089-.008A1.572,1.572,0,0,0-14579.423-3049.641Zm-3.865-3.7a5.735,5.735,0,0,1,5.894-5.194,5.745,5.745,0,0,1,5.578,5.585,5.589,5.589,0,0,1-1.205,3.7,5.316,5.316,0,0,1-2.254,1.728l-.077-.084c.187-.172.373-.337.56-.512a14.2,14.2,0,0,0,1.476-1.417,5.127,5.127,0,0,0,1.072-2.566,5.218,5.218,0,0,0-1.775-4.725,5.031,5.031,0,0,0-2.811-1.274,5.255,5.255,0,0,0-4.1,1.142,5.285,5.285,0,0,0-1.734,2.555,4.976,4.976,0,0,0-.213,2.258,5.361,5.361,0,0,0,2.094,3.62c.377.293.714.637,1.135,1.017A5.594,5.594,0,0,1-14583.288-3053.342Zm8.891,1.336c-.007-.472,0-.944-.018-1.416,0-.1-.1-.264-.173-.282-.179-.044-.263.084-.263.267a2.078,2.078,0,0,1-.033.366c-.008.044-.062.081-.1.121-.036-.037-.095-.07-.1-.114-.036-.146-.04-.3-.084-.447-.048-.168-.117-.326-.354-.22-.048.022-.14-.044-.2-.084-.187-.117-.369-.242-.553-.366l-.1.07v-.827c0-.026.015-.07.029-.073.37-.121.433-.461.557-.758.015-.033.037-.066.084-.157l.315.469.446-.476c.106.117.23.249.34.384.23.289.308.289.523-.007.033-.044.066-.088.143-.194.11.458.205.856.308,1.288a1.286,1.286,0,0,0-.472.919c-.037.509-.044,1.021-.069,1.526a1.845,1.845,0,0,1-.062.282l-.1.007A1.266,1.266,0,0,1-14574.4-3052.006Zm-1.3-3.184c-.08.011-.172.124-.212.208a1.813,1.813,0,0,0-.132.432.2.2,0,0,0,.063.168,1.5,1.5,0,0,0,1.519.329.741.741,0,0,0,.443-.684c-.025-.051-.055-.22-.157-.286a1.5,1.5,0,0,0-.849-.225A5.615,5.615,0,0,0-14575.693-3055.19Zm-4.567,2.8a2.817,2.817,0,0,1-.048-.282c-.018-.274-.011-.549-.047-.82a.29.29,0,0,0-.2-.2c-.073-.007-.172.1-.216.187a1.2,1.2,0,0,1-.153.3,1.981,1.981,0,0,1-.073-.26,1.958,1.958,0,0,0-.531-.948c-.032-.044-.065-.143-.044-.165.249-.252.154-.585.213-.882a2.183,2.183,0,0,1,.055-.216c.055,0,.063,0,.069.007.128.113.322.344.377.315a2.356,2.356,0,0,0,.523-.458.826.826,0,0,0,.1-.146l.385.458.388-.362c.2.285.19.732.645.849v.911c-.477-.04-.655.286-.835.67l-.179-.4a1.622,1.622,0,0,0-.187.366c-.047.26-.062.523-.095.787a2.417,2.417,0,0,1-.062.282Zm.7-2.95c-.2.048-.392.106-.59.157-.314.084-.633.168-.974.263a.838.838,0,0,0,1.219.889,2.211,2.211,0,0,1,.385-.161c.241-.04.5-.117.446-.392a2.885,2.885,0,0,0-.381-.75c-.006-.01-.028-.015-.053-.015A.172.172,0,0,0-14579.558-3055.344Z" transform="translate(14584.009 3059.208)" fill="#ff7474"/>
  </g>
</svg>
