<svg id="Component_182_1" data-name="Component 182 – 1" xmlns="http://www.w3.org/2000/svg" width="16.999" height="10.886" viewBox="0 0 16.999 10.886">
  <rect id="Rectangle_933" data-name="Rectangle 933" width="3.596" height="9.306" transform="translate(4.519 1.798) rotate(-30)" fill="#ff7474"/>
  <rect id="Rectangle_935" data-name="Rectangle 935" width="0.635" height="5.922" rx="0.317" transform="translate(4.122 3.981) rotate(-30)" fill="#ff7474"/>
  <rect id="Rectangle_932" data-name="Rectangle 932" width="0.846" height="6.197" rx="0.423" transform="translate(8.776 1.02) rotate(-30)" fill="#ff7474"/>
  <rect id="Rectangle_938" data-name="Rectangle 938" width="0.357" height="5.922" rx="0.178" transform="translate(0.181 8.474) rotate(-120.5)" fill="#ff7474"/>
  <rect id="Rectangle_937" data-name="Rectangle 937" width="0.357" height="5.922" rx="0.178" transform="translate(0.774 9.744) rotate(-120.5)" fill="#ff7474"/>
  <rect id="Rectangle_930" data-name="Rectangle 930" width="0.357" height="4.23" rx="0.178" transform="translate(11.013 3.822) rotate(-120.5)" fill="#ff7474"/>
  <rect id="Rectangle_934" data-name="Rectangle 934" width="0.357" height="1.692" rx="0.178" transform="translate(10.505 2.552) rotate(-120.5)" fill="#ff7474"/>
  <rect id="Rectangle_931" data-name="Rectangle 931" width="0.357" height="1.692" rx="0.178" transform="translate(11.772 4.929) rotate(-120.5)" fill="#ff7474"/>
  <rect id="Rectangle_936" data-name="Rectangle 936" width="0.357" height="5.922" rx="0.178" transform="translate(1.622 10.886) rotate(-120.5)" fill="#ff7474"/>
  <path id="Path_514" data-name="Path 514" d="M.263.225l2.518-.4L1.373,1.593H0Z" transform="translate(11.495 0.206)" fill="#ff7474"/>
  <path id="Path_512" data-name="Path 512" d="M.263.225l2.518-.4L1.373,1.593H0Z" transform="translate(14.218 0.172)" fill="#ff7474"/>
  <path id="Path_513" data-name="Path 513" d="M.263.225l2.518-.4L1.373,1.593H0Z" transform="translate(12.999 2.484)" fill="#ff7474"/>
</svg>
