<svg id="Component_114_7" data-name="Component 114 – 7" xmlns="http://www.w3.org/2000/svg" width="19.756" height="12.65" viewBox="0 0 19.756 12.65">
  <rect id="Rectangle_933" data-name="Rectangle 933" width="4.178" height="10.815" transform="translate(5.252 2.089) rotate(-30)" fill="#ff7474"/>
  <rect id="Rectangle_935" data-name="Rectangle 935" width="0.737" height="6.882" rx="0.369" transform="translate(4.792 4.626) rotate(-30)" fill="#ff7474"/>
  <rect id="Rectangle_932" data-name="Rectangle 932" width="0.983" height="7.201" rx="0.492" transform="translate(10.199 1.185) rotate(-30)" fill="#ff7474"/>
  <rect id="Rectangle_938" data-name="Rectangle 938" width="0.415" height="6.882" rx="0.207" transform="translate(0.21 9.848) rotate(-120.5)" fill="#ff7474"/>
  <rect id="Rectangle_937" data-name="Rectangle 937" width="0.415" height="6.882" rx="0.207" transform="translate(0.901 11.323) rotate(-120.5)" fill="#ff7474"/>
  <rect id="Rectangle_930" data-name="Rectangle 930" width="0.415" height="4.916" rx="0.207" transform="translate(12.799 4.441) rotate(-120.5)" fill="#ff7474"/>
  <rect id="Rectangle_934" data-name="Rectangle 934" width="0.415" height="1.966" rx="0.207" transform="translate(12.208 2.966) rotate(-120.5)" fill="#ff7474"/>
  <rect id="Rectangle_931" data-name="Rectangle 931" width="0.415" height="1.966" rx="0.207" transform="translate(13.681 5.728) rotate(-120.5)" fill="#ff7474"/>
  <rect id="Rectangle_936" data-name="Rectangle 936" width="0.415" height="6.882" rx="0.207" transform="translate(1.885 12.65) rotate(-120.5)" fill="#ff7474"/>
  <path id="Path_514" data-name="Path 514" d="M.305.289,3.231-.172,1.6,1.879H0Z" transform="translate(13.36 0.211)" fill="#ff7474"/>
  <path id="Path_512" data-name="Path 512" d="M.305.289,3.231-.172,1.6,1.879H0Z" transform="translate(16.524 0.172)" fill="#ff7474"/>
  <path id="Path_513" data-name="Path 513" d="M.305.289,3.231-.172,1.6,1.879H0Z" transform="translate(15.107 2.859)" fill="#ff7474"/>
</svg>
