<svg xmlns="http://www.w3.org/2000/svg" width="17" height="17" viewBox="0 0 17 17">
  <g id="Layer_2" data-name="Layer 2" transform="translate(-0.057 0.002)">
    <g id="Layer_1" data-name="Layer 1" transform="translate(0.057 -0.002)">
      <path id="Path_1488" data-name="Path 1488" d="M104.535,5.14a8.127,8.127,0,0,0-1.558-1.726,1.4,1.4,0,0,0-.374-.24.087.087,0,0,1-.074-.051,5.809,5.809,0,0,0-2.708-1.1c-.284.062-.439.208-.326.516.331.255-.031.4-.094.587a3.051,3.051,0,0,0,.058,1.326.764.764,0,0,1,.063.313c-.023.1-.094.188-.083.3a.878.878,0,0,1-.029.278c-.119.576-.119.576-.962.514-.3-.139-.173-.445-.229-.671s-.121-.085-.2-.049-.181.069-.239-.037a.2.2,0,0,1,.051-.219c.106-.135.242-.242.337-.385a3.464,3.464,0,0,0,.069-1.365c0-.091-.092-.129-.16-.168s-.18-.085-.155-.2.162-.056.232-.11a.062.062,0,0,1,.047-.022A5.08,5.08,0,0,0,98.3,1.42c.01-.293.083-.4.368-.376.126.012.253,0,.378.008.187,0,.139.3.347.278a.924.924,0,0,1,.238-.044,1.605,1.605,0,0,1,.988-.069c.1.058.208.094.3.152.058.035.164.069.146.126-.131.417.263.309.421.432.026.009.048.035.081.026a.1.1,0,0,0-.051-.036c-.167-.059-.4-.13-.319-.33s.291-.09.451-.033a.711.711,0,0,1,.131.038A7.165,7.165,0,0,1,104.4,3.462a5.288,5.288,0,0,0,.594.75c.158.194.164.337-.069.456a.174.174,0,0,0-.061.2.3.3,0,0,1-.015.1C104.777,5.078,104.706,5.2,104.535,5.14Z" transform="translate(-89.421 -0.968)" fill="#ff7474"/>
      <path id="Path_1489" data-name="Path 1489" d="M7.571,45.988a6.977,6.977,0,0,0,1.8.117.2.2,0,0,1-.214.26,1.766,1.766,0,0,0-.3.02,2.153,2.153,0,0,1-.393,0c-.2-.049-.411-.012-.61-.077a1.541,1.541,0,0,1-.792-.107c-.245-.226-.417-.107-.561.146.1.3.371.309.575.319A7.432,7.432,0,0,0,8.4,46.8a.235.235,0,0,1,.139.28,5.988,5.988,0,0,1-3.666-1c-.13-.408-.556-.332-.778-.592-.421-.351-.764-.8-1.181-1.16l-.069-.077a.352.352,0,0,1,.127-.572c.139-.012.168.111.208.216a1.64,1.64,0,0,0,.126.317c.074.118.164.261.3.144s0-.238-.063-.321c-.317-.4-.54-.9-1-1.153a.463.463,0,0,1-.234-.514.957.957,0,0,0-.132-.571,16.786,16.786,0,0,1-.667-2.526.617.617,0,0,0-.18.667,12.756,12.756,0,0,1,.258,1.274.406.406,0,0,0,.031.15c.39.639.549,1.445,1.138,1.939a.238.238,0,0,1,.1.264c-.177.256-.347.222-.517-.012l-.2-.314c-.035-.347-.321-.541-.417-.85a7.9,7.9,0,0,1-.691-2.319,16.4,16.4,0,0,1,.015-2.107,2.886,2.886,0,0,0-.017-.6h0a2.013,2.013,0,0,1,.155-1,4.24,4.24,0,0,0,.22-1.011,8.625,8.625,0,0,1,.95-1.871,9.66,9.66,0,0,1,.718-.983c.107-.1.208-.232.328-.017a4.592,4.592,0,0,0,.263.483.259.259,0,0,1-.076.412c-.278.1-.326.348-.4.594A8.392,8.392,0,0,0,1.87,37.952a8.044,8.044,0,0,0,.654,3.813c.083.189.219.372.12.611a.119.119,0,0,0,.027.1c.608.382.833,1.166,1.376,1.615.046.038.086.084.129.127.2.195.355.448.617.552a7,7,0,0,0,2.575,1.2,1.747,1.747,0,0,0,.2.02Z" transform="translate(-0.952 -30.111)" fill="#ff7474"/>
      <path id="Path_1490" data-name="Path 1490" d="M107.479,66.965l-.139-.2c.278-.139.585.018.867-.114.139-.065.306-.074.432-.208-.171-.063-.318,0-.464-.006s-.34.015-.347-.225c.165-.026.372.111.482-.124l.2-.024c.131-.059.274-.011.409-.049.227-.062.151.274.334.266-.157-.1-.208-.215-.041-.361a6.839,6.839,0,0,0,3.3-1.9,6.989,6.989,0,0,0,1.563-2.528,1.294,1.294,0,0,1,.408-.381c-.192-.031-.3-.112-.2-.31a14.387,14.387,0,0,0,.224-1.768,2.744,2.744,0,0,0-.155-.887,2.982,2.982,0,0,0-.341-1.175.319.319,0,0,1-.152-.408c-.055-.337-.326-.576-.411-.9l.281-.208a.132.132,0,0,1,.139-.034c.174.178.109.433.2.638.051.11.05.244.178.351a.475.475,0,0,0-.11-.678c-.215-.192-.208-.251.079-.4.256.12.242.428.417.6a6.068,6.068,0,0,1,.691,2.747,8.708,8.708,0,0,1-.19,2.569.847.847,0,0,1-.144.381c-.1.235-.152.486-.263.715-.05.1-.051.287-.253.24a.64.64,0,0,1-.114-.556c.023-.081.128-.124.1-.228.015-.079.094-.122.145-.228-.2.058-.356.116-.361.308a.714.714,0,0,1-.261.535c-.1.092-.192.22-.053.353s.2-.008.287-.074.161-.18.294-.081c.03.285-.2.462-.292.694a6.281,6.281,0,0,1-1.8,2.053c-.1.076-.2.143-.3.214s-.316-.1-.3.183c0,.069-.172.094-.244.17a7.142,7.142,0,0,1-2.685,1,5.756,5.756,0,0,1-1.412.026Z" transform="translate(-98.331 -49.997)" fill="#ff7474"/>
      <path id="Path_1491" data-name="Path 1491" d="M25.67,96.49A5.937,5.937,0,0,1,23.487,93.9a6.318,6.318,0,0,1-.524-2.365,3.459,3.459,0,0,1,.224-1.656c.2.292.006.585,0,.877a1.553,1.553,0,0,0,.057.833,10.74,10.74,0,0,0,.7,2.3,6.078,6.078,0,0,0,1.857,2.2.943.943,0,0,1,.267.267c.028.084.108.174.037.256s-.166-.007-.246-.035C25.79,96.555,25.735,96.512,25.67,96.49Z" transform="translate(-21.36 -82.565)" fill="#ff7474"/>
      <path id="Path_1492" data-name="Path 1492" d="M24.4,55.424c-.226.039-.128-.139-.135-.222a10.994,10.994,0,0,1,.131-1.524,4.694,4.694,0,0,1,.891-2.009c.084-.121.181-.232.272-.347.108-.085.181-.2.289-.29.044-.036.094-.081.149-.037a.13.13,0,0,1,.031.157,3.612,3.612,0,0,0-.156.382,13.367,13.367,0,0,0-.808,1.368,8.323,8.323,0,0,0-.527,2.146C24.516,55.183,24.532,55.331,24.4,55.424Z" transform="translate(-22.57 -46.958)" fill="#ff7474"/>
      <path id="Path_1493" data-name="Path 1493" d="M63.881,24.18l-.2.149c.41.018.433.27.417.564s-.006.575,0,.862a.411.411,0,0,1-.128.374.192.192,0,0,1-.081-.069c-.139-.347,0-.709-.046-1.065-.057-.417-.041-.417-.469-.341a5.481,5.481,0,0,0-1.651.609,2.076,2.076,0,0,1-.444.2c-.11.007-.245.076-.315-.049s.069-.194.147-.268A5.269,5.269,0,0,1,63.881,24.18Z" transform="translate(-56.169 -22.501)" fill="#ff7474"/>
      <path id="Path_1494" data-name="Path 1494" d="M87.062,192.4a7.325,7.325,0,0,1-1.451-.093c-.153-.108-.365-.053-.51-.183,0-.128.028-.244.169-.3a7.412,7.412,0,0,1,1.862.322C87.212,192.264,87.153,192.337,87.062,192.4Z" transform="translate(-78.506 -177.009)" fill="#ff7474"/>
      <path id="Path_1495" data-name="Path 1495" d="M44.526,38c-.009.087-.16.139-.085.231.056.069.144-.037.222-.017.049.093-.008.159-.069.208-.363.282-.694.6-1.026.916a.183.183,0,0,1-.217.058c0-.162.133-.271.2-.437-.2.051-.255.257-.428.287.3-.347.542-.754,1.037-.885C44.319,38.317,44.286,38.006,44.526,38Z" transform="translate(-39.794 -35.08)" fill="#ff7474"/>
      <path id="Path_1496" data-name="Path 1496" d="M140.037,4.53c-.222-.046-.444-.09-.666-.139a.183.183,0,0,1-.106-.069.069.069,0,0,1,.053-.1c.526-.139.076-.241-.017-.351a.463.463,0,0,0-.112-.076c.022-.047.053-.054.093-.023a6.366,6.366,0,0,1,1.042.347c-.174.078-.436-.208-.506.03-.055.185.3.116.412.266C140.191,4.487,140.1,4.484,140.037,4.53Z" transform="translate(-128.475 -3.488)" fill="#ff7474"/>
      <path id="Path_1497" data-name="Path 1497" d="M193.921,37.355l-.139,0c0-.026,0-.052.006-.078a.352.352,0,0,0-.007-.269c.278-.085.252-.233.09-.417a1.568,1.568,0,0,1-.5-.706,5.841,5.841,0,0,1,1.319,1.955c-.23-.117-.2-.433-.423-.556C194.129,37.2,194.07,37.486,193.921,37.355Z" transform="translate(-178.387 -33.112)" fill="#ff7474"/>
      <path id="Path_1498" data-name="Path 1498" d="M1.029,71c-.041.3.231.637-.16.9a.256.256,0,0,0,.065.472c.163.069-.024.269-.1.252-.218-.049-.133.115-.177.19a.861.861,0,0,1,.025-.631C.776,71.783.91,71.394,1.029,71Z" transform="translate(-0.562 -65.529)" fill="#ff7474"/>
      <path id="Path_1499" data-name="Path 1499" d="M118.8,1.45l-.093.022c-.36-.171-.669.171-1.02.117-.119-.112-.165.01-.231.069-.289.056-.267-.148-.278-.328l.033-.028c.069.009.139.024.188-.042A3.4,3.4,0,0,1,118.8,1.45Z" transform="translate(-108.129 -1.172)" fill="#ff7474"/>
      <path id="Path_1500" data-name="Path 1500" d="M.147,97.08a.913.913,0,0,1,.085.632.474.474,0,0,0-.069.46,9.445,9.445,0,0,1-.01,1.337,6.612,6.612,0,0,1-.076-1.748A1.579,1.579,0,0,1,.147,97.08Z" transform="translate(-0.057 -89.565)" fill="#ff7474"/>
      <path id="Path_1501" data-name="Path 1501" d="M62.12,183.68l.39.106-.091-.191c.009-.006.021-.02.028-.018a2.134,2.134,0,0,1,.96.472c-.006.052-.069.108.035.149.079.031.155.1.078.2l-.173-.043a2.025,2.025,0,0,1-.859-.417Z" transform="translate(-57.33 -169.329)" fill="#ff7474"/>
      <path id="Path_1502" data-name="Path 1502" d="M104.974.527a1.791,1.791,0,0,0-.646.008c-.214.087-.036.358-.106.547a2.4,2.4,0,0,0-.056.612c-.01.119.044.26-.106.335.009-.41.016-.819.028-1.229,0-.118-.06-.253.069-.347A1.163,1.163,0,0,1,105,.5Z" transform="translate(-96.061 -0.372)" fill="#ff7474"/>
      <path id="Path_1503" data-name="Path 1503" d="M32.442,35.217c-.006-.228.024-.428.285-.518.2-.069.208-.219.088-.377a.876.876,0,0,1-.16-.442c.194.082.208.335.421.417.121.047.047.182-.037.255A2.6,2.6,0,0,0,32.442,35.217Z" transform="translate(-30.193 -31.278)" fill="#ff7474"/>
      <path id="Path_1504" data-name="Path 1504" d="M206.44,147.74c.012-.267.267-.442.269-.713h0c.222-.171.226-.454.347-.677.052-.1.036-.227.151-.29A3.888,3.888,0,0,1,206.44,147.74Z" transform="translate(-190.549 -134.816)" fill="#ff7474"/>
      <path id="Path_1505" data-name="Path 1505" d="M20.82,177.064c-.019.173-.247.285-.142.494l-.5-.625c.172.155.335,0,.5-.014a.139.139,0,0,1,.137.144Z" transform="translate(-18.783 -163.394)" fill="#ff7474"/>
      <path id="Path_1506" data-name="Path 1506" d="M168.35,199.858c.042-.139.36-.2.107-.417-.059-.051-.007-.13.058-.17a.2.2,0,0,1,.194.015c.1.044.058.208.19.22A1.158,1.158,0,0,1,168.35,199.858Z" transform="translate(-155.44 -183.914)" fill="#ff7474"/>
      <path id="Path_1507" data-name="Path 1507" d="M28.38,186.712c.019-.01.05-.033.053-.029.365.367.793.668,1.125,1.069A4.236,4.236,0,0,1,28.38,186.712Z" transform="translate(-26.413 -172.219)" fill="#ff7474"/>
      <path id="Path_1508" data-name="Path 1508" d="M76.055,190.932c-.078-.193-.313-.169-.465-.337l.356.017a.342.342,0,0,1,.394.139c.05.106.069.2-.089.223C76.182,190.98,76.109,190.994,76.055,190.932Z" transform="translate(-69.787 -175.859)" fill="#ff7474"/>
      <path id="Path_1509" data-name="Path 1509" d="M106.337.129a2.424,2.424,0,0,0-.837-.05,1.677,1.677,0,0,1,1.035,0c-.008.1.024.2-.036.3C106.34.363,106.437.179,106.337.129Z" transform="translate(-97.385 0.002)" fill="#ff7474"/>
      <path id="Path_1510" data-name="Path 1510" d="M47.117,186.356c-.438.124-.434-.3-.617-.5C46.765,185.95,46.914,186.185,47.117,186.356Z" transform="translate(-42.936 -171.453)" fill="#ff7474"/>
      <path id="Path_1511" data-name="Path 1511" d="M11.34,162c.154.247.455.417.417.764C11.634,162.5,11.37,162.317,11.34,162Z" transform="translate(-10.556 -149.605)" fill="#ff7474"/>
      <path id="Path_1512" data-name="Path 1512" d="M113.35,178.805l.069-.208a.994.994,0,0,1,.631-.245,5.824,5.824,0,0,0,2.306-.883,1.252,1.252,0,0,1,.526-.249c.118.033.217.079.145.231a3.548,3.548,0,0,1-.625.514.6.6,0,0,1-.563.326,13.433,13.433,0,0,1-1.676.462C113.894,178.788,113.621,178.789,113.35,178.805Z" transform="translate(-104.438 -163.413)" fill="#ff7474"/>
      <path id="Path_1513" data-name="Path 1513" d="M188.447,99.375a6.036,6.036,0,0,1-.4,2.851c-.107.145-.208.319-.4.085a5.179,5.179,0,0,1,.372-1.352,2.012,2.012,0,0,0,.124-.978c.006-.24-.007-.482.006-.722.006-.1.012-.231.149-.228.117,0,.122.116.122.208A.325.325,0,0,0,188.447,99.375Z" transform="translate(-173.064 -91.3)" fill="#ff7474"/>
      <path id="Path_1514" data-name="Path 1514" d="M164.215,151.766a.218.218,0,0,0-.132-.178c-.074-.151.037-.244.122-.323a8.952,8.952,0,0,0,1.292-1.558c.083-.058.17-.135.272-.056a.164.164,0,0,1,.034.259,6.581,6.581,0,0,1-1.383,1.746C164.359,151.707,164.3,151.77,164.215,151.766Z" transform="translate(-151.111 -138.061)" fill="#ff7474"/>
      <path id="Path_1515" data-name="Path 1515" d="M135.031,27.784l.381.139c.121-.069.215-.056.269.085a4.765,4.765,0,0,1,1.4.879c.069.092.171.147.241.237.047.059.144.109.087.2s-.139.056-.218.032-.15-.053-.226-.076c-.407-.258-.792-.549-1.22-.778a2.434,2.434,0,0,0-.592-.267c-.144-.033-.293-.082-.337-.257C134.838,27.855,134.874,27.752,135.031,27.784Z" transform="translate(-124.324 -25.849)" fill="#ff7474"/>
      <path id="Path_1516" data-name="Path 1516" d="M186.681,71.458l-.13-.322a1.17,1.17,0,0,0-.064.549c-.049.479.122.981-.139,1.439a.29.29,0,0,1-.1-.278,6.5,6.5,0,0,0-.417-3.139.487.487,0,0,1-.024-.135,3.627,3.627,0,0,0-.055-.4c-.021-.19.085-.171.2-.085a5.134,5.134,0,0,1,.6,1.458,2.081,2.081,0,0,1,.069.226.417.417,0,0,1,.069.408Z" transform="translate(-171.298 -63.605)" fill="#ff7474"/>
      <path id="Path_1517" data-name="Path 1517" d="M173.509,52.782c-.069,0-.19-.04-.1.1a.476.476,0,0,1,.065.347c-.024,0-.053,0-.065-.015a7.38,7.38,0,0,1-1.029-1.551c.037-.167.122-.208.26-.094a1.186,1.186,0,0,1,.224.251c.176.214.444.373.417.706C173.27,52.69,173.517,52.622,173.509,52.782Z" transform="translate(-159.11 -47.538)" fill="#ff7474"/>
      <path id="Path_1518" data-name="Path 1518" d="M120.794,24.073c-.092.04-.125.131-.174.208-.108.139-.25.076-.376.05-.208-.044-.428-.048-.637-.106a.34.34,0,0,1-.086-.061c.043-.139.172-.153.31-.172-.066-.12-.247-.051-.241-.2a7.869,7.869,0,0,1,1.167.231A.174.174,0,0,0,120.794,24.073Z" transform="translate(-110.311 -22.138)" fill="#ff7474"/>
      <path id="Path_1519" data-name="Path 1519" d="M124.862,207.77c-.1.225.031.278.215.309.081.014.208.042.153.171-.042.1-.147.1-.237.058s-.208-.076-.226-.139c-.1-.355-.394-.2-.608-.254A2.473,2.473,0,0,1,124.862,207.77Z" transform="translate(-114.606 -191.842)" fill="#ff7474"/>
      <path id="Path_1520" data-name="Path 1520" d="M167.29,44.642c-.079-.065-.16-.128-.237-.2-.108-.094-.16-.046-.188.069-.217-.079-.458-.131-.475-.431l.39.136-.319-.431A3.055,3.055,0,0,1,167.29,44.642Z" transform="translate(-153.601 -40.438)" fill="#ff7474"/>
      <path id="Path_1521" data-name="Path 1521" d="M204.517,134c.049.062-.012.185.082.208.156.037.088-.194.217-.208.1.325.1.319-.208.474a2.221,2.221,0,0,0-.3.217A2.017,2.017,0,0,0,204.517,134Z" transform="translate(-188.567 -123.752)" fill="#ff7474"/>
      <path id="Path_1522" data-name="Path 1522" d="M185.085,145.66c.007-.244-.086-.281-.27-.131-.08-.212-.026-.358.208-.417.149.151.244,0,.356-.062,0,.233-.284.364-.219.619l0,0Z" transform="translate(-170.394 -133.962)" fill="#ff7474"/>
      <path id="Path_1523" data-name="Path 1523" d="M80.4,50.77c.007.034.014.069.022.1-.117.125-.235.249-.351.376-.026.03-.078.074-.019.106.028.017.085-.017.129-.028a.086.086,0,0,1,.049.078,5.768,5.768,0,0,1-1.425,1.4c-.258-.065-.2-.213-.079-.353.2-.227.417-.431.625-.643a.965.965,0,0,0,.267-.353C79.842,51.178,80.01,50.844,80.4,50.77Z" transform="translate(-72.545 -46.852)" fill="#ff7474"/>
      <path id="Path_1524" data-name="Path 1524" d="M119.847,57.936c.01-.093.02-.186.03-.278.087-.058.145-.007.208.046a9.114,9.114,0,0,1,.808.787,2.569,2.569,0,0,0,.325.306c.085.231.417.31.378.619a.208.208,0,0,1-.139.05,1.789,1.789,0,0,1-.74-.59,6.253,6.253,0,0,0-.611-.61c-.128.017-.077.177-.172.223-.076.037-.1,0-.117-.064A2.056,2.056,0,0,1,119.847,57.936Z" transform="translate(-110.551 -53.191)" fill="#ff7474"/>
      <path id="Path_1525" data-name="Path 1525" d="M121.818,56.748c-.315-.159-.474-.482-.735-.7-.188-.158-.342-.36-.548-.5,0-.082-.062-.208.113-.176.139.011.224.115.328.185.092.087.163.194.26.278.173.169.352.332.516.51.087.1.176.187.134.333A.148.148,0,0,1,121.818,56.748Z" transform="translate(-111.232 -51.111)" fill="#ff7474"/>
      <path id="Path_1526" data-name="Path 1526" d="M105.985,62v.556a.139.139,0,0,1-.128.167,1.109,1.109,0,0,1-.91-.078.163.163,0,0,1-.024-.123.069.069,0,0,1,.1-.038c.091,0,.182.01.272.012C105.848,62.5,105.848,62.5,105.985,62Z" transform="translate(-96.849 -57.256)" fill="#ff7474"/>
      <path id="Path_1527" data-name="Path 1527" d="M119.351,29.14h.074a.179.179,0,0,1,.078.11,6.5,6.5,0,0,1,.069,1.389.082.082,0,0,1-.108.03.4.4,0,0,1-.126-.371C119.343,29.914,119.347,29.527,119.351,29.14Z" transform="translate(-110.204 -27.116)" fill="#ff7474"/>
      <path id="Path_1528" data-name="Path 1528" d="M101.428,56.741h-.06c-.162-.1-.125-.316-.266-.425-.047-.083.043-.178-.025-.259l-.027-.025c.065-.11.16-.233.283-.194.149.049.029.194.035.3C101.381,56.339,101.408,56.537,101.428,56.741Z" transform="translate(-93.311 -51.555)" fill="#ff7474"/>
      <path id="Path_1529" data-name="Path 1529" d="M121.2,51.079l.069-.009c.181.006.271.139.366.263.122.288.122.288-.1.3-.1-.069-.249-.1-.265-.259Z" transform="translate(-111.909 -47.167)" fill="#ff7474"/>
      <path id="Path_1530" data-name="Path 1530" d="M197.7,52c.092.025.232-.006.235.135s-.133.119-.228.135C197.508,52.187,197.567,52.1,197.7,52Z" transform="translate(-182.302 -48.033)" fill="#ff7474"/>
      <path id="Path_1531" data-name="Path 1531" d="M121.18,2.849a.4.4,0,0,1,.013-.065c.032-.085-.044-.241.1-.244s.083.151.118.24Z" transform="translate(-111.907 -2.363)" fill="#ff7474"/>
      <path id="Path_1532" data-name="Path 1532" d="M151.287,13.181c-.044-.208.11-.112.193-.123.026.063.11.118.01.2S151.345,13.232,151.287,13.181Z" transform="translate(-139.699 -12.139)" fill="#ff7474"/>
      <path id="Path_1533" data-name="Path 1533" d="M5.154,121.885l-.139-.142a1.682,1.682,0,0,1-.787-.865,4.587,4.587,0,0,1-.613-1.34,6.189,6.189,0,0,0-.256-1.072.925.925,0,0,1,.332-.824c.16-.069.143.065.144.148a11.044,11.044,0,0,0,.54,2.194.394.394,0,0,0,.16.259.24.24,0,0,1,.081.358.3.3,0,0,0,.183.47c.486.173.637.667.978.978a.507.507,0,0,1,.106.175c.041.092.347.083.109.283-.165.139-.321.269-.532.058C5.266,122.371,5.27,122.1,5.154,121.885Z" transform="translate(-3.117 -107.955)" fill="#ff7474"/>
      <path id="Path_1534" data-name="Path 1534" d="M80.676,209.293c.147.163.318.11.506.087s.492-.129.542.1c.042.2-.281.27-.453.322a1.417,1.417,0,0,1-1.082.042,1.08,1.08,0,0,1-.818,0,7.117,7.117,0,0,1-.924-.135c-.222-.092-.328-.189-.271-.347.189-.212.4-.365.694-.208a2.215,2.215,0,0,0,.764.074.536.536,0,0,0,.625.069Z" transform="translate(-72.026 -193.071)" fill="#ff7474"/>
      <path id="Path_1535" data-name="Path 1535" d="M47.86,196.313c-.115-.019-.265.056-.329-.107a.11.11,0,0,1,.057-.147c.144-.055.315-.263.429-.124.3.364.764.383,1.128.619.268.174.139.417.335.649a1.549,1.549,0,0,1-1.2-.683A.38.38,0,0,0,47.86,196.313Z" transform="translate(-43.844 -180.786)" fill="#ff7474"/>
      <path id="Path_1536" data-name="Path 1536" d="M7.565,78.417c.008.108-.435.486-.548.464-.086-.016-.125-.069-.066-.139.112-.144.233-.278.354-.417a.139.139,0,0,1,.158-.031A.151.151,0,0,1,7.565,78.417Z" transform="translate(-6.446 -72.298)" fill="#ff7474"/>
      <path id="Path_1537" data-name="Path 1537" d="M6.793,91.42c.1.047.192.108.158.232s-.056.317-.245.328c-.118.007-.149-.11-.109-.2C6.651,91.656,6.588,91.46,6.793,91.42Z" transform="translate(-6.127 -84.434)" fill="#ff7474"/>
      <path id="Path_1538" data-name="Path 1538" d="M39.867,191.471c-.115,0-.212-.027-.236-.151-.017-.09.046-.117.124-.117a.231.231,0,0,1,.236.162C40.026,191.466,39.926,191.457,39.867,191.471Z" transform="translate(-36.596 -176.424)" fill="#ff7474"/>
      <path id="Path_1539" data-name="Path 1539" d="M13.309,69.529c.008.1-.059.121-.13.121-.086,0-.208.038-.229-.083-.017-.083.062-.15.145-.163A.192.192,0,0,1,13.309,69.529Z" transform="translate(-12.052 -64.106)" fill="#ff7474"/>
      <path id="Path_1540" data-name="Path 1540" d="M79.064,208.454a.937.937,0,0,0-.694.208C78.553,208.322,78.807,208.246,79.064,208.454Z" transform="translate(-72.357 -192.371)" fill="#ff7474"/>
      <path id="Path_1541" data-name="Path 1541" d="M99.975,211.069c-.229.173-.446.237-.625-.069A1.91,1.91,0,0,0,99.975,211.069Z" transform="translate(-91.729 -194.848)" fill="#ff7474"/>
      <path id="Path_1542" data-name="Path 1542" d="M52.4,201.282c.235-.123.36-.026.417.208Z" transform="translate(-48.388 -185.755)" fill="#ff7474"/>
      <path id="Path_1543" data-name="Path 1543" d="M211.108,94.848c-.273.5.036,1.128-.128,1.726-.039.142.054.27.049.408a.231.231,0,0,1-.124.232c-.122.05-.139-.078-.2-.139-.251-.263-.036-.594-.139-.887a.678.678,0,0,1,.23-.839c.165-.128.015-.549-.221-.712-.076-.053-.18-.076-.146-.2s.128-.053.2-.048a.256.256,0,0,0,.069,0C211.089,94.309,211.11,94.33,211.108,94.848Z" transform="translate(-194.256 -87.024)" fill="#ff7474"/>
      <path id="Path_1544" data-name="Path 1544" d="M199.721,144.322a1.294,1.294,0,0,0-.177.159c-.083.106-.135.267-.3.235a.386.386,0,0,1-.3-.25.426.426,0,0,1,.183-.417c.189-.118.288-.222.215-.468-.055-.182.412-.5.6-.417a.232.232,0,0,1,.112.117.133.133,0,0,1-.074.173c-.08.041-.166.069-.249.1.045.079-.01.11-.069.139a1.83,1.83,0,0,1,.069.625Z" transform="translate(-183.562 -132.141)" fill="#ff7474"/>
      <path id="Path_1545" data-name="Path 1545" d="M173.19,179.686c0,.116-.069.192-.169.182-.251-.024-.288.149-.358.324-.16.4-.457.54-.7.359-.1-.074-.149-.139-.044-.246.308-.3.615-.612.926-.915a.125.125,0,0,1,.185.006A.507.507,0,0,1,173.19,179.686Z" transform="translate(-158.365 -165.397)" fill="#ff7474"/>
      <path id="Path_1546" data-name="Path 1546" d="M201.2,54.167a.263.263,0,0,0,.192-.126c.122-.2.124-.033.153.053-.064.069-.3.1-.029.24a.561.561,0,0,1,.229.8c-.03.069-.043.169-.139.176a.2.2,0,0,1-.2-.153A2.142,2.142,0,0,1,201.2,54.167Z" transform="translate(-185.661 -49.803)" fill="#ff7474"/>
      <path id="Path_1547" data-name="Path 1547" d="M143.187,204.469c-.008.144-.54.379-.667.3-.167-.1-.312-.208-.468.018-.047.069-.126.033-.171-.035s-.065-.148.044-.193a4.192,4.192,0,0,1,.909-.322A.33.33,0,0,1,143.187,204.469Z" transform="translate(-130.91 -188.554)" fill="#ff7474"/>
      <path id="Path_1548" data-name="Path 1548" d="M192.45,169.37c.2.066.243.244.312.394.04.087-.008.191-.094.165-.139-.042-.326-.062-.347-.268A.31.31,0,0,1,192.45,169.37Z" transform="translate(-177.407 -156.427)" fill="#ff7474"/>
      <path id="Path_1549" data-name="Path 1549" d="M208.543,80.22a.378.378,0,0,1,.3.291c.026.187-.176.119-.274.161s-.2-.014-.2-.149S208.394,80.274,208.543,80.22Z" transform="translate(-192.345 -74.093)" fill="#ff7474"/>
      <path id="Path_1550" data-name="Path 1550" d="M210.757,73.064c0,.074-.031.127-.1.114a.192.192,0,0,1-.169-.188c0-.069.024-.152.115-.128A.231.231,0,0,1,210.757,73.064Z" transform="translate(-194.318 -67.298)" fill="#ff7474"/>
      <path id="Path_1551" data-name="Path 1551" d="M209.31,149.139c.022-.047.045-.092.069-.139.083.012.221-.006.18.125C209.51,149.278,209.4,149.166,209.31,149.139Z" transform="translate(-193.22 -137.638)" fill="#ff7474"/>
      <path id="Path_1552" data-name="Path 1552" d="M199.374,166.644c-.069-.018-.081-.069-.076-.131,0-.046.024-.094.079-.093a.1.1,0,0,1,.1.112.1.1,0,0,1-.1.112Z" transform="translate(-183.901 -153.728)" fill="#ff7474"/>
      <path id="Path_1553" data-name="Path 1553" d="M77.307,58.11c.056-.018.11-.126.161-.048.069.1-.053.17-.1.25-.172.406-.556.633-.825.954a7.438,7.438,0,0,1-.643.619c-.1.092-.2.208-.357.1a.239.239,0,0,1,.069-.322c.069-.1.208-.1.3-.172Z" transform="translate(-69.659 -53.556)" fill="#ff7474"/>
      <path id="Path_1554" data-name="Path 1554" d="M75.613,62.39l-.2.219c-.118.022-.272.1-.208-.144.442-.435.842-.914,1.319-1.314-.208.406-.608.638-.886.98C75.581,62.2,75.354,62.284,75.613,62.39Z" transform="translate(-69.391 -56.449)" fill="#ff7474"/>
      <path id="Path_1555" data-name="Path 1555" d="M139.15,73.826l.018-.1c.154-.044.228.078.315.161.24.228.474.463.714.694a4.814,4.814,0,0,0,.508.508c.082.069.163.128.144.25a.2.2,0,0,1-.161.1,1.694,1.694,0,0,1-.517-.417,3.083,3.083,0,0,1-.59-.662C139.473,74.153,139.228,74.058,139.15,73.826Z" transform="translate(-128.395 -68.04)" fill="#ff7474"/>
      <path id="Path_1556" data-name="Path 1556" d="M143.407,83a3.309,3.309,0,0,1,.625.625c.012.069-.009.1-.081.077a4.032,4.032,0,0,1-.69-.694Z" transform="translate(-132.258 -76.652)" fill="#ff7474"/>
      <path id="Path_1557" data-name="Path 1557" d="M131.027,62.316l-.972-.907c-.158-.323-.48-.5-.694-.77.054-.2.074-.208.248-.035.45.457.921.894,1.353,1.369l.119.082c.055.026.11.051.107.126A.192.192,0,0,1,131.027,62.316Z" transform="translate(-119.352 -55.82)" fill="#ff7474"/>
      <path id="Path_1558" data-name="Path 1558" d="M127.958,57.07c-.472-.362-.851-.821-1.285-1.223-.074-.069-.128-.321-.316-.11l-.228-.249c.242-.08-.049-.187.015-.278A18.285,18.285,0,0,1,127.958,57.07Z" transform="translate(-116.372 -50.954)" fill="#ff7474"/>
      <path id="Path_1559" data-name="Path 1559" d="M71.526,62.593c-.163-.081-.056-.255-.149-.4-.823.677-1.458,1.538-2.283,2.2A.119.119,0,0,1,69,64.3c.023-.208.24-.3.31-.477a.261.261,0,0,1,.208-.117,4.837,4.837,0,0,0,.983-.878c.278-.258.542-.524.812-.786.267.069.16.318.23.482C71.538,62.546,71.532,62.571,71.526,62.593Z" transform="translate(-63.634 -57.24)" fill="#ff7474"/>
      <path id="Path_1560" data-name="Path 1560" d="M47.5,104.344c-.282-.278-.567-.548-.846-.826a1.3,1.3,0,0,1,.09-1.968c.319-.119.272.074.226.265-.139.208-.347.347-.347.668a1.01,1.01,0,0,0,.445.928c.191.252.5.42.552.773A.19.19,0,0,1,47.5,104.344Z" transform="translate(-42.687 -93.63)" fill="#ff7474"/>
      <path id="Path_1561" data-name="Path 1561" d="M154.261,83.21l-.081-.131c.156-.024.223.1.308.187.449.445.89.9,1.341,1.34a.531.531,0,0,1,.183.424c-.011.287-.01.574-.011.862,0,.15-.033.278-.208.3-.047-.036-.056-.168-.162-.059-.077.078-.144.165-.219.246-.083.058-.15.146-.264.149a.179.179,0,0,1-.172-.1.259.259,0,0,1,.132-.316c.125-.075.172-.208.258-.308.309-.32.139-.612-.056-.9a.235.235,0,0,1,.019-.149.171.171,0,0,1,.076-.062c.331-.015.38.222.421.464,0,.051-.051.042,0,.04a.181.181,0,0,1,0-.031.442.442,0,0,0-.249-.478,1.341,1.341,0,0,1-.338-.336.509.509,0,0,0-.224-.231c-.185-.217-.417-.383-.61-.594C154.322,83.437,154.192,83.367,154.261,83.21Z" transform="translate(-142.251 -76.588)" fill="#ff7474"/>
      <path id="Path_1562" data-name="Path 1562" d="M87.014,159.838c-.282.287-.556.581-.848.86a1.643,1.643,0,0,1-1.243.022,14.338,14.338,0,0,1-1.379-1.3c-.194-.167-.187-.287.083-.342.278.092.417.347.621.525s.372.374.567.552a.611.611,0,0,0,.676.347.35.35,0,0,1,.347.084c.03.135-.069.118-.146.119a4.017,4.017,0,0,1-.5-.01c.749.026.625.075,1.191-.463.172-.164.278-.437.583-.424Z" transform="translate(-76.859 -146.828)" fill="#ff7474"/>
      <path id="Path_1563" data-name="Path 1563" d="M64.28,139.6a.217.217,0,0,1,.094-.167c.149-.087.233.024.323.108.139.133.278.278.424.4a5.657,5.657,0,0,0,.389.417.357.357,0,0,1,.156.317c-.052.144-.15.144-.267.085Z" transform="translate(-59.325 -128.695)" fill="#ff7474"/>
      <path id="Path_1564" data-name="Path 1564" d="M136.949,129.761c.074-.044.074-.162.174-.181.084.031.091.107.1.179-.816.922-1.708,1.771-2.589,2.628l-.03-.007c-.069-.163.055-.246.142-.342a1.916,1.916,0,0,0,.282-.33.366.366,0,0,1,.065-.074,14.539,14.539,0,0,0,1.749-1.778A.192.192,0,0,1,136.949,129.761Z" transform="translate(-124.108 -119.518)" fill="#ff7474"/>
      <path id="Path_1565" data-name="Path 1565" d="M57.168,87.136a10.571,10.571,0,0,0,.764-.764.265.265,0,0,1,.353.044,3,3,0,0,1-.867.942C57.274,87.461,57.1,87.39,57.168,87.136Z" transform="translate(-52.754 -79.707)" fill="#ff7474"/>
      <path id="Path_1566" data-name="Path 1566" d="M53.677,88.511c.052.224.146.217.3.076a8.97,8.97,0,0,1,.787-.764.083.083,0,0,1,.1-.007c-.039.222-.273.3-.357.486a2.082,2.082,0,0,1-.88.812.165.165,0,0,1-.085-.049c.015-.126.1-.29-.147-.278A.776.776,0,0,1,53.677,88.511Z" transform="translate(-49.282 -81.061)" fill="#ff7474"/>
      <path id="Path_1567" data-name="Path 1567" d="M68.808,80.574l-.1.007c-.11-.024-.208-.1-.328-.075l.486-.486c.006.139.1.15.208.144-.089.069-.162.139-.139.267Z" transform="translate(-63.134 -73.905)" fill="#ff7474"/>
      <path id="Path_1568" data-name="Path 1568" d="M171.194,123.772a.27.27,0,0,1-.1-.179c.041-.128.156-.193.243-.281s.163-.226.274-.139c.151.116-.059.208-.079.316Z" transform="translate(-157.968 -113.732)" fill="#ff7474"/>
      <path id="Path_1569" data-name="Path 1569" d="M80.38,156.881c.082-.028.2,0,.208-.139.154-.062.23.035.3.147a.082.082,0,0,1-.033.08c-.33-.056-.165.133-.128.259C80.506,157.215,80.527,156.966,80.38,156.881Z" transform="translate(-74.22 -144.751)" fill="#ff7474"/>
      <path id="Path_1570" data-name="Path 1570" d="M78.693,118.524a13.888,13.888,0,0,0,3.271.219c.338-.013.674-.085,1.011-.131a.1.1,0,0,1,.017.092.278.278,0,0,1-.142.139c-.17.081-.373,0-.537.113a2.3,2.3,0,0,1-.75.069,2.506,2.506,0,0,0-.885.083.294.294,0,0,1-.237.009c-.56-.315-1.219-.147-1.794-.376-.108-.043-.266-.028-.251-.215A.466.466,0,0,1,78.693,118.524Z" transform="translate(-72.173 -109.441)" fill="#ff7474"/>
      <path id="Path_1571" data-name="Path 1571" d="M154.4,93.042v.135a.773.773,0,0,1-.356.436c-.139.058-.278.128-.407-.015.631-.358.631-.356.091-.9-.2-.2-.392-.412-.588-.618l.084-.077a2.3,2.3,0,0,1,.486.417A1.565,1.565,0,0,1,154.4,93.042Z" transform="translate(-141.341 -84.918)" fill="#ff7474"/>
      <path id="Path_1572" data-name="Path 1572" d="M55.738,95.829c.4-.144.569-.556.916-.759l.065.062c-.172.2-.337.4-.517.592-.23.24-.183.439.145.522a.845.845,0,0,1,.388.119.143.143,0,0,1-.069.084.831.831,0,0,1-.96-.464A.2.2,0,0,1,55.738,95.829Z" transform="translate(-51.419 -87.765)" fill="#ff7474"/>
      <path id="Path_1573" data-name="Path 1573" d="M145.5,113.958a.891.891,0,0,0,.41-.078c.006.018.012.035.019.053a.181.181,0,0,1-.086.139,3.838,3.838,0,0,1-1.3.372.192.192,0,0,1-.152-.065.549.549,0,0,0,0-.069Z" transform="translate(-133.243 -105.178)" fill="#ff7474"/>
      <path id="Path_1574" data-name="Path 1574" d="M71.048,114.075l-.3.013c-.265.025-.482-.035-.57-.322l.028-.047Z" transform="translate(-64.789 -105.04)" fill="#ff7474"/>
      <path id="Path_1575" data-name="Path 1575" d="M153.563,85l.833.833c.013.107-.063.121-.139.134-.082-.009-.148-.036-.154-.133-.189-.269-.5-.423-.673-.706A.139.139,0,0,1,153.563,85Z" transform="translate(-141.632 -78.488)" fill="#ff7474"/>
      <path id="Path_1576" data-name="Path 1576" d="M161.394,97.08a.15.15,0,0,0,.135.074.467.467,0,0,1,.309.231c.073.119.261.2.126.387h0a2.4,2.4,0,0,1-.694-.625Z" transform="translate(-148.887 -89.655)" fill="#ff7474"/>
      <path id="Path_1577" data-name="Path 1577" d="M50.812,106l.009.139a1.214,1.214,0,0,1-.062.373.886.886,0,0,0,.2.808c.186.27.173.334-.069.358-.53-.272-.482-.774-.478-1.244,0-.208.187-.323.354-.426A.106.106,0,0,1,50.812,106Z" transform="translate(-46.543 -97.84)" fill="#ff7474"/>
      <path id="Path_1578" data-name="Path 1578" d="M56.564,125.283c.352-.167-.051-.2-.054-.3.163-.122.278-.04.367.1a2.375,2.375,0,0,0,.3.369,1.01,1.01,0,0,0,.222.251,3.919,3.919,0,0,0,.47.513.29.29,0,0,1,.053.234.139.139,0,0,1-.11.087c-.249-.162-.381-.46-.67-.575Z" transform="translate(-52.154 -115.313)" fill="#ff7474"/>
      <path id="Path_1579" data-name="Path 1579" d="M164.846,109.267l.353-.347c.342.36.367.665.078.979a.113.113,0,0,1-.09.024c-.065-.022-.11-.074-.173-.1-.347-.153-.347-.156-.09-.43.075-.08-.058-.058-.06-.1Z" transform="translate(-152.092 -100.573)" fill="#ff7474"/>
      <path id="Path_1580" data-name="Path 1580" d="M168.216,100.178c0-.156-.13-.242-.2-.36-.069-.162,0-.178.139-.128a1.826,1.826,0,0,0,.317.31.7.7,0,0,1,.321.792c-.014.091.041.244-.108.24-.1,0-.089-.139-.094-.231a2.138,2.138,0,0,0-.016-.307A.376.376,0,0,0,168.216,100.178Z" transform="translate(-155.083 -92.009)" fill="#ff7474"/>
      <path id="Path_1581" data-name="Path 1581" d="M149.215,130.758l-.026.119c-.34.3-.652.637-.978.956-.088.087-.164.2-.309.2a.171.171,0,0,1-.119-.084.2.2,0,0,1-.012-.1c.1-.227.326-.347.458-.545a5.947,5.947,0,0,1,.625-.6.212.212,0,0,1,.187-.044Z" transform="translate(-136.37 -120.615)" fill="#ff7474"/>
      <path id="Path_1582" data-name="Path 1582" d="M157.452,123.51l-.123.087c-.176.143-.347.183-.517-.011a.2.2,0,0,1,0-.1,5.822,5.822,0,0,1,1-.516l.083.006C157.817,123.213,157.54,123.283,157.452,123.51Z" transform="translate(-144.738 -113.562)" fill="#ff7474"/>
      <path id="Path_1583" data-name="Path 1583" d="M165.371,97.273a.131.131,0,0,0-.139.128L165,97.145l.16-.075A.284.284,0,0,1,165.371,97.273Z" transform="translate(-152.361 -89.662)" fill="#ff7474"/>
      <path id="Path_1584" data-name="Path 1584" d="M103.186,167.377a2.788,2.788,0,0,0-.381,0,.649.649,0,0,1-.742-.4c-.024-.06.008-.1.056-.125.139-.044.242.035.355.09a.684.684,0,0,0,.972-.179c.175-.156.32-.356.574-.4a.139.139,0,0,1,.108.1A1.484,1.484,0,0,1,103.186,167.377Z" transform="translate(-94.145 -153.61)" fill="#ff7474"/>
      <path id="Path_1585" data-name="Path 1585" d="M108.877,161.525a4.574,4.574,0,0,0,.917-.881c.065-.2.247-.3.367-.455.112-.1.229-.172.377-.069-.121.251-.4.374-.512.631a1.415,1.415,0,0,0-.556.506c-.335.462-.781.435-1.3.378C108.424,161.53,108.673,161.675,108.877,161.525Z" transform="translate(-99.767 -147.756)" fill="#ff7474"/>
      <path id="Path_1586" data-name="Path 1586" d="M88.314,158.761l-.1.1-1.042-1.042c.007-.011.013-.023.019-.034.017-.056.008-.128.088-.147.262.092.369.365.591.506.164.164.382.278.457.522A.151.151,0,0,1,88.314,158.761Z" transform="translate(-80.46 -145.543)" fill="#ff7474"/>
      <path id="Path_1587" data-name="Path 1587" d="M76.192,147.49l-.069.13-.281-.192c-.144-.244-.433-.356-.561-.615l.092-.092a.2.2,0,0,1,.174.034c.087.06.153.144.235.208.128.088.217.217.337.312C76.176,147.336,76.228,147.4,76.192,147.49Z" transform="translate(-69.495 -135.477)" fill="#ff7474"/>
      <path id="Path_1588" data-name="Path 1588" d="M142.7,135l.985-.953c.09-.086.163-.2.313-.179.056.06.013.1-.028.144l-1.561,1.561a.329.329,0,0,1-.208.106C142.147,135.38,142.317,135.149,142.7,135Z" transform="translate(-131.19 -123.549)" fill="#ff7474"/>
      <path id="Path_1589" data-name="Path 1589" d="M132.08,148.763c-.119.262-.478.347-.5.679a.051.051,0,0,0,0,.056c-.153-.036-.237.085-.347.15-.1.037-.172-.031-.247-.078-.278-.323-.274-.486.009-.682a.281.281,0,0,1,.1.008c.139.052.265.257.433.044.155-.087.208-.351.46-.269Z" transform="translate(-120.7 -137.264)" fill="#ff7474"/>
      <path id="Path_1590" data-name="Path 1590" d="M54.184,109.74c-.146-.107-.306-.2-.331-.408-.02-.167-.149-.181-.287-.163a1,1,0,0,1-.011-1.24,1.4,1.4,0,0,0,.96.449c.16.16.392.192.57.322a4.012,4.012,0,0,0,1.444.222.347.347,0,0,1,.2.027c.767.372,1.541,0,2.311.026a.208.208,0,0,1,.315.1c.06.125-.018.227-.119.293a1.3,1.3,0,0,0-.261.273.506.506,0,0,1-.7.166c-.093-.053-.221-.11-.292-.037-.182.185-.432.178-.643.273a.329.329,0,0,1-.069.069c-.322.233-.608.045-.89-.089-.1-.047-.174-.151-.3-.106a1.583,1.583,0,0,1-.577.033,2.261,2.261,0,0,0-1.134-.139C54.312,109.833,54.24,109.781,54.184,109.74Z" transform="translate(-49.033 -99.584)" fill="#ff7474"/>
      <path id="Path_1591" data-name="Path 1591" d="M109.32,123.26c.076-.1.133-.243.3-.148.139.08.19-.015.245-.1a.329.329,0,0,1,.533-.081c.237.194.383.1.559-.074.128-.127.252-.265.374-.392.183-.193-.053-.217-.2-.242.144-.158.337.064.486-.061a.143.143,0,0,1,.044.126.24.24,0,0,0,.069.347c.069.2.2.218.381.145s.362-.183.544,0l0,.076c.069.208-.061.358-.147.521a2.268,2.268,0,0,1-.51.556c-.282.069-.311-.212-.451-.337-.493.524-.787.546-1.454.192A3.176,3.176,0,0,1,109.32,123.26Z" transform="translate(-100.753 -112.744)" fill="#ff7474"/>
      <path id="Path_1592" data-name="Path 1592" d="M141.953,113.879c0-.045,0-.09.007-.135l.139-.069c.457-.119.915-.235,1.37-.36a.63.63,0,0,0,.167-.112c.12-.021.278-.188.347.023.044.144-.085.215-.247.18a.11.11,0,0,0-.139.113c0,.069.074.081.133.079.145,0,.256.029.239.208a1.584,1.584,0,0,1-.972.556,1.276,1.276,0,0,0-.625.169c-.283.113-.39.01-.347-.308C141.964,114.114,141.889,114.011,141.953,113.879Z" transform="translate(-130.928 -104.426)" fill="#ff7474"/>
      <path id="Path_1593" data-name="Path 1593" d="M77.569,138a.834.834,0,0,1,.355.142c.433.2.807.611,1.358.474.151-.037.287-.094.3-.283.008-.1.011-.231.152-.227a.237.237,0,0,1,.258.229.271.271,0,0,0,.278.287c.025.013.035.028.028.045s-.014.026-.022.026a.4.4,0,0,0-.01.065c-.2.049-.248.262-.4.356-.184.134-.335.013-.491-.063h0c-.157-.069-.29-.079-.321.139-.041.29-.2.366-.459.232-.1-.053-.166-.159-.269-.208-.367.325-.423.332-.885.109-.069-.033-.148-.119-.208-.023-.119.181-.308.171-.5.187.083.175.306.29.176.5-.069.117-.159,0-.236-.033a2.855,2.855,0,0,1-.551-.562l-.135-.139c-.122-.117-.133-.3-.267-.417-.083-.076-.153-.178-.292-.148l-.126-.069-.1-.188a.336.336,0,0,1,.44-.225,2.115,2.115,0,0,0,1.015-.013.632.632,0,0,0,.9.268c.025-.012.009-.087-.033-.153a.457.457,0,0,1,.053-.3Z" transform="translate(-69.195 -127.349)" fill="#ff7474"/>
      <path id="Path_1594" data-name="Path 1594" d="M70.055,134.175c-.3.309-.612.465-1,.108-.16-.146-.312.063-.469.107a1.817,1.817,0,0,1-.492-.483c.374-.309.374-.309.784-.069a.838.838,0,0,0,.972-.081c.133-.09.192.006.278.092a.759.759,0,0,0,.833.115v.347c-.175.278-.373.221-.579.04a.825.825,0,0,1-.122-.069C70.2,134.228,70.116,134.221,70.055,134.175Z" transform="translate(-62.78 -123.434)" fill="#ff7474"/>
      <path id="Path_1595" data-name="Path 1595" d="M67.342,133.153c.09.261.074.389-.272.309a1.852,1.852,0,0,0-.538-.02c-.283.024-.285-.31-.475-.332-.165-.019-.228.322-.471.192-.075-.062-.165-.111-.187-.219a2.3,2.3,0,0,1,1.369.1C66.969,133.242,67.149,133.111,67.342,133.153Z" transform="translate(-60.336 -122.856)" fill="#ff7474"/>
      <path id="Path_1596" data-name="Path 1596" d="M154.35,132.261c.083-.155.074-.347.208-.482.161-.086.324.129.486,0-.162.255-.443.389-.625.621C154.359,132.368,154.388,132.3,154.35,132.261Z" transform="translate(-142.503 -121.684)" fill="#ff7474"/>
      <path id="Path_1597" data-name="Path 1597" d="M148.683,139l.069.139a1.9,1.9,0,0,1-.486.486l-.006-.069Z" transform="translate(-136.895 -128.374)" fill="#ff7474"/>
      <path id="Path_1598" data-name="Path 1598" d="M94.02,152.583c.157.028.267.018.151-.182-.038-.066-.1-.083-.165-.117-.089-.049-.2-.1-.145-.234a.188.188,0,0,1,.24-.085c.208.058.371.1.4-.215.009-.116.139-.123.229,0a.7.7,0,0,0,.44.253c.156.028.309,0,.335-.194.012-.09.031-.16.125-.177.113-.019.16.057.2.149a.381.381,0,0,0,.508.217c-.008-.139-.258-.241-.082-.357a.4.4,0,0,1,.472.05c-.307.106-.311.278-.015.556.05.266-.144.333-.331.406l-.486.417c-.153.089-.239.051-.242-.132a.467.467,0,0,1,.108-.318c.1-.117.033-.208-.032-.308a.179.179,0,0,0-.272-.04,1.625,1.625,0,0,1-.713.2c-.281.033-.022.248-.069.371a.293.293,0,0,1-.01.1c-.029.069-.057.135-.151.115Z" transform="translate(-86.526 -139.926)" fill="#ff7474"/>
      <path id="Path_1599" data-name="Path 1599" d="M102.061,158.892l-.181-.577a1.279,1.279,0,0,0,1.181-.231c.1-.078.216.008.229.122.018.159.312.256.083.474-.213.2-.2.306,0,.41-.4.494-.764.509-1.368.056a.254.254,0,0,1-.013-.06c.024-.05.049-.1.074-.149a1.707,1.707,0,0,1,.309-.008.5.5,0,0,1,.233.053.268.268,0,0,0,.368-.056.252.252,0,0,0,.009-.368c-.047-.035-.1-.053-.146-.006-.019.022-.04.041-.06.06a1.251,1.251,0,0,1-.17.139.815.815,0,0,1-.3.1A.369.369,0,0,1,102.061,158.892Z" transform="translate(-94.014 -145.909)" fill="#ff7474"/>
      <path id="Path_1600" data-name="Path 1600" d="M130.31,161.506c.094-.148.265-.234.331-.406l.153.128a1.439,1.439,0,0,1-.4.372Z" transform="translate(-120.322 -148.794)" fill="#ff7474"/>
      <path id="Path_1601" data-name="Path 1601" d="M78.42,146.045c.188-.274.258-.058.347.084,0,.09-.024.166-.139.144Z" transform="translate(-72.416 -134.777)" fill="#ff7474"/>
      <path id="Path_1602" data-name="Path 1602" d="M81.34,149.164l.139-.144c.258.076.085.347.214.478Z" transform="translate(-75.112 -137.638)" fill="#ff7474"/>
      <path id="Path_1603" data-name="Path 1603" d="M135.27,153.09l.491.063C135.56,153.423,135.413,153.273,135.27,153.09Z" transform="translate(-124.901 -141.416)" fill="#ff7474"/>
      <path id="Path_1604" data-name="Path 1604" d="M140.276,124.05c.078.1.172.2.069.341C140.044,124.334,140.087,124.207,140.276,124.05Z" transform="translate(-129.401 -114.583)" fill="#ff7474"/>
      <path id="Path_1605" data-name="Path 1605" d="M135.259,131.1c-.162.09-.262.127-.4.069C134.954,131.007,135.068,131.025,135.259,131.1Z" transform="translate(-124.529 -121.055)" fill="#ff7474"/>
      <path id="Path_1606" data-name="Path 1606" d="M95.51,140.348a.4.4,0,0,0,.556.069c.081-.015.133-.154.238-.063.031.026.065.082.057.114-.024.1-.114.123-.2.16a1.837,1.837,0,0,1-.867.048c-.36-.018-.183-.231-.128-.4.091-.036.183-.107.273,0-.019.026-.038.058-.009.083S95.484,140.368,95.51,140.348Z" transform="translate(-87.747 -129.515)" fill="#ff7474"/>
      <path id="Path_1607" data-name="Path 1607" d="M97.75,141.125c-.014.106-.049.208-.166.227-.063.011-.1-.049-.1-.108-.01-.139.092-.163.2-.184Z" transform="translate(-90.019 -130.298)" fill="#ff7474"/>
      <path id="Path_1608" data-name="Path 1608" d="M104.48,168.089c.06-.061.094-.156.2-.151.086.078.269.133.069.278-.124.085-.187-.024-.267-.083A.383.383,0,0,1,104.48,168.089Z" transform="translate(-96.479 -155.124)" fill="#ff7474"/>
      <path id="Path_1609" data-name="Path 1609" d="M107.429,164.556c.079-.117-.027-.191-.069-.278l.34-.069c.243.139.3-.11.424-.208.257.171.145.364.034.556a.274.274,0,0,1-.474.082A.394.394,0,0,0,107.429,164.556Z" transform="translate(-99.108 -151.454)" fill="#ff7474"/>
      <path id="Path_1610" data-name="Path 1610" d="M112.724,162.354c.008.167-.015.316-.2.378-.156.052-.2-.048-.222-.168l.139-.142.051.04-.05-.04C112.487,162.206,112.581,162.173,112.724,162.354Z" transform="translate(-103.696 -149.843)" fill="#ff7474"/>
      <path id="Path_1611" data-name="Path 1611" d="M114.251,164.318c.069-.011.155-.1.2.026a.114.114,0,0,1-.1.155c-.123,0-.083-.111-.1-.181Z" transform="translate(-105.508 -151.748)" fill="#ff7474"/>
    </g>
  </g>
</svg>
