<svg id="Component_171_1" data-name="Component 171 – 1" xmlns="http://www.w3.org/2000/svg" width="17" height="17" viewBox="0 0 17 17">
  <g id="Component_89_8" data-name="Component 89 – 8" transform="translate(3.93 3.856)">
    <path id="Union_19" data-name="Union 19" d="M.849,2.616V1.768H0V.919H.849V0H1.7V.919h.919v.849H1.7v.849Z" transform="translate(6.183)" fill="#ff7474"/>
    <path id="Union_20" data-name="Union 20" d="M.642,1.98V1.338H0V.7H.642V0h.642V.7h.7v.642h-.7V1.98Z" transform="translate(5.334 2.051)" fill="#ff7474"/>
    <path id="Subtraction_224" data-name="Subtraction 224" d="M6.243,5.46c-.263,0-.342-.194-.417-.381-.058-.142-.112-.277-.245-.308a.132.132,0,0,0-.03,0,.211.211,0,0,0-.149.089h0l-.09,0-.111,0-.01-.188H5.138v.188H5.129c-.159,0-.4.012-.607.012a2.925,2.925,0,0,1-.347-.014.268.268,0,0,1-.183-.131c-.043-.058-.085-.112-.171-.112a.249.249,0,0,0-.043,0c-.288.368-.41.445-.6.522a5.948,5.948,0,0,1-1.481.148h0c-.241.007-.449.013-.575.027h-.01a.06.06,0,0,1-.047-.02c-.048-.052-.036-.2-.02-.389h0a2.079,2.079,0,0,0-.008-.608c-.261.028-.261.133-.261.323a1.306,1.306,0,0,1-.052.415c-.058.121-.119.179-.187.179a.191.191,0,0,1-.033,0H.493c-.01,0-.019-.016-.03-.034h0C.447,5.148.429,5.12.4,5.116V4.892H.257v.165C.111,5.028,0,5,0,5l.048-1.03h0l.1,0a1.114,1.114,0,0,0,.3-.03.123.123,0,0,0,.079-.062.081.081,0,0,0,0-.059l.423-.088s.156-.3.115-.351a.911.911,0,0,1,.475-.257,2.163,2.163,0,0,1,.5-.055c.128,0,.217.01.217.01V3.077c0-.07-.013-.7-.031-1.026a.786.786,0,0,1,.2-.426,4.7,4.7,0,0,1,.457-.5A1.038,1.038,0,0,1,3.145.968h0C3.28.9,3.419.836,3.458.741,3.471.711,3.3.6,3.121.488h0C2.936.369,2.745.247,2.758.211L2.764.194l0-.009h0C2.8.086,2.837,0,2.924,0a.335.335,0,0,1,.161.06A9.874,9.874,0,0,1,3.89.7l.358.013a.281.281,0,0,0,.1.139.38.38,0,0,0,.179.04h.009l0,0c.01-.014-.027-.124-.028-.125h0c-.02,0-.118-.026-.135-.052A.164.164,0,0,1,4.349.557.066.066,0,0,1,4.412.524h.011A1.274,1.274,0,0,0,4.63.5V.578h.148v-.1A.8.8,0,0,1,4.884.474l.064,0,.112.006a2.248,2.248,0,0,1,1.1.259,1.388,1.388,0,0,1,.628.559.491.491,0,0,0,.179.2c.049-.007.047-.04.039-.151V1.334c0-.007-.013-.02-.03-.036s-.058-.058-.06-.084V1.2a.358.358,0,0,1,0-.108A3.391,3.391,0,0,0,6.967.754c0-.045,0-.083,0-.118A.624.624,0,0,1,6.983.4C7.05.167,7.472.149,7.6.149a1.068,1.068,0,0,1,.219.019l.025.068c.056.153.1.264.215.3a1.836,1.836,0,0,0,.7,1.014h0c.057.05.116.1.163.148a.413.413,0,0,1,.124-.021.21.21,0,0,1,.167.071.275.275,0,0,1,.045.228c0,.025-.033.034-.075.045a.212.212,0,0,0-.172.124A1.982,1.982,0,0,0,8.5,3.407c-.009.079-.018.161-.03.247,0,.012-.027.013-.057.015s-.1,0-.1.041c0,0-.046.064-.014.091a.2.2,0,0,0,.11.021h.034c0,.014.007.029.019.047a.118.118,0,0,1,.026.1.893.893,0,0,1-.122.106h0l-.329-.049a.362.362,0,0,1-.183.06A.207.207,0,0,1,7.675,4a3.962,3.962,0,0,1-.3-.663h0a1.792,1.792,0,0,0-.243-.524h0a.139.139,0,0,0-.082.091c-.054.186.2.561.4.863.147.218.263.39.221.425a.177.177,0,0,1-.032.016h0c-.036.016-.084.038-.093.069a.045.045,0,0,0,.009.039c.017.024.029.043.038.057l0,0c.03.047.03.047.1.076h0c.036.014.09.036.174.073h0a.564.564,0,0,1,.288.078h0l.021.011a.3.3,0,0,1,0,.295.175.175,0,0,1-.148.1.232.232,0,0,1-.167-.093l-.008-.005A.111.111,0,0,0,7.8,4.881c-.039,0-.068.039-.086.116H7.706a.358.358,0,0,1-.082.013c-.067,0-.124-.039-.185-.125a.494.494,0,0,0-.245-.363.249.249,0,0,0-.178-.058c-.027,0-.056,0-.088,0H6.924c-.035,0-.067,0-.1,0a.619.619,0,0,1-.265-.055.98.98,0,0,1-.324-.259.3.3,0,0,0-.151.219c-.013.17.173.349.337.508h0c.149.144.29.28.263.386-.016.063-.088.112-.221.149A.8.8,0,0,1,6.243,5.46ZM2.788,4.377A.171.171,0,0,0,2.7,4.43a.337.337,0,0,0-.039.087h0a.206.206,0,0,1-.043.085.227.227,0,0,1-.091.047A.159.159,0,0,0,2.5,4.66a.327.327,0,0,0-.1.086.432.432,0,0,0,.158.035.218.218,0,0,0,.092-.018.292.292,0,0,0,.176-.213A.412.412,0,0,0,2.788,4.377Zm-2.475,0v.212H.454V4.377ZM4.1,4.271a.106.106,0,1,0,.106.106A.106.106,0,0,0,4.1,4.271ZM5.164,4.2a.106.106,0,1,0,.106.106A.106.106,0,0,0,5.164,4.2ZM2.618,4.059a.106.106,0,1,0,.106.106A.106.106,0,0,0,2.618,4.059Zm2.546-.393a.106.106,0,1,0,.106.106A.106.106,0,0,0,5.164,3.666Zm-1.336.006.014,0a.415.415,0,0,1,.118.1l0,0A.29.29,0,0,0,4,3.806a.157.157,0,0,0,.08.02.272.272,0,0,0,.1-.02h0c-.039-.045-.385-.439-.457-.439H3.709l-.152.09-.291.148.086.1L3.6,3.622l.086.115h.009A.121.121,0,0,0,3.766,3.7l0,0A.1.1,0,0,1,3.828,3.672Zm.623-.548a.171.171,0,0,0,0,.1A.342.342,0,0,0,4.5,3.3a.248.248,0,0,1,.045.071l0,0a.338.338,0,0,0-.039.088.206.206,0,0,1-.043.085A.227.227,0,0,1,4.37,3.6a.163.163,0,0,0-.028.011.327.327,0,0,0-.1.086A.432.432,0,0,0,4.4,3.73a.218.218,0,0,0,.092-.018.319.319,0,0,0,.165-.167.225.225,0,0,0,.043-.1.292.292,0,0,0-.083-.264A.418.418,0,0,0,4.451,3.124Zm2.137.2a.071.071,0,1,0,.071.071A.071.071,0,0,0,6.588,3.327ZM7.766,2.9l-.021.148v.122a.409.409,0,0,1-.069.1l.213-.139.094-.2.037-.263-.1-.193.02.16-.074-.025.02.263L7.812,2.8V2.99L7.766,2.9ZM4.1,3.034a.071.071,0,1,0,.071.071A.071.071,0,0,0,4.1,3.034Zm-.747-.071v.212H3.5V2.963ZM5.24,2.935a.1.1,0,0,1,.033,0A.26.26,0,0,1,5.361,3h0a.179.179,0,0,0,.024.02.334.334,0,0,0,.122.047.433.433,0,0,0-.129-.235.34.34,0,0,0-.195-.071.165.165,0,0,0-.071.014A.335.335,0,0,0,5,2.9a.189.189,0,0,0,.089.051h.022a.358.358,0,0,0,.065-.008h0A.32.32,0,0,1,5.24,2.935Zm1.009-.19h0a.4.4,0,0,0-.14.025.681.681,0,0,0,.293.115h.026a.274.274,0,0,0,.24-.09.249.249,0,0,0-.006-.148.356.356,0,0,0-.053,0,.16.16,0,0,0-.061.01.241.241,0,0,0-.069.05h0a.157.157,0,0,1-.073.047.211.211,0,0,1-.046,0,.521.521,0,0,1-.063,0h-.01Zm.323-.751a.17.17,0,0,0,0,.1.339.339,0,0,0,.052.081.206.206,0,0,1,.048.082.228.228,0,0,1-.01.1.158.158,0,0,0-.006.03.327.327,0,0,0,.019.129.36.36,0,0,0,.15-.2A.292.292,0,0,0,6.74,2.05.417.417,0,0,0,6.572,1.993Zm-2.116.086a.106.106,0,1,0,.106.106A.106.106,0,0,0,4.457,2.079Zm3.616-.071a.071.071,0,1,0,.071.071A.071.071,0,0,0,8.073,2.008Zm.345-.294h0L8.4,1.855l.211.022.015-.141-.211-.022Zm-3.787-.06a.071.071,0,1,0,.071.071A.071.071,0,0,0,4.631,1.655Zm.42-.5a.106.106,0,1,0,.106.106A.106.106,0,0,0,5.051,1.16Zm-.809,0a.071.071,0,1,0,.071.071A.071.071,0,0,0,4.242,1.16Z" transform="translate(0 3.472)" fill="#ff7474"/>
  </g>
  <g id="Component_88_8" data-name="Component 88 – 8">
    <path id="Subtraction_225" data-name="Subtraction 225" d="M6.5,13A6.5,6.5,0,0,1,3.97.511,6.5,6.5,0,0,1,9.03,12.489,6.459,6.459,0,0,1,6.5,13ZM6.5.394A6.106,6.106,0,1,0,12.606,6.5,6.113,6.113,0,0,0,6.5.394Z" transform="translate(2 2)" fill="#ff7474" opacity="0.35"/>
    <g id="Component_87_1" data-name="Component 87 – 1">
      <path id="Subtraction_228" data-name="Subtraction 228" d="M-13515.382-3049.67h-1.266v-5.143l.169-.027h1.1v5.169Z" transform="translate(13524.316 3054.856)" fill="#ff7474"/>
      <path id="Subtraction_227" data-name="Subtraction 227" d="M8.5,17a8.566,8.566,0,0,1-1.713-.173,8.453,8.453,0,0,1-3.039-1.279,8.525,8.525,0,0,1-3.08-3.74,8.457,8.457,0,0,1-.5-1.6,8.584,8.584,0,0,1,0-3.426A8.456,8.456,0,0,1,1.452,3.748,8.564,8.564,0,0,1,2.49,2.49l.112-.11.754.754A7.434,7.434,0,1,0,8.5,1.063c-.191,0-.383.007-.573.022V.019C8.117.006,8.31,0,8.5,0a8.566,8.566,0,0,1,1.713.173,8.455,8.455,0,0,1,3.039,1.279,8.523,8.523,0,0,1,3.08,3.74,8.454,8.454,0,0,1,.5,1.6,8.584,8.584,0,0,1,0,3.426,8.455,8.455,0,0,1-1.279,3.039,8.526,8.526,0,0,1-3.74,3.08,8.461,8.461,0,0,1-1.6.5A8.565,8.565,0,0,1,8.5,17Z" transform="translate(0 0)" fill="#ff7474"/>
    </g>
  </g>
</svg>
