<svg id="Component_170_3" data-name="Component 170 – 3" xmlns="http://www.w3.org/2000/svg" width="17" height="17" viewBox="0 0 17 17">
  <path id="Path_1010" data-name="Path 1010" d="M791.013,353.635a2.407,2.407,0,0,0,.237.408c.1.109.25.276.352.259a.515.515,0,0,0,.341-.316c.028-.105-.1-.288-.205-.382a1.6,1.6,0,0,0-.449-.191l.056.213c-.219.007-.218-.01-.17-.218a9.841,9.841,0,0,0,.192-1.042.977.977,0,0,0-.56-.991c-.5-.306-.536-.4-.359-.941.349-1.063.7-2.123,1.058-3.187.013-.039.028-.078.042-.117l.088.029a5.934,5.934,0,0,1,.3.805,24.669,24.669,0,0,0,.83,2.53c.146.444.1.585-.3.836a1.576,1.576,0,0,0-.306,2.238c.141.161.3.321.172.566a.668.668,0,0,1-.637.439.834.834,0,0,1-.816-.362C790.759,354.022,790.759,353.85,791.013,353.635Z" transform="translate(-780.001 -342.038)" fill="#ff8282"/>
  <path id="Path_1011" data-name="Path 1011" d="M727.3,350.8c-.093-.275-.224-.537-.312-.813-.267-.845-.521-1.694-.8-2.619-.157.415-.289.735-.4,1.067a1.585,1.585,0,0,0-.023.381c-.526.067-.082.387-.006.656l-.3-.184c-.184.506-.368.989-.53,1.482-.138.429-.052.559.33.8a1.252,1.252,0,0,1,.482.475,1.679,1.679,0,0,1-.221,1.8.5.5,0,0,0,.066.792.909.909,0,0,0,1.21-.123.441.441,0,0,0-.016-.613,1.088,1.088,0,0,0-.238-.138.791.791,0,0,0-.061.278c.042.332-.14.535-.456.49a1.611,1.611,0,0,0-.242,0c-.112-.432-.043-.749.49-.783.065,0,.173-.164.17-.249-.008-.256-.075-.509-.093-.765a1.136,1.136,0,0,1,.668-1.2A.525.525,0,0,0,727.3,350.8Zm-.943-.943a1.069,1.069,0,0,1-.33.017c-.055-.007-.1-.078-.151-.123a.558.558,0,0,1,.184-.1,1.913,1.913,0,0,1,.323.012l.072-.1.1.2A.855.855,0,0,1,726.358,349.86Z" transform="translate(-720.634 -342.244)" fill="#ff8282"/>
  <path id="Subtraction_225" data-name="Subtraction 225" d="M7.018,14.036a6.985,6.985,0,0,1-3.924-1.2A7.038,7.038,0,0,1,.551,9.749,7.009,7.009,0,0,1,1.2,3.094,7.038,7.038,0,0,1,4.286.551a7.009,7.009,0,0,1,6.655.647,7.038,7.038,0,0,1,2.543,3.088,7.009,7.009,0,0,1-.647,6.655,7.038,7.038,0,0,1-3.088,2.543A6.974,6.974,0,0,1,7.018,14.036ZM6.978.315a6.663,6.663,0,1,0,6.663,6.663A6.671,6.671,0,0,0,6.978.315Z" transform="translate(1.482 1.482)" fill="#ff8282" opacity="0.5"/>
  <g id="Component_83_1" data-name="Component 83 – 1">
    <path id="Path_852" data-name="Path 852" d="M0,1.139H1.111v4.48H0Z" transform="translate(8.031 -1.065)" fill="#ff8282"/>
    <path id="Subtraction_227" data-name="Subtraction 227" d="M8.5,17a8.566,8.566,0,0,1-1.713-.173,8.453,8.453,0,0,1-3.039-1.279,8.525,8.525,0,0,1-3.08-3.74,8.457,8.457,0,0,1-.5-1.6,8.584,8.584,0,0,1,0-3.426A8.456,8.456,0,0,1,1.452,3.748,8.564,8.564,0,0,1,2.49,2.49l.112-.11.754.754A7.434,7.434,0,1,0,8.5,1.063c-.191,0-.383.007-.573.022V.019C8.117.006,8.31,0,8.5,0a8.566,8.566,0,0,1,1.713.173,8.455,8.455,0,0,1,3.039,1.279,8.523,8.523,0,0,1,3.08,3.74,8.454,8.454,0,0,1,.5,1.6,8.584,8.584,0,0,1,0,3.426,8.455,8.455,0,0,1-1.279,3.039,8.526,8.526,0,0,1-3.74,3.08,8.461,8.461,0,0,1-1.6.5A8.566,8.566,0,0,1,8.5,17Z" transform="translate(0)" fill="#ff8282"/>
  </g>
</svg>
