<svg id="Component_170_2" data-name="Component 170 – 2" xmlns="http://www.w3.org/2000/svg" width="14.436" height="14.435" viewBox="0 0 14.436 14.435">
  <path id="Path_1010" data-name="Path 1010" d="M791.013,353.635a2.407,2.407,0,0,0,.237.408c.1.109.25.276.352.259a.515.515,0,0,0,.341-.316c.028-.105-.1-.288-.205-.382a1.6,1.6,0,0,0-.449-.191l.056.213c-.219.007-.218-.01-.17-.218a9.841,9.841,0,0,0,.192-1.042.977.977,0,0,0-.56-.991c-.5-.306-.536-.4-.359-.941.349-1.063.7-2.123,1.058-3.187.013-.039.028-.078.042-.117l.088.029a5.934,5.934,0,0,1,.3.805,24.669,24.669,0,0,0,.83,2.53c.146.444.1.585-.3.836a1.576,1.576,0,0,0-.306,2.238c.141.161.3.321.172.566a.668.668,0,0,1-.637.439.834.834,0,0,1-.816-.362C790.759,354.022,790.759,353.85,791.013,353.635Z" transform="translate(-781.83 -343.405)" fill="#ff8282"/>
  <path id="Path_1011" data-name="Path 1011" d="M727.3,350.8c-.093-.275-.224-.537-.312-.813-.267-.845-.521-1.694-.8-2.619-.157.415-.289.735-.4,1.067a1.585,1.585,0,0,0-.023.381c-.526.067-.082.387-.006.656l-.3-.184c-.184.506-.368.989-.53,1.482-.138.429-.052.559.33.8a1.252,1.252,0,0,1,.482.475,1.679,1.679,0,0,1-.221,1.8.5.5,0,0,0,.066.792.909.909,0,0,0,1.21-.123.441.441,0,0,0-.016-.613,1.088,1.088,0,0,0-.238-.138.791.791,0,0,0-.061.278c.042.332-.14.535-.456.49a1.611,1.611,0,0,0-.242,0c-.112-.432-.043-.749.49-.783.065,0,.173-.164.17-.249-.008-.256-.075-.509-.093-.765a1.136,1.136,0,0,1,.668-1.2A.525.525,0,0,0,727.3,350.8Zm-.943-.943a1.069,1.069,0,0,1-.33.017c-.055-.007-.1-.078-.151-.123a.558.558,0,0,1,.184-.1,1.913,1.913,0,0,1,.323.012l.072-.1.1.2A.855.855,0,0,1,726.358,349.86Z" transform="translate(-721.382 -343.621)" fill="#ff8282"/>
  <path id="Subtraction_225" data-name="Subtraction 225" d="M5.735,11.471a5.709,5.709,0,0,1-3.207-.98A5.752,5.752,0,0,1,.451,7.968,5.728,5.728,0,0,1,.98,2.529,5.752,5.752,0,0,1,3.5.451,5.728,5.728,0,0,1,8.942.98,5.752,5.752,0,0,1,11.02,3.5a5.728,5.728,0,0,1-.529,5.439A5.752,5.752,0,0,1,7.968,11.02,5.7,5.7,0,0,1,5.735,11.471ZM5.7.258A5.445,5.445,0,1,0,11.149,5.7,5.452,5.452,0,0,0,5.7.258Z" transform="translate(1.482 1.482)" fill="#ff8282" opacity="0.5"/>
  <g id="Component_83_1" data-name="Component 83 – 1">
    <path id="Path_852" data-name="Path 852" d="M0,1.139H1.111v4.48H0Z" transform="translate(6.734 -1.065)" fill="#ff8282"/>
    <path id="Subtraction_227" data-name="Subtraction 227" d="M7.218,14.435a7.274,7.274,0,0,1-1.455-.147A7.178,7.178,0,0,1,3.182,13.2,7.239,7.239,0,0,1,.567,10.027,7.181,7.181,0,0,1,.147,8.672a7.289,7.289,0,0,1,0-2.909A7.18,7.18,0,0,1,1.233,3.182a7.272,7.272,0,0,1,.881-1.068l.1-.094.64.64A6.312,6.312,0,1,0,7.218.9c-.162,0-.326.006-.486.019v-.9C6.893.005,7.056,0,7.218,0A7.273,7.273,0,0,1,8.672.147a7.18,7.18,0,0,1,2.581,1.086,7.237,7.237,0,0,1,2.615,3.176,7.179,7.179,0,0,1,.421,1.355,7.289,7.289,0,0,1,0,2.909A7.179,7.179,0,0,1,13.2,11.253a7.239,7.239,0,0,1-3.176,2.615,7.185,7.185,0,0,1-1.355.421A7.273,7.273,0,0,1,7.218,14.435Z" transform="translate(0)" fill="#ff8282"/>
  </g>
</svg>
