<svg id="Component_176_1" data-name="Component 176 – 1" xmlns="http://www.w3.org/2000/svg" width="15" height="16.2" viewBox="0 0 15 16.2">
  <g id="Rectangle_1450" data-name="Rectangle 1450" fill="none" stroke="#e95050" stroke-width="1">
    <path d="M5,0h8a2,2,0,0,1,2,2V13.2a3,3,0,0,1-3,3H5a5,5,0,0,1-5-5V5A5,5,0,0,1,5,0Z" stroke="none"/>
    <path d="M5,.5h8A1.5,1.5,0,0,1,14.5,2V13.2A2.5,2.5,0,0,1,12,15.7H5A4.5,4.5,0,0,1,.5,11.2V5A4.5,4.5,0,0,1,5,.5Z" fill="none"/>
  </g>
  <g id="Component_37_70" data-name="Component 37 – 70" transform="translate(2 0.642)">
    <g id="halloween-crow-svgrepo-com" transform="translate(0.784 4.01)">
      <path id="Path_356" data-name="Path 356" d="M10.381,16.461c.085-.074-.578-.322-1.289-.549a1.987,1.987,0,0,0-1.008-.279c-.666,0-1.177.933-1.452,1.42-.345.612-1.085.818-1.571,1.294C3.6,19.782,2.272,21.435.782,22.9c-1.556,1.531-.523,1.3.79.448.03-.017.066-.036.108-.055-.845.925-.056.712.924.078a3.59,3.59,0,0,1,1.874-.5,4.1,4.1,0,0,1,1.259,1.273l-.063.02c-.09.028-.4.1-.564.132h0l-.09.02-.076.017a.034.034,0,0,0,0,.067.528.528,0,0,0,.11.009h.109c.017,0,.069,0,.082.015a.278.278,0,0,0,.222.106.718.718,0,0,0,.124-.015A.693.693,0,0,1,5.7,24.5l.148,0c.058,0,.118,0,.177,0a1.208,1.208,0,0,1,.332.037,1.54,1.54,0,0,0,.4.079.971.971,0,0,0,.438-.133.119.119,0,0,1,.083,0,1.008,1.008,0,0,0,.5.124,1.769,1.769,0,0,0,.472-.074.233.233,0,0,1,.061-.007.843.843,0,0,1,.1.009c.029,0,.059.008.089.009h0a.034.034,0,0,0,.027-.056l-.011-.019c-.066-.117-.14-.249-.291-.249a.312.312,0,0,0-.092.015,1.137,1.137,0,0,1-.337.055,1.034,1.034,0,0,1-.827-.463c-.513-.646-.284-1.222.008-1.906a25.742,25.742,0,0,0,1.542-3.278c.149-.5.275-1.486.836-1.608.107-.023.951-.058.969-.153a5.655,5.655,0,0,0-1.168-.355A7.2,7.2,0,0,0,10.381,16.461Zm-3.411,7.8a.758.758,0,0,1-.245.043.882.882,0,0,1-.594-.268,3.144,3.144,0,0,1-.44-.91s.6.48.753.609A2.972,2.972,0,0,1,6.969,24.262Zm1.192-7.778a.188.188,0,1,1,.188-.188A.188.188,0,0,1,8.161,16.483Z" transform="translate(0 -15.629)" fill="#f95151"/>
    </g>
    <text id="_1" data-name="1" transform="translate(2 8)" fill="#fff" font-size="7" font-family="SegoeUI-Bold, Segoe UI" font-weight="700"><tspan x="-2.013" y="0">1</tspan></text>
  </g>
</svg>
