<svg xmlns="http://www.w3.org/2000/svg" width="64.626" height="62.001" viewBox="0 0 64.626 62.001">
  <path id="Subtraction_219" data-name="Subtraction 219" d="M0,62l0,0c.063-.141,6.264-15.028,6.264-30.378C6.264,16.3.065.161,0,0A86.887,86.887,0,0,0,29.488,5.481c.765,0,1.534-.012,2.287-.037A125.435,125.435,0,0,0,63.523,0c-.043.153-4.535,16.3-4.535,31.619A90.049,90.049,0,0,0,61.762,52.4,93.27,93.27,0,0,0,64.624,62c-.171-.054-16.994-5.7-32.849-5.7C15.8,56.3.158,61.943,0,62ZM32.213,35.76a22.249,22.249,0,0,1,6.179,1.072.076.076,0,0,1-.009-.021,18.439,18.439,0,0,1-1.05-5.694,25.611,25.611,0,0,1,.854-5.95.074.074,0,0,1-.022.009,23.765,23.765,0,0,1-5.952,1.015c-.14,0-.284.007-.426.007a16.4,16.4,0,0,1-5.552-1.031.089.089,0,0,1,.01.023,18.989,18.989,0,0,1,1.167,5.928,16.964,16.964,0,0,1-1.178,5.714.087.087,0,0,1,.022-.009A19.963,19.963,0,0,1,32.213,35.76Z" transform="translate(0.002)" fill="#50c774" opacity="0.15"/>
</svg>
