<svg xmlns="http://www.w3.org/2000/svg" viewBox="0 0 76.74 80.58"><g id="Layer_2" data-name="Layer 2"><g id="Layer_1-2" data-name="Layer 1"><path d="M44.63,45.76a24.85,24.85,0,0,1-.92,19c-.23,3-3.79,7,2.15,8.45,1.5,1.45,3.33,2.52,4.6,4.22-1.39,5.41-5.22,2.18-8.1,2.29-1.1-1-2-2.16-3.7-2.17-4.09,0-4.76-2.48-4.4-6,.54-5.2,1-10.43-.77-15.52-1-1.45-2.43-2.14-3.58-.77-2.1,2.5-4.11,1.65-6.31.49-4.46-1.91-8.25-5.25-13.55-5.42-2.68-.09-1.59-2.2-.66-3.69,2.79-4.43,6.16-8.57,7-14,1.75-2.26,5.17-3.7,2.57-7.76-1.12-1.75-1.85-2.65-4-2.69-3.56,0-7-1.11-10.6-1.3l-2.73-.19C.76,19,1.52,18.18,3.26,18.48c3.59.61,7.25.5,10.81,1,6.44.93,6.41,1.13,8.54-4.76,0-2.83,3.05-3,4.24-4.83C32.16,7,37.33,3.71,43.48,2.73c2.23-.81,4.74-.22,6.89-1.72,1.74-1.2,2.34,1,3.41,1.74,5.27,1.72,10.46,2.59,15.51-.82,1.12-.75,3.06-.59,3.52.71,1.27,3.53,5.49,6.23,3.32,10.77-2.1,4.38-6.07,5.72-10.48,6.23a17.32,17.32,0,0,1-3-.11c-.79-1.23-1.71-1.39-2.81-.35-3,2.78-5.82,5.64-9.38,7.82-2,1.23.52,1.32,1.1,1.85.9.62,2.1,1,2.15,2.33,0,.85-.59,1-1.29.75l-3-.79c-2-1.26-3.85-2.12-4.36,1.35,0,.32.06.82-.16.94C37.64,37.36,43.29,41.62,44.63,45.76Z" fill="#dedede"/><path d="M53.78,2.75c-3.43-1.72-6.87,1.17-10.3,0a31.55,31.55,0,0,0,5-1.92C51.21-.78,52.79,0,53.78,2.75Z" fill="#b0b0b0"/><path d="M22.61,14.73c-.92,6-1.62,6.33-7.63,5.79-4.4-.4-8.91-2.21-13.29.23C.81,20.73,0,20.59,0,19.47c.08-1.6,1.4-1.78,2.53-1.68,3.78.34,7.64.43,11.29,1.36C18.32,20.28,21.14,19.12,22.61,14.73Z" fill="#bbb"/><path d="M33.8,54.61c2.88,4.15,1.72,8.87,1.79,13.38.06,4-.42,8,5.11,8.88.68.1,1.16,1.46,1.74,2.23-1,.19-2,.46-2.78-.58l.11.06c-6-.87-6.7-1.9-5.86-8a44.39,44.39,0,0,0-.33-12.76l-.24-1.39C33.08,55.75,33,55.07,33.8,54.61Z" fill="#c5c5c5"/><path d="M4.42,20.94c3.13-.58,6.17.31,9.25.55s5.77.93,6.54,4.61c.72,3.43-1.24,5.14-3.8,6.59.64-1.14,1.32-2.25,1.9-3.42,1.26-2.51-.65-5.84-3.75-6.45C11.19,22.14,7.61,22.57,4.42,20.94Z" fill="#bbb"/><path d="M33.8,54.61c-.16.62-.31,1.24-.46,1.86-1.16-.78-2.5-1.44-3.53-.08-2.5,3.3-4.34,1.55-6.21-.61,2.14.14,4.26.47,6-1.44C31,52.79,32.48,53.07,33.8,54.61Z" fill="#b4b4b4"/><path d="M44.63,45.76c-1.12-1.65-2.24-3.29-3.33-5-1.48-2.24-1.69-4.35.87-6a6,6,0,0,0,2.43-3c1.17-3.09,3-2.57,4.88-.63-4.53.37-8.33,6.44-6.08,9.7Z" fill="#acacac"/><path d="M52.46,31.93c.48-1.24-.4-2.1-.86-3.08,3.07,1.26,6.92,1.41,7.86,5.63A8.51,8.51,0,0,1,52.46,31.93Z" fill="#acacac"/><path d="M43.54,71.74c.29,1,.57,2,.86,3-4.3-3-2.75-6.5-.69-10Q43.62,68.24,43.54,71.74Z" fill="#c5c5c5"/></g></g></svg>