<svg xmlns="http://www.w3.org/2000/svg" width="86" height="46.333" viewBox="0 0 86 46.333">
  <g id="Component_207_1" data-name="Component 207 – 1" transform="translate(1)">
    <text id="Assassinations_Or_Crits" data-name="Assassinations Or Crits" transform="translate(42 44.333)" fill="#fff" font-size="8" font-family="SegoeUI-Bold, Segoe UI" font-weight="700"><tspan x="-42.42" y="0">Assassinations Or Crits</tspan></text>
    <g id="Component_166_3" data-name="Component 166 – 3" transform="translate(26)">
      <path id="Subtraction_381" data-name="Subtraction 381" d="M0,32v0A48.36,48.36,0,0,0,3.1,16.32C3.1,8.411.034.083,0,0a41.847,41.847,0,0,0,14.6,2.829c.377,0,.757-.006,1.129-.019A59.9,59.9,0,0,0,31.454,0a73.263,73.263,0,0,0-2.245,16.32A52.249,52.249,0,0,0,32,32c-.085-.028-8.42-2.939-16.266-2.939A50.974,50.974,0,0,0,0,32ZM15.951,18.457a10.619,10.619,0,0,1,3.06.554A.051.051,0,0,1,19.006,19a9.937,9.937,0,0,1-.519-2.937,13.728,13.728,0,0,1,.423-3.07l-.014.005a11.411,11.411,0,0,1-2.944.523c-.07,0-.141,0-.21,0a7.837,7.837,0,0,1-2.749-.532A.06.06,0,0,1,13,13a10.23,10.23,0,0,1,.576,3.056,9.079,9.079,0,0,1-.583,2.95L13,19A9.585,9.585,0,0,1,15.951,18.457Z" fill="#50c774" opacity="0.65"/>
      <circle id="Ellipse_276" data-name="Ellipse 276" cx="8.25" cy="8.25" r="8.25" transform="translate(8 7)" opacity="0.6"/>
      <text id="_10" data-name="10" transform="translate(9.5 20)" fill="#fff" stroke="#951c1c" stroke-width="0.5" font-size="12" font-family="SegoeUI-Bold, Segoe UI" font-weight="700"><tspan x="0" y="0">10</tspan></text>
    </g>
  </g>
</svg>
