<svg id="Component_215_1" data-name="Component 215 – 1" xmlns="http://www.w3.org/2000/svg" width="54" height="42.999" viewBox="0 0 54 42.999">
  <path id="Subtraction_489" data-name="Subtraction 489" d="M13.755,29.813a6.541,6.541,0,0,1-1.649-.279,8.5,8.5,0,0,1-1.244-.447,3.614,3.614,0,0,0-1.5-.278c-.181,0-.383.01-.583.028v.011H8.757l-.036,0H8.69l-.084,0a.528.528,0,0,0-.069.01v-.007c-.309.013-.564.018-.758.018a1.624,1.624,0,0,1-.426-.029c-.781-.4-2.864-1.179-3.273-1.331l-.012,0,3.965-.862L1.91,22.271l5.648.109L0,13.739l.016.007c.753.312,7.38,3.05,7.974,3.05a.056.056,0,0,0,.042-.011.015.015,0,0,0,0-.016A83.907,83.907,0,0,0,4.479,8.775C3.291,6.389,2.28,4.528,2.271,4.511L11.78,14.978,11.556,7.4l0,.011c.247.55.9,1.984,1.584,3.4.755,1.556,1.715,3.411,2,3.411.117,0,.365-.748.736-2.223.3-1.189.675-2.834,1.118-4.89C17.754,3.624,18.465.027,18.471,0l.673,14.978,7.79-8.355a15.677,15.677,0,0,0-.949,2.018c-.593,1.434-1.6,4.129-3.043,8.819,0,.322-.266,1.945-.269,1.96l5.086-.694L22.673,23.84l6.009.2-.015.006c-.391.154-1.175.468-2.029.841a15.965,15.965,0,0,0-2.79,1.456,2.152,2.152,0,0,0-1.16,1.846c-.028.206-.048.354-.115.406a1.555,1.555,0,0,1-.84.184c-.073,0-.125,0-.139,0l-2.778.166-.016.007c-.379.18-.712.313-.925.392a5.489,5.489,0,0,1-1.7.4.93.93,0,0,1-.591-.16.708.708,0,0,0-.427-.121.759.759,0,0,0-.076,0,.434.434,0,0,0-.093-.008.645.645,0,0,0-.408.144A1.324,1.324,0,0,1,13.755,29.813Zm3.712-2.1a.529.529,0,0,0-.376.282l.006.04c.019.126.019.126-.056.407a1.731,1.731,0,0,1-.1.27.513.513,0,0,0,.11.705.131.131,0,0,0,.034,0c.091,0,.415-.064.773-.882a.928.928,0,0,0-.151-.657c-.088-.145-.152-.161-.175-.161h-.011A.173.173,0,0,0,17.467,27.713Zm-5.041.008c-.024,0-.088.016-.175.16a.93.93,0,0,0-.151.658c.358.818.682.882.773.882a.131.131,0,0,0,.034,0,.515.515,0,0,0,.11-.706,1.792,1.792,0,0,1-.1-.268c-.075-.282-.075-.282-.056-.408l.006-.041a.528.528,0,0,0-.376-.28.172.172,0,0,0-.054.009Zm.956-.573a.443.443,0,0,0-.359.145.431.431,0,0,0-.1.338c0,.058,0,.13,0,.224a2.745,2.745,0,0,0,.206,1.016.789.789,0,0,0,.357.319c.489-.039.462-.419.444-.67l0-.036-.055-1.067a.521.521,0,0,0-.39-.272.179.179,0,0,0-.044,0C13.425,27.149,13.407,27.148,13.382,27.148Zm3.055,0a.515.515,0,0,0-.389.278l-.037,1.068,0,.037c-.012.251-.031.63.452.66a.75.75,0,0,0,.355-.324A2.694,2.694,0,0,0,17,27.845C17,27.758,17,27.69,17,27.635v-.01a.421.421,0,0,0-.452-.478.6.6,0,0,0-.066,0A.166.166,0,0,0,16.437,27.146Zm-5.48-1.208h0a1.481,1.481,0,0,1,.445.175.856.856,0,0,1,.441.565.4.4,0,0,1-.133.432,1.656,1.656,0,0,0-.439.9c-.016.144.164.4.318.592a2.915,2.915,0,0,0,.366.4.174.174,0,0,0,.114-.038.028.028,0,0,0,0-.023,2.116,2.116,0,0,0-.118-.277l-.006-.013,0-.011c-.084-.177-.171-.36-.14-.433a1.188,1.188,0,0,1,.211-.132l.037-.021.027-.015.019-.011.024-.014a.141.141,0,0,0,0-.027V27.97a.6.6,0,0,1,.148-.42.169.169,0,0,1,.107-.032,1.008,1.008,0,0,1,.456.2V27.7c.015-.329.106-.543.256-.6a.459.459,0,0,1,.265-.086.826.826,0,0,1,.535.283v-.006c.039-.162.136-.442.34-.491a1.017,1.017,0,0,1,.18-.017.522.522,0,0,1,.552.409c.077-.162.25-.432.521-.435h.021a.475.475,0,0,1,.423.235,1.023,1.023,0,0,1,.067.123L16,27.13c.03.062.048.1.069.1a.376.376,0,0,0,.118-.055l.015-.009a.869.869,0,0,1,.4-.156.37.37,0,0,1,.075.009.793.793,0,0,1,.373.706c0,.055,0,.088.018.088s.014,0,.036-.032a.412.412,0,0,1,.357-.189.3.3,0,0,1,.259.113.219.219,0,0,1,.006.21c.082.16.115.191.146.191a.1.1,0,0,0,.033-.009l.007,0a.153.153,0,0,1,.054-.012.291.291,0,0,1,.161.074,1.3,1.3,0,0,1-.12.455l-.006.015a.966.966,0,0,0-.1.352.01.01,0,0,0,.008,0,.9.9,0,0,0,.367-.238,1.228,1.228,0,0,0,.354-.537,5.531,5.531,0,0,0-.064-.624,1.432,1.432,0,0,1-.418-.625.556.556,0,0,0-.051-.122.661.661,0,0,1,.192-.486A1.282,1.282,0,0,1,19,25.982l.148,1.515a1.533,1.533,0,0,0,.265.21,1.274,1.274,0,0,0,.666.21,1.411,1.411,0,0,0,1.142-.776,1.1,1.1,0,0,0-.3-1.119c-.138-.165-.248-.3-.162-.466.019-.007.065-.036.117-.183a4.545,4.545,0,0,0,.164-1.2c.018-.034-.016-.07-.027-.08a.074.074,0,0,0-.067-.032,1.2,1.2,0,0,0-.441.216l-.012.009a1.219,1.219,0,0,1-.367.188,1.948,1.948,0,0,1,.353-.637l.011-.016a4.623,4.623,0,0,0,.468-.755,1.616,1.616,0,0,0-.044-.992,2.479,2.479,0,0,0-.427-.957c-.284-.084-.253-.99-.193-1.416.027-.192.061-.311.088-.311,0,0,.009,0,.013.011a7.7,7.7,0,0,1,.976,2.476c.016.039.035.058.058.058.071,0,.158-.185.175-.222a5.779,5.779,0,0,0-1.336-4.527,7.187,7.187,0,0,0-2.386-1.824,6.994,6.994,0,0,0-2.727-.7,4.379,4.379,0,0,0-.457-.023,5.172,5.172,0,0,0-1.8.341,7.011,7.011,0,0,0-1.692.922,7.955,7.955,0,0,0-1.432,1.349A7.119,7.119,0,0,0,8.761,18.87a6.823,6.823,0,0,0-.441,2.047,4.651,4.651,0,0,0,.019.846s.044.089.1.089c.041,0,.078-.044.11-.131a15.267,15.267,0,0,1,.992-2.31.039.039,0,0,1,.018,0,.06.06,0,0,1,.044.027,2.046,2.046,0,0,1,.1,1.132,1.781,1.781,0,0,1-.278.563l-.006.008-.008.012a3.408,3.408,0,0,0-.45.922,1.693,1.693,0,0,0,.138,1.23,7.994,7.994,0,0,0,.594.908l0,.006c.107.147.209.286.281.408a3.68,3.68,0,0,0-.968-.546.063.063,0,0,0-.047.015,5.27,5.27,0,0,0,.072,1.326c.238.218.127.369-.026.579a1.084,1.084,0,0,0,.2,1.691,1.382,1.382,0,0,0,.778.241.861.861,0,0,0,.889-.974,3.506,3.506,0,0,1,.081-1.017Zm4,2.536a.16.16,0,0,1,.068.021.422.422,0,0,0,.469.424c.082,0,.339-.266.344-.336a2.734,2.734,0,0,0,.152-1.027c-.008-.08-.011-.142-.014-.194l0-.027A.432.432,0,0,0,15.857,27a.419.419,0,0,0-.33-.127.617.617,0,0,0-.089.006l-.036,0a.523.523,0,0,0-.387.293v.123a.065.065,0,0,0-.022,0h-.011a.179.179,0,0,0-.04,0l-.03,0v-.119a.516.516,0,0,0-.386-.293.173.173,0,0,0-.034,0,.618.618,0,0,0-.091-.007.417.417,0,0,0-.33.127.438.438,0,0,0-.115.337l0,.027c0,.051-.007.113-.014.191a2.712,2.712,0,0,0,.153,1.027c.006.071.261.337.342.337a.426.426,0,0,0,.471-.435l.007,0,.027-.006Zm-.629-2.384a.173.173,0,0,1-.135-.069A1.949,1.949,0,0,1,13.9,25.2a4.848,4.848,0,0,1,.569-1.4c.142-.254.305-.52.47-.767l.008-.012.01.012A9.4,9.4,0,0,1,16.05,25.2a1.217,1.217,0,0,1-.189.59c-.1.175-.225.3-.292.3a.056.056,0,0,1-.021-.006,5.547,5.547,0,0,1-.573-.612l0,.011C14.821,25.705,14.538,26.09,14.325,26.09ZM11.339,24.4h0c-.748-.2-1.625-1.113-1.531-1.8,0-.683.068-1.136.442-1.426a6.314,6.314,0,0,0,1.541-.524,2.016,2.016,0,0,1,.594-.211,11.791,11.791,0,0,0,1.919.735.523.523,0,0,1,.043.386,2.2,2.2,0,0,1-.831,1.131c-.3.4-.477.695-.623.934l0,.008a1.565,1.565,0,0,1-.515.624A2.21,2.21,0,0,1,11.339,24.4Zm7.243-.006h0a2.209,2.209,0,0,1-1.034-.143,1.536,1.536,0,0,1-.51-.615l-.007-.012a11.054,11.054,0,0,0-.625-.938,2.2,2.2,0,0,1-.831-1.131.518.518,0,0,1,.043-.387.077.077,0,0,1,.007-.018c.921-.327,1.049-.455,1.118-.523s.085-.085.8-.193a1.978,1.978,0,0,1,.589.208,6.191,6.191,0,0,0,1.545.526c.375.292.445.744.441,1.427.1.685-.781,1.593-1.531,1.8Z" transform="translate(13)" fill="#ff8282" opacity="0.75"/>
  <text id="Fighting_Blind" data-name="Fighting Blind" transform="translate(27 40.999)" fill="#fff" font-size="8" font-family="SegoeUI-Bold, Segoe UI" font-weight="700"><tspan x="-26.529" y="0">Fighting Blind</tspan></text>
</svg>
