<svg xmlns="http://www.w3.org/2000/svg" width="54" height="35.282" viewBox="0 0 54 35.282">
  <g id="Component_209_1" data-name="Component 209 – 1" transform="translate(1)">
    <g id="Component_144_3" data-name="Component 144 – 3" transform="translate(15)" opacity="0.75">
      <path id="Path_1010" data-name="Path 1010" d="M791.364,357.088a3.676,3.676,0,0,0,.363.624c.146.166.383.423.539.4a.788.788,0,0,0,.522-.483c.043-.161-.152-.441-.314-.585a2.434,2.434,0,0,0-.687-.292l.085.325c-.336.011-.334-.015-.261-.334a15,15,0,0,0,.294-1.595,1.5,1.5,0,0,0-.856-1.517c-.764-.469-.821-.614-.55-1.441.535-1.627,1.079-3.25,1.62-4.878.02-.06.042-.119.064-.179l.135.045a9.07,9.07,0,0,1,.452,1.233,37.764,37.764,0,0,0,1.271,3.872c.224.68.149.895-.459,1.28a2.412,2.412,0,0,0-.469,3.426c.216.246.459.492.264.867a1.022,1.022,0,0,1-.976.672,1.277,1.277,0,0,1-1.248-.553C790.976,357.679,790.976,357.417,791.364,357.088Z" transform="translate(-777.31 -341.428)" fill="#ff8282"/>
      <path id="Path_1011" data-name="Path 1011" d="M728.593,352.624c-.142-.421-.343-.822-.478-1.245-.408-1.294-.8-2.593-1.23-4.009-.241.635-.442,1.126-.613,1.633a2.427,2.427,0,0,0-.035.582c-.8.1-.125.592-.01,1l-.459-.281c-.281.775-.563,1.514-.812,2.268-.211.657-.079.856.5,1.226a1.916,1.916,0,0,1,.738.727,2.57,2.57,0,0,1-.338,2.762.757.757,0,0,0,.1,1.213,1.391,1.391,0,0,0,1.852-.188.675.675,0,0,0-.025-.938,1.658,1.658,0,0,0-.364-.212,1.21,1.21,0,0,0-.094.425c.065.508-.215.819-.7.75a2.46,2.46,0,0,0-.37,0c-.172-.661-.067-1.147.75-1.2.1-.007.264-.251.261-.381-.012-.391-.114-.779-.142-1.171a1.738,1.738,0,0,1,1.022-1.831A.8.8,0,0,0,728.593,352.624Zm-1.443-1.443a1.634,1.634,0,0,1-.5.025c-.083-.011-.154-.12-.231-.188a.857.857,0,0,1,.282-.152,2.922,2.922,0,0,1,.494.018l.111-.154.159.3A1.307,1.307,0,0,1,727.151,351.181Z" transform="translate(-719.536 -341.631)" fill="#ff8282"/>
      <path id="Subtraction_225" data-name="Subtraction 225" d="M8.779,17.558a8.738,8.738,0,0,1-4.908-1.5A8.8,8.8,0,0,1,.69,12.2,8.767,8.767,0,0,1,1.5,3.871,8.8,8.8,0,0,1,5.362.69a8.768,8.768,0,0,1,8.326.809,8.8,8.8,0,0,1,3.181,3.863,8.767,8.767,0,0,1-.809,8.326A8.8,8.8,0,0,1,12.2,16.868,8.724,8.724,0,0,1,8.779,17.558ZM8.73.395A8.335,8.335,0,1,0,17.065,8.73,8.345,8.345,0,0,0,8.73.395Z" transform="translate(2.269 2.269)" fill="#ff8282" opacity="0.5"/>
      <g id="Component_83_1" data-name="Component 83 – 1">
        <path id="Path_852" data-name="Path 852" d="M0,1.139H1.7V8H0Z" transform="translate(10.308 -1.026)" fill="#ff8282"/>
        <path id="Subtraction_227" data-name="Subtraction 227" d="M11.048,22.1a11.134,11.134,0,0,1-2.227-.224,10.987,10.987,0,0,1-3.95-1.662,11.08,11.08,0,0,1-4-4.861,10.992,10.992,0,0,1-.644-2.074,11.157,11.157,0,0,1,0-4.453,10.991,10.991,0,0,1,1.662-3.95A11.131,11.131,0,0,1,3.236,3.236l.146-.144.98.979a9.662,9.662,0,1,0,6.685-2.691c-.248,0-.5.01-.745.028V.025c.247-.017.5-.025.745-.025a11.133,11.133,0,0,1,2.227.224,10.989,10.989,0,0,1,3.95,1.662,11.078,11.078,0,0,1,4,4.861,10.988,10.988,0,0,1,.644,2.074,11.157,11.157,0,0,1,0,4.453,10.989,10.989,0,0,1-1.662,3.95,11.081,11.081,0,0,1-4.861,4,11,11,0,0,1-2.074.644A11.133,11.133,0,0,1,11.048,22.1Z" fill="#ff8282"/>
      </g>
    </g>
    <text id="Tool_Shortage" data-name="Tool Shortage" transform="translate(26 33.282)" fill="#fff" font-size="8" font-family="SegoeUI-Bold, Segoe UI" font-weight="700"><tspan x="-26.268" y="0">Tool Shortage</tspan></text>
  </g>
</svg>
