<svg id="Component_210_1" data-name="Component 210 – 1" xmlns="http://www.w3.org/2000/svg" width="58" height="35.297" viewBox="0 0 58 35.297">
  <g id="Component_146_3" data-name="Component 146 – 3" transform="translate(18)" opacity="0.75">
    <path id="Union_19" data-name="Union 19" d="M2.1,6.477v-2.1H0v-2.1H2.1V0H4.2V2.276H6.477v2.1H4.2v2.1Z" transform="translate(15.306)" fill="#ff8282"/>
    <path id="Union_20" data-name="Union 20" d="M1.59,4.9V3.312H0V1.722H1.59V0h1.59V1.722H4.9v1.59H3.179V4.9Z" transform="translate(13.203 5.076)" fill="#ff8282"/>
    <path id="Subtraction_224" data-name="Subtraction 224" d="M15.453,13.516c-.651,0-.846-.479-1.033-.943-.143-.352-.278-.685-.607-.764a.326.326,0,0,0-.075-.009.521.521,0,0,0-.37.221h0c-.027,0-.1,0-.224,0-.087,0-.179,0-.275,0l-.024-.465h-.126v.465H12.7c-.392.011-.985.029-1.5.029a7.241,7.241,0,0,1-.86-.034.663.663,0,0,1-.452-.324c-.108-.143-.209-.278-.423-.278a.617.617,0,0,0-.105.01c-.712.912-1.015,1.1-1.492,1.292a14.724,14.724,0,0,1-3.667.367h0c-.6.017-1.111.032-1.423.066H2.745a.149.149,0,0,1-.116-.049c-.119-.13-.089-.5-.05-.963v0A5.146,5.146,0,0,0,2.56,10.63c-.646.069-.646.328-.646.8a3.234,3.234,0,0,1-.128,1.027c-.143.3-.294.444-.462.444a.472.472,0,0,1-.082-.009h-.01l-.01,0h0c-.024,0-.048-.041-.075-.083h0c-.038-.06-.082-.128-.142-.139v-.556H.637v.408c-.363-.07-.635-.13-.637-.131l.119-2.55h0c.081,0,.164,0,.245,0a2.757,2.757,0,0,0,.745-.074.305.305,0,0,0,.195-.153.2.2,0,0,0,0-.147l1.047-.218c0-.007.386-.741.284-.87a2.255,2.255,0,0,1,1.176-.636,5.354,5.354,0,0,1,1.241-.137c.318,0,.536.024.537.024V7.618c0-.174-.033-1.723-.077-2.541a1.946,1.946,0,0,1,.493-1.055A11.645,11.645,0,0,1,7.14,2.782,2.569,2.569,0,0,1,7.785,2.4h0c.332-.16.675-.325.773-.559.032-.077-.388-.345-.834-.628h0c-.458-.292-.932-.594-.9-.684L6.843.481,6.852.458h0C6.943.212,7.022,0,7.237,0a.829.829,0,0,1,.4.149A24.443,24.443,0,0,1,9.628,1.727l.886.032a.7.7,0,0,0,.252.344.941.941,0,0,0,.442.1h.023a.008.008,0,0,0,.007,0c.025-.036-.067-.306-.068-.309h0c-.048-.01-.292-.063-.335-.13a.4.4,0,0,1-.07-.381.164.164,0,0,1,.155-.081h.027a3.155,3.155,0,0,0,.513-.049v.183h.367V1.189a1.977,1.977,0,0,1,.261-.016c.053,0,.107,0,.158.006.077.006.179.01.277.014a5.566,5.566,0,0,1,2.723.642A3.436,3.436,0,0,1,16.8,3.22a1.217,1.217,0,0,0,.443.486c.122-.017.115-.1.1-.373l0-.032c0-.017-.033-.049-.074-.09-.064-.064-.143-.144-.148-.208V2.981a.886.886,0,0,1,0-.267,8.393,8.393,0,0,0,.129-.847c0-.111,0-.207-.009-.291a1.545,1.545,0,0,1,.049-.594C17.452.414,18.5.369,18.813.369a2.643,2.643,0,0,1,.541.047c.022.059.043.116.063.169.139.379.24.654.533.747a4.546,4.546,0,0,0,1.725,2.51h0c.141.124.287.251.4.367a1.023,1.023,0,0,1,.306-.052.519.519,0,0,1,.414.175.681.681,0,0,1,.112.564c0,.063-.082.084-.186.112a.525.525,0,0,0-.425.308A4.906,4.906,0,0,0,21.03,8.434c-.021.2-.043.4-.075.612,0,.031-.068.033-.141.037-.106,0-.238.011-.256.1,0,0-.113.158-.035.226a.505.505,0,0,0,.271.052c.044,0,.079,0,.085,0-.007.035.017.073.046.116a.292.292,0,0,1,.064.251,2.21,2.21,0,0,1-.3.263h0l-.814-.121a.9.9,0,0,1-.452.148A.512.512,0,0,1,19,9.9a9.809,9.809,0,0,1-.73-1.642v0a4.437,4.437,0,0,0-.6-1.3l-.009,0a.345.345,0,0,0-.2.226c-.132.461.495,1.39,1,2.136.364.539.652.965.546,1.052a.438.438,0,0,1-.079.04h0c-.088.039-.209.093-.231.172a.111.111,0,0,0,.023.1c.042.06.072.106.093.14l0,.007c.075.117.075.117.252.187l0,0h0c.089.035.223.088.431.182h.009a1.4,1.4,0,0,1,.714.194l.006,0a.46.46,0,0,0,.052.026.746.746,0,0,1,0,.73.432.432,0,0,1-.366.239.575.575,0,0,1-.413-.229.092.092,0,0,1-.02-.014.275.275,0,0,0-.156-.069c-.1,0-.168.1-.213.288H19.1l-.007,0-.007,0-.006,0h0a.886.886,0,0,1-.2.032c-.166,0-.307-.1-.459-.31a1.222,1.222,0,0,0-.605-.9.617.617,0,0,0-.44-.144c-.067,0-.139,0-.218.01h-.013c-.087.006-.167.011-.255.011a1.533,1.533,0,0,1-.656-.137,2.426,2.426,0,0,1-.8-.641.749.749,0,0,0-.373.542c-.033.42.428.865.834,1.258h0c.369.356.717.692.65.956-.039.156-.218.276-.547.369A1.979,1.979,0,0,1,15.453,13.516ZM6.9,10.836a.422.422,0,0,0-.208.131.834.834,0,0,0-.1.216h0a.51.51,0,0,1-.106.21.562.562,0,0,1-.225.116.394.394,0,0,0-.07.027.81.81,0,0,0-.244.213,1.069,1.069,0,0,0,.392.086.54.54,0,0,0,.227-.045.723.723,0,0,0,.437-.528A1.019,1.019,0,0,0,6.9,10.836Zm-6.127,0v.525h.35v-.525Zm9.382-.263a.263.263,0,1,0,.263.263A.263.263,0,0,0,10.157,10.573Zm2.626-.175a.263.263,0,1,0,.263.263A.263.263,0,0,0,12.783,10.4Zm-6.3-.35a.263.263,0,1,0,.263.263A.263.263,0,0,0,6.481,10.048Zm6.3-.973a.263.263,0,1,0,.263.262A.263.263,0,0,0,12.783,9.075ZM9.475,9.09A.108.108,0,0,1,9.51,9.1a1.028,1.028,0,0,1,.292.241l0,0a.716.716,0,0,0,.086.082.389.389,0,0,0,.2.049.673.673,0,0,0,.239-.049l0,0c-.1-.111-.953-1.088-1.131-1.088a.034.034,0,0,0-.015,0l-.376.223-.721.366.213.244.609-.2.213.284h.022a.3.3,0,0,0,.179-.081l.01-.008A.259.259,0,0,1,9.475,9.09Zm1.542-1.356a.423.423,0,0,0,0,.246.847.847,0,0,0,.129.2.614.614,0,0,1,.111.175l-.009.012a.836.836,0,0,0-.1.217.51.51,0,0,1-.106.21.562.562,0,0,1-.224.115.4.4,0,0,0-.07.027.811.811,0,0,0-.244.213,1.07,1.07,0,0,0,.392.086.54.54,0,0,0,.227-.045.79.79,0,0,0,.409-.414.557.557,0,0,0,.106-.244.723.723,0,0,0-.2-.654A1.034,1.034,0,0,0,11.018,7.734Zm5.289.5a.175.175,0,1,0,.175.175A.175.175,0,0,0,16.307,8.236Zm2.918-1.047-.052.366v.3A1.012,1.012,0,0,1,19,8.1l.528-.345.233-.487.092-.65-.244-.477.051.4-.183-.061.051.65-.193-.2V7.4l-.112-.213ZM10.15,7.51a.175.175,0,1,0,.175.175A.175.175,0,0,0,10.15,7.51ZM8.3,7.335V7.86h.35V7.335Zm4.669-.07a.254.254,0,0,1,.082.012.643.643,0,0,1,.217.147h0a.443.443,0,0,0,.06.05.826.826,0,0,0,.3.118,1.071,1.071,0,0,0-.319-.581.842.842,0,0,0-.482-.175.408.408,0,0,0-.175.035.829.829,0,0,0-.27.3.468.468,0,0,0,.22.126.438.438,0,0,0,.054,0,.886.886,0,0,0,.162-.019h.007A.791.791,0,0,1,12.971,7.265Zm2.5-.471h-.005a.983.983,0,0,0-.345.062,1.686,1.686,0,0,0,.726.285h.064a.679.679,0,0,0,.594-.224.616.616,0,0,0-.015-.367.882.882,0,0,0-.13-.01.4.4,0,0,0-.152.024.6.6,0,0,0-.171.124h0a.389.389,0,0,1-.181.116.522.522,0,0,1-.114.011,1.291,1.291,0,0,1-.157-.012l-.025,0h0A.788.788,0,0,0,15.469,6.793Zm.8-1.86a.42.42,0,0,0,0,.246.838.838,0,0,0,.129.2.51.51,0,0,1,.118.2.563.563,0,0,1-.025.251.391.391,0,0,0-.016.074.809.809,0,0,0,.046.321.89.89,0,0,0,.372-.5.722.722,0,0,0-.205-.654A1.031,1.031,0,0,0,16.269,4.933Zm-5.237.213a.263.263,0,1,0,.263.263A.263.263,0,0,0,11.032,5.146Zm8.951-.175a.175.175,0,1,0,.175.175A.175.175,0,0,0,19.983,4.971Zm.855-.727h0l-.037.348.522.055L21.36,4.3l-.522-.055ZM11.463,4.1a.175.175,0,1,0,.175.175A.175.175,0,0,0,11.463,4.1ZM12.5,2.871a.263.263,0,1,0,.263.263A.263.263,0,0,0,12.5,2.871Zm-2,0a.175.175,0,1,0,.175.175A.175.175,0,0,0,10.5,2.871Z" transform="translate(0 8.595)" fill="#ff8282"/>
  </g>
  <text id="Slowed_Revives" data-name="Slowed Revives" transform="translate(29 33.297)" fill="#fff" font-size="8" font-family="SegoeUI-Bold, Segoe UI" font-weight="700"><tspan x="-28.771" y="0">Slowed Revives</tspan></text>
</svg>
