<svg xmlns="http://www.w3.org/2000/svg" width="32" height="40.676" viewBox="0 0 32 40.676">
  <g id="Component_213_1" data-name="Component 213 – 1" transform="translate(1)">
    <g id="Component_147_3" data-name="Component 147 – 3" transform="translate(3)">
      <path id="Subtraction_364" data-name="Subtraction 364" d="M9.5,26.75a2.634,2.634,0,0,1-1.172-.222,1.458,1.458,0,0,1-.979-1.5l-1.414.4H5.895a1.27,1.27,0,0,1-.941-.4,1.993,1.993,0,0,1-.518-1.565,1.893,1.893,0,0,1,.193-.718v0h0v-.006a1.7,1.7,0,0,0,.118-.313c.06-.238-.128-.317-.294-.386H4.451l-.006,0h0a.454.454,0,0,1-.2-.12.491.491,0,0,1,0-.4c-.021.04-.074.134-.121.134s-.058-.046-.072-.136c-.028-.181-.081-.576-.154-1.143,0-.009,0-.017,0-.024v-.01a.087.087,0,0,0,0-.012h0a2.818,2.818,0,0,1-.322-.23A3.761,3.761,0,0,1,3,19.458H3a1.433,1.433,0,0,1-.865-.536,2.464,2.464,0,0,1-.4-.917h0v0h0v-.013h0a4.87,4.87,0,0,0-.212-.638,1.048,1.048,0,0,1-.116-.6.237.237,0,0,1,.077-.154l0,0c.047.1.288.585.449.585A.091.091,0,0,0,2,17.13H2c-.035-.072-.112-.243-.068-.284a.368.368,0,0,1,.106-.036h0l.013,0h0l.019,0h0c.171-.043.43-.109.469-.225a.123.123,0,0,0-.037-.121.946.946,0,0,0-.53-.214H1.973a1.754,1.754,0,0,1-.72-.27A1.662,1.662,0,0,1,.8,15.5a1.264,1.264,0,0,1-.15-.615,1.439,1.439,0,0,1,.178-.69,1.858,1.858,0,0,1,.194-.3h0l0,0,0,0h0l0,0c-.245-.2-.449-.375-.574-.5a1.759,1.759,0,0,1-.318-.72c-.036-.092.017-.207.091-.366v0h0v0a2.155,2.155,0,0,0,.245-1.1A5.813,5.813,0,0,0,0,9.43a1.513,1.513,0,0,1,.935.434h0a.651.651,0,0,0,.435.226l.044,0h.016c.445-.053.679-.619.7-.683l.432-1.009A.866.866,0,0,1,2.7,8.069a1.551,1.551,0,0,1,.292-.3l.91-.911h0a2.017,2.017,0,0,1,.137-1,1.442,1.442,0,0,1,.35-.487h0l0,0,.01-.01L4.41,5.35c.036-.034.075-.072.118-.12a.76.76,0,0,1,.56-.272h0a.344.344,0,0,1,.052,0,.983.983,0,0,1,.439.147,1.107,1.107,0,0,0-.556.321,1.29,1.29,0,0,0-.333.98c.03.228.1.343.222.343.153,0,.337-.2.409-.289v0a1.361,1.361,0,0,1-.305.538c-.154.168-.37.361-.561.531l-.006.006,0,0,0,0a4.659,4.659,0,0,0-.543.53.735.735,0,0,0-.148.641.073.073,0,0,0,.064.045c.036,0,.1-.029.184-.168A6.611,6.611,0,0,1,4.655,7.8l.014-.016.007-.008,0,0,0,0a9.416,9.416,0,0,0,.9-1.1c.25-.387.252-.491.255-.612a.793.793,0,0,1,.058-.3,1.669,1.669,0,0,1,.335-.626l0,0L6.257,5.1a.663.663,0,0,0,.156-.412,2.351,2.351,0,0,0,.08-1.429h0c-.082-.513-.154-.956.294-1.234A.827.827,0,0,1,7.2,1.8a.934.934,0,0,1,.18-.015,1.944,1.944,0,0,1,.411.049h0c-.006,0-.6.453-.591.9a.108.108,0,0,0,.075.029c.127,0,.313-.187.549-.425l.009-.009h0A4,4,0,0,1,8.855,1.5a3.544,3.544,0,0,1,1.267-.4.281.281,0,0,1,.228.074.206.206,0,0,1,.024.186c-.026.106-.04.14-.057.14a.054.054,0,0,1-.028-.016h0l-.006-.005-.006-.005H10.27a.148.148,0,0,0-.092-.032c-.154,0-.4.208-.725.619h0l-.005.008A7.709,7.709,0,0,1,8.442,3.417,2.642,2.642,0,0,1,8.2,3.6l0,0,0,0h0c-.193.136-.239.168-.359.788a3.377,3.377,0,0,0-.012,1.111v.017a3.128,3.128,0,0,1,.011.879c-.109.677-.231.707-.431.755l-.013,0H7.378c-.193,0-.528-.753-.593-.9v0h0a7,7,0,0,0-.666,1.582c0,.047.013.071.04.071.137,0,.569-.621.587-.648h0a.285.285,0,0,1,.062.136h0v0h0a.334.334,0,0,0,.14.224c0,.015-.028.048-.072.094h0l0,0,0,0c-.15.152-.462.469-.28.861L7.2,7.973a1.32,1.32,0,0,1,.371-.424,1.628,1.628,0,0,1,.6-.2c.091-.427.241-.469.361-.5h0a.189.189,0,0,0,.145-.1.321.321,0,0,1-.052-.286,1.016,1.016,0,0,1,.264-.33A.945.945,0,0,0,8.673,5.4v0h0a1.094,1.094,0,0,1-.2-1.118,2.813,2.813,0,0,1,.81-.935,4.593,4.593,0,0,1,1.091-.695v.205h.212c.014.038-.056.122-.163.25h0l0,0h0a2.64,2.64,0,0,0-.579.974,1.725,1.725,0,0,1,.24.908V5h0a1.885,1.885,0,0,0,.082.517l.019,0a.241.241,0,0,1,.192.129,2.24,2.24,0,0,1,.21.481v.005a.562.562,0,0,1,.128-.081s0-.023.083-.124c.329-.268.273-.586.215-.923h0a1.2,1.2,0,0,1,.091-.922,1.327,1.327,0,0,1,1.13-.7h0l.037-.007c.1-.018.2-.038.312-.063,0,.151-.216.343-.4.513l0,0h0l-.006.006,0,0,0,0,0,0,0,0h0c-.163.147-.316.285-.316.379,0,.228.055.726.217.726a.1.1,0,0,0,.039-.008c.071-.031.052-.087.026-.165h0v0c-.052-.146-.129-.367.261-.644a1.425,1.425,0,0,0,.466-1,3.268,3.268,0,0,0,.012-.673,0,0,0,0,0,0,0,1.833,1.833,0,0,1-.059-.411,2.086,2.086,0,0,1,.188-.947,2.458,2.458,0,0,1,.637-.814A2.577,2.577,0,0,1,14.016,0V0a.547.547,0,0,0-.046.353c.013.028.026.044.039.046a2.93,2.93,0,0,0-.442,1.1,1.247,1.247,0,0,1,.336.907v.006h0a2.3,2.3,0,0,0,.066.532c.115.444.283.51.374.51a.142.142,0,0,0,.05-.008s-.052.227,0,.278a.354.354,0,0,0,.2.057.165.165,0,0,0,.146-.057.3.3,0,0,0,.029-.218c.042-.012.252-.1.22-.654-.019-.35-.094-1.075-.215-2.1l0-.036v0l.3.328a5.763,5.763,0,0,0,.3,1.3h0v0h0a2.185,2.185,0,0,1-.131,1.926c-.075.027-.142.053-.2.077a1.29,1.29,0,0,1-.574.123c-.336-.143-.472-.7-.562-1.077h0v0h0c-.046-.2-.087-.373-.142-.373-.039,0-.086.091-.148.287-.191.607-.071.758.069.933a.8.8,0,0,1,.208.476,3.425,3.425,0,0,1-.024.691v.006l0,.021h0v.007c-.025.223-.047.416.014.482a.078.078,0,0,0,.06.025.234.234,0,0,0,.09-.023c.158-.071.161-.17.165-.3h0a.655.655,0,0,1,.383-.618,2.069,2.069,0,0,1,.8-.366h.008a1.967,1.967,0,0,0,.652-.274c.469-.328.482-.592.482-.6.244.176.238.511-.017.944a1.452,1.452,0,0,1-.6.516h0a1.929,1.929,0,0,0-.421.3c-.251.252-.275.34-.307.461h0l0,.008h0a.02.02,0,0,1,0,.009v.005l0,.007,0,.011,0,.005c0,.013-.008.028-.014.045-.061.183.169.5.171.506a.354.354,0,0,1,0,.28,2.311,2.311,0,0,1-.736.917,1.954,1.954,0,0,1-.4.146l-.008,0,0,0h0l-.009,0h-.005a4.878,4.878,0,0,0-.954.37.858.858,0,0,0-.405.586.636.636,0,0,0,.126.52.79.79,0,0,1,.139.238h0v0c.066.16.124.3.683.53a.165.165,0,0,0,.071.02.053.053,0,0,0,.052-.03.458.458,0,0,0-.092-.357.618.618,0,0,0-.179-.143h0l0,0a.5.5,0,0,1-.242-.24.36.36,0,0,1,.02-.261v0l0,0v0h0a.83.83,0,0,0,.059-.345c-.009-.257-.025-.277-.029-.277a.555.555,0,0,1,.383-.1h.009a.989.989,0,0,0,.4-.068c0,.007-.431.679-.22.934.264.319.709.88.856,1.119a1.462,1.462,0,0,1,.154.546h0v.007l0,.01v0a1.268,1.268,0,0,0,.052.252h.212a2.6,2.6,0,0,1,.027-1.56,1.04,1.04,0,0,1,.622-.48h0a1.238,1.238,0,0,0,.6-.413c.3-.434.522-.526.654-.526a.208.208,0,0,1,.134.041.621.621,0,0,1-.068.266,3.572,3.572,0,0,1-.617.9,1.027,1.027,0,0,1-.376.3h0a.976.976,0,0,0-.43.383c-.115.289-.013.374.115.481h0c.166.138.372.309.194,1,.084.17.169.26.246.26s.141-.092.178-.26a1.712,1.712,0,0,0-.138-1.279h0a1.861,1.861,0,0,1,.419.255c.188.158.2.213.2.365a1.172,1.172,0,0,1-.02.172v0h0a.479.479,0,0,0,.021.344.172.172,0,0,0,.136.055.236.236,0,0,0,.176-.078.321.321,0,0,0,.054-.283,1.933,1.933,0,0,0-.561-.928l0,0c-.137-.154-.046-.407.054-.592a2.428,2.428,0,0,1,.251-.369h0a1.351,1.351,0,0,0,.2.451l0,0,0,0h0a1.008,1.008,0,0,1,.264.5c.008.033.016.066.025.1l0,.017.005.02h0l0,.005h0a1.154,1.154,0,0,0,.159.435s.263-.065.263-.468a1.775,1.775,0,0,0-.311-.9h0l0,0v0l-.006-.012c-.02-.036-.074-.133-.138-.255v0A6.088,6.088,0,0,1,17.3,7.626,1.757,1.757,0,0,1,17.77,6.2a1.26,1.26,0,0,1,1.008-.658l.063-.015L19,5.487l.076-.022.047-.014.38-.11.1-.028.012,0,.01,0,.014,0h0l.018-.005.035-.011.068-.019h.009a4.307,4.307,0,0,0-1.354,1.182c-.193.335-.267.652-.183.789a.151.151,0,0,0,.141.073.479.479,0,0,0,.184-.046,3.9,3.9,0,0,1,1.518-.842,6.056,6.056,0,0,0-.937.842c-.06.087-.076.159-.047.214.041.079.164.1.2.1l1.107-.684a6.351,6.351,0,0,0-.488.588c-.212.294-.453.7-.395.958a3.386,3.386,0,0,0,.251.676l0,0,0,.01v0l0,0,0,.007h0a5.582,5.582,0,0,1,.336.887,2.761,2.761,0,0,1,.125.743v0h0v0c0,.075,0,.1.043.123a.036.036,0,0,0,.019,0c.047,0,.111-.078.171-.209a1.717,1.717,0,0,0,.131-.461.587.587,0,0,0-.093-.38h0a.355.355,0,0,1-.035-.385,1.071,1.071,0,0,1,.483-.437s-.134.3-.082.437a.274.274,0,0,0,.277.176.551.551,0,0,0,.152-.024.627.627,0,0,0,.313-.273h0a1.533,1.533,0,0,1,.144-.179c.025-.078.042-.139.055-.195a6.065,6.065,0,0,1-.221,1.187,2.22,2.22,0,0,1-.295.545v0l0,0,0,0h0a1.881,1.881,0,0,0-.339.735c-.177.589-.1.7.64,1.561.083.094.155.182.221.265l.012.014.007.008h0l0,.005,0,0h0c.262.32.468.573.711.573a.377.377,0,0,0,.11-.017.974.974,0,0,1,.222-1.235l.01-.011,0,0,0,0a.9.9,0,0,0,.138-.176,1.969,1.969,0,0,0-.082.621c.043.08.089.168.111.206a.193.193,0,0,0,.011.021,2.305,2.305,0,0,1,.464,1.009,2.252,2.252,0,0,1-.048,1.019,4.9,4.9,0,0,1-.456,1.1,1,1,0,0,1-.722.538h0c-.209.059-.389.11-.457.382a.7.7,0,0,0,.193.705l0,0,0,0h0a.87.87,0,0,1,.206.357c.067.3.022.367,0,.393,0,.007-.008.012,0,.017a.121.121,0,0,0,.059.015.469.469,0,0,0,.3-.212.742.742,0,0,0,.191-.571,2.11,2.11,0,0,0-.187-.463h0c.027,0,.657.043.843.384a1.205,1.205,0,0,1-.673,1.6h-.007l-.014.007-.006,0,0,0,0,0a.621.621,0,0,0-.11.06,1.344,1.344,0,0,1-.426.14l-.933,1.144a.716.716,0,0,1-.372.142h-.007a.687.687,0,0,0-.451.2l-.951.207a1.1,1.1,0,0,1-.54.572h0c-.184.119-.328.212-.3.332a.352.352,0,0,0,.158.209l0,0h0a.729.729,0,0,1,.3.515c.015.082.033.159.051.233v0h0l0,.013v0h0a1.26,1.26,0,0,1-.144,1.165,1.772,1.772,0,0,1-1.445.816,1.343,1.343,0,0,1-.166.011,2.83,2.83,0,0,1-1.283-.416h0a1.688,1.688,0,0,1-.064.881,2.052,2.052,0,0,1-.647.585h0a1.43,1.43,0,0,1-1.035.3,8.962,8.962,0,0,1-2.421-.478.7.7,0,0,0-.178-.023.469.469,0,0,0-.156.023.364.364,0,0,0-.133.08h0v0a.515.515,0,0,1-.271.125c-.239.047-.679.181-.764.207h-.006A5.436,5.436,0,0,1,9.5,26.75Zm-.361-2.108h0c-.024,0-.091.015-.183.159a.879.879,0,0,0-.157.65,2.136,2.136,0,0,0,.492.728.5.5,0,0,0,.313.143.176.176,0,0,0,.035,0,.491.491,0,0,0,.114-.7,1.809,1.809,0,0,1-.1-.265v0c-.078-.276-.078-.276-.059-.4l.006-.041a.547.547,0,0,0-.392-.277.184.184,0,0,0-.056.008H9.141Zm5.376.044a.53.53,0,0,0-.379.268l.006.039c.019.121.019.121-.057.388v0a1.753,1.753,0,0,1-.1.257.475.475,0,0,0,.111.675.177.177,0,0,0,.034,0,.481.481,0,0,0,.3-.139,2.067,2.067,0,0,0,.477-.7.852.852,0,0,0-.152-.629c-.089-.139-.153-.154-.177-.154H14.57A.178.178,0,0,0,14.516,24.686ZM10.193,24.1a.442.442,0,0,0-.348.134.385.385,0,0,0-.094.314c0,.052,0,.117,0,.2a2.33,2.33,0,0,0,.2.936.726.726,0,0,0,.346.293h0a.414.414,0,0,0,.4-.236.843.843,0,0,0,.032-.379l0-.035-.054-.983a.506.506,0,0,0-.378-.25.2.2,0,0,0-.043,0S10.226,24.1,10.193,24.1Zm3.231-.009a.5.5,0,0,0-.375.234l-.088.968,0,.035a.832.832,0,0,0,.018.374.408.408,0,0,0,.382.246h.005a.743.743,0,0,0,.351-.278,2.28,2.28,0,0,0,.231-.917c0-.085,0-.149,0-.2a.379.379,0,0,0-.082-.313.453.453,0,0,0-.361-.144h-.031A.2.2,0,0,0,13.425,24.091ZM7.5,22.752h0a1.691,1.691,0,0,1,.485.18.888.888,0,0,1,.48.579.394.394,0,0,1-.145.443,1.661,1.661,0,0,0-.477.921c-.018.148.179.412.346.607a3.355,3.355,0,0,0,.4.4h0c.016,0,.1-.01.12-.04a.025.025,0,0,0,0-.024,2.263,2.263,0,0,0-.133-.293l0,0c-.094-.186-.192-.378-.158-.455a2.026,2.026,0,0,1,.271-.156l0,0,.071-.038a.255.255,0,0,0,0-.043.583.583,0,0,1,.161-.429.187.187,0,0,1,.116-.034,1.19,1.19,0,0,1,.5.2v0c0-.088.018-.531.277-.628a.526.526,0,0,1,.288-.087.922.922,0,0,1,.583.289c.016-.075.109-.451.368-.509a1.178,1.178,0,0,1,.2-.018.565.565,0,0,1,.6.419c.022-.046.223-.443.566-.445h.024a.524.524,0,0,1,.46.24,1.226,1.226,0,0,1,.081.141v0c.029.057.05.1.073.1h0a.479.479,0,0,0,.142-.065h0a.978.978,0,0,1,.441-.159.356.356,0,0,1,.081.009.8.8,0,0,1,.406.723h0c0,.055,0,.089.02.089s.021-.01.039-.033a.457.457,0,0,1,.388-.193.337.337,0,0,1,.282.117.212.212,0,0,1,.006.214c.088.163.125.2.158.2a.1.1,0,0,0,.036-.01h0l.006,0a.15.15,0,0,1,.059-.013.322.322,0,0,1,.175.075,1.314,1.314,0,0,1-.137.482,1.014,1.014,0,0,0-.108.358.011.011,0,0,0,.009,0h0a.975.975,0,0,0,.4-.243,1.236,1.236,0,0,0,.385-.55,5.191,5.191,0,0,0-.07-.638h0a1.461,1.461,0,0,1-.455-.638.515.515,0,0,0-.055-.124.658.658,0,0,1,.207-.494,1.421,1.421,0,0,1,.77-.376l.161,1.551a1.6,1.6,0,0,0,1.012.43,1.544,1.544,0,0,0,1.242-.793,1.083,1.083,0,0,0-.323-1.145c-.151-.169-.27-.3-.177-.477,0,0,.06-.008.127-.187a4.394,4.394,0,0,0,.179-1.231c.021-.04-.028-.081-.03-.083a.082.082,0,0,0-.072-.032,1.35,1.35,0,0,0-.48.222,1.392,1.392,0,0,1-.411.2,1.965,1.965,0,0,1,.387-.656,4.737,4.737,0,0,0,.518-.786,1.382,1.382,0,0,0-.142-1,3.176,3.176,0,0,0-.561-.969c-.334-.093-.289-1.395-.215-1.9.023-.156.049-.245.071-.245,0,0,.008,0,.012.01.09.159.166.24.227.24a.077.077,0,0,0,.055-.026c.173-.175.12-1.2.119-1.206-.062-.148-.173-.308-.27-.308a.332.332,0,0,0-.09.1c-.066.1-.148.226-.476.226a2.165,2.165,0,0,1-.358-.035c-.288.013-.327.113-.373.229a.414.414,0,0,1-.25.27,1.514,1.514,0,0,1-.579.139.656.656,0,0,1-.473-.179,1.19,1.19,0,0,1-.279-.754,1.1,1.1,0,0,0,.561.2.542.542,0,0,0,.471-.265,1.049,1.049,0,0,0-.022-.116c-.03-.133-.061-.271.111-.382a2.031,2.031,0,0,0,.808.18,1.689,1.689,0,0,0,1.5-.95c.123-.253.143-.484.052-.59a.149.149,0,0,1-.082-.094c-.061-.2.2-.62.484-1.064A3.364,3.364,0,0,0,19.2,10.32a1.416,1.416,0,0,0-.377-.907,4.18,4.18,0,0,0-.428-.466l0,0h0a8.2,8.2,0,0,1,.235.9c.086.434.146,1-.052,1.21-.7.655-.64,1.058-.592,1.382a.792.792,0,0,1-.007.4,1.4,1.4,0,0,1-1.137.868,1.157,1.157,0,0,1-.66-.231c-.136-.05-.248-.355-.357-.651s-.218-.592-.347-.62a1.066,1.066,0,0,1-.419-.227.847.847,0,0,0-.425-.213l-.036-.01a1.845,1.845,0,0,0-.52-.089.759.759,0,0,0-.441.12l0,0c0-.007,0-.029.015-.064a.49.49,0,0,0-.1-.571c.4-.014.577-.045.588-.1.015-.077-.29-.206-.752-.4h0l-.009,0-.006,0-.1-.042a3.914,3.914,0,0,0-1.12-.172,4.352,4.352,0,0,0-.539.037l-.072.009h0a2.7,2.7,0,0,1-.315.028c-.249,0-.406-.095-.525-.595-.01-.055-.023-.111-.038-.174a1.01,1.01,0,0,1,.325-1.2,6.517,6.517,0,0,0,1.1-1.162,2.265,2.265,0,0,0,.383-.81.764.764,0,0,0-.084-.629.01.01,0,0,1,0,0,3.38,3.38,0,0,1-.106.6,1.216,1.216,0,0,1-.53.8c-1.579,1.577-1.737,2.346-1.48,3.29a1.8,1.8,0,0,0,1.628,1.288H11.9c.171,0,.357-.207.518-.4l.056-.068.007-.008h0c.142-.173.265-.322.352-.322a.068.068,0,0,1,.042.015c.334.223.182.549.021.894s-.319.685-.021.951a.9.9,0,0,0,.325.063,1.015,1.015,0,0,0,.821-.489c-.113.73-.39,1.1-.824,1.1a2.341,2.341,0,0,1-1.356-.8,3.374,3.374,0,0,1-2.731-1.594c-.071-.092-.144-.187-.223-.288a1.671,1.671,0,0,1-.3-1.465,2.312,2.312,0,0,1,.3-.705,2.489,2.489,0,0,0-.423.27,1.442,1.442,0,0,0-.536.74,1.016,1.016,0,0,0,.26.893,6.751,6.751,0,0,0,1.04,1.075.4.4,0,0,1,.186.419.852.852,0,0,0,.2.655c.144.25.307.377.483.377.289,0,.518-.339.543-.377.441.141.649.36.6.632a1.047,1.047,0,0,1-.426.584,1.169,1.169,0,0,1-.565.266.133.133,0,0,1-.066-.014c-1.673-.668-1.61-1.194-1.548-1.7a.975.975,0,0,0-.149-.806c-.59-.77-.746-.853-.785-.853a.018.018,0,0,0-.019.013A1.734,1.734,0,0,1,7.79,12.1a.7.7,0,0,1-.7.395,1.121,1.121,0,0,1-.155-.01h0a1.8,1.8,0,0,0,.094.423,1.2,1.2,0,0,0,.5.655.987.987,0,0,0,.109.006.809.809,0,0,0,.584-.245c.049-.046.09-.093.124-.131.059-.066.1-.114.137-.114.019,0,.035.014.05.041.063.119-.126.457-.294.755h0c-.147.262-.285.508-.236.573a1.167,1.167,0,0,0,1.057.661,1.8,1.8,0,0,0,.8-.213h0l-.043.128v0a4.764,4.764,0,0,1-.22.579c-.066.131-.163.212-.442.212a2.9,2.9,0,0,1-.442-.043c-.146-.023-1.233-.306-1.488-.783a.407.407,0,0,1,0-.4c.036-.309-.13-.413-.339-.544a1.248,1.248,0,0,1-.468-.438.706.706,0,0,1-.288-.857,3.284,3.284,0,0,1,.508-.882c.184-.254.328-.454.291-.561a4.006,4.006,0,0,0-.282-.495l0,0c.052.093.263.6-.687,1.481a.87.87,0,0,0-.653.556,2.452,2.452,0,0,0-.04.886c0,.034,0,.068.007.1.106.508.638.685,1.374.93l.069.023.054.018c.3.313.023.815-.07.962l0,0a3.376,3.376,0,0,0-1.183-.549.152.152,0,0,0-.152.078.094.094,0,0,1-.09.043,1.375,1.375,0,0,1-.5-.2l-.1-.057-.021-.012h0a1.112,1.112,0,0,0-.268-.135c-.008,0-.012,0-.013.009a2.357,2.357,0,0,0,.022.8,1.007,1.007,0,0,0,.23.464.714.714,0,0,0,.527.231c.158,0,.3-.054.326-.126.084-.237.147-.348.2-.348.032,0,.057.041.083.083l0,.005h0c.024.039.054.088.094.088s.062-.026.1-.079a.048.048,0,0,1,.019,0,.068.068,0,0,1,.049.027,1.987,1.987,0,0,1,.109,1.159,1.783,1.783,0,0,1-.309.586,3.413,3.413,0,0,0-.5.954,1.635,1.635,0,0,0,.15,1.259,8.162,8.162,0,0,0,.65.936l0,0c.121.157.226.292.3.415a4.08,4.08,0,0,0-1.052-.559.078.078,0,0,0-.052.015,4.824,4.824,0,0,0,.078,1.357c.261.225.138.381-.032.6a1.193,1.193,0,0,0-.33.947,1.236,1.236,0,0,0,.546.779,1.571,1.571,0,0,0,.846.246.9.9,0,0,0,.714-.269.79.79,0,0,0,.253-.73A3.368,3.368,0,0,1,7.5,22.752Zm3.8,1.114a.432.432,0,0,0-.331.121.4.4,0,0,0-.115.321c0,.054-.007.121-.016.21a2.4,2.4,0,0,0,.154.98.512.512,0,0,0,.145.187.5.5,0,0,0,.2.134h0a.42.42,0,0,0,.473-.418l.029-.007h.011a.161.161,0,0,1,.064.018c.019.171.088.4.472.408h0a.5.5,0,0,0,.2-.134.512.512,0,0,0,.145-.187,2.383,2.383,0,0,0,.154-.98c-.009-.089-.013-.156-.016-.21a.4.4,0,0,0-.115-.32.432.432,0,0,0-.331-.121.64.64,0,0,0-.092.006l-.034,0a.518.518,0,0,0-.389.279v.116l-.018,0h-.012a.189.189,0,0,0-.042,0h-.024v-.112a.518.518,0,0,0-.389-.279l-.034,0A.651.651,0,0,0,11.3,23.866ZM18.8,19.9a.288.288,0,0,0-.18.1.792.792,0,0,0-.13.626c.031.089.087.138.155.138a.292.292,0,0,0,.221-.151.673.673,0,0,0,.055-.6C18.894,19.937,18.853,19.9,18.8,19.9Zm-13.853.181a.161.161,0,0,0-.124.1l-.006.012v0l0,0,0,0,0,0c-.059.116-.214.424-.166.518a.061.061,0,0,0,.058.03.512.512,0,0,0,.322-.209.528.528,0,0,0,0-.4A.09.09,0,0,0,4.946,20.078Zm15.69-3.924h0a3.849,3.849,0,0,1,.4,1.429,1.435,1.435,0,0,1-.217,1.1,2.468,2.468,0,0,0-.564.673,5.034,5.034,0,0,0-.3,1.011.011.011,0,0,0,0,0l.369-.107a1.016,1.016,0,0,1,.47-.391v0a.811.811,0,0,1,.039-.24c.009-.024.047-.052.108-.094h0a1.02,1.02,0,0,0,.5-.982,4.045,4.045,0,0,0-.117-.715v0l0,0v0a2.155,2.155,0,0,1-.082-.726.691.691,0,0,1,.294-.568h0c.041-.032.071-.055.065-.081a.178.178,0,0,0-.084-.016.7.7,0,0,0-.092.007h-.019a1.008,1.008,0,0,1-.107.007.542.542,0,0,1-.17-.026A1.424,1.424,0,0,1,20.636,16.154ZM4.74,18.222a.112.112,0,0,0-.074.023.439.439,0,0,0-.306.389.736.736,0,0,0,.027.27v0l.441.535v-.007h0a.029.029,0,0,1,0,0v0a5.687,5.687,0,0,0,.048-.6,1.9,1.9,0,0,1,.308-.683l0,0h0l0,0h0a.777.777,0,0,1-.307.112.121.121,0,0,1-.053-.01A.207.207,0,0,0,4.74,18.222Zm14.308.51a.345.345,0,0,0-.18.066c-.077.048-.2.259-.13.4a.168.168,0,0,0,.156.087.331.331,0,0,0,.22-.1.293.293,0,0,0,.055-.377A.131.131,0,0,0,19.048,18.732ZM2.506,17.244a.546.546,0,0,0-.05.561,1,1,0,0,1,.081.183v0c.069.189.128.352.738.6h0a.5.5,0,0,0,.2-.25.146.146,0,0,0-.031-.118.416.416,0,0,0-.256-.135h0a.529.529,0,0,1-.256-.118,3.378,3.378,0,0,1-.419-.723Zm15.639-.884a.45.45,0,0,1,.04.263h0v0a.412.412,0,0,0,.044.269c.01,0,.061.018.1.1a1.167,1.167,0,0,1,.045.617c.14.021.2.143.266.272v0l0,0v0h0v0a.579.579,0,0,0,.244.3c.145-.025.228-.067.253-.128.039-.1-.072-.233-.2-.387v0h0l0,0h0a1.014,1.014,0,0,1-.273-.474c-.009-.133-.008-.214-.007-.267v-.013h0c0-.111,0-.128-.092-.275A.758.758,0,0,0,18.145,16.36ZM4.667,17.406s.062.255.2.3a.2.2,0,0,0,.049.006h0a.693.693,0,0,0,.321-.137c.095-.32.2-.362.245-.379.011,0,.021-.008.024-.015s-.014-.039-.056-.1h0v0l-.006-.009c-.009-.013-.021-.031-.033-.051L5.406,17l-.017-.025a.207.207,0,0,1-.156.058,1.033,1.033,0,0,1-.273-.057h0a1.019,1.019,0,0,0-.283-.057.269.269,0,0,0-.1.015l-.122.471Zm14.121-1.74c-.034,0-.051.028-.051.083a1.333,1.333,0,0,0,.175.747c.058.076.109.114.152.114.067,0,.106-.089.133-.166a.479.479,0,0,0-.094-.506C19,15.8,18.862,15.667,18.788,15.667Zm2.8-1.526h0a1.692,1.692,0,0,1,.045.993.391.391,0,0,1-.253.287h0c-.1.04-.2.081-.282.375.052,0,.1.006.159.006.433,0,.568-.147.569-.149a1.324,1.324,0,0,0,.328-.584c.047-.3.013-.446-.142-.594a4.209,4.209,0,0,0-.418-.333h0l0,0Zm-1.21-.157a.207.207,0,0,0-.064.009c-.156.05-.271.675-.29.916a.142.142,0,0,0,.027.109.076.076,0,0,0,.057.023c.083,0,.217-.1.3-.284a.37.37,0,0,1,.212-.215h0a.2.2,0,0,0,.143-.179.256.256,0,0,0-.063-.223A.471.471,0,0,0,20.378,13.983Zm-.8-.07a.271.271,0,0,0-.243.126,2.357,2.357,0,0,0-.273.85.013.013,0,0,0,.012.007c.012,0,.032-.016.058-.048a2.514,2.514,0,0,1,.345-.31h0c.186-.149.362-.289.38-.408a.142.142,0,0,0-.039-.12A.339.339,0,0,0,19.582,13.913ZM3.766,9.586l-.435.71-.045.6c.071.172-.023.285-.121.4h0a.551.551,0,0,0-.174.371c.013,0,.126.031.186.414l.045.125.111.365-.156.319c-.044.084-.1.164-.137.229h0l0,.006h0a1.053,1.053,0,0,0-.238.662,1.4,1.4,0,0,1,.271.175l.005,0a.967.967,0,0,0,.482.212l.111-.249c.117-.112.047-.195-.04-.3l0,0a.443.443,0,0,1-.134-.445,4.817,4.817,0,0,1,.5-1.262L3.6,11.336V10.207ZM20.325,11.93a2.8,2.8,0,0,1-1.546,1.552h0l-.007,0c-.123.051-.2.085-.223.144a.185.185,0,0,0,.042.148.389.389,0,0,0,.253.079,1.537,1.537,0,0,0,.985-.521c.446-.473.708-.795.5-1.4Zm-3.815.761h0s-.16.3,0,.4a.462.462,0,0,0,.238.045,2.237,2.237,0,0,0,.4-.044h0a.547.547,0,0,1,0-.31c.052-.1.362-.131.365-.131h0s-.244-.245-.363-.262h-.019c-.054,0-.08.037-.113.085h0l0,0h0a.465.465,0,0,1-.141.145.559.559,0,0,1-.293.075.594.594,0,0,1-.072,0ZM.926,11.868a.023.023,0,0,0-.019.008.829.829,0,0,0-.1.3l0,.013,0,.016c-.011.047-.021.092-.032.135a.755.755,0,0,0,.176.622.137.137,0,0,0,.105.046.408.408,0,0,0,.233-.12.389.389,0,0,0-.008-.385l0-.007v0a3.171,3.171,0,0,1-.133-.439S.993,11.868.926,11.868Zm.564-.4v.4a1.019,1.019,0,0,1,.221.891v0l0,.031v0c0,.008,0,.017,0,.025v.008c0,.017,0,.033,0,.051.516-.128.552-.381.61-.8,0-.009,0-.018,0-.027v-.019c.016-.107.03-.2.052-.308a2.134,2.134,0,0,1-.45-.129h0a2.6,2.6,0,0,0-.427-.132ZM4.562,10.18a1.888,1.888,0,0,1,.089.226l0,.009v.013h0c.106.3.252.71.557.71a.41.41,0,0,0,.078-.008,1.808,1.808,0,0,0,1.065-1.085,1.431,1.431,0,0,0,.083-.9,4.823,4.823,0,0,0-.232.439h0l0,.011h0c-.194.4-.378.785-.788.908a.2.2,0,0,1-.033,0,2.828,2.828,0,0,1-.817-.331ZM5.45,7.5h0v0h0l0,0a3.648,3.648,0,0,0-.393.615c-.03.608.121.656.255.7.159.05.3.093.1,1.036h0a.842.842,0,0,0,.4-.264A2.484,2.484,0,0,0,6,8.867v0c.009-.051.029-.224-.083-.3a.1.1,0,0,0-.064-.019.41.41,0,0,0-.126.031H5.71a.382.382,0,0,1-.117.029c-.053,0-.086-.031-.105-.1a5.288,5.288,0,0,1-.037-.99V7.5Zm5.712,15.405a.188.188,0,0,1-.147-.072,1.882,1.882,0,0,1-.317-.844,7.45,7.45,0,0,1,1.139-2.226l0,0a10.167,10.167,0,0,1,1.2,2.224,1.2,1.2,0,0,1-.205.6c-.113.179-.244.3-.317.3a.053.053,0,0,1-.024-.005,5.965,5.965,0,0,1-.622-.627h0C11.826,22.334,11.441,22.908,11.163,22.908ZM7.885,21.18C7.015,20.955,6,19.954,6.107,19.2c0-.752.077-1.251.512-1.572a7.6,7.6,0,0,0,1.791-.577,2.384,2.384,0,0,1,.689-.232,13.931,13.931,0,0,0,2.231.809.547.547,0,0,1,.049.426,2.422,2.422,0,0,1-.965,1.246,12.419,12.419,0,0,0-.725,1.031l0,0a1.764,1.764,0,0,1-.6.69A2.684,2.684,0,0,1,7.885,21.18Zm7.909,0h0a2.685,2.685,0,0,1-1.2-.157,1.763,1.763,0,0,1-.6-.69,12.377,12.377,0,0,0-.727-1.034,2.421,2.421,0,0,1-.965-1.246.546.546,0,0,1,.049-.426c0-.005.007-.019.009-.019,1.072-.363,1.22-.5,1.3-.577s.1-.092.923-.213a2.387,2.387,0,0,1,.689.232,7.593,7.593,0,0,0,1.792.577c.435.321.517.82.513,1.572.111.755-.908,1.755-1.778,1.98Zm6.022-12.2h0c.02-.185.037-.376.05-.566l0-.025V8.379s0,0,0,0a1.471,1.471,0,0,1-.052.6h0ZM14.012.4h0c.027-.045.046-.071.048-.074l0-.007h0v0h0C14.057.347,14.038.4,14.012.4Z" fill="#ff8282" opacity="0.75"/>
      <path id="Path_2850" data-name="Path 2850" d="M0,1.512c.48.031.622-.139.622-.139A1.271,1.271,0,0,0,.91.838C.954.569.93.435.8.3A3.512,3.512,0,0,0,.442,0,1.61,1.61,0,0,1,.467.9C.326,1.318.133,1.008,0,1.512Z" transform="matrix(0.438, 0.899, -0.899, 0.438, 12.216, 10.215)" fill="#ff8282" fill-rule="evenodd" opacity="0.75"/>
    </g>
    <text id="Wildfire" transform="translate(15 38.676)" fill="#fff" font-size="8" font-family="SegoeUI-Bold, Segoe UI" font-weight="700"><tspan x="-15.18" y="0">Wildfire</tspan></text>
  </g>
</svg>
