<svg xmlns="http://www.w3.org/2000/svg" width="58" height="35.297" viewBox="0 0 58 35.297">
  <g id="Component_211_1" data-name="Component 211 – 1" transform="translate(1)">
    <g id="Component_145_3" data-name="Component 145 – 3" transform="translate(18)" opacity="0.75">
      <path id="Subtraction_236" data-name="Subtraction 236" d="M2.292,21.86a3.176,3.176,0,0,1-1.329-.7A3.492,3.492,0,0,1,0,20.247c-.03-.142.191-.484.674-1.047.423-.492,1.02-1.118,1.546-1.67l.057-.06.019-.02a21.265,21.265,0,0,1,2.375-2.116l-.416-.479a.665.665,0,0,1,1-.872l.433.5.2-.171a3.933,3.933,0,0,0,.887.6,4.371,4.371,0,0,0,1.06.339c-.454.33-.768.553-.914.657l.337.387a.664.664,0,0,1-1,.872l-.283-.325A11.413,11.413,0,0,0,3.8,18.951a7.276,7.276,0,0,0-1.341,2.8A.148.148,0,0,1,2.292,21.86ZM1.276,19.484a.078.078,0,0,0-.035.006,1.637,1.637,0,0,0-.4.308,1.179,1.179,0,0,0-.272.354c-.012.07.071.093.2.128a1.685,1.685,0,0,1,.515.221,2.223,2.223,0,0,1,.369.34c.142.152.265.284.383.284a.181.181,0,0,0,.118-.048c.114-.1.241-.314.2-.8a1.575,1.575,0,0,0-.449-.445A1.636,1.636,0,0,0,1.276,19.484ZM4.8,14.228a.2.2,0,0,0-.152.328l1.923,2.292a.2.2,0,0,0,.281.025.2.2,0,0,0,.024-.282L4.954,14.3A.2.2,0,0,0,4.8,14.228Zm.128,1.4a.134.134,0,0,0-.08.031.133.133,0,0,0-.016.187l.642.765a.132.132,0,0,0,.1.047.132.132,0,0,0,.132-.121.049.049,0,0,0,0-.013l-.779-.9Zm3.093-.509h0c-.274-.063-.69-.182-1.236-.351A4.926,4.926,0,0,1,6,14.225c.531-.449,1.623-1.379,2.973-2.571a4.564,4.564,0,0,0,.046,1.272,1.178,1.178,0,0,0,.161.736.35.35,0,0,0,.105.089,3.1,3.1,0,0,0,.152.315c-.482.365-.958.719-1.415,1.053ZM9.58,13.957h0L9.5,13.787a.973.973,0,0,0,.365-.136l.3-.254.36-.307,0,0,.049-.041c1.588-1.354,4.246-3.62,4.694-4.075a.3.3,0,0,0,.077-.231c-.023-.416-.669-.987-.676-.993l-.109.08.007,0c.162.139.538.493.54.762a.233.233,0,0,1-.087.188c-.029.1-5.24,4.627-5.293,4.672a.41.41,0,0,1-.238.116.17.17,0,0,1-.107-.037c-.045-.1-.093-.215-.147-.341-.008-.053-.015-.112-.019-.176,0-.286.012-.343.031-.343s.021.016.031.031l0,0,0,0c.013.018.031.039.05.039s.026-.009.039-.029a.939.939,0,0,0,.056-.223L9.1,12.155s-.008.039-.019.1a2.543,2.543,0,0,1,.068-.765l.414-.368a87.107,87.107,0,0,0,6.785-6.6C19.572.365,19.8,0,19.8,0a4.38,4.38,0,0,1,.123.62,6.663,6.663,0,0,1,0,1.62A7.207,7.207,0,0,1,19.273,4.5a8.789,8.789,0,0,1-1.864,2.535,34.732,34.732,0,0,1-3.147,3.109c-1.035.918-2.22,1.9-3.523,2.92-.374.293-.764.594-1.158.893ZM19.005,1.549a3.229,3.229,0,0,1-.313.624c-.266.458-.808,1.324-1.881,2.846-2.6,2.519-7.377,6.788-7.423,6.829l.262.332c.027-.024,4.162-3.637,6.68-6.085a11.138,11.138,0,0,0,2.348-3.316,3.522,3.522,0,0,0,.328-1.23ZM15.037,7.339l-.13.126a5.291,5.291,0,0,0,.461.365,1.72,1.72,0,0,0,.811.359.312.312,0,0,0,.221-.078,4.22,4.22,0,0,0,.553-.613l-.056.036a2.71,2.71,0,0,1-.661.521.294.294,0,0,1-.1.014,1.386,1.386,0,0,1-.709-.365,4.417,4.417,0,0,1-.393-.364h0Z" fill="#ff8282"/>
      <path id="Subtraction_235" data-name="Subtraction 235" d="M12.164,17.26h0a3.543,3.543,0,0,1-2.33-.831,3.779,3.779,0,0,1-.843-1.035,5.024,5.024,0,0,1-.526-1.445,1.791,1.791,0,0,1-.377.038,3.16,3.16,0,0,1-1.227-.28,3.206,3.206,0,0,1-1.09-.76,1.706,1.706,0,0,1-.49-1.321,1.078,1.078,0,0,0,.287.2,1.259,1.259,0,0,0,.517.169.24.24,0,0,0,.212-.1c.09-.132.059-.4-.092-.792a1.81,1.81,0,0,1-.765.211,2.212,2.212,0,0,1-.891-.259,1.754,1.754,0,0,1-.963-.9l-.039-.074-.037-.065a1.527,1.527,0,0,1-.233-1.192.854.854,0,0,1,.288-.476c.107-.1.184-.167.118-.44.09-.23-.436-.9-.894-1.429-.5-.57-1.02-1.089-1.025-1.095L1.8,5.4c.694.37,1.244.669,1.584.855.159.12.269.2.349.251.222.152.24.165.519.577a1.156,1.156,0,0,1,.16,1.081c-.023.112-.05.239-.069.382A1.7,1.7,0,0,0,4.8,9.736a1.58,1.58,0,0,0,1.2.572,1.781,1.781,0,0,0,.429-.054.734.734,0,0,0,.052-.6.355.355,0,0,0-.139-.162h0c.066-.006.139-.01.211-.01s.147,0,.216.01c.1.106.179.154.25.154a.246.246,0,0,0,.063-.01h0a.222.222,0,0,1,.054-.009.127.127,0,0,1,.075.027,1.487,1.487,0,0,0,.2.53c.12.213.238.351.3.351a.04.04,0,0,0,.033-.017c.049-.063.024-.3-.072-.689.011-.245-.329-.427-.722-.637a4.839,4.839,0,0,1-.742-.458,1.244,1.244,0,0,1-.471-.674c.009-.088.019-.172.028-.253.057-.521.1-.9.012-.994a.074.074,0,0,0-.057-.025.223.223,0,0,0-.116.046.347.347,0,0,1,.03-.236.3.3,0,0,1,.273-.166.592.592,0,0,1,.385.166c.118.073.127.3.139.623a6.069,6.069,0,0,0,.078.849,2.27,2.27,0,0,0,1.586.93.87.87,0,0,0,.686-.3c.192-.236.054-.388.052-.39a1.18,1.18,0,0,0,.274-.045.737.737,0,0,0,.212-.114,1.582,1.582,0,0,0-.052.35.909.909,0,0,0,.052.295,4.277,4.277,0,0,0-.387,3.127,4.65,4.65,0,0,0,.574,1.366,5.839,5.839,0,0,0,.621.648,2.8,2.8,0,0,0,1.35.741l.17,0a3.66,3.66,0,0,0,3.013-1.292.914.914,0,0,1,.092-.1s0,0,0,0-.026-.006-.072-.006c-.091,0-.238.008-.244.008a4.562,4.562,0,0,1-.722.493,4.28,4.28,0,0,1-.774.339,3.081,3.081,0,0,1-.934.154,2.823,2.823,0,0,1-2.4-1.507l1.043-.867.009-.007c2.575-2.139,4.128-3.43,5.439-4.753a2.135,2.135,0,0,1,.9.639,1.633,1.633,0,0,1,.176,1.614.82.82,0,0,1,.134-.011,1,1,0,0,1,.787.437,1.914,1.914,0,0,1,.36,1.1,1.338,1.338,0,0,1-.615,1.126c-.159.132-.285.236-.285.36,0,.162.061.172.139.185.125.021.3.05.328.736a2.582,2.582,0,0,1-.139.974,2.671,2.671,0,0,1-.372.7,2.593,2.593,0,0,1-.563.569,4.567,4.567,0,0,0-.1-1.771c-.193-.5-.434-.763-.7-.763a.416.416,0,0,0-.1.012c-.126.065-.19.126-.2.192-.017.09.065.183.169.3a1.219,1.219,0,0,1,.368.727,2.186,2.186,0,0,1-.642,1.444A5.448,5.448,0,0,1,12.164,17.26Zm-2.393-8.1h0a4.063,4.063,0,0,0-.01-.711A3.528,3.528,0,0,0,9.333,7.03a2.526,2.526,0,0,0-1.021-.94,2.672,2.672,0,0,0-.6-.23h0a1.98,1.98,0,0,1,.388.271,3.221,3.221,0,0,1,.749.978,1.886,1.886,0,0,1-.253,1.164.608.608,0,0,1-.511.347.75.75,0,0,1-.414-.15,3.517,3.517,0,0,1-.828-.74,2.232,2.232,0,0,1,.041-.971c.043-.223.077-.4.022-.47a7.842,7.842,0,0,0-1.238-.983,1.438,1.438,0,0,0-.679-.249.329.329,0,0,0-.35.286h0a.631.631,0,0,1,.284-.065.694.694,0,0,1,.254.049.86.86,0,0,1,.524.5.665.665,0,0,1-.084.474,1.014,1.014,0,0,1-.641.533A1.649,1.649,0,0,1,4.414,6.7a1.345,1.345,0,0,1-.538-.44,3.454,3.454,0,0,1-.312-1.614,2.748,2.748,0,0,0-.289-1.432l-.354-.239c-1-.674-1.037-.7-1.037-.875C2.023.805.792.238.046.016A.251.251,0,0,1,0,0H0L.08.01C.258.035.73.1,1.685.178A1.59,1.59,0,0,1,2.5,1.3c.115.4.207.718.8.718A2.268,2.268,0,0,0,3.587,2a1.159,1.159,0,0,1,.6.155,1.755,1.755,0,0,1,.546.617.484.484,0,0,1-.034.383.4.4,0,0,1-.3.125c-.081.01-.146.017-.161.06-.031.09.14.326,1.1,1.27a2.527,2.527,0,0,0,1.251.506.576.576,0,0,0,.567-.358,1.47,1.47,0,0,0,.082-.724,1.1,1.1,0,0,0-1.095-1.05.555.555,0,0,0-.066,0v0a2.75,2.75,0,0,1,.345-.344,1.513,1.513,0,0,1,.8-.378A.752.752,0,0,1,7.41,2.24a1.385,1.385,0,0,1,.989.524,1.784,1.784,0,0,1,.394,1.467C8.636,5.2,8.767,5.3,9.029,5.5a1.927,1.927,0,0,1,.281.25,1.919,1.919,0,0,0,1.249.536c.354,0,.787-.157.837-.9a.9.9,0,0,0-.181-.694.744.744,0,0,0-.568-.2,2.436,2.436,0,0,0-.827.182s0,0,0,0a4.123,4.123,0,0,1,.318-.88,2.585,2.585,0,0,1,.454-.656,1.39,1.39,0,0,1,.7-.4,1.657,1.657,0,0,1,.346-.036,2,2,0,0,1,.9.227,1.95,1.95,0,0,1,.667.547.88.88,0,0,1,.195.769c-.088.086-.127.158-.119.22.012.091.121.152.247.223.208.117.467.263.387.613a2.74,2.74,0,0,1-.488.727c-.945.831-2.176,1.89-3.659,3.148Z" transform="translate(0.102 1.142)" fill="#ff8282"/>
    </g>
    <text id="Burning_Blades" data-name="Burning Blades" transform="translate(28 33.297)" fill="#fff" font-size="8" font-family="SegoeUI-Bold, Segoe UI" font-weight="700"><tspan x="-28.398" y="0">Burning Blades</tspan></text>
  </g>
</svg>
