<svg xmlns="http://www.w3.org/2000/svg" width="12.611" height="12.603" viewBox="0 0 12.611 12.603">
  <path id="Union_145" data-name="Union 145" d="M-3349.83-713.4a.628.628,0,0,1-.2-.086h0c-.159-.084-.1-.238-.106-.368-.007-.977-.025-1.955,0-2.932.009-.355-.068-.481-.443-.471-.946.025-1.893.013-2.84,0-.152,0-.338.083-.454-.1v0l0,.009a.091.091,0,0,1-.032-.08.04.04,0,0,0,0-.006,1.012,1.012,0,0,1-.082-.573q-.008-1.738,0-3.474c-.007-.21-.036-.435.179-.579a1.175,1.175,0,0,1,.63-.073c.087.005.174.011.26.009.925-.022,1.849-.025,2.774-.036-.116-1.16-.033-2.325-.041-3.487,0-.256.19-.344.4-.345,1.393-.005,2.787,0,4.181,0,.317,0,.408.184.406.483-.014,1.118-.015,2.236-.02,3.355l0,0c1.043.007,2.085.013,3.128.025.177,0,.369-.055.526.088h0c.192.092.175.27.175.435v3.837a.528.528,0,0,1-.183.488,16.18,16.18,0,0,1-1.977.05c-.351-.005-.7-.011-1.052,0-.646.012-.633,0-.63.652.006.905-.01,1.81,0,2.715,0,.3-.106.472-.416.473Q-3347.738-713.4-3349.83-713.4Zm2.884-7.436c.081-.193.286-.222.471-.245.344-.041.694-.035,1.042-.049v0l0,0a1.611,1.611,0,0,0,.185-.01.579.579,0,0,1,.474.094.6.6,0,0,1,.076,0c.056,0,.113,0,.138-.025.3-.334.586-.213.873.015l.114.031c.217-.1.457-.4.608.016a.7.7,0,0,1,.773-.218.411.411,0,0,0,.291-.035c.032-.012.064-.024.1-.034a.421.421,0,0,1,.031-.522.211.211,0,0,1-.051.039,16.047,16.047,0,0,1-1.883.047c-.364-.005-.728-.011-1.092,0-.184.005-.368,0-.553,0-.324-.078-.369-.33-.379-.6-.026-.8,0-1.595-.013-2.391-.008-.676-.11-.781-.773-.788q-1.173-.009-2.346,0c-.639.005-.757.123-.766.749-.011.766.011,1.533-.011,2.3-.017.645-.152.791-.787.806-.874.022-1.752.013-2.623,0a.963.963,0,0,1-.46-.075.436.436,0,0,1-.1.584.239.239,0,0,1,.036.13.233.233,0,0,1,.04.181h.176a1.03,1.03,0,0,0,.011-.2.7.7,0,0,1,.457-.083l0,0c.165.018.246.129.1.226a.706.706,0,0,0-.072.055h.263c.114-.086.324-.116.431-.2.059.035.074.128.1.2h.338c.132-.144.221-.407.491-.121a.147.147,0,0,0,.071-.009.141.141,0,0,1,.134,0,.3.3,0,0,1,.035.035c.294.039.5-.174.756-.268.291.141.4.206.362.364h.12c-.062-.122.073-.177.256-.183.124.08.1-.038.126-.092a.372.372,0,0,1,.528.146c.143-.121.255-.007.375.048s.264.07.325-.06c.169-.357.42-.264.683-.154h0a.705.705,0,0,1,.149.168c.052.029.108.062.17.1l.03.027Z" transform="translate(3353.999 725.999)" fill="#ff8080"/>
</svg>
