<svg xmlns="http://www.w3.org/2000/svg" width="255.808" height="242.877" viewBox="0 0 255.808 242.877">
  <g id="nms-logo" transform="translate(-2.11 -2.62)">
    <path id="Path_3081" data-name="Path 3081" d="M83.36,50c-10,0-20,.08-30,0-3.78,0-5.49,1.39-5.44,5.27.1,7.49-.24,15,.11,22.48A9.39,9.39,0,0,0,51.14,84Q74.93,102.6,99,120.83c4.39,3.34,4.43,4.07-.08,7.51C83.07,140.46,67.2,152.57,51.55,165a10.89,10.89,0,0,0-3.44,7c-.46,6.63,0,13.32-.21,20-.18,4.58,1.63,6.14,6.12,6.11,19.49-.14,39,0,58.48,0,6.27,0,6.41.09,6.42,6.45v33.49c0,7.35-.65,8.05-8.16,7.06A125.26,125.26,0,0,1,65.44,230.4C38.14,215.1,19.21,192.91,9,163.24c-9.88-28.65-9.22-57,2.54-84.8,18.18-43,51.22-67.23,96.78-75,10.47-1.79,10.55-1.43,10.59,9.19s-.09,21.33.06,32c.06,4.06-1.47,5.63-5.6,5.55-10-.2-20-.06-30-.06Z" fill="#cd24ff"/>
    <path id="Path_3082" data-name="Path 3082" d="M156,124.26c9.72-7.53,18.62-14.47,27.56-21.35,8.45-6.5,17.06-12.78,25.32-19.5a10.37,10.37,0,0,0,3.48-6.67c.41-7.3.09-14.65.07-22,0-4.3-3-4.65-6.18-4.65l-51-.06c-3.33,0-6.66-.06-10-.06-3.15,0-4.46-1.59-4.45-4.68q.06-19,0-38c0-3.17,1.3-4.74,4.52-4.25,6.73,1,13.63,1.46,20.15,3.26,40,11,68.35,35.62,83.85,74.2,10.62,26.43,11.42,53.39,2.3,80.64-11.73,35.09-34.75,59.94-68.34,74.53-11,4.78-23.25,6.79-35.09,9.34-6.37,1.38-7.32,0-7.34-6.4-.05-11.33,0-22.66,0-34,0-6.06.54-6.61,6.52-6.62h58c6.16,0,6.9-.58,7.12-6.82a150.048,150.048,0,0,0-.09-19,11.92,11.92,0,0,0-4.3-7.17c-15.53-12.29-31.3-24.27-47-36.36C159.59,127.43,158.15,126.1,156,124.26Z" fill="#cd24ff"/>
    <path id="Path_3083" data-name="Path 3083" d="M158.3,167.22H101.36c1.39-1.76,2-2.93,2.94-3.66,6.56-5.11,13.22-10.09,19.78-15.2,3.68-2.87,6.81-3.62,11-.11,6.83,5.79,14.27,10.87,21.43,16.28A21.156,21.156,0,0,1,158.3,167.22Z" fill="#cd24ff"/>
    <path id="Path_3084" data-name="Path 3084" d="M101.31,81.54h56.45c-.49,1.08-.65,2.16-1.26,2.63-7.93,6.07-15.84,12.16-24,18-1.28.9-4.18,1.15-5.35.32-8.39-6-16.53-12.3-24.72-18.56C102,83.54,101.9,82.78,101.31,81.54Z" fill="#cd24ff"/>
  </g>
</svg>

